<?xml version="1.0" encoding="UTF-8" standalone="no"?>
<!-- This is a Stata 16.1 generated SVG file (http://www.stata.com) -->

<svg version="1.1" width="5.50in" height="4.00in" viewBox="0 0 3960 2880" xmlns="http://www.w3.org/2000/svg" xmlns:xlink="http://www.w3.org/1999/xlink">
	<desc>Stata Graph - Graph</desc>
	<rect x="0" y="0" width="3960" height="2880" style="fill:#EAF2F3;stroke:none"/>
	<rect x="0.00" y="0.00" width="3959.88" height="2880.00" style="fill:#EAF2F3"/>
	<rect x="2.88" y="2.88" width="3954.12" height="2874.24" style="fill:none;stroke:#EAF2F3;stroke-width:5.76"/>
	<rect x="521.73" y="100.86" width="3337.29" height="2388.33" style="fill:#FFFFFF"/>
	<rect x="524.61" y="103.74" width="3331.53" height="2382.57" style="fill:none;stroke:#FFFFFF;stroke-width:5.76"/>
	<line x1="521.73" y1="2425.82" x2="3859.02" y2="2425.82" style="stroke:#EAF2F3;stroke-width:8.64"/>
	<line x1="521.73" y1="1973.50" x2="3859.02" y2="1973.50" style="stroke:#EAF2F3;stroke-width:8.64"/>
	<line x1="521.73" y1="1521.18" x2="3859.02" y2="1521.18" style="stroke:#EAF2F3;stroke-width:8.64"/>
	<line x1="521.73" y1="1068.86" x2="3859.02" y2="1068.86" style="stroke:#EAF2F3;stroke-width:8.64"/>
	<line x1="521.73" y1="616.54" x2="3859.02" y2="616.54" style="stroke:#EAF2F3;stroke-width:8.64"/>
	<defs>
		<path id="path_sCrqojCg" d="M600.31 2425.82 L600.31 2425.82 L615.53 2425.82 L630.75 2425.70 L645.98 2425.45 L661.20 2424.83 L676.42 2423.72 L691.64 2421.99 L706.86 2419.39 L722.08 2415.80 L737.30 2411.22 L752.52 2405.53 L767.75 2398.60 L782.97 2390.55 L798.19 2381.40 L813.41 2371.00 L828.63 2359.49 L843.85 2346.87 L859.07 2333.26 L874.29 2318.65 L889.51 2303.31 L904.61 2286.97 L919.83 2270.02 L935.05 2252.44 L950.28 2234.38 L965.50 2215.69 L980.72 2196.63 L995.94 2177.33 L1011.16 2157.77 L1026.38 2137.97 L1041.60 2118.05 L1056.83 2098.00 L1072.05 2078.07 L1087.27 2058.15 L1102.49 2038.23 L1117.71 2018.55 L1132.93 1999.12 L1148.15 1979.81 L1163.37 1960.76 L1178.60 1942.07 L1193.82 1923.63 L1209.04 1905.56 L1224.26 1887.87 L1239.48 1870.42 L1254.70 1853.46 L1269.80 1836.75 L1285.02 1820.54 L1300.24 1804.58 L1315.46 1788.99 L1330.68 1773.76 L1345.90 1759.04 L1361.13 1744.56 L1376.35 1730.45 L1391.57 1716.71 L1406.79 1703.35 L1422.01 1690.23 L1437.23 1677.48 L1452.45 1665.11 L1467.67 1653.10 L1482.90 1641.35 L1498.12 1629.96 L1513.34 1618.82 L1528.56 1608.06 L1543.78 1597.54 L1559.00 1587.39 L1574.22 1577.37 L1589.44 1567.71 L1604.67 1558.31 L1619.76 1549.15 L1634.98 1540.36 L1650.21 1531.70 L1665.43 1523.29 L1680.65 1515.12 L1695.87 1507.20 L1711.09 1499.53 L1726.31 1491.98 L1741.53 1484.68 L1756.76 1477.62 L1771.98 1470.69 L1787.20 1464.01 L1802.42 1457.57 L1817.64 1451.26 L1832.86 1445.07 L1848.08 1439.13 L1863.30 1433.32 L1878.53 1427.62 L1893.75 1422.18 L1908.97 1416.86 L1924.19 1411.66 L1939.41 1406.71 L1954.63 1401.76 L1969.85 1397.06 L1984.95 1392.35 L2000.17 1387.90 L2015.39 1383.57 L2030.61 1379.24 L2045.84 1375.15 L2061.06 1371.19 L2076.28 1367.23 L2091.50 1363.40 L2106.72 1359.81 L2121.94 1356.22 L2137.16 1352.63 L2152.38 1349.29 L2167.61 1345.95 L2182.83 1342.73 L2198.05 1339.64 L2213.27 1336.67 L2228.49 1333.70 L2243.71 1330.85 L2258.93 1328.00 L2274.15 1325.28 L2289.38 1322.68 L2304.60 1320.08 L2319.82 1317.61 L2335.04 1315.13 L2350.14 1312.78 L2365.36 1310.43 L2380.58 1308.20 L2395.80 1306.10 L2411.02 1303.87 L2426.24 1301.89 L2441.46 1299.79 L2456.68 1297.93 L2471.91 1295.95 L2487.13 1294.09 L2502.35 1292.24 L2517.57 1290.51 L2532.79 1288.77 L2548.01 1287.16 L2563.23 1285.56 L2578.45 1283.95 L2593.68 1282.34 L2608.90 1280.85 L2624.12 1279.37 L2639.34 1278.01 L2654.56 1276.64 L2669.78 1275.28 L2685.00 1273.92 L2700.22 1272.56 L2715.32 1271.32 L2730.54 1270.09 L2745.76 1268.97 L2760.99 1267.73 L2776.21 1266.62 L2791.43 1265.51 L2806.65 1264.39 L2821.87 1263.40 L2837.09 1262.29 L2852.31 1261.30 L2867.53 1260.31 L2882.76 1259.44 L2897.98 1258.45 L2913.20 1257.46 L2928.42 1256.60 L2943.64 1255.73 L2958.86 1254.86 L2974.08 1254.00 L2989.30 1253.26 L3004.53 1252.39 L3019.75 1251.65 L3034.97 1250.90 L3050.19 1250.16 L3065.41 1249.42 L3080.51 1248.68 L3095.73 1247.93 L3110.95 1247.32 L3126.17 1246.57 L3141.39 1245.95 L3156.61 1245.34 L3171.84 1244.59 L3187.06 1243.97 L3202.28 1243.36 L3217.50 1242.86 L3232.72 1242.24 L3247.94 1241.62 L3263.16 1241.13 L3278.39 1240.51 L3293.61 1240.01 L3308.83 1239.39 L3324.05 1238.90 L3339.27 1238.40 L3354.49 1237.79 L3369.71 1237.29 L3384.93 1236.80 L3400.16 1236.30 L3415.38 1235.81 L3430.47 1235.31 L3445.70 1234.94 L3460.92 1234.44 L3476.14 1233.95 L3491.36 1233.45 L3506.58 1233.08 L3521.80 1232.59 L3537.02 1232.22 L3552.24 1231.72 L3567.47 1231.35 L3582.69 1230.86 L3597.91 1230.48 L3613.13 1229.99 L3628.35 1229.62 L3643.57 1229.25 L3658.79 1228.75 L3674.01 1228.38 L3689.24 1228.01 L3704.46 1227.64 L3719.68 1227.27 L3734.90 1226.77 L3750.12 1226.40 L3765.34 1226.03 L3780.56 1225.66 L3795.66 1225.29 L3795.66 1092.25 L3780.56 1092.75 L3765.34 1093.12 L3750.12 1093.61 L3734.90 1093.98 L3719.68 1094.48 L3704.46 1094.85 L3689.24 1095.35 L3674.01 1095.72 L3658.79 1096.21 L3643.57 1096.58 L3628.35 1097.08 L3613.13 1097.57 L3597.91 1098.07 L3582.69 1098.44 L3567.47 1098.93 L3552.24 1099.43 L3537.02 1099.92 L3521.80 1100.42 L3506.58 1100.91 L3491.36 1101.41 L3476.14 1101.90 L3460.92 1102.40 L3445.70 1102.89 L3430.47 1103.39 L3415.38 1103.88 L3400.16 1104.50 L3384.93 1105.00 L3369.71 1105.49 L3354.49 1106.11 L3339.27 1106.61 L3324.05 1107.23 L3308.83 1107.84 L3293.61 1108.46 L3278.39 1108.96 L3263.16 1109.58 L3247.94 1110.20 L3232.72 1110.81 L3217.50 1111.56 L3202.28 1112.18 L3187.06 1112.79 L3171.84 1113.54 L3156.61 1114.16 L3141.39 1114.90 L3126.17 1115.64 L3110.95 1116.38 L3095.73 1117.13 L3080.51 1117.87 L3065.41 1118.73 L3050.19 1119.48 L3034.97 1120.34 L3019.75 1121.09 L3004.53 1121.95 L2989.30 1122.82 L2974.08 1123.69 L2958.86 1124.68 L2943.64 1125.54 L2928.42 1126.53 L2913.20 1127.52 L2897.98 1128.51 L2882.76 1129.50 L2867.53 1130.49 L2852.31 1131.61 L2837.09 1132.72 L2821.87 1133.83 L2806.65 1134.95 L2791.43 1136.18 L2776.21 1137.42 L2760.99 1138.54 L2745.76 1139.90 L2730.54 1141.13 L2715.32 1142.50 L2700.22 1143.86 L2685.00 1145.22 L2669.78 1146.70 L2654.56 1148.19 L2639.34 1149.67 L2624.12 1151.28 L2608.90 1152.89 L2593.68 1154.50 L2578.45 1156.11 L2563.23 1157.84 L2548.01 1159.70 L2532.79 1161.43 L2517.57 1163.29 L2502.35 1165.27 L2487.13 1167.25 L2471.91 1169.23 L2456.68 1171.33 L2441.46 1173.43 L2426.24 1175.66 L2411.02 1177.89 L2395.80 1180.24 L2380.58 1182.59 L2365.36 1185.07 L2350.14 1187.54 L2335.04 1190.14 L2319.82 1192.74 L2304.60 1195.46 L2289.38 1198.31 L2274.15 1201.16 L2258.93 1204.13 L2243.71 1207.22 L2228.49 1210.31 L2213.27 1213.53 L2198.05 1216.87 L2182.83 1220.21 L2167.61 1223.80 L2152.38 1227.39 L2137.16 1231.10 L2121.94 1234.82 L2106.72 1238.78 L2091.50 1242.86 L2076.28 1246.94 L2061.06 1251.28 L2045.84 1255.61 L2030.61 1260.06 L2015.39 1264.76 L2000.17 1269.47 L1984.95 1274.42 L1969.85 1279.49 L1954.63 1284.69 L1939.41 1290.01 L1924.19 1295.58 L1908.97 1301.15 L1893.75 1306.96 L1878.53 1313.03 L1863.30 1319.22 L1848.08 1325.53 L1832.86 1331.96 L1817.64 1338.77 L1802.42 1345.58 L1787.20 1352.75 L1771.98 1360.06 L1756.76 1367.60 L1741.53 1375.28 L1726.31 1383.20 L1711.09 1391.36 L1695.87 1399.90 L1680.65 1408.44 L1665.43 1417.35 L1650.21 1426.51 L1634.98 1435.92 L1619.76 1445.69 L1604.67 1455.59 L1589.44 1465.86 L1574.22 1476.38 L1559.00 1487.15 L1543.78 1498.29 L1528.56 1509.80 L1513.34 1521.55 L1498.12 1533.56 L1482.90 1545.93 L1467.67 1558.68 L1452.45 1571.80 L1437.23 1585.16 L1422.01 1599.02 L1406.79 1613.13 L1391.57 1627.61 L1376.35 1642.46 L1361.13 1657.81 L1345.90 1673.40 L1330.68 1689.36 L1315.46 1705.82 L1300.24 1722.65 L1285.02 1739.86 L1269.80 1757.43 L1254.70 1775.37 L1239.48 1793.81 L1224.26 1812.50 L1209.04 1831.68 L1193.82 1851.23 L1178.60 1871.03 L1163.37 1891.21 L1148.15 1911.87 L1132.93 1932.66 L1117.71 1953.83 L1102.49 1975.11 L1087.27 1996.64 L1072.05 2018.30 L1056.83 2040.08 L1041.60 2061.86 L1026.38 2083.77 L1011.16 2105.42 L995.94 2127.08 L980.72 2148.61 L965.50 2169.78 L950.28 2190.69 L935.05 2211.11 L919.83 2231.16 L904.61 2250.46 L889.51 2269.27 L874.29 2287.34 L859.07 2304.54 L843.85 2320.76 L828.63 2336.10 L813.41 2350.33 L798.19 2363.33 L782.97 2375.21 L767.75 2385.85 L752.52 2395.01 L737.30 2402.93 L722.08 2409.61 L706.86 2414.81 L691.64 2418.89 L676.42 2421.86 L661.20 2423.84 L645.98 2424.96 L630.75 2425.58 L615.53 2425.82 L600.31 2425.82 L600.31 2425.82 Z" stroke-linejoin="round"/>
	</defs>
	<defs>
		<clipPath id="clipPath_prJAlhBN">
			<use xlink:href="#path_sCrqojCg"/>
		</clipPath>
	</defs>
	<use xlink:href="#path_sCrqojCg" style="stroke:none;fill:#3333FF;fill-opacity:0.25"/>
	<use xlink:href="#path_sCrqojCg" style="fill:none;stroke:#0000FF;stroke-opacity:0.25;stroke-width:17.28" clip-path="url(#clipPath_prJAlhBN)"/>
	<defs>
		<path id="path_hKjUQYbV" d="M600.31 2425.82 L600.31 2425.82 L615.53 2425.82 L630.75 2425.70 L645.98 2425.45 L661.20 2424.71 L676.42 2423.47 L691.64 2421.49 L706.86 2418.52 L722.08 2414.56 L737.30 2409.36 L752.52 2403.05 L767.75 2395.38 L782.97 2386.47 L798.19 2376.32 L813.41 2364.94 L828.63 2352.44 L843.85 2338.70 L859.07 2323.97 L874.29 2308.26 L889.51 2291.55 L904.61 2274.22 L919.83 2256.03 L935.05 2237.22 L950.28 2217.92 L965.50 2198.12 L980.72 2177.94 L995.94 2157.40 L1011.16 2136.73 L1026.38 2115.82 L1041.60 2094.78 L1056.83 2073.74 L1072.05 2052.83 L1087.27 2031.79 L1102.49 2011.00 L1117.71 1990.33 L1132.93 1969.91 L1148.15 1949.74 L1163.37 1929.82 L1178.60 1910.26 L1193.82 1890.96 L1209.04 1872.02 L1224.26 1853.46 L1239.48 1835.27 L1254.70 1817.45 L1269.80 1800.12 L1285.02 1783.05 L1300.24 1766.34 L1315.46 1750.13 L1330.68 1734.29 L1345.90 1718.69 L1361.13 1703.60 L1376.35 1688.87 L1391.57 1674.51 L1406.79 1660.41 L1422.01 1646.79 L1437.23 1633.55 L1452.45 1620.56 L1467.67 1607.93 L1482.90 1595.68 L1498.12 1583.68 L1513.34 1572.05 L1528.56 1560.78 L1543.78 1549.77 L1559.00 1539.00 L1574.22 1528.61 L1589.44 1518.46 L1604.67 1508.68 L1619.76 1499.03 L1634.98 1489.75 L1650.21 1480.72 L1665.43 1471.93 L1680.65 1463.39 L1695.87 1455.10 L1711.09 1446.93 L1726.31 1439.13 L1741.53 1431.46 L1756.76 1424.04 L1771.98 1416.86 L1787.20 1409.80 L1802.42 1403.00 L1817.64 1396.31 L1832.86 1389.88 L1848.08 1383.69 L1863.30 1377.50 L1878.53 1371.69 L1893.75 1365.87 L1908.97 1360.30 L1924.19 1354.86 L1939.41 1349.66 L1954.63 1344.46 L1969.85 1339.51 L1984.95 1334.69 L2000.17 1329.98 L2015.39 1325.40 L2030.61 1320.95 L2045.84 1316.62 L2061.06 1312.41 L2076.28 1308.20 L2091.50 1304.24 L2106.72 1300.41 L2121.94 1296.69 L2137.16 1292.98 L2152.38 1289.39 L2167.61 1285.93 L2182.83 1282.59 L2198.05 1279.37 L2213.27 1276.15 L2228.49 1273.06 L2243.71 1270.09 L2258.93 1267.12 L2274.15 1264.27 L2289.38 1261.55 L2304.60 1258.82 L2319.82 1256.23 L2335.04 1253.63 L2350.14 1251.15 L2365.36 1248.80 L2380.58 1246.45 L2395.80 1244.10 L2411.02 1241.87 L2426.24 1239.77 L2441.46 1237.66 L2456.68 1235.56 L2471.91 1233.58 L2487.13 1231.60 L2502.35 1229.74 L2517.57 1227.89 L2532.79 1226.03 L2548.01 1224.30 L2563.23 1222.56 L2578.45 1220.96 L2593.68 1219.35 L2608.90 1217.74 L2624.12 1216.25 L2639.34 1214.77 L2654.56 1213.28 L2669.78 1211.80 L2685.00 1210.44 L2700.22 1209.08 L2715.32 1207.84 L2730.54 1206.48 L2745.76 1205.24 L2760.99 1204.00 L2776.21 1202.89 L2791.43 1201.65 L2806.65 1200.54 L2821.87 1199.42 L2837.09 1198.31 L2852.31 1197.32 L2867.53 1196.33 L2882.76 1195.21 L2897.98 1194.22 L2913.20 1193.36 L2928.42 1192.37 L2943.64 1191.50 L2958.86 1190.51 L2974.08 1189.65 L2989.30 1188.78 L3004.53 1188.04 L3019.75 1187.17 L3034.97 1186.43 L3050.19 1185.56 L3065.41 1184.82 L3080.51 1184.08 L3095.73 1183.33 L3110.95 1182.59 L3126.17 1181.85 L3141.39 1181.23 L3156.61 1180.49 L3171.84 1179.87 L3187.06 1179.25 L3202.28 1178.51 L3217.50 1177.89 L3232.72 1177.27 L3247.94 1176.65 L3263.16 1176.16 L3278.39 1175.54 L3293.61 1174.92 L3308.83 1174.42 L3324.05 1173.81 L3339.27 1173.31 L3354.49 1172.69 L3369.71 1172.20 L3384.93 1171.70 L3400.16 1171.08 L3415.38 1170.59 L3430.47 1170.09 L3445.70 1169.60 L3460.92 1169.10 L3476.14 1168.61 L3491.36 1168.11 L3506.58 1167.74 L3521.80 1167.25 L3537.02 1166.75 L3552.24 1166.26 L3567.47 1165.89 L3582.69 1165.39 L3597.91 1165.02 L3613.13 1164.52 L3628.35 1164.15 L3643.57 1163.66 L3658.79 1163.29 L3674.01 1162.79 L3689.24 1162.42 L3704.46 1161.93 L3719.68 1161.55 L3734.90 1161.18 L3750.12 1160.69 L3765.34 1160.32 L3780.56 1159.94 L3795.66 1159.45 L3795.66 640.67 L3780.56 641.29 L3765.34 641.91 L3750.12 642.41 L3734.90 643.03 L3719.68 643.64 L3704.46 644.14 L3689.24 644.76 L3674.01 645.38 L3658.79 646.00 L3643.57 646.61 L3628.35 647.11 L3613.13 647.73 L3597.91 648.35 L3582.69 648.97 L3567.47 649.58 L3552.24 650.33 L3537.02 650.95 L3521.80 651.56 L3506.58 652.18 L3491.36 652.93 L3476.14 653.54 L3460.92 654.29 L3445.70 654.91 L3430.47 655.65 L3415.38 656.27 L3400.16 657.01 L3384.93 657.75 L3369.71 658.49 L3354.49 659.24 L3339.27 659.98 L3324.05 660.72 L3308.83 661.59 L3293.61 662.33 L3278.39 663.20 L3263.16 663.94 L3247.94 664.81 L3232.72 665.67 L3217.50 666.54 L3202.28 667.40 L3187.06 668.27 L3171.84 669.26 L3156.61 670.13 L3141.39 671.12 L3126.17 672.11 L3110.95 673.10 L3095.73 674.09 L3080.51 675.08 L3065.41 676.19 L3050.19 677.30 L3034.97 678.42 L3019.75 679.53 L3004.53 680.65 L2989.30 681.76 L2974.08 683.00 L2958.86 684.24 L2943.64 685.47 L2928.42 686.71 L2913.20 688.07 L2897.98 689.43 L2882.76 690.79 L2867.53 692.16 L2852.31 693.64 L2837.09 695.13 L2821.87 696.61 L2806.65 698.22 L2791.43 699.70 L2776.21 701.44 L2760.99 703.05 L2745.76 704.78 L2730.54 706.51 L2715.32 708.24 L2700.22 710.10 L2685.00 712.08 L2669.78 713.94 L2654.56 715.92 L2639.34 718.02 L2624.12 720.12 L2608.90 722.23 L2593.68 724.46 L2578.45 726.68 L2563.23 729.03 L2548.01 731.39 L2532.79 733.86 L2517.57 736.34 L2502.35 738.93 L2487.13 741.53 L2471.91 744.26 L2456.68 747.10 L2441.46 749.95 L2426.24 752.92 L2411.02 756.01 L2395.80 759.11 L2380.58 762.32 L2365.36 765.54 L2350.14 769.01 L2335.04 772.47 L2319.82 775.94 L2304.60 779.65 L2289.38 783.49 L2274.15 787.32 L2258.93 791.28 L2243.71 795.37 L2228.49 799.57 L2213.27 803.91 L2198.05 808.36 L2182.83 812.94 L2167.61 817.64 L2152.38 822.59 L2137.16 827.54 L2121.94 832.62 L2106.72 837.94 L2091.50 843.38 L2076.28 848.95 L2061.06 854.64 L2045.84 860.58 L2030.61 866.65 L2015.39 872.84 L2000.17 879.27 L1984.95 885.83 L1969.85 892.64 L1954.63 899.69 L1939.41 906.87 L1924.19 914.17 L1908.97 921.84 L1893.75 929.64 L1878.53 937.68 L1863.30 945.97 L1848.08 954.51 L1832.86 963.30 L1817.64 972.33 L1802.42 981.62 L1787.20 991.14 L1771.98 1001.05 L1756.76 1011.07 L1741.53 1021.46 L1726.31 1032.23 L1711.09 1043.25 L1695.87 1054.51 L1680.65 1066.14 L1665.43 1078.14 L1650.21 1090.52 L1634.98 1103.14 L1619.76 1116.26 L1604.67 1129.63 L1589.44 1143.36 L1574.22 1157.59 L1559.00 1172.20 L1543.78 1187.17 L1528.56 1202.52 L1513.34 1218.36 L1498.12 1234.69 L1482.90 1251.40 L1467.67 1268.48 L1452.45 1286.17 L1437.23 1304.24 L1422.01 1322.81 L1406.79 1341.99 L1391.57 1361.54 L1376.35 1381.59 L1361.13 1402.13 L1345.90 1423.29 L1330.68 1444.95 L1315.46 1467.10 L1300.24 1489.75 L1285.02 1513.01 L1269.80 1536.78 L1254.70 1561.03 L1239.48 1585.91 L1224.26 1611.28 L1209.04 1637.14 L1193.82 1663.50 L1178.60 1690.23 L1163.37 1717.58 L1148.15 1745.30 L1132.93 1773.39 L1117.71 1801.98 L1102.49 1830.69 L1087.27 1859.65 L1072.05 1888.86 L1056.83 1918.18 L1041.60 1947.51 L1026.38 1976.72 L1011.16 2005.93 L995.94 2034.88 L980.72 2063.60 L965.50 2091.81 L950.28 2119.66 L935.05 2146.76 L919.83 2173.24 L904.61 2198.98 L889.51 2223.73 L874.29 2247.37 L859.07 2270.02 L843.85 2291.30 L828.63 2311.10 L813.41 2329.54 L798.19 2346.50 L782.97 2361.72 L767.75 2375.21 L752.52 2387.09 L737.30 2397.11 L722.08 2405.53 L706.86 2412.09 L691.64 2417.28 L676.42 2420.87 L661.20 2423.35 L645.98 2424.83 L630.75 2425.58 L615.53 2425.82 L600.31 2425.82 L600.31 2425.82 Z" stroke-linejoin="round"/>
	</defs>
	<defs>
		<clipPath id="clipPath_MkVUeBhZ">
			<use xlink:href="#path_hKjUQYbV"/>
		</clipPath>
	</defs>
	<use xlink:href="#path_hKjUQYbV" style="stroke:none;fill:#FF3333;fill-opacity:0.25"/>
	<use xlink:href="#path_hKjUQYbV" style="fill:none;stroke:#FF0000;stroke-opacity:0.25;stroke-width:17.28" clip-path="url(#clipPath_MkVUeBhZ)"/>
	<path d=" M585.09 2425.95 L600.31 2425.95 L615.53 2425.82 L630.75 2425.70 L645.98 2425.33 L661.20 2424.46 L676.42 2422.98 L691.64 2420.75 L706.86 2417.53 L721.96 2413.08 L737.18 2407.63 L752.40 2400.95 L767.62 2392.90 L782.84 2383.62 L798.06 2373.23 L813.28 2361.47 L828.51 2348.72 L843.73 2334.86 L858.95 2319.89 L874.17 2304.05 L889.39 2287.34 L904.61 2269.89 L919.83 2251.70 L935.05 2233.01 L950.28 2213.71 L965.50 2193.91 L980.72 2173.86 L995.94 2153.44 L1011.16 2132.77 L1026.38 2112.11 L1041.60 2091.19 L1056.83 2070.28 L1072.05 2049.36 L1087.14 2028.57 L1102.37 2007.91 L1117.59 1987.49 L1132.81 1967.19 L1148.03 1947.14 L1163.25 1927.34 L1178.47 1907.79 L1193.69 1888.73 L1208.91 1869.92 L1224.13 1851.48 L1239.36 1833.41 L1254.58 1815.72 L1269.80 1798.39 L1285.02 1781.44 L1300.24 1764.98 L1315.46 1748.77 L1330.68 1732.93 L1345.90 1717.58 L1361.13 1702.48 L1376.35 1687.88 L1391.57 1673.52 L1406.79 1659.54 L1422.01 1646.05 L1437.23 1632.81 L1452.33 1619.81 L1467.55 1607.32 L1482.77 1595.06 L1497.99 1583.18 L1513.21 1571.67 L1528.44 1560.41 L1543.66 1549.40 L1558.88 1538.76 L1574.10 1528.36 L1589.32 1518.34 L1604.54 1508.44 L1619.76 1498.91 L1634.98 1489.63 L1650.21 1480.59 L1665.43 1471.80 L1680.65 1463.39 L1695.87 1455.10 L1711.09 1447.05 L1726.31 1439.13 L1741.53 1431.58 L1756.76 1424.16 L1771.98 1416.98 L1787.20 1409.93 L1802.30 1403.12 L1817.52 1396.56 L1832.74 1390.13 L1847.96 1383.94 L1863.18 1377.88 L1878.40 1371.94 L1893.62 1366.24 L1908.84 1360.67 L1924.07 1355.23 L1939.29 1350.03 L1954.51 1344.83 L1969.73 1339.88 L1984.95 1335.06 L2000.17 1330.35 L2015.39 1325.78 L2030.61 1321.32 L2045.84 1316.99 L2061.06 1312.90 L2076.28 1308.82 L2091.50 1304.86 L2106.72 1300.90 L2121.94 1297.19 L2137.16 1293.60 L2152.38 1290.01 L2167.48 1286.55 L2182.70 1283.20 L2197.92 1279.99 L2213.14 1276.77 L2228.37 1273.67 L2243.59 1270.70 L2258.81 1267.73 L2274.03 1265.01 L2289.25 1262.17 L2304.47 1259.57 L2319.69 1256.84 L2334.91 1254.37 L2350.14 1251.89 L2365.36 1249.42 L2380.58 1247.19 L2395.80 1244.84 L2411.02 1242.61 L2426.24 1240.51 L2441.46 1238.40 L2456.68 1236.30 L2471.91 1234.32 L2487.13 1232.46 L2502.35 1230.48 L2517.57 1228.63 L2532.67 1226.90 L2547.89 1225.16 L2563.11 1223.43 L2578.33 1221.82 L2593.55 1220.21 L2608.77 1218.60 L2623.99 1217.12 L2639.22 1215.63 L2654.44 1214.15 L2669.66 1212.79 L2684.88 1211.30 L2700.10 1210.07 L2715.32 1208.70 L2730.54 1207.47 L2745.76 1206.23 L2760.99 1204.99 L2776.21 1203.75 L2791.43 1202.64 L2806.65 1201.53 L2821.87 1200.41 L2837.09 1199.30 L2852.31 1198.18 L2867.53 1197.19 L2882.76 1196.20 L2897.85 1195.21 L2913.07 1194.22 L2928.30 1193.36 L2943.52 1192.49 L2958.74 1191.50 L2973.96 1190.64 L2989.18 1189.77 L3004.40 1189.03 L3019.62 1188.16 L3034.84 1187.42 L3050.07 1186.55 L3065.29 1185.81 L3080.51 1185.07 L3095.73 1184.32 L3110.95 1183.58 L3126.17 1182.96 L3141.39 1182.22 L3156.61 1181.48 L3171.84 1180.86 L3187.06 1180.24 L3202.28 1179.62 L3217.50 1179.00 L3232.72 1178.38 L3247.94 1177.77 L3263.04 1177.15 L3278.26 1176.53 L3293.48 1176.03 L3308.70 1175.41 L3323.93 1174.80 L3339.15 1174.30 L3354.37 1173.81 L3369.59 1173.19 L3384.81 1172.69 L3400.03 1172.20 L3415.25 1171.70 L3430.47 1171.21 L3445.70 1170.71 L3460.92 1170.22 L3476.14 1169.72 L3491.36 1169.23 L3506.58 1168.73 L3521.80 1168.24 L3537.02 1167.87 L3552.24 1167.37 L3567.47 1166.88 L3582.69 1166.50 L3597.91 1166.01 L3613.01 1165.64 L3628.23 1165.14 L3643.45 1164.77 L3658.67 1164.28 L3673.89 1163.91 L3689.11 1163.41 L3704.33 1163.04 L3719.55 1162.67 L3734.78 1162.17 L3750.00 1161.80 L3765.22 1161.43 L3780.44 1160.94 L3795.66 1160.56" stroke-linejoin="round" style="fill:none;stroke:#0000FF;stroke-width:8.64"/>
	<path d=" M585.09 2425.95 L600.31 2425.95 L615.53 2425.82 L630.75 2425.70 L645.98 2425.20 L661.20 2424.21 L676.42 2422.48 L691.64 2419.76 L706.86 2415.92 L721.96 2410.73 L737.18 2404.17 L752.40 2396.12 L767.62 2386.72 L782.84 2375.70 L798.06 2363.20 L813.28 2349.34 L828.51 2334.12 L843.73 2317.54 L858.95 2299.84 L874.17 2281.03 L889.39 2261.23 L904.61 2240.44 L919.83 2218.78 L935.05 2196.51 L950.28 2173.61 L965.50 2150.10 L980.72 2126.22 L995.94 2101.96 L1011.16 2077.46 L1026.38 2052.83 L1041.60 2027.95 L1056.83 2003.08 L1072.05 1978.33 L1087.14 1953.58 L1102.37 1929.08 L1117.59 1904.70 L1132.81 1880.56 L1148.03 1856.68 L1163.25 1833.17 L1178.47 1810.02 L1193.69 1787.25 L1208.91 1764.98 L1224.13 1743.07 L1239.36 1721.66 L1254.58 1700.63 L1269.80 1680.08 L1285.02 1659.91 L1300.24 1640.23 L1315.46 1621.05 L1330.68 1602.24 L1345.90 1583.93 L1361.13 1566.11 L1376.35 1548.66 L1391.57 1531.70 L1406.79 1515.12 L1422.01 1498.91 L1437.23 1483.19 L1452.33 1467.84 L1467.55 1452.99 L1482.77 1438.51 L1497.99 1424.28 L1513.21 1410.55 L1528.44 1397.18 L1543.66 1384.19 L1558.88 1371.56 L1574.10 1359.19 L1589.32 1347.18 L1604.54 1335.55 L1619.76 1324.17 L1634.98 1313.15 L1650.21 1302.51 L1665.43 1292.11 L1680.65 1281.97 L1695.87 1272.07 L1711.09 1262.54 L1726.31 1253.26 L1741.53 1244.22 L1756.76 1235.43 L1771.98 1226.90 L1787.20 1218.60 L1802.30 1210.44 L1817.52 1202.64 L1832.74 1194.97 L1847.96 1187.54 L1863.18 1180.36 L1878.40 1173.43 L1893.62 1166.63 L1908.84 1159.94 L1924.07 1153.51 L1939.29 1147.32 L1954.51 1141.26 L1969.73 1135.32 L1984.95 1129.63 L2000.17 1124.06 L2015.39 1118.61 L2030.61 1113.29 L2045.84 1108.22 L2061.06 1103.27 L2076.28 1098.32 L2091.50 1093.61 L2106.72 1089.03 L2121.94 1084.58 L2137.16 1080.25 L2152.38 1076.04 L2167.48 1071.96 L2182.70 1068.00 L2197.92 1064.16 L2213.14 1060.32 L2228.37 1056.73 L2243.59 1053.15 L2258.81 1049.68 L2274.03 1046.34 L2289.25 1043.00 L2304.47 1039.90 L2319.69 1036.81 L2334.91 1033.72 L2350.14 1030.75 L2365.36 1027.90 L2380.58 1025.18 L2395.80 1022.45 L2411.02 1019.86 L2426.24 1017.26 L2441.46 1014.78 L2456.68 1012.31 L2471.91 1009.96 L2487.13 1007.73 L2502.35 1005.38 L2517.57 1003.27 L2532.67 1001.17 L2547.89 999.06 L2563.11 997.08 L2578.33 995.10 L2593.55 993.12 L2608.77 991.27 L2623.99 989.54 L2639.22 987.68 L2654.44 985.95 L2669.66 984.34 L2684.88 982.61 L2700.10 981.12 L2715.32 979.51 L2730.54 978.03 L2745.76 976.54 L2760.99 975.06 L2776.21 973.70 L2791.43 972.33 L2806.65 970.97 L2821.87 969.61 L2837.09 968.37 L2852.31 967.14 L2867.53 965.90 L2882.76 964.66 L2897.85 963.55 L2913.07 962.43 L2928.30 961.32 L2943.52 960.21 L2958.74 959.09 L2973.96 958.10 L2989.18 957.11 L3004.40 956.12 L3019.62 955.13 L3034.84 954.14 L3050.07 953.28 L3065.29 952.41 L3080.51 951.42 L3095.73 950.55 L3110.95 949.69 L3126.17 948.94 L3141.39 948.08 L3156.61 947.21 L3171.84 946.47 L3187.06 945.73 L3202.28 944.98 L3217.50 944.24 L3232.72 943.50 L3247.94 942.76 L3263.04 942.01 L3278.26 941.40 L3293.48 940.65 L3308.70 940.03 L3323.93 939.29 L3339.15 938.67 L3354.37 938.05 L3369.59 937.44 L3384.81 936.82 L3400.03 936.20 L3415.25 935.58 L3430.47 934.96 L3445.70 934.34 L3460.92 933.85 L3476.14 933.23 L3491.36 932.61 L3506.58 932.11 L3521.80 931.50 L3537.02 931.00 L3552.24 930.51 L3567.47 929.89 L3582.69 929.39 L3597.91 928.90 L3613.01 928.28 L3628.23 927.78 L3643.45 927.29 L3658.67 926.79 L3673.89 926.30 L3689.11 925.80 L3704.33 925.31 L3719.55 924.81 L3734.78 924.32 L3750.00 923.82 L3765.22 923.33 L3780.44 922.83 L3795.66 922.34" stroke-linejoin="round" style="fill:none;stroke:#FF0000;stroke-width:8.64"/>
	<line x1="521.73" y1="2489.19" x2="521.73" y2="100.86" style="stroke:#000000;stroke-width:5.76"/>
	<line x1="521.73" y1="2425.82" x2="481.76" y2="2425.82" style="stroke:#000000;stroke-width:5.76"/>
	<text x="461.83" y="2460.85" style="font-family:'Helvetica';font-size:99.99px;fill:#000000" text-anchor="end">0.00</text>
	<line x1="521.73" y1="1973.50" x2="481.76" y2="1973.50" style="stroke:#000000;stroke-width:5.76"/>
	<text x="461.83" y="2008.53" style="font-family:'Helvetica';font-size:99.99px;fill:#000000" text-anchor="end">0.10</text>
	<line x1="521.73" y1="1521.18" x2="481.76" y2="1521.18" style="stroke:#000000;stroke-width:5.76"/>
	<text x="461.83" y="1556.21" style="font-family:'Helvetica';font-size:99.99px;fill:#000000" text-anchor="end">0.20</text>
	<line x1="521.73" y1="1068.86" x2="481.76" y2="1068.86" style="stroke:#000000;stroke-width:5.76"/>
	<text x="461.83" y="1103.89" style="font-family:'Helvetica';font-size:99.99px;fill:#000000" text-anchor="end">0.30</text>
	<line x1="521.73" y1="616.54" x2="481.76" y2="616.54" style="stroke:#000000;stroke-width:5.76"/>
	<text x="461.83" y="651.57" style="font-family:'Helvetica';font-size:99.99px;fill:#000000" text-anchor="end">0.40</text>
	<line x1="521.73" y1="164.22" x2="481.76" y2="164.22" style="stroke:#000000;stroke-width:5.76"/>
	<text x="461.83" y="199.25" style="font-family:'Helvetica';font-size:99.99px;fill:#000000" text-anchor="end">0.50</text>
	<text x="190.71" y="1294.96" style="font-family:'Helvetica';font-size:99.99px;fill:#000000" transform="rotate(-90 190.71,1294.96)" text-anchor="middle">Cumulative incidence (%)</text>
	<line x1="521.73" y1="2489.19" x2="3859.02" y2="2489.19" style="stroke:#000000;stroke-width:5.76"/>
	<line x1="585.09" y1="2489.19" x2="585.09" y2="2529.16" style="stroke:#000000;stroke-width:5.76"/>
	<text x="585.09" y="2619.14" style="font-family:'Helvetica';font-size:99.99px;fill:#000000" text-anchor="middle">0</text>
	<line x1="1345.90" y1="2489.19" x2="1345.90" y2="2529.16" style="stroke:#000000;stroke-width:5.76"/>
	<text x="1345.90" y="2619.14" style="font-family:'Helvetica';font-size:99.99px;fill:#000000" text-anchor="middle">50</text>
	<line x1="2106.72" y1="2489.19" x2="2106.72" y2="2529.16" style="stroke:#000000;stroke-width:5.76"/>
	<text x="2106.72" y="2619.14" style="font-family:'Helvetica';font-size:99.99px;fill:#000000" text-anchor="middle">100</text>
	<line x1="2867.53" y1="2489.19" x2="2867.53" y2="2529.16" style="stroke:#000000;stroke-width:5.76"/>
	<text x="2867.53" y="2619.14" style="font-family:'Helvetica';font-size:99.99px;fill:#000000" text-anchor="middle">150</text>
	<line x1="3628.35" y1="2489.19" x2="3628.35" y2="2529.16" style="stroke:#000000;stroke-width:5.76"/>
	<text x="3628.35" y="2619.14" style="font-family:'Helvetica';font-size:99.99px;fill:#000000" text-anchor="middle">200</text>
	<text x="2190.38" y="2729.16" style="font-family:'Helvetica';font-size:99.99px;fill:#000000" text-anchor="middle">Days from 1 March 2020</text>
	<rect x="1933.59" y="2128.20" width="1890.90" height="326.46" style="fill:#FFFFFF"/>
	<rect x="1936.47" y="2131.08" width="1885.14" height="320.70" style="fill:none;stroke:#000000;stroke-width:5.76"/>
	<rect x="1976.78" y="2171.51" width="374.34" height="99.99" style="fill:#3333FF;fill-opacity:0.25"/>
	<rect x="1981.10" y="2175.83" width="365.70" height="91.35" style="fill:none;stroke:#0000FF;stroke-opacity:0.25;stroke-width:8.64"/>
	<rect x="1976.78" y="2311.47" width="374.34" height="99.99" style="fill:#FF3333;fill-opacity:0.25"/>
	<rect x="1981.10" y="2315.79" width="365.70" height="91.35" style="fill:none;stroke:#FF0000;stroke-opacity:0.25;stroke-width:8.64"/>
	<text x="2411.14" y="2256.53" style="font-family:'Helvetica';font-size:99.99px;fill:#000000">Non-current anticoagulant use</text>
	<text x="2411.14" y="2396.50" style="font-family:'Helvetica';font-size:99.99px;fill:#000000">Current anticoagulant use</text>
</svg>
