<?xml version="1.0" encoding="UTF-8" standalone="no"?>
<!-- This is a Stata 16.1 generated SVG file (http://www.stata.com) -->

<svg version="1.1" width="5.50in" height="4.00in" viewBox="0 0 3960 2880" xmlns="http://www.w3.org/2000/svg" xmlns:xlink="http://www.w3.org/1999/xlink">
	<desc>Stata Graph - Graph</desc>
	<rect x="0" y="0" width="3960" height="2880" style="fill:#EAF2F3;stroke:none"/>
	<rect x="0.00" y="0.00" width="3959.88" height="2880.00" style="fill:#EAF2F3"/>
	<rect x="2.88" y="2.88" width="3954.12" height="2874.24" style="fill:none;stroke:#EAF2F3;stroke-width:5.76"/>
	<rect x="521.73" y="100.86" width="3337.29" height="2388.33" style="fill:#FFFFFF"/>
	<rect x="524.61" y="103.74" width="3331.53" height="2382.57" style="fill:none;stroke:#FFFFFF;stroke-width:5.76"/>
	<line x1="521.73" y1="2425.82" x2="3859.02" y2="2425.82" style="stroke:#EAF2F3;stroke-width:8.64"/>
	<line x1="521.73" y1="2199.72" x2="3859.02" y2="2199.72" style="stroke:#EAF2F3;stroke-width:8.64"/>
	<line x1="521.73" y1="1973.50" x2="3859.02" y2="1973.50" style="stroke:#EAF2F3;stroke-width:8.64"/>
	<line x1="521.73" y1="1747.28" x2="3859.02" y2="1747.28" style="stroke:#EAF2F3;stroke-width:8.64"/>
	<line x1="521.73" y1="1521.18" x2="3859.02" y2="1521.18" style="stroke:#EAF2F3;stroke-width:8.64"/>
	<line x1="521.73" y1="1294.96" x2="3859.02" y2="1294.96" style="stroke:#EAF2F3;stroke-width:8.64"/>
	<line x1="521.73" y1="1068.86" x2="3859.02" y2="1068.86" style="stroke:#EAF2F3;stroke-width:8.64"/>
	<line x1="521.73" y1="842.64" x2="3859.02" y2="842.64" style="stroke:#EAF2F3;stroke-width:8.64"/>
	<line x1="521.73" y1="616.54" x2="3859.02" y2="616.54" style="stroke:#EAF2F3;stroke-width:8.64"/>
	<line x1="521.73" y1="390.32" x2="3859.02" y2="390.32" style="stroke:#EAF2F3;stroke-width:8.64"/>
	<defs>
		<path id="path_tsRRUuTr" d="M600.31 2425.82 L600.31 2425.82 L615.53 2425.82 L630.75 2425.82 L645.98 2425.82 L661.20 2425.82 L676.42 2425.82 L691.64 2425.70 L706.86 2425.58 L722.08 2425.33 L737.30 2424.71 L752.52 2423.84 L767.75 2422.61 L782.97 2420.87 L798.19 2418.27 L813.41 2415.06 L828.63 2410.85 L843.85 2405.78 L859.07 2399.46 L874.29 2392.16 L889.51 2383.62 L904.61 2373.85 L919.83 2362.96 L935.05 2350.83 L950.28 2337.71 L965.50 2323.36 L980.72 2308.13 L995.94 2292.05 L1011.16 2275.09 L1026.38 2257.39 L1041.60 2239.08 L1056.83 2220.14 L1072.05 2200.72 L1087.27 2180.91 L1102.49 2160.87 L1117.71 2140.57 L1132.93 2120.15 L1148.15 2099.61 L1163.37 2079.19 L1178.60 2058.77 L1193.82 2038.60 L1209.04 2018.55 L1224.26 1998.87 L1239.48 1979.57 L1254.70 1960.63 L1269.80 1942.07 L1285.02 1924.00 L1300.24 1906.43 L1315.46 1889.47 L1330.68 1872.89 L1345.90 1857.05 L1361.13 1841.71 L1376.35 1826.98 L1391.57 1812.87 L1406.79 1799.38 L1422.01 1786.39 L1437.23 1773.89 L1452.45 1762.01 L1467.67 1750.62 L1482.90 1739.73 L1498.12 1729.34 L1513.34 1719.44 L1528.56 1709.78 L1543.78 1700.63 L1559.00 1691.96 L1574.22 1683.55 L1589.44 1675.50 L1604.67 1667.71 L1619.76 1660.28 L1634.98 1653.23 L1650.21 1646.30 L1665.43 1639.74 L1680.65 1633.30 L1695.87 1627.24 L1711.09 1621.30 L1726.31 1615.61 L1741.53 1610.04 L1756.76 1604.59 L1771.98 1599.39 L1787.20 1594.32 L1802.42 1589.37 L1817.64 1584.54 L1832.86 1579.72 L1848.08 1575.14 L1863.30 1570.56 L1878.53 1566.11 L1893.75 1561.77 L1908.97 1557.44 L1924.19 1553.11 L1939.41 1548.90 L1954.63 1544.70 L1969.85 1540.61 L1984.95 1536.40 L2000.17 1532.44 L2015.39 1528.36 L2030.61 1524.40 L2045.84 1520.56 L2061.06 1516.60 L2076.28 1512.77 L2091.50 1508.93 L2106.72 1505.22 L2121.94 1501.51 L2137.16 1497.79 L2152.38 1494.08 L2167.61 1490.49 L2182.83 1486.90 L2198.05 1483.31 L2213.27 1479.85 L2228.49 1476.26 L2243.71 1472.79 L2258.93 1469.45 L2274.15 1465.99 L2289.38 1462.65 L2304.60 1459.31 L2319.82 1455.96 L2335.04 1452.62 L2350.14 1449.41 L2365.36 1446.06 L2380.58 1442.85 L2395.80 1439.75 L2411.02 1436.53 L2426.24 1433.44 L2441.46 1430.22 L2456.68 1427.13 L2471.91 1424.04 L2487.13 1421.07 L2502.35 1417.97 L2517.57 1415.00 L2532.79 1412.03 L2548.01 1409.06 L2563.23 1406.09 L2578.45 1403.12 L2593.68 1400.28 L2608.90 1397.30 L2624.12 1394.46 L2639.34 1391.61 L2654.56 1388.77 L2669.78 1386.04 L2685.00 1383.20 L2700.22 1380.47 L2715.32 1377.63 L2730.54 1374.91 L2745.76 1372.18 L2760.99 1369.46 L2776.21 1366.74 L2791.43 1364.14 L2806.65 1361.42 L2821.87 1358.82 L2837.09 1356.22 L2852.31 1353.50 L2867.53 1350.90 L2882.76 1348.42 L2897.98 1345.82 L2913.20 1343.22 L2928.42 1340.75 L2943.64 1338.15 L2958.86 1335.68 L2974.08 1333.20 L2989.30 1330.73 L3004.53 1328.25 L3019.75 1325.78 L3034.97 1323.30 L3050.19 1320.83 L3065.41 1318.47 L3080.51 1316.00 L3095.73 1313.65 L3110.95 1311.30 L3126.17 1308.94 L3141.39 1306.47 L3156.61 1304.12 L3171.84 1301.89 L3187.06 1299.54 L3202.28 1297.19 L3217.50 1294.84 L3232.72 1292.61 L3247.94 1290.26 L3263.16 1288.03 L3278.39 1285.80 L3293.61 1283.58 L3308.83 1281.22 L3324.05 1279.00 L3339.27 1276.77 L3354.49 1274.66 L3369.71 1272.44 L3384.93 1270.21 L3400.16 1267.98 L3415.38 1265.88 L3430.47 1263.65 L3445.70 1261.55 L3460.92 1259.44 L3476.14 1257.22 L3491.36 1255.11 L3506.58 1253.01 L3521.80 1250.90 L3537.02 1248.80 L3552.24 1246.70 L3567.47 1244.59 L3582.69 1242.49 L3597.91 1240.51 L3613.13 1238.40 L3628.35 1236.30 L3643.57 1234.32 L3658.79 1232.22 L3674.01 1230.24 L3689.24 1228.26 L3704.46 1226.15 L3719.68 1224.17 L3734.90 1222.19 L3750.12 1220.21 L3765.34 1218.23 L3780.56 1216.25 L3795.66 1214.27 L3795.66 1121.21 L3780.56 1123.44 L3765.34 1125.54 L3750.12 1127.65 L3734.90 1129.75 L3719.68 1131.98 L3704.46 1134.08 L3689.24 1136.31 L3674.01 1138.41 L3658.79 1140.64 L3643.57 1142.87 L3628.35 1144.97 L3613.13 1147.20 L3597.91 1149.43 L3582.69 1151.65 L3567.47 1153.88 L3552.24 1156.11 L3537.02 1158.34 L3521.80 1160.56 L3506.58 1162.79 L3491.36 1165.02 L3476.14 1167.25 L3460.92 1169.60 L3445.70 1171.83 L3430.47 1174.18 L3415.38 1176.40 L3400.16 1178.76 L3384.93 1180.98 L3369.71 1183.33 L3354.49 1185.69 L3339.27 1188.04 L3324.05 1190.39 L3308.83 1192.74 L3293.61 1195.09 L3278.39 1197.44 L3263.16 1199.79 L3247.94 1202.27 L3232.72 1204.62 L3217.50 1207.10 L3202.28 1209.45 L3187.06 1211.92 L3171.84 1214.40 L3156.61 1216.75 L3141.39 1219.22 L3126.17 1221.70 L3110.95 1224.17 L3095.73 1226.77 L3080.51 1229.25 L3065.41 1231.72 L3050.19 1234.32 L3034.97 1236.80 L3019.75 1239.39 L3004.53 1241.99 L2989.30 1244.59 L2974.08 1247.19 L2958.86 1249.79 L2943.64 1252.39 L2928.42 1254.99 L2913.20 1257.59 L2897.98 1260.31 L2882.76 1263.03 L2867.53 1265.63 L2852.31 1268.35 L2837.09 1271.08 L2821.87 1273.80 L2806.65 1276.64 L2791.43 1279.37 L2776.21 1282.09 L2760.99 1284.94 L2745.76 1287.78 L2730.54 1290.63 L2715.32 1293.48 L2700.22 1296.32 L2685.00 1299.17 L2669.78 1302.14 L2654.56 1304.98 L2639.34 1307.95 L2624.12 1310.92 L2608.90 1313.89 L2593.68 1316.86 L2578.45 1319.96 L2563.23 1322.93 L2548.01 1326.02 L2532.79 1329.12 L2517.57 1332.21 L2502.35 1335.43 L2487.13 1338.52 L2471.91 1341.74 L2456.68 1344.96 L2441.46 1348.17 L2426.24 1351.39 L2411.02 1354.73 L2395.80 1357.95 L2380.58 1361.29 L2365.36 1364.63 L2350.14 1368.10 L2335.04 1371.44 L2319.82 1374.91 L2304.60 1378.37 L2289.38 1381.84 L2274.15 1385.42 L2258.93 1389.01 L2243.71 1392.60 L2228.49 1396.19 L2213.27 1399.78 L2198.05 1403.49 L2182.83 1407.21 L2167.61 1411.04 L2152.38 1414.75 L2137.16 1418.59 L2121.94 1422.55 L2106.72 1426.39 L2091.50 1430.35 L2076.28 1434.31 L2061.06 1438.39 L2045.84 1442.48 L2030.61 1446.56 L2015.39 1450.77 L2000.17 1454.97 L1984.95 1459.18 L1969.85 1463.39 L1954.63 1467.84 L1939.41 1472.18 L1924.19 1476.63 L1908.97 1481.09 L1893.75 1485.54 L1878.53 1490.24 L1863.30 1494.82 L1848.08 1499.53 L1832.86 1504.35 L1817.64 1509.30 L1802.42 1514.38 L1787.20 1519.57 L1771.98 1524.77 L1756.76 1530.22 L1741.53 1535.79 L1726.31 1541.60 L1711.09 1547.54 L1695.87 1553.73 L1680.65 1560.17 L1665.43 1566.72 L1650.21 1573.65 L1634.98 1580.83 L1619.76 1588.26 L1604.67 1596.05 L1589.44 1604.22 L1574.22 1612.64 L1559.00 1621.55 L1543.78 1630.83 L1528.56 1640.48 L1513.34 1650.63 L1498.12 1661.27 L1482.90 1672.29 L1467.67 1683.92 L1452.45 1696.05 L1437.23 1708.79 L1422.01 1722.16 L1406.79 1736.02 L1391.57 1750.50 L1376.35 1765.60 L1361.13 1781.31 L1345.90 1797.65 L1330.68 1814.60 L1315.46 1832.18 L1300.24 1850.12 L1285.02 1868.81 L1269.80 1887.87 L1254.70 1907.42 L1239.48 1927.47 L1224.26 1947.89 L1209.04 1968.68 L1193.82 1989.84 L1178.60 2011.37 L1163.37 2033.03 L1148.15 2054.93 L1132.93 2077.08 L1117.71 2099.11 L1102.49 2121.27 L1087.27 2143.29 L1072.05 2164.95 L1056.83 2186.36 L1041.60 2207.40 L1026.38 2227.69 L1011.16 2247.37 L995.94 2266.18 L980.72 2284.25 L965.50 2301.20 L950.28 2317.04 L935.05 2331.89 L919.83 2345.51 L904.61 2357.88 L889.51 2369.14 L874.29 2379.17 L859.07 2388.08 L843.85 2395.75 L828.63 2402.43 L813.41 2408.00 L798.19 2412.58 L782.97 2416.29 L767.75 2419.14 L752.52 2421.37 L737.30 2422.98 L722.08 2424.21 L706.86 2424.96 L691.64 2425.33 L676.42 2425.70 L661.20 2425.82 L645.98 2425.82 L630.75 2425.82 L615.53 2425.82 L600.31 2425.82 L600.31 2425.82 Z" stroke-linejoin="round"/>
	</defs>
	<defs>
		<clipPath id="clipPath_mHDbllDn">
			<use xlink:href="#path_tsRRUuTr"/>
		</clipPath>
	</defs>
	<use xlink:href="#path_tsRRUuTr" style="stroke:none;fill:#3333FF;fill-opacity:0.25"/>
	<use xlink:href="#path_tsRRUuTr" style="fill:none;stroke:#0000FF;stroke-opacity:0.25;stroke-width:17.28" clip-path="url(#clipPath_mHDbllDn)"/>
	<defs>
		<path id="path_MSlVwunB" d="M600.31 2425.82 L600.31 2425.82 L615.53 2425.82 L630.75 2425.82 L645.98 2425.82 L661.20 2425.82 L676.42 2425.82 L691.64 2425.70 L706.86 2425.45 L722.08 2425.08 L737.30 2424.46 L752.52 2423.47 L767.75 2421.86 L782.97 2419.64 L798.19 2416.67 L813.41 2412.71 L828.63 2407.63 L843.85 2401.44 L859.07 2393.89 L874.29 2385.11 L889.51 2374.96 L904.61 2363.45 L919.83 2350.46 L935.05 2336.35 L950.28 2320.76 L965.50 2304.17 L980.72 2286.35 L995.94 2267.42 L1011.16 2247.62 L1026.38 2226.95 L1041.60 2205.54 L1056.83 2183.51 L1072.05 2160.87 L1087.27 2137.85 L1102.49 2114.58 L1117.71 2091.07 L1132.93 2067.43 L1148.15 2043.67 L1163.37 2020.03 L1178.60 1996.64 L1193.82 1973.38 L1209.04 1950.36 L1224.26 1927.71 L1239.48 1905.56 L1254.70 1883.78 L1269.80 1862.50 L1285.02 1841.71 L1300.24 1821.66 L1315.46 1802.10 L1330.68 1783.17 L1345.90 1764.85 L1361.13 1747.28 L1376.35 1730.33 L1391.57 1714.11 L1406.79 1698.52 L1422.01 1683.55 L1437.23 1669.19 L1452.45 1655.58 L1467.67 1642.46 L1482.90 1629.96 L1498.12 1617.96 L1513.34 1606.57 L1528.56 1595.56 L1543.78 1585.04 L1559.00 1575.02 L1574.22 1565.49 L1589.44 1556.20 L1604.67 1547.42 L1619.76 1538.88 L1634.98 1530.71 L1650.21 1522.92 L1665.43 1515.37 L1680.65 1508.06 L1695.87 1501.13 L1711.09 1494.33 L1726.31 1487.77 L1741.53 1481.46 L1756.76 1475.39 L1771.98 1469.45 L1787.20 1463.64 L1802.42 1457.94 L1817.64 1452.50 L1832.86 1447.05 L1848.08 1441.73 L1863.30 1436.53 L1878.53 1431.46 L1893.75 1426.51 L1908.97 1421.56 L1924.19 1416.61 L1939.41 1411.78 L1954.63 1407.08 L1969.85 1402.26 L1984.95 1397.68 L2000.17 1392.97 L2015.39 1388.39 L2030.61 1383.94 L2045.84 1379.36 L2061.06 1375.03 L2076.28 1370.57 L2091.50 1366.24 L2106.72 1361.91 L2121.94 1357.70 L2137.16 1353.50 L2152.38 1349.29 L2167.61 1345.20 L2182.83 1341.00 L2198.05 1337.04 L2213.27 1332.95 L2228.49 1328.99 L2243.71 1325.03 L2258.93 1321.07 L2274.15 1317.24 L2289.38 1313.28 L2304.60 1309.56 L2319.82 1305.73 L2335.04 1302.01 L2350.14 1298.18 L2365.36 1294.59 L2380.58 1290.88 L2395.80 1287.16 L2411.02 1283.58 L2426.24 1279.99 L2441.46 1276.52 L2456.68 1272.93 L2471.91 1269.47 L2487.13 1266.00 L2502.35 1262.54 L2517.57 1259.07 L2532.79 1255.61 L2548.01 1252.27 L2563.23 1248.92 L2578.45 1245.58 L2593.68 1242.24 L2608.90 1239.02 L2624.12 1235.68 L2639.34 1232.46 L2654.56 1229.25 L2669.78 1226.03 L2685.00 1222.81 L2700.22 1219.72 L2715.32 1216.62 L2730.54 1213.41 L2745.76 1210.31 L2760.99 1207.22 L2776.21 1204.13 L2791.43 1201.16 L2806.65 1198.06 L2821.87 1195.09 L2837.09 1192.12 L2852.31 1189.15 L2867.53 1186.18 L2882.76 1183.21 L2897.98 1180.24 L2913.20 1177.39 L2928.42 1174.55 L2943.64 1171.58 L2958.86 1168.73 L2974.08 1165.89 L2989.30 1163.04 L3004.53 1160.19 L3019.75 1157.47 L3034.97 1154.62 L3050.19 1151.90 L3065.41 1149.18 L3080.51 1146.33 L3095.73 1143.61 L3110.95 1140.89 L3126.17 1138.16 L3141.39 1135.57 L3156.61 1132.84 L3171.84 1130.12 L3187.06 1127.52 L3202.28 1124.80 L3217.50 1122.20 L3232.72 1119.60 L3247.94 1117.00 L3263.16 1114.40 L3278.39 1111.80 L3293.61 1109.21 L3308.83 1106.73 L3324.05 1104.13 L3339.27 1101.53 L3354.49 1099.06 L3369.71 1096.58 L3384.93 1093.98 L3400.16 1091.51 L3415.38 1089.03 L3430.47 1086.56 L3445.70 1084.08 L3460.92 1081.61 L3476.14 1079.13 L3491.36 1076.78 L3506.58 1074.31 L3521.80 1071.83 L3537.02 1069.48 L3552.24 1067.01 L3567.47 1064.65 L3582.69 1062.30 L3597.91 1059.95 L3613.13 1057.60 L3628.35 1055.13 L3643.57 1052.77 L3658.79 1050.55 L3674.01 1048.20 L3689.24 1045.84 L3704.46 1043.49 L3719.68 1041.14 L3734.90 1038.91 L3750.12 1036.56 L3765.34 1034.33 L3780.56 1031.98 L3795.66 1029.76 L3795.66 660.60 L3780.56 663.57 L3765.34 666.41 L3750.12 669.26 L3734.90 672.23 L3719.68 675.08 L3704.46 678.05 L3689.24 680.89 L3674.01 683.86 L3658.79 686.83 L3643.57 689.80 L3628.35 692.77 L3613.13 695.74 L3597.91 698.71 L3582.69 701.68 L3567.47 704.65 L3552.24 707.62 L3537.02 710.72 L3521.80 713.69 L3506.58 716.78 L3491.36 719.88 L3476.14 722.97 L3460.92 725.94 L3445.70 729.03 L3430.47 732.25 L3415.38 735.35 L3400.16 738.44 L3384.93 741.53 L3369.71 744.75 L3354.49 747.84 L3339.27 751.06 L3324.05 754.28 L3308.83 757.50 L3293.61 760.72 L3278.39 763.93 L3263.16 767.15 L3247.94 770.37 L3232.72 773.71 L3217.50 776.93 L3202.28 780.27 L3187.06 783.61 L3171.84 786.95 L3156.61 790.29 L3141.39 793.63 L3126.17 796.97 L3110.95 800.32 L3095.73 803.78 L3080.51 807.12 L3065.41 810.59 L3050.19 814.05 L3034.97 817.52 L3019.75 820.98 L3004.53 824.57 L2989.30 828.04 L2974.08 831.63 L2958.86 835.21 L2943.64 838.80 L2928.42 842.39 L2913.20 845.98 L2897.98 849.57 L2882.76 853.28 L2867.53 856.87 L2852.31 860.58 L2837.09 864.30 L2821.87 868.13 L2806.65 871.85 L2791.43 875.68 L2776.21 879.39 L2760.99 883.23 L2745.76 887.07 L2730.54 891.03 L2715.32 894.86 L2700.22 898.82 L2685.00 902.78 L2669.78 906.74 L2654.56 910.70 L2639.34 914.79 L2624.12 918.75 L2608.90 922.83 L2593.68 927.04 L2578.45 931.12 L2563.23 935.33 L2548.01 939.42 L2532.79 943.75 L2517.57 947.95 L2502.35 952.16 L2487.13 956.49 L2471.91 960.83 L2456.68 965.28 L2441.46 969.61 L2426.24 974.07 L2411.02 978.65 L2395.80 983.10 L2380.58 987.68 L2365.36 992.26 L2350.14 996.84 L2335.04 1001.54 L2319.82 1006.24 L2304.60 1010.95 L2289.38 1015.77 L2274.15 1020.60 L2258.93 1025.42 L2243.71 1030.37 L2228.49 1035.32 L2213.27 1040.28 L2198.05 1045.35 L2182.83 1050.42 L2167.61 1055.50 L2152.38 1060.69 L2137.16 1065.89 L2121.94 1071.21 L2106.72 1076.53 L2091.50 1081.86 L2076.28 1087.30 L2061.06 1092.87 L2045.84 1098.44 L2030.61 1104.01 L2015.39 1109.70 L2000.17 1115.39 L1984.95 1121.21 L1969.85 1127.03 L1954.63 1132.97 L1939.41 1138.91 L1924.19 1144.97 L1908.97 1151.03 L1893.75 1157.22 L1878.53 1163.53 L1863.30 1169.85 L1848.08 1176.40 L1832.86 1182.96 L1817.64 1189.65 L1802.42 1196.58 L1787.20 1203.63 L1771.98 1210.81 L1756.76 1218.23 L1741.53 1225.91 L1726.31 1233.83 L1711.09 1241.99 L1695.87 1250.41 L1680.65 1259.07 L1665.43 1268.23 L1650.21 1277.63 L1634.98 1287.41 L1619.76 1297.56 L1604.67 1308.20 L1589.44 1319.22 L1574.22 1330.73 L1559.00 1342.85 L1543.78 1355.48 L1528.56 1368.59 L1513.34 1382.33 L1498.12 1396.81 L1482.90 1411.78 L1467.67 1427.62 L1452.45 1444.08 L1437.23 1461.29 L1422.01 1479.35 L1406.79 1498.16 L1391.57 1517.72 L1376.35 1538.26 L1361.13 1559.55 L1345.90 1581.70 L1330.68 1604.72 L1315.46 1628.48 L1300.24 1652.98 L1285.02 1678.23 L1269.80 1704.21 L1254.70 1730.82 L1239.48 1758.05 L1224.26 1785.89 L1209.04 1814.23 L1193.82 1842.94 L1178.60 1872.15 L1163.37 1901.60 L1148.15 1931.18 L1132.93 1961.00 L1117.71 1990.83 L1102.49 2020.65 L1087.27 2050.23 L1072.05 2079.44 L1056.83 2108.15 L1041.60 2136.24 L1026.38 2163.59 L1011.16 2189.95 L995.94 2215.07 L980.72 2239.20 L965.50 2261.85 L950.28 2283.01 L935.05 2302.69 L919.83 2320.88 L904.61 2337.34 L889.51 2352.19 L874.29 2365.43 L859.07 2377.06 L843.85 2387.09 L828.63 2395.75 L813.41 2402.93 L798.19 2408.87 L782.97 2413.70 L767.75 2417.41 L752.52 2420.25 L737.30 2422.23 L722.08 2423.72 L706.86 2424.71 L691.64 2425.20 L676.42 2425.58 L661.20 2425.70 L645.98 2425.82 L630.75 2425.82 L615.53 2425.82 L600.31 2425.82 L600.31 2425.82 Z" stroke-linejoin="round"/>
	</defs>
	<defs>
		<clipPath id="clipPath_gdoqdBUY">
			<use xlink:href="#path_MSlVwunB"/>
		</clipPath>
	</defs>
	<use xlink:href="#path_MSlVwunB" style="stroke:none;fill:#FF3333;fill-opacity:0.25"/>
	<use xlink:href="#path_MSlVwunB" style="fill:none;stroke:#FF0000;stroke-opacity:0.25;stroke-width:17.28" clip-path="url(#clipPath_gdoqdBUY)"/>
	<path d=" M585.09 2425.95 L600.31 2425.95 L615.53 2425.95 L630.75 2425.95 L645.98 2425.95 L661.20 2425.82 L676.42 2425.82 L691.64 2425.70 L706.86 2425.45 L721.96 2424.96 L737.18 2424.09 L752.40 2422.98 L767.62 2421.24 L782.84 2419.02 L798.06 2415.92 L813.28 2411.96 L828.51 2407.14 L843.73 2401.32 L858.95 2394.39 L874.17 2386.22 L889.39 2376.94 L904.61 2366.42 L919.83 2354.79 L935.05 2341.92 L950.28 2327.93 L965.50 2312.84 L980.72 2296.75 L995.94 2279.79 L1011.16 2261.85 L1026.38 2243.16 L1041.60 2223.86 L1056.83 2203.93 L1072.05 2183.64 L1087.14 2162.85 L1102.37 2141.81 L1117.59 2120.65 L1132.81 2099.36 L1148.03 2078.07 L1163.25 2056.91 L1178.47 2035.87 L1193.69 2014.96 L1208.91 1994.42 L1224.13 1974.12 L1239.36 1954.32 L1254.58 1934.77 L1269.80 1915.71 L1285.02 1897.15 L1300.24 1879.08 L1315.46 1861.51 L1330.68 1844.55 L1345.90 1828.22 L1361.13 1812.38 L1376.35 1797.15 L1391.57 1782.55 L1406.79 1768.44 L1422.01 1755.08 L1437.23 1742.21 L1452.33 1729.96 L1467.55 1718.20 L1482.77 1706.94 L1497.99 1696.17 L1513.21 1685.90 L1528.44 1676.00 L1543.66 1666.59 L1558.88 1657.56 L1574.10 1649.02 L1589.32 1640.73 L1604.54 1632.81 L1619.76 1625.14 L1634.98 1617.83 L1650.21 1610.90 L1665.43 1604.10 L1680.65 1597.66 L1695.87 1591.35 L1711.09 1585.29 L1726.31 1579.47 L1741.53 1573.78 L1756.76 1568.33 L1771.98 1563.01 L1787.20 1557.81 L1802.30 1552.74 L1817.52 1547.79 L1832.74 1542.96 L1847.96 1538.26 L1863.18 1533.56 L1878.40 1528.98 L1893.62 1524.52 L1908.84 1520.07 L1924.07 1515.74 L1939.29 1511.41 L1954.51 1507.07 L1969.73 1502.87 L1984.95 1498.66 L2000.17 1494.58 L2015.39 1490.49 L2030.61 1486.41 L2045.84 1482.32 L2061.06 1478.36 L2076.28 1474.40 L2091.50 1470.57 L2106.72 1466.73 L2121.94 1462.89 L2137.16 1459.06 L2152.38 1455.35 L2167.48 1451.63 L2182.70 1447.92 L2197.92 1444.33 L2213.14 1440.74 L2228.37 1437.15 L2243.59 1433.56 L2258.81 1430.10 L2274.03 1426.51 L2289.25 1423.17 L2304.47 1419.70 L2319.69 1416.24 L2334.91 1412.90 L2350.14 1409.56 L2365.36 1406.22 L2380.58 1403.00 L2395.80 1399.66 L2411.02 1396.44 L2426.24 1393.22 L2441.46 1390.13 L2456.68 1386.91 L2471.91 1383.82 L2487.13 1380.60 L2502.35 1377.50 L2517.57 1374.53 L2532.67 1371.44 L2547.89 1368.47 L2563.11 1365.38 L2578.33 1362.41 L2593.55 1359.44 L2608.77 1356.47 L2623.99 1353.62 L2639.22 1350.65 L2654.44 1347.80 L2669.66 1344.96 L2684.88 1342.11 L2700.10 1339.26 L2715.32 1336.42 L2730.54 1333.57 L2745.76 1330.85 L2760.99 1328.13 L2776.21 1325.28 L2791.43 1322.56 L2806.65 1319.83 L2821.87 1317.24 L2837.09 1314.51 L2852.31 1311.79 L2867.53 1309.19 L2882.76 1306.59 L2897.85 1303.87 L2913.07 1301.27 L2928.30 1298.67 L2943.52 1296.20 L2958.74 1293.60 L2973.96 1291.00 L2989.18 1288.53 L3004.40 1285.93 L3019.62 1283.45 L3034.84 1280.98 L3050.07 1278.50 L3065.29 1276.03 L3080.51 1273.55 L3095.73 1271.08 L3110.95 1268.60 L3126.17 1266.25 L3141.39 1263.77 L3156.61 1261.42 L3171.84 1258.95 L3187.06 1256.60 L3202.28 1254.25 L3217.50 1251.89 L3232.72 1249.54 L3247.94 1247.19 L3263.04 1244.84 L3278.26 1242.49 L3293.48 1240.14 L3308.70 1237.91 L3323.93 1235.56 L3339.15 1233.33 L3354.37 1230.98 L3369.59 1228.75 L3384.81 1226.52 L3400.03 1224.30 L3415.25 1222.07 L3430.47 1219.84 L3445.70 1217.61 L3460.92 1215.39 L3476.14 1213.16 L3491.36 1210.93 L3506.58 1208.83 L3521.80 1206.60 L3537.02 1204.50 L3552.24 1202.27 L3567.47 1200.17 L3582.69 1197.94 L3597.91 1195.83 L3613.01 1193.73 L3628.23 1191.63 L3643.45 1189.52 L3658.67 1187.42 L3673.89 1185.31 L3689.11 1183.21 L3704.33 1181.11 L3719.55 1179.00 L3734.78 1176.90 L3750.00 1174.80 L3765.22 1172.82 L3780.44 1170.71 L3795.66 1168.73" stroke-linejoin="round" style="fill:none;stroke:#0000FF;stroke-width:8.64"/>
	<path d=" M585.09 2425.95 L600.31 2425.95 L615.53 2425.95 L630.75 2425.95 L645.98 2425.95 L661.20 2425.82 L676.42 2425.82 L691.64 2425.58 L706.86 2425.33 L721.96 2424.71 L737.18 2423.72 L752.40 2422.23 L767.62 2420.13 L782.84 2417.28 L798.06 2413.45 L813.28 2408.50 L828.51 2402.43 L843.73 2395.13 L858.95 2386.47 L874.17 2376.32 L889.39 2364.69 L904.61 2351.57 L919.83 2336.97 L935.05 2320.88 L950.28 2303.43 L965.50 2284.62 L980.72 2264.45 L995.94 2243.16 L1011.16 2220.89 L1026.38 2197.50 L1041.60 2173.37 L1056.83 2148.49 L1072.05 2123.00 L1087.14 2097.01 L1102.37 2070.77 L1117.59 2044.29 L1132.81 2017.68 L1148.03 1991.20 L1163.25 1964.72 L1178.47 1938.36 L1193.69 1912.37 L1208.91 1886.63 L1224.13 1861.26 L1239.36 1836.51 L1254.58 1812.13 L1269.80 1788.37 L1285.02 1765.10 L1300.24 1742.58 L1315.46 1720.67 L1330.68 1699.51 L1345.90 1678.97 L1361.13 1659.17 L1376.35 1640.23 L1391.57 1621.92 L1406.79 1604.47 L1422.01 1587.64 L1437.23 1571.67 L1452.33 1556.33 L1467.55 1541.60 L1482.77 1527.62 L1497.99 1514.13 L1513.21 1501.26 L1528.44 1489.01 L1543.66 1477.25 L1558.88 1465.99 L1574.10 1455.22 L1589.32 1444.95 L1604.54 1435.05 L1619.76 1425.52 L1634.98 1416.49 L1650.21 1407.70 L1665.43 1399.28 L1680.65 1391.12 L1695.87 1383.32 L1711.09 1375.77 L1726.31 1368.47 L1741.53 1361.42 L1756.76 1354.61 L1771.98 1347.93 L1787.20 1341.37 L1802.30 1335.06 L1817.52 1328.99 L1832.74 1322.93 L1847.96 1316.99 L1863.18 1311.30 L1878.40 1305.60 L1893.62 1299.91 L1908.84 1294.47 L1924.07 1288.90 L1939.29 1283.58 L1954.51 1278.25 L1969.73 1272.93 L1984.95 1267.73 L2000.17 1262.54 L2015.39 1257.34 L2030.61 1252.27 L2045.84 1247.32 L2061.06 1242.37 L2076.28 1237.41 L2091.50 1232.59 L2106.72 1227.76 L2121.94 1223.06 L2137.16 1218.23 L2152.38 1213.65 L2167.48 1208.95 L2182.70 1204.37 L2197.92 1199.79 L2213.14 1195.34 L2228.37 1190.88 L2243.59 1186.43 L2258.81 1182.10 L2274.03 1177.77 L2289.25 1173.43 L2304.47 1169.10 L2319.69 1164.90 L2334.91 1160.69 L2350.14 1156.48 L2365.36 1152.40 L2380.58 1148.31 L2395.80 1144.23 L2411.02 1140.14 L2426.24 1136.18 L2441.46 1132.22 L2456.68 1128.26 L2471.91 1124.30 L2487.13 1120.47 L2502.35 1116.63 L2517.57 1112.79 L2532.67 1108.96 L2547.89 1105.12 L2563.11 1101.41 L2578.33 1097.70 L2593.55 1093.98 L2608.77 1090.27 L2623.99 1086.68 L2639.22 1083.09 L2654.44 1079.38 L2669.66 1075.92 L2684.88 1072.33 L2700.10 1068.74 L2715.32 1065.27 L2730.54 1061.81 L2745.76 1058.34 L2760.99 1054.88 L2776.21 1051.41 L2791.43 1048.07 L2806.65 1044.61 L2821.87 1041.27 L2837.09 1037.92 L2852.31 1034.58 L2867.53 1031.24 L2882.76 1028.02 L2897.85 1024.68 L2913.07 1021.46 L2928.30 1018.25 L2943.52 1015.03 L2958.74 1011.81 L2973.96 1008.59 L2989.18 1005.50 L3004.40 1002.28 L3019.62 999.19 L3034.84 996.09 L3050.07 993.00 L3065.29 989.91 L3080.51 986.81 L3095.73 983.72 L3110.95 980.75 L3126.17 977.66 L3141.39 974.69 L3156.61 971.59 L3171.84 968.62 L3187.06 965.65 L3202.28 962.68 L3217.50 959.83 L3232.72 956.86 L3247.94 953.89 L3263.04 951.05 L3278.26 948.08 L3293.48 945.23 L3308.70 942.39 L3323.93 939.54 L3339.15 936.69 L3354.37 933.85 L3369.59 931.00 L3384.81 928.15 L3400.03 925.43 L3415.25 922.59 L3430.47 919.86 L3445.70 917.02 L3460.92 914.29 L3476.14 911.57 L3491.36 908.85 L3506.58 906.13 L3521.80 903.40 L3537.02 900.68 L3552.24 897.96 L3567.47 895.24 L3582.69 892.64 L3597.91 889.91 L3613.01 887.32 L3628.23 884.59 L3643.45 881.99 L3658.67 879.39 L3673.89 876.80 L3689.11 874.07 L3704.33 871.47 L3719.55 868.88 L3734.78 866.28 L3750.00 863.80 L3765.22 861.20 L3780.44 858.60 L3795.66 856.13" stroke-linejoin="round" style="fill:none;stroke:#FF0000;stroke-width:8.64"/>
	<line x1="521.73" y1="2489.19" x2="521.73" y2="100.86" style="stroke:#000000;stroke-width:5.76"/>
	<line x1="521.73" y1="2425.82" x2="481.76" y2="2425.82" style="stroke:#000000;stroke-width:5.76"/>
	<text x="461.83" y="2460.85" style="font-family:'Helvetica';font-size:99.99px;fill:#000000" text-anchor="end">0.00</text>
	<line x1="521.73" y1="2199.72" x2="481.76" y2="2199.72" style="stroke:#000000;stroke-width:5.76"/>
	<text x="461.83" y="2234.75" style="font-family:'Helvetica';font-size:99.99px;fill:#000000" text-anchor="end">0.10</text>
	<line x1="521.73" y1="1973.50" x2="481.76" y2="1973.50" style="stroke:#000000;stroke-width:5.76"/>
	<text x="461.83" y="2008.53" style="font-family:'Helvetica';font-size:99.99px;fill:#000000" text-anchor="end">0.20</text>
	<line x1="521.73" y1="1747.28" x2="481.76" y2="1747.28" style="stroke:#000000;stroke-width:5.76"/>
	<text x="461.83" y="1782.31" style="font-family:'Helvetica';font-size:99.99px;fill:#000000" text-anchor="end">0.30</text>
	<line x1="521.73" y1="1521.18" x2="481.76" y2="1521.18" style="stroke:#000000;stroke-width:5.76"/>
	<text x="461.83" y="1556.21" style="font-family:'Helvetica';font-size:99.99px;fill:#000000" text-anchor="end">0.40</text>
	<line x1="521.73" y1="1294.96" x2="481.76" y2="1294.96" style="stroke:#000000;stroke-width:5.76"/>
	<text x="461.83" y="1329.99" style="font-family:'Helvetica';font-size:99.99px;fill:#000000" text-anchor="end">0.50</text>
	<line x1="521.73" y1="1068.86" x2="481.76" y2="1068.86" style="stroke:#000000;stroke-width:5.76"/>
	<text x="461.83" y="1103.89" style="font-family:'Helvetica';font-size:99.99px;fill:#000000" text-anchor="end">0.60</text>
	<line x1="521.73" y1="842.64" x2="481.76" y2="842.64" style="stroke:#000000;stroke-width:5.76"/>
	<text x="461.83" y="877.67" style="font-family:'Helvetica';font-size:99.99px;fill:#000000" text-anchor="end">0.70</text>
	<line x1="521.73" y1="616.54" x2="481.76" y2="616.54" style="stroke:#000000;stroke-width:5.76"/>
	<text x="461.83" y="651.57" style="font-family:'Helvetica';font-size:99.99px;fill:#000000" text-anchor="end">0.80</text>
	<line x1="521.73" y1="390.32" x2="481.76" y2="390.32" style="stroke:#000000;stroke-width:5.76"/>
	<text x="461.83" y="425.35" style="font-family:'Helvetica';font-size:99.99px;fill:#000000" text-anchor="end">0.90</text>
	<line x1="521.73" y1="164.22" x2="481.76" y2="164.22" style="stroke:#000000;stroke-width:5.76"/>
	<text x="461.83" y="199.25" style="font-family:'Helvetica';font-size:99.99px;fill:#000000" text-anchor="end">1.00</text>
	<text x="190.71" y="1294.96" style="font-family:'Helvetica';font-size:99.99px;fill:#000000" transform="rotate(-90 190.71,1294.96)" text-anchor="middle">Cumulative incidence (%)</text>
	<line x1="521.73" y1="2489.19" x2="3859.02" y2="2489.19" style="stroke:#000000;stroke-width:5.76"/>
	<line x1="585.09" y1="2489.19" x2="585.09" y2="2529.16" style="stroke:#000000;stroke-width:5.76"/>
	<text x="585.09" y="2619.14" style="font-family:'Helvetica';font-size:99.99px;fill:#000000" text-anchor="middle">0</text>
	<line x1="1345.90" y1="2489.19" x2="1345.90" y2="2529.16" style="stroke:#000000;stroke-width:5.76"/>
	<text x="1345.90" y="2619.14" style="font-family:'Helvetica';font-size:99.99px;fill:#000000" text-anchor="middle">50</text>
	<line x1="2106.72" y1="2489.19" x2="2106.72" y2="2529.16" style="stroke:#000000;stroke-width:5.76"/>
	<text x="2106.72" y="2619.14" style="font-family:'Helvetica';font-size:99.99px;fill:#000000" text-anchor="middle">100</text>
	<line x1="2867.53" y1="2489.19" x2="2867.53" y2="2529.16" style="stroke:#000000;stroke-width:5.76"/>
	<text x="2867.53" y="2619.14" style="font-family:'Helvetica';font-size:99.99px;fill:#000000" text-anchor="middle">150</text>
	<line x1="3628.35" y1="2489.19" x2="3628.35" y2="2529.16" style="stroke:#000000;stroke-width:5.76"/>
	<text x="3628.35" y="2619.14" style="font-family:'Helvetica';font-size:99.99px;fill:#000000" text-anchor="middle">200</text>
	<text x="2190.38" y="2729.16" style="font-family:'Helvetica';font-size:99.99px;fill:#000000" text-anchor="middle">Days from 1 March 2020</text>
	<rect x="1933.59" y="2128.20" width="1890.90" height="326.46" style="fill:#FFFFFF"/>
	<rect x="1936.47" y="2131.08" width="1885.14" height="320.70" style="fill:none;stroke:#000000;stroke-width:5.76"/>
	<rect x="1976.78" y="2171.51" width="374.34" height="99.99" style="fill:#3333FF;fill-opacity:0.25"/>
	<rect x="1981.10" y="2175.83" width="365.70" height="91.35" style="fill:none;stroke:#0000FF;stroke-opacity:0.25;stroke-width:8.64"/>
	<rect x="1976.78" y="2311.47" width="374.34" height="99.99" style="fill:#FF3333;fill-opacity:0.25"/>
	<rect x="1981.10" y="2315.79" width="365.70" height="91.35" style="fill:none;stroke:#FF0000;stroke-opacity:0.25;stroke-width:8.64"/>
	<text x="2411.14" y="2256.53" style="font-family:'Helvetica';font-size:99.99px;fill:#000000">Non-current anticoagulant use</text>
	<text x="2411.14" y="2396.50" style="font-family:'Helvetica';font-size:99.99px;fill:#000000">Current anticoagulant use</text>
</svg>
