<?xml version="1.0" encoding="UTF-8" standalone="no"?>
<!-- This is a Stata 16.1 generated SVG file (http://www.stata.com) -->

<svg version="1.1" width="5.50in" height="4.00in" viewBox="0 0 3960 2880" xmlns="http://www.w3.org/2000/svg" xmlns:xlink="http://www.w3.org/1999/xlink">
	<desc>Stata Graph - Graph</desc>
	<rect x="0" y="0" width="3960" height="2880" style="fill:#EAF2F3;stroke:none"/>
	<rect x="0.00" y="0.00" width="3959.88" height="2880.00" style="fill:#EAF2F3"/>
	<rect x="2.88" y="2.88" width="3954.12" height="2874.24" style="fill:none;stroke:#EAF2F3;stroke-width:5.76"/>
	<rect x="521.73" y="100.86" width="3337.29" height="2388.33" style="fill:#FFFFFF"/>
	<rect x="524.61" y="103.74" width="3331.53" height="2382.57" style="fill:none;stroke:#FFFFFF;stroke-width:5.76"/>
	<line x1="521.73" y1="2425.82" x2="3859.02" y2="2425.82" style="stroke:#EAF2F3;stroke-width:8.64"/>
	<line x1="521.73" y1="1973.50" x2="3859.02" y2="1973.50" style="stroke:#EAF2F3;stroke-width:8.64"/>
	<line x1="521.73" y1="1521.18" x2="3859.02" y2="1521.18" style="stroke:#EAF2F3;stroke-width:8.64"/>
	<line x1="521.73" y1="1068.86" x2="3859.02" y2="1068.86" style="stroke:#EAF2F3;stroke-width:8.64"/>
	<line x1="521.73" y1="616.54" x2="3859.02" y2="616.54" style="stroke:#EAF2F3;stroke-width:8.64"/>
	<defs>
		<path id="path_KrXdEnmu" d="M600.31 2410.35 L600.31 2410.35 L615.53 2399.59 L630.75 2390.06 L645.98 2381.27 L661.20 2372.98 L676.42 2365.18 L691.64 2357.63 L706.86 2350.33 L722.08 2343.28 L737.30 2336.35 L752.52 2329.67 L767.75 2323.11 L782.97 2316.67 L798.19 2310.36 L813.41 2304.17 L828.63 2297.99 L843.85 2292.05 L859.07 2286.11 L874.29 2280.29 L889.51 2274.47 L904.61 2268.78 L919.83 2263.09 L935.05 2257.52 L950.28 2252.07 L965.50 2246.63 L980.72 2241.18 L995.94 2235.86 L1011.16 2230.54 L1026.38 2225.34 L1041.60 2220.14 L1056.83 2214.95 L1072.05 2209.87 L1087.27 2204.80 L1102.49 2199.72 L1117.71 2194.77 L1132.93 2189.82 L1148.15 2184.87 L1163.37 2180.05 L1178.60 2175.22 L1193.82 2170.40 L1209.04 2165.57 L1224.26 2160.74 L1239.48 2156.04 L1254.70 2151.34 L1269.80 2146.63 L1285.02 2142.06 L1300.24 2137.35 L1315.46 2132.77 L1330.68 2128.20 L1345.90 2123.74 L1361.13 2119.16 L1376.35 2114.71 L1391.57 2110.25 L1406.79 2105.80 L1422.01 2101.34 L1437.23 2096.89 L1452.45 2092.55 L1467.67 2088.22 L1482.90 2083.77 L1498.12 2079.44 L1513.34 2075.23 L1528.56 2070.90 L1543.78 2066.69 L1559.00 2062.36 L1574.22 2058.15 L1589.44 2053.94 L1604.67 2049.74 L1619.76 2045.53 L1634.98 2041.44 L1650.21 2037.24 L1665.43 2033.15 L1680.65 2028.94 L1695.87 2024.86 L1711.09 2020.78 L1726.31 2016.82 L1741.53 2012.73 L1756.76 2008.65 L1771.98 2004.69 L1787.20 2000.61 L1802.42 1996.64 L1817.64 1992.68 L1832.86 1988.72 L1848.08 1984.76 L1863.30 1980.80 L1878.53 1976.84 L1893.75 1973.01 L1908.97 1969.05 L1924.19 1965.21 L1939.41 1961.25 L1954.63 1957.41 L1969.85 1953.58 L1984.95 1949.74 L2000.17 1945.91 L2015.39 1942.07 L2030.61 1938.36 L2045.84 1934.52 L2061.06 1930.68 L2076.28 1926.97 L2091.50 1923.26 L2106.72 1919.42 L2121.94 1915.71 L2137.16 1912.00 L2152.38 1908.28 L2167.61 1904.57 L2182.83 1900.86 L2198.05 1897.27 L2213.27 1893.56 L2228.49 1889.85 L2243.71 1886.26 L2258.93 1882.54 L2274.15 1878.95 L2289.38 1875.37 L2304.60 1871.78 L2319.82 1868.06 L2335.04 1864.48 L2350.14 1860.89 L2365.36 1857.42 L2380.58 1853.83 L2395.80 1850.24 L2411.02 1846.66 L2426.24 1843.19 L2441.46 1839.60 L2456.68 1836.14 L2471.91 1832.55 L2487.13 1829.08 L2502.35 1825.62 L2517.57 1822.03 L2532.79 1818.56 L2548.01 1815.10 L2563.23 1811.63 L2578.45 1808.17 L2593.68 1804.83 L2608.90 1801.36 L2624.12 1797.90 L2639.34 1794.43 L2654.56 1791.09 L2669.78 1787.62 L2685.00 1784.28 L2700.22 1780.82 L2715.32 1777.48 L2730.54 1774.14 L2745.76 1770.67 L2760.99 1767.33 L2776.21 1763.99 L2791.43 1760.65 L2806.65 1757.30 L2821.87 1753.96 L2837.09 1750.62 L2852.31 1747.28 L2867.53 1743.94 L2882.76 1740.72 L2897.98 1737.38 L2913.20 1734.04 L2928.42 1730.82 L2943.64 1727.48 L2958.86 1724.26 L2974.08 1720.92 L2989.30 1717.70 L3004.53 1714.49 L3019.75 1711.27 L3034.97 1707.93 L3050.19 1704.71 L3065.41 1701.49 L3080.51 1698.27 L3095.73 1695.06 L3110.95 1691.84 L3126.17 1688.62 L3141.39 1685.40 L3156.61 1682.19 L3171.84 1679.09 L3187.06 1675.87 L3202.28 1672.66 L3217.50 1669.56 L3232.72 1666.35 L3247.94 1663.25 L3263.16 1660.03 L3278.39 1656.94 L3293.61 1653.72 L3308.83 1650.63 L3324.05 1647.54 L3339.27 1644.32 L3354.49 1641.22 L3369.71 1638.13 L3384.93 1635.04 L3400.16 1631.94 L3415.38 1628.85 L3430.47 1625.75 L3445.70 1622.66 L3460.92 1619.57 L3476.14 1616.47 L3491.36 1613.38 L3506.58 1610.41 L3521.80 1607.32 L3537.02 1604.22 L3552.24 1601.13 L3567.47 1598.16 L3582.69 1595.06 L3597.91 1592.09 L3613.13 1589.00 L3628.35 1586.03 L3643.57 1582.94 L3658.79 1579.97 L3674.01 1577.00 L3689.24 1573.90 L3704.46 1570.93 L3719.68 1567.96 L3734.90 1564.99 L3750.12 1562.02 L3765.34 1558.93 L3780.56 1555.96 L3795.66 1552.99 L3795.66 1437.40 L3780.56 1440.74 L3765.34 1444.08 L3750.12 1447.55 L3734.90 1450.89 L3719.68 1454.23 L3704.46 1457.70 L3689.24 1461.04 L3674.01 1464.50 L3658.79 1467.84 L3643.57 1471.31 L3628.35 1474.65 L3613.13 1478.12 L3597.91 1481.58 L3582.69 1484.92 L3567.47 1488.39 L3552.24 1491.85 L3537.02 1495.32 L3521.80 1498.66 L3506.58 1502.12 L3491.36 1505.59 L3476.14 1509.05 L3460.92 1512.52 L3445.70 1515.98 L3430.47 1519.45 L3415.38 1522.92 L3400.16 1526.38 L3384.93 1529.97 L3369.71 1533.43 L3354.49 1536.90 L3339.27 1540.36 L3324.05 1543.95 L3308.83 1547.42 L3293.61 1550.88 L3278.39 1554.47 L3263.16 1557.94 L3247.94 1561.53 L3232.72 1564.99 L3217.50 1568.58 L3202.28 1572.17 L3187.06 1575.63 L3171.84 1579.22 L3156.61 1582.81 L3141.39 1586.40 L3126.17 1589.87 L3110.95 1593.45 L3095.73 1597.04 L3080.51 1600.63 L3065.41 1604.22 L3050.19 1607.81 L3034.97 1611.40 L3019.75 1615.11 L3004.53 1618.70 L2989.30 1622.29 L2974.08 1625.88 L2958.86 1629.59 L2943.64 1633.18 L2928.42 1636.89 L2913.20 1640.48 L2897.98 1644.19 L2882.76 1647.78 L2867.53 1651.50 L2852.31 1655.21 L2837.09 1658.80 L2821.87 1662.51 L2806.65 1666.22 L2791.43 1669.93 L2776.21 1673.65 L2760.99 1677.36 L2745.76 1681.07 L2730.54 1684.79 L2715.32 1688.50 L2700.22 1692.33 L2685.00 1696.05 L2669.78 1699.76 L2654.56 1703.60 L2639.34 1707.31 L2624.12 1711.14 L2608.90 1714.86 L2593.68 1718.69 L2578.45 1722.53 L2563.23 1726.24 L2548.01 1730.08 L2532.79 1733.92 L2517.57 1737.75 L2502.35 1741.59 L2487.13 1745.42 L2471.91 1749.26 L2456.68 1753.10 L2441.46 1757.06 L2426.24 1760.89 L2411.02 1764.73 L2395.80 1768.69 L2380.58 1772.53 L2365.36 1776.49 L2350.14 1780.45 L2335.04 1784.41 L2319.82 1788.24 L2304.60 1792.20 L2289.38 1796.16 L2274.15 1800.12 L2258.93 1804.21 L2243.71 1808.17 L2228.49 1812.13 L2213.27 1816.09 L2198.05 1820.17 L2182.83 1824.13 L2167.61 1828.22 L2152.38 1832.30 L2137.16 1836.38 L2121.94 1840.34 L2106.72 1844.43 L2091.50 1848.64 L2076.28 1852.72 L2061.06 1856.80 L2045.84 1860.89 L2030.61 1865.09 L2015.39 1869.18 L2000.17 1873.39 L1984.95 1877.59 L1969.85 1881.68 L1954.63 1885.89 L1939.41 1890.09 L1924.19 1894.42 L1908.97 1898.63 L1893.75 1902.84 L1878.53 1907.17 L1863.30 1911.38 L1848.08 1915.71 L1832.86 1920.04 L1817.64 1924.37 L1802.42 1928.70 L1787.20 1933.04 L1771.98 1937.37 L1756.76 1941.82 L1741.53 1946.15 L1726.31 1950.61 L1711.09 1955.06 L1695.87 1959.52 L1680.65 1963.97 L1665.43 1968.43 L1650.21 1972.88 L1634.98 1977.46 L1619.76 1982.04 L1604.67 1986.50 L1589.44 1991.08 L1574.22 1995.78 L1559.00 2000.36 L1543.78 2004.94 L1528.56 2009.64 L1513.34 2014.34 L1498.12 2019.04 L1482.90 2023.75 L1467.67 2028.45 L1452.45 2033.28 L1437.23 2038.10 L1422.01 2042.93 L1406.79 2047.76 L1391.57 2052.58 L1376.35 2057.53 L1361.13 2062.48 L1345.90 2067.43 L1330.68 2072.38 L1315.46 2077.46 L1300.24 2082.41 L1285.02 2087.60 L1269.80 2092.68 L1254.70 2097.75 L1239.48 2102.95 L1224.26 2108.15 L1209.04 2113.47 L1193.82 2118.79 L1178.60 2124.11 L1163.37 2129.43 L1148.15 2134.88 L1132.93 2140.32 L1117.71 2145.77 L1102.49 2151.34 L1087.27 2156.91 L1072.05 2162.60 L1056.83 2168.29 L1041.60 2174.11 L1026.38 2179.92 L1011.16 2185.74 L995.94 2191.68 L980.72 2197.74 L965.50 2203.81 L950.28 2210.00 L935.05 2216.18 L919.83 2222.50 L904.61 2228.93 L889.51 2235.37 L874.29 2242.05 L859.07 2248.73 L843.85 2255.54 L828.63 2262.47 L813.41 2269.65 L798.19 2276.82 L782.97 2284.25 L767.75 2291.80 L752.52 2299.59 L737.30 2307.51 L722.08 2315.81 L706.86 2324.35 L691.64 2333.26 L676.42 2342.54 L661.20 2352.31 L645.98 2362.71 L630.75 2373.97 L615.53 2386.59 L600.31 2401.32 L600.31 2410.35 Z" stroke-linejoin="round"/>
	</defs>
	<defs>
		<clipPath id="clipPath_topiHlVk">
			<use xlink:href="#path_KrXdEnmu"/>
		</clipPath>
	</defs>
	<use xlink:href="#path_KrXdEnmu" style="stroke:none;fill:#3333FF;fill-opacity:0.25"/>
	<use xlink:href="#path_KrXdEnmu" style="fill:none;stroke:#0000FF;stroke-opacity:0.25;stroke-width:17.28" clip-path="url(#clipPath_topiHlVk)"/>
	<defs>
		<path id="path_TkUKSUmD" d="M600.31 2406.89 L600.31 2406.89 L615.53 2393.89 L630.75 2382.51 L645.98 2372.11 L661.20 2362.34 L676.42 2353.06 L691.64 2344.15 L706.86 2335.61 L722.08 2327.32 L737.30 2319.39 L752.52 2311.47 L767.75 2303.93 L782.97 2296.38 L798.19 2289.08 L813.41 2281.90 L828.63 2274.84 L843.85 2267.91 L859.07 2261.11 L874.29 2254.42 L889.51 2247.87 L904.61 2241.31 L919.83 2234.87 L935.05 2228.44 L950.28 2222.12 L965.50 2215.94 L980.72 2209.75 L995.94 2203.69 L1011.16 2197.62 L1026.38 2191.68 L1041.60 2185.74 L1056.83 2179.80 L1072.05 2173.98 L1087.27 2168.29 L1102.49 2162.60 L1117.71 2156.91 L1132.93 2151.21 L1148.15 2145.64 L1163.37 2140.08 L1178.60 2134.63 L1193.82 2129.19 L1209.04 2123.74 L1224.26 2118.29 L1239.48 2112.97 L1254.70 2107.65 L1269.80 2102.33 L1285.02 2097.13 L1300.24 2091.94 L1315.46 2086.74 L1330.68 2081.54 L1345.90 2076.47 L1361.13 2071.27 L1376.35 2066.19 L1391.57 2061.24 L1406.79 2056.17 L1422.01 2051.22 L1437.23 2046.15 L1452.45 2041.20 L1467.67 2036.37 L1482.90 2031.42 L1498.12 2026.59 L1513.34 2021.77 L1528.56 2016.94 L1543.78 2012.11 L1559.00 2007.29 L1574.22 2002.46 L1589.44 1997.76 L1604.67 1993.06 L1619.76 1988.35 L1634.98 1983.65 L1650.21 1978.95 L1665.43 1974.37 L1680.65 1969.67 L1695.87 1965.09 L1711.09 1960.51 L1726.31 1955.93 L1741.53 1951.35 L1756.76 1946.90 L1771.98 1942.32 L1787.20 1937.86 L1802.42 1933.28 L1817.64 1928.83 L1832.86 1924.37 L1848.08 1919.92 L1863.30 1915.46 L1878.53 1911.13 L1893.75 1906.68 L1908.97 1902.34 L1924.19 1897.89 L1939.41 1893.56 L1954.63 1889.23 L1969.85 1884.90 L1984.95 1880.56 L2000.17 1876.23 L2015.39 1872.02 L2030.61 1867.69 L2045.84 1863.49 L2061.06 1859.15 L2076.28 1854.95 L2091.50 1850.74 L2106.72 1846.53 L2121.94 1842.32 L2137.16 1838.12 L2152.38 1833.91 L2167.61 1829.82 L2182.83 1825.62 L2198.05 1821.53 L2213.27 1817.33 L2228.49 1813.24 L2243.71 1809.16 L2258.93 1805.07 L2274.15 1800.99 L2289.38 1796.91 L2304.60 1792.82 L2319.82 1788.74 L2335.04 1784.65 L2350.14 1780.69 L2365.36 1776.61 L2380.58 1772.65 L2395.80 1768.57 L2411.02 1764.61 L2426.24 1760.65 L2441.46 1756.69 L2456.68 1752.73 L2471.91 1748.77 L2487.13 1744.81 L2502.35 1740.85 L2517.57 1736.89 L2532.79 1732.93 L2548.01 1729.09 L2563.23 1725.13 L2578.45 1721.29 L2593.68 1717.33 L2608.90 1713.50 L2624.12 1709.66 L2639.34 1705.70 L2654.56 1701.86 L2669.78 1698.03 L2685.00 1694.19 L2700.22 1690.35 L2715.32 1686.52 L2730.54 1682.68 L2745.76 1678.97 L2760.99 1675.13 L2776.21 1671.30 L2791.43 1667.58 L2806.65 1663.75 L2821.87 1660.03 L2837.09 1656.32 L2852.31 1652.49 L2867.53 1648.77 L2882.76 1645.06 L2897.98 1641.35 L2913.20 1637.51 L2928.42 1633.80 L2943.64 1630.09 L2958.86 1626.50 L2974.08 1622.78 L2989.30 1619.07 L3004.53 1615.36 L3019.75 1611.65 L3034.97 1608.06 L3050.19 1604.35 L3065.41 1600.76 L3080.51 1597.04 L3095.73 1593.45 L3110.95 1589.74 L3126.17 1586.15 L3141.39 1582.56 L3156.61 1578.85 L3171.84 1575.26 L3187.06 1571.67 L3202.28 1568.09 L3217.50 1564.50 L3232.72 1560.91 L3247.94 1557.32 L3263.16 1553.73 L3278.39 1550.14 L3293.61 1546.68 L3308.83 1543.09 L3324.05 1539.50 L3339.27 1536.03 L3354.49 1532.44 L3369.71 1528.86 L3384.93 1525.39 L3400.16 1521.93 L3415.38 1518.34 L3430.47 1514.87 L3445.70 1511.28 L3460.92 1507.82 L3476.14 1504.35 L3491.36 1500.89 L3506.58 1497.42 L3521.80 1493.83 L3537.02 1490.37 L3552.24 1486.90 L3567.47 1483.44 L3582.69 1480.10 L3597.91 1476.63 L3613.13 1473.17 L3628.35 1469.70 L3643.57 1466.24 L3658.79 1462.77 L3674.01 1459.43 L3689.24 1455.96 L3704.46 1452.62 L3719.68 1449.16 L3734.90 1445.69 L3750.12 1442.35 L3765.34 1439.01 L3780.56 1435.54 L3795.66 1432.20 L3795.66 890.66 L3780.56 895.85 L3765.34 901.18 L3750.12 906.37 L3734.90 911.57 L3719.68 916.89 L3704.46 922.09 L3689.24 927.41 L3674.01 932.61 L3658.79 937.93 L3643.57 943.13 L3628.35 948.45 L3613.13 953.77 L3597.91 959.09 L3582.69 964.41 L3567.47 969.74 L3552.24 975.06 L3537.02 980.38 L3521.80 985.70 L3506.58 991.02 L3491.36 996.47 L3476.14 1001.79 L3460.92 1007.11 L3445.70 1012.55 L3430.47 1017.88 L3415.38 1023.32 L3400.16 1028.77 L3384.93 1034.09 L3369.71 1039.53 L3354.49 1044.98 L3339.27 1050.42 L3324.05 1055.87 L3308.83 1061.31 L3293.61 1066.76 L3278.39 1072.20 L3263.16 1077.77 L3247.94 1083.22 L3232.72 1088.66 L3217.50 1094.23 L3202.28 1099.68 L3187.06 1105.25 L3171.84 1110.81 L3156.61 1116.38 L3141.39 1121.83 L3126.17 1127.40 L3110.95 1132.97 L3095.73 1138.54 L3080.51 1144.23 L3065.41 1149.80 L3050.19 1155.37 L3034.97 1161.06 L3019.75 1166.63 L3004.53 1172.32 L2989.30 1177.89 L2974.08 1183.58 L2958.86 1189.27 L2943.64 1194.97 L2928.42 1200.66 L2913.20 1206.35 L2897.98 1212.05 L2882.76 1217.74 L2867.53 1223.43 L2852.31 1229.25 L2837.09 1234.94 L2821.87 1240.76 L2806.65 1246.45 L2791.43 1252.27 L2776.21 1258.08 L2760.99 1263.90 L2745.76 1269.71 L2730.54 1275.53 L2715.32 1281.35 L2700.22 1287.16 L2685.00 1293.10 L2669.78 1298.92 L2654.56 1304.86 L2639.34 1310.68 L2624.12 1316.62 L2608.90 1322.56 L2593.68 1328.50 L2578.45 1334.44 L2563.23 1340.38 L2548.01 1346.44 L2532.79 1352.38 L2517.57 1358.32 L2502.35 1364.39 L2487.13 1370.45 L2471.91 1376.51 L2456.68 1382.58 L2441.46 1388.64 L2426.24 1394.71 L2411.02 1400.77 L2395.80 1406.83 L2380.58 1413.02 L2365.36 1419.09 L2350.14 1425.27 L2335.04 1431.46 L2319.82 1437.65 L2304.60 1443.84 L2289.38 1450.02 L2274.15 1456.34 L2258.93 1462.52 L2243.71 1468.83 L2228.49 1475.02 L2213.27 1481.33 L2198.05 1487.65 L2182.83 1493.96 L2167.61 1500.39 L2152.38 1506.70 L2137.16 1513.14 L2121.94 1519.45 L2106.72 1525.89 L2091.50 1532.32 L2076.28 1538.76 L2061.06 1545.31 L2045.84 1551.75 L2030.61 1558.31 L2015.39 1564.74 L2000.17 1571.30 L1984.95 1577.86 L1969.85 1584.42 L1954.63 1591.10 L1939.41 1597.66 L1924.19 1604.35 L1908.97 1611.03 L1893.75 1617.71 L1878.53 1624.39 L1863.30 1631.20 L1848.08 1637.88 L1832.86 1644.69 L1817.64 1651.50 L1802.42 1658.30 L1787.20 1665.11 L1771.98 1672.04 L1756.76 1678.97 L1741.53 1685.90 L1726.31 1692.83 L1711.09 1699.76 L1695.87 1706.81 L1680.65 1713.74 L1665.43 1720.80 L1650.21 1727.98 L1634.98 1735.03 L1619.76 1742.21 L1604.67 1749.38 L1589.44 1756.56 L1574.22 1763.86 L1559.00 1771.04 L1543.78 1778.34 L1528.56 1785.64 L1513.34 1793.07 L1498.12 1800.50 L1482.90 1807.92 L1467.67 1815.35 L1452.45 1822.89 L1437.23 1830.44 L1422.01 1837.99 L1406.79 1845.54 L1391.57 1853.21 L1376.35 1860.89 L1361.13 1868.68 L1345.90 1876.48 L1330.68 1884.28 L1315.46 1892.20 L1300.24 1900.12 L1285.02 1908.04 L1269.80 1916.08 L1254.70 1924.13 L1239.48 1932.29 L1224.26 1940.46 L1209.04 1948.63 L1193.82 1956.92 L1178.60 1965.21 L1163.37 1973.63 L1148.15 1982.17 L1132.93 1990.70 L1117.71 1999.24 L1102.49 2007.91 L1087.27 2016.69 L1072.05 2025.48 L1056.83 2034.39 L1041.60 2043.30 L1026.38 2052.46 L1011.16 2061.62 L995.94 2070.77 L980.72 2080.18 L965.50 2089.58 L950.28 2099.24 L935.05 2108.89 L919.83 2118.67 L904.61 2128.57 L889.51 2138.59 L874.29 2148.86 L859.07 2159.26 L843.85 2169.78 L828.63 2180.42 L813.41 2191.31 L798.19 2202.45 L782.97 2213.83 L767.75 2225.47 L752.52 2237.35 L737.30 2249.47 L722.08 2262.10 L706.86 2275.09 L691.64 2288.58 L676.42 2302.56 L661.20 2317.29 L645.98 2333.01 L630.75 2349.84 L615.53 2368.53 L600.31 2390.43 L600.31 2406.89 Z" stroke-linejoin="round"/>
	</defs>
	<defs>
		<clipPath id="clipPath_JGZnslfc">
			<use xlink:href="#path_TkUKSUmD"/>
		</clipPath>
	</defs>
	<use xlink:href="#path_TkUKSUmD" style="stroke:none;fill:#FF3333;fill-opacity:0.25"/>
	<use xlink:href="#path_TkUKSUmD" style="fill:none;stroke:#FF0000;stroke-opacity:0.25;stroke-width:17.28" clip-path="url(#clipPath_JGZnslfc)"/>
	<path d=" M585.09 2425.95 L600.31 2406.39 L615.53 2393.77 L630.75 2382.88 L645.98 2372.86 L661.20 2363.58 L676.42 2354.79 L691.64 2346.37 L706.86 2338.33 L721.96 2330.53 L737.18 2322.98 L752.40 2315.68 L767.62 2308.50 L782.84 2301.57 L798.06 2294.64 L813.28 2287.96 L828.51 2281.40 L843.73 2274.97 L858.95 2268.53 L874.17 2262.34 L889.39 2256.16 L904.61 2249.97 L919.83 2244.03 L935.05 2238.09 L950.28 2232.27 L965.50 2226.46 L980.72 2220.64 L995.94 2215.07 L1011.16 2209.38 L1026.38 2203.81 L1041.60 2198.36 L1056.83 2192.92 L1072.05 2187.47 L1087.14 2182.15 L1102.37 2176.83 L1117.59 2171.51 L1132.81 2166.31 L1148.03 2161.11 L1163.25 2155.92 L1178.47 2150.84 L1193.69 2145.77 L1208.91 2140.69 L1224.13 2135.74 L1239.36 2130.79 L1254.58 2125.84 L1269.80 2120.89 L1285.02 2116.07 L1300.24 2111.24 L1315.46 2106.41 L1330.68 2101.59 L1345.90 2096.76 L1361.13 2092.06 L1376.35 2087.36 L1391.57 2082.65 L1406.79 2078.07 L1422.01 2073.37 L1437.23 2068.79 L1452.33 2064.21 L1467.55 2059.64 L1482.77 2055.06 L1497.99 2050.60 L1513.21 2046.02 L1528.44 2041.57 L1543.66 2037.11 L1558.88 2032.66 L1574.10 2028.20 L1589.32 2023.87 L1604.54 2019.42 L1619.76 2015.08 L1634.98 2010.75 L1650.21 2006.42 L1665.43 2002.09 L1680.65 1997.76 L1695.87 1993.55 L1711.09 1989.22 L1726.31 1985.01 L1741.53 1980.80 L1756.76 1976.47 L1771.98 1972.27 L1787.20 1968.18 L1802.30 1963.97 L1817.52 1959.77 L1832.74 1955.68 L1847.96 1951.60 L1863.18 1947.39 L1878.40 1943.31 L1893.62 1939.22 L1908.84 1935.14 L1924.07 1931.06 L1939.29 1927.10 L1954.51 1923.01 L1969.73 1919.05 L1984.95 1914.97 L2000.17 1911.01 L2015.39 1907.05 L2030.61 1903.09 L2045.84 1899.13 L2061.06 1895.17 L2076.28 1891.21 L2091.50 1887.25 L2106.72 1883.29 L2121.94 1879.45 L2137.16 1875.49 L2152.38 1871.65 L2167.48 1867.82 L2182.70 1863.86 L2197.92 1860.02 L2213.14 1856.18 L2228.37 1852.35 L2243.59 1848.51 L2258.81 1844.80 L2274.03 1840.96 L2289.25 1837.13 L2304.47 1833.41 L2319.69 1829.58 L2334.91 1825.86 L2350.14 1822.03 L2365.36 1818.32 L2380.58 1814.60 L2395.80 1810.89 L2411.02 1807.18 L2426.24 1803.47 L2441.46 1799.75 L2456.68 1796.04 L2471.91 1792.33 L2487.13 1788.74 L2502.35 1785.03 L2517.57 1781.31 L2532.67 1777.72 L2547.89 1774.01 L2563.11 1770.42 L2578.33 1766.83 L2593.55 1763.12 L2608.77 1759.53 L2623.99 1755.94 L2639.22 1752.35 L2654.44 1748.77 L2669.66 1745.18 L2684.88 1741.59 L2700.10 1738.00 L2715.32 1734.53 L2730.54 1730.95 L2745.76 1727.36 L2760.99 1723.89 L2776.21 1720.30 L2791.43 1716.84 L2806.65 1713.25 L2821.87 1709.78 L2837.09 1706.32 L2852.31 1702.73 L2867.53 1699.26 L2882.76 1695.80 L2897.85 1692.33 L2913.07 1688.87 L2928.30 1685.40 L2943.52 1681.94 L2958.74 1678.47 L2973.96 1675.01 L2989.18 1671.54 L3004.40 1668.20 L3019.62 1664.74 L3034.84 1661.27 L3050.07 1657.93 L3065.29 1654.47 L3080.51 1651.12 L3095.73 1647.66 L3110.95 1644.32 L3126.17 1640.85 L3141.39 1637.51 L3156.61 1634.17 L3171.84 1630.83 L3187.06 1627.36 L3202.28 1624.02 L3217.50 1620.68 L3232.72 1617.34 L3247.94 1614.00 L3263.04 1610.66 L3278.26 1607.32 L3293.48 1603.97 L3308.70 1600.76 L3323.93 1597.41 L3339.15 1594.07 L3354.37 1590.73 L3369.59 1587.51 L3384.81 1584.17 L3400.03 1580.83 L3415.25 1577.61 L3430.47 1574.27 L3445.70 1571.06 L3460.92 1567.84 L3476.14 1564.50 L3491.36 1561.28 L3506.58 1558.06 L3521.80 1554.72 L3537.02 1551.50 L3552.24 1548.28 L3567.47 1545.07 L3582.69 1541.85 L3597.91 1538.63 L3613.01 1535.41 L3628.23 1532.20 L3643.45 1528.98 L3658.67 1525.76 L3673.89 1522.54 L3689.11 1519.33 L3704.33 1516.11 L3719.55 1512.89 L3734.78 1509.80 L3750.00 1506.58 L3765.22 1503.36 L3780.44 1500.27 L3795.66 1497.05" stroke-linejoin="round" style="fill:none;stroke:#0000FF;stroke-width:8.64"/>
	<path d=" M585.09 2425.95 L600.31 2399.96 L615.53 2383.13 L630.75 2368.53 L645.98 2355.28 L661.20 2342.91 L676.42 2331.15 L691.64 2320.01 L706.86 2309.25 L721.96 2298.85 L737.18 2288.83 L752.40 2279.05 L767.62 2269.52 L782.84 2260.24 L798.06 2251.08 L813.28 2242.17 L828.51 2233.39 L843.73 2224.85 L858.95 2216.31 L874.17 2208.02 L889.39 2199.72 L904.61 2191.68 L919.83 2183.64 L935.05 2175.72 L950.28 2167.92 L965.50 2160.25 L980.72 2152.57 L995.94 2145.03 L1011.16 2137.60 L1026.38 2130.18 L1041.60 2122.87 L1056.83 2115.57 L1072.05 2108.39 L1087.14 2101.22 L1102.37 2094.16 L1117.59 2087.23 L1132.81 2080.18 L1148.03 2073.37 L1163.25 2066.44 L1178.47 2059.64 L1193.69 2052.95 L1208.91 2046.27 L1224.13 2039.59 L1239.36 2032.90 L1254.58 2026.35 L1269.80 2019.79 L1285.02 2013.35 L1300.24 2006.92 L1315.46 2000.48 L1330.68 1994.05 L1345.90 1987.73 L1361.13 1981.42 L1376.35 1975.24 L1391.57 1968.92 L1406.79 1962.74 L1422.01 1956.55 L1437.23 1950.48 L1452.33 1944.30 L1467.55 1938.23 L1482.77 1932.17 L1497.99 1926.23 L1513.21 1920.17 L1528.44 1914.22 L1543.66 1908.28 L1558.88 1902.34 L1574.10 1896.53 L1589.32 1890.71 L1604.54 1884.77 L1619.76 1878.95 L1634.98 1873.26 L1650.21 1867.45 L1665.43 1861.75 L1680.65 1856.06 L1695.87 1850.37 L1711.09 1844.68 L1726.31 1838.98 L1741.53 1833.41 L1756.76 1827.72 L1771.98 1822.15 L1787.20 1816.58 L1802.30 1811.01 L1817.52 1805.57 L1832.74 1800.00 L1847.96 1794.55 L1863.18 1789.11 L1878.40 1783.66 L1893.62 1778.22 L1908.84 1772.77 L1924.07 1767.33 L1939.29 1762.01 L1954.51 1756.56 L1969.73 1751.24 L1984.95 1745.92 L2000.17 1740.60 L2015.39 1735.28 L2030.61 1730.08 L2045.84 1724.76 L2061.06 1719.56 L2076.28 1714.24 L2091.50 1709.04 L2106.72 1703.84 L2121.94 1698.65 L2137.16 1693.45 L2152.38 1688.37 L2167.48 1683.18 L2182.70 1678.10 L2197.92 1672.90 L2213.14 1667.83 L2228.37 1662.76 L2243.59 1657.68 L2258.81 1652.61 L2274.03 1647.54 L2289.25 1642.46 L2304.47 1637.51 L2319.69 1632.44 L2334.91 1627.49 L2350.14 1622.41 L2365.36 1617.46 L2380.58 1612.51 L2395.80 1607.56 L2411.02 1602.61 L2426.24 1597.66 L2441.46 1592.71 L2456.68 1587.89 L2471.91 1582.94 L2487.13 1578.11 L2502.35 1573.16 L2517.57 1568.33 L2532.67 1563.51 L2547.89 1558.68 L2563.11 1553.85 L2578.33 1549.03 L2593.55 1544.20 L2608.77 1539.37 L2623.99 1534.55 L2639.22 1529.85 L2654.44 1525.02 L2669.66 1520.32 L2684.88 1515.49 L2700.10 1510.79 L2715.32 1506.08 L2730.54 1501.38 L2745.76 1496.68 L2760.99 1491.98 L2776.21 1487.27 L2791.43 1482.57 L2806.65 1477.87 L2821.87 1473.17 L2837.09 1468.59 L2852.31 1463.88 L2867.53 1459.31 L2882.76 1454.60 L2897.85 1450.02 L2913.07 1445.45 L2928.30 1440.87 L2943.52 1436.29 L2958.74 1431.71 L2973.96 1427.13 L2989.18 1422.55 L3004.40 1417.97 L3019.62 1413.39 L3034.84 1408.81 L3050.07 1404.36 L3065.29 1399.78 L3080.51 1395.32 L3095.73 1390.75 L3110.95 1386.29 L3126.17 1381.71 L3141.39 1377.26 L3156.61 1372.80 L3171.84 1368.35 L3187.06 1363.89 L3202.28 1359.44 L3217.50 1354.98 L3232.72 1350.53 L3247.94 1346.07 L3263.04 1341.62 L3278.26 1337.16 L3293.48 1332.83 L3308.70 1328.37 L3323.93 1324.04 L3339.15 1319.59 L3354.37 1315.26 L3369.59 1310.80 L3384.81 1306.47 L3400.03 1302.14 L3415.25 1297.68 L3430.47 1293.35 L3445.70 1289.02 L3460.92 1284.69 L3476.14 1280.36 L3491.36 1276.03 L3506.58 1271.69 L3521.80 1267.36 L3537.02 1263.03 L3552.24 1258.82 L3567.47 1254.49 L3582.69 1250.16 L3597.91 1245.95 L3613.01 1241.62 L3628.23 1237.41 L3643.45 1233.08 L3658.67 1228.88 L3673.89 1224.67 L3689.11 1220.34 L3704.33 1216.13 L3719.55 1211.92 L3734.78 1207.71 L3750.00 1203.51 L3765.22 1199.17 L3780.44 1194.97 L3795.66 1190.76" stroke-linejoin="round" style="fill:none;stroke:#FF0000;stroke-width:8.64"/>
	<line x1="521.73" y1="2489.19" x2="521.73" y2="100.86" style="stroke:#000000;stroke-width:5.76"/>
	<line x1="521.73" y1="2425.82" x2="481.76" y2="2425.82" style="stroke:#000000;stroke-width:5.76"/>
	<text x="461.83" y="2460.85" style="font-family:'Helvetica';font-size:99.99px;fill:#000000" text-anchor="end">0.00</text>
	<line x1="521.73" y1="1973.50" x2="481.76" y2="1973.50" style="stroke:#000000;stroke-width:5.76"/>
	<text x="461.83" y="2008.53" style="font-family:'Helvetica';font-size:99.99px;fill:#000000" text-anchor="end">0.10</text>
	<line x1="521.73" y1="1521.18" x2="481.76" y2="1521.18" style="stroke:#000000;stroke-width:5.76"/>
	<text x="461.83" y="1556.21" style="font-family:'Helvetica';font-size:99.99px;fill:#000000" text-anchor="end">0.20</text>
	<line x1="521.73" y1="1068.86" x2="481.76" y2="1068.86" style="stroke:#000000;stroke-width:5.76"/>
	<text x="461.83" y="1103.89" style="font-family:'Helvetica';font-size:99.99px;fill:#000000" text-anchor="end">0.30</text>
	<line x1="521.73" y1="616.54" x2="481.76" y2="616.54" style="stroke:#000000;stroke-width:5.76"/>
	<text x="461.83" y="651.57" style="font-family:'Helvetica';font-size:99.99px;fill:#000000" text-anchor="end">0.40</text>
	<line x1="521.73" y1="164.22" x2="481.76" y2="164.22" style="stroke:#000000;stroke-width:5.76"/>
	<text x="461.83" y="199.25" style="font-family:'Helvetica';font-size:99.99px;fill:#000000" text-anchor="end">0.50</text>
	<text x="190.71" y="1294.96" style="font-family:'Helvetica';font-size:99.99px;fill:#000000" transform="rotate(-90 190.71,1294.96)" text-anchor="middle">Cumulative incidence (%)</text>
	<line x1="521.73" y1="2489.19" x2="3859.02" y2="2489.19" style="stroke:#000000;stroke-width:5.76"/>
	<line x1="585.09" y1="2489.19" x2="585.09" y2="2529.16" style="stroke:#000000;stroke-width:5.76"/>
	<text x="585.09" y="2619.14" style="font-family:'Helvetica';font-size:99.99px;fill:#000000" text-anchor="middle">0</text>
	<line x1="1345.90" y1="2489.19" x2="1345.90" y2="2529.16" style="stroke:#000000;stroke-width:5.76"/>
	<text x="1345.90" y="2619.14" style="font-family:'Helvetica';font-size:99.99px;fill:#000000" text-anchor="middle">50</text>
	<line x1="2106.72" y1="2489.19" x2="2106.72" y2="2529.16" style="stroke:#000000;stroke-width:5.76"/>
	<text x="2106.72" y="2619.14" style="font-family:'Helvetica';font-size:99.99px;fill:#000000" text-anchor="middle">100</text>
	<line x1="2867.53" y1="2489.19" x2="2867.53" y2="2529.16" style="stroke:#000000;stroke-width:5.76"/>
	<text x="2867.53" y="2619.14" style="font-family:'Helvetica';font-size:99.99px;fill:#000000" text-anchor="middle">150</text>
	<line x1="3628.35" y1="2489.19" x2="3628.35" y2="2529.16" style="stroke:#000000;stroke-width:5.76"/>
	<text x="3628.35" y="2619.14" style="font-family:'Helvetica';font-size:99.99px;fill:#000000" text-anchor="middle">200</text>
	<text x="2190.38" y="2729.16" style="font-family:'Helvetica';font-size:99.99px;fill:#000000" text-anchor="middle">Days from 1 March 2020</text>
	<rect x="1933.59" y="2128.20" width="1890.90" height="326.46" style="fill:#FFFFFF"/>
	<rect x="1936.47" y="2131.08" width="1885.14" height="320.70" style="fill:none;stroke:#000000;stroke-width:5.76"/>
	<rect x="1976.78" y="2171.51" width="374.34" height="99.99" style="fill:#3333FF;fill-opacity:0.25"/>
	<rect x="1981.10" y="2175.83" width="365.70" height="91.35" style="fill:none;stroke:#0000FF;stroke-opacity:0.25;stroke-width:8.64"/>
	<rect x="1976.78" y="2311.47" width="374.34" height="99.99" style="fill:#FF3333;fill-opacity:0.25"/>
	<rect x="1981.10" y="2315.79" width="365.70" height="91.35" style="fill:none;stroke:#FF0000;stroke-opacity:0.25;stroke-width:8.64"/>
	<text x="2411.14" y="2256.53" style="font-family:'Helvetica';font-size:99.99px;fill:#000000">Non-current anticoagulant use</text>
	<text x="2411.14" y="2396.50" style="font-family:'Helvetica';font-size:99.99px;fill:#000000">Current anticoagulant use</text>
</svg>
