<?xml version="1.0" encoding="UTF-8" standalone="no"?>
<!-- This is a Stata 16.1 generated SVG file (http://www.stata.com) -->

<svg version="1.1" width="5.50in" height="4.00in" viewBox="0 0 3960 2880" xmlns="http://www.w3.org/2000/svg" xmlns:xlink="http://www.w3.org/1999/xlink">
	<desc>Stata Graph - Graph</desc>
	<rect x="0" y="0" width="3960" height="2880" style="fill:#EAF2F3;stroke:none"/>
	<rect x="0.00" y="0.00" width="3959.88" height="2880.00" style="fill:#EAF2F3"/>
	<rect x="2.88" y="2.88" width="3954.12" height="2874.24" style="fill:none;stroke:#EAF2F3;stroke-width:5.76"/>
	<rect x="578.53" y="100.86" width="3280.49" height="2388.33" style="fill:#FFFFFF"/>
	<rect x="581.41" y="103.74" width="3274.73" height="2382.57" style="fill:none;stroke:#FFFFFF;stroke-width:5.76"/>
	<line x1="578.53" y1="2425.82" x2="3859.02" y2="2425.82" style="stroke:#EAF2F3;stroke-width:8.64"/>
	<line x1="578.53" y1="2312.71" x2="3859.02" y2="2312.71" style="stroke:#EAF2F3;stroke-width:8.64"/>
	<line x1="578.53" y1="2199.72" x2="3859.02" y2="2199.72" style="stroke:#EAF2F3;stroke-width:8.64"/>
	<line x1="578.53" y1="2086.61" x2="3859.02" y2="2086.61" style="stroke:#EAF2F3;stroke-width:8.64"/>
	<line x1="578.53" y1="1973.50" x2="3859.02" y2="1973.50" style="stroke:#EAF2F3;stroke-width:8.64"/>
	<line x1="578.53" y1="1860.39" x2="3859.02" y2="1860.39" style="stroke:#EAF2F3;stroke-width:8.64"/>
	<line x1="578.53" y1="1747.28" x2="3859.02" y2="1747.28" style="stroke:#EAF2F3;stroke-width:8.64"/>
	<line x1="578.53" y1="1634.29" x2="3859.02" y2="1634.29" style="stroke:#EAF2F3;stroke-width:8.64"/>
	<line x1="578.53" y1="1521.18" x2="3859.02" y2="1521.18" style="stroke:#EAF2F3;stroke-width:8.64"/>
	<line x1="578.53" y1="1408.07" x2="3859.02" y2="1408.07" style="stroke:#EAF2F3;stroke-width:8.64"/>
	<line x1="578.53" y1="1294.96" x2="3859.02" y2="1294.96" style="stroke:#EAF2F3;stroke-width:8.64"/>
	<line x1="578.53" y1="1181.97" x2="3859.02" y2="1181.97" style="stroke:#EAF2F3;stroke-width:8.64"/>
	<line x1="578.53" y1="1068.86" x2="3859.02" y2="1068.86" style="stroke:#EAF2F3;stroke-width:8.64"/>
	<line x1="578.53" y1="955.75" x2="3859.02" y2="955.75" style="stroke:#EAF2F3;stroke-width:8.64"/>
	<line x1="578.53" y1="842.64" x2="3859.02" y2="842.64" style="stroke:#EAF2F3;stroke-width:8.64"/>
	<line x1="578.53" y1="729.53" x2="3859.02" y2="729.53" style="stroke:#EAF2F3;stroke-width:8.64"/>
	<line x1="578.53" y1="616.54" x2="3859.02" y2="616.54" style="stroke:#EAF2F3;stroke-width:8.64"/>
	<line x1="578.53" y1="503.43" x2="3859.02" y2="503.43" style="stroke:#EAF2F3;stroke-width:8.64"/>
	<line x1="578.53" y1="390.32" x2="3859.02" y2="390.32" style="stroke:#EAF2F3;stroke-width:8.64"/>
	<line x1="578.53" y1="277.21" x2="3859.02" y2="277.21" style="stroke:#EAF2F3;stroke-width:8.64"/>
	<defs>
		<path id="path_nnOcsWrL" d="M656.74 2425.82 L656.74 2425.82 L671.72 2425.82 L686.69 2425.82 L701.66 2425.70 L716.51 2425.70 L731.49 2425.58 L746.46 2425.33 L761.43 2425.08 L776.41 2424.71 L791.26 2424.21 L806.23 2423.72 L821.21 2423.10 L836.18 2422.36 L851.15 2421.49 L866.00 2420.50 L880.98 2419.51 L895.95 2418.27 L910.92 2417.04 L925.77 2415.55 L940.75 2413.94 L955.72 2412.21 L970.70 2410.48 L985.67 2408.50 L1000.52 2406.39 L1015.49 2404.17 L1030.47 2401.69 L1045.44 2399.22 L1060.41 2396.62 L1075.26 2393.77 L1090.24 2390.92 L1105.21 2387.83 L1120.18 2384.61 L1135.04 2381.27 L1150.01 2377.81 L1164.98 2374.22 L1179.96 2370.51 L1194.93 2366.67 L1209.78 2362.71 L1224.75 2358.50 L1239.73 2354.29 L1254.70 2349.84 L1269.67 2345.38 L1284.53 2340.68 L1299.50 2335.98 L1314.47 2331.03 L1329.45 2325.95 L1344.30 2320.88 L1359.27 2315.56 L1374.24 2310.11 L1389.22 2304.67 L1404.19 2298.98 L1419.04 2293.28 L1434.02 2287.34 L1448.99 2281.40 L1463.96 2275.34 L1478.94 2269.15 L1493.79 2262.72 L1508.76 2256.28 L1523.73 2249.85 L1538.71 2243.16 L1553.68 2236.36 L1568.53 2229.43 L1583.51 2222.50 L1598.48 2215.44 L1613.45 2208.26 L1628.30 2200.96 L1643.28 2193.54 L1658.25 2185.99 L1673.22 2178.44 L1688.20 2170.77 L1703.05 2162.97 L1718.02 2155.05 L1732.99 2147.01 L1747.97 2138.96 L1762.94 2130.79 L1777.79 2122.50 L1792.77 2114.09 L1807.74 2105.67 L1822.71 2097.13 L1837.56 2088.47 L1852.54 2079.68 L1867.51 2070.90 L1882.48 2061.99 L1897.46 2053.08 L1912.31 2043.92 L1927.28 2034.76 L1942.26 2025.60 L1957.23 2016.32 L1972.20 2006.92 L1987.05 1997.39 L2002.03 1987.86 L2017.00 1978.21 L2031.97 1968.55 L2046.83 1958.78 L2061.80 1948.88 L2076.77 1938.98 L2091.75 1928.95 L2106.72 1918.93 L2121.57 1908.78 L2136.54 1898.51 L2151.52 1888.24 L2166.49 1877.96 L2181.47 1867.57 L2196.32 1857.05 L2211.29 1846.53 L2226.26 1836.01 L2241.24 1825.37 L2256.09 1814.60 L2271.06 1803.84 L2286.03 1793.07 L2301.01 1782.18 L2315.98 1771.29 L2330.83 1760.28 L2345.80 1749.38 L2360.78 1738.25 L2375.75 1727.23 L2390.73 1716.09 L2405.58 1704.96 L2420.55 1693.70 L2435.52 1682.43 L2450.50 1671.17 L2465.35 1659.91 L2480.32 1648.53 L2495.30 1637.14 L2510.27 1625.75 L2525.24 1614.37 L2540.09 1602.86 L2555.07 1591.35 L2570.04 1579.97 L2585.01 1568.33 L2599.99 1556.82 L2614.84 1545.31 L2629.81 1533.68 L2644.78 1522.05 L2659.76 1510.54 L2674.73 1498.91 L2689.58 1487.27 L2704.56 1475.52 L2719.53 1463.88 L2734.50 1452.25 L2749.35 1440.50 L2764.33 1428.86 L2779.30 1417.11 L2794.28 1405.47 L2809.25 1393.72 L2824.10 1382.08 L2839.07 1370.33 L2854.05 1358.57 L2869.02 1346.94 L2883.99 1335.18 L2898.84 1323.42 L2913.82 1311.79 L2928.79 1300.03 L2943.76 1288.28 L2958.61 1276.64 L2973.59 1264.89 L2988.56 1253.26 L3003.54 1241.62 L3018.51 1229.99 L3033.36 1218.23 L3048.33 1206.60 L3063.31 1194.97 L3078.28 1183.33 L3093.26 1171.70 L3108.11 1160.19 L3123.08 1148.56 L3138.05 1136.93 L3153.03 1125.42 L3167.88 1113.78 L3182.85 1102.28 L3197.82 1090.64 L3212.80 1079.13 L3227.77 1067.62 L3242.62 1055.99 L3257.59 1044.48 L3272.57 1032.97 L3287.54 1021.46 L3302.52 1009.96 L3317.37 998.45 L3332.34 986.94 L3347.31 975.43 L3362.29 963.92 L3377.14 952.41 L3392.11 940.90 L3407.09 929.39 L3422.06 917.88 L3437.03 906.37 L3451.88 894.86 L3466.86 883.36 L3481.83 871.97 L3496.80 860.46 L3511.78 848.95 L3526.63 837.44 L3541.60 825.93 L3556.57 814.42 L3571.55 802.92 L3586.40 791.53 L3601.37 780.02 L3616.35 768.51 L3631.32 757.00 L3646.29 745.49 L3661.14 733.98 L3676.12 722.48 L3691.09 710.97 L3706.07 699.33 L3721.04 687.82 L3735.89 676.31 L3750.86 664.81 L3765.84 653.17 L3780.81 641.66 L3795.78 630.03 L3795.78 501.45 L3780.81 513.83 L3765.84 526.08 L3750.86 538.45 L3735.89 550.70 L3721.04 562.96 L3706.07 575.21 L3691.09 587.46 L3676.12 599.71 L3661.14 611.96 L3646.29 624.09 L3631.32 636.34 L3616.35 648.47 L3601.37 660.72 L3586.40 672.85 L3571.55 685.10 L3556.57 697.23 L3541.60 709.36 L3526.63 721.61 L3511.78 733.74 L3496.80 745.86 L3481.83 757.99 L3466.86 770.12 L3451.88 782.37 L3437.03 794.50 L3422.06 806.63 L3407.09 818.76 L3392.11 830.88 L3377.14 843.01 L3362.29 855.14 L3347.31 867.39 L3332.34 879.52 L3317.37 891.65 L3302.52 903.77 L3287.54 916.03 L3272.57 928.15 L3257.59 940.28 L3242.62 952.53 L3227.77 964.79 L3212.80 976.91 L3197.82 989.16 L3182.85 1001.42 L3167.88 1013.54 L3153.03 1025.80 L3138.05 1038.05 L3123.08 1050.42 L3108.11 1062.67 L3093.26 1074.93 L3078.28 1087.30 L3063.31 1099.55 L3048.33 1111.93 L3033.36 1124.30 L3018.51 1136.68 L3003.54 1149.05 L2988.56 1161.43 L2973.59 1173.81 L2958.61 1186.18 L2943.76 1198.68 L2928.79 1211.18 L2913.82 1223.55 L2898.84 1236.05 L2883.99 1248.55 L2869.02 1261.05 L2854.05 1273.43 L2839.07 1285.93 L2824.10 1298.43 L2809.25 1310.92 L2794.28 1323.42 L2779.30 1335.92 L2764.33 1348.42 L2749.35 1360.80 L2734.50 1373.30 L2719.53 1385.80 L2704.56 1398.17 L2689.58 1410.67 L2674.73 1423.05 L2659.76 1435.54 L2644.78 1447.92 L2629.81 1460.30 L2614.84 1472.67 L2599.99 1484.92 L2585.01 1497.30 L2570.04 1509.55 L2555.07 1521.80 L2540.09 1534.05 L2525.24 1546.30 L2510.27 1558.43 L2495.30 1570.68 L2480.32 1582.81 L2465.35 1594.82 L2450.50 1606.94 L2435.52 1618.95 L2420.55 1630.83 L2405.58 1642.83 L2390.73 1654.71 L2375.75 1666.59 L2360.78 1678.35 L2345.80 1690.11 L2330.83 1701.86 L2315.98 1713.50 L2301.01 1725.13 L2286.03 1736.64 L2271.06 1748.15 L2256.09 1759.66 L2241.24 1771.04 L2226.26 1782.30 L2211.29 1793.69 L2196.32 1804.83 L2181.47 1815.96 L2166.49 1827.10 L2151.52 1838.12 L2136.54 1849.13 L2121.57 1860.02 L2106.72 1870.79 L2091.75 1881.55 L2076.77 1892.20 L2061.80 1902.84 L2046.83 1913.36 L2031.97 1923.88 L2017.00 1934.27 L2002.03 1944.54 L1987.05 1954.82 L1972.20 1964.96 L1957.23 1975.11 L1942.26 1985.01 L1927.28 1995.04 L1912.31 2004.81 L1897.46 2014.59 L1882.48 2024.24 L1867.51 2033.89 L1852.54 2043.30 L1837.56 2052.83 L1822.71 2062.11 L1807.74 2071.39 L1792.77 2080.43 L1777.79 2089.58 L1762.94 2098.49 L1747.97 2107.28 L1732.99 2116.07 L1718.02 2124.73 L1703.05 2133.27 L1688.20 2141.81 L1673.22 2150.10 L1658.25 2158.39 L1643.28 2166.56 L1628.30 2174.60 L1613.45 2182.52 L1598.48 2190.32 L1583.51 2197.99 L1568.53 2205.67 L1553.68 2213.09 L1538.71 2220.52 L1523.73 2227.69 L1508.76 2234.87 L1493.79 2241.80 L1478.94 2248.73 L1463.96 2255.54 L1448.99 2262.22 L1434.02 2268.66 L1419.04 2275.09 L1404.19 2281.40 L1389.22 2287.47 L1374.24 2293.53 L1359.27 2299.47 L1344.30 2305.16 L1329.45 2310.73 L1314.47 2316.30 L1299.50 2321.62 L1284.53 2326.82 L1269.67 2332.02 L1254.70 2336.97 L1239.73 2341.79 L1224.75 2346.37 L1209.78 2350.95 L1194.93 2355.41 L1179.96 2359.61 L1164.98 2363.82 L1150.01 2367.78 L1135.04 2371.62 L1120.18 2375.33 L1105.21 2378.92 L1090.24 2382.39 L1075.26 2385.73 L1060.41 2388.82 L1045.44 2391.91 L1030.47 2394.76 L1015.49 2397.48 L1000.52 2400.08 L985.67 2402.56 L970.70 2404.91 L955.72 2407.14 L940.75 2409.24 L925.77 2411.10 L910.92 2412.95 L895.95 2414.69 L880.98 2416.17 L866.00 2417.66 L851.15 2418.89 L836.18 2420.01 L821.21 2421.12 L806.23 2421.99 L791.26 2422.85 L776.41 2423.60 L761.43 2424.21 L746.46 2424.71 L731.49 2425.08 L716.51 2425.33 L701.66 2425.58 L686.69 2425.70 L671.72 2425.82 L656.74 2425.82 L656.74 2425.82 Z" stroke-linejoin="round"/>
	</defs>
	<defs>
		<clipPath id="clipPath_MnKwYaRM">
			<use xlink:href="#path_nnOcsWrL"/>
		</clipPath>
	</defs>
	<use xlink:href="#path_nnOcsWrL" style="stroke:none;fill:#3333FF;fill-opacity:0.25"/>
	<use xlink:href="#path_nnOcsWrL" style="fill:none;stroke:#0000FF;stroke-opacity:0.25;stroke-width:17.28" clip-path="url(#clipPath_MnKwYaRM)"/>
	<defs>
		<path id="path_aDyvoksN" d="M656.74 2425.82 L656.74 2425.82 L671.72 2425.82 L686.69 2425.82 L701.66 2425.70 L716.51 2425.70 L731.49 2425.58 L746.46 2425.33 L761.43 2425.08 L776.41 2424.71 L791.26 2424.34 L806.23 2423.72 L821.21 2423.10 L836.18 2422.48 L851.15 2421.62 L866.00 2420.75 L880.98 2419.64 L895.95 2418.52 L910.92 2417.16 L925.77 2415.80 L940.75 2414.31 L955.72 2412.58 L970.70 2410.85 L985.67 2408.87 L1000.52 2406.89 L1015.49 2404.66 L1030.47 2402.31 L1045.44 2399.83 L1060.41 2397.24 L1075.26 2394.51 L1090.24 2391.67 L1105.21 2388.70 L1120.18 2385.60 L1135.04 2382.39 L1150.01 2378.92 L1164.98 2375.46 L1179.96 2371.74 L1194.93 2368.03 L1209.78 2364.07 L1224.75 2359.99 L1239.73 2355.78 L1254.70 2351.45 L1269.67 2347.12 L1284.53 2342.54 L1299.50 2337.83 L1314.47 2333.01 L1329.45 2328.06 L1344.30 2322.98 L1359.27 2317.79 L1374.24 2312.59 L1389.22 2307.14 L1404.19 2301.57 L1419.04 2295.88 L1434.02 2290.19 L1448.99 2284.25 L1463.96 2278.31 L1478.94 2272.12 L1493.79 2265.93 L1508.76 2259.62 L1523.73 2253.19 L1538.71 2246.63 L1553.68 2239.94 L1568.53 2233.14 L1583.51 2226.33 L1598.48 2219.40 L1613.45 2212.22 L1628.30 2205.05 L1643.28 2197.74 L1658.25 2190.44 L1673.22 2182.89 L1688.20 2175.35 L1703.05 2167.67 L1718.02 2159.88 L1732.99 2151.96 L1747.97 2144.04 L1762.94 2135.99 L1777.79 2127.82 L1792.77 2119.53 L1807.74 2111.24 L1822.71 2102.83 L1837.56 2094.29 L1852.54 2085.75 L1867.51 2076.96 L1882.48 2068.17 L1897.46 2059.39 L1912.31 2050.35 L1927.28 2041.32 L1942.26 2032.29 L1957.23 2023.13 L1972.20 2013.85 L1987.05 2004.44 L2002.03 1995.04 L2017.00 1985.51 L2031.97 1975.85 L2046.83 1966.20 L2061.80 1956.55 L2076.77 1946.65 L2091.75 1936.87 L2106.72 1926.85 L2121.57 1916.82 L2136.54 1906.80 L2151.52 1896.65 L2166.49 1886.38 L2181.47 1876.11 L2196.32 1865.71 L2211.29 1855.32 L2226.26 1844.80 L2241.24 1834.28 L2256.09 1823.76 L2271.06 1813.12 L2286.03 1802.35 L2301.01 1791.58 L2315.98 1780.82 L2330.83 1770.05 L2345.80 1759.16 L2360.78 1748.15 L2375.75 1737.26 L2390.73 1726.24 L2405.58 1715.10 L2420.55 1704.09 L2435.52 1692.95 L2450.50 1681.69 L2465.35 1670.55 L2480.32 1659.29 L2495.30 1648.03 L2510.27 1636.77 L2525.24 1625.51 L2540.09 1614.12 L2555.07 1602.74 L2570.04 1591.35 L2585.01 1579.97 L2599.99 1568.46 L2614.84 1557.07 L2629.81 1545.56 L2644.78 1534.18 L2659.76 1522.67 L2674.73 1511.16 L2689.58 1499.53 L2704.56 1488.02 L2719.53 1476.51 L2734.50 1464.87 L2749.35 1453.37 L2764.33 1441.73 L2779.30 1430.22 L2794.28 1418.59 L2809.25 1407.08 L2824.10 1395.45 L2839.07 1383.82 L2854.05 1372.18 L2869.02 1360.67 L2883.99 1349.04 L2898.84 1337.41 L2913.82 1325.78 L2928.79 1314.14 L2943.76 1302.63 L2958.61 1291.00 L2973.59 1279.37 L2988.56 1267.86 L3003.54 1256.23 L3018.51 1244.72 L3033.36 1233.21 L3048.33 1221.57 L3063.31 1210.07 L3078.28 1198.56 L3093.26 1187.05 L3108.11 1175.54 L3123.08 1164.03 L3138.05 1152.52 L3153.03 1141.01 L3167.88 1129.50 L3182.85 1117.99 L3197.82 1106.48 L3212.80 1095.10 L3227.77 1083.59 L3242.62 1072.08 L3257.59 1060.69 L3272.57 1049.19 L3287.54 1037.80 L3302.52 1026.29 L3317.37 1014.91 L3332.34 1003.40 L3347.31 992.01 L3362.29 980.63 L3377.14 969.12 L3392.11 957.73 L3407.09 946.35 L3422.06 934.96 L3437.03 923.45 L3451.88 912.07 L3466.86 900.68 L3481.83 889.30 L3496.80 877.91 L3511.78 866.40 L3526.63 855.02 L3541.60 843.63 L3556.57 832.24 L3571.55 820.86 L3586.40 809.47 L3601.37 797.96 L3616.35 786.58 L3631.32 775.19 L3646.29 763.81 L3661.14 752.42 L3676.12 740.91 L3691.09 729.53 L3706.07 718.14 L3721.04 706.63 L3735.89 695.25 L3750.86 683.86 L3765.84 672.35 L3780.81 660.97 L3795.78 649.46 L3795.78 577.44 L3780.81 589.32 L3765.84 601.20 L3750.86 613.08 L3735.89 624.96 L3721.04 636.71 L3706.07 648.59 L3691.09 660.35 L3676.12 672.11 L3661.14 683.99 L3646.29 695.74 L3631.32 707.50 L3616.35 719.26 L3601.37 730.89 L3586.40 742.65 L3571.55 754.40 L3556.57 766.04 L3541.60 777.79 L3526.63 789.55 L3511.78 801.18 L3496.80 812.82 L3481.83 824.57 L3466.86 836.20 L3451.88 847.84 L3437.03 859.59 L3422.06 871.23 L3407.09 882.86 L3392.11 894.49 L3377.14 906.25 L3362.29 917.88 L3347.31 929.52 L3332.34 941.15 L3317.37 952.90 L3302.52 964.54 L3287.54 976.17 L3272.57 987.93 L3257.59 999.56 L3242.62 1011.32 L3227.77 1022.95 L3212.80 1034.71 L3197.82 1046.46 L3182.85 1058.10 L3167.88 1069.85 L3153.03 1081.61 L3138.05 1093.37 L3123.08 1105.12 L3108.11 1117.00 L3093.26 1128.76 L3078.28 1140.52 L3063.31 1152.40 L3048.33 1164.28 L3033.36 1176.03 L3018.51 1187.91 L3003.54 1199.79 L2988.56 1211.80 L2973.59 1223.68 L2958.61 1235.56 L2943.76 1247.56 L2928.79 1259.44 L2913.82 1271.45 L2898.84 1283.45 L2883.99 1295.33 L2869.02 1307.34 L2854.05 1319.34 L2839.07 1331.34 L2824.10 1343.35 L2809.25 1355.35 L2794.28 1367.36 L2779.30 1379.24 L2764.33 1391.24 L2749.35 1403.25 L2734.50 1415.25 L2719.53 1427.13 L2704.56 1439.13 L2689.58 1451.01 L2674.73 1463.02 L2659.76 1474.90 L2644.78 1486.78 L2629.81 1498.66 L2614.84 1510.54 L2599.99 1522.42 L2585.01 1534.18 L2570.04 1545.93 L2555.07 1557.69 L2540.09 1569.45 L2525.24 1581.20 L2510.27 1592.84 L2495.30 1604.59 L2480.32 1616.23 L2465.35 1627.73 L2450.50 1639.37 L2435.52 1650.88 L2420.55 1662.26 L2405.58 1673.77 L2390.73 1685.16 L2375.75 1696.54 L2360.78 1707.80 L2345.80 1719.06 L2330.83 1730.33 L2315.98 1741.46 L2301.01 1752.60 L2286.03 1763.62 L2271.06 1774.75 L2256.09 1785.64 L2241.24 1796.53 L2226.26 1807.43 L2211.29 1818.19 L2196.32 1828.96 L2181.47 1839.72 L2166.49 1850.37 L2151.52 1860.89 L2136.54 1871.41 L2121.57 1881.80 L2106.72 1892.20 L2091.75 1902.47 L2076.77 1912.74 L2061.80 1922.89 L2046.83 1933.04 L2031.97 1943.06 L2017.00 1953.08 L2002.03 1962.98 L1987.05 1972.76 L1972.20 1982.54 L1957.23 1992.19 L1942.26 2001.84 L1927.28 2011.37 L1912.31 2020.78 L1897.46 2030.18 L1882.48 2039.46 L1867.51 2048.62 L1852.54 2057.78 L1837.56 2066.81 L1822.71 2075.72 L1807.74 2084.63 L1792.77 2093.42 L1777.79 2102.08 L1762.94 2110.75 L1747.97 2119.16 L1732.99 2127.58 L1718.02 2135.87 L1703.05 2144.16 L1688.20 2152.33 L1673.22 2160.25 L1658.25 2168.29 L1643.28 2176.09 L1628.30 2183.76 L1613.45 2191.43 L1598.48 2198.98 L1583.51 2206.28 L1568.53 2213.59 L1553.68 2220.76 L1538.71 2227.94 L1523.73 2234.87 L1508.76 2241.68 L1493.79 2248.48 L1478.94 2255.04 L1463.96 2261.60 L1448.99 2268.04 L1434.02 2274.22 L1419.04 2280.41 L1404.19 2286.48 L1389.22 2292.42 L1374.24 2298.23 L1359.27 2303.80 L1344.30 2309.37 L1329.45 2314.82 L1314.47 2320.14 L1299.50 2325.21 L1284.53 2330.29 L1269.67 2335.24 L1254.70 2339.94 L1239.73 2344.64 L1224.75 2349.10 L1209.78 2353.55 L1194.93 2357.76 L1179.96 2361.84 L1164.98 2365.80 L1150.01 2369.64 L1135.04 2373.48 L1120.18 2377.06 L1105.21 2380.41 L1090.24 2383.75 L1075.26 2386.96 L1060.41 2390.06 L1045.44 2392.90 L1030.47 2395.75 L1015.49 2398.35 L1000.52 2400.95 L985.67 2403.30 L970.70 2405.65 L955.72 2407.76 L940.75 2409.74 L925.77 2411.59 L910.92 2413.32 L895.95 2414.93 L880.98 2416.42 L866.00 2417.90 L851.15 2419.14 L836.18 2420.25 L821.21 2421.24 L806.23 2422.11 L791.26 2422.98 L776.41 2423.60 L761.43 2424.21 L746.46 2424.71 L731.49 2425.08 L716.51 2425.33 L701.66 2425.58 L686.69 2425.70 L671.72 2425.82 L656.74 2425.82 L656.74 2425.82 Z" stroke-linejoin="round"/>
	</defs>
	<defs>
		<clipPath id="clipPath_TfhQclyp">
			<use xlink:href="#path_aDyvoksN"/>
		</clipPath>
	</defs>
	<use xlink:href="#path_aDyvoksN" style="stroke:none;fill:#FF3333;fill-opacity:0.25"/>
	<use xlink:href="#path_aDyvoksN" style="fill:none;stroke:#FF0000;stroke-opacity:0.25;stroke-width:17.28" clip-path="url(#clipPath_TfhQclyp)"/>
	<path d=" M641.77 2425.95 L656.74 2425.95 L671.72 2425.95 L686.57 2425.82 L701.54 2425.70 L716.51 2425.58 L731.49 2425.45 L746.46 2425.08 L761.31 2424.71 L776.28 2424.34 L791.26 2423.72 L806.23 2423.10 L821.08 2422.23 L836.05 2421.37 L851.03 2420.38 L866.00 2419.26 L880.98 2418.03 L895.83 2416.67 L910.80 2415.18 L925.77 2413.57 L940.75 2411.84 L955.72 2409.98 L970.57 2408.00 L985.54 2405.78 L1000.52 2403.55 L1015.49 2401.07 L1030.34 2398.60 L1045.32 2395.87 L1060.29 2393.03 L1075.26 2390.06 L1090.24 2386.96 L1105.09 2383.62 L1120.06 2380.28 L1135.04 2376.82 L1150.01 2373.10 L1164.98 2369.27 L1179.83 2365.43 L1194.81 2361.35 L1209.78 2357.14 L1224.75 2352.81 L1239.60 2348.35 L1254.58 2343.65 L1269.55 2338.95 L1284.53 2334.12 L1299.50 2329.05 L1314.35 2323.97 L1329.32 2318.78 L1344.30 2313.33 L1359.27 2307.89 L1374.24 2302.19 L1389.09 2296.38 L1404.07 2290.56 L1419.04 2284.50 L1434.02 2278.43 L1448.87 2272.12 L1463.84 2265.81 L1478.81 2259.25 L1493.79 2252.69 L1508.76 2246.01 L1523.61 2239.08 L1538.58 2232.15 L1553.56 2225.09 L1568.53 2217.92 L1583.51 2210.62 L1598.36 2203.31 L1613.33 2195.76 L1628.30 2188.22 L1643.28 2180.42 L1658.25 2172.62 L1673.10 2164.70 L1688.07 2156.66 L1703.05 2148.61 L1718.02 2140.32 L1732.87 2132.03 L1747.85 2123.62 L1762.82 2115.08 L1777.79 2106.54 L1792.77 2097.75 L1807.62 2088.97 L1822.59 2080.06 L1837.56 2071.14 L1852.54 2062.11 L1867.51 2052.95 L1882.36 2043.67 L1897.34 2034.39 L1912.31 2024.98 L1927.28 2015.46 L1942.13 2005.93 L1957.11 1996.27 L1972.08 1986.50 L1987.05 1976.72 L2002.03 1966.82 L2016.88 1956.80 L2031.85 1946.77 L2046.83 1936.62 L2061.80 1926.48 L2076.77 1916.20 L2091.62 1905.81 L2106.60 1895.41 L2121.57 1885.02 L2136.54 1874.38 L2151.39 1863.86 L2166.37 1853.09 L2181.34 1842.45 L2196.32 1831.56 L2211.29 1820.67 L2226.14 1809.78 L2241.11 1798.76 L2256.09 1787.75 L2271.06 1776.73 L2286.03 1765.47 L2300.88 1754.33 L2315.86 1743.07 L2330.83 1731.81 L2345.80 1720.43 L2360.66 1709.04 L2375.63 1697.53 L2390.60 1686.15 L2405.58 1674.51 L2420.55 1663.00 L2435.40 1651.37 L2450.37 1639.74 L2465.35 1628.11 L2480.32 1616.35 L2495.30 1604.59 L2510.14 1592.84 L2525.12 1581.08 L2540.09 1569.20 L2555.07 1557.44 L2569.92 1545.56 L2584.89 1533.56 L2599.86 1521.68 L2614.84 1509.67 L2629.81 1497.79 L2644.66 1485.79 L2659.64 1473.78 L2674.61 1461.78 L2689.58 1449.78 L2704.56 1437.65 L2719.41 1425.64 L2734.38 1413.64 L2749.35 1401.51 L2764.33 1389.51 L2779.30 1377.38 L2794.15 1365.25 L2809.12 1353.25 L2824.10 1341.12 L2839.07 1328.99 L2853.92 1316.86 L2868.90 1304.86 L2883.87 1292.73 L2898.84 1280.61 L2913.82 1268.60 L2928.67 1256.47 L2943.64 1244.47 L2958.61 1232.34 L2973.59 1220.34 L2988.56 1208.21 L3003.41 1196.20 L3018.39 1184.20 L3033.36 1172.20 L3048.33 1160.19 L3063.18 1148.19 L3078.16 1136.31 L3093.13 1124.30 L3108.11 1112.30 L3123.08 1100.42 L3137.93 1088.54 L3152.90 1076.53 L3167.88 1064.65 L3182.85 1052.77 L3197.82 1040.89 L3212.67 1029.01 L3227.65 1017.13 L3242.62 1005.25 L3257.59 993.37 L3272.45 981.62 L3287.42 969.74 L3302.39 957.85 L3317.37 946.10 L3332.34 934.22 L3347.19 922.34 L3362.16 910.58 L3377.14 898.70 L3392.11 886.94 L3407.09 875.06 L3421.93 863.31 L3436.91 851.55 L3451.88 839.67 L3466.86 827.91 L3481.71 816.03 L3496.68 804.28 L3511.65 792.40 L3526.63 780.64 L3541.60 768.76 L3556.45 757.00 L3571.43 745.12 L3586.40 733.24 L3601.37 721.49 L3616.35 709.60 L3631.20 697.72 L3646.17 685.97 L3661.14 674.09 L3676.12 662.21 L3690.97 650.33 L3705.94 638.45 L3720.91 626.57 L3735.89 614.69 L3750.86 602.68 L3765.71 590.80 L3780.69 578.92 L3795.66 566.92" stroke-linejoin="round" style="fill:none;stroke:#0000FF;stroke-width:8.64"/>
	<path d=" M641.77 2425.95 L656.74 2425.95 L671.72 2425.95 L686.57 2425.82 L701.54 2425.70 L716.51 2425.58 L731.49 2425.45 L746.46 2425.08 L761.31 2424.83 L776.28 2424.34 L791.26 2423.84 L806.23 2423.10 L821.08 2422.36 L836.05 2421.49 L851.03 2420.63 L866.00 2419.51 L880.98 2418.27 L895.83 2416.91 L910.80 2415.55 L925.77 2413.94 L940.75 2412.21 L955.72 2410.48 L970.57 2408.50 L985.54 2406.39 L1000.52 2404.17 L1015.49 2401.82 L1030.34 2399.34 L1045.32 2396.74 L1060.29 2393.89 L1075.26 2391.05 L1090.24 2388.08 L1105.09 2384.86 L1120.06 2381.52 L1135.04 2378.18 L1150.01 2374.59 L1164.98 2370.88 L1179.83 2367.04 L1194.81 2363.08 L1209.78 2359.00 L1224.75 2354.79 L1239.60 2350.46 L1254.58 2346.00 L1269.55 2341.42 L1284.53 2336.72 L1299.50 2331.77 L1314.35 2326.82 L1329.32 2321.75 L1344.30 2316.42 L1359.27 2311.10 L1374.24 2305.66 L1389.09 2300.09 L1404.07 2294.27 L1419.04 2288.46 L1434.02 2282.52 L1448.87 2276.45 L1463.84 2270.26 L1478.81 2263.95 L1493.79 2257.52 L1508.76 2250.96 L1523.61 2244.28 L1538.58 2237.59 L1553.56 2230.66 L1568.53 2223.73 L1583.51 2216.68 L1598.36 2209.38 L1613.33 2202.20 L1628.30 2194.77 L1643.28 2187.23 L1658.25 2179.68 L1673.10 2171.88 L1688.07 2164.08 L1703.05 2156.29 L1718.02 2148.24 L1732.87 2140.08 L1747.85 2131.91 L1762.82 2123.62 L1777.79 2115.32 L1792.77 2106.79 L1807.62 2098.25 L1822.59 2089.58 L1837.56 2080.92 L1852.54 2072.01 L1867.51 2063.10 L1882.36 2054.19 L1897.34 2045.03 L1912.31 2035.87 L1927.28 2026.72 L1942.13 2017.44 L1957.11 2008.03 L1972.08 1998.50 L1987.05 1988.97 L2002.03 1979.32 L2016.88 1969.67 L2031.85 1959.89 L2046.83 1949.99 L2061.80 1940.09 L2076.77 1930.07 L2091.62 1920.04 L2106.60 1909.89 L2121.57 1899.75 L2136.54 1889.47 L2151.39 1879.08 L2166.37 1868.68 L2181.34 1858.29 L2196.32 1847.77 L2211.29 1837.13 L2226.14 1826.48 L2241.11 1815.84 L2256.09 1805.07 L2271.06 1794.18 L2286.03 1783.42 L2300.88 1772.53 L2315.86 1761.51 L2330.83 1750.50 L2345.80 1739.48 L2360.66 1728.35 L2375.63 1717.21 L2390.60 1706.07 L2405.58 1694.81 L2420.55 1683.55 L2435.40 1672.16 L2450.37 1660.90 L2465.35 1649.52 L2480.32 1638.13 L2495.30 1626.62 L2510.14 1615.24 L2525.12 1603.73 L2540.09 1592.22 L2555.07 1580.58 L2569.92 1569.08 L2584.89 1557.44 L2599.86 1545.81 L2614.84 1534.18 L2629.81 1522.54 L2644.66 1510.79 L2659.64 1499.15 L2674.61 1487.40 L2689.58 1475.64 L2704.56 1464.01 L2719.41 1452.25 L2734.38 1440.50 L2749.35 1428.74 L2764.33 1416.86 L2779.30 1405.10 L2794.15 1393.34 L2809.12 1381.59 L2824.10 1369.71 L2839.07 1357.95 L2853.92 1346.19 L2868.90 1334.44 L2883.87 1322.56 L2898.84 1310.80 L2913.82 1299.04 L2928.67 1287.29 L2943.64 1275.41 L2958.61 1263.65 L2973.59 1251.89 L2988.56 1240.14 L3003.41 1228.50 L3018.39 1216.75 L3033.36 1204.99 L3048.33 1193.36 L3063.18 1181.60 L3078.16 1169.97 L3093.13 1158.21 L3108.11 1146.58 L3123.08 1134.95 L3137.93 1123.31 L3152.90 1111.68 L3167.88 1100.05 L3182.85 1088.42 L3197.82 1076.91 L3212.67 1065.27 L3227.65 1053.64 L3242.62 1042.13 L3257.59 1030.50 L3272.45 1018.99 L3287.42 1007.36 L3302.39 995.85 L3317.37 984.21 L3332.34 972.71 L3347.19 961.20 L3362.16 949.56 L3377.14 938.05 L3392.11 926.55 L3407.09 915.04 L3421.93 903.40 L3436.91 891.89 L3451.88 880.39 L3466.86 868.88 L3481.71 857.24 L3496.68 845.73 L3511.65 834.22 L3526.63 822.72 L3541.60 811.08 L3556.45 799.57 L3571.43 788.06 L3586.40 776.43 L3601.37 764.92 L3616.35 753.29 L3631.20 741.78 L3646.17 730.15 L3661.14 718.51 L3676.12 707.01 L3690.97 695.37 L3705.94 683.74 L3720.91 672.11 L3735.89 660.47 L3750.86 648.84 L3765.71 637.21 L3780.69 625.58 L3795.66 613.82" stroke-linejoin="round" style="fill:none;stroke:#FF0000;stroke-width:8.64"/>
	<line x1="578.53" y1="2489.19" x2="578.53" y2="100.86" style="stroke:#000000;stroke-width:5.76"/>
	<line x1="578.53" y1="2425.82" x2="538.44" y2="2425.82" style="stroke:#000000;stroke-width:5.76"/>
	<text x="518.51" y="2460.85" style="font-family:'Helvetica';font-size:99.99px;fill:#000000" text-anchor="end">0.00</text>
	<line x1="578.53" y1="2312.71" x2="538.44" y2="2312.71" style="stroke:#000000;stroke-width:5.76"/>
	<text x="518.51" y="2347.74" style="font-family:'Helvetica';font-size:99.99px;fill:#000000" text-anchor="end">1.00</text>
	<line x1="578.53" y1="2199.72" x2="538.44" y2="2199.72" style="stroke:#000000;stroke-width:5.76"/>
	<text x="518.51" y="2234.75" style="font-family:'Helvetica';font-size:99.99px;fill:#000000" text-anchor="end">2.00</text>
	<line x1="578.53" y1="2086.61" x2="538.44" y2="2086.61" style="stroke:#000000;stroke-width:5.76"/>
	<text x="518.51" y="2121.64" style="font-family:'Helvetica';font-size:99.99px;fill:#000000" text-anchor="end">3.00</text>
	<line x1="578.53" y1="1973.50" x2="538.44" y2="1973.50" style="stroke:#000000;stroke-width:5.76"/>
	<text x="518.51" y="2008.53" style="font-family:'Helvetica';font-size:99.99px;fill:#000000" text-anchor="end">4.00</text>
	<line x1="578.53" y1="1860.39" x2="538.44" y2="1860.39" style="stroke:#000000;stroke-width:5.76"/>
	<text x="518.51" y="1895.42" style="font-family:'Helvetica';font-size:99.99px;fill:#000000" text-anchor="end">5.00</text>
	<line x1="578.53" y1="1747.28" x2="538.44" y2="1747.28" style="stroke:#000000;stroke-width:5.76"/>
	<text x="518.51" y="1782.31" style="font-family:'Helvetica';font-size:99.99px;fill:#000000" text-anchor="end">6.00</text>
	<line x1="578.53" y1="1634.29" x2="538.44" y2="1634.29" style="stroke:#000000;stroke-width:5.76"/>
	<text x="518.51" y="1669.32" style="font-family:'Helvetica';font-size:99.99px;fill:#000000" text-anchor="end">7.00</text>
	<line x1="578.53" y1="1521.18" x2="538.44" y2="1521.18" style="stroke:#000000;stroke-width:5.76"/>
	<text x="518.51" y="1556.21" style="font-family:'Helvetica';font-size:99.99px;fill:#000000" text-anchor="end">8.00</text>
	<line x1="578.53" y1="1408.07" x2="538.44" y2="1408.07" style="stroke:#000000;stroke-width:5.76"/>
	<text x="518.51" y="1443.10" style="font-family:'Helvetica';font-size:99.99px;fill:#000000" text-anchor="end">9.00</text>
	<line x1="578.53" y1="1294.96" x2="538.44" y2="1294.96" style="stroke:#000000;stroke-width:5.76"/>
	<text x="518.51" y="1329.99" style="font-family:'Helvetica';font-size:99.99px;fill:#000000" text-anchor="end">10.00</text>
	<line x1="578.53" y1="1181.97" x2="538.44" y2="1181.97" style="stroke:#000000;stroke-width:5.76"/>
	<text x="518.51" y="1217.00" style="font-family:'Helvetica';font-size:99.99px;fill:#000000" text-anchor="end">11.00</text>
	<line x1="578.53" y1="1068.86" x2="538.44" y2="1068.86" style="stroke:#000000;stroke-width:5.76"/>
	<text x="518.51" y="1103.89" style="font-family:'Helvetica';font-size:99.99px;fill:#000000" text-anchor="end">12.00</text>
	<line x1="578.53" y1="955.75" x2="538.44" y2="955.75" style="stroke:#000000;stroke-width:5.76"/>
	<text x="518.51" y="990.78" style="font-family:'Helvetica';font-size:99.99px;fill:#000000" text-anchor="end">13.00</text>
	<line x1="578.53" y1="842.64" x2="538.44" y2="842.64" style="stroke:#000000;stroke-width:5.76"/>
	<text x="518.51" y="877.67" style="font-family:'Helvetica';font-size:99.99px;fill:#000000" text-anchor="end">14.00</text>
	<line x1="578.53" y1="729.53" x2="538.44" y2="729.53" style="stroke:#000000;stroke-width:5.76"/>
	<text x="518.51" y="764.56" style="font-family:'Helvetica';font-size:99.99px;fill:#000000" text-anchor="end">15.00</text>
	<line x1="578.53" y1="616.54" x2="538.44" y2="616.54" style="stroke:#000000;stroke-width:5.76"/>
	<text x="518.51" y="651.57" style="font-family:'Helvetica';font-size:99.99px;fill:#000000" text-anchor="end">16.00</text>
	<line x1="578.53" y1="503.43" x2="538.44" y2="503.43" style="stroke:#000000;stroke-width:5.76"/>
	<text x="518.51" y="538.46" style="font-family:'Helvetica';font-size:99.99px;fill:#000000" text-anchor="end">17.00</text>
	<line x1="578.53" y1="390.32" x2="538.44" y2="390.32" style="stroke:#000000;stroke-width:5.76"/>
	<text x="518.51" y="425.35" style="font-family:'Helvetica';font-size:99.99px;fill:#000000" text-anchor="end">18.00</text>
	<line x1="578.53" y1="277.21" x2="538.44" y2="277.21" style="stroke:#000000;stroke-width:5.76"/>
	<text x="518.51" y="312.24" style="font-family:'Helvetica';font-size:99.99px;fill:#000000" text-anchor="end">19.00</text>
	<line x1="578.53" y1="164.22" x2="538.44" y2="164.22" style="stroke:#000000;stroke-width:5.76"/>
	<text x="518.51" y="199.25" style="font-family:'Helvetica';font-size:99.99px;fill:#000000" text-anchor="end">20.00</text>
	<text x="190.71" y="1294.96" style="font-family:'Helvetica';font-size:99.99px;fill:#000000" transform="rotate(-90 190.71,1294.96)" text-anchor="middle">Cumulative incidence (%)</text>
	<line x1="578.53" y1="2489.19" x2="3859.02" y2="2489.19" style="stroke:#000000;stroke-width:5.76"/>
	<line x1="641.89" y1="2489.19" x2="641.89" y2="2529.16" style="stroke:#000000;stroke-width:5.76"/>
	<text x="641.89" y="2619.14" style="font-family:'Helvetica';font-size:99.99px;fill:#000000" text-anchor="middle">0</text>
	<line x1="1389.22" y1="2489.19" x2="1389.22" y2="2529.16" style="stroke:#000000;stroke-width:5.76"/>
	<text x="1389.22" y="2619.14" style="font-family:'Helvetica';font-size:99.99px;fill:#000000" text-anchor="middle">50</text>
	<line x1="2136.54" y1="2489.19" x2="2136.54" y2="2529.16" style="stroke:#000000;stroke-width:5.76"/>
	<text x="2136.54" y="2619.14" style="font-family:'Helvetica';font-size:99.99px;fill:#000000" text-anchor="middle">100</text>
	<line x1="2883.99" y1="2489.19" x2="2883.99" y2="2529.16" style="stroke:#000000;stroke-width:5.76"/>
	<text x="2883.99" y="2619.14" style="font-family:'Helvetica';font-size:99.99px;fill:#000000" text-anchor="middle">150</text>
	<line x1="3631.32" y1="2489.19" x2="3631.32" y2="2529.16" style="stroke:#000000;stroke-width:5.76"/>
	<text x="3631.32" y="2619.14" style="font-family:'Helvetica';font-size:99.99px;fill:#000000" text-anchor="middle">200</text>
	<text x="2218.84" y="2729.16" style="font-family:'Helvetica';font-size:99.99px;fill:#000000" text-anchor="middle">Days from 1 March 2020</text>
	<rect x="1933.59" y="2128.20" width="1890.90" height="326.46" style="fill:#FFFFFF"/>
	<rect x="1936.47" y="2131.08" width="1885.14" height="320.70" style="fill:none;stroke:#000000;stroke-width:5.76"/>
	<rect x="1976.78" y="2171.51" width="374.34" height="99.99" style="fill:#3333FF;fill-opacity:0.25"/>
	<rect x="1981.10" y="2175.83" width="365.70" height="91.35" style="fill:none;stroke:#0000FF;stroke-opacity:0.25;stroke-width:8.64"/>
	<rect x="1976.78" y="2311.47" width="374.34" height="99.99" style="fill:#FF3333;fill-opacity:0.25"/>
	<rect x="1981.10" y="2315.79" width="365.70" height="91.35" style="fill:none;stroke:#FF0000;stroke-opacity:0.25;stroke-width:8.64"/>
	<text x="2411.14" y="2256.53" style="font-family:'Helvetica';font-size:99.99px;fill:#000000">Non-current anticoagulant use</text>
	<text x="2411.14" y="2396.50" style="font-family:'Helvetica';font-size:99.99px;fill:#000000">Current anticoagulant use</text>
</svg>
