<?xml version="1.0" encoding="UTF-8" standalone="no"?>
<!-- This is a Stata 16.1 generated SVG file (http://www.stata.com) -->

<svg version="1.1" width="5.50in" height="4.00in" viewBox="0 0 3960 2880" xmlns="http://www.w3.org/2000/svg" xmlns:xlink="http://www.w3.org/1999/xlink">
	<desc>Stata Graph - Graph</desc>
	<rect x="0" y="0" width="3960" height="2880" style="fill:#EAF2F3;stroke:none"/>
	<rect x="0.00" y="0.00" width="3959.88" height="2880.00" style="fill:#EAF2F3"/>
	<rect x="2.88" y="2.88" width="3954.12" height="2874.24" style="fill:none;stroke:#EAF2F3;stroke-width:5.76"/>
	<rect x="521.73" y="100.86" width="3337.29" height="2388.33" style="fill:#FFFFFF"/>
	<rect x="524.61" y="103.74" width="3331.53" height="2382.57" style="fill:none;stroke:#FFFFFF;stroke-width:5.76"/>
	<line x1="521.73" y1="2425.82" x2="3859.02" y2="2425.82" style="stroke:#EAF2F3;stroke-width:8.64"/>
	<line x1="521.73" y1="1973.50" x2="3859.02" y2="1973.50" style="stroke:#EAF2F3;stroke-width:8.64"/>
	<line x1="521.73" y1="1521.18" x2="3859.02" y2="1521.18" style="stroke:#EAF2F3;stroke-width:8.64"/>
	<line x1="521.73" y1="1068.86" x2="3859.02" y2="1068.86" style="stroke:#EAF2F3;stroke-width:8.64"/>
	<line x1="521.73" y1="616.54" x2="3859.02" y2="616.54" style="stroke:#EAF2F3;stroke-width:8.64"/>
	<line x1="521.73" y1="164.22" x2="3859.02" y2="164.22" style="stroke:#EAF2F3;stroke-width:8.64"/>
	<defs>
		<path id="path_GblMkzLY" d="M600.31 2425.82 L600.31 2425.82 L615.53 2425.82 L630.75 2425.82 L645.98 2425.82 L661.20 2425.82 L676.42 2425.82 L691.64 2425.82 L706.86 2425.82 L722.08 2425.82 L737.30 2425.82 L752.52 2425.82 L767.75 2425.70 L782.97 2425.58 L798.19 2425.45 L813.41 2425.08 L828.63 2424.71 L843.85 2423.97 L859.07 2422.85 L874.29 2421.24 L889.51 2419.02 L904.61 2416.05 L919.83 2411.96 L935.05 2406.64 L950.28 2399.96 L965.50 2391.54 L980.72 2381.27 L995.94 2369.14 L1011.16 2354.79 L1026.38 2338.45 L1041.60 2320.01 L1056.83 2299.47 L1072.05 2277.19 L1087.27 2253.19 L1102.49 2227.82 L1117.71 2201.33 L1132.93 2173.98 L1148.15 2146.14 L1163.37 2117.92 L1178.60 2089.83 L1193.82 2061.86 L1209.04 2034.51 L1224.26 2007.78 L1239.48 1981.79 L1254.70 1956.55 L1269.80 1932.17 L1285.02 1908.66 L1300.24 1885.89 L1315.46 1864.10 L1330.68 1843.07 L1345.90 1823.02 L1361.13 1803.71 L1376.35 1785.15 L1391.57 1767.33 L1406.79 1750.25 L1422.01 1733.92 L1437.23 1718.07 L1452.45 1702.98 L1467.67 1688.25 L1482.90 1674.02 L1498.12 1660.28 L1513.34 1646.92 L1528.56 1633.92 L1543.78 1621.30 L1559.00 1609.05 L1574.22 1597.04 L1589.44 1585.41 L1604.67 1574.15 L1619.76 1563.26 L1634.98 1552.62 L1650.21 1542.34 L1665.43 1532.32 L1680.65 1522.54 L1695.87 1513.14 L1711.09 1503.98 L1726.31 1495.07 L1741.53 1486.41 L1756.76 1478.12 L1771.98 1469.95 L1787.20 1462.15 L1802.42 1454.48 L1817.64 1447.05 L1832.86 1439.88 L1848.08 1432.95 L1863.30 1426.14 L1878.53 1419.58 L1893.75 1413.27 L1908.97 1407.08 L1924.19 1401.14 L1939.41 1395.32 L1954.63 1389.76 L1969.85 1384.31 L1984.95 1378.99 L2000.17 1373.92 L2015.39 1368.97 L2030.61 1364.14 L2045.84 1359.44 L2061.06 1354.98 L2076.28 1350.53 L2091.50 1346.32 L2106.72 1342.11 L2121.94 1338.15 L2137.16 1334.31 L2152.38 1330.48 L2167.61 1326.89 L2182.83 1323.30 L2198.05 1319.96 L2213.27 1316.62 L2228.49 1313.40 L2243.71 1310.31 L2258.93 1307.21 L2274.15 1304.24 L2289.38 1301.40 L2304.60 1298.67 L2319.82 1296.07 L2335.04 1293.48 L2350.14 1290.88 L2365.36 1288.40 L2380.58 1286.05 L2395.80 1283.82 L2411.02 1281.60 L2426.24 1279.37 L2441.46 1277.26 L2456.68 1275.28 L2471.91 1273.30 L2487.13 1271.45 L2502.35 1269.59 L2517.57 1267.73 L2532.79 1266.00 L2548.01 1264.27 L2563.23 1262.66 L2578.45 1261.05 L2593.68 1259.44 L2608.90 1257.96 L2624.12 1256.60 L2639.34 1255.11 L2654.56 1253.75 L2669.78 1252.39 L2685.00 1251.15 L2700.22 1249.91 L2715.32 1248.68 L2730.54 1247.44 L2745.76 1246.33 L2760.99 1245.21 L2776.21 1244.10 L2791.43 1242.98 L2806.65 1241.99 L2821.87 1241.00 L2837.09 1240.01 L2852.31 1239.02 L2867.53 1238.16 L2882.76 1237.29 L2897.98 1236.42 L2913.20 1235.56 L2928.42 1234.69 L2943.64 1233.95 L2958.86 1233.08 L2974.08 1232.34 L2989.30 1231.60 L3004.53 1230.86 L3019.75 1230.11 L3034.97 1229.49 L3050.19 1228.75 L3065.41 1228.13 L3080.51 1227.51 L3095.73 1226.90 L3110.95 1226.28 L3126.17 1225.66 L3141.39 1225.04 L3156.61 1224.54 L3171.84 1223.93 L3187.06 1223.43 L3202.28 1222.81 L3217.50 1222.32 L3232.72 1221.82 L3247.94 1221.33 L3263.16 1220.83 L3278.39 1220.34 L3293.61 1219.84 L3308.83 1219.35 L3324.05 1218.85 L3339.27 1218.36 L3354.49 1217.99 L3369.71 1217.49 L3384.93 1217.00 L3400.16 1216.62 L3415.38 1216.25 L3430.47 1215.76 L3445.70 1215.39 L3460.92 1214.89 L3476.14 1214.52 L3491.36 1214.15 L3506.58 1213.65 L3521.80 1213.28 L3537.02 1212.91 L3552.24 1212.54 L3567.47 1212.17 L3582.69 1211.80 L3597.91 1211.30 L3613.13 1210.93 L3628.35 1210.56 L3643.57 1210.19 L3658.79 1209.82 L3674.01 1209.45 L3689.24 1209.08 L3704.46 1208.70 L3719.68 1208.33 L3734.90 1207.96 L3750.12 1207.59 L3765.34 1207.22 L3780.56 1206.85 L3795.66 1206.48 L3795.66 305.05 L3780.56 305.67 L3765.34 306.29 L3750.12 306.91 L3734.90 307.53 L3719.68 308.15 L3704.46 308.77 L3689.24 309.51 L3674.01 310.13 L3658.79 310.75 L3643.57 311.36 L3628.35 312.11 L3613.13 312.73 L3597.91 313.34 L3582.69 314.09 L3567.47 314.71 L3552.24 315.32 L3537.02 316.07 L3521.80 316.69 L3506.58 317.43 L3491.36 318.05 L3476.14 318.79 L3460.92 319.41 L3445.70 320.15 L3430.47 320.89 L3415.38 321.51 L3400.16 322.26 L3384.93 323.00 L3369.71 323.74 L3354.49 324.48 L3339.27 325.23 L3324.05 326.09 L3308.83 326.83 L3293.61 327.58 L3278.39 328.44 L3263.16 329.19 L3247.94 330.05 L3232.72 330.92 L3217.50 331.78 L3202.28 332.65 L3187.06 333.52 L3171.84 334.38 L3156.61 335.37 L3141.39 336.36 L3126.17 337.35 L3110.95 338.34 L3095.73 339.33 L3080.51 340.32 L3065.41 341.44 L3050.19 342.43 L3034.97 343.54 L3019.75 344.78 L3004.53 345.89 L2989.30 347.13 L2974.08 348.37 L2958.86 349.60 L2943.64 350.84 L2928.42 352.20 L2913.20 353.56 L2897.98 354.93 L2882.76 356.41 L2867.53 357.90 L2852.31 359.38 L2837.09 360.99 L2821.87 362.60 L2806.65 364.21 L2791.43 365.94 L2776.21 367.67 L2760.99 369.41 L2745.76 371.26 L2730.54 373.24 L2715.32 375.22 L2700.22 377.20 L2685.00 379.31 L2669.78 381.41 L2654.56 383.64 L2639.34 385.99 L2624.12 388.34 L2608.90 390.69 L2593.68 393.29 L2578.45 395.76 L2563.23 398.49 L2548.01 401.21 L2532.79 404.06 L2517.57 407.03 L2502.35 410.00 L2487.13 413.09 L2471.91 416.31 L2456.68 419.53 L2441.46 422.99 L2426.24 426.46 L2411.02 430.04 L2395.80 433.88 L2380.58 437.72 L2365.36 441.68 L2350.14 445.76 L2335.04 449.97 L2319.82 454.30 L2304.60 458.88 L2289.38 463.46 L2274.15 468.28 L2258.93 473.23 L2243.71 478.31 L2228.49 483.51 L2213.27 488.95 L2198.05 494.52 L2182.83 500.34 L2167.61 506.28 L2152.38 512.46 L2137.16 518.78 L2121.94 525.34 L2106.72 532.02 L2091.50 538.95 L2076.28 546.13 L2061.06 553.55 L2045.84 561.10 L2030.61 568.90 L2015.39 577.06 L2000.17 585.36 L1984.95 594.02 L1969.85 602.81 L1954.63 611.96 L1939.41 621.37 L1924.19 631.14 L1908.97 641.05 L1893.75 651.44 L1878.53 661.96 L1863.30 672.97 L1848.08 684.24 L1832.86 695.87 L1817.64 707.75 L1802.42 720.12 L1787.20 732.75 L1771.98 745.74 L1756.76 759.23 L1741.53 773.09 L1726.31 787.20 L1711.09 801.93 L1695.87 816.90 L1680.65 832.37 L1665.43 848.33 L1650.21 864.67 L1634.98 881.50 L1619.76 898.82 L1604.67 916.52 L1589.44 934.84 L1574.22 953.52 L1559.00 972.83 L1543.78 992.51 L1528.56 1012.80 L1513.34 1033.59 L1498.12 1054.88 L1482.90 1076.66 L1467.67 1099.18 L1452.45 1122.32 L1437.23 1146.46 L1422.01 1171.45 L1406.79 1197.57 L1391.57 1224.79 L1376.35 1253.38 L1361.13 1283.33 L1345.90 1314.88 L1330.68 1347.93 L1315.46 1382.70 L1300.24 1419.21 L1285.02 1457.45 L1269.80 1497.55 L1254.70 1539.37 L1239.48 1582.94 L1224.26 1628.11 L1209.04 1674.64 L1193.82 1722.28 L1178.60 1770.92 L1163.37 1819.92 L1148.15 1868.68 L1132.93 1916.70 L1117.71 1963.48 L1102.49 2008.65 L1087.27 2051.72 L1072.05 2092.55 L1056.83 2130.79 L1041.60 2166.56 L1026.38 2199.48 L1011.16 2229.67 L995.94 2257.15 L980.72 2281.90 L965.50 2304.17 L950.28 2323.97 L935.05 2341.30 L919.83 2356.40 L904.61 2369.52 L889.51 2380.65 L874.29 2390.06 L859.07 2397.85 L843.85 2404.29 L828.63 2409.49 L813.41 2413.70 L798.19 2416.91 L782.97 2419.51 L767.75 2421.37 L752.52 2422.85 L737.30 2423.97 L722.08 2424.59 L706.86 2425.08 L691.64 2425.45 L676.42 2425.70 L661.20 2425.82 L645.98 2425.82 L630.75 2425.82 L615.53 2425.82 L600.31 2425.82 L600.31 2425.82 Z" stroke-linejoin="round"/>
	</defs>
	<defs>
		<clipPath id="clipPath_hpjnrRDB">
			<use xlink:href="#path_GblMkzLY"/>
		</clipPath>
	</defs>
	<use xlink:href="#path_GblMkzLY" style="stroke:none;fill:#3333FF;fill-opacity:0.25"/>
	<use xlink:href="#path_GblMkzLY" style="fill:none;stroke:#0000FF;stroke-opacity:0.25;stroke-width:17.28" clip-path="url(#clipPath_hpjnrRDB)"/>
	<defs>
		<path id="path_TEChukHP" d="M600.31 2425.82 L600.31 2425.82 L615.53 2425.82 L630.75 2425.82 L645.98 2425.82 L661.20 2425.82 L676.42 2425.82 L691.64 2425.82 L706.86 2425.82 L722.08 2425.82 L737.30 2425.82 L752.52 2425.82 L767.75 2425.70 L782.97 2425.70 L798.19 2425.58 L813.41 2425.33 L828.63 2424.96 L843.85 2424.46 L859.07 2423.72 L874.29 2422.61 L889.51 2421.00 L904.61 2418.89 L919.83 2416.05 L935.05 2412.21 L950.28 2407.38 L965.50 2401.32 L980.72 2393.89 L995.94 2384.98 L1011.16 2374.47 L1026.38 2362.34 L1041.60 2348.72 L1056.83 2333.50 L1072.05 2316.80 L1087.27 2298.73 L1102.49 2279.55 L1117.71 2259.62 L1132.93 2238.83 L1148.15 2217.67 L1163.37 2196.26 L1178.60 2174.97 L1193.82 2153.69 L1209.04 2132.90 L1224.26 2112.60 L1239.48 2092.80 L1254.70 2073.50 L1269.80 2054.93 L1285.02 2036.86 L1300.24 2019.42 L1315.46 2002.71 L1330.68 1986.50 L1345.90 1971.03 L1361.13 1956.05 L1376.35 1941.70 L1391.57 1927.84 L1406.79 1914.60 L1422.01 1901.85 L1437.23 1889.47 L1452.45 1877.72 L1467.67 1866.21 L1482.90 1855.07 L1498.12 1844.43 L1513.34 1833.91 L1528.56 1823.76 L1543.78 1813.86 L1559.00 1804.33 L1574.22 1794.93 L1589.44 1785.89 L1604.67 1777.11 L1619.76 1768.57 L1634.98 1760.28 L1650.21 1752.23 L1665.43 1744.43 L1680.65 1736.89 L1695.87 1729.58 L1711.09 1722.41 L1726.31 1715.60 L1741.53 1708.79 L1756.76 1702.36 L1771.98 1696.05 L1787.20 1689.98 L1802.42 1684.04 L1817.64 1678.23 L1832.86 1672.66 L1848.08 1667.34 L1863.30 1662.01 L1878.53 1656.94 L1893.75 1652.11 L1908.97 1647.29 L1924.19 1642.71 L1939.41 1638.13 L1954.63 1633.80 L1969.85 1629.59 L1984.95 1625.51 L2000.17 1621.55 L2015.39 1617.71 L2030.61 1614.00 L2045.84 1610.41 L2061.06 1606.82 L2076.28 1603.48 L2091.50 1600.14 L2106.72 1597.04 L2121.94 1593.95 L2137.16 1590.86 L2152.38 1588.01 L2167.61 1585.16 L2182.83 1582.44 L2198.05 1579.84 L2213.27 1577.24 L2228.49 1574.77 L2243.71 1572.29 L2258.93 1569.94 L2274.15 1567.71 L2289.38 1565.49 L2304.60 1563.38 L2319.82 1561.28 L2335.04 1559.30 L2350.14 1557.32 L2365.36 1555.46 L2380.58 1553.61 L2395.80 1551.75 L2411.02 1550.02 L2426.24 1548.41 L2441.46 1546.80 L2456.68 1545.19 L2471.91 1543.71 L2487.13 1542.22 L2502.35 1540.74 L2517.57 1539.37 L2532.79 1538.01 L2548.01 1536.65 L2563.23 1535.41 L2578.45 1534.18 L2593.68 1532.94 L2608.90 1531.83 L2624.12 1530.59 L2639.34 1529.60 L2654.56 1528.48 L2669.78 1527.49 L2685.00 1526.38 L2700.22 1525.39 L2715.32 1524.52 L2730.54 1523.53 L2745.76 1522.67 L2760.99 1521.80 L2776.21 1520.94 L2791.43 1520.07 L2806.65 1519.33 L2821.87 1518.58 L2837.09 1517.84 L2852.31 1517.10 L2867.53 1516.36 L2882.76 1515.61 L2897.98 1514.99 L2913.20 1514.25 L2928.42 1513.63 L2943.64 1513.01 L2958.86 1512.40 L2974.08 1511.78 L2989.30 1511.28 L3004.53 1510.66 L3019.75 1510.17 L3034.97 1509.55 L3050.19 1509.05 L3065.41 1508.56 L3080.51 1508.06 L3095.73 1507.57 L3110.95 1507.07 L3126.17 1506.58 L3141.39 1506.08 L3156.61 1505.71 L3171.84 1505.22 L3187.06 1504.85 L3202.28 1504.35 L3217.50 1503.98 L3232.72 1503.61 L3247.94 1503.24 L3263.16 1502.74 L3278.39 1502.37 L3293.61 1502.00 L3308.83 1501.63 L3324.05 1501.26 L3339.27 1500.89 L3354.49 1500.64 L3369.71 1500.27 L3384.93 1499.90 L3400.16 1499.53 L3415.38 1499.28 L3430.47 1498.91 L3445.70 1498.54 L3460.92 1498.29 L3476.14 1497.92 L3491.36 1497.67 L3506.58 1497.30 L3521.80 1497.05 L3537.02 1496.68 L3552.24 1496.43 L3567.47 1496.06 L3582.69 1495.81 L3597.91 1495.44 L3613.13 1495.19 L3628.35 1494.95 L3643.57 1494.58 L3658.79 1494.33 L3674.01 1494.08 L3689.24 1493.71 L3704.46 1493.46 L3719.68 1493.21 L3734.90 1492.84 L3750.12 1492.60 L3765.34 1492.35 L3780.56 1492.10 L3795.66 1491.73 L3795.66 1105.37 L3780.56 1105.74 L3765.34 1106.11 L3750.12 1106.48 L3734.90 1106.98 L3719.68 1107.35 L3704.46 1107.72 L3689.24 1108.09 L3674.01 1108.59 L3658.79 1108.96 L3643.57 1109.33 L3628.35 1109.70 L3613.13 1110.20 L3597.91 1110.57 L3582.69 1110.94 L3567.47 1111.43 L3552.24 1111.80 L3537.02 1112.18 L3521.80 1112.67 L3506.58 1113.04 L3491.36 1113.54 L3476.14 1113.91 L3460.92 1114.28 L3445.70 1114.77 L3430.47 1115.15 L3415.38 1115.64 L3400.16 1116.14 L3384.93 1116.51 L3369.71 1117.00 L3354.49 1117.50 L3339.27 1117.87 L3324.05 1118.36 L3308.83 1118.86 L3293.61 1119.35 L3278.39 1119.85 L3263.16 1120.34 L3247.94 1120.84 L3232.72 1121.33 L3217.50 1121.95 L3202.28 1122.45 L3187.06 1123.07 L3171.84 1123.56 L3156.61 1124.18 L3141.39 1124.68 L3126.17 1125.29 L3110.95 1125.91 L3095.73 1126.53 L3080.51 1127.15 L3065.41 1127.89 L3050.19 1128.51 L3034.97 1129.13 L3019.75 1129.87 L3004.53 1130.62 L2989.30 1131.36 L2974.08 1132.10 L2958.86 1132.84 L2943.64 1133.71 L2928.42 1134.45 L2913.20 1135.32 L2897.98 1136.18 L2882.76 1137.05 L2867.53 1137.92 L2852.31 1138.91 L2837.09 1139.90 L2821.87 1140.89 L2806.65 1141.88 L2791.43 1142.87 L2776.21 1143.98 L2760.99 1145.09 L2745.76 1146.21 L2730.54 1147.45 L2715.32 1148.56 L2700.22 1149.92 L2685.00 1151.16 L2669.78 1152.52 L2654.56 1153.88 L2639.34 1155.24 L2624.12 1156.73 L2608.90 1158.21 L2593.68 1159.70 L2578.45 1161.31 L2563.23 1162.92 L2548.01 1164.65 L2532.79 1166.38 L2517.57 1168.24 L2502.35 1170.09 L2487.13 1171.95 L2471.91 1173.93 L2456.68 1176.03 L2441.46 1178.01 L2426.24 1180.24 L2411.02 1182.47 L2395.80 1184.82 L2380.58 1187.17 L2365.36 1189.65 L2350.14 1192.12 L2335.04 1194.72 L2319.82 1197.44 L2304.60 1200.29 L2289.38 1203.14 L2274.15 1206.11 L2258.93 1209.08 L2243.71 1212.29 L2228.49 1215.51 L2213.27 1218.85 L2198.05 1222.32 L2182.83 1225.91 L2167.61 1229.62 L2152.38 1233.33 L2137.16 1237.29 L2121.94 1241.38 L2106.72 1245.46 L2091.50 1249.79 L2076.28 1254.25 L2061.06 1258.82 L2045.84 1263.53 L2030.61 1268.35 L2015.39 1273.30 L2000.17 1278.50 L1984.95 1283.82 L1969.85 1289.27 L1954.63 1294.96 L1939.41 1300.78 L1924.19 1306.72 L1908.97 1312.90 L1893.75 1319.22 L1878.53 1325.78 L1863.30 1332.58 L1848.08 1339.51 L1832.86 1346.69 L1817.64 1353.99 L1802.42 1361.66 L1787.20 1369.46 L1771.98 1377.50 L1756.76 1385.67 L1741.53 1394.21 L1726.31 1403.00 L1711.09 1411.91 L1695.87 1421.19 L1680.65 1430.72 L1665.43 1440.37 L1650.21 1450.40 L1634.98 1460.79 L1619.76 1471.31 L1604.67 1482.20 L1589.44 1493.34 L1574.22 1504.85 L1559.00 1516.48 L1543.78 1528.61 L1528.56 1540.86 L1513.34 1553.61 L1498.12 1566.60 L1482.90 1579.84 L1467.67 1593.45 L1452.45 1607.69 L1437.23 1622.29 L1422.01 1637.51 L1406.79 1653.48 L1391.57 1670.06 L1376.35 1687.63 L1361.13 1705.95 L1345.90 1725.25 L1330.68 1745.67 L1315.46 1767.21 L1300.24 1789.73 L1285.02 1813.49 L1269.80 1838.36 L1254.70 1864.48 L1239.48 1891.58 L1224.26 1919.67 L1209.04 1948.75 L1193.82 1978.58 L1178.60 2009.02 L1163.37 2039.71 L1148.15 2070.15 L1132.93 2100.10 L1117.71 2129.43 L1102.49 2157.65 L1087.27 2184.63 L1072.05 2210.24 L1056.83 2234.38 L1041.60 2256.90 L1026.38 2277.81 L1011.16 2297.12 L995.94 2314.69 L980.72 2330.78 L965.50 2345.14 L950.28 2358.01 L935.05 2369.39 L919.83 2379.42 L904.61 2388.08 L889.51 2395.50 L874.29 2401.82 L859.07 2407.01 L843.85 2411.34 L828.63 2414.81 L813.41 2417.66 L798.19 2419.76 L782.97 2421.49 L767.75 2422.85 L752.52 2423.84 L737.30 2424.59 L722.08 2425.08 L706.86 2425.33 L691.64 2425.58 L676.42 2425.70 L661.20 2425.82 L645.98 2425.82 L630.75 2425.82 L615.53 2425.82 L600.31 2425.82 L600.31 2425.82 Z" stroke-linejoin="round"/>
	</defs>
	<defs>
		<clipPath id="clipPath_QFhzUkDc">
			<use xlink:href="#path_TEChukHP"/>
		</clipPath>
	</defs>
	<use xlink:href="#path_TEChukHP" style="stroke:none;fill:#FF3333;fill-opacity:0.25"/>
	<use xlink:href="#path_TEChukHP" style="fill:none;stroke:#FF0000;stroke-opacity:0.25;stroke-width:17.28" clip-path="url(#clipPath_QFhzUkDc)"/>
	<path d=" M585.09 2425.95 L600.31 2425.95 L615.53 2425.95 L630.75 2425.95 L645.98 2425.95 L661.20 2425.95 L676.42 2425.95 L691.64 2425.82 L706.86 2425.82 L721.96 2425.82 L737.18 2425.70 L752.40 2425.45 L767.62 2425.20 L782.84 2424.71 L798.06 2423.97 L813.28 2422.98 L828.51 2421.49 L843.73 2419.51 L858.95 2416.79 L874.17 2413.08 L889.39 2408.37 L904.61 2402.31 L919.83 2394.88 L935.05 2385.60 L950.28 2374.47 L965.50 2361.35 L980.72 2345.88 L995.94 2328.06 L1011.16 2307.89 L1026.38 2285.24 L1041.60 2260.24 L1056.83 2232.89 L1072.05 2203.31 L1087.14 2171.76 L1102.37 2138.47 L1117.59 2103.69 L1132.81 2067.80 L1148.03 2031.17 L1163.25 1993.92 L1178.47 1956.80 L1193.69 1919.92 L1208.91 1883.66 L1224.13 1848.39 L1239.36 1814.11 L1254.58 1780.94 L1269.80 1749.01 L1285.02 1718.20 L1300.24 1688.62 L1315.46 1660.41 L1330.68 1633.30 L1345.90 1607.56 L1361.13 1582.81 L1376.35 1559.17 L1391.57 1536.65 L1406.79 1514.99 L1422.01 1494.20 L1437.23 1474.40 L1452.33 1455.22 L1467.55 1436.66 L1482.77 1418.84 L1497.99 1401.39 L1513.21 1384.56 L1528.44 1368.10 L1543.66 1352.01 L1558.88 1336.42 L1574.10 1321.32 L1589.32 1306.47 L1604.54 1292.11 L1619.76 1278.25 L1634.98 1264.64 L1650.21 1251.40 L1665.43 1238.65 L1680.65 1226.15 L1695.87 1214.15 L1711.09 1202.39 L1726.31 1190.88 L1741.53 1179.87 L1756.76 1169.10 L1771.98 1158.71 L1787.20 1148.56 L1802.30 1138.66 L1817.52 1129.13 L1832.74 1119.85 L1847.96 1110.94 L1863.18 1102.15 L1878.40 1093.74 L1893.62 1085.45 L1908.84 1077.52 L1924.07 1069.73 L1939.29 1062.30 L1954.51 1055.00 L1969.73 1047.95 L1984.95 1041.14 L2000.17 1034.46 L2015.39 1028.02 L2030.61 1021.84 L2045.84 1015.77 L2061.06 1009.83 L2076.28 1004.14 L2091.50 998.69 L2106.72 993.37 L2121.94 988.17 L2137.16 983.10 L2152.38 978.27 L2167.48 973.45 L2182.70 968.87 L2197.92 964.41 L2213.14 960.21 L2228.37 956.00 L2243.59 951.91 L2258.81 947.95 L2274.03 944.24 L2289.25 940.53 L2304.47 936.94 L2319.69 933.48 L2334.91 930.13 L2350.14 926.79 L2365.36 923.70 L2380.58 920.61 L2395.80 917.63 L2411.02 914.66 L2426.24 911.94 L2441.46 909.22 L2456.68 906.62 L2471.91 904.02 L2487.13 901.55 L2502.35 899.20 L2517.57 896.84 L2532.67 894.62 L2547.89 892.39 L2563.11 890.29 L2578.33 888.18 L2593.55 886.20 L2608.77 884.22 L2623.99 882.37 L2639.22 880.51 L2654.44 878.78 L2669.66 877.04 L2684.88 875.43 L2700.10 873.70 L2715.32 872.22 L2730.54 870.61 L2745.76 869.12 L2760.99 867.76 L2776.21 866.28 L2791.43 864.92 L2806.65 863.68 L2821.87 862.32 L2837.09 861.08 L2852.31 859.84 L2867.53 858.73 L2882.76 857.49 L2897.85 856.38 L2913.07 855.39 L2928.30 854.27 L2943.52 853.28 L2958.74 852.29 L2973.96 851.30 L2989.18 850.31 L3004.40 849.32 L3019.62 848.46 L3034.84 847.59 L3050.07 846.72 L3065.29 845.86 L3080.51 844.99 L3095.73 844.25 L3110.95 843.38 L3126.17 842.64 L3141.39 841.90 L3156.61 841.16 L3171.84 840.41 L3187.06 839.79 L3202.28 839.05 L3217.50 838.31 L3232.72 837.69 L3247.94 837.07 L3263.04 836.33 L3278.26 835.71 L3293.48 835.09 L3308.70 834.47 L3323.93 833.85 L3339.15 833.36 L3354.37 832.74 L3369.59 832.12 L3384.81 831.63 L3400.03 831.01 L3415.25 830.51 L3430.47 829.89 L3445.70 829.40 L3460.92 828.78 L3476.14 828.28 L3491.36 827.79 L3506.58 827.29 L3521.80 826.68 L3537.02 826.18 L3552.24 825.69 L3567.47 825.19 L3582.69 824.70 L3597.91 824.20 L3613.01 823.71 L3628.23 823.21 L3643.45 822.72 L3658.67 822.22 L3673.89 821.73 L3689.11 821.23 L3704.33 820.74 L3719.55 820.24 L3734.78 819.75 L3750.00 819.25 L3765.22 818.76 L3780.44 818.26 L3795.66 817.77" stroke-linejoin="round" style="fill:none;stroke:#0000FF;stroke-width:8.64"/>
	<path d=" M585.09 2425.95 L600.31 2425.95 L615.53 2425.95 L630.75 2425.95 L645.98 2425.95 L661.20 2425.95 L676.42 2425.95 L691.64 2425.95 L706.86 2425.82 L721.96 2425.82 L737.18 2425.70 L752.40 2425.58 L767.62 2425.45 L782.84 2425.08 L798.06 2424.59 L813.28 2423.84 L828.51 2422.85 L843.73 2421.49 L858.95 2419.64 L874.17 2417.04 L889.39 2413.82 L904.61 2409.74 L919.83 2404.54 L935.05 2398.10 L950.28 2390.55 L965.50 2381.40 L980.72 2370.75 L995.94 2358.50 L1011.16 2344.64 L1026.38 2329.05 L1041.60 2311.72 L1056.83 2292.91 L1072.05 2272.49 L1087.14 2250.84 L1102.37 2227.82 L1117.59 2203.93 L1132.81 2179.06 L1148.03 2153.81 L1163.25 2128.20 L1178.47 2102.45 L1193.69 2077.08 L1208.91 2052.09 L1224.13 2027.71 L1239.36 2004.07 L1254.58 1981.18 L1269.80 1959.02 L1285.02 1937.86 L1300.24 1917.44 L1315.46 1897.89 L1330.68 1879.33 L1345.90 1861.38 L1361.13 1844.30 L1376.35 1828.09 L1391.57 1812.38 L1406.79 1797.52 L1422.01 1783.17 L1437.23 1769.43 L1452.33 1756.19 L1467.55 1743.44 L1482.77 1731.07 L1497.99 1719.06 L1513.21 1707.31 L1528.44 1695.92 L1543.66 1684.91 L1558.88 1674.14 L1574.10 1663.62 L1589.32 1653.48 L1604.54 1643.45 L1619.76 1633.80 L1634.98 1624.52 L1650.21 1615.36 L1665.43 1606.45 L1680.65 1597.91 L1695.87 1589.49 L1711.09 1581.45 L1726.31 1573.53 L1741.53 1565.86 L1756.76 1558.43 L1771.98 1551.13 L1787.20 1544.20 L1802.30 1537.39 L1817.52 1530.71 L1832.74 1524.40 L1847.96 1518.09 L1863.18 1512.15 L1878.40 1506.21 L1893.62 1500.52 L1908.84 1495.07 L1924.07 1489.75 L1939.29 1484.55 L1954.51 1479.48 L1969.73 1474.65 L1984.95 1469.82 L2000.17 1465.25 L2015.39 1460.79 L2030.61 1456.46 L2045.84 1452.38 L2061.06 1448.29 L2076.28 1444.33 L2091.50 1440.50 L2106.72 1436.78 L2121.94 1433.19 L2137.16 1429.73 L2152.38 1426.39 L2167.48 1423.05 L2182.70 1419.95 L2197.92 1416.86 L2213.14 1413.89 L2228.37 1410.92 L2243.59 1408.20 L2258.81 1405.47 L2274.03 1402.75 L2289.25 1400.28 L2304.47 1397.80 L2319.69 1395.32 L2334.91 1392.97 L2350.14 1390.75 L2365.36 1388.52 L2380.58 1386.41 L2395.80 1384.43 L2411.02 1382.45 L2426.24 1380.47 L2441.46 1378.62 L2456.68 1376.76 L2471.91 1375.03 L2487.13 1373.30 L2502.35 1371.56 L2517.57 1369.96 L2532.67 1368.47 L2547.89 1366.99 L2563.11 1365.50 L2578.33 1364.02 L2593.55 1362.65 L2608.77 1361.29 L2623.99 1360.06 L2639.22 1358.69 L2654.44 1357.46 L2669.66 1356.34 L2684.88 1355.10 L2700.10 1353.99 L2715.32 1353.00 L2730.54 1351.89 L2745.76 1350.90 L2760.99 1349.91 L2776.21 1348.92 L2791.43 1347.93 L2806.65 1347.06 L2821.87 1346.19 L2837.09 1345.33 L2852.31 1344.46 L2867.53 1343.60 L2882.76 1342.85 L2897.85 1341.99 L2913.07 1341.24 L2928.30 1340.50 L2943.52 1339.88 L2958.74 1339.14 L2973.96 1338.52 L2989.18 1337.78 L3004.40 1337.16 L3019.62 1336.54 L3034.84 1335.92 L3050.07 1335.30 L3065.29 1334.69 L3080.51 1334.19 L3095.73 1333.57 L3110.95 1333.08 L3126.17 1332.46 L3141.39 1331.96 L3156.61 1331.47 L3171.84 1330.97 L3187.06 1330.48 L3202.28 1329.98 L3217.50 1329.49 L3232.72 1329.12 L3247.94 1328.62 L3263.04 1328.13 L3278.26 1327.76 L3293.48 1327.26 L3308.70 1326.89 L3323.93 1326.52 L3339.15 1326.02 L3354.37 1325.65 L3369.59 1325.28 L3384.81 1324.79 L3400.03 1324.41 L3415.25 1324.04 L3430.47 1323.67 L3445.70 1323.30 L3460.92 1322.93 L3476.14 1322.56 L3491.36 1322.19 L3506.58 1321.82 L3521.80 1321.44 L3537.02 1321.07 L3552.24 1320.70 L3567.47 1320.45 L3582.69 1320.08 L3597.91 1319.71 L3613.01 1319.34 L3628.23 1318.97 L3643.45 1318.72 L3658.67 1318.35 L3673.89 1317.98 L3689.11 1317.61 L3704.33 1317.36 L3719.55 1316.99 L3734.78 1316.62 L3750.00 1316.25 L3765.22 1316.00 L3780.44 1315.63 L3795.66 1315.26" stroke-linejoin="round" style="fill:none;stroke:#FF0000;stroke-width:8.64"/>
	<line x1="521.73" y1="2489.19" x2="521.73" y2="100.86" style="stroke:#000000;stroke-width:5.76"/>
	<line x1="521.73" y1="2425.82" x2="481.76" y2="2425.82" style="stroke:#000000;stroke-width:5.76"/>
	<text x="461.83" y="2460.85" style="font-family:'Helvetica';font-size:99.99px;fill:#000000" text-anchor="end">0.00</text>
	<line x1="521.73" y1="1973.50" x2="481.76" y2="1973.50" style="stroke:#000000;stroke-width:5.76"/>
	<text x="461.83" y="2008.53" style="font-family:'Helvetica';font-size:99.99px;fill:#000000" text-anchor="end">0.10</text>
	<line x1="521.73" y1="1521.18" x2="481.76" y2="1521.18" style="stroke:#000000;stroke-width:5.76"/>
	<text x="461.83" y="1556.21" style="font-family:'Helvetica';font-size:99.99px;fill:#000000" text-anchor="end">0.20</text>
	<line x1="521.73" y1="1068.86" x2="481.76" y2="1068.86" style="stroke:#000000;stroke-width:5.76"/>
	<text x="461.83" y="1103.89" style="font-family:'Helvetica';font-size:99.99px;fill:#000000" text-anchor="end">0.30</text>
	<line x1="521.73" y1="616.54" x2="481.76" y2="616.54" style="stroke:#000000;stroke-width:5.76"/>
	<text x="461.83" y="651.57" style="font-family:'Helvetica';font-size:99.99px;fill:#000000" text-anchor="end">0.40</text>
	<line x1="521.73" y1="164.22" x2="481.76" y2="164.22" style="stroke:#000000;stroke-width:5.76"/>
	<text x="461.83" y="199.25" style="font-family:'Helvetica';font-size:99.99px;fill:#000000" text-anchor="end">0.50</text>
	<text x="190.71" y="1294.96" style="font-family:'Helvetica';font-size:99.99px;fill:#000000" transform="rotate(-90 190.71,1294.96)" text-anchor="middle">Cumulative incidence (%)</text>
	<line x1="521.73" y1="2489.19" x2="3859.02" y2="2489.19" style="stroke:#000000;stroke-width:5.76"/>
	<line x1="585.09" y1="2489.19" x2="585.09" y2="2529.16" style="stroke:#000000;stroke-width:5.76"/>
	<text x="585.09" y="2619.14" style="font-family:'Helvetica';font-size:99.99px;fill:#000000" text-anchor="middle">0</text>
	<line x1="1345.90" y1="2489.19" x2="1345.90" y2="2529.16" style="stroke:#000000;stroke-width:5.76"/>
	<text x="1345.90" y="2619.14" style="font-family:'Helvetica';font-size:99.99px;fill:#000000" text-anchor="middle">50</text>
	<line x1="2106.72" y1="2489.19" x2="2106.72" y2="2529.16" style="stroke:#000000;stroke-width:5.76"/>
	<text x="2106.72" y="2619.14" style="font-family:'Helvetica';font-size:99.99px;fill:#000000" text-anchor="middle">100</text>
	<line x1="2867.53" y1="2489.19" x2="2867.53" y2="2529.16" style="stroke:#000000;stroke-width:5.76"/>
	<text x="2867.53" y="2619.14" style="font-family:'Helvetica';font-size:99.99px;fill:#000000" text-anchor="middle">150</text>
	<line x1="3628.35" y1="2489.19" x2="3628.35" y2="2529.16" style="stroke:#000000;stroke-width:5.76"/>
	<text x="3628.35" y="2619.14" style="font-family:'Helvetica';font-size:99.99px;fill:#000000" text-anchor="middle">200</text>
	<text x="2190.38" y="2729.16" style="font-family:'Helvetica';font-size:99.99px;fill:#000000" text-anchor="middle">Days from 1 March 2020</text>
	<rect x="1933.59" y="2128.20" width="1890.90" height="326.46" style="fill:#FFFFFF"/>
	<rect x="1936.47" y="2131.08" width="1885.14" height="320.70" style="fill:none;stroke:#000000;stroke-width:5.76"/>
	<rect x="1976.78" y="2171.51" width="374.34" height="99.99" style="fill:#3333FF;fill-opacity:0.25"/>
	<rect x="1981.10" y="2175.83" width="365.70" height="91.35" style="fill:none;stroke:#0000FF;stroke-opacity:0.25;stroke-width:8.64"/>
	<rect x="1976.78" y="2311.47" width="374.34" height="99.99" style="fill:#FF3333;fill-opacity:0.25"/>
	<rect x="1981.10" y="2315.79" width="365.70" height="91.35" style="fill:none;stroke:#FF0000;stroke-opacity:0.25;stroke-width:8.64"/>
	<text x="2411.14" y="2256.53" style="font-family:'Helvetica';font-size:99.99px;fill:#000000">Non-current anticoagulant use</text>
	<text x="2411.14" y="2396.50" style="font-family:'Helvetica';font-size:99.99px;fill:#000000">Current anticoagulant use</text>
</svg>
