<?xml version="1.0" encoding="UTF-8" standalone="no"?>
<!-- This is a Stata 16.1 generated SVG file (http://www.stata.com) -->

<svg version="1.1" width="5.50in" height="4.00in" viewBox="0 0 3960 2880" xmlns="http://www.w3.org/2000/svg" xmlns:xlink="http://www.w3.org/1999/xlink">
	<desc>Stata Graph - Graph</desc>
	<rect x="0" y="0" width="3960" height="2880" style="fill:#EAF2F3;stroke:none"/>
	<rect x="0.00" y="0.00" width="3959.88" height="2880.00" style="fill:#EAF2F3"/>
	<rect x="2.88" y="2.88" width="3954.12" height="2874.24" style="fill:none;stroke:#EAF2F3;stroke-width:5.76"/>
	<rect x="521.73" y="100.86" width="3337.29" height="2388.33" style="fill:#FFFFFF"/>
	<rect x="524.61" y="103.74" width="3331.53" height="2382.57" style="fill:none;stroke:#FFFFFF;stroke-width:5.76"/>
	<line x1="521.73" y1="2425.82" x2="3859.02" y2="2425.82" style="stroke:#EAF2F3;stroke-width:8.64"/>
	<line x1="521.73" y1="1976.60" x2="3859.02" y2="1976.60" style="stroke:#EAF2F3;stroke-width:8.64"/>
	<line x1="521.73" y1="1527.37" x2="3859.02" y2="1527.37" style="stroke:#EAF2F3;stroke-width:8.64"/>
	<line x1="521.73" y1="1078.14" x2="3859.02" y2="1078.14" style="stroke:#EAF2F3;stroke-width:8.64"/>
	<line x1="521.73" y1="629.04" x2="3859.02" y2="629.04" style="stroke:#EAF2F3;stroke-width:8.64"/>
	<line x1="521.73" y1="179.81" x2="3859.02" y2="179.81" style="stroke:#EAF2F3;stroke-width:8.64"/>
	<defs>
		<path id="path_xEAfBzMs" d="M600.31 2425.82 L600.31 2425.82 L615.53 2425.82 L630.75 2425.70 L645.98 2425.45 L661.20 2424.96 L676.42 2423.97 L691.64 2422.36 L706.86 2420.13 L722.08 2417.16 L737.30 2413.08 L752.52 2408.00 L767.75 2401.82 L782.97 2394.39 L798.19 2385.85 L813.41 2376.07 L828.63 2365.06 L843.85 2352.81 L859.07 2339.44 L874.29 2324.96 L889.51 2309.37 L904.61 2292.91 L919.83 2275.46 L935.05 2257.27 L950.28 2238.34 L965.50 2218.78 L980.72 2198.61 L995.94 2177.94 L1011.16 2156.91 L1026.38 2135.50 L1041.60 2113.84 L1056.83 2092.06 L1072.05 2070.15 L1087.27 2048.25 L1102.49 2026.35 L1117.71 2004.44 L1132.93 1982.78 L1148.15 1961.25 L1163.37 1939.97 L1178.60 1918.93 L1193.82 1898.26 L1209.04 1877.96 L1224.26 1857.92 L1239.48 1838.36 L1254.70 1819.06 L1269.80 1800.25 L1285.02 1781.81 L1300.24 1763.74 L1315.46 1746.04 L1330.68 1728.84 L1345.90 1712.01 L1361.13 1695.55 L1376.35 1679.46 L1391.57 1663.87 L1406.79 1648.65 L1422.01 1633.67 L1437.23 1619.20 L1452.45 1605.09 L1467.67 1591.35 L1482.90 1577.86 L1498.12 1564.87 L1513.34 1552.12 L1528.56 1539.75 L1543.78 1527.74 L1559.00 1515.98 L1574.22 1504.60 L1589.44 1493.46 L1604.67 1482.70 L1619.76 1472.18 L1634.98 1462.03 L1650.21 1452.13 L1665.43 1442.35 L1680.65 1432.95 L1695.87 1423.91 L1711.09 1415.00 L1726.31 1406.34 L1741.53 1397.92 L1756.76 1389.76 L1771.98 1381.84 L1787.20 1374.04 L1802.42 1366.49 L1817.64 1359.19 L1832.86 1352.13 L1848.08 1345.20 L1863.30 1338.52 L1878.53 1331.96 L1893.75 1325.53 L1908.97 1319.46 L1924.19 1313.40 L1939.41 1307.58 L1954.63 1301.89 L1969.85 1296.32 L1984.95 1290.88 L2000.17 1285.68 L2015.39 1280.61 L2030.61 1275.65 L2045.84 1270.83 L2061.06 1266.13 L2076.28 1261.55 L2091.50 1257.09 L2106.72 1252.76 L2121.94 1248.55 L2137.16 1244.47 L2152.38 1240.51 L2167.61 1236.67 L2182.83 1232.84 L2198.05 1229.25 L2213.27 1225.66 L2228.49 1222.19 L2243.71 1218.73 L2258.93 1215.51 L2274.15 1212.29 L2289.38 1209.08 L2304.60 1206.11 L2319.82 1203.14 L2335.04 1200.17 L2350.14 1197.44 L2365.36 1194.60 L2380.58 1192.00 L2395.80 1189.40 L2411.02 1186.80 L2426.24 1184.32 L2441.46 1181.97 L2456.68 1179.62 L2471.91 1177.27 L2487.13 1175.04 L2502.35 1172.94 L2517.57 1170.84 L2532.79 1168.73 L2548.01 1166.75 L2563.23 1164.77 L2578.45 1162.79 L2593.68 1160.94 L2608.90 1159.08 L2624.12 1157.35 L2639.34 1155.61 L2654.56 1153.88 L2669.78 1152.27 L2685.00 1150.66 L2700.22 1149.05 L2715.32 1147.45 L2730.54 1145.96 L2745.76 1144.48 L2760.99 1143.11 L2776.21 1141.63 L2791.43 1140.27 L2806.65 1138.91 L2821.87 1137.55 L2837.09 1136.31 L2852.31 1135.07 L2867.53 1133.83 L2882.76 1132.60 L2897.98 1131.48 L2913.20 1130.24 L2928.42 1129.13 L2943.64 1128.02 L2958.86 1126.90 L2974.08 1125.91 L2989.30 1124.80 L3004.53 1123.81 L3019.75 1122.82 L3034.97 1121.83 L3050.19 1120.84 L3065.41 1119.97 L3080.51 1118.98 L3095.73 1118.12 L3110.95 1117.13 L3126.17 1116.26 L3141.39 1115.39 L3156.61 1114.53 L3171.84 1113.78 L3187.06 1112.92 L3202.28 1112.05 L3217.50 1111.31 L3232.72 1110.57 L3247.94 1109.70 L3263.16 1108.96 L3278.39 1108.22 L3293.61 1107.47 L3308.83 1106.73 L3324.05 1106.11 L3339.27 1105.37 L3354.49 1104.63 L3369.71 1104.01 L3384.93 1103.27 L3400.16 1102.65 L3415.38 1101.90 L3430.47 1101.29 L3445.70 1100.67 L3460.92 1099.92 L3476.14 1099.31 L3491.36 1098.69 L3506.58 1098.07 L3521.80 1097.45 L3537.02 1096.83 L3552.24 1096.21 L3567.47 1095.59 L3582.69 1095.10 L3597.91 1094.48 L3613.13 1093.86 L3628.35 1093.24 L3643.57 1092.75 L3658.79 1092.13 L3674.01 1091.51 L3689.24 1091.01 L3704.46 1090.40 L3719.68 1089.90 L3734.90 1089.28 L3750.12 1088.79 L3765.34 1088.17 L3780.56 1087.67 L3795.66 1087.05 L3795.66 164.22 L3780.56 165.09 L3765.34 166.08 L3750.12 166.94 L3734.90 167.93 L3719.68 168.80 L3704.46 169.79 L3689.24 170.78 L3674.01 171.65 L3658.79 172.64 L3643.57 173.63 L3628.35 174.62 L3613.13 175.61 L3597.91 176.60 L3582.69 177.59 L3567.47 178.58 L3552.24 179.57 L3537.02 180.56 L3521.80 181.55 L3506.58 182.66 L3491.36 183.65 L3476.14 184.64 L3460.92 185.75 L3445.70 186.87 L3430.47 187.86 L3415.38 188.97 L3400.16 190.09 L3384.93 191.20 L3369.71 192.31 L3354.49 193.43 L3339.27 194.54 L3324.05 195.78 L3308.83 196.89 L3293.61 198.13 L3278.39 199.37 L3263.16 200.61 L3247.94 201.84 L3232.72 203.08 L3217.50 204.32 L3202.28 205.68 L3187.06 207.04 L3171.84 208.28 L3156.61 209.64 L3141.39 211.12 L3126.17 212.49 L3110.95 213.97 L3095.73 215.33 L3080.51 216.82 L3065.41 218.43 L3050.19 219.91 L3034.97 221.52 L3019.75 223.13 L3004.53 224.74 L2989.30 226.35 L2974.08 228.08 L2958.86 229.81 L2943.64 231.54 L2928.42 233.40 L2913.20 235.26 L2897.98 237.11 L2882.76 238.97 L2867.53 240.95 L2852.31 242.93 L2837.09 245.03 L2821.87 247.14 L2806.65 249.24 L2791.43 251.34 L2776.21 253.57 L2760.99 255.92 L2745.76 258.27 L2730.54 260.63 L2715.32 263.10 L2700.22 265.58 L2685.00 268.17 L2669.78 270.77 L2654.56 273.50 L2639.34 276.22 L2624.12 279.06 L2608.90 282.04 L2593.68 285.01 L2578.45 287.98 L2563.23 291.07 L2548.01 294.29 L2532.79 297.63 L2517.57 300.97 L2502.35 304.43 L2487.13 307.90 L2471.91 311.61 L2456.68 315.32 L2441.46 319.16 L2426.24 323.12 L2411.02 327.08 L2395.80 331.29 L2380.58 335.50 L2365.36 339.83 L2350.14 344.28 L2335.04 348.86 L2319.82 353.69 L2304.60 358.51 L2289.38 363.47 L2274.15 368.54 L2258.93 373.86 L2243.71 379.18 L2228.49 384.75 L2213.27 390.44 L2198.05 396.38 L2182.83 402.32 L2167.61 408.51 L2152.38 414.95 L2137.16 421.38 L2121.94 428.19 L2106.72 435.12 L2091.50 442.17 L2076.28 449.47 L2061.06 456.90 L2045.84 464.70 L2030.61 472.62 L2015.39 480.78 L2000.17 489.08 L1984.95 497.74 L1969.85 506.65 L1954.63 515.68 L1939.41 525.09 L1924.19 534.74 L1908.97 544.64 L1893.75 554.79 L1878.53 565.31 L1863.30 576.07 L1848.08 587.09 L1832.86 598.47 L1817.64 610.23 L1802.42 622.23 L1787.20 634.61 L1771.98 647.36 L1756.76 660.47 L1741.53 673.96 L1726.31 687.82 L1711.09 702.06 L1695.87 716.66 L1680.65 731.76 L1665.43 747.10 L1650.21 763.07 L1634.98 779.40 L1619.76 796.23 L1604.67 813.43 L1589.44 831.13 L1574.22 849.32 L1559.00 868.13 L1543.78 887.32 L1528.56 906.99 L1513.34 927.29 L1498.12 948.08 L1482.90 969.49 L1467.67 991.39 L1452.45 1013.92 L1437.23 1036.93 L1422.01 1060.57 L1406.79 1084.83 L1391.57 1109.70 L1376.35 1135.07 L1361.13 1161.18 L1345.90 1187.91 L1330.68 1215.26 L1315.46 1243.11 L1300.24 1271.69 L1285.02 1300.90 L1269.80 1330.73 L1254.70 1361.05 L1239.48 1392.11 L1224.26 1423.79 L1209.04 1455.96 L1193.82 1488.64 L1178.60 1521.93 L1163.37 1555.71 L1148.15 1589.99 L1132.93 1624.64 L1117.71 1659.54 L1102.49 1694.69 L1087.27 1729.96 L1072.05 1765.47 L1056.83 1800.87 L1041.60 1836.38 L1026.38 1871.53 L1011.16 1906.68 L995.94 1941.33 L980.72 1975.61 L965.50 2009.27 L950.28 2042.43 L935.05 2074.73 L919.83 2106.29 L904.61 2136.86 L889.51 2166.31 L874.29 2194.53 L859.07 2221.63 L843.85 2247.25 L828.63 2271.38 L813.41 2293.90 L798.19 2314.69 L782.97 2333.87 L767.75 2351.08 L752.52 2366.42 L737.30 2379.91 L722.08 2391.54 L706.86 2401.20 L691.64 2408.99 L676.42 2415.06 L661.20 2419.51 L645.98 2422.61 L630.75 2424.46 L615.53 2425.45 L600.31 2425.82 L600.31 2425.82 Z" stroke-linejoin="round"/>
	</defs>
	<defs>
		<clipPath id="clipPath_dMDMHKGK">
			<use xlink:href="#path_xEAfBzMs"/>
		</clipPath>
	</defs>
	<use xlink:href="#path_xEAfBzMs" style="stroke:none;fill:#3333FF;fill-opacity:0.25"/>
	<use xlink:href="#path_xEAfBzMs" style="fill:none;stroke:#0000FF;stroke-opacity:0.25;stroke-width:17.28" clip-path="url(#clipPath_dMDMHKGK)"/>
	<defs>
		<path id="path_gcXEdsop" d="M600.31 2425.82 L600.31 2425.82 L615.53 2425.82 L630.75 2425.70 L645.98 2425.58 L661.20 2425.08 L676.42 2424.21 L691.64 2422.98 L706.86 2421.12 L722.08 2418.52 L737.30 2415.06 L752.52 2410.73 L767.75 2405.40 L782.97 2399.09 L798.19 2391.67 L813.41 2383.13 L828.63 2373.60 L843.85 2362.96 L859.07 2351.20 L874.29 2338.58 L889.51 2324.84 L904.61 2310.24 L919.83 2294.89 L935.05 2278.68 L950.28 2261.73 L965.50 2244.15 L980.72 2226.08 L995.94 2207.52 L1011.16 2188.46 L1026.38 2169.16 L1041.60 2149.60 L1056.83 2129.80 L1072.05 2109.88 L1087.27 2089.83 L1102.49 2069.91 L1117.71 2049.98 L1132.93 2030.06 L1148.15 2010.38 L1163.37 1990.83 L1178.60 1971.65 L1193.82 1952.59 L1209.04 1933.90 L1224.26 1915.59 L1239.48 1897.52 L1254.70 1879.82 L1269.80 1862.50 L1285.02 1845.54 L1300.24 1828.96 L1315.46 1812.75 L1330.68 1796.91 L1345.90 1781.44 L1361.13 1766.22 L1376.35 1751.49 L1391.57 1737.13 L1406.79 1723.03 L1422.01 1709.41 L1437.23 1696.05 L1452.45 1683.05 L1467.67 1670.43 L1482.90 1658.05 L1498.12 1646.05 L1513.34 1634.42 L1528.56 1623.03 L1543.78 1612.02 L1559.00 1601.25 L1574.22 1590.73 L1589.44 1580.58 L1604.67 1570.68 L1619.76 1561.03 L1634.98 1551.63 L1650.21 1542.47 L1665.43 1533.68 L1680.65 1525.02 L1695.87 1516.60 L1711.09 1508.44 L1726.31 1500.52 L1741.53 1492.84 L1756.76 1485.29 L1771.98 1477.99 L1787.20 1470.94 L1802.42 1464.01 L1817.64 1457.33 L1832.86 1450.77 L1848.08 1444.46 L1863.30 1438.27 L1878.53 1432.20 L1893.75 1426.39 L1908.97 1420.69 L1924.19 1415.13 L1939.41 1409.80 L1954.63 1404.61 L1969.85 1399.53 L1984.95 1394.58 L2000.17 1389.76 L2015.39 1385.05 L2030.61 1380.47 L2045.84 1376.02 L2061.06 1371.81 L2076.28 1367.60 L2091.50 1363.52 L2106.72 1359.56 L2121.94 1355.60 L2137.16 1351.89 L2152.38 1348.17 L2167.61 1344.71 L2182.83 1341.12 L2198.05 1337.78 L2213.27 1334.56 L2228.49 1331.34 L2243.71 1328.25 L2258.93 1325.16 L2274.15 1322.19 L2289.38 1319.34 L2304.60 1316.49 L2319.82 1313.77 L2335.04 1311.17 L2350.14 1308.57 L2365.36 1305.97 L2380.58 1303.50 L2395.80 1301.15 L2411.02 1298.80 L2426.24 1296.57 L2441.46 1294.34 L2456.68 1292.11 L2471.91 1290.01 L2487.13 1287.91 L2502.35 1285.93 L2517.57 1283.95 L2532.79 1282.09 L2548.01 1280.23 L2563.23 1278.38 L2578.45 1276.64 L2593.68 1274.91 L2608.90 1273.18 L2624.12 1271.57 L2639.34 1269.96 L2654.56 1268.35 L2669.78 1266.87 L2685.00 1265.38 L2700.22 1263.90 L2715.32 1262.54 L2730.54 1261.05 L2745.76 1259.69 L2760.99 1258.33 L2776.21 1257.09 L2791.43 1255.85 L2806.65 1254.62 L2821.87 1253.38 L2837.09 1252.14 L2852.31 1251.03 L2867.53 1249.91 L2882.76 1248.68 L2897.98 1247.69 L2913.20 1246.57 L2928.42 1245.58 L2943.64 1244.47 L2958.86 1243.48 L2974.08 1242.49 L2989.30 1241.50 L3004.53 1240.63 L3019.75 1239.64 L3034.97 1238.78 L3050.19 1237.91 L3065.41 1237.04 L3080.51 1236.18 L3095.73 1235.31 L3110.95 1234.44 L3126.17 1233.70 L3141.39 1232.84 L3156.61 1232.09 L3171.84 1231.35 L3187.06 1230.48 L3202.28 1229.74 L3217.50 1229.00 L3232.72 1228.38 L3247.94 1227.64 L3263.16 1226.90 L3278.39 1226.28 L3293.61 1225.53 L3308.83 1224.92 L3324.05 1224.17 L3339.27 1223.55 L3354.49 1222.94 L3369.71 1222.32 L3384.93 1221.70 L3400.16 1221.08 L3415.38 1220.46 L3430.47 1219.84 L3445.70 1219.22 L3460.92 1218.60 L3476.14 1218.11 L3491.36 1217.49 L3506.58 1216.87 L3521.80 1216.38 L3537.02 1215.76 L3552.24 1215.26 L3567.47 1214.64 L3582.69 1214.15 L3597.91 1213.53 L3613.13 1213.04 L3628.35 1212.54 L3643.57 1211.92 L3658.79 1211.43 L3674.01 1210.93 L3689.24 1210.44 L3704.46 1209.94 L3719.68 1209.32 L3734.90 1208.83 L3750.12 1208.33 L3765.34 1207.84 L3780.56 1207.34 L3795.66 1206.85 L3795.66 770.37 L3780.56 771.11 L3765.34 771.73 L3750.12 772.47 L3734.90 773.21 L3719.68 773.83 L3704.46 774.58 L3689.24 775.19 L3674.01 775.94 L3658.79 776.68 L3643.57 777.30 L3628.35 778.04 L3613.13 778.78 L3597.91 779.53 L3582.69 780.27 L3567.47 781.01 L3552.24 781.63 L3537.02 782.37 L3521.80 783.11 L3506.58 783.86 L3491.36 784.72 L3476.14 785.47 L3460.92 786.21 L3445.70 786.95 L3430.47 787.69 L3415.38 788.56 L3400.16 789.30 L3384.93 790.17 L3369.71 790.91 L3354.49 791.78 L3339.27 792.64 L3324.05 793.51 L3308.83 794.25 L3293.61 795.12 L3278.39 796.11 L3263.16 796.97 L3247.94 797.84 L3232.72 798.71 L3217.50 799.70 L3202.28 800.69 L3187.06 801.55 L3171.84 802.54 L3156.61 803.53 L3141.39 804.52 L3126.17 805.51 L3110.95 806.63 L3095.73 807.62 L3080.51 808.73 L3065.41 809.85 L3050.19 810.96 L3034.97 812.07 L3019.75 813.19 L3004.53 814.42 L2989.30 815.54 L2974.08 816.78 L2958.86 818.01 L2943.64 819.37 L2928.42 820.61 L2913.20 821.97 L2897.98 823.33 L2882.76 824.70 L2867.53 826.06 L2852.31 827.54 L2837.09 829.03 L2821.87 830.51 L2806.65 832.12 L2791.43 833.61 L2776.21 835.21 L2760.99 836.95 L2745.76 838.56 L2730.54 840.29 L2715.32 842.15 L2700.22 843.88 L2685.00 845.73 L2669.78 847.59 L2654.56 849.57 L2639.34 851.55 L2624.12 853.65 L2608.90 855.76 L2593.68 857.86 L2578.45 860.09 L2563.23 862.32 L2548.01 864.67 L2532.79 867.02 L2517.57 869.49 L2502.35 871.97 L2487.13 874.44 L2471.91 877.17 L2456.68 879.77 L2441.46 882.61 L2426.24 885.46 L2411.02 888.31 L2395.80 891.28 L2380.58 894.37 L2365.36 897.59 L2350.14 900.80 L2335.04 904.15 L2319.82 907.49 L2304.60 911.08 L2289.38 914.66 L2274.15 918.38 L2258.93 922.21 L2243.71 926.05 L2228.49 930.13 L2213.27 934.22 L2198.05 938.55 L2182.83 942.88 L2167.61 947.34 L2152.38 951.91 L2137.16 956.74 L2121.94 961.57 L2106.72 966.52 L2091.50 971.72 L2076.28 977.04 L2061.06 982.48 L2045.84 988.05 L2030.61 993.87 L2015.39 999.68 L2000.17 1005.75 L1984.95 1012.06 L1969.85 1018.49 L1954.63 1025.05 L1939.41 1031.86 L1924.19 1038.91 L1908.97 1046.09 L1893.75 1053.52 L1878.53 1061.07 L1863.30 1068.99 L1848.08 1077.03 L1832.86 1085.20 L1817.64 1093.74 L1802.42 1102.52 L1787.20 1111.56 L1771.98 1120.72 L1756.76 1130.24 L1741.53 1140.02 L1726.31 1150.04 L1711.09 1160.44 L1695.87 1171.08 L1680.65 1181.97 L1665.43 1193.23 L1650.21 1204.74 L1634.98 1216.62 L1619.76 1228.75 L1604.67 1241.25 L1589.44 1254.12 L1574.22 1267.36 L1559.00 1280.98 L1543.78 1294.96 L1528.56 1309.19 L1513.34 1323.92 L1498.12 1339.02 L1482.90 1354.49 L1467.67 1370.33 L1452.45 1386.66 L1437.23 1403.37 L1422.01 1420.45 L1406.79 1438.02 L1391.57 1455.96 L1376.35 1474.40 L1361.13 1493.34 L1345.90 1512.64 L1330.68 1532.44 L1315.46 1552.62 L1300.24 1573.28 L1285.02 1594.32 L1269.80 1615.85 L1254.70 1637.88 L1239.48 1660.28 L1224.26 1683.18 L1209.04 1706.44 L1193.82 1730.20 L1178.60 1754.33 L1163.37 1778.71 L1148.15 1803.59 L1132.93 1828.59 L1117.71 1853.96 L1102.49 1879.45 L1087.27 1905.19 L1072.05 1930.93 L1056.83 1956.80 L1041.60 1982.66 L1026.38 2008.53 L1011.16 2034.14 L995.94 2059.64 L980.72 2084.88 L965.50 2109.76 L950.28 2134.26 L935.05 2158.27 L919.83 2181.78 L904.61 2204.55 L889.51 2226.70 L874.29 2247.99 L859.07 2268.41 L843.85 2287.84 L828.63 2306.15 L813.41 2323.36 L798.19 2339.32 L782.97 2354.05 L767.75 2367.29 L752.52 2379.29 L737.30 2389.69 L722.08 2398.72 L706.86 2406.39 L691.64 2412.46 L676.42 2417.28 L661.20 2420.87 L645.98 2423.22 L630.75 2424.71 L615.53 2425.45 L600.31 2425.82 L600.31 2425.82 Z" stroke-linejoin="round"/>
	</defs>
	<defs>
		<clipPath id="clipPath_tsWRPgzP">
			<use xlink:href="#path_gcXEdsop"/>
		</clipPath>
	</defs>
	<use xlink:href="#path_gcXEdsop" style="stroke:none;fill:#FF3333;fill-opacity:0.25"/>
	<use xlink:href="#path_gcXEdsop" style="fill:none;stroke:#FF0000;stroke-opacity:0.25;stroke-width:17.28" clip-path="url(#clipPath_tsWRPgzP)"/>
	<path d=" M585.09 2425.95 L600.31 2425.95 L615.53 2425.82 L630.75 2425.45 L645.98 2424.83 L661.20 2423.47 L676.42 2421.37 L691.64 2418.27 L706.86 2414.07 L721.96 2408.62 L737.18 2401.69 L752.40 2393.40 L767.62 2383.50 L782.84 2372.11 L798.06 2359.24 L813.28 2344.89 L828.51 2328.92 L843.73 2311.72 L858.95 2293.04 L874.17 2273.11 L889.39 2252.07 L904.61 2229.92 L919.83 2206.78 L935.05 2182.65 L950.28 2157.77 L965.50 2132.16 L980.72 2106.04 L995.94 2079.31 L1011.16 2052.21 L1026.38 2024.74 L1041.60 1997.02 L1056.83 1969.17 L1072.05 1941.20 L1087.14 1913.23 L1102.37 1885.39 L1117.59 1857.67 L1132.81 1830.07 L1148.03 1802.72 L1163.25 1775.74 L1178.47 1749.01 L1193.69 1722.78 L1208.91 1696.91 L1224.13 1671.54 L1239.36 1646.55 L1254.58 1622.17 L1269.80 1598.16 L1285.02 1574.64 L1300.24 1551.75 L1315.46 1529.23 L1330.68 1507.32 L1345.90 1485.79 L1361.13 1464.87 L1376.35 1444.46 L1391.57 1424.41 L1406.79 1404.98 L1422.01 1385.92 L1437.23 1367.48 L1452.33 1349.41 L1467.55 1331.84 L1482.77 1314.64 L1497.99 1297.93 L1513.21 1281.72 L1528.44 1265.88 L1543.66 1250.41 L1558.88 1235.43 L1574.10 1220.83 L1589.32 1206.60 L1604.54 1192.74 L1619.76 1179.25 L1634.98 1166.13 L1650.21 1153.39 L1665.43 1141.01 L1680.65 1129.01 L1695.87 1117.25 L1711.09 1105.86 L1726.31 1094.73 L1741.53 1083.96 L1756.76 1073.44 L1771.98 1063.29 L1787.20 1053.39 L1802.30 1043.74 L1817.52 1034.33 L1832.74 1025.18 L1847.96 1016.27 L1863.18 1007.73 L1878.40 999.31 L1893.62 991.14 L1908.84 983.22 L1924.07 975.43 L1939.29 968.00 L1954.51 960.70 L1969.73 953.52 L1984.95 946.59 L2000.17 939.91 L2015.39 933.35 L2030.61 927.04 L2045.84 920.85 L2061.06 914.79 L2076.28 908.97 L2091.50 903.28 L2106.72 897.71 L2121.94 892.39 L2137.16 887.07 L2152.38 881.99 L2167.48 877.04 L2182.70 872.22 L2197.92 867.51 L2213.14 862.94 L2228.37 858.48 L2243.59 854.15 L2258.81 849.94 L2274.03 845.86 L2289.25 841.77 L2304.47 837.94 L2319.69 834.10 L2334.91 830.39 L2350.14 826.80 L2365.36 823.33 L2380.58 819.87 L2395.80 816.53 L2411.02 813.31 L2426.24 810.22 L2441.46 807.12 L2456.68 804.15 L2471.91 801.18 L2487.13 798.34 L2502.35 795.61 L2517.57 792.89 L2532.67 790.17 L2547.89 787.69 L2563.11 785.09 L2578.33 782.74 L2593.55 780.27 L2608.77 777.92 L2623.99 775.69 L2639.22 773.46 L2654.44 771.36 L2669.66 769.25 L2684.88 767.15 L2700.10 765.17 L2715.32 763.19 L2730.54 761.21 L2745.76 759.35 L2760.99 757.50 L2776.21 755.76 L2791.43 753.91 L2806.65 752.30 L2821.87 750.57 L2837.09 748.96 L2852.31 747.35 L2867.53 745.74 L2882.76 744.26 L2897.85 742.65 L2913.07 741.29 L2928.30 739.80 L2943.52 738.32 L2958.74 736.95 L2973.96 735.59 L2989.18 734.36 L3004.40 732.99 L3019.62 731.76 L3034.84 730.52 L3050.07 729.28 L3065.29 728.04 L3080.51 726.81 L3095.73 725.69 L3110.95 724.58 L3126.17 723.47 L3141.39 722.35 L3156.61 721.24 L3171.84 720.12 L3187.06 719.13 L3202.28 718.02 L3217.50 717.03 L3232.72 716.04 L3247.94 715.05 L3263.04 714.06 L3278.26 713.07 L3293.48 712.20 L3308.70 711.21 L3323.93 710.35 L3339.15 709.36 L3354.37 708.49 L3369.59 707.62 L3384.81 706.76 L3400.03 705.89 L3415.25 705.03 L3430.47 704.16 L3445.70 703.29 L3460.92 702.55 L3476.14 701.68 L3491.36 700.94 L3506.58 700.08 L3521.80 699.33 L3537.02 698.47 L3552.24 697.72 L3567.47 696.98 L3582.69 696.12 L3597.91 695.37 L3613.01 694.63 L3628.23 693.89 L3643.45 693.15 L3658.67 692.40 L3673.89 691.66 L3689.11 690.92 L3704.33 690.18 L3719.55 689.43 L3734.78 688.69 L3750.00 687.95 L3765.22 687.33 L3780.44 686.59 L3795.66 685.84" stroke-linejoin="round" style="fill:none;stroke:#0000FF;stroke-width:8.64"/>
	<path d=" M585.09 2425.95 L600.31 2425.95 L615.53 2425.82 L630.75 2425.58 L645.98 2424.96 L661.20 2423.97 L676.42 2422.23 L691.64 2419.76 L706.86 2416.29 L721.96 2411.72 L737.18 2406.15 L752.40 2399.34 L767.62 2391.30 L782.84 2382.01 L798.06 2371.50 L813.28 2359.74 L828.51 2346.87 L843.73 2332.76 L858.95 2317.54 L874.17 2301.33 L889.39 2284.13 L904.61 2266.06 L919.83 2247.12 L935.05 2227.45 L950.28 2207.15 L965.50 2186.24 L980.72 2164.95 L995.94 2143.17 L1011.16 2121.02 L1026.38 2098.62 L1041.60 2075.97 L1056.83 2053.32 L1072.05 2030.43 L1087.14 2007.66 L1102.37 1984.89 L1117.59 1962.24 L1132.81 1939.72 L1148.03 1917.44 L1163.25 1895.41 L1178.47 1873.63 L1193.69 1852.10 L1208.91 1831.06 L1224.13 1810.27 L1239.36 1789.98 L1254.58 1770.05 L1269.80 1750.50 L1285.02 1731.32 L1300.24 1712.51 L1315.46 1694.19 L1330.68 1676.25 L1345.90 1658.80 L1361.13 1641.60 L1376.35 1624.89 L1391.57 1608.68 L1406.79 1592.71 L1422.01 1577.24 L1437.23 1562.02 L1452.33 1547.29 L1467.55 1532.94 L1482.77 1518.95 L1497.99 1505.34 L1513.21 1492.10 L1528.44 1479.11 L1543.66 1466.48 L1558.88 1454.23 L1574.10 1442.35 L1589.32 1430.72 L1604.54 1419.46 L1619.76 1408.44 L1634.98 1397.68 L1650.21 1387.28 L1665.43 1377.26 L1680.65 1367.36 L1695.87 1357.83 L1711.09 1348.42 L1726.31 1339.39 L1741.53 1330.60 L1756.76 1322.06 L1771.98 1313.65 L1787.20 1305.60 L1802.30 1297.68 L1817.52 1290.01 L1832.74 1282.59 L1847.96 1275.28 L1863.18 1268.23 L1878.40 1261.42 L1893.62 1254.74 L1908.84 1248.31 L1924.07 1241.99 L1939.29 1235.81 L1954.51 1229.87 L1969.73 1224.05 L1984.95 1218.36 L2000.17 1212.91 L2015.39 1207.59 L2030.61 1202.39 L2045.84 1197.32 L2061.06 1192.49 L2076.28 1187.67 L2091.50 1182.96 L2106.72 1178.51 L2121.94 1174.05 L2137.16 1169.85 L2152.38 1165.64 L2167.48 1161.55 L2182.70 1157.59 L2197.92 1153.76 L2213.14 1150.04 L2228.37 1146.46 L2243.59 1142.87 L2258.81 1139.40 L2274.03 1136.06 L2289.25 1132.84 L2304.47 1129.63 L2319.69 1126.53 L2334.91 1123.44 L2350.14 1120.59 L2365.36 1117.74 L2380.58 1114.90 L2395.80 1112.18 L2411.02 1109.58 L2426.24 1106.98 L2441.46 1104.50 L2456.68 1102.03 L2471.91 1099.55 L2487.13 1097.33 L2502.35 1094.97 L2517.57 1092.75 L2532.67 1090.64 L2547.89 1088.54 L2563.11 1086.44 L2578.33 1084.46 L2593.55 1082.60 L2608.77 1080.62 L2623.99 1078.76 L2639.22 1076.91 L2654.44 1075.17 L2669.66 1073.44 L2684.88 1071.83 L2700.10 1070.10 L2715.32 1068.49 L2730.54 1067.01 L2745.76 1065.40 L2760.99 1063.91 L2776.21 1062.43 L2791.43 1061.07 L2806.65 1059.58 L2821.87 1058.22 L2837.09 1056.86 L2852.31 1055.62 L2867.53 1054.26 L2882.76 1053.02 L2897.85 1051.78 L2913.07 1050.67 L2928.30 1049.43 L2943.52 1048.32 L2958.74 1047.21 L2973.96 1046.09 L2989.18 1044.98 L3004.40 1043.86 L3019.62 1042.87 L3034.84 1041.88 L3050.07 1040.77 L3065.29 1039.78 L3080.51 1038.91 L3095.73 1037.92 L3110.95 1036.93 L3126.17 1036.07 L3141.39 1035.20 L3156.61 1034.21 L3171.84 1033.34 L3187.06 1032.48 L3202.28 1031.74 L3217.50 1030.87 L3232.72 1030.00 L3247.94 1029.26 L3263.04 1028.39 L3278.26 1027.65 L3293.48 1026.91 L3308.70 1026.17 L3323.93 1025.42 L3339.15 1024.68 L3354.37 1023.94 L3369.59 1023.20 L3384.81 1022.45 L3400.03 1021.71 L3415.25 1021.09 L3430.47 1020.35 L3445.70 1019.73 L3460.92 1018.99 L3476.14 1018.37 L3491.36 1017.63 L3506.58 1017.01 L3521.80 1016.39 L3537.02 1015.65 L3552.24 1015.03 L3567.47 1014.41 L3582.69 1013.79 L3597.91 1013.17 L3613.01 1012.55 L3628.23 1011.94 L3643.45 1011.32 L3658.67 1010.70 L3673.89 1010.08 L3689.11 1009.46 L3704.33 1008.97 L3719.55 1008.35 L3734.78 1007.73 L3750.00 1007.11 L3765.22 1006.49 L3780.44 1006.00 L3795.66 1005.38" stroke-linejoin="round" style="fill:none;stroke:#FF0000;stroke-width:8.64"/>
	<line x1="521.73" y1="2489.19" x2="521.73" y2="100.86" style="stroke:#000000;stroke-width:5.76"/>
	<line x1="521.73" y1="2425.82" x2="481.76" y2="2425.82" style="stroke:#000000;stroke-width:5.76"/>
	<text x="461.83" y="2460.85" style="font-family:'Helvetica';font-size:99.99px;fill:#000000" text-anchor="end">0.00</text>
	<line x1="521.73" y1="1976.60" x2="481.76" y2="1976.60" style="stroke:#000000;stroke-width:5.76"/>
	<text x="461.83" y="2011.63" style="font-family:'Helvetica';font-size:99.99px;fill:#000000" text-anchor="end">0.10</text>
	<line x1="521.73" y1="1527.37" x2="481.76" y2="1527.37" style="stroke:#000000;stroke-width:5.76"/>
	<text x="461.83" y="1562.40" style="font-family:'Helvetica';font-size:99.99px;fill:#000000" text-anchor="end">0.20</text>
	<line x1="521.73" y1="1078.14" x2="481.76" y2="1078.14" style="stroke:#000000;stroke-width:5.76"/>
	<text x="461.83" y="1113.17" style="font-family:'Helvetica';font-size:99.99px;fill:#000000" text-anchor="end">0.30</text>
	<line x1="521.73" y1="629.04" x2="481.76" y2="629.04" style="stroke:#000000;stroke-width:5.76"/>
	<text x="461.83" y="664.07" style="font-family:'Helvetica';font-size:99.99px;fill:#000000" text-anchor="end">0.40</text>
	<line x1="521.73" y1="179.81" x2="481.76" y2="179.81" style="stroke:#000000;stroke-width:5.76"/>
	<text x="461.83" y="214.84" style="font-family:'Helvetica';font-size:99.99px;fill:#000000" text-anchor="end">0.50</text>
	<text x="190.71" y="1294.96" style="font-family:'Helvetica';font-size:99.99px;fill:#000000" transform="rotate(-90 190.71,1294.96)" text-anchor="middle">Cumulative incidence (%)</text>
	<line x1="521.73" y1="2489.19" x2="3859.02" y2="2489.19" style="stroke:#000000;stroke-width:5.76"/>
	<line x1="585.09" y1="2489.19" x2="585.09" y2="2529.16" style="stroke:#000000;stroke-width:5.76"/>
	<text x="585.09" y="2619.14" style="font-family:'Helvetica';font-size:99.99px;fill:#000000" text-anchor="middle">0</text>
	<line x1="1345.90" y1="2489.19" x2="1345.90" y2="2529.16" style="stroke:#000000;stroke-width:5.76"/>
	<text x="1345.90" y="2619.14" style="font-family:'Helvetica';font-size:99.99px;fill:#000000" text-anchor="middle">50</text>
	<line x1="2106.72" y1="2489.19" x2="2106.72" y2="2529.16" style="stroke:#000000;stroke-width:5.76"/>
	<text x="2106.72" y="2619.14" style="font-family:'Helvetica';font-size:99.99px;fill:#000000" text-anchor="middle">100</text>
	<line x1="2867.53" y1="2489.19" x2="2867.53" y2="2529.16" style="stroke:#000000;stroke-width:5.76"/>
	<text x="2867.53" y="2619.14" style="font-family:'Helvetica';font-size:99.99px;fill:#000000" text-anchor="middle">150</text>
	<line x1="3628.35" y1="2489.19" x2="3628.35" y2="2529.16" style="stroke:#000000;stroke-width:5.76"/>
	<text x="3628.35" y="2619.14" style="font-family:'Helvetica';font-size:99.99px;fill:#000000" text-anchor="middle">200</text>
	<text x="2190.38" y="2729.16" style="font-family:'Helvetica';font-size:99.99px;fill:#000000" text-anchor="middle">Days from 1 March 2020</text>
	<rect x="1933.59" y="2128.20" width="1890.90" height="326.46" style="fill:#FFFFFF"/>
	<rect x="1936.47" y="2131.08" width="1885.14" height="320.70" style="fill:none;stroke:#000000;stroke-width:5.76"/>
	<rect x="1976.78" y="2171.51" width="374.34" height="99.99" style="fill:#3333FF;fill-opacity:0.25"/>
	<rect x="1981.10" y="2175.83" width="365.70" height="91.35" style="fill:none;stroke:#0000FF;stroke-opacity:0.25;stroke-width:8.64"/>
	<rect x="1976.78" y="2311.47" width="374.34" height="99.99" style="fill:#FF3333;fill-opacity:0.25"/>
	<rect x="1981.10" y="2315.79" width="365.70" height="91.35" style="fill:none;stroke:#FF0000;stroke-opacity:0.25;stroke-width:8.64"/>
	<text x="2411.14" y="2256.53" style="font-family:'Helvetica';font-size:99.99px;fill:#000000">Non-current anticoagulant use</text>
	<text x="2411.14" y="2396.50" style="font-family:'Helvetica';font-size:99.99px;fill:#000000">Current anticoagulant use</text>
</svg>
