<?xml version="1.0" encoding="UTF-8" standalone="no"?>
<!-- This is a Stata 16.1 generated SVG file (http://www.stata.com) -->

<svg version="1.1" width="5.50in" height="4.00in" viewBox="0 0 3960 2880" xmlns="http://www.w3.org/2000/svg" xmlns:xlink="http://www.w3.org/1999/xlink">
	<desc>Stata Graph - Graph</desc>
	<rect x="0" y="0" width="3960" height="2880" style="fill:#EAF2F3;stroke:none"/>
	<rect x="0.00" y="0.00" width="3959.88" height="2880.00" style="fill:#EAF2F3"/>
	<rect x="2.88" y="2.88" width="3954.12" height="2874.24" style="fill:none;stroke:#EAF2F3;stroke-width:5.76"/>
	<rect x="521.73" y="100.86" width="3337.29" height="2388.33" style="fill:#FFFFFF"/>
	<rect x="524.61" y="103.74" width="3331.53" height="2382.57" style="fill:none;stroke:#FFFFFF;stroke-width:5.76"/>
	<line x1="521.73" y1="2425.82" x2="3859.02" y2="2425.82" style="stroke:#EAF2F3;stroke-width:8.64"/>
	<line x1="521.73" y1="1973.50" x2="3859.02" y2="1973.50" style="stroke:#EAF2F3;stroke-width:8.64"/>
	<line x1="521.73" y1="1521.18" x2="3859.02" y2="1521.18" style="stroke:#EAF2F3;stroke-width:8.64"/>
	<line x1="521.73" y1="1068.86" x2="3859.02" y2="1068.86" style="stroke:#EAF2F3;stroke-width:8.64"/>
	<line x1="521.73" y1="616.54" x2="3859.02" y2="616.54" style="stroke:#EAF2F3;stroke-width:8.64"/>
	<line x1="521.73" y1="164.22" x2="3859.02" y2="164.22" style="stroke:#EAF2F3;stroke-width:8.64"/>
	<defs>
		<path id="path_XThtLLMw" d="M600.31 2425.82 L600.31 2425.82 L615.53 2425.82 L630.75 2425.82 L645.98 2425.82 L661.20 2425.82 L676.42 2425.82 L691.64 2425.82 L706.86 2425.82 L722.08 2425.82 L737.30 2425.82 L752.52 2425.82 L767.75 2425.70 L782.97 2425.58 L798.19 2425.45 L813.41 2425.08 L828.63 2424.71 L843.85 2423.97 L859.07 2422.85 L874.29 2421.24 L889.51 2419.02 L904.61 2416.05 L919.83 2411.96 L935.05 2406.77 L950.28 2400.08 L965.50 2391.67 L980.72 2381.52 L995.94 2369.39 L1011.16 2355.16 L1026.38 2338.82 L1041.60 2320.39 L1056.83 2299.97 L1072.05 2277.81 L1087.27 2253.93 L1102.49 2228.68 L1117.71 2202.32 L1132.93 2175.10 L1148.15 2147.25 L1163.37 2119.16 L1178.60 2091.19 L1193.82 2063.35 L1209.04 2036.12 L1224.26 2009.52 L1239.48 1983.65 L1254.70 1958.53 L1269.80 1934.15 L1285.02 1910.76 L1300.24 1888.11 L1315.46 1866.33 L1330.68 1845.54 L1345.90 1825.49 L1361.13 1806.19 L1376.35 1787.75 L1391.57 1770.05 L1406.79 1753.10 L1422.01 1736.76 L1437.23 1721.05 L1452.45 1705.82 L1467.67 1691.22 L1482.90 1677.11 L1498.12 1663.50 L1513.34 1650.13 L1528.56 1637.14 L1543.78 1624.52 L1559.00 1612.39 L1574.22 1600.39 L1589.44 1588.88 L1604.67 1577.61 L1619.76 1566.72 L1634.98 1556.20 L1650.21 1545.93 L1665.43 1535.91 L1680.65 1526.26 L1695.87 1516.85 L1711.09 1507.69 L1726.31 1498.91 L1741.53 1490.24 L1756.76 1481.95 L1771.98 1473.91 L1787.20 1466.11 L1802.42 1458.44 L1817.64 1451.14 L1832.86 1443.96 L1848.08 1437.03 L1863.30 1430.22 L1878.53 1423.79 L1893.75 1417.48 L1908.97 1411.29 L1924.19 1405.35 L1939.41 1399.53 L1954.63 1393.96 L1969.85 1388.52 L1984.95 1383.32 L2000.17 1378.25 L2015.39 1373.30 L2030.61 1368.47 L2045.84 1363.77 L2061.06 1359.31 L2076.28 1354.98 L2091.50 1350.65 L2106.72 1346.57 L2121.94 1342.61 L2137.16 1338.77 L2152.38 1335.06 L2167.61 1331.34 L2182.83 1327.88 L2198.05 1324.41 L2213.27 1321.20 L2228.49 1317.98 L2243.71 1314.76 L2258.93 1311.79 L2274.15 1308.82 L2289.38 1306.10 L2304.60 1303.25 L2319.82 1300.65 L2335.04 1298.05 L2350.14 1295.58 L2365.36 1293.10 L2380.58 1290.75 L2395.80 1288.40 L2411.02 1286.17 L2426.24 1284.07 L2441.46 1281.97 L2456.68 1279.99 L2471.91 1278.01 L2487.13 1276.15 L2502.35 1274.29 L2517.57 1272.44 L2532.79 1270.70 L2548.01 1268.97 L2563.23 1267.36 L2578.45 1265.75 L2593.68 1264.27 L2608.90 1262.78 L2624.12 1261.30 L2639.34 1259.94 L2654.56 1258.58 L2669.78 1257.22 L2685.00 1255.85 L2700.22 1254.62 L2715.32 1253.38 L2730.54 1252.27 L2745.76 1251.15 L2760.99 1250.04 L2776.21 1248.92 L2791.43 1247.81 L2806.65 1246.82 L2821.87 1245.83 L2837.09 1244.84 L2852.31 1243.85 L2867.53 1242.98 L2882.76 1242.12 L2897.98 1241.25 L2913.20 1240.39 L2928.42 1239.52 L2943.64 1238.78 L2958.86 1238.03 L2974.08 1237.17 L2989.30 1236.42 L3004.53 1235.81 L3019.75 1235.06 L3034.97 1234.32 L3050.19 1233.70 L3065.41 1233.08 L3080.51 1232.34 L3095.73 1231.72 L3110.95 1231.10 L3126.17 1230.61 L3141.39 1229.99 L3156.61 1229.37 L3171.84 1228.88 L3187.06 1228.26 L3202.28 1227.76 L3217.50 1227.27 L3232.72 1226.65 L3247.94 1226.15 L3263.16 1225.66 L3278.39 1225.16 L3293.61 1224.67 L3308.83 1224.30 L3324.05 1223.80 L3339.27 1223.31 L3354.49 1222.81 L3369.71 1222.44 L3384.93 1221.95 L3400.16 1221.57 L3415.38 1221.08 L3430.47 1220.71 L3445.70 1220.34 L3460.92 1219.84 L3476.14 1219.47 L3491.36 1219.10 L3506.58 1218.60 L3521.80 1218.23 L3537.02 1217.86 L3552.24 1217.49 L3567.47 1217.12 L3582.69 1216.75 L3597.91 1216.25 L3613.13 1215.88 L3628.35 1215.51 L3643.57 1215.14 L3658.79 1214.77 L3674.01 1214.40 L3689.24 1214.03 L3704.46 1213.65 L3719.68 1213.28 L3734.90 1212.91 L3750.12 1212.54 L3765.34 1212.17 L3780.56 1211.80 L3795.66 1211.43 L3795.66 313.72 L3780.56 314.33 L3765.34 315.08 L3750.12 315.70 L3734.90 316.31 L3719.68 316.93 L3704.46 317.55 L3689.24 318.17 L3674.01 318.79 L3658.79 319.53 L3643.57 320.15 L3628.35 320.77 L3613.13 321.39 L3597.91 322.13 L3582.69 322.75 L3567.47 323.37 L3552.24 324.11 L3537.02 324.73 L3521.80 325.47 L3506.58 326.09 L3491.36 326.83 L3476.14 327.45 L3460.92 328.20 L3445.70 328.81 L3430.47 329.56 L3415.38 330.30 L3400.16 331.04 L3384.93 331.66 L3369.71 332.40 L3354.49 333.15 L3339.27 334.01 L3324.05 334.75 L3308.83 335.50 L3293.61 336.24 L3278.39 337.11 L3263.16 337.85 L3247.94 338.71 L3232.72 339.58 L3217.50 340.45 L3202.28 341.31 L3187.06 342.18 L3171.84 343.05 L3156.61 344.04 L3141.39 344.90 L3126.17 345.89 L3110.95 346.88 L3095.73 347.87 L3080.51 348.99 L3065.41 349.98 L3050.19 351.09 L3034.97 352.20 L3019.75 353.32 L3004.53 354.43 L2989.30 355.67 L2974.08 356.91 L2958.86 358.14 L2943.64 359.38 L2928.42 360.74 L2913.20 362.10 L2897.98 363.47 L2882.76 364.95 L2867.53 366.44 L2852.31 367.92 L2837.09 369.53 L2821.87 371.14 L2806.65 372.75 L2791.43 374.48 L2776.21 376.21 L2760.99 377.94 L2745.76 379.80 L2730.54 381.66 L2715.32 383.64 L2700.22 385.74 L2685.00 387.72 L2669.78 389.95 L2654.56 392.18 L2639.34 394.40 L2624.12 396.75 L2608.90 399.11 L2593.68 401.71 L2578.45 404.18 L2563.23 406.90 L2548.01 409.63 L2532.79 412.47 L2517.57 415.32 L2502.35 418.29 L2487.13 421.38 L2471.91 424.60 L2456.68 427.82 L2441.46 431.28 L2426.24 434.75 L2411.02 438.34 L2395.80 442.05 L2380.58 445.89 L2365.36 449.85 L2350.14 453.93 L2335.04 458.14 L2319.82 462.47 L2304.60 466.92 L2289.38 471.63 L2274.15 476.33 L2258.93 481.28 L2243.71 486.35 L2228.49 491.55 L2213.27 497.00 L2198.05 502.56 L2182.83 508.26 L2167.61 514.20 L2152.38 520.39 L2137.16 526.70 L2121.94 533.13 L2106.72 539.81 L2091.50 546.74 L2076.28 553.92 L2061.06 561.22 L2045.84 568.77 L2030.61 576.69 L2015.39 584.74 L2000.17 593.03 L1984.95 601.57 L1969.85 610.35 L1954.63 619.51 L1939.41 628.92 L1924.19 638.57 L1908.97 648.47 L1893.75 658.74 L1878.53 669.26 L1863.30 680.15 L1848.08 691.41 L1832.86 703.05 L1817.64 714.93 L1802.42 727.18 L1787.20 739.80 L1771.98 752.79 L1756.76 766.16 L1741.53 779.90 L1726.31 794.00 L1711.09 808.61 L1695.87 823.58 L1680.65 839.05 L1665.43 854.89 L1650.21 871.10 L1634.98 887.93 L1619.76 905.14 L1604.67 922.83 L1589.44 941.02 L1574.22 959.59 L1559.00 978.77 L1543.78 998.45 L1528.56 1018.62 L1513.34 1039.28 L1498.12 1060.45 L1482.90 1082.23 L1467.67 1104.63 L1452.45 1127.77 L1437.23 1151.78 L1422.01 1176.65 L1406.79 1202.64 L1391.57 1229.87 L1376.35 1258.21 L1361.13 1288.15 L1345.90 1319.46 L1330.68 1352.38 L1315.46 1387.03 L1300.24 1423.42 L1285.02 1461.53 L1269.80 1501.38 L1254.70 1543.09 L1239.48 1586.40 L1224.26 1631.32 L1209.04 1677.73 L1193.82 1725.25 L1178.60 1773.64 L1163.37 1822.40 L1148.15 1871.03 L1132.93 1918.80 L1117.71 1965.46 L1102.49 2010.38 L1087.27 2053.32 L1072.05 2093.92 L1056.83 2132.03 L1041.60 2167.55 L1026.38 2200.34 L1011.16 2230.54 L995.94 2257.89 L980.72 2282.52 L965.50 2304.67 L950.28 2324.35 L935.05 2341.67 L919.83 2356.77 L904.61 2369.76 L889.51 2380.90 L874.29 2390.18 L859.07 2397.98 L843.85 2404.41 L828.63 2409.61 L813.41 2413.70 L798.19 2417.04 L782.97 2419.51 L767.75 2421.49 L752.52 2422.85 L737.30 2423.97 L722.08 2424.71 L706.86 2425.08 L691.64 2425.45 L676.42 2425.70 L661.20 2425.82 L645.98 2425.82 L630.75 2425.82 L615.53 2425.82 L600.31 2425.82 L600.31 2425.82 Z" stroke-linejoin="round"/>
	</defs>
	<defs>
		<clipPath id="clipPath_tYuhOvnY">
			<use xlink:href="#path_XThtLLMw"/>
		</clipPath>
	</defs>
	<use xlink:href="#path_XThtLLMw" style="stroke:none;fill:#3333FF;fill-opacity:0.25"/>
	<use xlink:href="#path_XThtLLMw" style="fill:none;stroke:#0000FF;stroke-opacity:0.25;stroke-width:17.28" clip-path="url(#clipPath_tYuhOvnY)"/>
	<defs>
		<path id="path_IZNZWJui" d="M600.31 2425.82 L600.31 2425.82 L615.53 2425.82 L630.75 2425.82 L645.98 2425.82 L661.20 2425.82 L676.42 2425.82 L691.64 2425.82 L706.86 2425.82 L722.08 2425.82 L737.30 2425.82 L752.52 2425.82 L767.75 2425.70 L782.97 2425.70 L798.19 2425.58 L813.41 2425.33 L828.63 2424.96 L843.85 2424.46 L859.07 2423.72 L874.29 2422.61 L889.51 2421.00 L904.61 2418.89 L919.83 2416.05 L935.05 2412.21 L950.28 2407.38 L965.50 2401.32 L980.72 2393.89 L995.94 2385.11 L1011.16 2374.59 L1026.38 2362.59 L1041.60 2348.85 L1056.83 2333.63 L1072.05 2317.04 L1087.27 2299.10 L1102.49 2280.04 L1117.71 2259.99 L1132.93 2239.33 L1148.15 2218.29 L1163.37 2196.88 L1178.60 2175.59 L1193.82 2154.43 L1209.04 2133.64 L1224.26 2113.34 L1239.48 2093.67 L1254.70 2074.49 L1269.80 2055.80 L1285.02 2037.85 L1300.24 2020.53 L1315.46 2003.82 L1330.68 1987.61 L1345.90 1972.14 L1361.13 1957.29 L1376.35 1942.94 L1391.57 1929.20 L1406.79 1915.96 L1422.01 1903.21 L1437.23 1890.96 L1452.45 1879.08 L1467.67 1867.69 L1482.90 1856.56 L1498.12 1845.91 L1513.34 1835.39 L1528.56 1825.37 L1543.78 1815.47 L1559.00 1805.94 L1574.22 1796.66 L1589.44 1787.62 L1604.67 1778.84 L1619.76 1770.30 L1634.98 1762.01 L1650.21 1754.09 L1665.43 1746.29 L1680.65 1738.74 L1695.87 1731.44 L1711.09 1724.26 L1726.31 1717.33 L1741.53 1710.65 L1756.76 1704.21 L1771.98 1697.90 L1787.20 1691.84 L1802.42 1685.90 L1817.64 1680.21 L1832.86 1674.64 L1848.08 1669.32 L1863.30 1663.99 L1878.53 1659.04 L1893.75 1654.09 L1908.97 1649.27 L1924.19 1644.69 L1939.41 1640.23 L1954.63 1635.90 L1969.85 1631.69 L1984.95 1627.61 L2000.17 1623.65 L2015.39 1619.81 L2030.61 1616.10 L2045.84 1612.51 L2061.06 1609.05 L2076.28 1605.58 L2091.50 1602.37 L2106.72 1599.15 L2121.94 1596.05 L2137.16 1593.08 L2152.38 1590.24 L2167.61 1587.39 L2182.83 1584.67 L2198.05 1581.95 L2213.27 1579.47 L2228.49 1577.00 L2243.71 1574.52 L2258.93 1572.17 L2274.15 1569.94 L2289.38 1567.71 L2304.60 1565.61 L2319.82 1563.51 L2335.04 1561.53 L2350.14 1559.55 L2365.36 1557.69 L2380.58 1555.83 L2395.80 1554.10 L2411.02 1552.37 L2426.24 1550.64 L2441.46 1549.03 L2456.68 1547.54 L2471.91 1545.93 L2487.13 1544.45 L2502.35 1543.09 L2517.57 1541.60 L2532.79 1540.24 L2548.01 1539.00 L2563.23 1537.77 L2578.45 1536.53 L2593.68 1535.29 L2608.90 1534.05 L2624.12 1532.94 L2639.34 1531.83 L2654.56 1530.84 L2669.78 1529.72 L2685.00 1528.73 L2700.22 1527.74 L2715.32 1526.88 L2730.54 1525.89 L2745.76 1525.02 L2760.99 1524.15 L2776.21 1523.29 L2791.43 1522.54 L2806.65 1521.68 L2821.87 1520.94 L2837.09 1520.19 L2852.31 1519.45 L2867.53 1518.71 L2882.76 1517.96 L2897.98 1517.35 L2913.20 1516.73 L2928.42 1515.98 L2943.64 1515.37 L2958.86 1514.75 L2974.08 1514.25 L2989.30 1513.63 L3004.53 1513.01 L3019.75 1512.52 L3034.97 1512.02 L3050.19 1511.41 L3065.41 1510.91 L3080.51 1510.42 L3095.73 1509.92 L3110.95 1509.43 L3126.17 1509.05 L3141.39 1508.56 L3156.61 1508.06 L3171.84 1507.69 L3187.06 1507.20 L3202.28 1506.83 L3217.50 1506.46 L3232.72 1505.96 L3247.94 1505.59 L3263.16 1505.22 L3278.39 1504.85 L3293.61 1504.48 L3308.83 1504.10 L3324.05 1503.73 L3339.27 1503.36 L3354.49 1502.99 L3369.71 1502.62 L3384.93 1502.37 L3400.16 1502.00 L3415.38 1501.63 L3430.47 1501.38 L3445.70 1501.01 L3460.92 1500.64 L3476.14 1500.39 L3491.36 1500.02 L3506.58 1499.77 L3521.80 1499.40 L3537.02 1499.15 L3552.24 1498.78 L3567.47 1498.54 L3582.69 1498.16 L3597.91 1497.92 L3613.13 1497.67 L3628.35 1497.30 L3643.57 1497.05 L3658.79 1496.80 L3674.01 1496.43 L3689.24 1496.18 L3704.46 1495.94 L3719.68 1495.57 L3734.90 1495.32 L3750.12 1495.07 L3765.34 1494.70 L3780.56 1494.45 L3795.66 1494.20 L3795.66 1108.71 L3780.56 1109.21 L3765.34 1109.58 L3750.12 1109.95 L3734.90 1110.32 L3719.68 1110.69 L3704.46 1111.19 L3689.24 1111.56 L3674.01 1111.93 L3658.79 1112.30 L3643.57 1112.79 L3628.35 1113.17 L3613.13 1113.54 L3597.91 1114.03 L3582.69 1114.40 L3567.47 1114.77 L3552.24 1115.15 L3537.02 1115.64 L3521.80 1116.01 L3506.58 1116.51 L3491.36 1116.88 L3476.14 1117.25 L3460.92 1117.74 L3445.70 1118.12 L3430.47 1118.61 L3415.38 1118.98 L3400.16 1119.48 L3384.93 1119.97 L3369.71 1120.34 L3354.49 1120.84 L3339.27 1121.33 L3324.05 1121.83 L3308.83 1122.32 L3293.61 1122.70 L3278.39 1123.19 L3263.16 1123.69 L3247.94 1124.30 L3232.72 1124.80 L3217.50 1125.29 L3202.28 1125.79 L3187.06 1126.41 L3171.84 1126.90 L3156.61 1127.52 L3141.39 1128.14 L3126.17 1128.64 L3110.95 1129.25 L3095.73 1129.87 L3080.51 1130.49 L3065.41 1131.23 L3050.19 1131.85 L3034.97 1132.60 L3019.75 1133.21 L3004.53 1133.96 L2989.30 1134.70 L2974.08 1135.44 L2958.86 1136.18 L2943.64 1137.05 L2928.42 1137.79 L2913.20 1138.66 L2897.98 1139.53 L2882.76 1140.39 L2867.53 1141.26 L2852.31 1142.25 L2837.09 1143.24 L2821.87 1144.23 L2806.65 1145.22 L2791.43 1146.21 L2776.21 1147.32 L2760.99 1148.44 L2745.76 1149.55 L2730.54 1150.66 L2715.32 1151.90 L2700.22 1153.14 L2685.00 1154.50 L2669.78 1155.74 L2654.56 1157.10 L2639.34 1158.58 L2624.12 1159.94 L2608.90 1161.43 L2593.68 1163.04 L2578.45 1164.65 L2563.23 1166.26 L2548.01 1167.87 L2532.79 1169.60 L2517.57 1171.45 L2502.35 1173.31 L2487.13 1175.17 L2471.91 1177.15 L2456.68 1179.25 L2441.46 1181.35 L2426.24 1183.46 L2411.02 1185.69 L2395.80 1188.04 L2380.58 1190.39 L2365.36 1192.86 L2350.14 1195.34 L2335.04 1197.94 L2319.82 1200.66 L2304.60 1203.38 L2289.38 1206.23 L2274.15 1209.20 L2258.93 1212.29 L2243.71 1215.39 L2228.49 1218.60 L2213.27 1222.07 L2198.05 1225.41 L2182.83 1229.00 L2167.61 1232.71 L2152.38 1236.42 L2137.16 1240.39 L2121.94 1244.35 L2106.72 1248.55 L2091.50 1252.88 L2076.28 1257.22 L2061.06 1261.79 L2045.84 1266.50 L2030.61 1271.32 L2015.39 1276.27 L2000.17 1281.47 L1984.95 1286.79 L1969.85 1292.24 L1954.63 1297.81 L1939.41 1303.62 L1924.19 1309.69 L1908.97 1315.75 L1893.75 1322.19 L1878.53 1328.62 L1863.30 1335.43 L1848.08 1342.36 L1832.86 1349.41 L1817.64 1356.84 L1802.42 1364.39 L1787.20 1372.18 L1771.98 1380.10 L1756.76 1388.39 L1741.53 1396.81 L1726.31 1405.60 L1711.09 1414.51 L1695.87 1423.79 L1680.65 1433.19 L1665.43 1442.97 L1650.21 1452.99 L1634.98 1463.27 L1619.76 1473.78 L1604.67 1484.68 L1589.44 1495.81 L1574.22 1507.20 L1559.00 1518.83 L1543.78 1530.84 L1528.56 1543.21 L1513.34 1555.83 L1498.12 1568.70 L1482.90 1582.07 L1467.67 1595.68 L1452.45 1609.79 L1437.23 1624.39 L1422.01 1639.61 L1406.79 1655.46 L1391.57 1672.04 L1376.35 1689.49 L1361.13 1707.80 L1345.90 1727.11 L1330.68 1747.40 L1315.46 1768.81 L1300.24 1791.34 L1285.02 1815.10 L1269.80 1839.85 L1254.70 1865.84 L1239.48 1892.94 L1224.26 1921.03 L1209.04 1949.99 L1193.82 1979.81 L1178.60 2010.13 L1163.37 2040.70 L1148.15 2071.02 L1132.93 2100.97 L1117.71 2130.18 L1102.49 2158.27 L1087.27 2185.25 L1072.05 2210.74 L1056.83 2234.87 L1041.60 2257.27 L1026.38 2278.18 L1011.16 2297.37 L995.94 2315.06 L980.72 2331.03 L965.50 2345.38 L950.28 2358.25 L935.05 2369.64 L919.83 2379.54 L904.61 2388.20 L889.51 2395.63 L874.29 2401.82 L859.07 2407.01 L843.85 2411.34 L828.63 2414.81 L813.41 2417.66 L798.19 2419.88 L782.97 2421.49 L767.75 2422.85 L752.52 2423.84 L737.30 2424.59 L722.08 2425.08 L706.86 2425.33 L691.64 2425.58 L676.42 2425.70 L661.20 2425.82 L645.98 2425.82 L630.75 2425.82 L615.53 2425.82 L600.31 2425.82 L600.31 2425.82 Z" stroke-linejoin="round"/>
	</defs>
	<defs>
		<clipPath id="clipPath_EEEIJeVi">
			<use xlink:href="#path_IZNZWJui"/>
		</clipPath>
	</defs>
	<use xlink:href="#path_IZNZWJui" style="stroke:none;fill:#FF3333;fill-opacity:0.25"/>
	<use xlink:href="#path_IZNZWJui" style="fill:none;stroke:#FF0000;stroke-opacity:0.25;stroke-width:17.28" clip-path="url(#clipPath_EEEIJeVi)"/>
	<path d=" M585.09 2425.95 L600.31 2425.95 L615.53 2425.95 L630.75 2425.95 L645.98 2425.95 L661.20 2425.95 L676.42 2425.95 L691.64 2425.82 L706.86 2425.82 L721.96 2425.82 L737.18 2425.70 L752.40 2425.45 L767.62 2425.20 L782.84 2424.71 L798.06 2423.97 L813.28 2422.98 L828.51 2421.49 L843.73 2419.51 L858.95 2416.79 L874.17 2413.20 L889.39 2408.50 L904.61 2402.43 L919.83 2395.01 L935.05 2385.85 L950.28 2374.71 L965.50 2361.60 L980.72 2346.13 L995.94 2328.43 L1011.16 2308.38 L1026.38 2285.86 L1041.60 2260.86 L1056.83 2233.63 L1072.05 2204.18 L1087.14 2172.87 L1102.37 2139.70 L1117.59 2105.05 L1132.81 2069.29 L1148.03 2032.78 L1163.25 1995.78 L1178.47 1958.65 L1193.69 1922.02 L1208.91 1885.89 L1224.13 1850.74 L1239.36 1816.58 L1254.58 1783.54 L1269.80 1751.74 L1285.02 1721.05 L1300.24 1691.72 L1315.46 1663.50 L1330.68 1636.64 L1345.90 1610.90 L1361.13 1586.28 L1376.35 1562.76 L1391.57 1540.24 L1406.79 1518.71 L1422.01 1498.04 L1437.23 1478.24 L1452.33 1459.18 L1467.55 1440.74 L1482.77 1422.92 L1497.99 1405.60 L1513.21 1388.77 L1528.44 1372.43 L1543.66 1356.47 L1558.88 1340.87 L1574.10 1325.78 L1589.32 1311.05 L1604.54 1296.82 L1619.76 1282.96 L1634.98 1269.34 L1650.21 1256.23 L1665.43 1243.48 L1680.65 1231.10 L1695.87 1219.10 L1711.09 1207.34 L1726.31 1195.96 L1741.53 1184.94 L1756.76 1174.30 L1771.98 1163.91 L1787.20 1153.76 L1802.30 1143.98 L1817.52 1134.45 L1832.74 1125.29 L1847.96 1116.26 L1863.18 1107.60 L1878.40 1099.18 L1893.62 1091.01 L1908.84 1083.09 L1924.07 1075.42 L1939.29 1067.87 L1954.51 1060.69 L1969.73 1053.64 L1984.95 1046.83 L2000.17 1040.15 L2015.39 1033.84 L2030.61 1027.53 L2045.84 1021.59 L2061.06 1015.65 L2076.28 1010.08 L2091.50 1004.51 L2106.72 999.19 L2121.94 993.99 L2137.16 989.04 L2152.38 984.21 L2167.48 979.51 L2182.70 974.93 L2197.92 970.48 L2213.14 966.15 L2228.37 962.06 L2243.59 957.98 L2258.81 954.02 L2274.03 950.31 L2289.25 946.59 L2304.47 943.00 L2319.69 939.54 L2334.91 936.20 L2350.14 932.98 L2365.36 929.76 L2380.58 926.79 L2395.80 923.82 L2411.02 920.98 L2426.24 918.13 L2441.46 915.41 L2456.68 912.81 L2471.91 910.33 L2487.13 907.86 L2502.35 905.38 L2517.57 903.16 L2532.67 900.80 L2547.89 898.70 L2563.11 896.60 L2578.33 894.49 L2593.55 892.51 L2608.77 890.53 L2623.99 888.68 L2639.22 886.94 L2654.44 885.09 L2669.66 883.36 L2684.88 881.75 L2700.10 880.14 L2715.32 878.53 L2730.54 877.04 L2745.76 875.56 L2760.99 874.07 L2776.21 872.71 L2791.43 871.35 L2806.65 870.11 L2821.87 868.75 L2837.09 867.51 L2852.31 866.28 L2867.53 865.16 L2882.76 864.05 L2897.85 862.94 L2913.07 861.82 L2928.30 860.71 L2943.52 859.72 L2958.74 858.73 L2973.96 857.74 L2989.18 856.75 L3004.40 855.88 L3019.62 854.89 L3034.84 854.03 L3050.07 853.16 L3065.29 852.29 L3080.51 851.55 L3095.73 850.68 L3110.95 849.94 L3126.17 849.20 L3141.39 848.46 L3156.61 847.71 L3171.84 846.97 L3187.06 846.23 L3202.28 845.61 L3217.50 844.87 L3232.72 844.25 L3247.94 843.51 L3263.04 842.89 L3278.26 842.27 L3293.48 841.65 L3308.70 841.03 L3323.93 840.41 L3339.15 839.92 L3354.37 839.30 L3369.59 838.68 L3384.81 838.18 L3400.03 837.57 L3415.25 837.07 L3430.47 836.45 L3445.70 835.96 L3460.92 835.34 L3476.14 834.84 L3491.36 834.35 L3506.58 833.85 L3521.80 833.23 L3537.02 832.74 L3552.24 832.24 L3567.47 831.75 L3582.69 831.25 L3597.91 830.76 L3613.01 830.26 L3628.23 829.77 L3643.45 829.27 L3658.67 828.78 L3673.89 828.28 L3689.11 827.79 L3704.33 827.29 L3719.55 826.80 L3734.78 826.30 L3750.00 825.81 L3765.22 825.31 L3780.44 824.82 L3795.66 824.45" stroke-linejoin="round" style="fill:none;stroke:#0000FF;stroke-width:8.64"/>
	<path d=" M585.09 2425.95 L600.31 2425.95 L615.53 2425.95 L630.75 2425.95 L645.98 2425.95 L661.20 2425.95 L676.42 2425.95 L691.64 2425.95 L706.86 2425.82 L721.96 2425.82 L737.18 2425.70 L752.40 2425.58 L767.62 2425.45 L782.84 2425.08 L798.06 2424.59 L813.28 2423.84 L828.51 2422.85 L843.73 2421.49 L858.95 2419.64 L874.17 2417.16 L889.39 2413.82 L904.61 2409.74 L919.83 2404.54 L935.05 2398.23 L950.28 2390.55 L965.50 2381.52 L980.72 2370.88 L995.94 2358.62 L1011.16 2344.76 L1026.38 2329.30 L1041.60 2312.09 L1056.83 2293.28 L1072.05 2272.86 L1087.14 2251.21 L1102.37 2228.31 L1117.59 2204.43 L1132.81 2179.80 L1148.03 2154.55 L1163.25 2128.94 L1178.47 2103.32 L1193.69 2077.95 L1208.91 2053.08 L1224.13 2028.82 L1239.36 2005.18 L1254.58 1982.29 L1269.80 1960.26 L1285.02 1939.10 L1300.24 1918.80 L1315.46 1899.37 L1330.68 1880.69 L1345.90 1862.87 L1361.13 1845.91 L1376.35 1829.58 L1391.57 1813.98 L1406.79 1799.13 L1422.01 1784.90 L1437.23 1771.17 L1452.33 1757.92 L1467.55 1745.18 L1482.77 1732.80 L1497.99 1720.92 L1513.21 1709.16 L1528.44 1697.90 L1543.66 1686.77 L1558.88 1676.12 L1574.10 1665.60 L1589.32 1655.46 L1604.54 1645.56 L1619.76 1635.90 L1634.98 1626.50 L1650.21 1617.46 L1665.43 1608.68 L1680.65 1600.01 L1695.87 1591.72 L1711.09 1583.55 L1726.31 1575.76 L1741.53 1568.09 L1756.76 1560.66 L1771.98 1553.48 L1787.20 1546.43 L1802.30 1539.75 L1817.52 1533.06 L1832.74 1526.75 L1847.96 1520.56 L1863.18 1514.50 L1878.40 1508.68 L1893.62 1502.99 L1908.84 1497.42 L1924.07 1492.10 L1939.29 1487.03 L1954.51 1481.95 L1969.73 1477.13 L1984.95 1472.30 L2000.17 1467.72 L2015.39 1463.39 L2030.61 1459.06 L2045.84 1454.85 L2061.06 1450.77 L2076.28 1446.93 L2091.50 1443.09 L2106.72 1439.38 L2121.94 1435.79 L2137.16 1432.33 L2152.38 1428.99 L2167.48 1425.64 L2182.70 1422.55 L2197.92 1419.46 L2213.14 1416.49 L2228.37 1413.64 L2243.59 1410.79 L2258.81 1408.07 L2274.03 1405.47 L2289.25 1402.87 L2304.47 1400.40 L2319.69 1398.05 L2334.91 1395.70 L2350.14 1393.47 L2365.36 1391.24 L2380.58 1389.14 L2395.80 1387.16 L2411.02 1385.05 L2426.24 1383.20 L2441.46 1381.34 L2456.68 1379.48 L2471.91 1377.75 L2487.13 1376.02 L2502.35 1374.41 L2517.57 1372.80 L2532.67 1371.19 L2547.89 1369.71 L2563.11 1368.22 L2578.33 1366.74 L2593.55 1365.38 L2608.77 1364.14 L2623.99 1362.78 L2639.22 1361.54 L2654.44 1360.30 L2669.66 1359.06 L2684.88 1357.95 L2700.10 1356.84 L2715.32 1355.72 L2730.54 1354.73 L2745.76 1353.62 L2760.99 1352.63 L2776.21 1351.64 L2791.43 1350.77 L2806.65 1349.78 L2821.87 1348.92 L2837.09 1348.05 L2852.31 1347.31 L2867.53 1346.44 L2882.76 1345.70 L2897.85 1344.83 L2913.07 1344.09 L2928.30 1343.35 L2943.52 1342.61 L2958.74 1341.99 L2973.96 1341.24 L2989.18 1340.63 L3004.40 1340.01 L3019.62 1339.39 L3034.84 1338.77 L3050.07 1338.15 L3065.29 1337.53 L3080.51 1337.04 L3095.73 1336.42 L3110.95 1335.92 L3126.17 1335.30 L3141.39 1334.81 L3156.61 1334.31 L3171.84 1333.82 L3187.06 1333.32 L3202.28 1332.83 L3217.50 1332.33 L3232.72 1331.96 L3247.94 1331.47 L3263.04 1330.97 L3278.26 1330.60 L3293.48 1330.11 L3308.70 1329.74 L3323.93 1329.36 L3339.15 1328.87 L3354.37 1328.50 L3369.59 1328.13 L3384.81 1327.76 L3400.03 1327.26 L3415.25 1326.89 L3430.47 1326.52 L3445.70 1326.15 L3460.92 1325.78 L3476.14 1325.40 L3491.36 1325.03 L3506.58 1324.66 L3521.80 1324.29 L3537.02 1324.04 L3552.24 1323.67 L3567.47 1323.30 L3582.69 1322.93 L3597.91 1322.56 L3613.01 1322.19 L3628.23 1321.94 L3643.45 1321.57 L3658.67 1321.20 L3673.89 1320.83 L3689.11 1320.58 L3704.33 1320.21 L3719.55 1319.83 L3734.78 1319.46 L3750.00 1319.22 L3765.22 1318.84 L3780.44 1318.47 L3795.66 1318.23" stroke-linejoin="round" style="fill:none;stroke:#FF0000;stroke-width:8.64"/>
	<line x1="521.73" y1="2489.19" x2="521.73" y2="100.86" style="stroke:#000000;stroke-width:5.76"/>
	<line x1="521.73" y1="2425.82" x2="481.76" y2="2425.82" style="stroke:#000000;stroke-width:5.76"/>
	<text x="461.83" y="2460.85" style="font-family:'Helvetica';font-size:99.99px;fill:#000000" text-anchor="end">0.00</text>
	<line x1="521.73" y1="1973.50" x2="481.76" y2="1973.50" style="stroke:#000000;stroke-width:5.76"/>
	<text x="461.83" y="2008.53" style="font-family:'Helvetica';font-size:99.99px;fill:#000000" text-anchor="end">0.10</text>
	<line x1="521.73" y1="1521.18" x2="481.76" y2="1521.18" style="stroke:#000000;stroke-width:5.76"/>
	<text x="461.83" y="1556.21" style="font-family:'Helvetica';font-size:99.99px;fill:#000000" text-anchor="end">0.20</text>
	<line x1="521.73" y1="1068.86" x2="481.76" y2="1068.86" style="stroke:#000000;stroke-width:5.76"/>
	<text x="461.83" y="1103.89" style="font-family:'Helvetica';font-size:99.99px;fill:#000000" text-anchor="end">0.30</text>
	<line x1="521.73" y1="616.54" x2="481.76" y2="616.54" style="stroke:#000000;stroke-width:5.76"/>
	<text x="461.83" y="651.57" style="font-family:'Helvetica';font-size:99.99px;fill:#000000" text-anchor="end">0.40</text>
	<line x1="521.73" y1="164.22" x2="481.76" y2="164.22" style="stroke:#000000;stroke-width:5.76"/>
	<text x="461.83" y="199.25" style="font-family:'Helvetica';font-size:99.99px;fill:#000000" text-anchor="end">0.50</text>
	<text x="190.71" y="1294.96" style="font-family:'Helvetica';font-size:99.99px;fill:#000000" transform="rotate(-90 190.71,1294.96)" text-anchor="middle">Cumulative incidence (%)</text>
	<line x1="521.73" y1="2489.19" x2="3859.02" y2="2489.19" style="stroke:#000000;stroke-width:5.76"/>
	<line x1="585.09" y1="2489.19" x2="585.09" y2="2529.16" style="stroke:#000000;stroke-width:5.76"/>
	<text x="585.09" y="2619.14" style="font-family:'Helvetica';font-size:99.99px;fill:#000000" text-anchor="middle">0</text>
	<line x1="1345.90" y1="2489.19" x2="1345.90" y2="2529.16" style="stroke:#000000;stroke-width:5.76"/>
	<text x="1345.90" y="2619.14" style="font-family:'Helvetica';font-size:99.99px;fill:#000000" text-anchor="middle">50</text>
	<line x1="2106.72" y1="2489.19" x2="2106.72" y2="2529.16" style="stroke:#000000;stroke-width:5.76"/>
	<text x="2106.72" y="2619.14" style="font-family:'Helvetica';font-size:99.99px;fill:#000000" text-anchor="middle">100</text>
	<line x1="2867.53" y1="2489.19" x2="2867.53" y2="2529.16" style="stroke:#000000;stroke-width:5.76"/>
	<text x="2867.53" y="2619.14" style="font-family:'Helvetica';font-size:99.99px;fill:#000000" text-anchor="middle">150</text>
	<line x1="3628.35" y1="2489.19" x2="3628.35" y2="2529.16" style="stroke:#000000;stroke-width:5.76"/>
	<text x="3628.35" y="2619.14" style="font-family:'Helvetica';font-size:99.99px;fill:#000000" text-anchor="middle">200</text>
	<text x="2190.38" y="2729.16" style="font-family:'Helvetica';font-size:99.99px;fill:#000000" text-anchor="middle">Days from 1 March 2020</text>
	<rect x="1933.59" y="2128.20" width="1890.90" height="326.46" style="fill:#FFFFFF"/>
	<rect x="1936.47" y="2131.08" width="1885.14" height="320.70" style="fill:none;stroke:#000000;stroke-width:5.76"/>
	<rect x="1976.78" y="2171.51" width="374.34" height="99.99" style="fill:#3333FF;fill-opacity:0.25"/>
	<rect x="1981.10" y="2175.83" width="365.70" height="91.35" style="fill:none;stroke:#0000FF;stroke-opacity:0.25;stroke-width:8.64"/>
	<rect x="1976.78" y="2311.47" width="374.34" height="99.99" style="fill:#FF3333;fill-opacity:0.25"/>
	<rect x="1981.10" y="2315.79" width="365.70" height="91.35" style="fill:none;stroke:#FF0000;stroke-opacity:0.25;stroke-width:8.64"/>
	<text x="2411.14" y="2256.53" style="font-family:'Helvetica';font-size:99.99px;fill:#000000">Non-current anticoagulant use</text>
	<text x="2411.14" y="2396.50" style="font-family:'Helvetica';font-size:99.99px;fill:#000000">Current anticoagulant use</text>
</svg>
