<?xml version="1.0" encoding="UTF-8" standalone="no"?>
<!-- This is a Stata 16.1 generated SVG file (http://www.stata.com) -->

<svg version="1.1" width="5.50in" height="4.00in" viewBox="0 0 3960 2880" xmlns="http://www.w3.org/2000/svg" xmlns:xlink="http://www.w3.org/1999/xlink">
	<desc>Stata Graph - Graph</desc>
	<rect x="0" y="0" width="3960" height="2880" style="fill:#EAF2F3;stroke:none"/>
	<rect x="0.00" y="0.00" width="3959.88" height="2880.00" style="fill:#EAF2F3"/>
	<rect x="2.88" y="2.88" width="3954.12" height="2874.24" style="fill:none;stroke:#EAF2F3;stroke-width:5.76"/>
	<rect x="521.73" y="100.86" width="3337.29" height="2388.33" style="fill:#FFFFFF"/>
	<rect x="524.61" y="103.74" width="3331.53" height="2382.57" style="fill:none;stroke:#FFFFFF;stroke-width:5.76"/>
	<line x1="521.73" y1="2425.82" x2="3859.02" y2="2425.82" style="stroke:#EAF2F3;stroke-width:8.64"/>
	<line x1="521.73" y1="1860.39" x2="3859.02" y2="1860.39" style="stroke:#EAF2F3;stroke-width:8.64"/>
	<line x1="521.73" y1="1294.96" x2="3859.02" y2="1294.96" style="stroke:#EAF2F3;stroke-width:8.64"/>
	<line x1="521.73" y1="729.53" x2="3859.02" y2="729.53" style="stroke:#EAF2F3;stroke-width:8.64"/>
	<defs>
		<path id="path_uwfZsZhD" d="M600.31 2425.82 L600.31 2425.82 L615.53 2425.82 L630.75 2425.82 L645.98 2425.82 L661.20 2425.82 L676.42 2425.82 L691.64 2425.82 L706.86 2425.70 L722.08 2425.45 L737.30 2425.20 L752.52 2424.83 L767.75 2424.21 L782.97 2423.22 L798.19 2421.99 L813.41 2420.25 L828.63 2417.90 L843.85 2414.93 L859.07 2411.34 L874.29 2406.89 L889.51 2401.69 L904.61 2395.38 L919.83 2388.33 L935.05 2380.16 L950.28 2371.12 L965.50 2361.10 L980.72 2350.21 L995.94 2338.58 L1011.16 2326.08 L1026.38 2312.96 L1041.60 2299.22 L1056.83 2284.99 L1072.05 2270.39 L1087.27 2255.54 L1102.49 2240.56 L1117.71 2225.47 L1132.93 2210.37 L1148.15 2195.39 L1163.37 2180.67 L1178.60 2166.19 L1193.82 2151.96 L1209.04 2138.22 L1224.26 2124.85 L1239.48 2111.98 L1254.70 2099.48 L1269.80 2087.36 L1285.02 2075.72 L1300.24 2064.46 L1315.46 2053.70 L1330.68 2043.30 L1345.90 2033.28 L1361.13 2023.75 L1376.35 2014.59 L1391.57 2005.68 L1406.79 1997.26 L1422.01 1989.10 L1437.23 1981.30 L1452.45 1973.87 L1467.67 1966.70 L1482.90 1959.77 L1498.12 1953.08 L1513.34 1946.65 L1528.56 1940.58 L1543.78 1934.64 L1559.00 1928.83 L1574.22 1923.38 L1589.44 1917.94 L1604.67 1912.86 L1619.76 1907.79 L1634.98 1902.84 L1650.21 1898.14 L1665.43 1893.43 L1680.65 1888.98 L1695.87 1884.52 L1711.09 1880.19 L1726.31 1875.86 L1741.53 1871.65 L1756.76 1867.57 L1771.98 1863.49 L1787.20 1859.40 L1802.42 1855.44 L1817.64 1851.61 L1832.86 1847.77 L1848.08 1843.93 L1863.30 1840.22 L1878.53 1836.63 L1893.75 1832.92 L1908.97 1829.33 L1924.19 1825.86 L1939.41 1822.40 L1954.63 1818.93 L1969.85 1815.47 L1984.95 1812.13 L2000.17 1808.91 L2015.39 1805.57 L2030.61 1802.35 L2045.84 1799.13 L2061.06 1796.04 L2076.28 1792.95 L2091.50 1789.85 L2106.72 1786.76 L2121.94 1783.79 L2137.16 1780.82 L2152.38 1777.85 L2167.61 1775.00 L2182.83 1772.03 L2198.05 1769.19 L2213.27 1766.46 L2228.49 1763.62 L2243.71 1760.89 L2258.93 1758.17 L2274.15 1755.45 L2289.38 1752.73 L2304.60 1750.13 L2319.82 1747.53 L2335.04 1744.93 L2350.14 1742.33 L2365.36 1739.73 L2380.58 1737.26 L2395.80 1734.78 L2411.02 1732.31 L2426.24 1729.83 L2441.46 1727.36 L2456.68 1725.01 L2471.91 1722.53 L2487.13 1720.18 L2502.35 1717.83 L2517.57 1715.60 L2532.79 1713.25 L2548.01 1710.90 L2563.23 1708.67 L2578.45 1706.44 L2593.68 1704.21 L2608.90 1701.99 L2624.12 1699.76 L2639.34 1697.66 L2654.56 1695.43 L2669.78 1693.32 L2685.00 1691.22 L2700.22 1689.12 L2715.32 1687.01 L2730.54 1684.91 L2745.76 1682.81 L2760.99 1680.70 L2776.21 1678.72 L2791.43 1676.74 L2806.65 1674.64 L2821.87 1672.66 L2837.09 1670.68 L2852.31 1668.70 L2867.53 1666.84 L2882.76 1664.86 L2897.98 1662.88 L2913.20 1661.02 L2928.42 1659.17 L2943.64 1657.19 L2958.86 1655.33 L2974.08 1653.48 L2989.30 1651.62 L3004.53 1649.76 L3019.75 1647.91 L3034.97 1646.17 L3050.19 1644.32 L3065.41 1642.59 L3080.51 1640.73 L3095.73 1639.00 L3110.95 1637.26 L3126.17 1635.41 L3141.39 1633.67 L3156.61 1631.94 L3171.84 1630.21 L3187.06 1628.48 L3202.28 1626.87 L3217.50 1625.14 L3232.72 1623.40 L3247.94 1621.79 L3263.16 1620.06 L3278.39 1618.45 L3293.61 1616.72 L3308.83 1615.11 L3324.05 1613.50 L3339.27 1611.77 L3354.49 1610.16 L3369.71 1608.55 L3384.93 1606.94 L3400.16 1605.34 L3415.38 1603.85 L3430.47 1602.24 L3445.70 1600.63 L3460.92 1599.02 L3476.14 1597.54 L3491.36 1595.93 L3506.58 1594.44 L3521.80 1592.84 L3537.02 1591.35 L3552.24 1589.74 L3567.47 1588.26 L3582.69 1586.77 L3597.91 1585.29 L3613.13 1583.68 L3628.35 1582.19 L3643.57 1580.71 L3658.79 1579.22 L3674.01 1577.74 L3689.24 1576.25 L3704.46 1574.89 L3719.68 1573.41 L3734.90 1571.92 L3750.12 1570.44 L3765.34 1568.95 L3780.56 1567.59 L3795.66 1566.11 L3795.66 1222.19 L3780.56 1224.30 L3765.34 1226.28 L3750.12 1228.26 L3734.90 1230.36 L3719.68 1232.34 L3704.46 1234.44 L3689.24 1236.42 L3674.01 1238.53 L3658.79 1240.51 L3643.57 1242.61 L3628.35 1244.72 L3613.13 1246.82 L3597.91 1248.92 L3582.69 1250.90 L3567.47 1253.01 L3552.24 1255.11 L3537.02 1257.22 L3521.80 1259.44 L3506.58 1261.55 L3491.36 1263.65 L3476.14 1265.75 L3460.92 1267.98 L3445.70 1270.09 L3430.47 1272.19 L3415.38 1274.42 L3400.16 1276.64 L3384.93 1278.75 L3369.71 1280.98 L3354.49 1283.20 L3339.27 1285.43 L3324.05 1287.66 L3308.83 1289.89 L3293.61 1292.11 L3278.39 1294.34 L3263.16 1296.57 L3247.94 1298.92 L3232.72 1301.15 L3217.50 1303.50 L3202.28 1305.73 L3187.06 1308.08 L3171.84 1310.43 L3156.61 1312.78 L3141.39 1315.13 L3126.17 1317.48 L3110.95 1319.83 L3095.73 1322.19 L3080.51 1324.54 L3065.41 1327.01 L3050.19 1329.36 L3034.97 1331.84 L3019.75 1334.31 L3004.53 1336.67 L2989.30 1339.14 L2974.08 1341.62 L2958.86 1344.21 L2943.64 1346.69 L2928.42 1349.16 L2913.20 1351.76 L2897.98 1354.36 L2882.76 1356.84 L2867.53 1359.44 L2852.31 1362.04 L2837.09 1364.76 L2821.87 1367.36 L2806.65 1369.96 L2791.43 1372.68 L2776.21 1375.40 L2760.99 1378.12 L2745.76 1380.85 L2730.54 1383.57 L2715.32 1386.29 L2700.22 1389.14 L2685.00 1391.98 L2669.78 1394.83 L2654.56 1397.68 L2639.34 1400.52 L2624.12 1403.37 L2608.90 1406.34 L2593.68 1409.31 L2578.45 1412.28 L2563.23 1415.25 L2548.01 1418.22 L2532.79 1421.31 L2517.57 1424.41 L2502.35 1427.50 L2487.13 1430.59 L2471.91 1433.69 L2456.68 1436.91 L2441.46 1440.12 L2426.24 1443.34 L2411.02 1446.68 L2395.80 1449.90 L2380.58 1453.24 L2365.36 1456.58 L2350.14 1460.05 L2335.04 1463.51 L2319.82 1466.98 L2304.60 1470.44 L2289.38 1473.91 L2274.15 1477.50 L2258.93 1481.09 L2243.71 1484.80 L2228.49 1488.51 L2213.27 1492.22 L2198.05 1495.94 L2182.83 1499.77 L2167.61 1503.61 L2152.38 1507.57 L2137.16 1511.53 L2121.94 1515.49 L2106.72 1519.57 L2091.50 1523.66 L2076.28 1527.74 L2061.06 1531.95 L2045.84 1536.16 L2030.61 1540.49 L2015.39 1544.82 L2000.17 1549.27 L1984.95 1553.73 L1969.85 1558.31 L1954.63 1562.89 L1939.41 1567.47 L1924.19 1572.17 L1908.97 1577.00 L1893.75 1581.82 L1878.53 1586.65 L1863.30 1591.72 L1848.08 1596.67 L1832.86 1601.87 L1817.64 1606.94 L1802.42 1612.27 L1787.20 1617.59 L1771.98 1623.03 L1756.76 1628.48 L1741.53 1634.05 L1726.31 1639.74 L1711.09 1645.43 L1695.87 1651.25 L1680.65 1657.31 L1665.43 1663.38 L1650.21 1669.56 L1634.98 1675.87 L1619.76 1682.43 L1604.67 1689.12 L1589.44 1696.05 L1574.22 1703.22 L1559.00 1710.53 L1543.78 1718.20 L1528.56 1726.12 L1513.34 1734.29 L1498.12 1742.83 L1482.90 1751.74 L1467.67 1761.02 L1452.45 1770.67 L1437.23 1780.82 L1422.01 1791.34 L1406.79 1802.23 L1391.57 1813.74 L1376.35 1825.74 L1361.13 1838.36 L1345.90 1851.48 L1330.68 1865.09 L1315.46 1879.45 L1300.24 1894.42 L1285.02 1909.89 L1269.80 1926.11 L1254.70 1942.94 L1239.48 1960.39 L1224.26 1978.58 L1209.04 1997.26 L1193.82 2016.57 L1178.60 2036.37 L1163.37 2056.67 L1148.15 2077.33 L1132.93 2098.37 L1117.71 2119.41 L1102.49 2140.45 L1087.27 2161.36 L1072.05 2182.03 L1056.83 2202.20 L1041.60 2221.88 L1026.38 2241.06 L1011.16 2259.37 L995.94 2276.95 L980.72 2293.53 L965.50 2309.25 L950.28 2323.97 L935.05 2337.59 L919.83 2350.09 L904.61 2361.47 L889.51 2371.87 L874.29 2381.02 L859.07 2389.19 L843.85 2396.37 L828.63 2402.43 L813.41 2407.63 L798.19 2411.96 L782.97 2415.55 L767.75 2418.40 L752.52 2420.63 L737.30 2422.23 L722.08 2423.47 L706.86 2424.34 L691.64 2424.96 L676.42 2425.33 L661.20 2425.58 L645.98 2425.70 L630.75 2425.82 L615.53 2425.82 L600.31 2425.82 L600.31 2425.82 Z" stroke-linejoin="round"/>
	</defs>
	<defs>
		<clipPath id="clipPath_BBukLhTw">
			<use xlink:href="#path_uwfZsZhD"/>
		</clipPath>
	</defs>
	<use xlink:href="#path_uwfZsZhD" style="stroke:none;fill:#3333FF;fill-opacity:0.25"/>
	<use xlink:href="#path_uwfZsZhD" style="fill:none;stroke:#0000FF;stroke-opacity:0.25;stroke-width:17.28" clip-path="url(#clipPath_BBukLhTw)"/>
	<defs>
		<path id="path_UnNUYHkF" d="M600.31 2425.82 L600.31 2425.82 L615.53 2425.82 L630.75 2425.82 L645.98 2425.82 L661.20 2425.82 L676.42 2425.82 L691.64 2425.82 L706.86 2425.70 L722.08 2425.58 L737.30 2425.45 L752.52 2425.08 L767.75 2424.71 L782.97 2423.97 L798.19 2423.10 L813.41 2421.86 L828.63 2420.25 L843.85 2418.15 L859.07 2415.55 L874.29 2412.33 L889.51 2408.50 L904.61 2404.04 L919.83 2398.84 L935.05 2393.03 L950.28 2386.35 L965.50 2379.17 L980.72 2371.12 L995.94 2362.59 L1011.16 2353.43 L1026.38 2343.77 L1041.60 2333.63 L1056.83 2323.11 L1072.05 2312.34 L1087.27 2301.33 L1102.49 2290.19 L1117.71 2279.05 L1132.93 2267.91 L1148.15 2256.78 L1163.37 2245.76 L1178.60 2235.12 L1193.82 2224.60 L1209.04 2214.33 L1224.26 2204.43 L1239.48 2194.77 L1254.70 2185.49 L1269.80 2176.58 L1285.02 2167.92 L1300.24 2159.50 L1315.46 2151.46 L1330.68 2143.66 L1345.90 2136.24 L1361.13 2129.06 L1376.35 2122.26 L1391.57 2115.57 L1406.79 2109.26 L1422.01 2103.20 L1437.23 2097.38 L1452.45 2091.69 L1467.67 2086.37 L1482.90 2081.17 L1498.12 2076.09 L1513.34 2071.39 L1528.56 2066.69 L1543.78 2062.23 L1559.00 2057.90 L1574.22 2053.82 L1589.44 2049.74 L1604.67 2045.90 L1619.76 2042.06 L1634.98 2038.35 L1650.21 2034.76 L1665.43 2031.30 L1680.65 2027.95 L1695.87 2024.61 L1711.09 2021.27 L1726.31 2018.05 L1741.53 2014.96 L1756.76 2011.74 L1771.98 2008.77 L1787.20 2005.68 L1802.42 2002.71 L1817.64 1999.86 L1832.86 1996.89 L1848.08 1994.05 L1863.30 1991.32 L1878.53 1988.48 L1893.75 1985.75 L1908.97 1983.03 L1924.19 1980.43 L1939.41 1977.83 L1954.63 1975.24 L1969.85 1972.64 L1984.95 1970.16 L2000.17 1967.69 L2015.39 1965.21 L2030.61 1962.74 L2045.84 1960.39 L2061.06 1958.03 L2076.28 1955.68 L2091.50 1953.33 L2106.72 1950.98 L2121.94 1948.75 L2137.16 1946.52 L2152.38 1944.30 L2167.61 1942.07 L2182.83 1939.97 L2198.05 1937.86 L2213.27 1935.63 L2228.49 1933.53 L2243.71 1931.55 L2258.93 1929.45 L2274.15 1927.34 L2289.38 1925.36 L2304.60 1923.38 L2319.82 1921.40 L2335.04 1919.42 L2350.14 1917.44 L2365.36 1915.59 L2380.58 1913.61 L2395.80 1911.75 L2411.02 1909.89 L2426.24 1908.04 L2441.46 1906.18 L2456.68 1904.32 L2471.91 1902.59 L2487.13 1900.74 L2502.35 1899.00 L2517.57 1897.27 L2532.79 1895.54 L2548.01 1893.81 L2563.23 1892.07 L2578.45 1890.34 L2593.68 1888.61 L2608.90 1887.00 L2624.12 1885.39 L2639.34 1883.66 L2654.56 1882.05 L2669.78 1880.44 L2685.00 1878.83 L2700.22 1877.22 L2715.32 1875.61 L2730.54 1874.00 L2745.76 1872.52 L2760.99 1870.91 L2776.21 1869.43 L2791.43 1867.82 L2806.65 1866.33 L2821.87 1864.85 L2837.09 1863.36 L2852.31 1861.88 L2867.53 1860.39 L2882.76 1858.91 L2897.98 1857.42 L2913.20 1856.06 L2928.42 1854.58 L2943.64 1853.09 L2958.86 1851.73 L2974.08 1850.37 L2989.30 1848.88 L3004.53 1847.52 L3019.75 1846.16 L3034.97 1844.80 L3050.19 1843.44 L3065.41 1842.08 L3080.51 1840.72 L3095.73 1839.35 L3110.95 1837.99 L3126.17 1836.63 L3141.39 1835.39 L3156.61 1834.03 L3171.84 1832.79 L3187.06 1831.43 L3202.28 1830.20 L3217.50 1828.83 L3232.72 1827.60 L3247.94 1826.36 L3263.16 1825.12 L3278.39 1823.88 L3293.61 1822.65 L3308.83 1821.41 L3324.05 1820.17 L3339.27 1818.93 L3354.49 1817.70 L3369.71 1816.46 L3384.93 1815.22 L3400.16 1813.98 L3415.38 1812.87 L3430.47 1811.63 L3445.70 1810.52 L3460.92 1809.28 L3476.14 1808.17 L3491.36 1806.93 L3506.58 1805.82 L3521.80 1804.58 L3537.02 1803.47 L3552.24 1802.35 L3567.47 1801.24 L3582.69 1800.00 L3597.91 1798.89 L3613.13 1797.77 L3628.35 1796.66 L3643.57 1795.54 L3658.79 1794.43 L3674.01 1793.32 L3689.24 1792.20 L3704.46 1791.09 L3719.68 1789.98 L3734.90 1788.99 L3750.12 1787.87 L3765.34 1786.76 L3780.56 1785.64 L3795.66 1784.65 L3795.66 1628.97 L3780.56 1630.33 L3765.34 1631.69 L3750.12 1632.93 L3734.90 1634.29 L3719.68 1635.65 L3704.46 1637.02 L3689.24 1638.38 L3674.01 1639.74 L3658.79 1641.10 L3643.57 1642.46 L3628.35 1643.82 L3613.13 1645.18 L3597.91 1646.67 L3582.69 1648.03 L3567.47 1649.39 L3552.24 1650.75 L3537.02 1652.11 L3521.80 1653.60 L3506.58 1654.96 L3491.36 1656.45 L3476.14 1657.81 L3460.92 1659.17 L3445.70 1660.65 L3430.47 1662.01 L3415.38 1663.50 L3400.16 1664.98 L3384.93 1666.35 L3369.71 1667.83 L3354.49 1669.32 L3339.27 1670.80 L3324.05 1672.16 L3308.83 1673.65 L3293.61 1675.13 L3278.39 1676.62 L3263.16 1678.10 L3247.94 1679.59 L3232.72 1681.07 L3217.50 1682.68 L3202.28 1684.17 L3187.06 1685.65 L3171.84 1687.14 L3156.61 1688.75 L3141.39 1690.23 L3126.17 1691.84 L3110.95 1693.32 L3095.73 1694.93 L3080.51 1696.54 L3065.41 1698.03 L3050.19 1699.64 L3034.97 1701.24 L3019.75 1702.85 L3004.53 1704.46 L2989.30 1706.07 L2974.08 1707.68 L2958.86 1709.41 L2943.64 1711.02 L2928.42 1712.63 L2913.20 1714.36 L2897.98 1715.97 L2882.76 1717.70 L2867.53 1719.44 L2852.31 1721.05 L2837.09 1722.78 L2821.87 1724.51 L2806.65 1726.24 L2791.43 1728.10 L2776.21 1729.83 L2760.99 1731.56 L2745.76 1733.42 L2730.54 1735.15 L2715.32 1737.01 L2700.22 1738.87 L2685.00 1740.60 L2669.78 1742.45 L2654.56 1744.31 L2639.34 1746.29 L2624.12 1748.15 L2608.90 1750.00 L2593.68 1751.98 L2578.45 1753.96 L2563.23 1755.94 L2548.01 1757.92 L2532.79 1759.90 L2517.57 1761.88 L2502.35 1763.86 L2487.13 1765.97 L2471.91 1767.95 L2456.68 1770.05 L2441.46 1772.16 L2426.24 1774.26 L2411.02 1776.49 L2395.80 1778.59 L2380.58 1780.82 L2365.36 1782.92 L2350.14 1785.15 L2335.04 1787.50 L2319.82 1789.73 L2304.60 1792.08 L2289.38 1794.31 L2274.15 1796.66 L2258.93 1799.01 L2243.71 1801.49 L2228.49 1803.84 L2213.27 1806.31 L2198.05 1808.79 L2182.83 1811.26 L2167.61 1813.86 L2152.38 1816.34 L2137.16 1818.93 L2121.94 1821.53 L2106.72 1824.26 L2091.50 1826.98 L2076.28 1829.70 L2061.06 1832.42 L2045.84 1835.15 L2030.61 1837.99 L2015.39 1840.84 L2000.17 1843.81 L1984.95 1846.66 L1969.85 1849.63 L1954.63 1852.72 L1939.41 1855.69 L1924.19 1858.78 L1908.97 1862.00 L1893.75 1865.09 L1878.53 1868.31 L1863.30 1871.65 L1848.08 1874.99 L1832.86 1878.34 L1817.64 1881.68 L1802.42 1885.14 L1787.20 1888.73 L1771.98 1892.20 L1756.76 1895.79 L1741.53 1899.50 L1726.31 1903.21 L1711.09 1907.05 L1695.87 1910.88 L1680.65 1914.72 L1665.43 1918.68 L1650.21 1922.76 L1634.98 1926.97 L1619.76 1931.30 L1604.67 1935.63 L1589.44 1940.21 L1574.22 1944.92 L1559.00 1949.74 L1543.78 1954.69 L1528.56 1959.89 L1513.34 1965.34 L1498.12 1970.90 L1482.90 1976.72 L1467.67 1982.78 L1452.45 1989.22 L1437.23 1995.78 L1422.01 2002.71 L1406.79 2010.01 L1391.57 2017.56 L1376.35 2025.48 L1361.13 2033.77 L1345.90 2042.43 L1330.68 2051.47 L1315.46 2060.87 L1300.24 2070.77 L1285.02 2081.05 L1269.80 2091.81 L1254.70 2102.95 L1239.48 2114.58 L1224.26 2126.59 L1209.04 2138.96 L1193.82 2151.83 L1178.60 2164.95 L1163.37 2178.44 L1148.15 2192.18 L1132.93 2206.04 L1117.71 2220.02 L1102.49 2234.00 L1087.27 2247.87 L1072.05 2261.60 L1056.83 2275.09 L1041.60 2288.21 L1026.38 2300.83 L1011.16 2313.08 L995.94 2324.84 L980.72 2335.98 L965.50 2346.50 L950.28 2356.40 L935.05 2365.56 L919.83 2373.97 L904.61 2381.77 L889.51 2388.82 L874.29 2395.01 L859.07 2400.58 L843.85 2405.53 L828.63 2409.74 L813.41 2413.32 L798.19 2416.29 L782.97 2418.77 L767.75 2420.63 L752.52 2422.23 L737.30 2423.35 L722.08 2424.21 L706.86 2424.83 L691.64 2425.20 L676.42 2425.58 L661.20 2425.70 L645.98 2425.82 L630.75 2425.82 L615.53 2425.82 L600.31 2425.82 L600.31 2425.82 Z" stroke-linejoin="round"/>
	</defs>
	<defs>
		<clipPath id="clipPath_jwQoRgsm">
			<use xlink:href="#path_UnNUYHkF"/>
		</clipPath>
	</defs>
	<use xlink:href="#path_UnNUYHkF" style="stroke:none;fill:#FF3333;fill-opacity:0.25"/>
	<use xlink:href="#path_UnNUYHkF" style="fill:none;stroke:#FF0000;stroke-opacity:0.25;stroke-width:17.28" clip-path="url(#clipPath_jwQoRgsm)"/>
	<path d=" M585.09 2425.95 L600.31 2425.95 L615.53 2425.95 L630.75 2425.95 L645.98 2425.95 L661.20 2425.82 L676.42 2425.82 L691.64 2425.70 L706.86 2425.45 L721.96 2424.96 L737.18 2424.46 L752.40 2423.60 L767.62 2422.36 L782.84 2420.75 L798.06 2418.52 L813.28 2415.80 L828.51 2412.33 L843.73 2408.00 L858.95 2402.93 L874.17 2396.74 L889.39 2389.69 L904.61 2381.64 L919.83 2372.61 L935.05 2362.46 L950.28 2351.20 L965.50 2339.07 L980.72 2325.95 L995.94 2311.85 L1011.16 2297.00 L1026.38 2281.40 L1041.60 2265.19 L1056.83 2248.48 L1072.05 2231.28 L1087.14 2213.71 L1102.37 2195.89 L1117.59 2178.07 L1132.81 2160.25 L1148.03 2142.55 L1163.25 2125.10 L1178.47 2107.90 L1193.69 2091.07 L1208.91 2074.86 L1224.13 2059.02 L1239.36 2043.67 L1254.58 2028.94 L1269.80 2014.59 L1285.02 2000.85 L1300.24 1987.61 L1315.46 1974.99 L1330.68 1962.74 L1345.90 1951.10 L1361.13 1939.84 L1376.35 1929.08 L1391.57 1918.80 L1406.79 1908.90 L1422.01 1899.50 L1437.23 1890.46 L1452.33 1881.68 L1467.55 1873.39 L1482.77 1865.34 L1497.99 1857.67 L1513.21 1850.24 L1528.44 1843.19 L1543.66 1836.26 L1558.88 1829.70 L1574.10 1823.27 L1589.32 1817.08 L1604.54 1811.14 L1619.76 1805.32 L1634.98 1799.63 L1650.21 1794.18 L1665.43 1788.74 L1680.65 1783.54 L1695.87 1778.34 L1711.09 1773.39 L1726.31 1768.44 L1741.53 1763.49 L1756.76 1758.67 L1771.98 1753.96 L1787.20 1749.26 L1802.30 1744.68 L1817.52 1740.23 L1832.74 1735.77 L1847.96 1731.32 L1863.18 1726.99 L1878.40 1722.65 L1893.62 1718.45 L1908.84 1714.36 L1924.07 1710.28 L1939.29 1706.19 L1954.51 1702.23 L1969.73 1698.27 L1984.95 1694.31 L2000.17 1690.48 L2015.39 1686.64 L2030.61 1682.93 L2045.84 1679.22 L2061.06 1675.63 L2076.28 1671.91 L2091.50 1668.45 L2106.72 1664.86 L2121.94 1661.40 L2137.16 1657.93 L2152.38 1654.47 L2167.48 1651.12 L2182.70 1647.78 L2197.92 1644.57 L2213.14 1641.22 L2228.37 1638.01 L2243.59 1634.79 L2258.81 1631.69 L2274.03 1628.60 L2289.25 1625.51 L2304.47 1622.41 L2319.69 1619.32 L2334.91 1616.35 L2350.14 1613.38 L2365.36 1610.41 L2380.58 1607.56 L2395.80 1604.72 L2411.02 1601.75 L2426.24 1599.02 L2441.46 1596.18 L2456.68 1593.33 L2471.91 1590.61 L2487.13 1587.89 L2502.35 1585.16 L2517.57 1582.44 L2532.67 1579.84 L2547.89 1577.24 L2563.11 1574.52 L2578.33 1571.92 L2593.55 1569.45 L2608.77 1566.85 L2623.99 1564.37 L2639.22 1561.77 L2654.44 1559.30 L2669.66 1556.82 L2684.88 1554.35 L2700.10 1551.87 L2715.32 1549.52 L2730.54 1547.17 L2745.76 1544.70 L2760.99 1542.34 L2776.21 1539.99 L2791.43 1537.64 L2806.65 1535.41 L2821.87 1533.06 L2837.09 1530.71 L2852.31 1528.48 L2867.53 1526.26 L2882.76 1524.03 L2897.85 1521.80 L2913.07 1519.57 L2928.30 1517.35 L2943.52 1515.12 L2958.74 1513.01 L2973.96 1510.79 L2989.18 1508.68 L3004.40 1506.58 L3019.62 1504.48 L3034.84 1502.37 L3050.07 1500.27 L3065.29 1498.16 L3080.51 1496.06 L3095.73 1493.96 L3110.95 1491.98 L3126.17 1489.87 L3141.39 1487.89 L3156.61 1485.91 L3171.84 1483.81 L3187.06 1481.83 L3202.28 1479.85 L3217.50 1477.87 L3232.72 1475.89 L3247.94 1473.91 L3263.04 1472.05 L3278.26 1470.07 L3293.48 1468.09 L3308.70 1466.24 L3323.93 1464.26 L3339.15 1462.40 L3354.37 1460.54 L3369.59 1458.56 L3384.81 1456.71 L3400.03 1454.85 L3415.25 1452.99 L3430.47 1451.14 L3445.70 1449.28 L3460.92 1447.43 L3476.14 1445.69 L3491.36 1443.84 L3506.58 1441.98 L3521.80 1440.12 L3537.02 1438.39 L3552.24 1436.53 L3567.47 1434.80 L3582.69 1432.95 L3597.91 1431.21 L3613.01 1429.48 L3628.23 1427.75 L3643.45 1425.89 L3658.67 1424.16 L3673.89 1422.43 L3689.11 1420.69 L3704.33 1418.96 L3719.55 1417.23 L3734.78 1415.50 L3750.00 1413.76 L3765.22 1412.03 L3780.44 1410.42 L3795.66 1408.69" stroke-linejoin="round" style="fill:none;stroke:#0000FF;stroke-width:8.64"/>
	<path d=" M585.09 2425.95 L600.31 2425.95 L615.53 2425.95 L630.75 2425.95 L645.98 2425.95 L661.20 2425.82 L676.42 2425.82 L691.64 2425.70 L706.86 2425.58 L721.96 2425.33 L737.18 2424.83 L752.40 2424.21 L767.62 2423.47 L782.84 2422.23 L798.06 2420.75 L813.28 2418.77 L828.51 2416.42 L843.73 2413.32 L858.95 2409.74 L874.17 2405.53 L889.39 2400.58 L904.61 2394.88 L919.83 2388.45 L935.05 2381.40 L950.28 2373.60 L965.50 2365.06 L980.72 2355.78 L995.94 2346.00 L1011.16 2335.61 L1026.38 2324.59 L1041.60 2313.21 L1056.83 2301.45 L1072.05 2289.45 L1087.14 2277.07 L1102.37 2264.57 L1117.59 2252.07 L1132.81 2239.57 L1148.03 2227.20 L1163.25 2214.82 L1178.47 2202.82 L1193.69 2191.06 L1208.91 2179.55 L1224.13 2168.54 L1239.36 2157.77 L1254.58 2147.38 L1269.80 2137.35 L1285.02 2127.70 L1300.24 2118.42 L1315.46 2109.51 L1330.68 2100.85 L1345.90 2092.68 L1361.13 2084.76 L1376.35 2077.21 L1391.57 2070.03 L1406.79 2063.10 L1422.01 2056.42 L1437.23 2050.11 L1452.33 2043.92 L1467.55 2038.10 L1482.77 2032.41 L1497.99 2027.09 L1513.21 2021.89 L1528.44 2016.82 L1543.66 2011.99 L1558.88 2007.41 L1574.10 2002.83 L1589.32 1998.50 L1604.54 1994.29 L1619.76 1990.21 L1634.98 1986.25 L1650.21 1982.41 L1665.43 1978.58 L1680.65 1974.86 L1695.87 1971.28 L1711.09 1967.81 L1726.31 1964.22 L1741.53 1960.88 L1756.76 1957.41 L1771.98 1954.07 L1787.20 1950.86 L1802.30 1947.64 L1817.52 1944.42 L1832.74 1941.33 L1847.96 1938.23 L1863.18 1935.14 L1878.40 1932.17 L1893.62 1929.20 L1908.84 1926.23 L1924.07 1923.38 L1939.29 1920.54 L1954.51 1917.69 L1969.73 1914.97 L1984.95 1912.12 L2000.17 1909.52 L2015.39 1906.80 L2030.61 1904.20 L2045.84 1901.60 L2061.06 1899.00 L2076.28 1896.40 L2091.50 1893.93 L2106.72 1891.45 L2121.94 1888.98 L2137.16 1886.63 L2152.38 1884.15 L2167.48 1881.80 L2182.70 1879.45 L2197.92 1877.10 L2213.14 1874.87 L2228.37 1872.52 L2243.59 1870.29 L2258.81 1868.06 L2274.03 1865.96 L2289.25 1863.73 L2304.47 1861.63 L2319.69 1859.40 L2334.91 1857.30 L2350.14 1855.19 L2365.36 1853.21 L2380.58 1851.11 L2395.80 1849.13 L2411.02 1847.03 L2426.24 1845.05 L2441.46 1843.07 L2456.68 1841.09 L2471.91 1839.23 L2487.13 1837.25 L2502.35 1835.39 L2517.57 1833.54 L2532.67 1831.56 L2547.89 1829.70 L2563.11 1827.84 L2578.33 1826.11 L2593.55 1824.26 L2608.77 1822.40 L2623.99 1820.67 L2639.22 1818.93 L2654.44 1817.20 L2669.66 1815.47 L2684.88 1813.74 L2700.10 1812.00 L2715.32 1810.27 L2730.54 1808.54 L2745.76 1806.93 L2760.99 1805.20 L2776.21 1803.59 L2791.43 1801.98 L2806.65 1800.25 L2821.87 1798.64 L2837.09 1797.03 L2852.31 1795.42 L2867.53 1793.81 L2882.76 1792.33 L2897.85 1790.72 L2913.07 1789.11 L2928.30 1787.62 L2943.52 1786.02 L2958.74 1784.53 L2973.96 1783.05 L2989.18 1781.56 L3004.40 1779.95 L3019.62 1778.47 L3034.84 1776.98 L3050.07 1775.50 L3065.29 1774.14 L3080.51 1772.65 L3095.73 1771.17 L3110.95 1769.68 L3126.17 1768.32 L3141.39 1766.83 L3156.61 1765.47 L3171.84 1763.99 L3187.06 1762.63 L3202.28 1761.27 L3217.50 1759.78 L3232.72 1758.42 L3247.94 1757.06 L3263.04 1755.70 L3278.26 1754.33 L3293.48 1752.97 L3308.70 1751.61 L3323.93 1750.25 L3339.15 1748.89 L3354.37 1747.53 L3369.59 1746.29 L3384.81 1744.93 L3400.03 1743.57 L3415.25 1742.33 L3430.47 1740.97 L3445.70 1739.73 L3460.92 1738.37 L3476.14 1737.13 L3491.36 1735.77 L3506.58 1734.53 L3521.80 1733.30 L3537.02 1731.94 L3552.24 1730.70 L3567.47 1729.46 L3582.69 1728.22 L3597.91 1726.99 L3613.01 1725.75 L3628.23 1724.51 L3643.45 1723.27 L3658.67 1722.04 L3673.89 1720.80 L3689.11 1719.56 L3704.33 1718.32 L3719.55 1717.08 L3734.78 1715.85 L3750.00 1714.73 L3765.22 1713.50 L3780.44 1712.26 L3795.66 1711.02" stroke-linejoin="round" style="fill:none;stroke:#FF0000;stroke-width:8.64"/>
	<line x1="521.73" y1="2489.19" x2="521.73" y2="100.86" style="stroke:#000000;stroke-width:5.76"/>
	<line x1="521.73" y1="2425.82" x2="481.76" y2="2425.82" style="stroke:#000000;stroke-width:5.76"/>
	<text x="461.83" y="2460.85" style="font-family:'Helvetica';font-size:99.99px;fill:#000000" text-anchor="end">0.00</text>
	<line x1="521.73" y1="1860.39" x2="481.76" y2="1860.39" style="stroke:#000000;stroke-width:5.76"/>
	<text x="461.83" y="1895.42" style="font-family:'Helvetica';font-size:99.99px;fill:#000000" text-anchor="end">0.50</text>
	<line x1="521.73" y1="1294.96" x2="481.76" y2="1294.96" style="stroke:#000000;stroke-width:5.76"/>
	<text x="461.83" y="1329.99" style="font-family:'Helvetica';font-size:99.99px;fill:#000000" text-anchor="end">1.00</text>
	<line x1="521.73" y1="729.53" x2="481.76" y2="729.53" style="stroke:#000000;stroke-width:5.76"/>
	<text x="461.83" y="764.56" style="font-family:'Helvetica';font-size:99.99px;fill:#000000" text-anchor="end">1.50</text>
	<line x1="521.73" y1="164.22" x2="481.76" y2="164.22" style="stroke:#000000;stroke-width:5.76"/>
	<text x="461.83" y="199.25" style="font-family:'Helvetica';font-size:99.99px;fill:#000000" text-anchor="end">2.00</text>
	<text x="190.71" y="1294.96" style="font-family:'Helvetica';font-size:99.99px;fill:#000000" transform="rotate(-90 190.71,1294.96)" text-anchor="middle">Cumulative incidence (%)</text>
	<line x1="521.73" y1="2489.19" x2="3859.02" y2="2489.19" style="stroke:#000000;stroke-width:5.76"/>
	<line x1="585.09" y1="2489.19" x2="585.09" y2="2529.16" style="stroke:#000000;stroke-width:5.76"/>
	<text x="585.09" y="2619.14" style="font-family:'Helvetica';font-size:99.99px;fill:#000000" text-anchor="middle">0</text>
	<line x1="1345.90" y1="2489.19" x2="1345.90" y2="2529.16" style="stroke:#000000;stroke-width:5.76"/>
	<text x="1345.90" y="2619.14" style="font-family:'Helvetica';font-size:99.99px;fill:#000000" text-anchor="middle">50</text>
	<line x1="2106.72" y1="2489.19" x2="2106.72" y2="2529.16" style="stroke:#000000;stroke-width:5.76"/>
	<text x="2106.72" y="2619.14" style="font-family:'Helvetica';font-size:99.99px;fill:#000000" text-anchor="middle">100</text>
	<line x1="2867.53" y1="2489.19" x2="2867.53" y2="2529.16" style="stroke:#000000;stroke-width:5.76"/>
	<text x="2867.53" y="2619.14" style="font-family:'Helvetica';font-size:99.99px;fill:#000000" text-anchor="middle">150</text>
	<line x1="3628.35" y1="2489.19" x2="3628.35" y2="2529.16" style="stroke:#000000;stroke-width:5.76"/>
	<text x="3628.35" y="2619.14" style="font-family:'Helvetica';font-size:99.99px;fill:#000000" text-anchor="middle">200</text>
	<text x="2190.38" y="2729.16" style="font-family:'Helvetica';font-size:99.99px;fill:#000000" text-anchor="middle">Days from 1 March 2020</text>
	<rect x="1933.59" y="2128.20" width="1890.90" height="326.46" style="fill:#FFFFFF"/>
	<rect x="1936.47" y="2131.08" width="1885.14" height="320.70" style="fill:none;stroke:#000000;stroke-width:5.76"/>
	<rect x="1976.78" y="2171.51" width="374.34" height="99.99" style="fill:#3333FF;fill-opacity:0.25"/>
	<rect x="1981.10" y="2175.83" width="365.70" height="91.35" style="fill:none;stroke:#0000FF;stroke-opacity:0.25;stroke-width:8.64"/>
	<rect x="1976.78" y="2311.47" width="374.34" height="99.99" style="fill:#FF3333;fill-opacity:0.25"/>
	<rect x="1981.10" y="2315.79" width="365.70" height="91.35" style="fill:none;stroke:#FF0000;stroke-opacity:0.25;stroke-width:8.64"/>
	<text x="2411.14" y="2256.53" style="font-family:'Helvetica';font-size:99.99px;fill:#000000">Non-current anticoagulant use</text>
	<text x="2411.14" y="2396.50" style="font-family:'Helvetica';font-size:99.99px;fill:#000000">Current anticoagulant use</text>
</svg>
