<?xml version="1.0" encoding="UTF-8" standalone="no"?>
<!-- This is a Stata 16.1 generated SVG file (http://www.stata.com) -->

<svg version="1.1" width="5.50in" height="4.00in" viewBox="0 0 3960 2880" xmlns="http://www.w3.org/2000/svg" xmlns:xlink="http://www.w3.org/1999/xlink">
	<desc>Stata Graph - Graph</desc>
	<rect x="0" y="0" width="3960" height="2880" style="fill:#FFFFFF;stroke:none"/>
	<rect x="0.00" y="0.00" width="3959.88" height="2880.00" style="fill:#FFFFFF"/>
	<rect x="2.88" y="2.88" width="3954.12" height="2874.24" style="fill:none;stroke:#FFFFFF;stroke-width:5.76"/>
	<rect x="353.59" y="238.26" width="3502.55" height="2173.55" style="fill:none;stroke:#000000;stroke-width:5.76"/>
	<circle cx="660.33" cy="1375.15" r="14.97" style="fill:none;stroke:#606060;stroke-width:8.64"/>
	<circle cx="676.66" cy="2294.40" r="14.97" style="fill:none;stroke:#606060;stroke-width:8.64"/>
	<circle cx="676.66" cy="2209.63" r="14.97" style="fill:none;stroke:#606060;stroke-width:8.64"/>
	<circle cx="676.66" cy="953.03" r="14.97" style="fill:none;stroke:#606060;stroke-width:8.64"/>
	<circle cx="693.12" cy="1147.20" r="14.97" style="fill:none;stroke:#606060;stroke-width:8.64"/>
	<circle cx="709.46" cy="1298.55" r="14.97" style="fill:none;stroke:#606060;stroke-width:8.64"/>
	<circle cx="709.46" cy="1097.20" r="14.97" style="fill:none;stroke:#606060;stroke-width:8.64"/>
	<circle cx="709.46" cy="1262.78" r="14.97" style="fill:none;stroke:#606060;stroke-width:8.64"/>
	<circle cx="725.92" cy="1008.35" r="14.97" style="fill:none;stroke:#606060;stroke-width:8.64"/>
	<circle cx="725.92" cy="909.59" r="14.97" style="fill:none;stroke:#606060;stroke-width:8.64"/>
	<circle cx="725.92" cy="757.99" r="14.97" style="fill:none;stroke:#606060;stroke-width:8.64"/>
	<circle cx="725.92" cy="1249.67" r="14.97" style="fill:none;stroke:#606060;stroke-width:8.64"/>
	<circle cx="758.71" cy="2005.93" r="14.97" style="fill:none;stroke:#606060;stroke-width:8.64"/>
	<circle cx="758.71" cy="1000.80" r="14.97" style="fill:none;stroke:#606060;stroke-width:8.64"/>
	<circle cx="775.17" cy="1298.30" r="14.97" style="fill:none;stroke:#606060;stroke-width:8.64"/>
	<circle cx="775.17" cy="1018.87" r="14.97" style="fill:none;stroke:#606060;stroke-width:8.64"/>
	<circle cx="791.63" cy="1227.76" r="14.97" style="fill:none;stroke:#606060;stroke-width:8.64"/>
	<circle cx="791.63" cy="1135.19" r="14.97" style="fill:none;stroke:#606060;stroke-width:8.64"/>
	<circle cx="807.96" cy="1267.36" r="14.97" style="fill:none;stroke:#606060;stroke-width:8.64"/>
	<circle cx="807.96" cy="624.09" r="14.97" style="fill:none;stroke:#606060;stroke-width:8.64"/>
	<circle cx="807.96" cy="1209.82" r="14.97" style="fill:none;stroke:#606060;stroke-width:8.64"/>
	<circle cx="807.96" cy="1778.47" r="14.97" style="fill:none;stroke:#606060;stroke-width:8.64"/>
	<circle cx="824.42" cy="897.59" r="14.97" style="fill:none;stroke:#606060;stroke-width:8.64"/>
	<circle cx="824.42" cy="1109.70" r="14.97" style="fill:none;stroke:#606060;stroke-width:8.64"/>
	<circle cx="824.42" cy="1088.54" r="14.97" style="fill:none;stroke:#606060;stroke-width:8.64"/>
	<circle cx="824.42" cy="634.86" r="14.97" style="fill:none;stroke:#606060;stroke-width:8.64"/>
	<circle cx="840.88" cy="1799.75" r="14.97" style="fill:none;stroke:#606060;stroke-width:8.64"/>
	<circle cx="857.22" cy="2137.60" r="14.97" style="fill:none;stroke:#606060;stroke-width:8.64"/>
	<circle cx="857.22" cy="983.72" r="14.97" style="fill:none;stroke:#606060;stroke-width:8.64"/>
	<circle cx="857.22" cy="1039.53" r="14.97" style="fill:none;stroke:#606060;stroke-width:8.64"/>
	<circle cx="857.22" cy="866.15" r="14.97" style="fill:none;stroke:#606060;stroke-width:8.64"/>
	<circle cx="857.22" cy="1247.19" r="14.97" style="fill:none;stroke:#606060;stroke-width:8.64"/>
	<circle cx="873.67" cy="672.97" r="14.97" style="fill:none;stroke:#606060;stroke-width:8.64"/>
	<circle cx="873.67" cy="1576.75" r="14.97" style="fill:none;stroke:#606060;stroke-width:8.64"/>
	<circle cx="890.13" cy="1594.44" r="14.97" style="fill:none;stroke:#606060;stroke-width:8.64"/>
	<circle cx="890.13" cy="2351.45" r="14.97" style="fill:none;stroke:#606060;stroke-width:8.64"/>
	<circle cx="890.13" cy="997.46" r="14.97" style="fill:none;stroke:#606060;stroke-width:8.64"/>
	<circle cx="906.47" cy="1224.30" r="14.97" style="fill:none;stroke:#606060;stroke-width:8.64"/>
	<circle cx="906.47" cy="1431.34" r="14.97" style="fill:none;stroke:#606060;stroke-width:8.64"/>
	<circle cx="906.47" cy="1120.59" r="14.97" style="fill:none;stroke:#606060;stroke-width:8.64"/>
	<circle cx="922.93" cy="1018.37" r="14.97" style="fill:none;stroke:#606060;stroke-width:8.64"/>
	<circle cx="922.93" cy="1189.89" r="14.97" style="fill:none;stroke:#606060;stroke-width:8.64"/>
	<circle cx="922.93" cy="870.61" r="14.97" style="fill:none;stroke:#606060;stroke-width:8.64"/>
	<circle cx="922.93" cy="2224.60" r="14.97" style="fill:none;stroke:#606060;stroke-width:8.64"/>
	<circle cx="922.93" cy="1700.25" r="14.97" style="fill:none;stroke:#606060;stroke-width:8.64"/>
	<circle cx="922.93" cy="672.60" r="14.97" style="fill:none;stroke:#606060;stroke-width:8.64"/>
	<circle cx="939.39" cy="979.02" r="14.97" style="fill:none;stroke:#606060;stroke-width:8.64"/>
	<circle cx="939.39" cy="1174.92" r="14.97" style="fill:none;stroke:#606060;stroke-width:8.64"/>
	<circle cx="939.39" cy="913.55" r="14.97" style="fill:none;stroke:#606060;stroke-width:8.64"/>
	<circle cx="939.39" cy="298.74" r="14.97" style="fill:none;stroke:#606060;stroke-width:8.64"/>
	<circle cx="939.39" cy="673.72" r="14.97" style="fill:none;stroke:#606060;stroke-width:8.64"/>
	<circle cx="939.39" cy="1787.25" r="14.97" style="fill:none;stroke:#606060;stroke-width:8.64"/>
	<circle cx="939.39" cy="869.74" r="14.97" style="fill:none;stroke:#606060;stroke-width:8.64"/>
	<circle cx="939.39" cy="956.49" r="14.97" style="fill:none;stroke:#606060;stroke-width:8.64"/>
	<circle cx="955.72" cy="1139.40" r="14.97" style="fill:none;stroke:#606060;stroke-width:8.64"/>
	<circle cx="955.72" cy="1022.58" r="14.97" style="fill:none;stroke:#606060;stroke-width:8.64"/>
	<circle cx="955.72" cy="1061.93" r="14.97" style="fill:none;stroke:#606060;stroke-width:8.64"/>
	<circle cx="955.72" cy="1819.31" r="14.97" style="fill:none;stroke:#606060;stroke-width:8.64"/>
	<circle cx="955.72" cy="1901.85" r="14.97" style="fill:none;stroke:#606060;stroke-width:8.64"/>
	<circle cx="955.72" cy="990.90" r="14.97" style="fill:none;stroke:#606060;stroke-width:8.64"/>
	<circle cx="955.72" cy="1273.06" r="14.97" style="fill:none;stroke:#606060;stroke-width:8.64"/>
	<circle cx="955.72" cy="1519.33" r="14.97" style="fill:none;stroke:#606060;stroke-width:8.64"/>
	<circle cx="972.18" cy="2157.52" r="14.97" style="fill:none;stroke:#606060;stroke-width:8.64"/>
	<circle cx="972.18" cy="803.78" r="14.97" style="fill:none;stroke:#606060;stroke-width:8.64"/>
	<circle cx="972.18" cy="956.49" r="14.97" style="fill:none;stroke:#606060;stroke-width:8.64"/>
	<circle cx="988.64" cy="1743.44" r="14.97" style="fill:none;stroke:#606060;stroke-width:8.64"/>
	<circle cx="988.64" cy="981.62" r="14.97" style="fill:none;stroke:#606060;stroke-width:8.64"/>
	<circle cx="1004.97" cy="1392.73" r="14.97" style="fill:none;stroke:#606060;stroke-width:8.64"/>
	<circle cx="1004.97" cy="1145.34" r="14.97" style="fill:none;stroke:#606060;stroke-width:8.64"/>
	<circle cx="1004.97" cy="1291.00" r="14.97" style="fill:none;stroke:#606060;stroke-width:8.64"/>
	<circle cx="1021.43" cy="1240.88" r="14.97" style="fill:none;stroke:#606060;stroke-width:8.64"/>
	<circle cx="1021.43" cy="593.40" r="14.97" style="fill:none;stroke:#606060;stroke-width:8.64"/>
	<circle cx="1021.43" cy="887.56" r="14.97" style="fill:none;stroke:#606060;stroke-width:8.64"/>
	<circle cx="1021.43" cy="1219.72" r="14.97" style="fill:none;stroke:#606060;stroke-width:8.64"/>
	<circle cx="1037.89" cy="1915.83" r="14.97" style="fill:none;stroke:#606060;stroke-width:8.64"/>
	<circle cx="1037.89" cy="2059.64" r="14.97" style="fill:none;stroke:#606060;stroke-width:8.64"/>
	<circle cx="1037.89" cy="995.72" r="14.97" style="fill:none;stroke:#606060;stroke-width:8.64"/>
	<circle cx="1037.89" cy="1908.78" r="14.97" style="fill:none;stroke:#606060;stroke-width:8.64"/>
	<circle cx="1037.89" cy="1103.88" r="14.97" style="fill:none;stroke:#606060;stroke-width:8.64"/>
	<circle cx="1054.23" cy="1031.86" r="14.97" style="fill:none;stroke:#606060;stroke-width:8.64"/>
	<circle cx="1054.23" cy="973.57" r="14.97" style="fill:none;stroke:#606060;stroke-width:8.64"/>
	<circle cx="1054.23" cy="942.51" r="14.97" style="fill:none;stroke:#606060;stroke-width:8.64"/>
	<circle cx="1070.68" cy="1382.95" r="14.97" style="fill:none;stroke:#606060;stroke-width:8.64"/>
	<circle cx="1070.68" cy="1129.63" r="14.97" style="fill:none;stroke:#606060;stroke-width:8.64"/>
	<circle cx="1070.68" cy="1057.85" r="14.97" style="fill:none;stroke:#606060;stroke-width:8.64"/>
	<circle cx="1087.02" cy="983.97" r="14.97" style="fill:none;stroke:#606060;stroke-width:8.64"/>
	<circle cx="1087.02" cy="2069.04" r="14.97" style="fill:none;stroke:#606060;stroke-width:8.64"/>
	<circle cx="1087.02" cy="1971.15" r="14.97" style="fill:none;stroke:#606060;stroke-width:8.64"/>
	<circle cx="1087.02" cy="1197.07" r="14.97" style="fill:none;stroke:#606060;stroke-width:8.64"/>
	<circle cx="1087.02" cy="1811.39" r="14.97" style="fill:none;stroke:#606060;stroke-width:8.64"/>
	<circle cx="1103.48" cy="1424.04" r="14.97" style="fill:none;stroke:#606060;stroke-width:8.64"/>
	<circle cx="1119.94" cy="1344.34" r="14.97" style="fill:none;stroke:#606060;stroke-width:8.64"/>
	<circle cx="1119.94" cy="1013.67" r="14.97" style="fill:none;stroke:#606060;stroke-width:8.64"/>
	<circle cx="1136.27" cy="838.93" r="14.97" style="fill:none;stroke:#606060;stroke-width:8.64"/>
	<circle cx="1136.27" cy="576.69" r="14.97" style="fill:none;stroke:#606060;stroke-width:8.64"/>
	<circle cx="1136.27" cy="2189.21" r="14.97" style="fill:none;stroke:#606060;stroke-width:8.64"/>
	<circle cx="1136.27" cy="1922.76" r="14.97" style="fill:none;stroke:#606060;stroke-width:8.64"/>
	<circle cx="1152.73" cy="1197.32" r="14.97" style="fill:none;stroke:#606060;stroke-width:8.64"/>
	<circle cx="1152.73" cy="1086.68" r="14.97" style="fill:none;stroke:#606060;stroke-width:8.64"/>
	<circle cx="1152.73" cy="1329.12" r="14.97" style="fill:none;stroke:#606060;stroke-width:8.64"/>
	<circle cx="1169.19" cy="2339.94" r="14.97" style="fill:none;stroke:#606060;stroke-width:8.64"/>
	<circle cx="1169.19" cy="924.19" r="14.97" style="fill:none;stroke:#606060;stroke-width:8.64"/>
	<circle cx="1185.53" cy="1622.04" r="14.97" style="fill:none;stroke:#606060;stroke-width:8.64"/>
	<circle cx="1185.53" cy="1100.79" r="14.97" style="fill:none;stroke:#606060;stroke-width:8.64"/>
	<circle cx="1201.98" cy="883.60" r="14.97" style="fill:none;stroke:#606060;stroke-width:8.64"/>
	<circle cx="1218.44" cy="1040.03" r="14.97" style="fill:none;stroke:#606060;stroke-width:8.64"/>
	<circle cx="1218.44" cy="1938.85" r="14.97" style="fill:none;stroke:#606060;stroke-width:8.64"/>
	<circle cx="1218.44" cy="1977.96" r="14.97" style="fill:none;stroke:#606060;stroke-width:8.64"/>
	<circle cx="1218.44" cy="1922.89" r="14.97" style="fill:none;stroke:#606060;stroke-width:8.64"/>
	<circle cx="1234.78" cy="1042.01" r="14.97" style="fill:none;stroke:#606060;stroke-width:8.64"/>
	<circle cx="1251.24" cy="854.77" r="14.97" style="fill:none;stroke:#606060;stroke-width:8.64"/>
	<circle cx="1251.24" cy="675.94" r="14.97" style="fill:none;stroke:#606060;stroke-width:8.64"/>
	<circle cx="1251.24" cy="1933.90" r="14.97" style="fill:none;stroke:#606060;stroke-width:8.64"/>
	<circle cx="1251.24" cy="836.70" r="14.97" style="fill:none;stroke:#606060;stroke-width:8.64"/>
	<circle cx="1284.03" cy="1162.54" r="14.97" style="fill:none;stroke:#606060;stroke-width:8.64"/>
	<circle cx="1300.49" cy="1014.29" r="14.97" style="fill:none;stroke:#606060;stroke-width:8.64"/>
	<circle cx="1398.99" cy="2287.22" r="14.97" style="fill:none;stroke:#606060;stroke-width:8.64"/>
	<circle cx="1398.99" cy="1382.08" r="14.97" style="fill:none;stroke:#606060;stroke-width:8.64"/>
	<circle cx="1398.99" cy="1141.51" r="14.97" style="fill:none;stroke:#606060;stroke-width:8.64"/>
	<circle cx="1415.33" cy="1086.19" r="14.97" style="fill:none;stroke:#606060;stroke-width:8.64"/>
	<circle cx="1431.79" cy="1166.50" r="14.97" style="fill:none;stroke:#606060;stroke-width:8.64"/>
	<circle cx="1481.04" cy="1798.02" r="14.97" style="fill:none;stroke:#606060;stroke-width:8.64"/>
	<circle cx="1513.83" cy="783.49" r="14.97" style="fill:none;stroke:#606060;stroke-width:8.64"/>
	<circle cx="1530.29" cy="881.13" r="14.97" style="fill:none;stroke:#606060;stroke-width:8.64"/>
	<circle cx="1530.29" cy="1270.58" r="14.97" style="fill:none;stroke:#606060;stroke-width:8.64"/>
	<circle cx="1612.34" cy="1101.90" r="14.97" style="fill:none;stroke:#606060;stroke-width:8.64"/>
	<circle cx="1612.34" cy="1573.04" r="14.97" style="fill:none;stroke:#606060;stroke-width:8.64"/>
	<circle cx="1628.80" cy="1303.25" r="14.97" style="fill:none;stroke:#606060;stroke-width:8.64"/>
	<circle cx="1628.80" cy="2004.81" r="14.97" style="fill:none;stroke:#606060;stroke-width:8.64"/>
	<circle cx="1645.26" cy="1389.01" r="14.97" style="fill:none;stroke:#606060;stroke-width:8.64"/>
	<circle cx="1645.26" cy="1202.27" r="14.97" style="fill:none;stroke:#606060;stroke-width:8.64"/>
	<circle cx="1678.05" cy="1501.63" r="14.97" style="fill:none;stroke:#606060;stroke-width:8.64"/>
	<circle cx="1678.05" cy="1294.71" r="14.97" style="fill:none;stroke:#606060;stroke-width:8.64"/>
	<circle cx="1710.84" cy="809.35" r="14.97" style="fill:none;stroke:#606060;stroke-width:8.64"/>
	<circle cx="1727.30" cy="1148.81" r="14.97" style="fill:none;stroke:#606060;stroke-width:8.64"/>
	<circle cx="1743.76" cy="1099.55" r="14.97" style="fill:none;stroke:#606060;stroke-width:8.64"/>
	<circle cx="1792.89" cy="1023.69" r="14.97" style="fill:none;stroke:#606060;stroke-width:8.64"/>
	<circle cx="1825.81" cy="2339.69" r="14.97" style="fill:none;stroke:#606060;stroke-width:8.64"/>
	<circle cx="1858.60" cy="1048.32" r="14.97" style="fill:none;stroke:#606060;stroke-width:8.64"/>
	<circle cx="1875.06" cy="1105.99" r="14.97" style="fill:none;stroke:#606060;stroke-width:8.64"/>
	<circle cx="1875.06" cy="1042.87" r="14.97" style="fill:none;stroke:#606060;stroke-width:8.64"/>
	<circle cx="1907.85" cy="2273.36" r="14.97" style="fill:none;stroke:#606060;stroke-width:8.64"/>
	<circle cx="1924.31" cy="1079.38" r="14.97" style="fill:none;stroke:#606060;stroke-width:8.64"/>
	<circle cx="1924.31" cy="1810.52" r="14.97" style="fill:none;stroke:#606060;stroke-width:8.64"/>
	<circle cx="1957.11" cy="1281.97" r="14.97" style="fill:none;stroke:#606060;stroke-width:8.64"/>
	<circle cx="2055.61" cy="987.56" r="14.97" style="fill:none;stroke:#606060;stroke-width:8.64"/>
	<circle cx="2072.07" cy="1314.14" r="14.97" style="fill:none;stroke:#606060;stroke-width:8.64"/>
	<circle cx="2121.32" cy="1116.01" r="14.97" style="fill:none;stroke:#606060;stroke-width:8.64"/>
	<circle cx="2170.45" cy="1271.82" r="14.97" style="fill:none;stroke:#606060;stroke-width:8.64"/>
	<circle cx="2186.91" cy="834.60" r="14.97" style="fill:none;stroke:#606060;stroke-width:8.64"/>
	<circle cx="2186.91" cy="2246.50" r="14.97" style="fill:none;stroke:#606060;stroke-width:8.64"/>
	<circle cx="2203.37" cy="727.80" r="14.97" style="fill:none;stroke:#606060;stroke-width:8.64"/>
	<circle cx="2203.37" cy="1183.95" r="14.97" style="fill:none;stroke:#606060;stroke-width:8.64"/>
	<circle cx="2203.37" cy="1654.59" r="14.97" style="fill:none;stroke:#606060;stroke-width:8.64"/>
	<circle cx="2252.62" cy="1591.60" r="14.97" style="fill:none;stroke:#606060;stroke-width:8.64"/>
	<circle cx="2334.67" cy="2062.48" r="14.97" style="fill:none;stroke:#606060;stroke-width:8.64"/>
	<circle cx="2351.13" cy="964.17" r="14.97" style="fill:none;stroke:#606060;stroke-width:8.64"/>
	<circle cx="2515.22" cy="1079.63" r="14.97" style="fill:none;stroke:#606060;stroke-width:8.64"/>
	<circle cx="3073.33" cy="1784.16" r="14.97" style="fill:none;stroke:#606060;stroke-width:8.64"/>
	<circle cx="3171.84" cy="1192.37" r="14.97" style="fill:none;stroke:#606060;stroke-width:8.64"/>
	<circle cx="3401.64" cy="1017.38" r="14.97" style="fill:none;stroke:#606060;stroke-width:8.64"/>
	<circle cx="3483.81" cy="367.92" r="14.97" style="fill:none;stroke:#606060;stroke-width:8.64"/>
	<circle cx="3598.65" cy="1846.16" r="14.97" style="fill:none;stroke:#606060;stroke-width:8.64"/>
	<circle cx="3647.90" cy="937.19" r="14.97" style="fill:none;stroke:#606060;stroke-width:8.64"/>
	<circle cx="3664.36" cy="1958.40" r="14.97" style="fill:none;stroke:#606060;stroke-width:8.64"/>
	<circle cx="3697.16" cy="1851.36" r="14.97" style="fill:none;stroke:#606060;stroke-width:8.64"/>
	<circle cx="3762.87" cy="547.61" r="14.97" style="fill:none;stroke:#606060;stroke-width:8.64"/>
	<circle cx="3795.66" cy="2211.85" r="14.97" style="fill:none;stroke:#606060;stroke-width:8.64"/>
	<path d=" M660.33 1247.81 L676.66 1249.91 L676.66 1248.43 L676.66 1249.05 L693.12 1248.92 L709.46 1239.89 L709.46 1235.06 L709.46 1234.82 L725.92 1243.85 L725.92 1254.62 L725.92 1251.28 L725.92 1259.69 L758.71 1257.71 L758.71 1254.86 L775.17 1251.40 L775.17 1247.69 L791.63 1249.30 L791.63 1247.81 L807.96 1245.58 L807.96 1242.61 L807.96 1252.02 L807.96 1260.31 L824.42 1259.57 L824.42 1265.63 L824.42 1267.36 L824.42 1268.23 L840.88 1265.51 L857.22 1260.93 L857.22 1253.75 L857.22 1263.53 L857.22 1270.33 L857.22 1269.59 L873.67 1267.73 L873.67 1268.35 L890.13 1279.00 L890.13 1275.41 L890.13 1278.87 L906.47 1277.14 L906.47 1273.43 L906.47 1271.20 L922.93 1277.39 L922.93 1283.95 L922.93 1289.76 L922.93 1287.54 L922.93 1283.58 L922.93 1278.13 L939.39 1283.95 L939.39 1280.11 L939.39 1279.00 L939.39 1276.77 L939.39 1285.43 L939.39 1286.17 L939.39 1284.94 L939.39 1283.33 L955.72 1282.34 L955.72 1286.55 L955.72 1282.46 L955.72 1279.24 L955.72 1279.24 L955.72 1277.76 L955.72 1280.11 L955.72 1280.36 L972.18 1285.93 L972.18 1286.67 L972.18 1286.05 L988.64 1287.66 L988.64 1287.78 L1004.97 1283.45 L1004.97 1274.91 L1004.97 1266.50 L1021.43 1267.12 L1021.43 1276.03 L1021.43 1274.17 L1021.43 1274.17 L1037.89 1272.56 L1037.89 1282.09 L1037.89 1283.33 L1037.89 1291.25 L1037.89 1291.50 L1054.23 1283.82 L1054.23 1286.17 L1054.23 1284.81 L1070.68 1286.79 L1070.68 1283.82 L1070.68 1292.11 L1087.02 1288.03 L1087.02 1292.24 L1087.02 1295.58 L1087.02 1294.22 L1087.02 1303.00 L1103.48 1301.89 L1119.94 1301.89 L1119.94 1310.43 L1136.27 1305.85 L1136.27 1297.44 L1136.27 1292.86 L1136.27 1298.92 L1152.73 1299.42 L1152.73 1304.86 L1152.73 1313.65 L1169.19 1305.97 L1169.19 1310.55 L1185.53 1302.63 L1185.53 1304.98 L1201.98 1305.60 L1218.44 1304.61 L1218.44 1306.10 L1218.44 1308.33 L1218.44 1309.32 L1234.78 1312.78 L1251.24 1305.48 L1251.24 1302.26 L1251.24 1307.46 L1251.24 1310.18 L1284.03 1311.30 L1300.49 1314.64 L1398.99 1323.18 L1398.99 1328.75 L1398.99 1324.79 L1415.33 1328.75 L1431.79 1331.96 L1481.04 1333.70 L1513.83 1336.54 L1530.29 1339.02 L1530.29 1334.56 L1612.34 1329.36 L1612.34 1332.58 L1628.80 1333.08 L1628.80 1331.34 L1645.26 1323.42 L1645.26 1328.50 L1678.05 1332.09 L1678.05 1328.00 L1710.84 1331.47 L1727.30 1330.85 L1743.76 1332.71 L1792.89 1333.20 L1825.81 1334.07 L1858.60 1341.86 L1875.06 1346.57 L1875.06 1347.93 L1907.85 1341.86 L1924.31 1334.07 L1924.31 1337.78 L1957.11 1331.47 L2055.61 1333.94 L2072.07 1337.41 L2121.32 1341.62 L2170.45 1346.19 L2186.91 1345.82 L2186.91 1348.42 L2203.37 1351.89 L2203.37 1356.34 L2203.37 1347.56 L2252.62 1339.76 L2334.67 1341.62 L2351.13 1335.55 L2515.22 1334.44 L3073.33 1334.31 L3171.84 1338.52 L3401.64 1345.33 L3483.81 1355.85 L3598.65 1344.21 L3647.90 1336.17 L3664.36 1338.15 L3697.16 1341.74 L3762.87 1341.86 L3795.66 1327.01" stroke-linejoin="round" style="fill:none;stroke:#000000;stroke-width:8.64"/>
	<line x1="350.71" y1="2414.69" x2="350.71" y2="235.38" style="stroke:#000000;stroke-width:5.76"/>
	<line x1="350.71" y1="2124.48" x2="310.74" y2="2124.48" style="stroke:#000000;stroke-width:5.76"/>
	<text x="266.64" y="2124.48" style="font-family:'Helvetica';font-size:79.94px;fill:#000000" transform="rotate(-90 266.64,2124.48)" text-anchor="middle">-5</text>
	<line x1="350.71" y1="1228.88" x2="310.74" y2="1228.88" style="stroke:#000000;stroke-width:5.76"/>
	<text x="266.64" y="1228.88" style="font-family:'Helvetica';font-size:79.94px;fill:#000000" transform="rotate(-90 266.64,1228.88)" text-anchor="middle">0</text>
	<line x1="350.71" y1="333.15" x2="310.74" y2="333.15" style="stroke:#000000;stroke-width:5.76"/>
	<text x="266.64" y="333.15" style="font-family:'Helvetica';font-size:79.94px;fill:#000000" transform="rotate(-90 266.64,333.15)" text-anchor="middle">5</text>
	<text x="176.68" y="1325.03" style="font-family:'Helvetica';font-size:79.94px;fill:#000000" transform="rotate(-90 176.68,1325.03)" text-anchor="middle">Scaled Schoenfeld Residuals</text>
	<line x1="350.71" y1="2414.69" x2="3859.02" y2="2414.69" style="stroke:#000000;stroke-width:5.76"/>
	<line x1="414.07" y1="2414.69" x2="414.07" y2="2454.66" style="stroke:#000000;stroke-width:5.76"/>
	<text x="414.07" y="2530.61" style="font-family:'Helvetica';font-size:79.94px;fill:#000000" text-anchor="middle">0</text>
	<line x1="1234.90" y1="2414.69" x2="1234.90" y2="2454.66" style="stroke:#000000;stroke-width:5.76"/>
	<text x="1234.90" y="2530.61" style="font-family:'Helvetica';font-size:79.94px;fill:#000000" text-anchor="middle">50</text>
	<line x1="2055.61" y1="2414.69" x2="2055.61" y2="2454.66" style="stroke:#000000;stroke-width:5.76"/>
	<text x="2055.61" y="2530.61" style="font-family:'Helvetica';font-size:79.94px;fill:#000000" text-anchor="middle">100</text>
	<line x1="2876.45" y1="2414.69" x2="2876.45" y2="2454.66" style="stroke:#000000;stroke-width:5.76"/>
	<text x="2876.45" y="2530.61" style="font-family:'Helvetica';font-size:79.94px;fill:#000000" text-anchor="middle">150</text>
	<line x1="3697.28" y1="2414.69" x2="3697.28" y2="2454.66" style="stroke:#000000;stroke-width:5.76"/>
	<text x="3697.28" y="2530.61" style="font-family:'Helvetica';font-size:79.94px;fill:#000000" text-anchor="middle">200</text>
	<text x="2104.86" y="2620.57" style="font-family:'Helvetica';font-size:79.94px;fill:#000000" text-anchor="middle">Time</text>
	<text x="368.03" y="2737.89" style="font-family:'Helvetica';font-size:79.94px;fill:#000000">bandwidth = .8</text>
	<text x="368.03" y="187.99" style="font-family:'Helvetica';font-size:99.99px;fill:#000000">Schoenfeld residuals against time, fully adjusted</text>
</svg>
