<?xml version="1.0" encoding="UTF-8" standalone="no"?>
<!-- This is a Stata 16.1 generated SVG file (http://www.stata.com) -->

<svg version="1.1" width="5.50in" height="4.00in" viewBox="0 0 3960 2880" xmlns="http://www.w3.org/2000/svg" xmlns:xlink="http://www.w3.org/1999/xlink">
	<desc>Stata Graph - Graph</desc>
	<rect x="0" y="0" width="3960" height="2880" style="fill:#FFFFFF;stroke:none"/>
	<rect x="0.00" y="0.00" width="3959.88" height="2880.00" style="fill:#FFFFFF"/>
	<rect x="2.88" y="2.88" width="3954.12" height="2874.24" style="fill:none;stroke:#FFFFFF;stroke-width:5.76"/>
	<rect x="353.59" y="238.26" width="3502.55" height="2173.55" style="fill:none;stroke:#000000;stroke-width:5.76"/>
	<circle cx="660.33" cy="298.74" r="14.97" style="fill:none;stroke:#606060;stroke-width:8.64"/>
	<circle cx="676.66" cy="2214.70" r="14.97" style="fill:none;stroke:#606060;stroke-width:8.64"/>
	<circle cx="676.66" cy="2214.70" r="14.97" style="fill:none;stroke:#606060;stroke-width:8.64"/>
	<circle cx="676.66" cy="298.74" r="14.97" style="fill:none;stroke:#606060;stroke-width:8.64"/>
	<circle cx="693.12" cy="298.87" r="14.97" style="fill:none;stroke:#606060;stroke-width:8.64"/>
	<circle cx="709.46" cy="298.87" r="14.97" style="fill:none;stroke:#606060;stroke-width:8.64"/>
	<circle cx="709.46" cy="298.87" r="14.97" style="fill:none;stroke:#606060;stroke-width:8.64"/>
	<circle cx="709.46" cy="298.87" r="14.97" style="fill:none;stroke:#606060;stroke-width:8.64"/>
	<circle cx="725.92" cy="298.87" r="14.97" style="fill:none;stroke:#606060;stroke-width:8.64"/>
	<circle cx="725.92" cy="298.87" r="14.97" style="fill:none;stroke:#606060;stroke-width:8.64"/>
	<circle cx="725.92" cy="298.87" r="14.97" style="fill:none;stroke:#606060;stroke-width:8.64"/>
	<circle cx="725.92" cy="298.87" r="14.97" style="fill:none;stroke:#606060;stroke-width:8.64"/>
	<circle cx="758.71" cy="2214.82" r="14.97" style="fill:none;stroke:#606060;stroke-width:8.64"/>
	<circle cx="758.71" cy="298.87" r="14.97" style="fill:none;stroke:#606060;stroke-width:8.64"/>
	<circle cx="775.17" cy="298.87" r="14.97" style="fill:none;stroke:#606060;stroke-width:8.64"/>
	<circle cx="775.17" cy="298.87" r="14.97" style="fill:none;stroke:#606060;stroke-width:8.64"/>
	<circle cx="791.63" cy="298.99" r="14.97" style="fill:none;stroke:#606060;stroke-width:8.64"/>
	<circle cx="791.63" cy="298.99" r="14.97" style="fill:none;stroke:#606060;stroke-width:8.64"/>
	<circle cx="807.96" cy="298.87" r="14.97" style="fill:none;stroke:#606060;stroke-width:8.64"/>
	<circle cx="807.96" cy="298.87" r="14.97" style="fill:none;stroke:#606060;stroke-width:8.64"/>
	<circle cx="807.96" cy="298.87" r="14.97" style="fill:none;stroke:#606060;stroke-width:8.64"/>
	<circle cx="807.96" cy="2214.82" r="14.97" style="fill:none;stroke:#606060;stroke-width:8.64"/>
	<circle cx="824.42" cy="298.87" r="14.97" style="fill:none;stroke:#606060;stroke-width:8.64"/>
	<circle cx="824.42" cy="298.87" r="14.97" style="fill:none;stroke:#606060;stroke-width:8.64"/>
	<circle cx="824.42" cy="298.87" r="14.97" style="fill:none;stroke:#606060;stroke-width:8.64"/>
	<circle cx="824.42" cy="298.87" r="14.97" style="fill:none;stroke:#606060;stroke-width:8.64"/>
	<circle cx="840.88" cy="2214.82" r="14.97" style="fill:none;stroke:#606060;stroke-width:8.64"/>
	<circle cx="857.22" cy="2214.82" r="14.97" style="fill:none;stroke:#606060;stroke-width:8.64"/>
	<circle cx="857.22" cy="298.87" r="14.97" style="fill:none;stroke:#606060;stroke-width:8.64"/>
	<circle cx="857.22" cy="298.87" r="14.97" style="fill:none;stroke:#606060;stroke-width:8.64"/>
	<circle cx="857.22" cy="298.87" r="14.97" style="fill:none;stroke:#606060;stroke-width:8.64"/>
	<circle cx="857.22" cy="298.87" r="14.97" style="fill:none;stroke:#606060;stroke-width:8.64"/>
	<circle cx="873.67" cy="298.87" r="14.97" style="fill:none;stroke:#606060;stroke-width:8.64"/>
	<circle cx="873.67" cy="2214.82" r="14.97" style="fill:none;stroke:#606060;stroke-width:8.64"/>
	<circle cx="890.13" cy="2214.95" r="14.97" style="fill:none;stroke:#606060;stroke-width:8.64"/>
	<circle cx="890.13" cy="2214.95" r="14.97" style="fill:none;stroke:#606060;stroke-width:8.64"/>
	<circle cx="890.13" cy="298.99" r="14.97" style="fill:none;stroke:#606060;stroke-width:8.64"/>
	<circle cx="906.47" cy="299.11" r="14.97" style="fill:none;stroke:#606060;stroke-width:8.64"/>
	<circle cx="906.47" cy="2215.07" r="14.97" style="fill:none;stroke:#606060;stroke-width:8.64"/>
	<circle cx="906.47" cy="299.11" r="14.97" style="fill:none;stroke:#606060;stroke-width:8.64"/>
	<circle cx="922.93" cy="299.11" r="14.97" style="fill:none;stroke:#606060;stroke-width:8.64"/>
	<circle cx="922.93" cy="299.11" r="14.97" style="fill:none;stroke:#606060;stroke-width:8.64"/>
	<circle cx="922.93" cy="299.11" r="14.97" style="fill:none;stroke:#606060;stroke-width:8.64"/>
	<circle cx="922.93" cy="2215.07" r="14.97" style="fill:none;stroke:#606060;stroke-width:8.64"/>
	<circle cx="922.93" cy="2215.07" r="14.97" style="fill:none;stroke:#606060;stroke-width:8.64"/>
	<circle cx="922.93" cy="299.11" r="14.97" style="fill:none;stroke:#606060;stroke-width:8.64"/>
	<circle cx="939.39" cy="299.24" r="14.97" style="fill:none;stroke:#606060;stroke-width:8.64"/>
	<circle cx="939.39" cy="299.24" r="14.97" style="fill:none;stroke:#606060;stroke-width:8.64"/>
	<circle cx="939.39" cy="299.24" r="14.97" style="fill:none;stroke:#606060;stroke-width:8.64"/>
	<circle cx="939.39" cy="299.24" r="14.97" style="fill:none;stroke:#606060;stroke-width:8.64"/>
	<circle cx="939.39" cy="299.24" r="14.97" style="fill:none;stroke:#606060;stroke-width:8.64"/>
	<circle cx="939.39" cy="2215.19" r="14.97" style="fill:none;stroke:#606060;stroke-width:8.64"/>
	<circle cx="939.39" cy="299.24" r="14.97" style="fill:none;stroke:#606060;stroke-width:8.64"/>
	<circle cx="939.39" cy="299.24" r="14.97" style="fill:none;stroke:#606060;stroke-width:8.64"/>
	<circle cx="955.72" cy="299.24" r="14.97" style="fill:none;stroke:#606060;stroke-width:8.64"/>
	<circle cx="955.72" cy="299.24" r="14.97" style="fill:none;stroke:#606060;stroke-width:8.64"/>
	<circle cx="955.72" cy="299.24" r="14.97" style="fill:none;stroke:#606060;stroke-width:8.64"/>
	<circle cx="955.72" cy="2215.19" r="14.97" style="fill:none;stroke:#606060;stroke-width:8.64"/>
	<circle cx="955.72" cy="2215.19" r="14.97" style="fill:none;stroke:#606060;stroke-width:8.64"/>
	<circle cx="955.72" cy="299.24" r="14.97" style="fill:none;stroke:#606060;stroke-width:8.64"/>
	<circle cx="955.72" cy="299.24" r="14.97" style="fill:none;stroke:#606060;stroke-width:8.64"/>
	<circle cx="955.72" cy="2215.19" r="14.97" style="fill:none;stroke:#606060;stroke-width:8.64"/>
	<circle cx="972.18" cy="2215.32" r="14.97" style="fill:none;stroke:#606060;stroke-width:8.64"/>
	<circle cx="972.18" cy="299.36" r="14.97" style="fill:none;stroke:#606060;stroke-width:8.64"/>
	<circle cx="972.18" cy="299.36" r="14.97" style="fill:none;stroke:#606060;stroke-width:8.64"/>
	<circle cx="988.64" cy="2215.32" r="14.97" style="fill:none;stroke:#606060;stroke-width:8.64"/>
	<circle cx="988.64" cy="299.48" r="14.97" style="fill:none;stroke:#606060;stroke-width:8.64"/>
	<circle cx="1004.97" cy="299.48" r="14.97" style="fill:none;stroke:#606060;stroke-width:8.64"/>
	<circle cx="1004.97" cy="299.48" r="14.97" style="fill:none;stroke:#606060;stroke-width:8.64"/>
	<circle cx="1004.97" cy="299.48" r="14.97" style="fill:none;stroke:#606060;stroke-width:8.64"/>
	<circle cx="1021.43" cy="299.48" r="14.97" style="fill:none;stroke:#606060;stroke-width:8.64"/>
	<circle cx="1021.43" cy="299.48" r="14.97" style="fill:none;stroke:#606060;stroke-width:8.64"/>
	<circle cx="1021.43" cy="299.48" r="14.97" style="fill:none;stroke:#606060;stroke-width:8.64"/>
	<circle cx="1021.43" cy="299.48" r="14.97" style="fill:none;stroke:#606060;stroke-width:8.64"/>
	<circle cx="1037.89" cy="2215.44" r="14.97" style="fill:none;stroke:#606060;stroke-width:8.64"/>
	<circle cx="1037.89" cy="2215.44" r="14.97" style="fill:none;stroke:#606060;stroke-width:8.64"/>
	<circle cx="1037.89" cy="299.48" r="14.97" style="fill:none;stroke:#606060;stroke-width:8.64"/>
	<circle cx="1037.89" cy="2215.44" r="14.97" style="fill:none;stroke:#606060;stroke-width:8.64"/>
	<circle cx="1037.89" cy="299.48" r="14.97" style="fill:none;stroke:#606060;stroke-width:8.64"/>
	<circle cx="1054.23" cy="299.48" r="14.97" style="fill:none;stroke:#606060;stroke-width:8.64"/>
	<circle cx="1054.23" cy="299.48" r="14.97" style="fill:none;stroke:#606060;stroke-width:8.64"/>
	<circle cx="1054.23" cy="299.48" r="14.97" style="fill:none;stroke:#606060;stroke-width:8.64"/>
	<circle cx="1070.68" cy="299.48" r="14.97" style="fill:none;stroke:#606060;stroke-width:8.64"/>
	<circle cx="1070.68" cy="299.48" r="14.97" style="fill:none;stroke:#606060;stroke-width:8.64"/>
	<circle cx="1070.68" cy="299.48" r="14.97" style="fill:none;stroke:#606060;stroke-width:8.64"/>
	<circle cx="1087.02" cy="299.48" r="14.97" style="fill:none;stroke:#606060;stroke-width:8.64"/>
	<circle cx="1087.02" cy="2215.44" r="14.97" style="fill:none;stroke:#606060;stroke-width:8.64"/>
	<circle cx="1087.02" cy="2215.44" r="14.97" style="fill:none;stroke:#606060;stroke-width:8.64"/>
	<circle cx="1087.02" cy="299.48" r="14.97" style="fill:none;stroke:#606060;stroke-width:8.64"/>
	<circle cx="1087.02" cy="2215.44" r="14.97" style="fill:none;stroke:#606060;stroke-width:8.64"/>
	<circle cx="1103.48" cy="299.61" r="14.97" style="fill:none;stroke:#606060;stroke-width:8.64"/>
	<circle cx="1119.94" cy="299.61" r="14.97" style="fill:none;stroke:#606060;stroke-width:8.64"/>
	<circle cx="1119.94" cy="299.61" r="14.97" style="fill:none;stroke:#606060;stroke-width:8.64"/>
	<circle cx="1136.27" cy="299.61" r="14.97" style="fill:none;stroke:#606060;stroke-width:8.64"/>
	<circle cx="1136.27" cy="299.61" r="14.97" style="fill:none;stroke:#606060;stroke-width:8.64"/>
	<circle cx="1136.27" cy="2215.57" r="14.97" style="fill:none;stroke:#606060;stroke-width:8.64"/>
	<circle cx="1136.27" cy="2215.57" r="14.97" style="fill:none;stroke:#606060;stroke-width:8.64"/>
	<circle cx="1152.73" cy="299.61" r="14.97" style="fill:none;stroke:#606060;stroke-width:8.64"/>
	<circle cx="1152.73" cy="299.61" r="14.97" style="fill:none;stroke:#606060;stroke-width:8.64"/>
	<circle cx="1152.73" cy="299.61" r="14.97" style="fill:none;stroke:#606060;stroke-width:8.64"/>
	<circle cx="1169.19" cy="2215.44" r="14.97" style="fill:none;stroke:#606060;stroke-width:8.64"/>
	<circle cx="1169.19" cy="299.48" r="14.97" style="fill:none;stroke:#606060;stroke-width:8.64"/>
	<circle cx="1185.53" cy="2215.69" r="14.97" style="fill:none;stroke:#606060;stroke-width:8.64"/>
	<circle cx="1185.53" cy="299.73" r="14.97" style="fill:none;stroke:#606060;stroke-width:8.64"/>
	<circle cx="1201.98" cy="299.73" r="14.97" style="fill:none;stroke:#606060;stroke-width:8.64"/>
	<circle cx="1218.44" cy="299.73" r="14.97" style="fill:none;stroke:#606060;stroke-width:8.64"/>
	<circle cx="1218.44" cy="2215.69" r="14.97" style="fill:none;stroke:#606060;stroke-width:8.64"/>
	<circle cx="1218.44" cy="2215.69" r="14.97" style="fill:none;stroke:#606060;stroke-width:8.64"/>
	<circle cx="1218.44" cy="2215.69" r="14.97" style="fill:none;stroke:#606060;stroke-width:8.64"/>
	<circle cx="1234.78" cy="299.86" r="14.97" style="fill:none;stroke:#606060;stroke-width:8.64"/>
	<circle cx="1251.24" cy="299.73" r="14.97" style="fill:none;stroke:#606060;stroke-width:8.64"/>
	<circle cx="1251.24" cy="299.73" r="14.97" style="fill:none;stroke:#606060;stroke-width:8.64"/>
	<circle cx="1251.24" cy="2215.69" r="14.97" style="fill:none;stroke:#606060;stroke-width:8.64"/>
	<circle cx="1251.24" cy="299.73" r="14.97" style="fill:none;stroke:#606060;stroke-width:8.64"/>
	<circle cx="1284.03" cy="299.86" r="14.97" style="fill:none;stroke:#606060;stroke-width:8.64"/>
	<circle cx="1300.49" cy="299.86" r="14.97" style="fill:none;stroke:#606060;stroke-width:8.64"/>
	<circle cx="1398.99" cy="2215.94" r="14.97" style="fill:none;stroke:#606060;stroke-width:8.64"/>
	<circle cx="1398.99" cy="299.98" r="14.97" style="fill:none;stroke:#606060;stroke-width:8.64"/>
	<circle cx="1398.99" cy="299.98" r="14.97" style="fill:none;stroke:#606060;stroke-width:8.64"/>
	<circle cx="1415.33" cy="300.10" r="14.97" style="fill:none;stroke:#606060;stroke-width:8.64"/>
	<circle cx="1431.79" cy="300.10" r="14.97" style="fill:none;stroke:#606060;stroke-width:8.64"/>
	<circle cx="1481.04" cy="2216.18" r="14.97" style="fill:none;stroke:#606060;stroke-width:8.64"/>
	<circle cx="1513.83" cy="300.23" r="14.97" style="fill:none;stroke:#606060;stroke-width:8.64"/>
	<circle cx="1530.29" cy="300.35" r="14.97" style="fill:none;stroke:#606060;stroke-width:8.64"/>
	<circle cx="1530.29" cy="300.35" r="14.97" style="fill:none;stroke:#606060;stroke-width:8.64"/>
	<circle cx="1612.34" cy="300.47" r="14.97" style="fill:none;stroke:#606060;stroke-width:8.64"/>
	<circle cx="1612.34" cy="2216.43" r="14.97" style="fill:none;stroke:#606060;stroke-width:8.64"/>
	<circle cx="1628.80" cy="300.60" r="14.97" style="fill:none;stroke:#606060;stroke-width:8.64"/>
	<circle cx="1628.80" cy="2216.43" r="14.97" style="fill:none;stroke:#606060;stroke-width:8.64"/>
	<circle cx="1645.26" cy="300.60" r="14.97" style="fill:none;stroke:#606060;stroke-width:8.64"/>
	<circle cx="1645.26" cy="300.60" r="14.97" style="fill:none;stroke:#606060;stroke-width:8.64"/>
	<circle cx="1678.05" cy="300.47" r="14.97" style="fill:none;stroke:#606060;stroke-width:8.64"/>
	<circle cx="1678.05" cy="300.47" r="14.97" style="fill:none;stroke:#606060;stroke-width:8.64"/>
	<circle cx="1710.84" cy="300.47" r="14.97" style="fill:none;stroke:#606060;stroke-width:8.64"/>
	<circle cx="1727.30" cy="300.47" r="14.97" style="fill:none;stroke:#606060;stroke-width:8.64"/>
	<circle cx="1743.76" cy="300.47" r="14.97" style="fill:none;stroke:#606060;stroke-width:8.64"/>
	<circle cx="1792.89" cy="300.60" r="14.97" style="fill:none;stroke:#606060;stroke-width:8.64"/>
	<circle cx="1825.81" cy="2216.56" r="14.97" style="fill:none;stroke:#606060;stroke-width:8.64"/>
	<circle cx="1858.60" cy="300.72" r="14.97" style="fill:none;stroke:#606060;stroke-width:8.64"/>
	<circle cx="1875.06" cy="300.72" r="14.97" style="fill:none;stroke:#606060;stroke-width:8.64"/>
	<circle cx="1875.06" cy="300.72" r="14.97" style="fill:none;stroke:#606060;stroke-width:8.64"/>
	<circle cx="1907.85" cy="2216.68" r="14.97" style="fill:none;stroke:#606060;stroke-width:8.64"/>
	<circle cx="1924.31" cy="300.85" r="14.97" style="fill:none;stroke:#606060;stroke-width:8.64"/>
	<circle cx="1924.31" cy="2216.80" r="14.97" style="fill:none;stroke:#606060;stroke-width:8.64"/>
	<circle cx="1957.11" cy="300.85" r="14.97" style="fill:none;stroke:#606060;stroke-width:8.64"/>
	<circle cx="2055.61" cy="300.97" r="14.97" style="fill:none;stroke:#606060;stroke-width:8.64"/>
	<circle cx="2072.07" cy="300.97" r="14.97" style="fill:none;stroke:#606060;stroke-width:8.64"/>
	<circle cx="2121.32" cy="301.09" r="14.97" style="fill:none;stroke:#606060;stroke-width:8.64"/>
	<circle cx="2170.45" cy="301.34" r="14.97" style="fill:none;stroke:#606060;stroke-width:8.64"/>
	<circle cx="2186.91" cy="301.34" r="14.97" style="fill:none;stroke:#606060;stroke-width:8.64"/>
	<circle cx="2186.91" cy="2217.30" r="14.97" style="fill:none;stroke:#606060;stroke-width:8.64"/>
	<circle cx="2203.37" cy="301.34" r="14.97" style="fill:none;stroke:#606060;stroke-width:8.64"/>
	<circle cx="2203.37" cy="301.34" r="14.97" style="fill:none;stroke:#606060;stroke-width:8.64"/>
	<circle cx="2203.37" cy="2217.30" r="14.97" style="fill:none;stroke:#606060;stroke-width:8.64"/>
	<circle cx="2252.62" cy="2217.42" r="14.97" style="fill:none;stroke:#606060;stroke-width:8.64"/>
	<circle cx="2334.67" cy="2217.55" r="14.97" style="fill:none;stroke:#606060;stroke-width:8.64"/>
	<circle cx="2351.13" cy="301.59" r="14.97" style="fill:none;stroke:#606060;stroke-width:8.64"/>
	<circle cx="2515.22" cy="301.59" r="14.97" style="fill:none;stroke:#606060;stroke-width:8.64"/>
	<circle cx="3073.33" cy="2218.29" r="14.97" style="fill:none;stroke:#606060;stroke-width:8.64"/>
	<circle cx="3171.84" cy="302.33" r="14.97" style="fill:none;stroke:#606060;stroke-width:8.64"/>
	<circle cx="3401.64" cy="302.58" r="14.97" style="fill:none;stroke:#606060;stroke-width:8.64"/>
	<circle cx="3483.81" cy="302.70" r="14.97" style="fill:none;stroke:#606060;stroke-width:8.64"/>
	<circle cx="3598.65" cy="2218.78" r="14.97" style="fill:none;stroke:#606060;stroke-width:8.64"/>
	<circle cx="3647.90" cy="302.95" r="14.97" style="fill:none;stroke:#606060;stroke-width:8.64"/>
	<circle cx="3664.36" cy="2218.91" r="14.97" style="fill:none;stroke:#606060;stroke-width:8.64"/>
	<circle cx="3697.16" cy="2219.03" r="14.97" style="fill:none;stroke:#606060;stroke-width:8.64"/>
	<circle cx="3762.87" cy="303.20" r="14.97" style="fill:none;stroke:#606060;stroke-width:8.64"/>
	<circle cx="3795.66" cy="2219.15" r="14.97" style="fill:none;stroke:#606060;stroke-width:8.64"/>
	<path d=" M660.33 813.81 L676.66 806.26 L676.66 798.83 L676.66 791.78 L693.12 784.85 L709.46 778.04 L709.46 771.48 L709.46 765.17 L725.92 784.48 L725.92 803.29 L725.92 796.73 L725.92 814.92 L758.71 808.36 L758.71 802.05 L775.17 795.86 L775.17 789.80 L791.63 783.86 L791.63 778.16 L807.96 772.47 L807.96 767.03 L807.96 783.61 L807.96 799.94 L824.42 794.25 L824.42 810.09 L824.42 804.52 L824.42 798.95 L840.88 793.63 L857.22 788.31 L857.22 783.24 L857.22 798.09 L857.22 812.69 L857.22 807.49 L873.67 802.42 L873.67 797.35 L890.13 811.33 L890.13 806.38 L890.13 819.99 L906.47 815.04 L906.47 810.09 L906.47 805.27 L922.93 818.51 L922.93 831.50 L922.93 844.13 L922.93 839.17 L922.93 834.35 L922.93 829.52 L939.39 841.77 L939.39 837.07 L939.39 832.37 L939.39 827.79 L939.39 839.67 L939.39 835.09 L939.39 830.64 L939.39 826.18 L955.72 821.85 L955.72 833.23 L955.72 828.90 L955.72 824.70 L955.72 820.49 L955.72 816.40 L955.72 827.42 L955.72 823.21 L972.18 834.10 L972.18 829.89 L972.18 825.93 L988.64 821.97 L988.64 818.01 L1004.97 818.01 L1004.97 803.66 L1004.97 789.18 L1021.43 789.30 L1021.43 803.66 L1021.43 803.66 L1021.43 803.66 L1037.89 803.66 L1037.89 818.14 L1037.89 818.14 L1037.89 832.62 L1037.89 832.62 L1054.23 818.14 L1054.23 818.26 L1054.23 818.26 L1070.68 818.26 L1070.68 818.26 L1070.68 832.74 L1087.02 832.74 L1087.02 832.74 L1087.02 847.10 L1087.02 847.22 L1087.02 861.57 L1103.48 861.57 L1119.94 861.57 L1119.94 876.05 L1136.27 861.70 L1136.27 847.34 L1136.27 847.34 L1136.27 861.82 L1152.73 861.82 L1152.73 876.30 L1152.73 890.66 L1169.19 876.30 L1169.19 876.30 L1185.53 866.15 L1185.53 870.48 L1201.98 874.94 L1218.44 864.54 L1218.44 869.00 L1218.44 873.45 L1218.44 878.03 L1234.78 882.61 L1251.24 871.85 L1251.24 860.96 L1251.24 865.53 L1251.24 870.24 L1284.03 875.06 L1300.49 879.89 L1398.99 884.72 L1398.99 889.79 L1398.99 878.28 L1415.33 883.36 L1431.79 888.55 L1481.04 893.75 L1513.83 899.07 L1530.29 904.39 L1530.29 892.51 L1612.34 880.39 L1612.34 885.71 L1628.80 891.28 L1628.80 878.78 L1645.26 866.03 L1645.26 871.47 L1678.05 877.04 L1678.05 863.93 L1710.84 869.49 L1727.30 875.19 L1743.76 881.00 L1792.89 886.94 L1825.81 893.01 L1858.60 899.20 L1875.06 905.51 L1875.06 911.94 L1907.85 897.96 L1924.31 883.60 L1924.31 890.04 L1957.11 875.31 L2055.61 881.75 L2072.07 888.43 L2121.32 895.11 L2170.45 902.04 L2186.91 909.10 L2186.91 916.40 L2203.37 923.82 L2203.37 931.50 L2203.37 915.65 L2252.62 899.32 L2334.67 906.99 L2351.13 890.16 L2515.22 897.83 L3073.33 905.75 L3171.84 913.80 L3401.64 922.09 L3483.81 930.63 L3598.65 912.81 L3647.90 894.49 L3664.36 902.91 L3697.16 911.69 L3762.87 920.73 L3795.66 901.30" stroke-linejoin="round" style="fill:none;stroke:#000000;stroke-width:8.64"/>
	<line x1="350.71" y1="2414.69" x2="350.71" y2="235.38" style="stroke:#000000;stroke-width:5.76"/>
	<line x1="350.71" y1="2351.32" x2="310.74" y2="2351.32" style="stroke:#000000;stroke-width:5.76"/>
	<text x="266.64" y="2351.32" style="font-family:'Helvetica';font-size:79.94px;fill:#000000" transform="rotate(-90 266.64,2351.32)" text-anchor="middle">-4</text>
	<line x1="350.71" y1="1960.39" x2="310.74" y2="1960.39" style="stroke:#000000;stroke-width:5.76"/>
	<text x="266.64" y="1960.39" style="font-family:'Helvetica';font-size:79.94px;fill:#000000" transform="rotate(-90 266.64,1960.39)" text-anchor="middle">-3</text>
	<line x1="350.71" y1="1569.32" x2="310.74" y2="1569.32" style="stroke:#000000;stroke-width:5.76"/>
	<text x="266.64" y="1569.32" style="font-family:'Helvetica';font-size:79.94px;fill:#000000" transform="rotate(-90 266.64,1569.32)" text-anchor="middle">-2</text>
	<line x1="350.71" y1="1178.38" x2="310.74" y2="1178.38" style="stroke:#000000;stroke-width:5.76"/>
	<text x="266.64" y="1178.38" style="font-family:'Helvetica';font-size:79.94px;fill:#000000" transform="rotate(-90 266.64,1178.38)" text-anchor="middle">-1</text>
	<line x1="350.71" y1="787.32" x2="310.74" y2="787.32" style="stroke:#000000;stroke-width:5.76"/>
	<text x="266.64" y="787.32" style="font-family:'Helvetica';font-size:79.94px;fill:#000000" transform="rotate(-90 266.64,787.32)" text-anchor="middle">0</text>
	<line x1="350.71" y1="396.26" x2="310.74" y2="396.26" style="stroke:#000000;stroke-width:5.76"/>
	<text x="266.64" y="396.26" style="font-family:'Helvetica';font-size:79.94px;fill:#000000" transform="rotate(-90 266.64,396.26)" text-anchor="middle">1</text>
	<text x="176.68" y="1325.03" style="font-family:'Helvetica';font-size:79.94px;fill:#000000" transform="rotate(-90 176.68,1325.03)" text-anchor="middle">Scaled Schoenfeld Residuals</text>
	<line x1="350.71" y1="2414.69" x2="3859.02" y2="2414.69" style="stroke:#000000;stroke-width:5.76"/>
	<line x1="414.07" y1="2414.69" x2="414.07" y2="2454.66" style="stroke:#000000;stroke-width:5.76"/>
	<text x="414.07" y="2530.61" style="font-family:'Helvetica';font-size:79.94px;fill:#000000" text-anchor="middle">0</text>
	<line x1="1234.90" y1="2414.69" x2="1234.90" y2="2454.66" style="stroke:#000000;stroke-width:5.76"/>
	<text x="1234.90" y="2530.61" style="font-family:'Helvetica';font-size:79.94px;fill:#000000" text-anchor="middle">50</text>
	<line x1="2055.61" y1="2414.69" x2="2055.61" y2="2454.66" style="stroke:#000000;stroke-width:5.76"/>
	<text x="2055.61" y="2530.61" style="font-family:'Helvetica';font-size:79.94px;fill:#000000" text-anchor="middle">100</text>
	<line x1="2876.45" y1="2414.69" x2="2876.45" y2="2454.66" style="stroke:#000000;stroke-width:5.76"/>
	<text x="2876.45" y="2530.61" style="font-family:'Helvetica';font-size:79.94px;fill:#000000" text-anchor="middle">150</text>
	<line x1="3697.28" y1="2414.69" x2="3697.28" y2="2454.66" style="stroke:#000000;stroke-width:5.76"/>
	<text x="3697.28" y="2530.61" style="font-family:'Helvetica';font-size:79.94px;fill:#000000" text-anchor="middle">200</text>
	<text x="2104.86" y="2620.57" style="font-family:'Helvetica';font-size:79.94px;fill:#000000" text-anchor="middle">Time</text>
	<text x="368.03" y="2737.89" style="font-family:'Helvetica';font-size:79.94px;fill:#000000">bandwidth = .8</text>
	<text x="368.03" y="187.99" style="font-family:'Helvetica';font-size:99.99px;fill:#000000">Schoenfeld residuals against time, univariable</text>
</svg>
