<?xml version="1.0" encoding="UTF-8" standalone="no"?>
<!-- This is a Stata 16.1 generated SVG file (http://www.stata.com) -->

<svg version="1.1" width="5.50in" height="4.00in" viewBox="0 0 3960 2880" xmlns="http://www.w3.org/2000/svg" xmlns:xlink="http://www.w3.org/1999/xlink">
	<desc>Stata Graph - Graph</desc>
	<rect x="0" y="0" width="3960" height="2880" style="fill:#FFFFFF;stroke:none"/>
	<rect x="0.00" y="0.00" width="3959.88" height="2880.00" style="fill:#FFFFFF"/>
	<rect x="2.88" y="2.88" width="3954.12" height="2874.24" style="fill:none;stroke:#FFFFFF;stroke-width:5.76"/>
	<rect x="353.59" y="238.26" width="3502.55" height="2173.55" style="fill:none;stroke:#000000;stroke-width:5.76"/>
	<circle cx="479.65" cy="455.04" r="14.97" style="fill:none;stroke:#606060;stroke-width:8.64"/>
	<circle cx="611.08" cy="2332.51" r="14.97" style="fill:none;stroke:#606060;stroke-width:8.64"/>
	<circle cx="627.41" cy="2258.88" r="14.97" style="fill:none;stroke:#606060;stroke-width:8.64"/>
	<circle cx="643.87" cy="698.84" r="14.97" style="fill:none;stroke:#606060;stroke-width:8.64"/>
	<circle cx="660.33" cy="2269.03" r="14.97" style="fill:none;stroke:#606060;stroke-width:8.64"/>
	<circle cx="660.33" cy="741.29" r="14.97" style="fill:none;stroke:#606060;stroke-width:8.64"/>
	<circle cx="676.66" cy="2350.09" r="14.97" style="fill:none;stroke:#606060;stroke-width:8.64"/>
	<circle cx="676.66" cy="2322.98" r="14.97" style="fill:none;stroke:#606060;stroke-width:8.64"/>
	<circle cx="676.66" cy="760.72" r="14.97" style="fill:none;stroke:#606060;stroke-width:8.64"/>
	<circle cx="693.12" cy="478.31" r="14.97" style="fill:none;stroke:#606060;stroke-width:8.64"/>
	<circle cx="709.46" cy="698.71" r="14.97" style="fill:none;stroke:#606060;stroke-width:8.64"/>
	<circle cx="709.46" cy="669.63" r="14.97" style="fill:none;stroke:#606060;stroke-width:8.64"/>
	<circle cx="709.46" cy="609.86" r="14.97" style="fill:none;stroke:#606060;stroke-width:8.64"/>
	<circle cx="709.46" cy="582.39" r="14.97" style="fill:none;stroke:#606060;stroke-width:8.64"/>
	<circle cx="725.92" cy="478.31" r="14.97" style="fill:none;stroke:#606060;stroke-width:8.64"/>
	<circle cx="725.92" cy="698.96" r="14.97" style="fill:none;stroke:#606060;stroke-width:8.64"/>
	<circle cx="725.92" cy="659.48" r="14.97" style="fill:none;stroke:#606060;stroke-width:8.64"/>
	<circle cx="725.92" cy="698.84" r="14.97" style="fill:none;stroke:#606060;stroke-width:8.64"/>
	<circle cx="758.71" cy="752.42" r="14.97" style="fill:none;stroke:#606060;stroke-width:8.64"/>
	<circle cx="758.71" cy="2269.15" r="14.97" style="fill:none;stroke:#606060;stroke-width:8.64"/>
	<circle cx="758.71" cy="717.03" r="14.97" style="fill:none;stroke:#606060;stroke-width:8.64"/>
	<circle cx="775.17" cy="669.76" r="14.97" style="fill:none;stroke:#606060;stroke-width:8.64"/>
	<circle cx="775.17" cy="2141.19" r="14.97" style="fill:none;stroke:#606060;stroke-width:8.64"/>
	<circle cx="775.17" cy="748.46" r="14.97" style="fill:none;stroke:#606060;stroke-width:8.64"/>
	<circle cx="791.63" cy="648.97" r="14.97" style="fill:none;stroke:#606060;stroke-width:8.64"/>
	<circle cx="791.63" cy="610.11" r="14.97" style="fill:none;stroke:#606060;stroke-width:8.64"/>
	<circle cx="791.63" cy="754.16" r="14.97" style="fill:none;stroke:#606060;stroke-width:8.64"/>
	<circle cx="807.96" cy="731.39" r="14.97" style="fill:none;stroke:#606060;stroke-width:8.64"/>
	<circle cx="807.96" cy="748.46" r="14.97" style="fill:none;stroke:#606060;stroke-width:8.64"/>
	<circle cx="807.96" cy="741.53" r="14.97" style="fill:none;stroke:#606060;stroke-width:8.64"/>
	<circle cx="807.96" cy="2216.80" r="14.97" style="fill:none;stroke:#606060;stroke-width:8.64"/>
	<circle cx="824.42" cy="733.74" r="14.97" style="fill:none;stroke:#606060;stroke-width:8.64"/>
	<circle cx="824.42" cy="584.74" r="14.97" style="fill:none;stroke:#606060;stroke-width:8.64"/>
	<circle cx="824.42" cy="698.84" r="14.97" style="fill:none;stroke:#606060;stroke-width:8.64"/>
	<circle cx="824.42" cy="2069.16" r="14.97" style="fill:none;stroke:#606060;stroke-width:8.64"/>
	<circle cx="824.42" cy="659.48" r="14.97" style="fill:none;stroke:#606060;stroke-width:8.64"/>
	<circle cx="840.88" cy="2347.61" r="14.97" style="fill:none;stroke:#606060;stroke-width:8.64"/>
	<circle cx="857.22" cy="2067.80" r="14.97" style="fill:none;stroke:#606060;stroke-width:8.64"/>
	<circle cx="857.22" cy="758.24" r="14.97" style="fill:none;stroke:#606060;stroke-width:8.64"/>
	<circle cx="857.22" cy="758.49" r="14.97" style="fill:none;stroke:#606060;stroke-width:8.64"/>
	<circle cx="857.22" cy="699.09" r="14.97" style="fill:none;stroke:#606060;stroke-width:8.64"/>
	<circle cx="857.22" cy="579.42" r="14.97" style="fill:none;stroke:#606060;stroke-width:8.64"/>
	<circle cx="857.22" cy="627.56" r="14.97" style="fill:none;stroke:#606060;stroke-width:8.64"/>
	<circle cx="873.67" cy="708.37" r="14.97" style="fill:none;stroke:#606060;stroke-width:8.64"/>
	<circle cx="873.67" cy="2199.60" r="14.97" style="fill:none;stroke:#606060;stroke-width:8.64"/>
	<circle cx="890.13" cy="708.49" r="14.97" style="fill:none;stroke:#606060;stroke-width:8.64"/>
	<circle cx="890.13" cy="2160.74" r="14.97" style="fill:none;stroke:#606060;stroke-width:8.64"/>
	<circle cx="890.13" cy="689.93" r="14.97" style="fill:none;stroke:#606060;stroke-width:8.64"/>
	<circle cx="890.13" cy="2217.17" r="14.97" style="fill:none;stroke:#606060;stroke-width:8.64"/>
	<circle cx="890.13" cy="725.94" r="14.97" style="fill:none;stroke:#606060;stroke-width:8.64"/>
	<circle cx="890.13" cy="501.82" r="14.97" style="fill:none;stroke:#606060;stroke-width:8.64"/>
	<circle cx="890.13" cy="758.49" r="14.97" style="fill:none;stroke:#606060;stroke-width:8.64"/>
	<circle cx="890.13" cy="2338.08" r="14.97" style="fill:none;stroke:#606060;stroke-width:8.64"/>
	<circle cx="906.47" cy="754.65" r="14.97" style="fill:none;stroke:#606060;stroke-width:8.64"/>
	<circle cx="906.47" cy="2183.76" r="14.97" style="fill:none;stroke:#606060;stroke-width:8.64"/>
	<circle cx="906.47" cy="758.86" r="14.97" style="fill:none;stroke:#606060;stroke-width:8.64"/>
	<circle cx="906.47" cy="610.48" r="14.97" style="fill:none;stroke:#606060;stroke-width:8.64"/>
	<circle cx="922.93" cy="753.04" r="14.97" style="fill:none;stroke:#606060;stroke-width:8.64"/>
	<circle cx="922.93" cy="559.24" r="14.97" style="fill:none;stroke:#606060;stroke-width:8.64"/>
	<circle cx="922.93" cy="761.33" r="14.97" style="fill:none;stroke:#606060;stroke-width:8.64"/>
	<circle cx="922.93" cy="699.33" r="14.97" style="fill:none;stroke:#606060;stroke-width:8.64"/>
	<circle cx="922.93" cy="2348.11" r="14.97" style="fill:none;stroke:#606060;stroke-width:8.64"/>
	<circle cx="922.93" cy="2079.56" r="14.97" style="fill:none;stroke:#606060;stroke-width:8.64"/>
	<circle cx="922.93" cy="670.25" r="14.97" style="fill:none;stroke:#606060;stroke-width:8.64"/>
	<circle cx="939.39" cy="758.86" r="14.97" style="fill:none;stroke:#606060;stroke-width:8.64"/>
	<circle cx="939.39" cy="741.90" r="14.97" style="fill:none;stroke:#606060;stroke-width:8.64"/>
	<circle cx="939.39" cy="634.86" r="14.97" style="fill:none;stroke:#606060;stroke-width:8.64"/>
	<circle cx="939.39" cy="501.95" r="14.97" style="fill:none;stroke:#606060;stroke-width:8.64"/>
	<circle cx="939.39" cy="627.93" r="14.97" style="fill:none;stroke:#606060;stroke-width:8.64"/>
	<circle cx="939.39" cy="2306.90" r="14.97" style="fill:none;stroke:#606060;stroke-width:8.64"/>
	<circle cx="939.39" cy="734.23" r="14.97" style="fill:none;stroke:#606060;stroke-width:8.64"/>
	<circle cx="939.39" cy="741.90" r="14.97" style="fill:none;stroke:#606060;stroke-width:8.64"/>
	<circle cx="955.72" cy="741.90" r="14.97" style="fill:none;stroke:#606060;stroke-width:8.64"/>
	<circle cx="955.72" cy="627.80" r="14.97" style="fill:none;stroke:#606060;stroke-width:8.64"/>
	<circle cx="955.72" cy="758.86" r="14.97" style="fill:none;stroke:#606060;stroke-width:8.64"/>
	<circle cx="955.72" cy="2269.52" r="14.97" style="fill:none;stroke:#606060;stroke-width:8.64"/>
	<circle cx="955.72" cy="2331.28" r="14.97" style="fill:none;stroke:#606060;stroke-width:8.64"/>
	<circle cx="955.72" cy="638.69" r="14.97" style="fill:none;stroke:#606060;stroke-width:8.64"/>
	<circle cx="955.72" cy="658.00" r="14.97" style="fill:none;stroke:#606060;stroke-width:8.64"/>
	<circle cx="955.72" cy="2247.37" r="14.97" style="fill:none;stroke:#606060;stroke-width:8.64"/>
	<circle cx="955.72" cy="1859.03" r="14.97" style="fill:none;stroke:#606060;stroke-width:8.64"/>
	<circle cx="972.18" cy="2112.11" r="14.97" style="fill:none;stroke:#606060;stroke-width:8.64"/>
	<circle cx="972.18" cy="759.11" r="14.97" style="fill:none;stroke:#606060;stroke-width:8.64"/>
	<circle cx="972.18" cy="596.99" r="14.97" style="fill:none;stroke:#606060;stroke-width:8.64"/>
	<circle cx="972.18" cy="680.03" r="14.97" style="fill:none;stroke:#606060;stroke-width:8.64"/>
	<circle cx="988.64" cy="1813.24" r="14.97" style="fill:none;stroke:#606060;stroke-width:8.64"/>
	<circle cx="988.64" cy="422.62" r="14.97" style="fill:none;stroke:#606060;stroke-width:8.64"/>
	<circle cx="988.64" cy="628.30" r="14.97" style="fill:none;stroke:#606060;stroke-width:8.64"/>
	<circle cx="1004.97" cy="560.48" r="14.97" style="fill:none;stroke:#606060;stroke-width:8.64"/>
	<circle cx="1004.97" cy="690.55" r="14.97" style="fill:none;stroke:#606060;stroke-width:8.64"/>
	<circle cx="1004.97" cy="742.40" r="14.97" style="fill:none;stroke:#606060;stroke-width:8.64"/>
	<circle cx="1004.97" cy="635.35" r="14.97" style="fill:none;stroke:#606060;stroke-width:8.64"/>
	<circle cx="1021.43" cy="559.99" r="14.97" style="fill:none;stroke:#606060;stroke-width:8.64"/>
	<circle cx="1021.43" cy="762.08" r="14.97" style="fill:none;stroke:#606060;stroke-width:8.64"/>
	<circle cx="1021.43" cy="533.26" r="14.97" style="fill:none;stroke:#606060;stroke-width:8.64"/>
	<circle cx="1021.43" cy="457.52" r="14.97" style="fill:none;stroke:#606060;stroke-width:8.64"/>
	<circle cx="1021.43" cy="700.32" r="14.97" style="fill:none;stroke:#606060;stroke-width:8.64"/>
	<circle cx="1021.43" cy="585.97" r="14.97" style="fill:none;stroke:#606060;stroke-width:8.64"/>
	<circle cx="1021.43" cy="690.79" r="14.97" style="fill:none;stroke:#606060;stroke-width:8.64"/>
	<circle cx="1037.89" cy="2324.35" r="14.97" style="fill:none;stroke:#606060;stroke-width:8.64"/>
	<circle cx="1037.89" cy="2351.45" r="14.97" style="fill:none;stroke:#606060;stroke-width:8.64"/>
	<circle cx="1037.89" cy="580.53" r="14.97" style="fill:none;stroke:#606060;stroke-width:8.64"/>
	<circle cx="1037.89" cy="2017.81" r="14.97" style="fill:none;stroke:#606060;stroke-width:8.64"/>
	<circle cx="1037.89" cy="718.27" r="14.97" style="fill:none;stroke:#606060;stroke-width:8.64"/>
	<circle cx="1037.89" cy="2044.04" r="14.97" style="fill:none;stroke:#606060;stroke-width:8.64"/>
	<circle cx="1037.89" cy="680.28" r="14.97" style="fill:none;stroke:#606060;stroke-width:8.64"/>
	<circle cx="1037.89" cy="761.95" r="14.97" style="fill:none;stroke:#606060;stroke-width:8.64"/>
	<circle cx="1037.89" cy="583.75" r="14.97" style="fill:none;stroke:#606060;stroke-width:8.64"/>
	<circle cx="1054.23" cy="560.11" r="14.97" style="fill:none;stroke:#606060;stroke-width:8.64"/>
	<circle cx="1054.23" cy="700.45" r="14.97" style="fill:none;stroke:#606060;stroke-width:8.64"/>
	<circle cx="1054.23" cy="744.87" r="14.97" style="fill:none;stroke:#606060;stroke-width:8.64"/>
	<circle cx="1054.23" cy="762.20" r="14.97" style="fill:none;stroke:#606060;stroke-width:8.64"/>
	<circle cx="1054.23" cy="481.16" r="14.97" style="fill:none;stroke:#606060;stroke-width:8.64"/>
	<circle cx="1054.23" cy="650.33" r="14.97" style="fill:none;stroke:#606060;stroke-width:8.64"/>
	<circle cx="1070.68" cy="726.81" r="14.97" style="fill:none;stroke:#606060;stroke-width:8.64"/>
	<circle cx="1070.68" cy="726.81" r="14.97" style="fill:none;stroke:#606060;stroke-width:8.64"/>
	<circle cx="1070.68" cy="734.97" r="14.97" style="fill:none;stroke:#606060;stroke-width:8.64"/>
	<circle cx="1087.02" cy="559.86" r="14.97" style="fill:none;stroke:#606060;stroke-width:8.64"/>
	<circle cx="1087.02" cy="2351.32" r="14.97" style="fill:none;stroke:#606060;stroke-width:8.64"/>
	<circle cx="1087.02" cy="2248.11" r="14.97" style="fill:none;stroke:#606060;stroke-width:8.64"/>
	<circle cx="1087.02" cy="2348.72" r="14.97" style="fill:none;stroke:#606060;stroke-width:8.64"/>
	<circle cx="1087.02" cy="323.00" r="14.97" style="fill:none;stroke:#606060;stroke-width:8.64"/>
	<circle cx="1087.02" cy="2224.97" r="14.97" style="fill:none;stroke:#606060;stroke-width:8.64"/>
	<circle cx="1103.48" cy="753.78" r="14.97" style="fill:none;stroke:#606060;stroke-width:8.64"/>
	<circle cx="1119.94" cy="717.65" r="14.97" style="fill:none;stroke:#606060;stroke-width:8.64"/>
	<circle cx="1119.94" cy="732.62" r="14.97" style="fill:none;stroke:#606060;stroke-width:8.64"/>
	<circle cx="1136.27" cy="742.65" r="14.97" style="fill:none;stroke:#606060;stroke-width:8.64"/>
	<circle cx="1136.27" cy="700.08" r="14.97" style="fill:none;stroke:#606060;stroke-width:8.64"/>
	<circle cx="1136.27" cy="2289.45" r="14.97" style="fill:none;stroke:#606060;stroke-width:8.64"/>
	<circle cx="1136.27" cy="726.81" r="14.97" style="fill:none;stroke:#606060;stroke-width:8.64"/>
	<circle cx="1136.27" cy="2069.29" r="14.97" style="fill:none;stroke:#606060;stroke-width:8.64"/>
	<circle cx="1152.73" cy="433.14" r="14.97" style="fill:none;stroke:#606060;stroke-width:8.64"/>
	<circle cx="1152.73" cy="507.51" r="14.97" style="fill:none;stroke:#606060;stroke-width:8.64"/>
	<circle cx="1152.73" cy="658.87" r="14.97" style="fill:none;stroke:#606060;stroke-width:8.64"/>
	<circle cx="1169.19" cy="759.48" r="14.97" style="fill:none;stroke:#606060;stroke-width:8.64"/>
	<circle cx="1169.19" cy="2332.14" r="14.97" style="fill:none;stroke:#606060;stroke-width:8.64"/>
	<circle cx="1169.19" cy="533.75" r="14.97" style="fill:none;stroke:#606060;stroke-width:8.64"/>
	<circle cx="1185.53" cy="2270.14" r="14.97" style="fill:none;stroke:#606060;stroke-width:8.64"/>
	<circle cx="1185.53" cy="2044.41" r="14.97" style="fill:none;stroke:#606060;stroke-width:8.64"/>
	<circle cx="1185.53" cy="700.57" r="14.97" style="fill:none;stroke:#606060;stroke-width:8.64"/>
	<circle cx="1201.98" cy="671.36" r="14.97" style="fill:none;stroke:#606060;stroke-width:8.64"/>
	<circle cx="1218.44" cy="762.45" r="14.97" style="fill:none;stroke:#606060;stroke-width:8.64"/>
	<circle cx="1218.44" cy="727.30" r="14.97" style="fill:none;stroke:#606060;stroke-width:8.64"/>
	<circle cx="1218.44" cy="2175.72" r="14.97" style="fill:none;stroke:#606060;stroke-width:8.64"/>
	<circle cx="1218.44" cy="2332.51" r="14.97" style="fill:none;stroke:#606060;stroke-width:8.64"/>
	<circle cx="1218.44" cy="2250.59" r="14.97" style="fill:none;stroke:#606060;stroke-width:8.64"/>
	<circle cx="1234.78" cy="756.01" r="14.97" style="fill:none;stroke:#606060;stroke-width:8.64"/>
	<circle cx="1251.24" cy="584.37" r="14.97" style="fill:none;stroke:#606060;stroke-width:8.64"/>
	<circle cx="1251.24" cy="480.54" r="14.97" style="fill:none;stroke:#606060;stroke-width:8.64"/>
	<circle cx="1251.24" cy="2018.43" r="14.97" style="fill:none;stroke:#606060;stroke-width:8.64"/>
	<circle cx="1251.24" cy="538.08" r="14.97" style="fill:none;stroke:#606060;stroke-width:8.64"/>
	<circle cx="1267.69" cy="2307.76" r="14.97" style="fill:none;stroke:#606060;stroke-width:8.64"/>
	<circle cx="1284.03" cy="762.82" r="14.97" style="fill:none;stroke:#606060;stroke-width:8.64"/>
	<circle cx="1284.03" cy="618.40" r="14.97" style="fill:none;stroke:#606060;stroke-width:8.64"/>
	<circle cx="1300.49" cy="534.49" r="14.97" style="fill:none;stroke:#606060;stroke-width:8.64"/>
	<circle cx="1333.28" cy="590.18" r="14.97" style="fill:none;stroke:#606060;stroke-width:8.64"/>
	<circle cx="1333.28" cy="508.50" r="14.97" style="fill:none;stroke:#606060;stroke-width:8.64"/>
	<circle cx="1349.74" cy="701.19" r="14.97" style="fill:none;stroke:#606060;stroke-width:8.64"/>
	<circle cx="1366.20" cy="681.27" r="14.97" style="fill:none;stroke:#606060;stroke-width:8.64"/>
	<circle cx="1366.20" cy="563.45" r="14.97" style="fill:none;stroke:#606060;stroke-width:8.64"/>
	<circle cx="1398.99" cy="2218.91" r="14.97" style="fill:none;stroke:#606060;stroke-width:8.64"/>
	<circle cx="1398.99" cy="701.07" r="14.97" style="fill:none;stroke:#606060;stroke-width:8.64"/>
	<circle cx="1398.99" cy="659.61" r="14.97" style="fill:none;stroke:#606060;stroke-width:8.64"/>
	<circle cx="1398.99" cy="750.44" r="14.97" style="fill:none;stroke:#606060;stroke-width:8.64"/>
	<circle cx="1415.33" cy="534.12" r="14.97" style="fill:none;stroke:#606060;stroke-width:8.64"/>
	<circle cx="1431.79" cy="762.94" r="14.97" style="fill:none;stroke:#606060;stroke-width:8.64"/>
	<circle cx="1431.79" cy="735.84" r="14.97" style="fill:none;stroke:#606060;stroke-width:8.64"/>
	<circle cx="1481.04" cy="2346.00" r="14.97" style="fill:none;stroke:#606060;stroke-width:8.64"/>
	<circle cx="1497.50" cy="2226.33" r="14.97" style="fill:none;stroke:#606060;stroke-width:8.64"/>
	<circle cx="1513.83" cy="718.89" r="14.97" style="fill:none;stroke:#606060;stroke-width:8.64"/>
	<circle cx="1530.29" cy="318.54" r="14.97" style="fill:none;stroke:#606060;stroke-width:8.64"/>
	<circle cx="1530.29" cy="719.88" r="14.97" style="fill:none;stroke:#606060;stroke-width:8.64"/>
	<circle cx="1546.75" cy="562.21" r="14.97" style="fill:none;stroke:#606060;stroke-width:8.64"/>
	<circle cx="1612.34" cy="682.26" r="14.97" style="fill:none;stroke:#606060;stroke-width:8.64"/>
	<circle cx="1612.34" cy="2318.16" r="14.97" style="fill:none;stroke:#606060;stroke-width:8.64"/>
	<circle cx="1628.80" cy="755.64" r="14.97" style="fill:none;stroke:#606060;stroke-width:8.64"/>
	<circle cx="1628.80" cy="2326.33" r="14.97" style="fill:none;stroke:#606060;stroke-width:8.64"/>
	<circle cx="1645.26" cy="736.83" r="14.97" style="fill:none;stroke:#606060;stroke-width:8.64"/>
	<circle cx="1645.26" cy="755.64" r="14.97" style="fill:none;stroke:#606060;stroke-width:8.64"/>
	<circle cx="1661.59" cy="711.46" r="14.97" style="fill:none;stroke:#606060;stroke-width:8.64"/>
	<circle cx="1678.05" cy="608.50" r="14.97" style="fill:none;stroke:#606060;stroke-width:8.64"/>
	<circle cx="1678.05" cy="682.38" r="14.97" style="fill:none;stroke:#606060;stroke-width:8.64"/>
	<circle cx="1710.84" cy="728.66" r="14.97" style="fill:none;stroke:#606060;stroke-width:8.64"/>
	<circle cx="1710.84" cy="660.72" r="14.97" style="fill:none;stroke:#606060;stroke-width:8.64"/>
	<circle cx="1727.30" cy="746.48" r="14.97" style="fill:none;stroke:#606060;stroke-width:8.64"/>
	<circle cx="1743.76" cy="711.34" r="14.97" style="fill:none;stroke:#606060;stroke-width:8.64"/>
	<circle cx="1792.89" cy="755.64" r="14.97" style="fill:none;stroke:#606060;stroke-width:8.64"/>
	<circle cx="1825.81" cy="2318.03" r="14.97" style="fill:none;stroke:#606060;stroke-width:8.64"/>
	<circle cx="1858.60" cy="702.06" r="14.97" style="fill:none;stroke:#606060;stroke-width:8.64"/>
	<circle cx="1875.06" cy="728.79" r="14.97" style="fill:none;stroke:#606060;stroke-width:8.64"/>
	<circle cx="1875.06" cy="298.74" r="14.97" style="fill:none;stroke:#606060;stroke-width:8.64"/>
	<circle cx="1875.06" cy="573.72" r="14.97" style="fill:none;stroke:#606060;stroke-width:8.64"/>
	<circle cx="1875.06" cy="637.58" r="14.97" style="fill:none;stroke:#606060;stroke-width:8.64"/>
	<circle cx="1907.85" cy="2220.02" r="14.97" style="fill:none;stroke:#606060;stroke-width:8.64"/>
	<circle cx="1924.31" cy="764.06" r="14.97" style="fill:none;stroke:#606060;stroke-width:8.64"/>
	<circle cx="1924.31" cy="1991.20" r="14.97" style="fill:none;stroke:#606060;stroke-width:8.64"/>
	<circle cx="1957.11" cy="630.65" r="14.97" style="fill:none;stroke:#606060;stroke-width:8.64"/>
	<circle cx="1957.11" cy="585.85" r="14.97" style="fill:none;stroke:#606060;stroke-width:8.64"/>
	<circle cx="1957.11" cy="607.01" r="14.97" style="fill:none;stroke:#606060;stroke-width:8.64"/>
	<circle cx="1957.11" cy="2128.94" r="14.97" style="fill:none;stroke:#606060;stroke-width:8.64"/>
	<circle cx="1989.90" cy="734.73" r="14.97" style="fill:none;stroke:#606060;stroke-width:8.64"/>
	<circle cx="2055.61" cy="574.22" r="14.97" style="fill:none;stroke:#606060;stroke-width:8.64"/>
	<circle cx="2072.07" cy="619.51" r="14.97" style="fill:none;stroke:#606060;stroke-width:8.64"/>
	<circle cx="2121.32" cy="719.50" r="14.97" style="fill:none;stroke:#606060;stroke-width:8.64"/>
	<circle cx="2121.32" cy="672.97" r="14.97" style="fill:none;stroke:#606060;stroke-width:8.64"/>
	<circle cx="2154.12" cy="729.03" r="14.97" style="fill:none;stroke:#606060;stroke-width:8.64"/>
	<circle cx="2170.45" cy="562.09" r="14.97" style="fill:none;stroke:#606060;stroke-width:8.64"/>
	<circle cx="2170.45" cy="613.45" r="14.97" style="fill:none;stroke:#606060;stroke-width:8.64"/>
	<circle cx="2186.91" cy="745.00" r="14.97" style="fill:none;stroke:#606060;stroke-width:8.64"/>
	<circle cx="2186.91" cy="2336.47" r="14.97" style="fill:none;stroke:#606060;stroke-width:8.64"/>
	<circle cx="2203.37" cy="586.10" r="14.97" style="fill:none;stroke:#606060;stroke-width:8.64"/>
	<circle cx="2203.37" cy="734.85" r="14.97" style="fill:none;stroke:#606060;stroke-width:8.64"/>
	<circle cx="2203.37" cy="2252.44" r="14.97" style="fill:none;stroke:#606060;stroke-width:8.64"/>
	<circle cx="2219.70" cy="2291.80" r="14.97" style="fill:none;stroke:#606060;stroke-width:8.64"/>
	<circle cx="2219.70" cy="661.22" r="14.97" style="fill:none;stroke:#606060;stroke-width:8.64"/>
	<circle cx="2252.62" cy="2252.57" r="14.97" style="fill:none;stroke:#606060;stroke-width:8.64"/>
	<circle cx="2334.67" cy="2073.12" r="14.97" style="fill:none;stroke:#606060;stroke-width:8.64"/>
	<circle cx="2351.13" cy="673.72" r="14.97" style="fill:none;stroke:#606060;stroke-width:8.64"/>
	<circle cx="2515.22" cy="588.70" r="14.97" style="fill:none;stroke:#606060;stroke-width:8.64"/>
	<circle cx="3073.33" cy="2335.85" r="14.97" style="fill:none;stroke:#606060;stroke-width:8.64"/>
	<circle cx="3171.84" cy="587.71" r="14.97" style="fill:none;stroke:#606060;stroke-width:8.64"/>
	<circle cx="3401.64" cy="695.25" r="14.97" style="fill:none;stroke:#606060;stroke-width:8.64"/>
	<circle cx="3483.81" cy="695.37" r="14.97" style="fill:none;stroke:#606060;stroke-width:8.64"/>
	<circle cx="3598.65" cy="2233.51" r="14.97" style="fill:none;stroke:#606060;stroke-width:8.64"/>
	<circle cx="3647.90" cy="616.17" r="14.97" style="fill:none;stroke:#606060;stroke-width:8.64"/>
	<circle cx="3664.36" cy="2312.59" r="14.97" style="fill:none;stroke:#606060;stroke-width:8.64"/>
	<circle cx="3697.16" cy="2311.97" r="14.97" style="fill:none;stroke:#606060;stroke-width:8.64"/>
	<circle cx="3746.41" cy="558.01" r="14.97" style="fill:none;stroke:#606060;stroke-width:8.64"/>
	<circle cx="3762.87" cy="685.47" r="14.97" style="fill:none;stroke:#606060;stroke-width:8.64"/>
	<circle cx="3795.66" cy="2223.24" r="14.97" style="fill:none;stroke:#606060;stroke-width:8.64"/>
	<path d=" M479.65 1088.17 L611.08 1082.48 L627.41 1079.01 L643.87 1073.32 L660.33 1066.88 L660.33 1063.05 L676.66 1058.22 L676.66 1054.51 L676.66 1067.25 L693.12 1079.88 L709.46 1075.05 L709.46 1084.21 L709.46 1080.62 L709.46 1089.78 L725.92 1085.94 L725.92 1082.97 L725.92 1078.27 L725.92 1073.56 L758.71 1070.22 L758.71 1067.25 L758.71 1064.53 L775.17 1059.33 L775.17 1055.74 L775.17 1052.90 L791.63 1050.05 L791.63 1047.45 L791.63 1043.25 L807.96 1054.26 L807.96 1064.16 L807.96 1074.80 L807.96 1068.61 L824.42 1078.02 L824.42 1075.42 L824.42 1072.57 L824.42 1069.85 L824.42 1067.38 L840.88 1064.41 L857.22 1073.94 L857.22 1071.21 L857.22 1078.89 L857.22 1074.06 L857.22 1069.73 L857.22 1066.63 L873.67 1064.41 L873.67 1073.69 L890.13 1069.73 L890.13 1078.51 L890.13 1085.45 L890.13 1082.72 L890.13 1079.75 L890.13 1077.52 L890.13 1075.05 L890.13 1082.72 L906.47 1091.39 L906.47 1099.31 L906.47 1096.95 L906.47 1093.49 L922.93 1089.41 L922.93 1095.59 L922.93 1091.88 L922.93 1099.92 L922.93 1097.70 L922.93 1094.60 L922.93 1090.89 L939.39 1087.67 L939.39 1084.08 L939.39 1081.61 L939.39 1079.13 L939.39 1075.92 L939.39 1082.97 L939.39 1080.62 L939.39 1078.02 L955.72 1076.04 L955.72 1072.70 L955.72 1070.84 L955.72 1068.86 L955.72 1076.53 L955.72 1083.34 L955.72 1081.11 L955.72 1076.66 L955.72 1074.55 L972.18 1071.71 L972.18 1069.36 L972.18 1076.53 L972.18 1074.68 L988.64 1081.73 L988.64 1079.88 L988.64 1078.02 L1004.97 1076.04 L1004.97 1073.44 L1004.97 1071.34 L1004.97 1069.36 L1021.43 1070.47 L1021.43 1061.81 L1021.43 1053.39 L1021.43 1053.76 L1021.43 1054.01 L1021.43 1053.76 L1021.43 1044.85 L1037.89 1033.84 L1037.89 1032.85 L1037.89 1033.72 L1037.89 1042.01 L1037.89 1042.50 L1037.89 1050.05 L1037.89 1050.30 L1037.89 1050.92 L1037.89 1050.42 L1054.23 1058.47 L1054.23 1058.59 L1054.23 1057.72 L1054.23 1048.69 L1054.23 1048.69 L1054.23 1048.69 L1070.68 1041.02 L1070.68 1039.90 L1070.68 1039.78 L1087.02 1040.52 L1087.02 1049.19 L1087.02 1048.32 L1087.02 1048.32 L1087.02 1056.49 L1087.02 1056.98 L1103.48 1056.61 L1119.94 1065.64 L1119.94 1073.19 L1136.27 1065.52 L1136.27 1065.15 L1136.27 1065.15 L1136.27 1056.98 L1136.27 1056.61 L1152.73 1056.36 L1152.73 1064.65 L1152.73 1064.90 L1169.19 1074.06 L1169.19 1082.85 L1169.19 1073.94 L1185.53 1073.81 L1185.53 1074.18 L1185.53 1076.29 L1201.98 1069.98 L1218.44 1071.83 L1218.44 1075.05 L1218.44 1076.78 L1218.44 1069.73 L1218.44 1071.46 L1234.78 1065.15 L1251.24 1066.88 L1251.24 1069.48 L1251.24 1071.34 L1251.24 1074.31 L1267.69 1076.16 L1284.03 1078.39 L1284.03 1070.84 L1300.49 1064.78 L1333.28 1067.25 L1333.28 1069.11 L1349.74 1071.09 L1366.20 1073.69 L1366.20 1077.28 L1398.99 1080.00 L1398.99 1072.33 L1398.99 1074.55 L1398.99 1076.66 L1415.33 1078.76 L1431.79 1081.61 L1431.79 1083.71 L1481.04 1076.04 L1497.50 1067.87 L1513.83 1070.59 L1530.29 1073.32 L1530.29 1065.52 L1546.75 1060.20 L1612.34 1053.15 L1612.34 1055.13 L1628.80 1058.22 L1628.80 1060.82 L1645.26 1055.62 L1645.26 1060.08 L1661.59 1063.05 L1678.05 1066.63 L1678.05 1069.36 L1710.84 1071.71 L1710.84 1074.93 L1727.30 1078.64 L1743.76 1080.99 L1792.89 1085.07 L1825.81 1089.65 L1858.60 1092.62 L1875.06 1096.46 L1875.06 1099.55 L1875.06 1090.15 L1875.06 1080.37 L1907.85 1084.21 L1924.31 1076.91 L1924.31 1079.75 L1957.11 1072.08 L1957.11 1075.17 L1957.11 1077.77 L1957.11 1081.86 L1989.90 1086.06 L2055.61 1089.28 L2072.07 1092.25 L2121.32 1094.97 L2121.32 1100.30 L2154.12 1104.13 L2170.45 1107.47 L2170.45 1110.81 L2186.91 1114.03 L2186.91 1118.98 L2203.37 1107.97 L2203.37 1097.57 L2203.37 1086.06 L2219.70 1093.12 L2219.70 1082.60 L2252.62 1085.69 L2334.67 1089.16 L2351.13 1092.62 L2515.22 1095.96 L3073.33 1099.92 L3171.84 1088.17 L3401.64 1091.76 L3483.81 1081.86 L3598.65 1088.54 L3647.90 1094.48 L3664.36 1099.06 L3697.16 1102.52 L3746.41 1089.53 L3762.87 1095.47 L3795.66 1082.72" stroke-linejoin="round" style="fill:none;stroke:#000000;stroke-width:8.64"/>
	<line x1="350.71" y1="2414.69" x2="350.71" y2="235.38" style="stroke:#000000;stroke-width:5.76"/>
	<line x1="350.71" y1="2276.20" x2="310.74" y2="2276.20" style="stroke:#000000;stroke-width:5.76"/>
	<text x="266.64" y="2276.20" style="font-family:'Helvetica';font-size:79.94px;fill:#000000" transform="rotate(-90 266.64,2276.20)" text-anchor="middle">-4</text>
	<line x1="350.71" y1="1664.86" x2="310.74" y2="1664.86" style="stroke:#000000;stroke-width:5.76"/>
	<text x="266.64" y="1664.86" style="font-family:'Helvetica';font-size:79.94px;fill:#000000" transform="rotate(-90 266.64,1664.86)" text-anchor="middle">-2</text>
	<line x1="350.71" y1="1053.39" x2="310.74" y2="1053.39" style="stroke:#000000;stroke-width:5.76"/>
	<text x="266.64" y="1053.39" style="font-family:'Helvetica';font-size:79.94px;fill:#000000" transform="rotate(-90 266.64,1053.39)" text-anchor="middle">0</text>
	<line x1="350.71" y1="442.05" x2="310.74" y2="442.05" style="stroke:#000000;stroke-width:5.76"/>
	<text x="266.64" y="442.05" style="font-family:'Helvetica';font-size:79.94px;fill:#000000" transform="rotate(-90 266.64,442.05)" text-anchor="middle">2</text>
	<text x="176.68" y="1325.03" style="font-family:'Helvetica';font-size:79.94px;fill:#000000" transform="rotate(-90 176.68,1325.03)" text-anchor="middle">Scaled Schoenfeld Residuals</text>
	<line x1="350.71" y1="2414.69" x2="3859.02" y2="2414.69" style="stroke:#000000;stroke-width:5.76"/>
	<line x1="414.07" y1="2414.69" x2="414.07" y2="2454.66" style="stroke:#000000;stroke-width:5.76"/>
	<text x="414.07" y="2530.61" style="font-family:'Helvetica';font-size:79.94px;fill:#000000" text-anchor="middle">0</text>
	<line x1="1234.90" y1="2414.69" x2="1234.90" y2="2454.66" style="stroke:#000000;stroke-width:5.76"/>
	<text x="1234.90" y="2530.61" style="font-family:'Helvetica';font-size:79.94px;fill:#000000" text-anchor="middle">50</text>
	<line x1="2055.61" y1="2414.69" x2="2055.61" y2="2454.66" style="stroke:#000000;stroke-width:5.76"/>
	<text x="2055.61" y="2530.61" style="font-family:'Helvetica';font-size:79.94px;fill:#000000" text-anchor="middle">100</text>
	<line x1="2876.45" y1="2414.69" x2="2876.45" y2="2454.66" style="stroke:#000000;stroke-width:5.76"/>
	<text x="2876.45" y="2530.61" style="font-family:'Helvetica';font-size:79.94px;fill:#000000" text-anchor="middle">150</text>
	<line x1="3697.28" y1="2414.69" x2="3697.28" y2="2454.66" style="stroke:#000000;stroke-width:5.76"/>
	<text x="3697.28" y="2530.61" style="font-family:'Helvetica';font-size:79.94px;fill:#000000" text-anchor="middle">200</text>
	<text x="2104.86" y="2620.57" style="font-family:'Helvetica';font-size:79.94px;fill:#000000" text-anchor="middle">Time</text>
	<text x="368.03" y="2737.89" style="font-family:'Helvetica';font-size:79.94px;fill:#000000">bandwidth = .8</text>
	<text x="368.03" y="187.99" style="font-family:'Helvetica';font-size:99.99px;fill:#000000">Schoenfeld residuals against time, age and sex adjusted</text>
</svg>
