<?xml version="1.0" encoding="UTF-8" standalone="no"?>
<!-- This is a Stata 16.1 generated SVG file (http://www.stata.com) -->

<svg version="1.1" width="5.50in" height="4.00in" viewBox="0 0 3960 2880" xmlns="http://www.w3.org/2000/svg" xmlns:xlink="http://www.w3.org/1999/xlink">
	<desc>Stata Graph - Graph</desc>
	<rect x="0" y="0" width="3960" height="2880" style="fill:#EAF2F3;stroke:none"/>
	<rect x="0.00" y="0.00" width="3959.88" height="2880.00" style="fill:#EAF2F3"/>
	<rect x="2.88" y="2.88" width="3954.12" height="2874.24" style="fill:none;stroke:#EAF2F3;stroke-width:5.76"/>
	<rect x="556.38" y="100.86" width="3302.64" height="2388.33" style="fill:#FFFFFF"/>
	<rect x="559.26" y="103.74" width="3296.88" height="2382.57" style="fill:none;stroke:#FFFFFF;stroke-width:5.76"/>
	<line x1="556.38" y1="2241.06" x2="3859.02" y2="2241.06" style="stroke:#EAF2F3;stroke-width:8.64"/>
	<line x1="556.38" y1="1723.64" x2="3859.02" y2="1723.64" style="stroke:#EAF2F3;stroke-width:8.64"/>
	<line x1="556.38" y1="1206.11" x2="3859.02" y2="1206.11" style="stroke:#EAF2F3;stroke-width:8.64"/>
	<line x1="556.38" y1="688.57" x2="3859.02" y2="688.57" style="stroke:#EAF2F3;stroke-width:8.64"/>
	<line x1="556.38" y1="171.15" x2="3859.02" y2="171.15" style="stroke:#EAF2F3;stroke-width:8.64"/>
	<defs>
		<path id="path_YEeJRQHN" d="M619.74 171.15 L619.74 171.15 L634.84 171.15 L649.93 171.15 L664.91 171.15 L680.01 171.15 L694.98 171.15 L710.08 171.15 L725.17 171.15 L740.15 171.28 L755.25 171.40 L770.34 171.65 L785.32 172.14 L800.41 172.76 L815.51 173.63 L830.49 174.99 L845.58 176.84 L860.56 179.32 L875.65 182.66 L890.75 187.12 L905.73 192.93 L920.82 200.23 L935.92 209.27 L950.89 220.53 L965.99 234.02 L980.97 250.23 L996.06 269.16 L1011.16 291.19 L1026.13 316.31 L1041.23 344.78 L1056.33 376.58 L1071.30 411.73 L1086.40 450.09 L1101.50 491.43 L1116.47 535.61 L1131.57 582.26 L1146.54 631.02 L1161.64 681.39 L1176.74 732.87 L1191.71 785.09 L1206.81 837.32 L1221.91 889.17 L1236.88 939.91 L1251.98 989.54 L1266.95 1037.68 L1282.05 1084.21 L1297.15 1129.01 L1312.12 1172.07 L1327.22 1213.41 L1342.32 1252.88 L1357.29 1290.63 L1372.39 1326.77 L1387.48 1361.17 L1402.46 1394.09 L1417.56 1425.52 L1432.53 1455.72 L1447.63 1484.55 L1462.72 1512.15 L1477.70 1538.88 L1492.80 1564.50 L1507.89 1589.37 L1522.87 1613.63 L1537.96 1637.14 L1552.94 1660.03 L1568.04 1682.31 L1583.13 1703.97 L1598.11 1725.13 L1613.20 1745.67 L1628.30 1765.60 L1643.28 1785.03 L1658.37 1803.96 L1673.47 1822.28 L1688.44 1840.10 L1703.54 1857.42 L1718.52 1874.25 L1733.61 1890.59 L1748.71 1906.43 L1763.68 1921.90 L1778.78 1936.87 L1793.88 1951.35 L1808.85 1965.58 L1823.95 1979.20 L1838.92 1992.56 L1854.02 2005.43 L1869.12 2017.93 L1884.09 2030.06 L1899.19 2041.94 L1914.29 2053.32 L1929.26 2064.46 L1944.36 2075.23 L1959.46 2085.62 L1974.43 2095.77 L1989.53 2105.55 L2004.50 2115.08 L2019.60 2124.36 L2034.70 2133.27 L2049.67 2142.06 L2064.77 2150.47 L2079.87 2158.64 L2094.84 2166.56 L2109.94 2174.23 L2124.91 2181.66 L2140.01 2188.96 L2155.11 2195.89 L2170.08 2202.70 L2185.18 2209.25 L2200.28 2215.69 L2215.25 2221.88 L2230.35 2227.82 L2245.32 2233.63 L2260.42 2239.33 L2275.51 2244.77 L2290.49 2250.09 L2305.59 2255.17 L2320.68 2260.24 L2335.66 2265.07 L2350.76 2269.77 L2365.85 2274.22 L2380.83 2278.68 L2395.92 2282.89 L2410.90 2287.10 L2425.99 2291.06 L2441.09 2295.02 L2456.07 2298.73 L2471.16 2302.44 L2486.26 2305.91 L2501.24 2309.37 L2516.33 2312.71 L2531.31 2315.93 L2546.40 2319.15 L2561.50 2322.12 L2576.47 2325.09 L2591.57 2327.93 L2606.67 2330.78 L2621.64 2333.50 L2636.74 2336.10 L2651.84 2338.58 L2666.81 2341.05 L2681.91 2343.53 L2696.88 2345.75 L2711.98 2348.11 L2727.08 2350.21 L2742.05 2352.31 L2757.15 2354.42 L2772.25 2356.40 L2787.22 2358.38 L2802.32 2360.23 L2817.29 2362.09 L2832.39 2363.95 L2847.49 2365.68 L2862.46 2367.29 L2877.56 2369.02 L2892.66 2370.63 L2907.63 2372.11 L2922.73 2373.60 L2937.82 2375.08 L2952.80 2376.57 L2967.90 2377.93 L2982.87 2379.29 L2997.97 2380.65 L3013.07 2381.89 L3028.04 2383.25 L3043.14 2384.49 L3058.23 2385.60 L3073.21 2386.84 L3088.30 2387.95 L3103.28 2389.07 L3118.38 2390.18 L3133.47 2391.30 L3148.45 2392.29 L3163.55 2393.28 L3178.64 2394.39 L3193.62 2395.26 L3208.71 2396.25 L3223.81 2397.24 L3238.78 2398.10 L3253.88 2399.09 L3268.86 2399.96 L3283.95 2400.83 L3299.05 2401.69 L3314.03 2402.56 L3329.12 2403.42 L3344.22 2404.29 L3359.19 2405.03 L3374.29 2405.90 L3389.26 2406.64 L3404.36 2407.38 L3419.46 2408.25 L3434.43 2408.99 L3449.53 2409.74 L3464.63 2410.48 L3479.60 2411.22 L3494.70 2411.96 L3509.80 2412.71 L3524.77 2413.45 L3539.87 2414.19 L3554.84 2414.81 L3569.94 2415.55 L3585.04 2416.29 L3600.01 2417.04 L3615.11 2417.66 L3630.21 2418.40 L3645.18 2419.02 L3660.28 2419.76 L3675.25 2420.50 L3690.35 2421.12 L3705.45 2421.86 L3720.42 2422.48 L3735.52 2423.22 L3750.61 2423.84 L3765.59 2424.46 L3780.69 2425.20 L3795.66 2425.82 L3795.66 176.10 L3780.69 176.10 L3765.59 176.10 L3750.61 176.10 L3735.52 175.98 L3720.42 175.98 L3705.45 175.98 L3690.35 175.98 L3675.25 175.98 L3660.28 175.98 L3645.18 175.98 L3630.21 175.98 L3615.11 175.98 L3600.01 175.98 L3585.04 175.98 L3569.94 175.98 L3554.84 175.98 L3539.87 175.98 L3524.77 175.98 L3509.80 175.98 L3494.70 175.98 L3479.60 175.98 L3464.63 175.98 L3449.53 175.98 L3434.43 175.98 L3419.46 175.98 L3404.36 175.98 L3389.26 175.98 L3374.29 175.98 L3359.19 175.98 L3344.22 175.98 L3329.12 175.98 L3314.03 175.98 L3299.05 175.98 L3283.95 175.98 L3268.86 175.98 L3253.88 175.98 L3238.78 175.98 L3223.81 175.98 L3208.71 175.98 L3193.62 175.98 L3178.64 175.85 L3163.55 175.85 L3148.45 175.85 L3133.47 175.85 L3118.38 175.85 L3103.28 175.85 L3088.30 175.85 L3073.21 175.85 L3058.23 175.85 L3043.14 175.85 L3028.04 175.85 L3013.07 175.85 L2997.97 175.85 L2982.87 175.85 L2967.90 175.85 L2952.80 175.85 L2937.82 175.85 L2922.73 175.73 L2907.63 175.73 L2892.66 175.73 L2877.56 175.73 L2862.46 175.73 L2847.49 175.73 L2832.39 175.73 L2817.29 175.73 L2802.32 175.73 L2787.22 175.73 L2772.25 175.73 L2757.15 175.73 L2742.05 175.61 L2727.08 175.61 L2711.98 175.61 L2696.88 175.61 L2681.91 175.61 L2666.81 175.61 L2651.84 175.61 L2636.74 175.61 L2621.64 175.61 L2606.67 175.48 L2591.57 175.48 L2576.47 175.48 L2561.50 175.48 L2546.40 175.48 L2531.31 175.48 L2516.33 175.48 L2501.24 175.48 L2486.26 175.36 L2471.16 175.36 L2456.07 175.36 L2441.09 175.36 L2425.99 175.36 L2410.90 175.36 L2395.92 175.24 L2380.83 175.24 L2365.85 175.24 L2350.76 175.24 L2335.66 175.24 L2320.68 175.24 L2305.59 175.11 L2290.49 175.11 L2275.51 175.11 L2260.42 175.11 L2245.32 175.11 L2230.35 174.99 L2215.25 174.99 L2200.28 174.99 L2185.18 174.99 L2170.08 174.86 L2155.11 174.86 L2140.01 174.86 L2124.91 174.86 L2109.94 174.74 L2094.84 174.74 L2079.87 174.74 L2064.77 174.62 L2049.67 174.62 L2034.70 174.62 L2019.60 174.49 L2004.50 174.49 L1989.53 174.49 L1974.43 174.37 L1959.46 174.37 L1944.36 174.37 L1929.26 174.25 L1914.29 174.25 L1899.19 174.12 L1884.09 174.12 L1869.12 174.00 L1854.02 174.00 L1838.92 173.87 L1823.95 173.75 L1808.85 173.75 L1793.88 173.63 L1778.78 173.50 L1763.68 173.50 L1748.71 173.38 L1733.61 173.26 L1718.52 173.13 L1703.54 173.01 L1688.44 173.01 L1673.47 172.88 L1658.37 172.76 L1643.28 172.51 L1628.30 172.39 L1613.20 172.27 L1598.11 172.14 L1583.13 171.89 L1568.04 171.77 L1552.94 171.65 L1537.96 171.40 L1522.87 171.15 L1507.89 171.03 L1492.80 170.78 L1477.70 170.53 L1462.72 170.29 L1447.63 170.04 L1432.53 169.79 L1417.56 169.54 L1402.46 169.17 L1387.48 168.92 L1372.39 168.68 L1357.29 168.43 L1342.32 168.18 L1327.22 168.06 L1312.12 167.81 L1297.15 167.69 L1282.05 167.44 L1266.95 167.32 L1251.98 167.19 L1236.88 167.07 L1221.91 166.94 L1206.81 166.82 L1191.71 166.70 L1176.74 166.45 L1161.64 166.20 L1146.54 165.95 L1131.57 165.71 L1116.47 165.46 L1101.50 165.09 L1086.40 164.84 L1071.30 164.59 L1056.33 164.35 L1041.23 164.22 L1026.13 164.22 L1011.16 164.22 L996.06 164.47 L980.97 164.72 L965.99 165.09 L950.89 165.71 L935.92 166.20 L920.82 166.82 L905.73 167.44 L890.75 168.06 L875.65 168.68 L860.56 169.17 L845.58 169.67 L830.49 170.04 L815.51 170.41 L800.41 170.53 L785.32 170.78 L770.34 170.90 L755.25 171.03 L740.15 171.03 L725.17 171.15 L710.08 171.15 L694.98 171.15 L680.01 171.15 L664.91 171.15 L649.93 171.15 L634.84 171.15 L619.74 171.15 L619.74 171.15 Z" stroke-linejoin="round"/>
	</defs>
	<defs>
		<clipPath id="clipPath_PbwfYJFi">
			<use xlink:href="#path_YEeJRQHN"/>
		</clipPath>
	</defs>
	<use xlink:href="#path_YEeJRQHN" style="stroke:none;fill:#FF3333;fill-opacity:0.25"/>
	<use xlink:href="#path_YEeJRQHN" style="fill:none;stroke:#FF0000;stroke-opacity:0.25;stroke-width:17.28" clip-path="url(#clipPath_PbwfYJFi)"/>
	<path d=" M619.74 171.15 L634.71 171.15 L649.81 171.15 L664.91 171.15 L679.88 171.15 L694.98 171.15 L710.08 171.15 L725.05 171.15 L740.15 171.28 L755.25 171.28 L770.22 171.40 L785.32 171.52 L800.29 171.77 L815.39 172.02 L830.49 172.51 L845.46 173.26 L860.56 174.37 L875.65 175.73 L890.63 177.71 L905.73 180.19 L920.70 183.53 L935.80 187.86 L950.89 193.18 L965.87 199.61 L980.97 207.54 L996.06 216.82 L1011.04 227.71 L1026.13 240.33 L1041.23 254.56 L1056.21 270.53 L1071.30 288.22 L1086.28 307.53 L1101.38 328.32 L1116.47 350.59 L1131.45 374.11 L1146.54 398.61 L1161.64 423.86 L1176.62 449.72 L1191.71 475.96 L1206.69 502.07 L1221.78 528.06 L1236.88 553.55 L1251.86 578.43 L1266.95 602.56 L1282.05 625.82 L1297.02 648.35 L1312.12 670.00 L1327.22 690.79 L1342.19 710.59 L1357.29 729.65 L1372.26 747.84 L1387.36 765.17 L1402.46 781.75 L1417.43 797.59 L1432.53 812.82 L1447.63 827.29 L1462.60 841.28 L1477.70 854.77 L1492.67 867.76 L1507.77 880.26 L1522.87 892.39 L1537.84 904.27 L1552.94 915.90 L1568.04 927.04 L1583.01 938.05 L1598.11 948.70 L1613.08 958.97 L1628.18 969.12 L1643.28 978.89 L1658.25 988.42 L1673.35 997.58 L1688.44 1006.61 L1703.42 1015.28 L1718.52 1023.82 L1733.61 1031.98 L1748.59 1040.03 L1763.68 1047.70 L1778.66 1055.25 L1793.76 1062.55 L1808.85 1069.73 L1823.83 1076.53 L1838.92 1083.22 L1854.02 1089.78 L1869.00 1096.09 L1884.09 1102.15 L1899.07 1108.09 L1914.16 1113.78 L1929.26 1119.35 L1944.24 1124.80 L1959.33 1130.12 L1974.43 1135.19 L1989.40 1140.14 L2004.50 1144.85 L2019.60 1149.55 L2034.57 1154.00 L2049.67 1158.34 L2064.64 1162.67 L2079.74 1166.75 L2094.84 1170.71 L2109.81 1174.55 L2124.91 1178.26 L2140.01 1181.97 L2154.98 1185.44 L2170.08 1188.90 L2185.05 1192.12 L2200.15 1195.34 L2215.25 1198.43 L2230.22 1201.53 L2245.32 1204.37 L2260.42 1207.22 L2275.39 1210.07 L2290.49 1212.66 L2305.59 1215.26 L2320.56 1217.74 L2335.66 1220.21 L2350.63 1222.56 L2365.73 1224.79 L2380.83 1227.02 L2395.80 1229.12 L2410.90 1231.23 L2425.99 1233.33 L2440.97 1235.19 L2456.07 1237.17 L2471.04 1239.02 L2486.14 1240.76 L2501.24 1242.49 L2516.21 1244.10 L2531.31 1245.83 L2546.40 1247.32 L2561.38 1248.92 L2576.47 1250.41 L2591.57 1251.77 L2606.55 1253.26 L2621.64 1254.62 L2636.62 1255.85 L2651.72 1257.22 L2666.81 1258.45 L2681.79 1259.57 L2696.88 1260.80 L2711.98 1261.92 L2726.95 1263.03 L2742.05 1264.02 L2757.03 1265.14 L2772.12 1266.13 L2787.22 1267.12 L2802.20 1268.11 L2817.29 1268.97 L2832.39 1269.84 L2847.36 1270.70 L2862.46 1271.57 L2877.56 1272.44 L2892.53 1273.18 L2907.63 1274.05 L2922.60 1274.79 L2937.70 1275.53 L2952.80 1276.27 L2967.77 1276.89 L2982.87 1277.63 L2997.97 1278.25 L3012.94 1279.00 L3028.04 1279.61 L3043.01 1280.23 L3058.11 1280.85 L3073.21 1281.35 L3088.18 1281.97 L3103.28 1282.59 L3118.38 1283.08 L3133.35 1283.58 L3148.45 1284.19 L3163.42 1284.69 L3178.52 1285.18 L3193.62 1285.68 L3208.59 1286.17 L3223.69 1286.67 L3238.78 1287.16 L3253.76 1287.54 L3268.86 1288.03 L3283.95 1288.40 L3298.93 1288.90 L3314.03 1289.27 L3329.00 1289.76 L3344.10 1290.13 L3359.19 1290.63 L3374.17 1291.00 L3389.26 1291.37 L3404.36 1291.74 L3419.34 1292.11 L3434.43 1292.49 L3449.41 1292.98 L3464.51 1293.35 L3479.60 1293.72 L3494.58 1294.09 L3509.67 1294.47 L3524.77 1294.71 L3539.74 1295.08 L3554.84 1295.46 L3569.94 1295.83 L3584.91 1296.20 L3600.01 1296.57 L3614.99 1296.94 L3630.08 1297.31 L3645.18 1297.56 L3660.15 1297.93 L3675.25 1298.30 L3690.35 1298.67 L3705.32 1299.04 L3720.42 1299.29 L3735.39 1299.66 L3750.49 1300.03 L3765.59 1300.28 L3780.56 1300.65 L3795.66 1301.02" stroke-linejoin="round" style="fill:none;stroke:#FF0000;stroke-width:8.64"/>
	<line x1="556.38" y1="2489.19" x2="556.38" y2="100.86" style="stroke:#000000;stroke-width:5.76"/>
	<line x1="556.38" y1="2241.06" x2="516.41" y2="2241.06" style="stroke:#000000;stroke-width:5.76"/>
	<text x="496.49" y="2276.09" style="font-family:'Helvetica';font-size:99.99px;fill:#000000" text-anchor="end">-0.20</text>
	<line x1="556.38" y1="1723.64" x2="516.41" y2="1723.64" style="stroke:#000000;stroke-width:5.76"/>
	<text x="496.49" y="1758.67" style="font-family:'Helvetica';font-size:99.99px;fill:#000000" text-anchor="end">-0.15</text>
	<line x1="556.38" y1="1206.11" x2="516.41" y2="1206.11" style="stroke:#000000;stroke-width:5.76"/>
	<text x="496.49" y="1241.13" style="font-family:'Helvetica';font-size:99.99px;fill:#000000" text-anchor="end">-0.10</text>
	<line x1="556.38" y1="688.57" x2="516.41" y2="688.57" style="stroke:#000000;stroke-width:5.76"/>
	<text x="496.49" y="723.60" style="font-family:'Helvetica';font-size:99.99px;fill:#000000" text-anchor="end">-0.05</text>
	<line x1="556.38" y1="171.15" x2="516.41" y2="171.15" style="stroke:#000000;stroke-width:5.76"/>
	<text x="496.49" y="206.18" style="font-family:'Helvetica';font-size:99.99px;fill:#000000" text-anchor="end">0.00</text>
	<text x="190.71" y="1294.96" style="font-family:'Helvetica';font-size:99.99px;fill:#000000" transform="rotate(-90 190.71,1294.96)" text-anchor="middle">Difference in curves (%)</text>
	<line x1="556.38" y1="2489.19" x2="3859.02" y2="2489.19" style="stroke:#000000;stroke-width:5.76"/>
	<line x1="619.74" y1="2489.19" x2="619.74" y2="2529.16" style="stroke:#000000;stroke-width:5.76"/>
	<text x="619.74" y="2619.14" style="font-family:'Helvetica';font-size:99.99px;fill:#000000" text-anchor="middle">0</text>
	<line x1="1372.39" y1="2489.19" x2="1372.39" y2="2529.16" style="stroke:#000000;stroke-width:5.76"/>
	<text x="1372.39" y="2619.14" style="font-family:'Helvetica';font-size:99.99px;fill:#000000" text-anchor="middle">50</text>
	<line x1="2124.91" y1="2489.19" x2="2124.91" y2="2529.16" style="stroke:#000000;stroke-width:5.76"/>
	<text x="2124.91" y="2619.14" style="font-family:'Helvetica';font-size:99.99px;fill:#000000" text-anchor="middle">100</text>
	<line x1="2877.56" y1="2489.19" x2="2877.56" y2="2529.16" style="stroke:#000000;stroke-width:5.76"/>
	<text x="2877.56" y="2619.14" style="font-family:'Helvetica';font-size:99.99px;fill:#000000" text-anchor="middle">150</text>
	<line x1="3630.21" y1="2489.19" x2="3630.21" y2="2529.16" style="stroke:#000000;stroke-width:5.76"/>
	<text x="3630.21" y="2619.14" style="font-family:'Helvetica';font-size:99.99px;fill:#000000" text-anchor="middle">200</text>
	<text x="2207.70" y="2729.16" style="font-family:'Helvetica';font-size:99.99px;fill:#000000" text-anchor="middle">Days from 1 March 2020</text>
</svg>
