<?xml version="1.0" encoding="UTF-8" standalone="no"?>
<!-- This is a Stata 16.1 generated SVG file (http://www.stata.com) -->

<svg version="1.1" width="5.50in" height="4.00in" viewBox="0 0 3960 2880" xmlns="http://www.w3.org/2000/svg" xmlns:xlink="http://www.w3.org/1999/xlink">
	<desc>Stata Graph - Graph</desc>
	<rect x="0" y="0" width="3960" height="2880" style="fill:#EAF2F3;stroke:none"/>
	<rect x="0.00" y="0.00" width="3959.88" height="2880.00" style="fill:#EAF2F3"/>
	<rect x="2.88" y="2.88" width="3954.12" height="2874.24" style="fill:none;stroke:#EAF2F3;stroke-width:5.76"/>
	<rect x="556.38" y="100.86" width="3302.64" height="2388.33" style="fill:#FFFFFF"/>
	<rect x="559.26" y="103.74" width="3296.88" height="2382.57" style="fill:none;stroke:#FFFFFF;stroke-width:5.76"/>
	<line x1="556.38" y1="2425.82" x2="3859.02" y2="2425.82" style="stroke:#EAF2F3;stroke-width:8.64"/>
	<line x1="556.38" y1="1973.50" x2="3859.02" y2="1973.50" style="stroke:#EAF2F3;stroke-width:8.64"/>
	<line x1="556.38" y1="1521.18" x2="3859.02" y2="1521.18" style="stroke:#EAF2F3;stroke-width:8.64"/>
	<line x1="556.38" y1="1068.86" x2="3859.02" y2="1068.86" style="stroke:#EAF2F3;stroke-width:8.64"/>
	<line x1="556.38" y1="616.54" x2="3859.02" y2="616.54" style="stroke:#EAF2F3;stroke-width:8.64"/>
	<line x1="556.38" y1="164.22" x2="3859.02" y2="164.22" style="stroke:#EAF2F3;stroke-width:8.64"/>
	<defs>
		<path id="path_mCUNbGHG" d="M619.74 616.54 L619.74 616.54 L634.84 616.54 L649.93 616.67 L664.91 616.91 L680.01 617.66 L694.98 619.02 L710.08 621.24 L725.17 624.34 L740.15 628.55 L755.25 634.11 L770.34 640.92 L785.32 649.21 L800.41 658.87 L815.51 670.00 L830.49 682.63 L845.58 696.73 L860.56 712.20 L875.65 729.03 L890.75 747.23 L905.73 766.53 L920.82 787.07 L935.92 808.61 L950.89 831.01 L965.99 854.40 L980.97 878.53 L996.06 903.28 L1011.16 928.65 L1026.13 954.51 L1041.23 980.75 L1056.33 1007.23 L1071.30 1034.09 L1086.40 1061.07 L1101.50 1088.04 L1116.47 1115.02 L1131.57 1142.00 L1146.54 1168.86 L1161.64 1195.59 L1176.74 1221.95 L1191.71 1248.06 L1206.81 1273.92 L1221.91 1299.29 L1236.88 1324.29 L1251.98 1348.79 L1266.95 1372.93 L1282.05 1396.44 L1297.15 1419.58 L1312.12 1442.35 L1327.22 1464.50 L1342.32 1486.16 L1357.29 1507.45 L1372.39 1528.11 L1387.48 1548.41 L1402.46 1568.09 L1417.56 1587.39 L1432.53 1606.20 L1447.63 1624.52 L1462.72 1642.46 L1477.70 1659.91 L1492.80 1676.86 L1507.89 1693.45 L1522.87 1709.54 L1537.96 1725.25 L1552.94 1740.60 L1568.04 1755.45 L1583.13 1769.93 L1598.11 1784.04 L1613.20 1797.77 L1628.30 1811.14 L1643.28 1824.01 L1658.37 1836.75 L1673.47 1849.01 L1688.44 1861.01 L1703.54 1872.64 L1718.52 1883.91 L1733.61 1894.92 L1748.71 1905.56 L1763.68 1916.08 L1778.78 1926.11 L1793.88 1936.01 L1808.85 1945.53 L1823.95 1954.82 L1838.92 1963.97 L1854.02 1972.76 L1869.12 1981.30 L1884.09 1989.59 L1899.19 1997.76 L1914.29 2005.56 L1929.26 2013.23 L1944.36 2020.65 L1959.46 2027.95 L1974.43 2035.01 L1989.53 2041.82 L2004.50 2048.50 L2019.60 2054.93 L2034.70 2061.24 L2049.67 2067.31 L2064.77 2073.37 L2079.87 2079.06 L2094.84 2084.76 L2109.94 2090.20 L2124.91 2095.52 L2140.01 2100.72 L2155.11 2105.80 L2170.08 2110.75 L2185.18 2115.57 L2200.28 2120.15 L2215.25 2124.73 L2230.35 2129.19 L2245.32 2133.39 L2260.42 2137.60 L2275.51 2141.68 L2290.49 2145.64 L2305.59 2149.48 L2320.68 2153.19 L2335.66 2156.91 L2350.76 2160.50 L2365.85 2163.96 L2380.83 2167.30 L2395.92 2170.52 L2410.90 2173.74 L2425.99 2176.95 L2441.09 2179.92 L2456.07 2182.89 L2471.16 2185.74 L2486.26 2188.59 L2501.24 2191.31 L2516.33 2194.03 L2531.31 2196.63 L2546.40 2199.23 L2561.50 2201.71 L2576.47 2204.06 L2591.57 2206.41 L2606.67 2208.76 L2621.64 2210.99 L2636.74 2213.21 L2651.84 2215.32 L2666.81 2217.42 L2681.91 2219.40 L2696.88 2221.38 L2711.98 2223.36 L2727.08 2225.22 L2742.05 2227.07 L2757.15 2228.93 L2772.25 2230.66 L2787.22 2232.40 L2802.32 2234.13 L2817.29 2235.74 L2832.39 2237.35 L2847.49 2238.95 L2862.46 2240.44 L2877.56 2242.05 L2892.66 2243.53 L2907.63 2244.90 L2922.73 2246.38 L2937.82 2247.74 L2952.80 2249.10 L2967.90 2250.46 L2982.87 2251.70 L2997.97 2253.06 L3013.07 2254.30 L3028.04 2255.54 L3043.14 2256.65 L3058.23 2257.89 L3073.21 2259.00 L3088.30 2260.24 L3103.28 2261.35 L3118.38 2262.47 L3133.47 2263.46 L3148.45 2264.57 L3163.55 2265.56 L3178.64 2266.68 L3193.62 2267.67 L3208.71 2268.66 L3223.81 2269.65 L3238.78 2270.64 L3253.88 2271.50 L3268.86 2272.49 L3283.95 2273.36 L3299.05 2274.35 L3314.03 2275.21 L3329.12 2276.08 L3344.22 2276.95 L3359.19 2277.81 L3374.29 2278.68 L3389.26 2279.55 L3404.36 2280.41 L3419.46 2281.16 L3434.43 2282.02 L3449.53 2282.76 L3464.63 2283.63 L3479.60 2284.37 L3494.70 2285.24 L3509.80 2285.98 L3524.77 2286.72 L3539.87 2287.47 L3554.84 2288.21 L3569.94 2288.95 L3585.04 2289.69 L3600.01 2290.44 L3615.11 2291.18 L3630.21 2291.92 L3645.18 2292.66 L3660.28 2293.41 L3675.25 2294.15 L3690.35 2294.77 L3705.45 2295.51 L3720.42 2296.25 L3735.52 2296.87 L3750.61 2297.61 L3765.59 2298.36 L3780.69 2298.98 L3795.66 2299.72 L3795.66 220.28 L3780.69 220.41 L3765.59 220.65 L3750.61 220.78 L3735.52 220.90 L3720.42 221.15 L3705.45 221.27 L3690.35 221.40 L3675.25 221.64 L3660.28 221.77 L3645.18 221.89 L3630.21 222.14 L3615.11 222.26 L3600.01 222.39 L3585.04 222.63 L3569.94 222.76 L3554.84 223.00 L3539.87 223.13 L3524.77 223.38 L3509.80 223.50 L3494.70 223.75 L3479.60 223.87 L3464.63 224.12 L3449.53 224.24 L3434.43 224.49 L3419.46 224.61 L3404.36 224.86 L3389.26 224.98 L3374.29 225.23 L3359.19 225.36 L3344.22 225.60 L3329.12 225.85 L3314.03 225.97 L3299.05 226.22 L3283.95 226.47 L3268.86 226.72 L3253.88 226.84 L3238.78 227.09 L3223.81 227.34 L3208.71 227.58 L3193.62 227.83 L3178.64 228.08 L3163.55 228.33 L3148.45 228.57 L3133.47 228.82 L3118.38 229.07 L3103.28 229.32 L3088.30 229.56 L3073.21 229.81 L3058.23 230.06 L3043.14 230.43 L3028.04 230.68 L3013.07 230.92 L2997.97 231.30 L2982.87 231.54 L2967.90 231.79 L2952.80 232.16 L2937.82 232.53 L2922.73 232.78 L2907.63 233.15 L2892.66 233.52 L2877.56 233.77 L2862.46 234.14 L2847.49 234.51 L2832.39 234.88 L2817.29 235.26 L2802.32 235.63 L2787.22 236.12 L2772.25 236.49 L2757.15 236.86 L2742.05 237.36 L2727.08 237.73 L2711.98 238.23 L2696.88 238.60 L2681.91 239.09 L2666.81 239.59 L2651.84 240.08 L2636.74 240.58 L2621.64 241.07 L2606.67 241.57 L2591.57 242.19 L2576.47 242.68 L2561.50 243.30 L2546.40 243.92 L2531.31 244.41 L2516.33 245.03 L2501.24 245.65 L2486.26 246.39 L2471.16 247.01 L2456.07 247.63 L2441.09 248.37 L2425.99 249.12 L2410.90 249.86 L2395.92 250.60 L2380.83 251.34 L2365.85 252.09 L2350.76 252.95 L2335.66 253.82 L2320.68 254.69 L2305.59 255.55 L2290.49 256.42 L2275.51 257.41 L2260.42 258.27 L2245.32 259.26 L2230.35 260.25 L2215.25 261.37 L2200.28 262.36 L2185.18 263.47 L2170.08 264.59 L2155.11 265.70 L2140.01 266.94 L2124.91 268.17 L2109.94 269.41 L2094.84 270.65 L2079.87 272.01 L2064.77 273.37 L2049.67 274.73 L2034.70 276.22 L2019.60 277.70 L2004.50 279.19 L1989.53 280.80 L1974.43 282.41 L1959.46 284.02 L1944.36 285.75 L1929.26 287.48 L1914.29 289.34 L1899.19 291.19 L1884.09 293.05 L1869.12 295.03 L1854.02 297.01 L1838.92 299.11 L1823.95 301.22 L1808.85 303.32 L1793.88 305.67 L1778.78 307.90 L1763.68 310.25 L1748.71 312.73 L1733.61 315.20 L1718.52 317.80 L1703.54 320.52 L1688.44 323.25 L1673.47 326.09 L1658.37 328.94 L1643.28 331.91 L1628.30 334.88 L1613.20 338.10 L1598.11 341.31 L1583.13 344.65 L1568.04 348.00 L1552.94 351.46 L1537.96 355.05 L1522.87 358.76 L1507.89 362.60 L1492.80 366.44 L1477.70 370.40 L1462.72 374.48 L1447.63 378.69 L1432.53 383.02 L1417.56 387.35 L1402.46 391.93 L1387.48 396.51 L1372.39 401.33 L1357.29 406.16 L1342.32 411.11 L1327.22 416.18 L1312.12 421.38 L1297.15 426.70 L1282.05 432.15 L1266.95 437.72 L1251.98 443.29 L1236.88 449.10 L1221.91 454.92 L1206.81 460.86 L1191.71 466.92 L1176.74 472.99 L1161.64 479.17 L1146.54 485.36 L1131.57 491.67 L1116.47 497.99 L1101.50 504.30 L1086.40 510.61 L1071.30 516.92 L1056.33 523.23 L1041.23 529.42 L1026.13 535.61 L1011.16 541.67 L996.06 547.61 L980.97 553.43 L965.99 559.12 L950.89 564.57 L935.92 569.89 L920.82 574.96 L905.73 579.79 L890.75 584.37 L875.65 588.70 L860.56 592.66 L845.58 596.37 L830.49 599.83 L815.51 602.93 L800.41 605.65 L785.32 608.00 L770.34 610.11 L755.25 611.72 L740.15 613.20 L725.17 614.31 L710.08 615.18 L694.98 615.68 L680.01 616.17 L664.91 616.29 L649.93 616.42 L634.84 616.54 L619.74 616.54 L619.74 616.54 Z" stroke-linejoin="round"/>
	</defs>
	<defs>
		<clipPath id="clipPath_UkUdVAOb">
			<use xlink:href="#path_mCUNbGHG"/>
		</clipPath>
	</defs>
	<use xlink:href="#path_mCUNbGHG" style="stroke:none;fill:#FF3333;fill-opacity:0.25"/>
	<use xlink:href="#path_mCUNbGHG" style="fill:none;stroke:#FF0000;stroke-opacity:0.25;stroke-width:17.28" clip-path="url(#clipPath_UkUdVAOb)"/>
	<path d=" M619.74 616.54 L634.71 616.54 L649.81 616.54 L664.91 616.67 L679.88 617.04 L694.98 617.41 L710.08 618.27 L725.05 619.39 L740.15 621.00 L755.25 622.98 L770.22 625.58 L785.32 628.67 L800.29 632.26 L815.39 636.47 L830.49 641.29 L845.46 646.61 L860.56 652.55 L875.65 658.99 L890.63 665.80 L905.73 673.22 L920.70 681.02 L935.80 689.31 L950.89 697.85 L965.87 706.76 L980.97 716.04 L996.06 725.45 L1011.04 735.22 L1026.13 745.12 L1041.23 755.15 L1056.21 765.29 L1071.30 775.57 L1086.28 785.96 L1101.38 796.23 L1116.47 806.63 L1131.45 816.90 L1146.54 827.17 L1161.64 837.44 L1176.62 847.59 L1191.71 857.49 L1206.69 867.39 L1221.78 877.17 L1236.88 886.70 L1251.86 896.10 L1266.95 905.38 L1282.05 914.42 L1297.02 923.20 L1312.12 931.87 L1327.22 940.41 L1342.19 948.70 L1357.29 956.86 L1372.26 964.79 L1387.36 972.58 L1402.46 980.13 L1417.43 987.43 L1432.53 994.61 L1447.63 1001.66 L1462.60 1008.59 L1477.70 1015.15 L1492.67 1021.71 L1507.77 1028.02 L1522.87 1034.21 L1537.84 1040.28 L1552.94 1046.09 L1568.04 1051.78 L1583.01 1057.35 L1598.11 1062.67 L1613.08 1068.00 L1628.18 1073.07 L1643.28 1078.02 L1658.25 1082.85 L1673.35 1087.55 L1688.44 1092.13 L1703.42 1096.58 L1718.52 1100.91 L1733.61 1105.12 L1748.59 1109.21 L1763.68 1113.17 L1778.66 1117.13 L1793.76 1120.84 L1808.85 1124.55 L1823.83 1128.14 L1838.92 1131.61 L1854.02 1134.95 L1869.00 1138.16 L1884.09 1141.38 L1899.07 1144.48 L1914.16 1147.45 L1929.26 1150.42 L1944.24 1153.26 L1959.33 1155.98 L1974.43 1158.71 L1989.40 1161.31 L2004.50 1163.91 L2019.60 1166.38 L2034.57 1168.73 L2049.67 1171.08 L2064.64 1173.43 L2079.74 1175.66 L2094.84 1177.77 L2109.81 1179.87 L2124.91 1181.97 L2140.01 1183.95 L2154.98 1185.81 L2170.08 1187.79 L2185.05 1189.52 L2200.15 1191.38 L2215.25 1193.11 L2230.22 1194.72 L2245.32 1196.45 L2260.42 1198.06 L2275.39 1199.55 L2290.49 1201.03 L2305.59 1202.52 L2320.56 1204.00 L2335.66 1205.36 L2350.63 1206.72 L2365.73 1208.09 L2380.83 1209.32 L2395.80 1210.68 L2410.90 1211.80 L2425.99 1213.04 L2440.97 1214.27 L2456.07 1215.39 L2471.04 1216.50 L2486.14 1217.49 L2501.24 1218.60 L2516.21 1219.59 L2531.31 1220.58 L2546.40 1221.57 L2561.38 1222.56 L2576.47 1223.43 L2591.57 1224.30 L2606.55 1225.29 L2621.64 1226.15 L2636.62 1226.90 L2651.72 1227.76 L2666.81 1228.50 L2681.79 1229.37 L2696.88 1230.11 L2711.98 1230.86 L2726.95 1231.60 L2742.05 1232.22 L2757.03 1232.96 L2772.12 1233.58 L2787.22 1234.32 L2802.20 1234.94 L2817.29 1235.56 L2832.39 1236.18 L2847.36 1236.80 L2862.46 1237.41 L2877.56 1237.91 L2892.53 1238.53 L2907.63 1239.15 L2922.60 1239.64 L2937.70 1240.14 L2952.80 1240.63 L2967.77 1241.25 L2982.87 1241.75 L2997.97 1242.24 L3012.94 1242.61 L3028.04 1243.11 L3043.01 1243.60 L3058.11 1244.10 L3073.21 1244.47 L3088.18 1244.96 L3103.28 1245.34 L3118.38 1245.83 L3133.35 1246.20 L3148.45 1246.57 L3163.42 1247.07 L3178.52 1247.44 L3193.62 1247.81 L3208.59 1248.18 L3223.69 1248.55 L3238.78 1248.92 L3253.76 1249.30 L3268.86 1249.67 L3283.95 1250.04 L3298.93 1250.29 L3314.03 1250.66 L3329.00 1251.03 L3344.10 1251.40 L3359.19 1251.65 L3374.17 1252.02 L3389.26 1252.39 L3404.36 1252.64 L3419.34 1253.01 L3434.43 1253.26 L3449.41 1253.63 L3464.51 1253.87 L3479.60 1254.25 L3494.58 1254.49 L3509.67 1254.74 L3524.77 1255.11 L3539.74 1255.36 L3554.84 1255.73 L3569.94 1255.98 L3584.91 1256.23 L3600.01 1256.47 L3614.99 1256.84 L3630.08 1257.09 L3645.18 1257.34 L3660.15 1257.59 L3675.25 1257.96 L3690.35 1258.21 L3705.32 1258.45 L3720.42 1258.70 L3735.39 1258.95 L3750.49 1259.20 L3765.59 1259.57 L3780.56 1259.81 L3795.66 1260.06" stroke-linejoin="round" style="fill:none;stroke:#FF0000;stroke-width:8.64"/>
	<line x1="556.38" y1="2489.19" x2="556.38" y2="100.86" style="stroke:#000000;stroke-width:5.76"/>
	<line x1="556.38" y1="2425.82" x2="516.41" y2="2425.82" style="stroke:#000000;stroke-width:5.76"/>
	<text x="496.49" y="2460.85" style="font-family:'Helvetica';font-size:99.99px;fill:#000000" text-anchor="end">-0.20</text>
	<line x1="556.38" y1="1973.50" x2="516.41" y2="1973.50" style="stroke:#000000;stroke-width:5.76"/>
	<text x="496.49" y="2008.53" style="font-family:'Helvetica';font-size:99.99px;fill:#000000" text-anchor="end">-0.15</text>
	<line x1="556.38" y1="1521.18" x2="516.41" y2="1521.18" style="stroke:#000000;stroke-width:5.76"/>
	<text x="496.49" y="1556.21" style="font-family:'Helvetica';font-size:99.99px;fill:#000000" text-anchor="end">-0.10</text>
	<line x1="556.38" y1="1068.86" x2="516.41" y2="1068.86" style="stroke:#000000;stroke-width:5.76"/>
	<text x="496.49" y="1103.89" style="font-family:'Helvetica';font-size:99.99px;fill:#000000" text-anchor="end">-0.05</text>
	<line x1="556.38" y1="616.54" x2="516.41" y2="616.54" style="stroke:#000000;stroke-width:5.76"/>
	<text x="496.49" y="651.57" style="font-family:'Helvetica';font-size:99.99px;fill:#000000" text-anchor="end">0.00</text>
	<line x1="556.38" y1="164.22" x2="516.41" y2="164.22" style="stroke:#000000;stroke-width:5.76"/>
	<text x="496.49" y="199.25" style="font-family:'Helvetica';font-size:99.99px;fill:#000000" text-anchor="end">0.05</text>
	<text x="190.71" y="1294.96" style="font-family:'Helvetica';font-size:99.99px;fill:#000000" transform="rotate(-90 190.71,1294.96)" text-anchor="middle">Difference in curves (%)</text>
	<line x1="556.38" y1="2489.19" x2="3859.02" y2="2489.19" style="stroke:#000000;stroke-width:5.76"/>
	<line x1="619.74" y1="2489.19" x2="619.74" y2="2529.16" style="stroke:#000000;stroke-width:5.76"/>
	<text x="619.74" y="2619.14" style="font-family:'Helvetica';font-size:99.99px;fill:#000000" text-anchor="middle">0</text>
	<line x1="1372.39" y1="2489.19" x2="1372.39" y2="2529.16" style="stroke:#000000;stroke-width:5.76"/>
	<text x="1372.39" y="2619.14" style="font-family:'Helvetica';font-size:99.99px;fill:#000000" text-anchor="middle">50</text>
	<line x1="2124.91" y1="2489.19" x2="2124.91" y2="2529.16" style="stroke:#000000;stroke-width:5.76"/>
	<text x="2124.91" y="2619.14" style="font-family:'Helvetica';font-size:99.99px;fill:#000000" text-anchor="middle">100</text>
	<line x1="2877.56" y1="2489.19" x2="2877.56" y2="2529.16" style="stroke:#000000;stroke-width:5.76"/>
	<text x="2877.56" y="2619.14" style="font-family:'Helvetica';font-size:99.99px;fill:#000000" text-anchor="middle">150</text>
	<line x1="3630.21" y1="2489.19" x2="3630.21" y2="2529.16" style="stroke:#000000;stroke-width:5.76"/>
	<text x="3630.21" y="2619.14" style="font-family:'Helvetica';font-size:99.99px;fill:#000000" text-anchor="middle">200</text>
	<text x="2207.70" y="2729.16" style="font-family:'Helvetica';font-size:99.99px;fill:#000000" text-anchor="middle">Days from 1 March 2020</text>
</svg>
