<?xml version="1.0" encoding="UTF-8" standalone="no"?>
<!-- This is a Stata 16.1 generated SVG file (http://www.stata.com) -->

<svg version="1.1" width="5.50in" height="4.00in" viewBox="0 0 3960 2880" xmlns="http://www.w3.org/2000/svg" xmlns:xlink="http://www.w3.org/1999/xlink">
	<desc>Stata Graph - Graph</desc>
	<rect x="0" y="0" width="3960" height="2880" style="fill:#EAF2F3;stroke:none"/>
	<rect x="0.00" y="0.00" width="3959.88" height="2880.00" style="fill:#EAF2F3"/>
	<rect x="2.88" y="2.88" width="3954.12" height="2874.24" style="fill:none;stroke:#EAF2F3;stroke-width:5.76"/>
	<rect x="556.38" y="100.86" width="3302.64" height="2388.33" style="fill:#FFFFFF"/>
	<rect x="559.26" y="103.74" width="3296.88" height="2382.57" style="fill:none;stroke:#FFFFFF;stroke-width:5.76"/>
	<line x1="556.38" y1="2305.91" x2="3859.02" y2="2305.91" style="stroke:#EAF2F3;stroke-width:8.64"/>
	<line x1="556.38" y1="1591.97" x2="3859.02" y2="1591.97" style="stroke:#EAF2F3;stroke-width:8.64"/>
	<line x1="556.38" y1="878.03" x2="3859.02" y2="878.03" style="stroke:#EAF2F3;stroke-width:8.64"/>
	<line x1="556.38" y1="164.22" x2="3859.02" y2="164.22" style="stroke:#EAF2F3;stroke-width:8.64"/>
	<defs>
		<path id="path_zmrtLkGx" d="M619.74 878.03 L619.74 878.03 L634.84 878.16 L649.93 878.16 L664.91 878.16 L680.01 878.28 L694.98 878.40 L710.08 878.53 L725.17 878.90 L740.15 879.15 L755.25 879.64 L770.34 880.14 L785.32 880.76 L800.41 881.50 L815.51 882.24 L830.49 883.23 L845.58 884.22 L860.56 885.34 L875.65 886.70 L890.75 888.06 L905.73 889.54 L920.82 891.15 L935.92 892.88 L950.89 894.74 L965.99 896.72 L980.97 898.82 L996.06 901.05 L1011.16 903.40 L1026.13 905.88 L1041.23 908.48 L1056.33 911.20 L1071.30 914.05 L1086.40 917.14 L1101.50 920.23 L1116.47 923.45 L1131.57 926.79 L1146.54 930.26 L1161.64 933.85 L1176.74 937.68 L1191.71 941.52 L1206.81 945.48 L1221.91 949.56 L1236.88 953.77 L1251.98 958.10 L1266.95 962.56 L1282.05 967.14 L1297.15 971.84 L1312.12 976.67 L1327.22 981.62 L1342.32 986.57 L1357.29 991.76 L1372.39 997.08 L1387.48 1002.41 L1402.46 1007.85 L1417.56 1013.42 L1432.53 1019.11 L1447.63 1024.93 L1462.72 1030.87 L1477.70 1036.81 L1492.80 1042.87 L1507.89 1049.06 L1522.87 1055.37 L1537.96 1061.81 L1552.94 1068.24 L1568.04 1074.93 L1583.13 1081.61 L1598.11 1088.29 L1613.20 1095.22 L1628.30 1102.15 L1643.28 1109.21 L1658.37 1116.26 L1673.47 1123.56 L1688.44 1130.86 L1703.54 1138.16 L1718.52 1145.71 L1733.61 1153.26 L1748.71 1160.81 L1763.68 1168.48 L1778.78 1176.28 L1793.88 1184.20 L1808.85 1192.12 L1823.95 1200.04 L1838.92 1208.09 L1854.02 1216.25 L1869.12 1224.42 L1884.09 1232.71 L1899.19 1241.13 L1914.29 1249.54 L1929.26 1257.96 L1944.36 1266.50 L1959.46 1275.04 L1974.43 1283.70 L1989.53 1292.49 L2004.50 1301.15 L2019.60 1310.06 L2034.70 1318.97 L2049.67 1327.88 L2064.77 1336.79 L2079.87 1345.82 L2094.84 1354.98 L2109.94 1364.14 L2124.91 1373.30 L2140.01 1382.58 L2155.11 1391.86 L2170.08 1401.14 L2185.18 1410.55 L2200.28 1419.95 L2215.25 1429.36 L2230.35 1438.89 L2245.32 1448.42 L2260.42 1457.94 L2275.51 1467.60 L2290.49 1477.25 L2305.59 1486.90 L2320.68 1496.56 L2335.66 1506.33 L2350.76 1515.98 L2365.85 1525.76 L2380.83 1535.66 L2395.92 1545.44 L2410.90 1555.21 L2425.99 1565.12 L2441.09 1575.02 L2456.07 1584.92 L2471.16 1594.82 L2486.26 1604.72 L2501.24 1614.62 L2516.33 1624.64 L2531.31 1634.54 L2546.40 1644.44 L2561.50 1654.47 L2576.47 1664.49 L2591.57 1674.39 L2606.67 1684.41 L2621.64 1694.31 L2636.74 1704.34 L2651.84 1714.36 L2666.81 1724.26 L2681.91 1734.29 L2696.88 1744.31 L2711.98 1754.21 L2727.08 1764.24 L2742.05 1774.14 L2757.15 1784.04 L2772.25 1794.06 L2787.22 1803.96 L2802.32 1813.86 L2817.29 1823.76 L2832.39 1833.66 L2847.49 1843.44 L2862.46 1853.34 L2877.56 1863.24 L2892.66 1873.01 L2907.63 1882.79 L2922.73 1892.57 L2937.82 1902.34 L2952.80 1912.12 L2967.90 1921.77 L2982.87 1931.43 L2997.97 1941.20 L3013.07 1950.86 L3028.04 1960.39 L3043.14 1970.04 L3058.23 1979.57 L3073.21 1989.10 L3088.30 1998.62 L3103.28 2008.15 L3118.38 2017.56 L3133.47 2027.09 L3148.45 2036.49 L3163.55 2045.90 L3178.64 2055.30 L3193.62 2064.59 L3208.71 2073.99 L3223.81 2083.27 L3238.78 2092.55 L3253.88 2101.84 L3268.86 2111.12 L3283.95 2120.40 L3299.05 2129.56 L3314.03 2138.84 L3329.12 2148.00 L3344.22 2157.15 L3359.19 2166.31 L3374.29 2175.47 L3389.26 2184.63 L3404.36 2193.66 L3419.46 2202.82 L3434.43 2211.85 L3449.53 2220.89 L3464.63 2229.92 L3479.60 2238.95 L3494.70 2247.99 L3509.80 2257.02 L3524.77 2265.93 L3539.87 2274.97 L3554.84 2283.88 L3569.94 2292.79 L3585.04 2301.82 L3600.01 2310.73 L3615.11 2319.64 L3630.21 2328.55 L3645.18 2337.46 L3660.28 2346.25 L3675.25 2355.16 L3690.35 2364.07 L3705.45 2372.86 L3720.42 2381.77 L3735.52 2390.55 L3750.61 2399.46 L3765.59 2408.25 L3780.69 2417.04 L3795.66 2425.82 L3795.66 515.31 L3780.69 517.29 L3765.59 519.39 L3750.61 521.50 L3735.52 523.48 L3720.42 525.58 L3705.45 527.69 L3690.35 529.67 L3675.25 531.77 L3660.28 533.87 L3645.18 535.98 L3630.21 537.96 L3615.11 540.06 L3600.01 542.17 L3585.04 544.27 L3569.94 546.37 L3554.84 548.48 L3539.87 550.58 L3524.77 552.68 L3509.80 554.79 L3494.70 556.89 L3479.60 559.00 L3464.63 561.10 L3449.53 563.20 L3434.43 565.31 L3419.46 567.41 L3404.36 569.52 L3389.26 571.62 L3374.29 573.85 L3359.19 575.95 L3344.22 578.05 L3329.12 580.28 L3314.03 582.39 L3299.05 584.49 L3283.95 586.72 L3268.86 588.82 L3253.88 591.05 L3238.78 593.15 L3223.81 595.38 L3208.71 597.61 L3193.62 599.71 L3178.64 601.94 L3163.55 604.17 L3148.45 606.27 L3133.47 608.50 L3118.38 610.73 L3103.28 612.95 L3088.30 615.18 L3073.21 617.41 L3058.23 619.64 L3043.14 621.86 L3028.04 624.09 L3013.07 626.44 L2997.97 628.67 L2982.87 630.90 L2967.90 633.12 L2952.80 635.48 L2937.82 637.70 L2922.73 640.06 L2907.63 642.28 L2892.66 644.63 L2877.56 646.86 L2862.46 649.21 L2847.49 651.56 L2832.39 653.79 L2817.29 656.14 L2802.32 658.49 L2787.22 660.85 L2772.25 663.07 L2757.15 665.42 L2742.05 667.78 L2727.08 670.13 L2711.98 672.48 L2696.88 674.83 L2681.91 677.06 L2666.81 679.41 L2651.84 681.76 L2636.74 684.11 L2621.64 686.46 L2606.67 688.81 L2591.57 691.17 L2576.47 693.52 L2561.50 695.87 L2546.40 698.22 L2531.31 700.45 L2516.33 702.80 L2501.24 705.15 L2486.26 707.50 L2471.16 709.85 L2456.07 712.08 L2441.09 714.43 L2425.99 716.78 L2410.90 719.13 L2395.92 721.36 L2380.83 723.71 L2365.85 725.94 L2350.76 728.29 L2335.66 730.52 L2320.68 732.87 L2305.59 735.10 L2290.49 737.45 L2275.51 739.68 L2260.42 741.90 L2245.32 744.13 L2230.35 746.36 L2215.25 748.59 L2200.28 750.81 L2185.18 753.04 L2170.08 755.27 L2155.11 757.37 L2140.01 759.60 L2124.91 761.83 L2109.94 763.93 L2094.84 766.04 L2079.87 768.14 L2064.77 770.37 L2049.67 772.47 L2034.70 774.58 L2019.60 776.56 L2004.50 778.66 L1989.53 780.76 L1974.43 782.74 L1959.46 784.85 L1944.36 786.83 L1929.26 788.81 L1914.29 790.79 L1899.19 792.77 L1884.09 794.75 L1869.12 796.73 L1854.02 798.58 L1838.92 800.56 L1823.95 802.42 L1808.85 804.28 L1793.88 806.13 L1778.78 807.99 L1763.68 809.85 L1748.71 811.70 L1733.61 813.43 L1718.52 815.17 L1703.54 816.90 L1688.44 818.63 L1673.47 820.36 L1658.37 822.10 L1643.28 823.83 L1628.30 825.44 L1613.20 827.05 L1598.11 828.66 L1583.13 830.26 L1568.04 831.87 L1552.94 833.36 L1537.96 834.84 L1522.87 836.45 L1507.89 837.94 L1492.80 839.30 L1477.70 840.78 L1462.72 842.15 L1447.63 843.51 L1432.53 844.87 L1417.56 846.23 L1402.46 847.59 L1387.48 848.83 L1372.39 850.07 L1357.29 851.30 L1342.32 852.54 L1327.22 853.78 L1312.12 854.89 L1297.15 856.01 L1282.05 857.12 L1266.95 858.23 L1251.98 859.22 L1236.88 860.21 L1221.91 861.33 L1206.81 862.19 L1191.71 863.18 L1176.74 864.05 L1161.64 864.92 L1146.54 865.78 L1131.57 866.65 L1116.47 867.39 L1101.50 868.13 L1086.40 868.88 L1071.30 869.62 L1056.33 870.24 L1041.23 870.86 L1026.13 871.47 L1011.16 872.09 L996.06 872.71 L980.97 873.21 L965.99 873.70 L950.89 874.20 L935.92 874.57 L920.82 875.06 L905.73 875.43 L890.75 875.68 L875.65 876.05 L860.56 876.30 L845.58 876.67 L830.49 876.92 L815.51 877.04 L800.41 877.29 L785.32 877.41 L770.34 877.54 L755.25 877.66 L740.15 877.79 L725.17 877.91 L710.08 878.03 L694.98 878.03 L680.01 878.03 L664.91 878.03 L649.93 878.03 L634.84 878.03 L619.74 878.03 L619.74 878.03 Z" stroke-linejoin="round"/>
	</defs>
	<defs>
		<clipPath id="clipPath_xSTYumKu">
			<use xlink:href="#path_zmrtLkGx"/>
		</clipPath>
	</defs>
	<use xlink:href="#path_zmrtLkGx" style="stroke:none;fill:#FF3333;fill-opacity:0.25"/>
	<use xlink:href="#path_zmrtLkGx" style="fill:none;stroke:#FF0000;stroke-opacity:0.25;stroke-width:17.28" clip-path="url(#clipPath_xSTYumKu)"/>
	<path d=" M619.74 878.16 L634.71 878.16 L649.81 878.16 L664.91 878.16 L679.88 878.16 L694.98 878.28 L710.08 878.28 L725.05 878.40 L740.15 878.53 L755.25 878.78 L770.22 878.90 L785.32 879.15 L800.29 879.39 L815.39 879.77 L830.49 880.14 L845.46 880.51 L860.56 880.88 L875.65 881.38 L890.63 881.99 L905.73 882.49 L920.70 883.11 L935.80 883.73 L950.89 884.47 L965.87 885.21 L980.97 886.08 L996.06 886.94 L1011.04 887.81 L1026.13 888.80 L1041.23 889.79 L1056.21 890.78 L1071.30 891.89 L1086.28 893.01 L1101.38 894.25 L1116.47 895.48 L1131.45 896.72 L1146.54 898.08 L1161.64 899.44 L1176.62 900.93 L1191.71 902.41 L1206.69 903.90 L1221.78 905.51 L1236.88 907.12 L1251.86 908.72 L1266.95 910.46 L1282.05 912.19 L1297.02 914.05 L1312.12 915.90 L1327.22 917.76 L1342.19 919.61 L1357.29 921.60 L1372.26 923.58 L1387.36 925.68 L1402.46 927.78 L1417.43 929.89 L1432.53 932.11 L1447.63 934.34 L1462.60 936.57 L1477.70 938.80 L1492.67 941.15 L1507.77 943.62 L1522.87 945.97 L1537.84 948.45 L1552.94 950.92 L1568.04 953.40 L1583.01 956.00 L1598.11 958.60 L1613.08 961.20 L1628.18 963.80 L1643.28 966.52 L1658.25 969.24 L1673.35 972.09 L1688.44 974.81 L1703.42 977.66 L1718.52 980.50 L1733.61 983.35 L1748.59 986.32 L1763.68 989.29 L1778.66 992.26 L1793.76 995.23 L1808.85 998.20 L1823.83 1001.29 L1838.92 1004.39 L1854.02 1007.48 L1869.00 1010.70 L1884.09 1013.79 L1899.07 1017.01 L1914.16 1020.23 L1929.26 1023.44 L1944.24 1026.66 L1959.33 1030.00 L1974.43 1033.34 L1989.40 1036.69 L2004.50 1040.03 L2019.60 1043.37 L2034.57 1046.83 L2049.67 1050.18 L2064.64 1053.64 L2079.74 1057.11 L2094.84 1060.57 L2109.81 1064.04 L2124.91 1067.62 L2140.01 1071.09 L2154.98 1074.68 L2170.08 1078.27 L2185.05 1081.86 L2200.15 1085.45 L2215.25 1089.03 L2230.22 1092.75 L2245.32 1096.34 L2260.42 1100.05 L2275.39 1103.64 L2290.49 1107.35 L2305.59 1111.06 L2320.56 1114.77 L2335.66 1118.49 L2350.63 1122.20 L2365.73 1125.91 L2380.83 1129.75 L2395.80 1133.46 L2410.90 1137.17 L2425.99 1141.01 L2440.97 1144.85 L2456.07 1148.56 L2471.04 1152.40 L2486.14 1156.11 L2501.24 1159.94 L2516.21 1163.78 L2531.31 1167.62 L2546.40 1171.33 L2561.38 1175.17 L2576.47 1179.00 L2591.57 1182.84 L2606.55 1186.68 L2621.64 1190.51 L2636.62 1194.35 L2651.72 1198.18 L2666.81 1201.90 L2681.79 1205.73 L2696.88 1209.57 L2711.98 1213.41 L2726.95 1217.24 L2742.05 1220.96 L2757.03 1224.79 L2772.12 1228.63 L2787.22 1232.46 L2802.20 1236.18 L2817.29 1240.01 L2832.39 1243.85 L2847.36 1247.56 L2862.46 1251.40 L2877.56 1255.11 L2892.53 1258.82 L2907.63 1262.66 L2922.60 1266.37 L2937.70 1270.09 L2952.80 1273.80 L2967.77 1277.51 L2982.87 1281.22 L2997.97 1284.94 L3012.94 1288.65 L3028.04 1292.36 L3043.01 1295.95 L3058.11 1299.66 L3073.21 1303.38 L3088.18 1306.96 L3103.28 1310.55 L3118.38 1314.27 L3133.35 1317.85 L3148.45 1321.44 L3163.42 1325.03 L3178.52 1328.62 L3193.62 1332.21 L3208.59 1335.80 L3223.69 1339.39 L3238.78 1342.98 L3253.76 1346.57 L3268.86 1350.03 L3283.95 1353.62 L3298.93 1357.08 L3314.03 1360.67 L3329.00 1364.14 L3344.10 1367.73 L3359.19 1371.19 L3374.17 1374.66 L3389.26 1378.25 L3404.36 1381.71 L3419.34 1385.18 L3434.43 1388.64 L3449.41 1392.11 L3464.51 1395.57 L3479.60 1399.04 L3494.58 1402.50 L3509.67 1405.97 L3524.77 1409.31 L3539.74 1412.77 L3554.84 1416.24 L3569.94 1419.70 L3584.91 1423.05 L3600.01 1426.51 L3614.99 1429.98 L3630.08 1433.32 L3645.18 1436.78 L3660.15 1440.12 L3675.25 1443.59 L3690.35 1446.93 L3705.32 1450.27 L3720.42 1453.74 L3735.39 1457.08 L3750.49 1460.54 L3765.59 1463.88 L3780.56 1467.23 L3795.66 1470.57" stroke-linejoin="round" style="fill:none;stroke:#FF0000;stroke-width:8.64"/>
	<line x1="556.38" y1="2489.19" x2="556.38" y2="100.86" style="stroke:#000000;stroke-width:5.76"/>
	<line x1="556.38" y1="2305.91" x2="516.41" y2="2305.91" style="stroke:#000000;stroke-width:5.76"/>
	<text x="496.49" y="2340.93" style="font-family:'Helvetica';font-size:99.99px;fill:#000000" text-anchor="end">-1.00</text>
	<line x1="556.38" y1="1591.97" x2="516.41" y2="1591.97" style="stroke:#000000;stroke-width:5.76"/>
	<text x="496.49" y="1627.00" style="font-family:'Helvetica';font-size:99.99px;fill:#000000" text-anchor="end">-0.50</text>
	<line x1="556.38" y1="878.03" x2="516.41" y2="878.03" style="stroke:#000000;stroke-width:5.76"/>
	<text x="496.49" y="913.06" style="font-family:'Helvetica';font-size:99.99px;fill:#000000" text-anchor="end">0.00</text>
	<line x1="556.38" y1="164.22" x2="516.41" y2="164.22" style="stroke:#000000;stroke-width:5.76"/>
	<text x="496.49" y="199.25" style="font-family:'Helvetica';font-size:99.99px;fill:#000000" text-anchor="end">0.50</text>
	<text x="190.71" y="1294.96" style="font-family:'Helvetica';font-size:99.99px;fill:#000000" transform="rotate(-90 190.71,1294.96)" text-anchor="middle">Difference in curves (%)</text>
	<line x1="556.38" y1="2489.19" x2="3859.02" y2="2489.19" style="stroke:#000000;stroke-width:5.76"/>
	<line x1="619.74" y1="2489.19" x2="619.74" y2="2529.16" style="stroke:#000000;stroke-width:5.76"/>
	<text x="619.74" y="2619.14" style="font-family:'Helvetica';font-size:99.99px;fill:#000000" text-anchor="middle">0</text>
	<line x1="1372.39" y1="2489.19" x2="1372.39" y2="2529.16" style="stroke:#000000;stroke-width:5.76"/>
	<text x="1372.39" y="2619.14" style="font-family:'Helvetica';font-size:99.99px;fill:#000000" text-anchor="middle">50</text>
	<line x1="2124.91" y1="2489.19" x2="2124.91" y2="2529.16" style="stroke:#000000;stroke-width:5.76"/>
	<text x="2124.91" y="2619.14" style="font-family:'Helvetica';font-size:99.99px;fill:#000000" text-anchor="middle">100</text>
	<line x1="2877.56" y1="2489.19" x2="2877.56" y2="2529.16" style="stroke:#000000;stroke-width:5.76"/>
	<text x="2877.56" y="2619.14" style="font-family:'Helvetica';font-size:99.99px;fill:#000000" text-anchor="middle">150</text>
	<line x1="3630.21" y1="2489.19" x2="3630.21" y2="2529.16" style="stroke:#000000;stroke-width:5.76"/>
	<text x="3630.21" y="2619.14" style="font-family:'Helvetica';font-size:99.99px;fill:#000000" text-anchor="middle">200</text>
	<text x="2207.70" y="2729.16" style="font-family:'Helvetica';font-size:99.99px;fill:#000000" text-anchor="middle">Days from 1 March 2020</text>
</svg>
