<?xml version="1.0" encoding="UTF-8" standalone="no"?>
<!-- This is a Stata 16.1 generated SVG file (http://www.stata.com) -->

<svg version="1.1" width="5.50in" height="4.00in" viewBox="0 0 3960 2880" xmlns="http://www.w3.org/2000/svg" xmlns:xlink="http://www.w3.org/1999/xlink">
	<desc>Stata Graph - Graph</desc>
	<rect x="0" y="0" width="3960" height="2880" style="fill:#EAF2F3;stroke:none"/>
	<rect x="0.00" y="0.00" width="3959.88" height="2880.00" style="fill:#EAF2F3"/>
	<rect x="2.88" y="2.88" width="3954.12" height="2874.24" style="fill:none;stroke:#EAF2F3;stroke-width:5.76"/>
	<rect x="556.38" y="100.86" width="3302.64" height="2388.33" style="fill:#FFFFFF"/>
	<rect x="559.26" y="103.74" width="3296.88" height="2382.57" style="fill:none;stroke:#FFFFFF;stroke-width:5.76"/>
	<line x1="556.38" y1="2234.25" x2="3859.02" y2="2234.25" style="stroke:#EAF2F3;stroke-width:8.64"/>
	<line x1="556.38" y1="1716.71" x2="3859.02" y2="1716.71" style="stroke:#EAF2F3;stroke-width:8.64"/>
	<line x1="556.38" y1="1199.30" x2="3859.02" y2="1199.30" style="stroke:#EAF2F3;stroke-width:8.64"/>
	<line x1="556.38" y1="681.76" x2="3859.02" y2="681.76" style="stroke:#EAF2F3;stroke-width:8.64"/>
	<line x1="556.38" y1="164.35" x2="3859.02" y2="164.35" style="stroke:#EAF2F3;stroke-width:8.64"/>
	<defs>
		<path id="path_eZNxZwCc" d="M619.74 164.35 L619.74 164.35 L634.84 164.35 L649.93 164.35 L664.91 164.35 L680.01 164.35 L694.98 164.47 L710.08 164.72 L725.17 165.21 L740.15 165.83 L755.25 166.94 L770.34 168.55 L785.32 170.78 L800.41 173.87 L815.51 177.96 L830.49 183.28 L845.58 189.96 L860.56 198.13 L875.65 208.15 L890.75 220.03 L905.73 234.02 L920.82 249.98 L935.92 268.30 L950.89 288.84 L965.99 311.61 L980.97 336.61 L996.06 363.84 L1011.16 393.17 L1026.13 424.35 L1041.23 457.39 L1056.33 492.17 L1071.30 528.31 L1086.40 565.68 L1101.50 603.92 L1116.47 643.03 L1131.57 682.50 L1146.54 722.23 L1161.64 761.95 L1176.74 801.43 L1191.71 840.41 L1206.81 878.65 L1221.91 916.03 L1236.88 952.29 L1251.98 987.56 L1266.95 1021.59 L1282.05 1054.51 L1297.15 1086.31 L1312.12 1116.88 L1327.22 1146.21 L1342.32 1174.42 L1357.29 1201.53 L1372.39 1227.51 L1387.48 1252.39 L1402.46 1276.15 L1417.56 1299.04 L1432.53 1320.95 L1447.63 1341.86 L1462.72 1361.91 L1477.70 1381.22 L1492.80 1399.66 L1507.89 1417.35 L1522.87 1434.43 L1537.96 1450.77 L1552.94 1466.48 L1568.04 1481.71 L1583.13 1496.31 L1598.11 1510.42 L1613.20 1524.15 L1628.30 1537.39 L1643.28 1550.14 L1658.37 1562.64 L1673.47 1574.89 L1688.44 1586.77 L1703.54 1598.40 L1718.52 1609.67 L1733.61 1620.93 L1748.71 1631.82 L1763.68 1642.59 L1778.78 1653.23 L1793.88 1663.75 L1808.85 1674.02 L1823.95 1684.17 L1838.92 1694.19 L1854.02 1704.09 L1869.12 1713.74 L1884.09 1723.40 L1899.19 1732.80 L1914.29 1742.21 L1929.26 1751.36 L1944.36 1760.40 L1959.46 1769.43 L1974.43 1778.22 L1989.53 1787.01 L2004.50 1795.54 L2019.60 1804.08 L2034.70 1812.50 L2049.67 1820.79 L2064.77 1828.96 L2079.87 1837.00 L2094.84 1845.05 L2109.94 1852.84 L2124.91 1860.64 L2140.01 1868.44 L2155.11 1875.98 L2170.08 1883.53 L2185.18 1890.96 L2200.28 1898.38 L2215.25 1905.56 L2230.35 1912.86 L2245.32 1919.92 L2260.42 1926.97 L2275.51 1933.90 L2290.49 1940.83 L2305.59 1947.64 L2320.68 1954.44 L2335.66 1961.13 L2350.76 1967.69 L2365.85 1974.25 L2380.83 1980.80 L2395.92 1987.24 L2410.90 1993.55 L2425.99 1999.86 L2441.09 2006.17 L2456.07 2012.36 L2471.16 2018.43 L2486.26 2024.49 L2501.24 2030.55 L2516.33 2036.49 L2531.31 2042.43 L2546.40 2048.37 L2561.50 2054.19 L2576.47 2059.88 L2591.57 2065.70 L2606.67 2071.27 L2621.64 2076.96 L2636.74 2082.53 L2651.84 2088.10 L2666.81 2093.54 L2681.91 2098.99 L2696.88 2104.43 L2711.98 2109.88 L2727.08 2115.20 L2742.05 2120.52 L2757.15 2125.72 L2772.25 2130.92 L2787.22 2136.12 L2802.32 2141.31 L2817.29 2146.39 L2832.39 2151.46 L2847.49 2156.53 L2862.46 2161.49 L2877.56 2166.44 L2892.66 2171.39 L2907.63 2176.34 L2922.73 2181.16 L2937.82 2186.11 L2952.80 2190.94 L2967.90 2195.64 L2982.87 2200.47 L2997.97 2205.17 L3013.07 2209.87 L3028.04 2214.58 L3043.14 2219.15 L3058.23 2223.86 L3073.21 2228.44 L3088.30 2233.01 L3103.28 2237.59 L3118.38 2242.05 L3133.47 2246.50 L3148.45 2251.08 L3163.55 2255.54 L3178.64 2259.87 L3193.62 2264.32 L3208.71 2268.66 L3223.81 2273.11 L3238.78 2277.44 L3253.88 2281.77 L3268.86 2285.98 L3283.95 2290.31 L3299.05 2294.52 L3314.03 2298.85 L3329.12 2303.06 L3344.22 2307.27 L3359.19 2311.35 L3374.29 2315.56 L3389.26 2319.77 L3404.36 2323.85 L3419.46 2327.93 L3434.43 2332.02 L3449.53 2336.10 L3464.63 2340.19 L3479.60 2344.27 L3494.70 2348.23 L3509.80 2352.31 L3524.77 2356.27 L3539.87 2360.23 L3554.84 2364.19 L3569.94 2368.15 L3585.04 2372.11 L3600.01 2376.07 L3615.11 2379.91 L3630.21 2383.87 L3645.18 2387.71 L3660.28 2391.54 L3675.25 2395.50 L3690.35 2399.34 L3705.45 2403.18 L3720.42 2406.89 L3735.52 2410.73 L3750.61 2414.56 L3765.59 2418.27 L3780.69 2422.11 L3795.66 2425.82 L3795.66 670.25 L3780.69 669.51 L3765.59 668.64 L3750.61 667.78 L3735.52 666.91 L3720.42 666.04 L3705.45 665.18 L3690.35 664.31 L3675.25 663.44 L3660.28 662.58 L3645.18 661.71 L3630.21 660.85 L3615.11 659.98 L3600.01 659.11 L3585.04 658.25 L3569.94 657.38 L3554.84 656.51 L3539.87 655.52 L3524.77 654.66 L3509.80 653.79 L3494.70 652.93 L3479.60 651.94 L3464.63 651.07 L3449.53 650.08 L3434.43 649.21 L3419.46 648.22 L3404.36 647.36 L3389.26 646.37 L3374.29 645.50 L3359.19 644.51 L3344.22 643.64 L3329.12 642.65 L3314.03 641.66 L3299.05 640.67 L3283.95 639.81 L3268.86 638.82 L3253.88 637.83 L3238.78 636.84 L3223.81 635.85 L3208.71 634.86 L3193.62 633.87 L3178.64 632.88 L3163.55 631.89 L3148.45 630.90 L3133.47 629.78 L3118.38 628.79 L3103.28 627.80 L3088.30 626.69 L3073.21 625.70 L3058.23 624.59 L3043.14 623.60 L3028.04 622.48 L3013.07 621.49 L2997.97 620.38 L2982.87 619.26 L2967.90 618.27 L2952.80 617.16 L2937.82 616.05 L2922.73 614.93 L2907.63 613.82 L2892.66 612.71 L2877.56 611.59 L2862.46 610.48 L2847.49 609.24 L2832.39 608.13 L2817.29 607.01 L2802.32 605.78 L2787.22 604.66 L2772.25 603.42 L2757.15 602.19 L2742.05 601.07 L2727.08 599.83 L2711.98 598.60 L2696.88 597.36 L2681.91 596.12 L2666.81 594.88 L2651.84 593.65 L2636.74 592.41 L2621.64 591.05 L2606.67 589.81 L2591.57 588.45 L2576.47 587.21 L2561.50 585.85 L2546.40 584.49 L2531.31 583.13 L2516.33 581.77 L2501.24 580.41 L2486.26 579.04 L2471.16 577.68 L2456.07 576.32 L2441.09 574.84 L2425.99 573.48 L2410.90 571.99 L2395.92 570.51 L2380.83 569.02 L2365.85 567.54 L2350.76 566.05 L2335.66 564.57 L2320.68 563.08 L2305.59 561.47 L2290.49 559.86 L2275.51 558.38 L2260.42 556.77 L2245.32 555.16 L2230.35 553.55 L2215.25 551.82 L2200.28 550.21 L2185.18 548.48 L2170.08 546.87 L2155.11 545.14 L2140.01 543.40 L2124.91 541.67 L2109.94 539.81 L2094.84 538.08 L2079.87 536.23 L2064.77 534.37 L2049.67 532.51 L2034.70 530.66 L2019.60 528.68 L2004.50 526.82 L1989.53 524.84 L1974.43 522.86 L1959.46 520.88 L1944.36 518.78 L1929.26 516.67 L1914.29 514.69 L1899.19 512.46 L1884.09 510.36 L1869.12 508.13 L1854.02 506.03 L1838.92 503.68 L1823.95 501.45 L1808.85 499.10 L1793.88 496.75 L1778.78 494.40 L1763.68 491.92 L1748.71 489.57 L1733.61 486.97 L1718.52 484.50 L1703.54 481.90 L1688.44 479.17 L1673.47 476.45 L1658.37 473.73 L1643.28 470.88 L1628.30 467.91 L1613.20 464.82 L1598.11 461.73 L1583.13 458.51 L1568.04 455.17 L1552.94 451.70 L1537.96 448.11 L1522.87 444.28 L1507.89 440.44 L1492.80 436.36 L1477.70 432.15 L1462.72 427.82 L1447.63 423.24 L1432.53 418.41 L1417.56 413.46 L1402.46 408.26 L1387.48 402.82 L1372.39 397.25 L1357.29 391.31 L1342.32 385.25 L1327.22 378.81 L1312.12 372.25 L1297.15 365.32 L1282.05 358.27 L1266.95 350.84 L1251.98 343.17 L1236.88 335.25 L1221.91 327.21 L1206.81 318.79 L1191.71 310.25 L1176.74 301.46 L1161.64 292.68 L1146.54 283.64 L1131.57 274.73 L1116.47 265.82 L1101.50 256.91 L1086.40 248.25 L1071.30 239.83 L1056.33 231.54 L1041.23 223.75 L1026.13 216.20 L1011.16 209.14 L996.06 202.46 L980.97 196.40 L965.99 190.83 L950.89 185.88 L935.92 181.42 L920.82 177.59 L905.73 174.37 L890.75 171.65 L875.65 169.42 L860.56 167.81 L845.58 166.45 L830.49 165.58 L815.51 164.96 L800.41 164.47 L785.32 164.22 L770.34 164.22 L755.25 164.22 L740.15 164.22 L725.17 164.22 L710.08 164.22 L694.98 164.35 L680.01 164.35 L664.91 164.35 L649.93 164.35 L634.84 164.35 L619.74 164.35 L619.74 164.35 Z" stroke-linejoin="round"/>
	</defs>
	<defs>
		<clipPath id="clipPath_AWOlGHjc">
			<use xlink:href="#path_eZNxZwCc"/>
		</clipPath>
	</defs>
	<use xlink:href="#path_eZNxZwCc" style="stroke:none;fill:#FF3333;fill-opacity:0.25"/>
	<use xlink:href="#path_eZNxZwCc" style="fill:none;stroke:#FF0000;stroke-opacity:0.25;stroke-width:17.28" clip-path="url(#clipPath_AWOlGHjc)"/>
	<path d=" M619.74 164.35 L634.71 164.35 L649.81 164.35 L664.91 164.35 L679.88 164.47 L694.98 164.47 L710.08 164.59 L725.05 164.72 L740.15 165.09 L755.25 165.58 L770.22 166.45 L785.32 167.56 L800.29 169.30 L815.39 171.52 L830.49 174.49 L845.46 178.21 L860.56 183.03 L875.65 188.85 L890.63 195.90 L905.73 204.19 L920.70 213.85 L935.80 224.86 L950.89 237.36 L965.87 251.22 L980.97 266.57 L996.06 283.15 L1011.04 301.22 L1026.13 320.28 L1041.23 340.57 L1056.21 361.98 L1071.30 384.13 L1086.28 407.03 L1101.38 430.54 L1116.47 454.42 L1131.45 478.68 L1146.54 503.06 L1161.64 527.44 L1176.62 551.57 L1191.71 575.46 L1206.69 598.84 L1221.78 621.62 L1236.88 643.89 L1251.86 665.42 L1266.95 686.34 L1282.05 706.39 L1297.02 725.82 L1312.12 744.63 L1327.22 762.57 L1342.19 779.90 L1357.29 796.48 L1372.26 812.44 L1387.36 827.67 L1402.46 842.27 L1417.43 856.25 L1432.53 869.74 L1447.63 882.61 L1462.60 894.86 L1477.70 906.74 L1492.67 918.13 L1507.77 929.02 L1522.87 939.42 L1537.84 949.44 L1552.94 959.09 L1568.04 968.50 L1583.01 977.41 L1598.11 986.19 L1613.08 994.61 L1628.18 1002.65 L1643.28 1010.57 L1658.25 1018.25 L1673.35 1025.80 L1688.44 1033.10 L1703.42 1040.15 L1718.52 1047.21 L1733.61 1054.01 L1748.59 1060.69 L1763.68 1067.38 L1778.66 1073.94 L1793.76 1080.25 L1808.85 1086.68 L1823.83 1092.87 L1838.92 1099.06 L1854.02 1105.12 L1869.00 1111.06 L1884.09 1116.88 L1899.07 1122.70 L1914.16 1128.51 L1929.26 1134.08 L1944.24 1139.65 L1959.33 1145.22 L1974.43 1150.66 L1989.40 1155.98 L2004.50 1161.18 L2019.60 1166.50 L2034.57 1171.58 L2049.67 1176.65 L2064.64 1181.73 L2079.74 1186.68 L2094.84 1191.63 L2109.81 1196.45 L2124.91 1201.16 L2140.01 1205.98 L2154.98 1210.56 L2170.08 1215.26 L2185.05 1219.84 L2200.15 1224.30 L2215.25 1228.75 L2230.22 1233.21 L2245.32 1237.54 L2260.42 1241.87 L2275.39 1246.20 L2290.49 1250.41 L2305.59 1254.62 L2320.56 1258.82 L2335.66 1262.91 L2350.63 1266.99 L2365.73 1270.95 L2380.83 1275.04 L2395.80 1278.87 L2410.90 1282.83 L2425.99 1286.67 L2440.97 1290.51 L2456.07 1294.34 L2471.04 1298.18 L2486.14 1301.89 L2501.24 1305.60 L2516.21 1309.19 L2531.31 1312.90 L2546.40 1316.49 L2561.38 1320.08 L2576.47 1323.55 L2591.57 1327.14 L2606.55 1330.60 L2621.64 1334.07 L2636.62 1337.53 L2651.72 1340.87 L2666.81 1344.34 L2681.79 1347.68 L2696.88 1351.02 L2711.98 1354.24 L2726.95 1357.58 L2742.05 1360.80 L2757.03 1364.02 L2772.12 1367.23 L2787.22 1370.45 L2802.20 1373.54 L2817.29 1376.76 L2832.39 1379.86 L2847.36 1382.95 L2862.46 1386.04 L2877.56 1389.14 L2892.53 1392.11 L2907.63 1395.08 L2922.60 1398.17 L2937.70 1401.14 L2952.80 1404.11 L2967.77 1406.96 L2982.87 1409.93 L2997.97 1412.90 L3012.94 1415.74 L3028.04 1418.59 L3043.01 1421.44 L3058.11 1424.28 L3073.21 1427.13 L3088.18 1429.98 L3103.28 1432.70 L3118.38 1435.54 L3133.35 1438.27 L3148.45 1440.99 L3163.42 1443.71 L3178.52 1446.44 L3193.62 1449.16 L3208.59 1451.88 L3223.69 1454.48 L3238.78 1457.20 L3253.76 1459.80 L3268.86 1462.52 L3283.95 1465.12 L3298.93 1467.72 L3314.03 1470.32 L3329.00 1472.92 L3344.10 1475.52 L3359.19 1477.99 L3374.17 1480.59 L3389.26 1483.19 L3404.36 1485.67 L3419.34 1488.14 L3434.43 1490.74 L3449.41 1493.21 L3464.51 1495.69 L3479.60 1498.16 L3494.58 1500.64 L3509.67 1503.11 L3524.77 1505.59 L3539.74 1507.94 L3554.84 1510.42 L3569.94 1512.77 L3584.91 1515.24 L3600.01 1517.59 L3614.99 1520.07 L3630.08 1522.42 L3645.18 1524.77 L3660.15 1527.12 L3675.25 1529.47 L3690.35 1531.83 L3705.32 1534.18 L3720.42 1536.53 L3735.39 1538.88 L3750.49 1541.23 L3765.59 1543.58 L3780.56 1545.81 L3795.66 1548.16" stroke-linejoin="round" style="fill:none;stroke:#FF0000;stroke-width:8.64"/>
	<line x1="556.38" y1="2489.19" x2="556.38" y2="100.86" style="stroke:#000000;stroke-width:5.76"/>
	<line x1="556.38" y1="2234.25" x2="516.41" y2="2234.25" style="stroke:#000000;stroke-width:5.76"/>
	<text x="496.49" y="2269.28" style="font-family:'Helvetica';font-size:99.99px;fill:#000000" text-anchor="end">-0.40</text>
	<line x1="556.38" y1="1716.71" x2="516.41" y2="1716.71" style="stroke:#000000;stroke-width:5.76"/>
	<text x="496.49" y="1751.74" style="font-family:'Helvetica';font-size:99.99px;fill:#000000" text-anchor="end">-0.30</text>
	<line x1="556.38" y1="1199.30" x2="516.41" y2="1199.30" style="stroke:#000000;stroke-width:5.76"/>
	<text x="496.49" y="1234.33" style="font-family:'Helvetica';font-size:99.99px;fill:#000000" text-anchor="end">-0.20</text>
	<line x1="556.38" y1="681.76" x2="516.41" y2="681.76" style="stroke:#000000;stroke-width:5.76"/>
	<text x="496.49" y="716.79" style="font-family:'Helvetica';font-size:99.99px;fill:#000000" text-anchor="end">-0.10</text>
	<line x1="556.38" y1="164.35" x2="516.41" y2="164.35" style="stroke:#000000;stroke-width:5.76"/>
	<text x="496.49" y="199.37" style="font-family:'Helvetica';font-size:99.99px;fill:#000000" text-anchor="end">0.00</text>
	<text x="190.71" y="1294.96" style="font-family:'Helvetica';font-size:99.99px;fill:#000000" transform="rotate(-90 190.71,1294.96)" text-anchor="middle">Difference in curves (%)</text>
	<line x1="556.38" y1="2489.19" x2="3859.02" y2="2489.19" style="stroke:#000000;stroke-width:5.76"/>
	<line x1="619.74" y1="2489.19" x2="619.74" y2="2529.16" style="stroke:#000000;stroke-width:5.76"/>
	<text x="619.74" y="2619.14" style="font-family:'Helvetica';font-size:99.99px;fill:#000000" text-anchor="middle">0</text>
	<line x1="1372.39" y1="2489.19" x2="1372.39" y2="2529.16" style="stroke:#000000;stroke-width:5.76"/>
	<text x="1372.39" y="2619.14" style="font-family:'Helvetica';font-size:99.99px;fill:#000000" text-anchor="middle">50</text>
	<line x1="2124.91" y1="2489.19" x2="2124.91" y2="2529.16" style="stroke:#000000;stroke-width:5.76"/>
	<text x="2124.91" y="2619.14" style="font-family:'Helvetica';font-size:99.99px;fill:#000000" text-anchor="middle">100</text>
	<line x1="2877.56" y1="2489.19" x2="2877.56" y2="2529.16" style="stroke:#000000;stroke-width:5.76"/>
	<text x="2877.56" y="2619.14" style="font-family:'Helvetica';font-size:99.99px;fill:#000000" text-anchor="middle">150</text>
	<line x1="3630.21" y1="2489.19" x2="3630.21" y2="2529.16" style="stroke:#000000;stroke-width:5.76"/>
	<text x="3630.21" y="2619.14" style="font-family:'Helvetica';font-size:99.99px;fill:#000000" text-anchor="middle">200</text>
	<text x="2207.70" y="2729.16" style="font-family:'Helvetica';font-size:99.99px;fill:#000000" text-anchor="middle">Days from 1 March 2020</text>
</svg>
