<?xml version="1.0" encoding="UTF-8" standalone="no"?>
<!-- This is a Stata 16.1 generated SVG file (http://www.stata.com) -->

<svg version="1.1" width="5.50in" height="4.00in" viewBox="0 0 3960 2880" xmlns="http://www.w3.org/2000/svg" xmlns:xlink="http://www.w3.org/1999/xlink">
	<desc>Stata Graph - Graph</desc>
	<rect x="0" y="0" width="3960" height="2880" style="fill:#FFFFFF;stroke:none"/>
	<rect x="0.00" y="0.00" width="3959.88" height="2880.00" style="fill:#FFFFFF"/>
	<rect x="2.88" y="2.88" width="3954.12" height="2874.24" style="fill:none;stroke:#FFFFFF;stroke-width:5.76"/>
	<rect x="353.59" y="238.26" width="3502.55" height="2173.55" style="fill:none;stroke:#000000;stroke-width:5.76"/>
	<circle cx="701.41" cy="810.59" r="14.97" style="fill:none;stroke:#606060;stroke-width:8.64"/>
	<circle cx="769.11" cy="1039.41" r="14.97" style="fill:none;stroke:#606060;stroke-width:8.64"/>
	<circle cx="786.06" cy="2161.11" r="14.97" style="fill:none;stroke:#606060;stroke-width:8.64"/>
	<circle cx="802.89" cy="932.11" r="14.97" style="fill:none;stroke:#606060;stroke-width:8.64"/>
	<circle cx="819.84" cy="1082.23" r="14.97" style="fill:none;stroke:#606060;stroke-width:8.64"/>
	<circle cx="853.63" cy="1016.64" r="14.97" style="fill:none;stroke:#606060;stroke-width:8.64"/>
	<circle cx="870.58" cy="964.29" r="14.97" style="fill:none;stroke:#606060;stroke-width:8.64"/>
	<circle cx="870.58" cy="1045.72" r="14.97" style="fill:none;stroke:#606060;stroke-width:8.64"/>
	<circle cx="870.58" cy="1190.14" r="14.97" style="fill:none;stroke:#606060;stroke-width:8.64"/>
	<circle cx="870.58" cy="994.73" r="14.97" style="fill:none;stroke:#606060;stroke-width:8.64"/>
	<circle cx="887.41" cy="919.61" r="14.97" style="fill:none;stroke:#606060;stroke-width:8.64"/>
	<circle cx="887.41" cy="953.52" r="14.97" style="fill:none;stroke:#606060;stroke-width:8.64"/>
	<circle cx="904.37" cy="902.17" r="14.97" style="fill:none;stroke:#606060;stroke-width:8.64"/>
	<circle cx="904.37" cy="1048.07" r="14.97" style="fill:none;stroke:#606060;stroke-width:8.64"/>
	<circle cx="921.32" cy="1016.27" r="14.97" style="fill:none;stroke:#606060;stroke-width:8.64"/>
	<circle cx="938.15" cy="1136.93" r="14.97" style="fill:none;stroke:#606060;stroke-width:8.64"/>
	<circle cx="938.15" cy="1084.83" r="14.97" style="fill:none;stroke:#606060;stroke-width:8.64"/>
	<circle cx="938.15" cy="2148.37" r="14.97" style="fill:none;stroke:#606060;stroke-width:8.64"/>
	<circle cx="938.15" cy="2163.71" r="14.97" style="fill:none;stroke:#606060;stroke-width:8.64"/>
	<circle cx="955.10" cy="1047.33" r="14.97" style="fill:none;stroke:#606060;stroke-width:8.64"/>
	<circle cx="972.06" cy="857.74" r="14.97" style="fill:none;stroke:#606060;stroke-width:8.64"/>
	<circle cx="972.06" cy="857.74" r="14.97" style="fill:none;stroke:#606060;stroke-width:8.64"/>
	<circle cx="972.06" cy="1098.32" r="14.97" style="fill:none;stroke:#606060;stroke-width:8.64"/>
	<circle cx="972.06" cy="2005.56" r="14.97" style="fill:none;stroke:#606060;stroke-width:8.64"/>
	<circle cx="988.89" cy="997.95" r="14.97" style="fill:none;stroke:#606060;stroke-width:8.64"/>
	<circle cx="988.89" cy="1033.59" r="14.97" style="fill:none;stroke:#606060;stroke-width:8.64"/>
	<circle cx="1005.84" cy="937.81" r="14.97" style="fill:none;stroke:#606060;stroke-width:8.64"/>
	<circle cx="1005.84" cy="1968.43" r="14.97" style="fill:none;stroke:#606060;stroke-width:8.64"/>
	<circle cx="1005.84" cy="883.85" r="14.97" style="fill:none;stroke:#606060;stroke-width:8.64"/>
	<circle cx="1005.84" cy="1093.61" r="14.97" style="fill:none;stroke:#606060;stroke-width:8.64"/>
	<circle cx="1039.62" cy="942.14" r="14.97" style="fill:none;stroke:#606060;stroke-width:8.64"/>
	<circle cx="1039.62" cy="957.73" r="14.97" style="fill:none;stroke:#606060;stroke-width:8.64"/>
	<circle cx="1056.58" cy="1060.45" r="14.97" style="fill:none;stroke:#606060;stroke-width:8.64"/>
	<circle cx="1056.58" cy="1119.97" r="14.97" style="fill:none;stroke:#606060;stroke-width:8.64"/>
	<circle cx="1056.58" cy="739.06" r="14.97" style="fill:none;stroke:#606060;stroke-width:8.64"/>
	<circle cx="1056.58" cy="1046.46" r="14.97" style="fill:none;stroke:#606060;stroke-width:8.64"/>
	<circle cx="1056.58" cy="784.35" r="14.97" style="fill:none;stroke:#606060;stroke-width:8.64"/>
	<circle cx="1073.41" cy="979.39" r="14.97" style="fill:none;stroke:#606060;stroke-width:8.64"/>
	<circle cx="1073.41" cy="778.54" r="14.97" style="fill:none;stroke:#606060;stroke-width:8.64"/>
	<circle cx="1073.41" cy="1070.10" r="14.97" style="fill:none;stroke:#606060;stroke-width:8.64"/>
	<circle cx="1090.36" cy="977.04" r="14.97" style="fill:none;stroke:#606060;stroke-width:8.64"/>
	<circle cx="1090.36" cy="1036.56" r="14.97" style="fill:none;stroke:#606060;stroke-width:8.64"/>
	<circle cx="1107.32" cy="1040.77" r="14.97" style="fill:none;stroke:#606060;stroke-width:8.64"/>
	<circle cx="1124.14" cy="979.14" r="14.97" style="fill:none;stroke:#606060;stroke-width:8.64"/>
	<circle cx="1141.10" cy="1064.28" r="14.97" style="fill:none;stroke:#606060;stroke-width:8.64"/>
	<circle cx="1141.10" cy="952.90" r="14.97" style="fill:none;stroke:#606060;stroke-width:8.64"/>
	<circle cx="1158.05" cy="873.83" r="14.97" style="fill:none;stroke:#606060;stroke-width:8.64"/>
	<circle cx="1174.88" cy="1145.59" r="14.97" style="fill:none;stroke:#606060;stroke-width:8.64"/>
	<circle cx="1174.88" cy="1785.27" r="14.97" style="fill:none;stroke:#606060;stroke-width:8.64"/>
	<circle cx="1191.84" cy="1024.31" r="14.97" style="fill:none;stroke:#606060;stroke-width:8.64"/>
	<circle cx="1191.84" cy="719.01" r="14.97" style="fill:none;stroke:#606060;stroke-width:8.64"/>
	<circle cx="1191.84" cy="942.26" r="14.97" style="fill:none;stroke:#606060;stroke-width:8.64"/>
	<circle cx="1191.84" cy="2172.87" r="14.97" style="fill:none;stroke:#606060;stroke-width:8.64"/>
	<circle cx="1208.67" cy="892.14" r="14.97" style="fill:none;stroke:#606060;stroke-width:8.64"/>
	<circle cx="1208.67" cy="1050.67" r="14.97" style="fill:none;stroke:#606060;stroke-width:8.64"/>
	<circle cx="1208.67" cy="1001.79" r="14.97" style="fill:none;stroke:#606060;stroke-width:8.64"/>
	<circle cx="1208.67" cy="1032.97" r="14.97" style="fill:none;stroke:#606060;stroke-width:8.64"/>
	<circle cx="1225.62" cy="966.52" r="14.97" style="fill:none;stroke:#606060;stroke-width:8.64"/>
	<circle cx="1242.57" cy="1034.83" r="14.97" style="fill:none;stroke:#606060;stroke-width:8.64"/>
	<circle cx="1242.57" cy="934.71" r="14.97" style="fill:none;stroke:#606060;stroke-width:8.64"/>
	<circle cx="1259.40" cy="2206.41" r="14.97" style="fill:none;stroke:#606060;stroke-width:8.64"/>
	<circle cx="1259.40" cy="1090.89" r="14.97" style="fill:none;stroke:#606060;stroke-width:8.64"/>
	<circle cx="1276.36" cy="2300.58" r="14.97" style="fill:none;stroke:#606060;stroke-width:8.64"/>
	<circle cx="1276.36" cy="943.13" r="14.97" style="fill:none;stroke:#606060;stroke-width:8.64"/>
	<circle cx="1276.36" cy="1628.97" r="14.97" style="fill:none;stroke:#606060;stroke-width:8.64"/>
	<circle cx="1293.31" cy="1943.06" r="14.97" style="fill:none;stroke:#606060;stroke-width:8.64"/>
	<circle cx="1293.31" cy="1026.17" r="14.97" style="fill:none;stroke:#606060;stroke-width:8.64"/>
	<circle cx="1293.31" cy="2105.42" r="14.97" style="fill:none;stroke:#606060;stroke-width:8.64"/>
	<circle cx="1293.31" cy="870.11" r="14.97" style="fill:none;stroke:#606060;stroke-width:8.64"/>
	<circle cx="1293.31" cy="2142.18" r="14.97" style="fill:none;stroke:#606060;stroke-width:8.64"/>
	<circle cx="1293.31" cy="640.18" r="14.97" style="fill:none;stroke:#606060;stroke-width:8.64"/>
	<circle cx="1310.14" cy="958.10" r="14.97" style="fill:none;stroke:#606060;stroke-width:8.64"/>
	<circle cx="1310.14" cy="1054.38" r="14.97" style="fill:none;stroke:#606060;stroke-width:8.64"/>
	<circle cx="1327.10" cy="807.49" r="14.97" style="fill:none;stroke:#606060;stroke-width:8.64"/>
	<circle cx="1360.88" cy="2141.07" r="14.97" style="fill:none;stroke:#606060;stroke-width:8.64"/>
	<circle cx="1377.83" cy="1012.06" r="14.97" style="fill:none;stroke:#606060;stroke-width:8.64"/>
	<circle cx="1377.83" cy="959.09" r="14.97" style="fill:none;stroke:#606060;stroke-width:8.64"/>
	<circle cx="1411.62" cy="1122.45" r="14.97" style="fill:none;stroke:#606060;stroke-width:8.64"/>
	<circle cx="1411.62" cy="877.17" r="14.97" style="fill:none;stroke:#606060;stroke-width:8.64"/>
	<circle cx="1428.57" cy="915.65" r="14.97" style="fill:none;stroke:#606060;stroke-width:8.64"/>
	<circle cx="1428.57" cy="1035.20" r="14.97" style="fill:none;stroke:#606060;stroke-width:8.64"/>
	<circle cx="1428.57" cy="2014.47" r="14.97" style="fill:none;stroke:#606060;stroke-width:8.64"/>
	<circle cx="1428.57" cy="1028.02" r="14.97" style="fill:none;stroke:#606060;stroke-width:8.64"/>
	<circle cx="1428.57" cy="1680.21" r="14.97" style="fill:none;stroke:#606060;stroke-width:8.64"/>
	<circle cx="1445.40" cy="1447.18" r="14.97" style="fill:none;stroke:#606060;stroke-width:8.64"/>
	<circle cx="1445.40" cy="990.03" r="14.97" style="fill:none;stroke:#606060;stroke-width:8.64"/>
	<circle cx="1445.40" cy="2151.21" r="14.97" style="fill:none;stroke:#606060;stroke-width:8.64"/>
	<circle cx="1445.40" cy="953.89" r="14.97" style="fill:none;stroke:#606060;stroke-width:8.64"/>
	<circle cx="1462.35" cy="868.50" r="14.97" style="fill:none;stroke:#606060;stroke-width:8.64"/>
	<circle cx="1462.35" cy="2003.45" r="14.97" style="fill:none;stroke:#606060;stroke-width:8.64"/>
	<circle cx="1462.35" cy="2051.59" r="14.97" style="fill:none;stroke:#606060;stroke-width:8.64"/>
	<circle cx="1462.35" cy="1027.03" r="14.97" style="fill:none;stroke:#606060;stroke-width:8.64"/>
	<circle cx="1479.31" cy="768.51" r="14.97" style="fill:none;stroke:#606060;stroke-width:8.64"/>
	<circle cx="1496.14" cy="962.43" r="14.97" style="fill:none;stroke:#606060;stroke-width:8.64"/>
	<circle cx="1496.14" cy="1940.58" r="14.97" style="fill:none;stroke:#606060;stroke-width:8.64"/>
	<circle cx="1546.88" cy="928.15" r="14.97" style="fill:none;stroke:#606060;stroke-width:8.64"/>
	<circle cx="1597.61" cy="2142.55" r="14.97" style="fill:none;stroke:#606060;stroke-width:8.64"/>
	<circle cx="1614.57" cy="1079.50" r="14.97" style="fill:none;stroke:#606060;stroke-width:8.64"/>
	<circle cx="1631.40" cy="1281.84" r="14.97" style="fill:none;stroke:#606060;stroke-width:8.64"/>
	<circle cx="1648.35" cy="867.89" r="14.97" style="fill:none;stroke:#606060;stroke-width:8.64"/>
	<circle cx="1648.35" cy="1459.06" r="14.97" style="fill:none;stroke:#606060;stroke-width:8.64"/>
	<circle cx="1766.65" cy="872.09" r="14.97" style="fill:none;stroke:#606060;stroke-width:8.64"/>
	<circle cx="1766.65" cy="1034.58" r="14.97" style="fill:none;stroke:#606060;stroke-width:8.64"/>
	<circle cx="1834.35" cy="1579.97" r="14.97" style="fill:none;stroke:#606060;stroke-width:8.64"/>
	<circle cx="1834.35" cy="1558.80" r="14.97" style="fill:none;stroke:#606060;stroke-width:8.64"/>
	<circle cx="1834.35" cy="1031.24" r="14.97" style="fill:none;stroke:#606060;stroke-width:8.64"/>
	<circle cx="1868.13" cy="1636.27" r="14.97" style="fill:none;stroke:#606060;stroke-width:8.64"/>
	<circle cx="1868.13" cy="2118.54" r="14.97" style="fill:none;stroke:#606060;stroke-width:8.64"/>
	<circle cx="1885.08" cy="2204.55" r="14.97" style="fill:none;stroke:#606060;stroke-width:8.64"/>
	<circle cx="1885.08" cy="1090.52" r="14.97" style="fill:none;stroke:#606060;stroke-width:8.64"/>
	<circle cx="1952.65" cy="2138.47" r="14.97" style="fill:none;stroke:#606060;stroke-width:8.64"/>
	<circle cx="1969.61" cy="2172.87" r="14.97" style="fill:none;stroke:#606060;stroke-width:8.64"/>
	<circle cx="1969.61" cy="2058.89" r="14.97" style="fill:none;stroke:#606060;stroke-width:8.64"/>
	<circle cx="1986.43" cy="921.22" r="14.97" style="fill:none;stroke:#606060;stroke-width:8.64"/>
	<circle cx="2020.34" cy="2011.25" r="14.97" style="fill:none;stroke:#606060;stroke-width:8.64"/>
	<circle cx="2037.17" cy="1100.17" r="14.97" style="fill:none;stroke:#606060;stroke-width:8.64"/>
	<circle cx="2121.69" cy="1026.91" r="14.97" style="fill:none;stroke:#606060;stroke-width:8.64"/>
	<circle cx="2290.86" cy="985.58" r="14.97" style="fill:none;stroke:#606060;stroke-width:8.64"/>
	<circle cx="2307.69" cy="1948.26" r="14.97" style="fill:none;stroke:#606060;stroke-width:8.64"/>
	<circle cx="2409.16" cy="893.63" r="14.97" style="fill:none;stroke:#606060;stroke-width:8.64"/>
	<circle cx="2442.95" cy="885.09" r="14.97" style="fill:none;stroke:#606060;stroke-width:8.64"/>
	<circle cx="2544.42" cy="1041.02" r="14.97" style="fill:none;stroke:#606060;stroke-width:8.64"/>
	<circle cx="3372.93" cy="1572.29" r="14.97" style="fill:none;stroke:#606060;stroke-width:8.64"/>
	<circle cx="3474.41" cy="1021.34" r="14.97" style="fill:none;stroke:#606060;stroke-width:8.64"/>
	<circle cx="3711.14" cy="1563.51" r="14.97" style="fill:none;stroke:#606060;stroke-width:8.64"/>
	<circle cx="3727.97" cy="888.55" r="14.97" style="fill:none;stroke:#606060;stroke-width:8.64"/>
	<circle cx="3744.92" cy="298.74" r="14.97" style="fill:none;stroke:#606060;stroke-width:8.64"/>
	<path d=" M701.41 1107.23 L769.11 1104.01 L786.06 1124.18 L802.89 1119.97 L819.84 1118.73 L853.63 1116.63 L870.58 1115.15 L870.58 1112.55 L870.58 1111.19 L870.58 1108.34 L887.41 1126.28 L887.41 1125.79 L904.37 1144.35 L904.37 1141.26 L921.32 1148.68 L938.15 1160.81 L938.15 1158.71 L938.15 1172.69 L938.15 1168.36 L955.10 1182.22 L972.06 1174.55 L972.06 1171.58 L972.06 1169.97 L972.06 1165.02 L988.89 1178.14 L988.89 1175.91 L1005.84 1173.06 L1005.84 1172.44 L1005.84 1168.73 L1005.84 1165.51 L1039.62 1163.91 L1039.62 1174.30 L1056.58 1172.57 L1056.58 1178.63 L1056.58 1181.73 L1056.58 1179.50 L1056.58 1190.64 L1073.41 1188.04 L1073.41 1184.45 L1073.41 1193.48 L1090.36 1202.89 L1090.36 1201.03 L1107.32 1196.33 L1124.14 1193.85 L1141.10 1201.77 L1141.10 1198.93 L1158.05 1208.58 L1174.88 1207.34 L1174.88 1208.09 L1191.84 1204.62 L1191.84 1207.22 L1191.84 1207.71 L1191.84 1207.71 L1208.67 1202.02 L1208.67 1208.21 L1208.67 1207.71 L1208.67 1213.78 L1225.62 1225.29 L1242.57 1236.67 L1242.57 1235.68 L1259.40 1247.07 L1259.40 1259.44 L1276.36 1270.46 L1276.36 1270.58 L1276.36 1280.11 L1293.31 1280.98 L1293.31 1279.86 L1293.31 1278.87 L1293.31 1276.89 L1293.31 1264.27 L1293.31 1262.78 L1310.14 1264.52 L1310.14 1271.57 L1327.10 1270.83 L1360.88 1266.50 L1377.83 1265.38 L1377.83 1258.08 L1411.62 1261.30 L1411.62 1254.12 L1428.57 1257.96 L1428.57 1259.69 L1428.57 1262.91 L1428.57 1266.13 L1428.57 1268.35 L1445.40 1269.96 L1445.40 1275.78 L1445.40 1278.25 L1445.40 1283.70 L1462.35 1287.16 L1462.35 1292.98 L1462.35 1295.46 L1462.35 1299.17 L1479.31 1302.26 L1496.14 1305.36 L1496.14 1309.32 L1546.88 1312.29 L1597.61 1316.74 L1614.57 1322.31 L1631.40 1324.54 L1648.35 1318.60 L1648.35 1322.43 L1766.65 1330.35 L1766.65 1335.55 L1834.35 1324.29 L1834.35 1330.11 L1834.35 1334.07 L1868.13 1338.77 L1868.13 1343.10 L1885.08 1348.55 L1885.08 1353.12 L1952.65 1359.44 L1969.61 1346.57 L1969.61 1350.53 L1986.43 1335.68 L2020.34 1341.86 L2037.17 1337.28 L2121.69 1327.38 L2290.86 1332.33 L2307.69 1319.22 L2409.16 1327.01 L2442.95 1312.66 L2544.42 1324.66 L3372.93 1331.34 L3474.41 1336.54 L3711.14 1346.44 L3727.97 1331.22 L3744.92 1337.41" stroke-linejoin="round" style="fill:none;stroke:#000000;stroke-width:8.64"/>
	<line x1="350.71" y1="2414.69" x2="350.71" y2="235.38" style="stroke:#000000;stroke-width:5.76"/>
	<line x1="350.71" y1="2351.32" x2="310.74" y2="2351.32" style="stroke:#000000;stroke-width:5.76"/>
	<text x="266.64" y="2351.32" style="font-family:'Helvetica';font-size:79.94px;fill:#000000" transform="rotate(-90 266.64,2351.32)" text-anchor="middle">-6</text>
	<line x1="350.71" y1="1961.75" x2="310.74" y2="1961.75" style="stroke:#000000;stroke-width:5.76"/>
	<text x="266.64" y="1961.75" style="font-family:'Helvetica';font-size:79.94px;fill:#000000" transform="rotate(-90 266.64,1961.75)" text-anchor="middle">-4</text>
	<line x1="350.71" y1="1572.17" x2="310.74" y2="1572.17" style="stroke:#000000;stroke-width:5.76"/>
	<text x="266.64" y="1572.17" style="font-family:'Helvetica';font-size:79.94px;fill:#000000" transform="rotate(-90 266.64,1572.17)" text-anchor="middle">-2</text>
	<line x1="350.71" y1="1182.59" x2="310.74" y2="1182.59" style="stroke:#000000;stroke-width:5.76"/>
	<text x="266.64" y="1182.59" style="font-family:'Helvetica';font-size:79.94px;fill:#000000" transform="rotate(-90 266.64,1182.59)" text-anchor="middle">0</text>
	<line x1="350.71" y1="793.01" x2="310.74" y2="793.01" style="stroke:#000000;stroke-width:5.76"/>
	<text x="266.64" y="793.01" style="font-family:'Helvetica';font-size:79.94px;fill:#000000" transform="rotate(-90 266.64,793.01)" text-anchor="middle">2</text>
	<line x1="350.71" y1="403.44" x2="310.74" y2="403.44" style="stroke:#000000;stroke-width:5.76"/>
	<text x="266.64" y="403.44" style="font-family:'Helvetica';font-size:79.94px;fill:#000000" transform="rotate(-90 266.64,403.44)" text-anchor="middle">4</text>
	<text x="176.68" y="1325.03" style="font-family:'Helvetica';font-size:79.94px;fill:#000000" transform="rotate(-90 176.68,1325.03)" text-anchor="middle">Scaled Schoenfeld Residuals</text>
	<line x1="350.71" y1="2414.69" x2="3859.02" y2="2414.69" style="stroke:#000000;stroke-width:5.76"/>
	<line x1="414.07" y1="2414.69" x2="414.07" y2="2454.66" style="stroke:#000000;stroke-width:5.76"/>
	<text x="414.07" y="2530.61" style="font-family:'Helvetica';font-size:79.94px;fill:#000000" text-anchor="middle">0</text>
	<line x1="1259.53" y1="2414.69" x2="1259.53" y2="2454.66" style="stroke:#000000;stroke-width:5.76"/>
	<text x="1259.53" y="2530.61" style="font-family:'Helvetica';font-size:79.94px;fill:#000000" text-anchor="middle">50</text>
	<line x1="2104.86" y1="2414.69" x2="2104.86" y2="2454.66" style="stroke:#000000;stroke-width:5.76"/>
	<text x="2104.86" y="2530.61" style="font-family:'Helvetica';font-size:79.94px;fill:#000000" text-anchor="middle">100</text>
	<line x1="2950.32" y1="2414.69" x2="2950.32" y2="2454.66" style="stroke:#000000;stroke-width:5.76"/>
	<text x="2950.32" y="2530.61" style="font-family:'Helvetica';font-size:79.94px;fill:#000000" text-anchor="middle">150</text>
	<line x1="3795.66" y1="2414.69" x2="3795.66" y2="2454.66" style="stroke:#000000;stroke-width:5.76"/>
	<text x="3795.66" y="2530.61" style="font-family:'Helvetica';font-size:79.94px;fill:#000000" text-anchor="middle">200</text>
	<text x="2104.86" y="2620.57" style="font-family:'Helvetica';font-size:79.94px;fill:#000000" text-anchor="middle">Time</text>
	<text x="368.03" y="2737.89" style="font-family:'Helvetica';font-size:79.94px;fill:#000000">bandwidth = .8</text>
	<text x="368.03" y="187.99" style="font-family:'Helvetica';font-size:99.99px;fill:#000000">Schoenfeld residuals against time, DAG adjusted</text>
</svg>
