<?xml version="1.0" encoding="UTF-8" standalone="no"?>
<!-- This is a Stata 16.1 generated SVG file (http://www.stata.com) -->

<svg version="1.1" width="5.50in" height="4.00in" viewBox="0 0 3960 2880" xmlns="http://www.w3.org/2000/svg" xmlns:xlink="http://www.w3.org/1999/xlink">
	<desc>Stata Graph - Graph</desc>
	<rect x="0" y="0" width="3960" height="2880" style="fill:#FFFFFF;stroke:none"/>
	<rect x="0.00" y="0.00" width="3959.88" height="2880.00" style="fill:#FFFFFF"/>
	<rect x="2.88" y="2.88" width="3954.12" height="2874.24" style="fill:none;stroke:#FFFFFF;stroke-width:5.76"/>
	<rect x="353.59" y="238.26" width="3502.55" height="2173.55" style="fill:none;stroke:#000000;stroke-width:5.76"/>
	<circle cx="701.41" cy="298.74" r="14.97" style="fill:none;stroke:#606060;stroke-width:8.64"/>
	<circle cx="769.11" cy="298.87" r="14.97" style="fill:none;stroke:#606060;stroke-width:8.64"/>
	<circle cx="786.06" cy="2183.02" r="14.97" style="fill:none;stroke:#606060;stroke-width:8.64"/>
	<circle cx="802.89" cy="298.99" r="14.97" style="fill:none;stroke:#606060;stroke-width:8.64"/>
	<circle cx="819.84" cy="298.99" r="14.97" style="fill:none;stroke:#606060;stroke-width:8.64"/>
	<circle cx="836.80" cy="298.87" r="14.97" style="fill:none;stroke:#606060;stroke-width:8.64"/>
	<circle cx="836.80" cy="298.87" r="14.97" style="fill:none;stroke:#606060;stroke-width:8.64"/>
	<circle cx="853.63" cy="298.87" r="14.97" style="fill:none;stroke:#606060;stroke-width:8.64"/>
	<circle cx="853.63" cy="298.87" r="14.97" style="fill:none;stroke:#606060;stroke-width:8.64"/>
	<circle cx="870.58" cy="298.87" r="14.97" style="fill:none;stroke:#606060;stroke-width:8.64"/>
	<circle cx="870.58" cy="298.87" r="14.97" style="fill:none;stroke:#606060;stroke-width:8.64"/>
	<circle cx="870.58" cy="2183.02" r="14.97" style="fill:none;stroke:#606060;stroke-width:8.64"/>
	<circle cx="870.58" cy="298.87" r="14.97" style="fill:none;stroke:#606060;stroke-width:8.64"/>
	<circle cx="870.58" cy="298.87" r="14.97" style="fill:none;stroke:#606060;stroke-width:8.64"/>
	<circle cx="870.58" cy="298.87" r="14.97" style="fill:none;stroke:#606060;stroke-width:8.64"/>
	<circle cx="887.41" cy="298.99" r="14.97" style="fill:none;stroke:#606060;stroke-width:8.64"/>
	<circle cx="887.41" cy="298.99" r="14.97" style="fill:none;stroke:#606060;stroke-width:8.64"/>
	<circle cx="887.41" cy="2183.02" r="14.97" style="fill:none;stroke:#606060;stroke-width:8.64"/>
	<circle cx="904.37" cy="298.99" r="14.97" style="fill:none;stroke:#606060;stroke-width:8.64"/>
	<circle cx="904.37" cy="298.99" r="14.97" style="fill:none;stroke:#606060;stroke-width:8.64"/>
	<circle cx="921.32" cy="299.11" r="14.97" style="fill:none;stroke:#606060;stroke-width:8.64"/>
	<circle cx="938.15" cy="299.11" r="14.97" style="fill:none;stroke:#606060;stroke-width:8.64"/>
	<circle cx="938.15" cy="299.11" r="14.97" style="fill:none;stroke:#606060;stroke-width:8.64"/>
	<circle cx="938.15" cy="2183.14" r="14.97" style="fill:none;stroke:#606060;stroke-width:8.64"/>
	<circle cx="938.15" cy="2183.14" r="14.97" style="fill:none;stroke:#606060;stroke-width:8.64"/>
	<circle cx="955.10" cy="299.11" r="14.97" style="fill:none;stroke:#606060;stroke-width:8.64"/>
	<circle cx="955.10" cy="2183.27" r="14.97" style="fill:none;stroke:#606060;stroke-width:8.64"/>
	<circle cx="955.10" cy="299.11" r="14.97" style="fill:none;stroke:#606060;stroke-width:8.64"/>
	<circle cx="972.06" cy="299.11" r="14.97" style="fill:none;stroke:#606060;stroke-width:8.64"/>
	<circle cx="972.06" cy="299.11" r="14.97" style="fill:none;stroke:#606060;stroke-width:8.64"/>
	<circle cx="972.06" cy="299.11" r="14.97" style="fill:none;stroke:#606060;stroke-width:8.64"/>
	<circle cx="972.06" cy="2183.27" r="14.97" style="fill:none;stroke:#606060;stroke-width:8.64"/>
	<circle cx="972.06" cy="2183.27" r="14.97" style="fill:none;stroke:#606060;stroke-width:8.64"/>
	<circle cx="972.06" cy="2183.27" r="14.97" style="fill:none;stroke:#606060;stroke-width:8.64"/>
	<circle cx="988.89" cy="299.36" r="14.97" style="fill:none;stroke:#606060;stroke-width:8.64"/>
	<circle cx="988.89" cy="299.36" r="14.97" style="fill:none;stroke:#606060;stroke-width:8.64"/>
	<circle cx="1005.84" cy="299.36" r="14.97" style="fill:none;stroke:#606060;stroke-width:8.64"/>
	<circle cx="1005.84" cy="2183.39" r="14.97" style="fill:none;stroke:#606060;stroke-width:8.64"/>
	<circle cx="1005.84" cy="2183.39" r="14.97" style="fill:none;stroke:#606060;stroke-width:8.64"/>
	<circle cx="1005.84" cy="299.36" r="14.97" style="fill:none;stroke:#606060;stroke-width:8.64"/>
	<circle cx="1005.84" cy="299.36" r="14.97" style="fill:none;stroke:#606060;stroke-width:8.64"/>
	<circle cx="1005.84" cy="2183.39" r="14.97" style="fill:none;stroke:#606060;stroke-width:8.64"/>
	<circle cx="1005.84" cy="2183.39" r="14.97" style="fill:none;stroke:#606060;stroke-width:8.64"/>
	<circle cx="1022.67" cy="299.36" r="14.97" style="fill:none;stroke:#606060;stroke-width:8.64"/>
	<circle cx="1039.62" cy="299.48" r="14.97" style="fill:none;stroke:#606060;stroke-width:8.64"/>
	<circle cx="1039.62" cy="299.48" r="14.97" style="fill:none;stroke:#606060;stroke-width:8.64"/>
	<circle cx="1039.62" cy="299.48" r="14.97" style="fill:none;stroke:#606060;stroke-width:8.64"/>
	<circle cx="1039.62" cy="299.48" r="14.97" style="fill:none;stroke:#606060;stroke-width:8.64"/>
	<circle cx="1056.58" cy="299.48" r="14.97" style="fill:none;stroke:#606060;stroke-width:8.64"/>
	<circle cx="1056.58" cy="299.48" r="14.97" style="fill:none;stroke:#606060;stroke-width:8.64"/>
	<circle cx="1056.58" cy="299.48" r="14.97" style="fill:none;stroke:#606060;stroke-width:8.64"/>
	<circle cx="1056.58" cy="299.48" r="14.97" style="fill:none;stroke:#606060;stroke-width:8.64"/>
	<circle cx="1056.58" cy="299.48" r="14.97" style="fill:none;stroke:#606060;stroke-width:8.64"/>
	<circle cx="1056.58" cy="299.48" r="14.97" style="fill:none;stroke:#606060;stroke-width:8.64"/>
	<circle cx="1073.41" cy="299.36" r="14.97" style="fill:none;stroke:#606060;stroke-width:8.64"/>
	<circle cx="1073.41" cy="2183.51" r="14.97" style="fill:none;stroke:#606060;stroke-width:8.64"/>
	<circle cx="1073.41" cy="299.36" r="14.97" style="fill:none;stroke:#606060;stroke-width:8.64"/>
	<circle cx="1073.41" cy="299.36" r="14.97" style="fill:none;stroke:#606060;stroke-width:8.64"/>
	<circle cx="1073.41" cy="299.36" r="14.97" style="fill:none;stroke:#606060;stroke-width:8.64"/>
	<circle cx="1073.41" cy="299.36" r="14.97" style="fill:none;stroke:#606060;stroke-width:8.64"/>
	<circle cx="1090.36" cy="299.36" r="14.97" style="fill:none;stroke:#606060;stroke-width:8.64"/>
	<circle cx="1090.36" cy="2183.51" r="14.97" style="fill:none;stroke:#606060;stroke-width:8.64"/>
	<circle cx="1090.36" cy="299.36" r="14.97" style="fill:none;stroke:#606060;stroke-width:8.64"/>
	<circle cx="1090.36" cy="299.36" r="14.97" style="fill:none;stroke:#606060;stroke-width:8.64"/>
	<circle cx="1107.32" cy="299.36" r="14.97" style="fill:none;stroke:#606060;stroke-width:8.64"/>
	<circle cx="1107.32" cy="299.36" r="14.97" style="fill:none;stroke:#606060;stroke-width:8.64"/>
	<circle cx="1124.14" cy="299.48" r="14.97" style="fill:none;stroke:#606060;stroke-width:8.64"/>
	<circle cx="1141.10" cy="299.48" r="14.97" style="fill:none;stroke:#606060;stroke-width:8.64"/>
	<circle cx="1141.10" cy="299.48" r="14.97" style="fill:none;stroke:#606060;stroke-width:8.64"/>
	<circle cx="1141.10" cy="299.48" r="14.97" style="fill:none;stroke:#606060;stroke-width:8.64"/>
	<circle cx="1141.10" cy="299.48" r="14.97" style="fill:none;stroke:#606060;stroke-width:8.64"/>
	<circle cx="1158.05" cy="299.48" r="14.97" style="fill:none;stroke:#606060;stroke-width:8.64"/>
	<circle cx="1174.88" cy="299.48" r="14.97" style="fill:none;stroke:#606060;stroke-width:8.64"/>
	<circle cx="1174.88" cy="2183.51" r="14.97" style="fill:none;stroke:#606060;stroke-width:8.64"/>
	<circle cx="1191.84" cy="299.48" r="14.97" style="fill:none;stroke:#606060;stroke-width:8.64"/>
	<circle cx="1191.84" cy="299.48" r="14.97" style="fill:none;stroke:#606060;stroke-width:8.64"/>
	<circle cx="1191.84" cy="299.48" r="14.97" style="fill:none;stroke:#606060;stroke-width:8.64"/>
	<circle cx="1191.84" cy="2183.51" r="14.97" style="fill:none;stroke:#606060;stroke-width:8.64"/>
	<circle cx="1208.67" cy="2183.64" r="14.97" style="fill:none;stroke:#606060;stroke-width:8.64"/>
	<circle cx="1208.67" cy="299.48" r="14.97" style="fill:none;stroke:#606060;stroke-width:8.64"/>
	<circle cx="1208.67" cy="299.48" r="14.97" style="fill:none;stroke:#606060;stroke-width:8.64"/>
	<circle cx="1208.67" cy="299.48" r="14.97" style="fill:none;stroke:#606060;stroke-width:8.64"/>
	<circle cx="1208.67" cy="299.48" r="14.97" style="fill:none;stroke:#606060;stroke-width:8.64"/>
	<circle cx="1225.62" cy="2183.64" r="14.97" style="fill:none;stroke:#606060;stroke-width:8.64"/>
	<circle cx="1225.62" cy="299.48" r="14.97" style="fill:none;stroke:#606060;stroke-width:8.64"/>
	<circle cx="1242.57" cy="299.48" r="14.97" style="fill:none;stroke:#606060;stroke-width:8.64"/>
	<circle cx="1242.57" cy="2183.64" r="14.97" style="fill:none;stroke:#606060;stroke-width:8.64"/>
	<circle cx="1242.57" cy="299.48" r="14.97" style="fill:none;stroke:#606060;stroke-width:8.64"/>
	<circle cx="1242.57" cy="299.48" r="14.97" style="fill:none;stroke:#606060;stroke-width:8.64"/>
	<circle cx="1259.40" cy="2183.64" r="14.97" style="fill:none;stroke:#606060;stroke-width:8.64"/>
	<circle cx="1259.40" cy="299.48" r="14.97" style="fill:none;stroke:#606060;stroke-width:8.64"/>
	<circle cx="1276.36" cy="2183.64" r="14.97" style="fill:none;stroke:#606060;stroke-width:8.64"/>
	<circle cx="1276.36" cy="299.61" r="14.97" style="fill:none;stroke:#606060;stroke-width:8.64"/>
	<circle cx="1276.36" cy="299.61" r="14.97" style="fill:none;stroke:#606060;stroke-width:8.64"/>
	<circle cx="1276.36" cy="2183.64" r="14.97" style="fill:none;stroke:#606060;stroke-width:8.64"/>
	<circle cx="1276.36" cy="299.61" r="14.97" style="fill:none;stroke:#606060;stroke-width:8.64"/>
	<circle cx="1293.31" cy="2183.76" r="14.97" style="fill:none;stroke:#606060;stroke-width:8.64"/>
	<circle cx="1293.31" cy="2183.76" r="14.97" style="fill:none;stroke:#606060;stroke-width:8.64"/>
	<circle cx="1293.31" cy="299.73" r="14.97" style="fill:none;stroke:#606060;stroke-width:8.64"/>
	<circle cx="1293.31" cy="2183.76" r="14.97" style="fill:none;stroke:#606060;stroke-width:8.64"/>
	<circle cx="1293.31" cy="299.73" r="14.97" style="fill:none;stroke:#606060;stroke-width:8.64"/>
	<circle cx="1293.31" cy="2183.76" r="14.97" style="fill:none;stroke:#606060;stroke-width:8.64"/>
	<circle cx="1293.31" cy="299.73" r="14.97" style="fill:none;stroke:#606060;stroke-width:8.64"/>
	<circle cx="1310.14" cy="299.73" r="14.97" style="fill:none;stroke:#606060;stroke-width:8.64"/>
	<circle cx="1310.14" cy="299.73" r="14.97" style="fill:none;stroke:#606060;stroke-width:8.64"/>
	<circle cx="1327.10" cy="299.73" r="14.97" style="fill:none;stroke:#606060;stroke-width:8.64"/>
	<circle cx="1360.88" cy="299.86" r="14.97" style="fill:none;stroke:#606060;stroke-width:8.64"/>
	<circle cx="1360.88" cy="299.86" r="14.97" style="fill:none;stroke:#606060;stroke-width:8.64"/>
	<circle cx="1360.88" cy="2184.01" r="14.97" style="fill:none;stroke:#606060;stroke-width:8.64"/>
	<circle cx="1360.88" cy="2184.01" r="14.97" style="fill:none;stroke:#606060;stroke-width:8.64"/>
	<circle cx="1377.83" cy="299.86" r="14.97" style="fill:none;stroke:#606060;stroke-width:8.64"/>
	<circle cx="1377.83" cy="2183.88" r="14.97" style="fill:none;stroke:#606060;stroke-width:8.64"/>
	<circle cx="1377.83" cy="299.86" r="14.97" style="fill:none;stroke:#606060;stroke-width:8.64"/>
	<circle cx="1377.83" cy="299.86" r="14.97" style="fill:none;stroke:#606060;stroke-width:8.64"/>
	<circle cx="1394.66" cy="299.86" r="14.97" style="fill:none;stroke:#606060;stroke-width:8.64"/>
	<circle cx="1411.62" cy="299.86" r="14.97" style="fill:none;stroke:#606060;stroke-width:8.64"/>
	<circle cx="1411.62" cy="299.86" r="14.97" style="fill:none;stroke:#606060;stroke-width:8.64"/>
	<circle cx="1411.62" cy="299.86" r="14.97" style="fill:none;stroke:#606060;stroke-width:8.64"/>
	<circle cx="1411.62" cy="299.86" r="14.97" style="fill:none;stroke:#606060;stroke-width:8.64"/>
	<circle cx="1411.62" cy="299.86" r="14.97" style="fill:none;stroke:#606060;stroke-width:8.64"/>
	<circle cx="1428.57" cy="299.86" r="14.97" style="fill:none;stroke:#606060;stroke-width:8.64"/>
	<circle cx="1428.57" cy="299.86" r="14.97" style="fill:none;stroke:#606060;stroke-width:8.64"/>
	<circle cx="1428.57" cy="2183.88" r="14.97" style="fill:none;stroke:#606060;stroke-width:8.64"/>
	<circle cx="1428.57" cy="299.86" r="14.97" style="fill:none;stroke:#606060;stroke-width:8.64"/>
	<circle cx="1428.57" cy="2183.88" r="14.97" style="fill:none;stroke:#606060;stroke-width:8.64"/>
	<circle cx="1445.40" cy="2184.01" r="14.97" style="fill:none;stroke:#606060;stroke-width:8.64"/>
	<circle cx="1445.40" cy="299.98" r="14.97" style="fill:none;stroke:#606060;stroke-width:8.64"/>
	<circle cx="1445.40" cy="2184.01" r="14.97" style="fill:none;stroke:#606060;stroke-width:8.64"/>
	<circle cx="1445.40" cy="299.98" r="14.97" style="fill:none;stroke:#606060;stroke-width:8.64"/>
	<circle cx="1462.35" cy="299.98" r="14.97" style="fill:none;stroke:#606060;stroke-width:8.64"/>
	<circle cx="1462.35" cy="2184.01" r="14.97" style="fill:none;stroke:#606060;stroke-width:8.64"/>
	<circle cx="1462.35" cy="2184.01" r="14.97" style="fill:none;stroke:#606060;stroke-width:8.64"/>
	<circle cx="1462.35" cy="299.98" r="14.97" style="fill:none;stroke:#606060;stroke-width:8.64"/>
	<circle cx="1462.35" cy="299.98" r="14.97" style="fill:none;stroke:#606060;stroke-width:8.64"/>
	<circle cx="1462.35" cy="299.98" r="14.97" style="fill:none;stroke:#606060;stroke-width:8.64"/>
	<circle cx="1479.31" cy="299.98" r="14.97" style="fill:none;stroke:#606060;stroke-width:8.64"/>
	<circle cx="1496.14" cy="300.10" r="14.97" style="fill:none;stroke:#606060;stroke-width:8.64"/>
	<circle cx="1496.14" cy="2184.13" r="14.97" style="fill:none;stroke:#606060;stroke-width:8.64"/>
	<circle cx="1513.09" cy="300.10" r="14.97" style="fill:none;stroke:#606060;stroke-width:8.64"/>
	<circle cx="1546.88" cy="300.10" r="14.97" style="fill:none;stroke:#606060;stroke-width:8.64"/>
	<circle cx="1563.83" cy="300.23" r="14.97" style="fill:none;stroke:#606060;stroke-width:8.64"/>
	<circle cx="1580.66" cy="300.23" r="14.97" style="fill:none;stroke:#606060;stroke-width:8.64"/>
	<circle cx="1597.61" cy="2184.38" r="14.97" style="fill:none;stroke:#606060;stroke-width:8.64"/>
	<circle cx="1597.61" cy="300.23" r="14.97" style="fill:none;stroke:#606060;stroke-width:8.64"/>
	<circle cx="1597.61" cy="2184.38" r="14.97" style="fill:none;stroke:#606060;stroke-width:8.64"/>
	<circle cx="1614.57" cy="300.35" r="14.97" style="fill:none;stroke:#606060;stroke-width:8.64"/>
	<circle cx="1631.40" cy="300.35" r="14.97" style="fill:none;stroke:#606060;stroke-width:8.64"/>
	<circle cx="1648.35" cy="300.47" r="14.97" style="fill:none;stroke:#606060;stroke-width:8.64"/>
	<circle cx="1648.35" cy="300.47" r="14.97" style="fill:none;stroke:#606060;stroke-width:8.64"/>
	<circle cx="1648.35" cy="2184.50" r="14.97" style="fill:none;stroke:#606060;stroke-width:8.64"/>
	<circle cx="1766.65" cy="300.60" r="14.97" style="fill:none;stroke:#606060;stroke-width:8.64"/>
	<circle cx="1766.65" cy="300.60" r="14.97" style="fill:none;stroke:#606060;stroke-width:8.64"/>
	<circle cx="1817.39" cy="300.72" r="14.97" style="fill:none;stroke:#606060;stroke-width:8.64"/>
	<circle cx="1834.35" cy="2184.75" r="14.97" style="fill:none;stroke:#606060;stroke-width:8.64"/>
	<circle cx="1834.35" cy="2184.75" r="14.97" style="fill:none;stroke:#606060;stroke-width:8.64"/>
	<circle cx="1834.35" cy="300.60" r="14.97" style="fill:none;stroke:#606060;stroke-width:8.64"/>
	<circle cx="1868.13" cy="2184.75" r="14.97" style="fill:none;stroke:#606060;stroke-width:8.64"/>
	<circle cx="1868.13" cy="2184.75" r="14.97" style="fill:none;stroke:#606060;stroke-width:8.64"/>
	<circle cx="1885.08" cy="2184.87" r="14.97" style="fill:none;stroke:#606060;stroke-width:8.64"/>
	<circle cx="1885.08" cy="300.72" r="14.97" style="fill:none;stroke:#606060;stroke-width:8.64"/>
	<circle cx="1952.65" cy="2185.00" r="14.97" style="fill:none;stroke:#606060;stroke-width:8.64"/>
	<circle cx="1969.61" cy="2185.00" r="14.97" style="fill:none;stroke:#606060;stroke-width:8.64"/>
	<circle cx="1969.61" cy="2185.00" r="14.97" style="fill:none;stroke:#606060;stroke-width:8.64"/>
	<circle cx="1986.43" cy="300.97" r="14.97" style="fill:none;stroke:#606060;stroke-width:8.64"/>
	<circle cx="2003.39" cy="2185.00" r="14.97" style="fill:none;stroke:#606060;stroke-width:8.64"/>
	<circle cx="2020.34" cy="2185.12" r="14.97" style="fill:none;stroke:#606060;stroke-width:8.64"/>
	<circle cx="2037.17" cy="301.09" r="14.97" style="fill:none;stroke:#606060;stroke-width:8.64"/>
	<circle cx="2121.69" cy="301.09" r="14.97" style="fill:none;stroke:#606060;stroke-width:8.64"/>
	<circle cx="2138.65" cy="301.09" r="14.97" style="fill:none;stroke:#606060;stroke-width:8.64"/>
	<circle cx="2206.34" cy="301.34" r="14.97" style="fill:none;stroke:#606060;stroke-width:8.64"/>
	<circle cx="2257.08" cy="301.34" r="14.97" style="fill:none;stroke:#606060;stroke-width:8.64"/>
	<circle cx="2290.86" cy="301.46" r="14.97" style="fill:none;stroke:#606060;stroke-width:8.64"/>
	<circle cx="2307.69" cy="2185.49" r="14.97" style="fill:none;stroke:#606060;stroke-width:8.64"/>
	<circle cx="2392.34" cy="301.59" r="14.97" style="fill:none;stroke:#606060;stroke-width:8.64"/>
	<circle cx="2409.16" cy="301.46" r="14.97" style="fill:none;stroke:#606060;stroke-width:8.64"/>
	<circle cx="2442.95" cy="301.46" r="14.97" style="fill:none;stroke:#606060;stroke-width:8.64"/>
	<circle cx="2459.90" cy="2185.49" r="14.97" style="fill:none;stroke:#606060;stroke-width:8.64"/>
	<circle cx="2544.42" cy="301.46" r="14.97" style="fill:none;stroke:#606060;stroke-width:8.64"/>
	<circle cx="2713.59" cy="2185.62" r="14.97" style="fill:none;stroke:#606060;stroke-width:8.64"/>
	<circle cx="2798.11" cy="301.71" r="14.97" style="fill:none;stroke:#606060;stroke-width:8.64"/>
	<circle cx="3372.93" cy="2186.48" r="14.97" style="fill:none;stroke:#606060;stroke-width:8.64"/>
	<circle cx="3474.41" cy="302.45" r="14.97" style="fill:none;stroke:#606060;stroke-width:8.64"/>
	<circle cx="3711.14" cy="2186.85" r="14.97" style="fill:none;stroke:#606060;stroke-width:8.64"/>
	<circle cx="3727.97" cy="302.83" r="14.97" style="fill:none;stroke:#606060;stroke-width:8.64"/>
	<circle cx="3744.92" cy="302.70" r="14.97" style="fill:none;stroke:#606060;stroke-width:8.64"/>
	<path d=" M701.41 706.63 L769.11 701.19 L786.06 695.87 L802.89 690.79 L819.84 709.85 L836.80 728.54 L836.80 723.22 L853.63 717.90 L853.63 712.82 L870.58 707.87 L870.58 725.45 L870.58 720.37 L870.58 715.54 L870.58 732.38 L870.58 727.43 L887.41 722.72 L887.41 738.93 L887.41 734.11 L904.37 749.82 L904.37 745.00 L921.32 740.30 L938.15 755.39 L938.15 750.69 L938.15 765.42 L938.15 779.90 L955.10 775.07 L955.10 789.18 L955.10 784.35 L972.06 798.09 L972.06 793.26 L972.06 788.44 L972.06 783.86 L972.06 779.28 L972.06 774.82 L988.89 770.37 L988.89 783.36 L1005.84 796.11 L1005.84 791.65 L1005.84 804.03 L1005.84 799.57 L1005.84 795.24 L1005.84 790.91 L1005.84 786.70 L1022.67 782.50 L1039.62 778.41 L1039.62 774.33 L1039.62 770.37 L1039.62 766.53 L1056.58 762.70 L1056.58 774.20 L1056.58 770.37 L1056.58 781.75 L1056.58 792.89 L1056.58 788.93 L1073.41 799.94 L1073.41 795.98 L1073.41 792.15 L1073.41 802.79 L1073.41 813.31 L1073.41 809.47 L1090.36 805.64 L1090.36 801.93 L1090.36 798.21 L1090.36 794.50 L1107.32 804.65 L1107.32 800.94 L1124.14 797.47 L1141.10 793.88 L1141.10 790.42 L1141.10 800.19 L1141.10 796.73 L1158.05 806.26 L1174.88 802.79 L1174.88 799.33 L1191.84 799.33 L1191.84 799.45 L1191.84 799.45 L1191.84 799.45 L1208.67 799.45 L1208.67 799.45 L1208.67 812.32 L1208.67 825.07 L1208.67 825.07 L1225.62 837.94 L1225.62 850.81 L1242.57 850.81 L1242.57 850.81 L1242.57 863.68 L1242.57 876.42 L1259.40 889.30 L1259.40 889.30 L1276.36 889.30 L1276.36 902.17 L1276.36 902.17 L1276.36 902.17 L1276.36 902.17 L1293.31 902.17 L1293.31 889.42 L1293.31 876.55 L1293.31 889.42 L1293.31 876.67 L1293.31 876.67 L1293.31 876.67 L1310.14 889.54 L1310.14 889.54 L1327.10 889.54 L1360.88 876.67 L1360.88 876.80 L1360.88 876.80 L1360.88 889.67 L1377.83 889.67 L1377.83 876.80 L1377.83 867.89 L1377.83 871.85 L1394.66 875.81 L1411.62 866.65 L1411.62 857.37 L1411.62 861.33 L1411.62 865.29 L1411.62 869.37 L1428.57 873.58 L1428.57 877.79 L1428.57 881.99 L1428.57 886.33 L1428.57 890.66 L1445.40 895.11 L1445.40 899.69 L1445.40 904.27 L1445.40 908.85 L1462.35 898.95 L1462.35 903.65 L1462.35 908.48 L1462.35 913.30 L1462.35 918.13 L1462.35 923.20 L1479.31 912.93 L1496.14 918.01 L1496.14 923.08 L1513.09 928.28 L1546.88 933.60 L1563.83 938.92 L1580.66 944.37 L1597.61 949.93 L1597.61 955.63 L1597.61 961.32 L1614.57 967.26 L1631.40 973.20 L1648.35 962.31 L1648.35 968.25 L1648.35 974.44 L1766.65 980.63 L1766.65 969.49 L1817.39 957.98 L1834.35 964.29 L1834.35 970.60 L1834.35 977.16 L1868.13 983.84 L1868.13 971.96 L1885.08 978.65 L1885.08 985.45 L1952.65 973.32 L1969.61 980.25 L1969.61 987.31 L1986.43 974.69 L2003.39 981.86 L2020.34 968.99 L2037.17 976.29 L2121.69 983.72 L2138.65 970.35 L2206.34 977.90 L2257.08 964.17 L2290.86 950.18 L2307.69 957.73 L2392.34 943.38 L2409.16 950.92 L2442.95 936.07 L2459.90 943.87 L2544.42 951.79 L2713.59 959.96 L2798.11 968.37 L3372.93 976.91 L3474.41 985.70 L3711.14 969.98 L3727.97 953.77 L3744.92 962.56" stroke-linejoin="round" style="fill:none;stroke:#000000;stroke-width:8.64"/>
	<line x1="350.71" y1="2414.69" x2="350.71" y2="235.38" style="stroke:#000000;stroke-width:5.76"/>
	<line x1="350.71" y1="2351.32" x2="310.74" y2="2351.32" style="stroke:#000000;stroke-width:5.76"/>
	<text x="266.64" y="2351.32" style="font-family:'Helvetica';font-size:79.94px;fill:#000000" transform="rotate(-90 266.64,2351.32)" text-anchor="middle">-4</text>
	<line x1="350.71" y1="1957.79" x2="310.74" y2="1957.79" style="stroke:#000000;stroke-width:5.76"/>
	<text x="266.64" y="1957.79" style="font-family:'Helvetica';font-size:79.94px;fill:#000000" transform="rotate(-90 266.64,1957.79)" text-anchor="middle">-3</text>
	<line x1="350.71" y1="1564.13" x2="310.74" y2="1564.13" style="stroke:#000000;stroke-width:5.76"/>
	<text x="266.64" y="1564.13" style="font-family:'Helvetica';font-size:79.94px;fill:#000000" transform="rotate(-90 266.64,1564.13)" text-anchor="middle">-2</text>
	<line x1="350.71" y1="1170.59" x2="310.74" y2="1170.59" style="stroke:#000000;stroke-width:5.76"/>
	<text x="266.64" y="1170.59" style="font-family:'Helvetica';font-size:79.94px;fill:#000000" transform="rotate(-90 266.64,1170.59)" text-anchor="middle">-1</text>
	<line x1="350.71" y1="776.93" x2="310.74" y2="776.93" style="stroke:#000000;stroke-width:5.76"/>
	<text x="266.64" y="776.93" style="font-family:'Helvetica';font-size:79.94px;fill:#000000" transform="rotate(-90 266.64,776.93)" text-anchor="middle">0</text>
	<line x1="350.71" y1="383.27" x2="310.74" y2="383.27" style="stroke:#000000;stroke-width:5.76"/>
	<text x="266.64" y="383.27" style="font-family:'Helvetica';font-size:79.94px;fill:#000000" transform="rotate(-90 266.64,383.27)" text-anchor="middle">1</text>
	<text x="176.68" y="1325.03" style="font-family:'Helvetica';font-size:79.94px;fill:#000000" transform="rotate(-90 176.68,1325.03)" text-anchor="middle">Scaled Schoenfeld Residuals</text>
	<line x1="350.71" y1="2414.69" x2="3859.02" y2="2414.69" style="stroke:#000000;stroke-width:5.76"/>
	<line x1="414.07" y1="2414.69" x2="414.07" y2="2454.66" style="stroke:#000000;stroke-width:5.76"/>
	<text x="414.07" y="2530.61" style="font-family:'Helvetica';font-size:79.94px;fill:#000000" text-anchor="middle">0</text>
	<line x1="1259.53" y1="2414.69" x2="1259.53" y2="2454.66" style="stroke:#000000;stroke-width:5.76"/>
	<text x="1259.53" y="2530.61" style="font-family:'Helvetica';font-size:79.94px;fill:#000000" text-anchor="middle">50</text>
	<line x1="2104.86" y1="2414.69" x2="2104.86" y2="2454.66" style="stroke:#000000;stroke-width:5.76"/>
	<text x="2104.86" y="2530.61" style="font-family:'Helvetica';font-size:79.94px;fill:#000000" text-anchor="middle">100</text>
	<line x1="2950.32" y1="2414.69" x2="2950.32" y2="2454.66" style="stroke:#000000;stroke-width:5.76"/>
	<text x="2950.32" y="2530.61" style="font-family:'Helvetica';font-size:79.94px;fill:#000000" text-anchor="middle">150</text>
	<line x1="3795.66" y1="2414.69" x2="3795.66" y2="2454.66" style="stroke:#000000;stroke-width:5.76"/>
	<text x="3795.66" y="2530.61" style="font-family:'Helvetica';font-size:79.94px;fill:#000000" text-anchor="middle">200</text>
	<text x="2104.86" y="2620.57" style="font-family:'Helvetica';font-size:79.94px;fill:#000000" text-anchor="middle">Time</text>
	<text x="368.03" y="2737.89" style="font-family:'Helvetica';font-size:79.94px;fill:#000000">bandwidth = .8</text>
	<text x="368.03" y="187.99" style="font-family:'Helvetica';font-size:99.99px;fill:#000000">Schoenfeld residuals against time, univariable</text>
</svg>
