<?xml version="1.0" encoding="UTF-8" standalone="no"?>
<!-- This is a Stata 16.1 generated SVG file (http://www.stata.com) -->

<svg version="1.1" width="5.50in" height="4.00in" viewBox="0 0 3960 2880" xmlns="http://www.w3.org/2000/svg" xmlns:xlink="http://www.w3.org/1999/xlink">
	<desc>Stata Graph - Graph</desc>
	<rect x="0" y="0" width="3960" height="2880" style="fill:#FFFFFF;stroke:none"/>
	<rect x="0.00" y="0.00" width="3959.88" height="2880.00" style="fill:#FFFFFF"/>
	<rect x="2.88" y="2.88" width="3954.12" height="2874.24" style="fill:none;stroke:#FFFFFF;stroke-width:5.76"/>
	<rect x="353.59" y="238.26" width="3502.55" height="2173.55" style="fill:none;stroke:#000000;stroke-width:5.76"/>
	<circle cx="701.41" cy="789.30" r="14.97" style="fill:none;stroke:#606060;stroke-width:8.64"/>
	<circle cx="769.11" cy="1010.33" r="14.97" style="fill:none;stroke:#606060;stroke-width:8.64"/>
	<circle cx="786.06" cy="2093.92" r="14.97" style="fill:none;stroke:#606060;stroke-width:8.64"/>
	<circle cx="802.89" cy="867.27" r="14.97" style="fill:none;stroke:#606060;stroke-width:8.64"/>
	<circle cx="819.84" cy="1071.34" r="14.97" style="fill:none;stroke:#606060;stroke-width:8.64"/>
	<circle cx="836.80" cy="912.31" r="14.97" style="fill:none;stroke:#606060;stroke-width:8.64"/>
	<circle cx="836.80" cy="793.88" r="14.97" style="fill:none;stroke:#606060;stroke-width:8.64"/>
	<circle cx="853.63" cy="1007.48" r="14.97" style="fill:none;stroke:#606060;stroke-width:8.64"/>
	<circle cx="853.63" cy="995.72" r="14.97" style="fill:none;stroke:#606060;stroke-width:8.64"/>
	<circle cx="870.58" cy="535.61" r="14.97" style="fill:none;stroke:#606060;stroke-width:8.64"/>
	<circle cx="870.58" cy="938.80" r="14.97" style="fill:none;stroke:#606060;stroke-width:8.64"/>
	<circle cx="870.58" cy="1911.75" r="14.97" style="fill:none;stroke:#606060;stroke-width:8.64"/>
	<circle cx="870.58" cy="1025.05" r="14.97" style="fill:none;stroke:#606060;stroke-width:8.64"/>
	<circle cx="870.58" cy="1177.52" r="14.97" style="fill:none;stroke:#606060;stroke-width:8.64"/>
	<circle cx="870.58" cy="974.69" r="14.97" style="fill:none;stroke:#606060;stroke-width:8.64"/>
	<circle cx="887.41" cy="898.95" r="14.97" style="fill:none;stroke:#606060;stroke-width:8.64"/>
	<circle cx="887.41" cy="941.27" r="14.97" style="fill:none;stroke:#606060;stroke-width:8.64"/>
	<circle cx="887.41" cy="1870.04" r="14.97" style="fill:none;stroke:#606060;stroke-width:8.64"/>
	<circle cx="904.37" cy="896.84" r="14.97" style="fill:none;stroke:#606060;stroke-width:8.64"/>
	<circle cx="904.37" cy="1124.30" r="14.97" style="fill:none;stroke:#606060;stroke-width:8.64"/>
	<circle cx="921.32" cy="996.09" r="14.97" style="fill:none;stroke:#606060;stroke-width:8.64"/>
	<circle cx="938.15" cy="1139.90" r="14.97" style="fill:none;stroke:#606060;stroke-width:8.64"/>
	<circle cx="938.15" cy="1078.27" r="14.97" style="fill:none;stroke:#606060;stroke-width:8.64"/>
	<circle cx="938.15" cy="2084.76" r="14.97" style="fill:none;stroke:#606060;stroke-width:8.64"/>
	<circle cx="938.15" cy="2100.35" r="14.97" style="fill:none;stroke:#606060;stroke-width:8.64"/>
	<circle cx="955.10" cy="1016.02" r="14.97" style="fill:none;stroke:#606060;stroke-width:8.64"/>
	<circle cx="955.10" cy="1922.02" r="14.97" style="fill:none;stroke:#606060;stroke-width:8.64"/>
	<circle cx="955.10" cy="1016.51" r="14.97" style="fill:none;stroke:#606060;stroke-width:8.64"/>
	<circle cx="972.06" cy="844.62" r="14.97" style="fill:none;stroke:#606060;stroke-width:8.64"/>
	<circle cx="972.06" cy="842.02" r="14.97" style="fill:none;stroke:#606060;stroke-width:8.64"/>
	<circle cx="972.06" cy="1083.47" r="14.97" style="fill:none;stroke:#606060;stroke-width:8.64"/>
	<circle cx="972.06" cy="2090.70" r="14.97" style="fill:none;stroke:#606060;stroke-width:8.64"/>
	<circle cx="972.06" cy="2016.07" r="14.97" style="fill:none;stroke:#606060;stroke-width:8.64"/>
	<circle cx="972.06" cy="1947.39" r="14.97" style="fill:none;stroke:#606060;stroke-width:8.64"/>
	<circle cx="988.89" cy="970.60" r="14.97" style="fill:none;stroke:#606060;stroke-width:8.64"/>
	<circle cx="988.89" cy="1035.57" r="14.97" style="fill:none;stroke:#606060;stroke-width:8.64"/>
	<circle cx="1005.84" cy="931.25" r="14.97" style="fill:none;stroke:#606060;stroke-width:8.64"/>
	<circle cx="1005.84" cy="1939.97" r="14.97" style="fill:none;stroke:#606060;stroke-width:8.64"/>
	<circle cx="1005.84" cy="1933.78" r="14.97" style="fill:none;stroke:#606060;stroke-width:8.64"/>
	<circle cx="1005.84" cy="801.18" r="14.97" style="fill:none;stroke:#606060;stroke-width:8.64"/>
	<circle cx="1005.84" cy="1082.97" r="14.97" style="fill:none;stroke:#606060;stroke-width:8.64"/>
	<circle cx="1005.84" cy="2027.83" r="14.97" style="fill:none;stroke:#606060;stroke-width:8.64"/>
	<circle cx="1005.84" cy="1890.84" r="14.97" style="fill:none;stroke:#606060;stroke-width:8.64"/>
	<circle cx="1022.67" cy="1054.88" r="14.97" style="fill:none;stroke:#606060;stroke-width:8.64"/>
	<circle cx="1039.62" cy="917.39" r="14.97" style="fill:none;stroke:#606060;stroke-width:8.64"/>
	<circle cx="1039.62" cy="1003.27" r="14.97" style="fill:none;stroke:#606060;stroke-width:8.64"/>
	<circle cx="1039.62" cy="972.46" r="14.97" style="fill:none;stroke:#606060;stroke-width:8.64"/>
	<circle cx="1039.62" cy="953.40" r="14.97" style="fill:none;stroke:#606060;stroke-width:8.64"/>
	<circle cx="1056.58" cy="1063.29" r="14.97" style="fill:none;stroke:#606060;stroke-width:8.64"/>
	<circle cx="1056.58" cy="1108.83" r="14.97" style="fill:none;stroke:#606060;stroke-width:8.64"/>
	<circle cx="1056.58" cy="733.98" r="14.97" style="fill:none;stroke:#606060;stroke-width:8.64"/>
	<circle cx="1056.58" cy="1025.67" r="14.97" style="fill:none;stroke:#606060;stroke-width:8.64"/>
	<circle cx="1056.58" cy="1009.21" r="14.97" style="fill:none;stroke:#606060;stroke-width:8.64"/>
	<circle cx="1056.58" cy="778.41" r="14.97" style="fill:none;stroke:#606060;stroke-width:8.64"/>
	<circle cx="1073.41" cy="910.95" r="14.97" style="fill:none;stroke:#606060;stroke-width:8.64"/>
	<circle cx="1073.41" cy="1907.54" r="14.97" style="fill:none;stroke:#606060;stroke-width:8.64"/>
	<circle cx="1073.41" cy="967.63" r="14.97" style="fill:none;stroke:#606060;stroke-width:8.64"/>
	<circle cx="1073.41" cy="769.01" r="14.97" style="fill:none;stroke:#606060;stroke-width:8.64"/>
	<circle cx="1073.41" cy="807.87" r="14.97" style="fill:none;stroke:#606060;stroke-width:8.64"/>
	<circle cx="1073.41" cy="1048.69" r="14.97" style="fill:none;stroke:#606060;stroke-width:8.64"/>
	<circle cx="1090.36" cy="921.97" r="14.97" style="fill:none;stroke:#606060;stroke-width:8.64"/>
	<circle cx="1090.36" cy="2091.56" r="14.97" style="fill:none;stroke:#606060;stroke-width:8.64"/>
	<circle cx="1090.36" cy="955.63" r="14.97" style="fill:none;stroke:#606060;stroke-width:8.64"/>
	<circle cx="1090.36" cy="1015.28" r="14.97" style="fill:none;stroke:#606060;stroke-width:8.64"/>
	<circle cx="1107.32" cy="967.51" r="14.97" style="fill:none;stroke:#606060;stroke-width:8.64"/>
	<circle cx="1107.32" cy="1011.56" r="14.97" style="fill:none;stroke:#606060;stroke-width:8.64"/>
	<circle cx="1124.14" cy="972.58" r="14.97" style="fill:none;stroke:#606060;stroke-width:8.64"/>
	<circle cx="1141.10" cy="1006.74" r="14.97" style="fill:none;stroke:#606060;stroke-width:8.64"/>
	<circle cx="1141.10" cy="885.46" r="14.97" style="fill:none;stroke:#606060;stroke-width:8.64"/>
	<circle cx="1141.10" cy="1061.68" r="14.97" style="fill:none;stroke:#606060;stroke-width:8.64"/>
	<circle cx="1141.10" cy="941.77" r="14.97" style="fill:none;stroke:#606060;stroke-width:8.64"/>
	<circle cx="1158.05" cy="859.59" r="14.97" style="fill:none;stroke:#606060;stroke-width:8.64"/>
	<circle cx="1174.88" cy="1138.91" r="14.97" style="fill:none;stroke:#606060;stroke-width:8.64"/>
	<circle cx="1174.88" cy="1738.00" r="14.97" style="fill:none;stroke:#606060;stroke-width:8.64"/>
	<circle cx="1191.84" cy="1007.48" r="14.97" style="fill:none;stroke:#606060;stroke-width:8.64"/>
	<circle cx="1191.84" cy="712.08" r="14.97" style="fill:none;stroke:#606060;stroke-width:8.64"/>
	<circle cx="1191.84" cy="926.30" r="14.97" style="fill:none;stroke:#606060;stroke-width:8.64"/>
	<circle cx="1191.84" cy="2104.93" r="14.97" style="fill:none;stroke:#606060;stroke-width:8.64"/>
	<circle cx="1208.67" cy="1536.53" r="14.97" style="fill:none;stroke:#606060;stroke-width:8.64"/>
	<circle cx="1208.67" cy="871.23" r="14.97" style="fill:none;stroke:#606060;stroke-width:8.64"/>
	<circle cx="1208.67" cy="1048.44" r="14.97" style="fill:none;stroke:#606060;stroke-width:8.64"/>
	<circle cx="1208.67" cy="983.35" r="14.97" style="fill:none;stroke:#606060;stroke-width:8.64"/>
	<circle cx="1208.67" cy="1017.63" r="14.97" style="fill:none;stroke:#606060;stroke-width:8.64"/>
	<circle cx="1225.62" cy="1908.16" r="14.97" style="fill:none;stroke:#606060;stroke-width:8.64"/>
	<circle cx="1225.62" cy="952.16" r="14.97" style="fill:none;stroke:#606060;stroke-width:8.64"/>
	<circle cx="1242.57" cy="1018.37" r="14.97" style="fill:none;stroke:#606060;stroke-width:8.64"/>
	<circle cx="1242.57" cy="2060.63" r="14.97" style="fill:none;stroke:#606060;stroke-width:8.64"/>
	<circle cx="1242.57" cy="997.83" r="14.97" style="fill:none;stroke:#606060;stroke-width:8.64"/>
	<circle cx="1242.57" cy="924.32" r="14.97" style="fill:none;stroke:#606060;stroke-width:8.64"/>
	<circle cx="1259.40" cy="2146.88" r="14.97" style="fill:none;stroke:#606060;stroke-width:8.64"/>
	<circle cx="1259.40" cy="1076.41" r="14.97" style="fill:none;stroke:#606060;stroke-width:8.64"/>
	<circle cx="1276.36" cy="2256.53" r="14.97" style="fill:none;stroke:#606060;stroke-width:8.64"/>
	<circle cx="1276.36" cy="918.25" r="14.97" style="fill:none;stroke:#606060;stroke-width:8.64"/>
	<circle cx="1276.36" cy="986.57" r="14.97" style="fill:none;stroke:#606060;stroke-width:8.64"/>
	<circle cx="1276.36" cy="1586.40" r="14.97" style="fill:none;stroke:#606060;stroke-width:8.64"/>
	<circle cx="1276.36" cy="1022.21" r="14.97" style="fill:none;stroke:#606060;stroke-width:8.64"/>
	<circle cx="1293.31" cy="1889.47" r="14.97" style="fill:none;stroke:#606060;stroke-width:8.64"/>
	<circle cx="1293.31" cy="2089.71" r="14.97" style="fill:none;stroke:#606060;stroke-width:8.64"/>
	<circle cx="1293.31" cy="1006.12" r="14.97" style="fill:none;stroke:#606060;stroke-width:8.64"/>
	<circle cx="1293.31" cy="2059.88" r="14.97" style="fill:none;stroke:#606060;stroke-width:8.64"/>
	<circle cx="1293.31" cy="857.49" r="14.97" style="fill:none;stroke:#606060;stroke-width:8.64"/>
	<circle cx="1293.31" cy="2075.72" r="14.97" style="fill:none;stroke:#606060;stroke-width:8.64"/>
	<circle cx="1293.31" cy="636.34" r="14.97" style="fill:none;stroke:#606060;stroke-width:8.64"/>
	<circle cx="1310.14" cy="940.53" r="14.97" style="fill:none;stroke:#606060;stroke-width:8.64"/>
	<circle cx="1310.14" cy="1028.02" r="14.97" style="fill:none;stroke:#606060;stroke-width:8.64"/>
	<circle cx="1327.10" cy="782.25" r="14.97" style="fill:none;stroke:#606060;stroke-width:8.64"/>
	<circle cx="1360.88" cy="741.04" r="14.97" style="fill:none;stroke:#606060;stroke-width:8.64"/>
	<circle cx="1360.88" cy="880.63" r="14.97" style="fill:none;stroke:#606060;stroke-width:8.64"/>
	<circle cx="1360.88" cy="2084.02" r="14.97" style="fill:none;stroke:#606060;stroke-width:8.64"/>
	<circle cx="1360.88" cy="1916.58" r="14.97" style="fill:none;stroke:#606060;stroke-width:8.64"/>
	<circle cx="1377.83" cy="991.76" r="14.97" style="fill:none;stroke:#606060;stroke-width:8.64"/>
	<circle cx="1377.83" cy="1538.76" r="14.97" style="fill:none;stroke:#606060;stroke-width:8.64"/>
	<circle cx="1377.83" cy="951.67" r="14.97" style="fill:none;stroke:#606060;stroke-width:8.64"/>
	<circle cx="1377.83" cy="867.51" r="14.97" style="fill:none;stroke:#606060;stroke-width:8.64"/>
	<circle cx="1394.66" cy="1059.70" r="14.97" style="fill:none;stroke:#606060;stroke-width:8.64"/>
	<circle cx="1411.62" cy="1119.48" r="14.97" style="fill:none;stroke:#606060;stroke-width:8.64"/>
	<circle cx="1411.62" cy="993.25" r="14.97" style="fill:none;stroke:#606060;stroke-width:8.64"/>
	<circle cx="1411.62" cy="834.47" r="14.97" style="fill:none;stroke:#606060;stroke-width:8.64"/>
	<circle cx="1411.62" cy="861.33" r="14.97" style="fill:none;stroke:#606060;stroke-width:8.64"/>
	<circle cx="1411.62" cy="877.54" r="14.97" style="fill:none;stroke:#606060;stroke-width:8.64"/>
	<circle cx="1428.57" cy="906.13" r="14.97" style="fill:none;stroke:#606060;stroke-width:8.64"/>
	<circle cx="1428.57" cy="1009.58" r="14.97" style="fill:none;stroke:#606060;stroke-width:8.64"/>
	<circle cx="1428.57" cy="1951.60" r="14.97" style="fill:none;stroke:#606060;stroke-width:8.64"/>
	<circle cx="1428.57" cy="1007.11" r="14.97" style="fill:none;stroke:#606060;stroke-width:8.64"/>
	<circle cx="1428.57" cy="1628.11" r="14.97" style="fill:none;stroke:#606060;stroke-width:8.64"/>
	<circle cx="1445.40" cy="1414.63" r="14.97" style="fill:none;stroke:#606060;stroke-width:8.64"/>
	<circle cx="1445.40" cy="975.92" r="14.97" style="fill:none;stroke:#606060;stroke-width:8.64"/>
	<circle cx="1445.40" cy="2089.09" r="14.97" style="fill:none;stroke:#606060;stroke-width:8.64"/>
	<circle cx="1445.40" cy="952.53" r="14.97" style="fill:none;stroke:#606060;stroke-width:8.64"/>
	<circle cx="1462.35" cy="871.10" r="14.97" style="fill:none;stroke:#606060;stroke-width:8.64"/>
	<circle cx="1462.35" cy="1947.02" r="14.97" style="fill:none;stroke:#606060;stroke-width:8.64"/>
	<circle cx="1462.35" cy="1997.26" r="14.97" style="fill:none;stroke:#606060;stroke-width:8.64"/>
	<circle cx="1462.35" cy="1019.98" r="14.97" style="fill:none;stroke:#606060;stroke-width:8.64"/>
	<circle cx="1462.35" cy="1003.03" r="14.97" style="fill:none;stroke:#606060;stroke-width:8.64"/>
	<circle cx="1462.35" cy="1007.36" r="14.97" style="fill:none;stroke:#606060;stroke-width:8.64"/>
	<circle cx="1479.31" cy="744.87" r="14.97" style="fill:none;stroke:#606060;stroke-width:8.64"/>
	<circle cx="1496.14" cy="940.90" r="14.97" style="fill:none;stroke:#606060;stroke-width:8.64"/>
	<circle cx="1496.14" cy="1885.51" r="14.97" style="fill:none;stroke:#606060;stroke-width:8.64"/>
	<circle cx="1513.09" cy="879.02" r="14.97" style="fill:none;stroke:#606060;stroke-width:8.64"/>
	<circle cx="1546.88" cy="912.44" r="14.97" style="fill:none;stroke:#606060;stroke-width:8.64"/>
	<circle cx="1563.83" cy="939.54" r="14.97" style="fill:none;stroke:#606060;stroke-width:8.64"/>
	<circle cx="1580.66" cy="1026.91" r="14.97" style="fill:none;stroke:#606060;stroke-width:8.64"/>
	<circle cx="1597.61" cy="1934.15" r="14.97" style="fill:none;stroke:#606060;stroke-width:8.64"/>
	<circle cx="1597.61" cy="1101.78" r="14.97" style="fill:none;stroke:#606060;stroke-width:8.64"/>
	<circle cx="1597.61" cy="2089.21" r="14.97" style="fill:none;stroke:#606060;stroke-width:8.64"/>
	<circle cx="1614.57" cy="1062.30" r="14.97" style="fill:none;stroke:#606060;stroke-width:8.64"/>
	<circle cx="1631.40" cy="1278.38" r="14.97" style="fill:none;stroke:#606060;stroke-width:8.64"/>
	<circle cx="1648.35" cy="1012.93" r="14.97" style="fill:none;stroke:#606060;stroke-width:8.64"/>
	<circle cx="1648.35" cy="842.76" r="14.97" style="fill:none;stroke:#606060;stroke-width:8.64"/>
	<circle cx="1648.35" cy="1451.51" r="14.97" style="fill:none;stroke:#606060;stroke-width:8.64"/>
	<circle cx="1766.65" cy="848.70" r="14.97" style="fill:none;stroke:#606060;stroke-width:8.64"/>
	<circle cx="1766.65" cy="1019.11" r="14.97" style="fill:none;stroke:#606060;stroke-width:8.64"/>
	<circle cx="1817.39" cy="1004.39" r="14.97" style="fill:none;stroke:#606060;stroke-width:8.64"/>
	<circle cx="1834.35" cy="1538.14" r="14.97" style="fill:none;stroke:#606060;stroke-width:8.64"/>
	<circle cx="1834.35" cy="1538.01" r="14.97" style="fill:none;stroke:#606060;stroke-width:8.64"/>
	<circle cx="1834.35" cy="1002.41" r="14.97" style="fill:none;stroke:#606060;stroke-width:8.64"/>
	<circle cx="1868.13" cy="1594.57" r="14.97" style="fill:none;stroke:#606060;stroke-width:8.64"/>
	<circle cx="1868.13" cy="2076.22" r="14.97" style="fill:none;stroke:#606060;stroke-width:8.64"/>
	<circle cx="1885.08" cy="2149.85" r="14.97" style="fill:none;stroke:#606060;stroke-width:8.64"/>
	<circle cx="1885.08" cy="1096.95" r="14.97" style="fill:none;stroke:#606060;stroke-width:8.64"/>
	<circle cx="1952.65" cy="2084.51" r="14.97" style="fill:none;stroke:#606060;stroke-width:8.64"/>
	<circle cx="1969.61" cy="2120.28" r="14.97" style="fill:none;stroke:#606060;stroke-width:8.64"/>
	<circle cx="1969.61" cy="2008.40" r="14.97" style="fill:none;stroke:#606060;stroke-width:8.64"/>
	<circle cx="1986.43" cy="896.10" r="14.97" style="fill:none;stroke:#606060;stroke-width:8.64"/>
	<circle cx="2003.39" cy="1494.95" r="14.97" style="fill:none;stroke:#606060;stroke-width:8.64"/>
	<circle cx="2020.34" cy="1963.97" r="14.97" style="fill:none;stroke:#606060;stroke-width:8.64"/>
	<circle cx="2037.17" cy="1079.01" r="14.97" style="fill:none;stroke:#606060;stroke-width:8.64"/>
	<circle cx="2121.69" cy="999.68" r="14.97" style="fill:none;stroke:#606060;stroke-width:8.64"/>
	<circle cx="2138.65" cy="961.07" r="14.97" style="fill:none;stroke:#606060;stroke-width:8.64"/>
	<circle cx="2206.34" cy="969.98" r="14.97" style="fill:none;stroke:#606060;stroke-width:8.64"/>
	<circle cx="2257.08" cy="942.14" r="14.97" style="fill:none;stroke:#606060;stroke-width:8.64"/>
	<circle cx="2290.86" cy="978.15" r="14.97" style="fill:none;stroke:#606060;stroke-width:8.64"/>
	<circle cx="2307.69" cy="1896.90" r="14.97" style="fill:none;stroke:#606060;stroke-width:8.64"/>
	<circle cx="2392.34" cy="877.17" r="14.97" style="fill:none;stroke:#606060;stroke-width:8.64"/>
	<circle cx="2409.16" cy="980.87" r="14.97" style="fill:none;stroke:#606060;stroke-width:8.64"/>
	<circle cx="2442.95" cy="858.36" r="14.97" style="fill:none;stroke:#606060;stroke-width:8.64"/>
	<circle cx="2459.90" cy="1944.17" r="14.97" style="fill:none;stroke:#606060;stroke-width:8.64"/>
	<circle cx="2544.42" cy="1020.10" r="14.97" style="fill:none;stroke:#606060;stroke-width:8.64"/>
	<circle cx="2713.59" cy="1961.62" r="14.97" style="fill:none;stroke:#606060;stroke-width:8.64"/>
	<circle cx="2798.11" cy="836.45" r="14.97" style="fill:none;stroke:#606060;stroke-width:8.64"/>
	<circle cx="3372.93" cy="1559.67" r="14.97" style="fill:none;stroke:#606060;stroke-width:8.64"/>
	<circle cx="3474.41" cy="998.57" r="14.97" style="fill:none;stroke:#606060;stroke-width:8.64"/>
	<circle cx="3711.14" cy="1532.44" r="14.97" style="fill:none;stroke:#606060;stroke-width:8.64"/>
	<circle cx="3727.97" cy="898.58" r="14.97" style="fill:none;stroke:#606060;stroke-width:8.64"/>
	<circle cx="3744.92" cy="298.74" r="14.97" style="fill:none;stroke:#606060;stroke-width:8.64"/>
	<path d=" M701.41 1178.76 L769.11 1176.53 L786.06 1170.34 L802.89 1167.25 L819.84 1179.25 L836.80 1183.71 L836.80 1179.87 L853.63 1178.26 L853.63 1175.91 L870.58 1173.93 L870.58 1182.72 L870.58 1179.99 L870.58 1178.14 L870.58 1188.28 L870.58 1186.06 L887.41 1183.09 L887.41 1193.85 L887.41 1192.49 L904.37 1204.13 L904.37 1201.03 L921.32 1198.80 L938.15 1202.89 L938.15 1200.91 L938.15 1208.09 L938.15 1217.00 L955.10 1214.89 L955.10 1223.43 L955.10 1219.72 L972.06 1228.13 L972.06 1222.44 L972.06 1219.72 L972.06 1217.86 L972.06 1213.78 L972.06 1209.32 L988.89 1206.35 L988.89 1214.40 L1005.84 1220.71 L1005.84 1218.60 L1005.84 1221.57 L1005.84 1219.10 L1005.84 1216.01 L1005.84 1214.64 L1005.84 1213.90 L1022.67 1211.92 L1039.62 1208.83 L1039.62 1205.86 L1039.62 1203.14 L1039.62 1200.66 L1056.58 1199.05 L1056.58 1205.24 L1056.58 1203.63 L1056.58 1206.97 L1056.58 1208.70 L1056.58 1206.85 L1073.41 1213.78 L1073.41 1211.67 L1073.41 1209.08 L1073.41 1214.77 L1073.41 1220.71 L1073.41 1219.10 L1090.36 1217.49 L1090.36 1216.01 L1090.36 1212.54 L1090.36 1210.56 L1107.32 1215.39 L1107.32 1213.04 L1124.14 1210.81 L1141.10 1208.95 L1141.10 1207.59 L1141.10 1212.66 L1141.10 1211.92 L1158.05 1217.99 L1174.88 1217.00 L1174.88 1217.37 L1191.84 1218.85 L1191.84 1217.74 L1191.84 1213.41 L1191.84 1213.28 L1208.67 1212.91 L1208.67 1213.53 L1208.67 1218.60 L1208.67 1222.19 L1208.67 1222.19 L1225.62 1229.37 L1225.62 1237.17 L1242.57 1238.78 L1242.57 1239.27 L1242.57 1245.46 L1242.57 1253.26 L1259.40 1260.80 L1259.40 1260.43 L1276.36 1257.96 L1276.36 1265.14 L1276.36 1264.89 L1276.36 1264.89 L1276.36 1263.65 L1293.31 1262.91 L1293.31 1255.24 L1293.31 1247.56 L1293.31 1253.50 L1293.31 1246.45 L1293.31 1246.20 L1293.31 1246.33 L1310.14 1253.75 L1310.14 1253.38 L1327.10 1252.51 L1360.88 1244.47 L1360.88 1241.75 L1360.88 1241.99 L1360.88 1245.34 L1377.83 1245.21 L1377.83 1233.95 L1377.83 1229.25 L1377.83 1232.09 L1394.66 1233.21 L1411.62 1227.64 L1411.62 1222.94 L1411.62 1224.17 L1411.62 1226.40 L1411.62 1227.89 L1428.57 1229.74 L1428.57 1231.85 L1428.57 1233.08 L1428.57 1233.95 L1428.57 1237.66 L1445.40 1239.27 L1445.40 1241.00 L1445.40 1244.59 L1445.40 1247.19 L1462.35 1241.99 L1462.35 1244.22 L1462.35 1247.93 L1462.35 1251.40 L1462.35 1253.01 L1462.35 1255.73 L1479.31 1248.92 L1496.14 1251.28 L1496.14 1253.26 L1513.09 1255.61 L1546.88 1257.71 L1563.83 1260.06 L1580.66 1262.29 L1597.61 1265.51 L1597.61 1267.24 L1597.61 1270.09 L1614.57 1273.80 L1631.40 1275.04 L1648.35 1270.83 L1648.35 1273.18 L1648.35 1278.38 L1766.65 1281.60 L1766.65 1273.92 L1817.39 1271.45 L1834.35 1275.28 L1834.35 1277.39 L1834.35 1280.23 L1868.13 1282.83 L1868.13 1276.64 L1885.08 1279.86 L1885.08 1282.59 L1952.65 1274.66 L1969.61 1277.51 L1969.61 1281.10 L1986.43 1272.07 L2003.39 1274.17 L2020.34 1263.53 L2037.17 1267.24 L2121.69 1270.33 L2138.65 1266.87 L2206.34 1269.59 L2257.08 1262.54 L2290.86 1253.13 L2307.69 1255.98 L2392.34 1246.45 L2409.16 1251.15 L2442.95 1241.13 L2459.90 1248.55 L2544.42 1252.39 L2713.59 1255.11 L2798.11 1261.18 L3372.93 1267.86 L3474.41 1272.81 L3711.14 1262.17 L3727.97 1253.50 L3744.92 1256.97" stroke-linejoin="round" style="fill:none;stroke:#000000;stroke-width:8.64"/>
	<line x1="350.71" y1="2414.69" x2="350.71" y2="235.38" style="stroke:#000000;stroke-width:5.76"/>
	<line x1="350.71" y1="2351.32" x2="310.74" y2="2351.32" style="stroke:#000000;stroke-width:5.76"/>
	<text x="266.64" y="2351.32" style="font-family:'Helvetica';font-size:79.94px;fill:#000000" transform="rotate(-90 266.64,2351.32)" text-anchor="middle">-6</text>
	<line x1="350.71" y1="1954.20" x2="310.74" y2="1954.20" style="stroke:#000000;stroke-width:5.76"/>
	<text x="266.64" y="1954.20" style="font-family:'Helvetica';font-size:79.94px;fill:#000000" transform="rotate(-90 266.64,1954.20)" text-anchor="middle">-4</text>
	<line x1="350.71" y1="1557.07" x2="310.74" y2="1557.07" style="stroke:#000000;stroke-width:5.76"/>
	<text x="266.64" y="1557.07" style="font-family:'Helvetica';font-size:79.94px;fill:#000000" transform="rotate(-90 266.64,1557.07)" text-anchor="middle">-2</text>
	<line x1="350.71" y1="1160.07" x2="310.74" y2="1160.07" style="stroke:#000000;stroke-width:5.76"/>
	<text x="266.64" y="1160.07" style="font-family:'Helvetica';font-size:79.94px;fill:#000000" transform="rotate(-90 266.64,1160.07)" text-anchor="middle">0</text>
	<line x1="350.71" y1="762.94" x2="310.74" y2="762.94" style="stroke:#000000;stroke-width:5.76"/>
	<text x="266.64" y="762.94" style="font-family:'Helvetica';font-size:79.94px;fill:#000000" transform="rotate(-90 266.64,762.94)" text-anchor="middle">2</text>
	<line x1="350.71" y1="365.82" x2="310.74" y2="365.82" style="stroke:#000000;stroke-width:5.76"/>
	<text x="266.64" y="365.82" style="font-family:'Helvetica';font-size:79.94px;fill:#000000" transform="rotate(-90 266.64,365.82)" text-anchor="middle">4</text>
	<text x="176.68" y="1325.03" style="font-family:'Helvetica';font-size:79.94px;fill:#000000" transform="rotate(-90 176.68,1325.03)" text-anchor="middle">Scaled Schoenfeld Residuals</text>
	<line x1="350.71" y1="2414.69" x2="3859.02" y2="2414.69" style="stroke:#000000;stroke-width:5.76"/>
	<line x1="414.07" y1="2414.69" x2="414.07" y2="2454.66" style="stroke:#000000;stroke-width:5.76"/>
	<text x="414.07" y="2530.61" style="font-family:'Helvetica';font-size:79.94px;fill:#000000" text-anchor="middle">0</text>
	<line x1="1259.53" y1="2414.69" x2="1259.53" y2="2454.66" style="stroke:#000000;stroke-width:5.76"/>
	<text x="1259.53" y="2530.61" style="font-family:'Helvetica';font-size:79.94px;fill:#000000" text-anchor="middle">50</text>
	<line x1="2104.86" y1="2414.69" x2="2104.86" y2="2454.66" style="stroke:#000000;stroke-width:5.76"/>
	<text x="2104.86" y="2530.61" style="font-family:'Helvetica';font-size:79.94px;fill:#000000" text-anchor="middle">100</text>
	<line x1="2950.32" y1="2414.69" x2="2950.32" y2="2454.66" style="stroke:#000000;stroke-width:5.76"/>
	<text x="2950.32" y="2530.61" style="font-family:'Helvetica';font-size:79.94px;fill:#000000" text-anchor="middle">150</text>
	<line x1="3795.66" y1="2414.69" x2="3795.66" y2="2454.66" style="stroke:#000000;stroke-width:5.76"/>
	<text x="3795.66" y="2530.61" style="font-family:'Helvetica';font-size:79.94px;fill:#000000" text-anchor="middle">200</text>
	<text x="2104.86" y="2620.57" style="font-family:'Helvetica';font-size:79.94px;fill:#000000" text-anchor="middle">Time</text>
	<text x="368.03" y="2737.89" style="font-family:'Helvetica';font-size:79.94px;fill:#000000">bandwidth = .8</text>
	<text x="368.03" y="187.99" style="font-family:'Helvetica';font-size:99.99px;fill:#000000">Schoenfeld residuals against time, DAG adjusted</text>
</svg>
