<?xml version="1.0" encoding="UTF-8" standalone="no"?>
<!-- This is a Stata 16.1 generated SVG file (http://www.stata.com) -->

<svg version="1.1" width="5.50in" height="4.00in" viewBox="0 0 3960 2880" xmlns="http://www.w3.org/2000/svg" xmlns:xlink="http://www.w3.org/1999/xlink">
	<desc>Stata Graph - Graph</desc>
	<rect x="0" y="0" width="3960" height="2880" style="fill:#FFFFFF;stroke:none"/>
	<rect x="0.00" y="0.00" width="3959.88" height="2880.00" style="fill:#FFFFFF"/>
	<rect x="2.88" y="2.88" width="3954.12" height="2874.24" style="fill:none;stroke:#FFFFFF;stroke-width:5.76"/>
	<rect x="353.59" y="238.26" width="3502.55" height="2173.55" style="fill:none;stroke:#000000;stroke-width:5.76"/>
	<circle cx="590.29" cy="298.74" r="14.97" style="fill:none;stroke:#606060;stroke-width:8.64"/>
	<circle cx="638.43" cy="2172.99" r="14.97" style="fill:none;stroke:#606060;stroke-width:8.64"/>
	<circle cx="654.39" cy="298.99" r="14.97" style="fill:none;stroke:#606060;stroke-width:8.64"/>
	<circle cx="670.48" cy="298.99" r="14.97" style="fill:none;stroke:#606060;stroke-width:8.64"/>
	<circle cx="686.44" cy="298.99" r="14.97" style="fill:none;stroke:#606060;stroke-width:8.64"/>
	<circle cx="686.44" cy="298.99" r="14.97" style="fill:none;stroke:#606060;stroke-width:8.64"/>
	<circle cx="686.44" cy="298.99" r="14.97" style="fill:none;stroke:#606060;stroke-width:8.64"/>
	<circle cx="686.44" cy="298.99" r="14.97" style="fill:none;stroke:#606060;stroke-width:8.64"/>
	<circle cx="702.53" cy="298.87" r="14.97" style="fill:none;stroke:#606060;stroke-width:8.64"/>
	<circle cx="702.53" cy="298.87" r="14.97" style="fill:none;stroke:#606060;stroke-width:8.64"/>
	<circle cx="702.53" cy="298.87" r="14.97" style="fill:none;stroke:#606060;stroke-width:8.64"/>
	<circle cx="718.49" cy="298.99" r="14.97" style="fill:none;stroke:#606060;stroke-width:8.64"/>
	<circle cx="718.49" cy="298.99" r="14.97" style="fill:none;stroke:#606060;stroke-width:8.64"/>
	<circle cx="734.58" cy="298.99" r="14.97" style="fill:none;stroke:#606060;stroke-width:8.64"/>
	<circle cx="750.54" cy="298.99" r="14.97" style="fill:none;stroke:#606060;stroke-width:8.64"/>
	<circle cx="750.54" cy="2172.99" r="14.97" style="fill:none;stroke:#606060;stroke-width:8.64"/>
	<circle cx="750.54" cy="2172.99" r="14.97" style="fill:none;stroke:#606060;stroke-width:8.64"/>
	<circle cx="750.54" cy="298.99" r="14.97" style="fill:none;stroke:#606060;stroke-width:8.64"/>
	<circle cx="750.54" cy="2172.99" r="14.97" style="fill:none;stroke:#606060;stroke-width:8.64"/>
	<circle cx="766.63" cy="299.11" r="14.97" style="fill:none;stroke:#606060;stroke-width:8.64"/>
	<circle cx="766.63" cy="299.11" r="14.97" style="fill:none;stroke:#606060;stroke-width:8.64"/>
	<circle cx="766.63" cy="299.11" r="14.97" style="fill:none;stroke:#606060;stroke-width:8.64"/>
	<circle cx="766.63" cy="2173.12" r="14.97" style="fill:none;stroke:#606060;stroke-width:8.64"/>
	<circle cx="782.60" cy="299.11" r="14.97" style="fill:none;stroke:#606060;stroke-width:8.64"/>
	<circle cx="782.60" cy="2173.12" r="14.97" style="fill:none;stroke:#606060;stroke-width:8.64"/>
	<circle cx="798.68" cy="299.11" r="14.97" style="fill:none;stroke:#606060;stroke-width:8.64"/>
	<circle cx="798.68" cy="299.11" r="14.97" style="fill:none;stroke:#606060;stroke-width:8.64"/>
	<circle cx="798.68" cy="299.11" r="14.97" style="fill:none;stroke:#606060;stroke-width:8.64"/>
	<circle cx="798.68" cy="299.11" r="14.97" style="fill:none;stroke:#606060;stroke-width:8.64"/>
	<circle cx="798.68" cy="299.11" r="14.97" style="fill:none;stroke:#606060;stroke-width:8.64"/>
	<circle cx="798.68" cy="2173.12" r="14.97" style="fill:none;stroke:#606060;stroke-width:8.64"/>
	<circle cx="814.65" cy="298.99" r="14.97" style="fill:none;stroke:#606060;stroke-width:8.64"/>
	<circle cx="814.65" cy="298.99" r="14.97" style="fill:none;stroke:#606060;stroke-width:8.64"/>
	<circle cx="814.65" cy="298.99" r="14.97" style="fill:none;stroke:#606060;stroke-width:8.64"/>
	<circle cx="814.65" cy="2173.12" r="14.97" style="fill:none;stroke:#606060;stroke-width:8.64"/>
	<circle cx="814.65" cy="2173.12" r="14.97" style="fill:none;stroke:#606060;stroke-width:8.64"/>
	<circle cx="814.65" cy="298.99" r="14.97" style="fill:none;stroke:#606060;stroke-width:8.64"/>
	<circle cx="830.73" cy="298.99" r="14.97" style="fill:none;stroke:#606060;stroke-width:8.64"/>
	<circle cx="830.73" cy="298.99" r="14.97" style="fill:none;stroke:#606060;stroke-width:8.64"/>
	<circle cx="830.73" cy="298.99" r="14.97" style="fill:none;stroke:#606060;stroke-width:8.64"/>
	<circle cx="846.70" cy="2172.99" r="14.97" style="fill:none;stroke:#606060;stroke-width:8.64"/>
	<circle cx="846.70" cy="298.99" r="14.97" style="fill:none;stroke:#606060;stroke-width:8.64"/>
	<circle cx="846.70" cy="298.99" r="14.97" style="fill:none;stroke:#606060;stroke-width:8.64"/>
	<circle cx="862.78" cy="2173.12" r="14.97" style="fill:none;stroke:#606060;stroke-width:8.64"/>
	<circle cx="862.78" cy="299.11" r="14.97" style="fill:none;stroke:#606060;stroke-width:8.64"/>
	<circle cx="862.78" cy="299.11" r="14.97" style="fill:none;stroke:#606060;stroke-width:8.64"/>
	<circle cx="862.78" cy="2173.12" r="14.97" style="fill:none;stroke:#606060;stroke-width:8.64"/>
	<circle cx="878.75" cy="299.11" r="14.97" style="fill:none;stroke:#606060;stroke-width:8.64"/>
	<circle cx="878.75" cy="2173.24" r="14.97" style="fill:none;stroke:#606060;stroke-width:8.64"/>
	<circle cx="878.75" cy="299.11" r="14.97" style="fill:none;stroke:#606060;stroke-width:8.64"/>
	<circle cx="878.75" cy="2173.24" r="14.97" style="fill:none;stroke:#606060;stroke-width:8.64"/>
	<circle cx="894.84" cy="299.24" r="14.97" style="fill:none;stroke:#606060;stroke-width:8.64"/>
	<circle cx="894.84" cy="2173.37" r="14.97" style="fill:none;stroke:#606060;stroke-width:8.64"/>
	<circle cx="894.84" cy="299.24" r="14.97" style="fill:none;stroke:#606060;stroke-width:8.64"/>
	<circle cx="894.84" cy="299.24" r="14.97" style="fill:none;stroke:#606060;stroke-width:8.64"/>
	<circle cx="894.84" cy="299.24" r="14.97" style="fill:none;stroke:#606060;stroke-width:8.64"/>
	<circle cx="894.84" cy="299.24" r="14.97" style="fill:none;stroke:#606060;stroke-width:8.64"/>
	<circle cx="894.84" cy="299.24" r="14.97" style="fill:none;stroke:#606060;stroke-width:8.64"/>
	<circle cx="894.84" cy="299.24" r="14.97" style="fill:none;stroke:#606060;stroke-width:8.64"/>
	<circle cx="894.84" cy="299.24" r="14.97" style="fill:none;stroke:#606060;stroke-width:8.64"/>
	<circle cx="910.80" cy="299.24" r="14.97" style="fill:none;stroke:#606060;stroke-width:8.64"/>
	<circle cx="910.80" cy="2173.37" r="14.97" style="fill:none;stroke:#606060;stroke-width:8.64"/>
	<circle cx="910.80" cy="299.24" r="14.97" style="fill:none;stroke:#606060;stroke-width:8.64"/>
	<circle cx="910.80" cy="299.24" r="14.97" style="fill:none;stroke:#606060;stroke-width:8.64"/>
	<circle cx="910.80" cy="299.24" r="14.97" style="fill:none;stroke:#606060;stroke-width:8.64"/>
	<circle cx="910.80" cy="299.24" r="14.97" style="fill:none;stroke:#606060;stroke-width:8.64"/>
	<circle cx="910.80" cy="2173.37" r="14.97" style="fill:none;stroke:#606060;stroke-width:8.64"/>
	<circle cx="910.80" cy="299.24" r="14.97" style="fill:none;stroke:#606060;stroke-width:8.64"/>
	<circle cx="910.80" cy="2173.37" r="14.97" style="fill:none;stroke:#606060;stroke-width:8.64"/>
	<circle cx="910.80" cy="2173.37" r="14.97" style="fill:none;stroke:#606060;stroke-width:8.64"/>
	<circle cx="926.89" cy="299.36" r="14.97" style="fill:none;stroke:#606060;stroke-width:8.64"/>
	<circle cx="926.89" cy="299.36" r="14.97" style="fill:none;stroke:#606060;stroke-width:8.64"/>
	<circle cx="926.89" cy="2173.37" r="14.97" style="fill:none;stroke:#606060;stroke-width:8.64"/>
	<circle cx="926.89" cy="299.36" r="14.97" style="fill:none;stroke:#606060;stroke-width:8.64"/>
	<circle cx="926.89" cy="299.36" r="14.97" style="fill:none;stroke:#606060;stroke-width:8.64"/>
	<circle cx="926.89" cy="299.36" r="14.97" style="fill:none;stroke:#606060;stroke-width:8.64"/>
	<circle cx="942.98" cy="299.36" r="14.97" style="fill:none;stroke:#606060;stroke-width:8.64"/>
	<circle cx="942.98" cy="299.36" r="14.97" style="fill:none;stroke:#606060;stroke-width:8.64"/>
	<circle cx="942.98" cy="299.36" r="14.97" style="fill:none;stroke:#606060;stroke-width:8.64"/>
	<circle cx="942.98" cy="2173.37" r="14.97" style="fill:none;stroke:#606060;stroke-width:8.64"/>
	<circle cx="942.98" cy="2173.37" r="14.97" style="fill:none;stroke:#606060;stroke-width:8.64"/>
	<circle cx="942.98" cy="2173.37" r="14.97" style="fill:none;stroke:#606060;stroke-width:8.64"/>
	<circle cx="942.98" cy="299.36" r="14.97" style="fill:none;stroke:#606060;stroke-width:8.64"/>
	<circle cx="942.98" cy="299.36" r="14.97" style="fill:none;stroke:#606060;stroke-width:8.64"/>
	<circle cx="942.98" cy="299.36" r="14.97" style="fill:none;stroke:#606060;stroke-width:8.64"/>
	<circle cx="942.98" cy="2173.37" r="14.97" style="fill:none;stroke:#606060;stroke-width:8.64"/>
	<circle cx="958.94" cy="2173.49" r="14.97" style="fill:none;stroke:#606060;stroke-width:8.64"/>
	<circle cx="958.94" cy="2173.49" r="14.97" style="fill:none;stroke:#606060;stroke-width:8.64"/>
	<circle cx="958.94" cy="299.48" r="14.97" style="fill:none;stroke:#606060;stroke-width:8.64"/>
	<circle cx="975.03" cy="299.61" r="14.97" style="fill:none;stroke:#606060;stroke-width:8.64"/>
	<circle cx="975.03" cy="2173.61" r="14.97" style="fill:none;stroke:#606060;stroke-width:8.64"/>
	<circle cx="975.03" cy="299.61" r="14.97" style="fill:none;stroke:#606060;stroke-width:8.64"/>
	<circle cx="990.99" cy="2173.61" r="14.97" style="fill:none;stroke:#606060;stroke-width:8.64"/>
	<circle cx="990.99" cy="299.61" r="14.97" style="fill:none;stroke:#606060;stroke-width:8.64"/>
	<circle cx="990.99" cy="2173.61" r="14.97" style="fill:none;stroke:#606060;stroke-width:8.64"/>
	<circle cx="990.99" cy="299.61" r="14.97" style="fill:none;stroke:#606060;stroke-width:8.64"/>
	<circle cx="990.99" cy="2173.61" r="14.97" style="fill:none;stroke:#606060;stroke-width:8.64"/>
	<circle cx="990.99" cy="299.61" r="14.97" style="fill:none;stroke:#606060;stroke-width:8.64"/>
	<circle cx="990.99" cy="299.61" r="14.97" style="fill:none;stroke:#606060;stroke-width:8.64"/>
	<circle cx="990.99" cy="299.61" r="14.97" style="fill:none;stroke:#606060;stroke-width:8.64"/>
	<circle cx="1007.08" cy="299.73" r="14.97" style="fill:none;stroke:#606060;stroke-width:8.64"/>
	<circle cx="1007.08" cy="299.73" r="14.97" style="fill:none;stroke:#606060;stroke-width:8.64"/>
	<circle cx="1007.08" cy="299.73" r="14.97" style="fill:none;stroke:#606060;stroke-width:8.64"/>
	<circle cx="1007.08" cy="299.73" r="14.97" style="fill:none;stroke:#606060;stroke-width:8.64"/>
	<circle cx="1023.04" cy="2173.74" r="14.97" style="fill:none;stroke:#606060;stroke-width:8.64"/>
	<circle cx="1023.04" cy="299.73" r="14.97" style="fill:none;stroke:#606060;stroke-width:8.64"/>
	<circle cx="1023.04" cy="299.73" r="14.97" style="fill:none;stroke:#606060;stroke-width:8.64"/>
	<circle cx="1023.04" cy="299.73" r="14.97" style="fill:none;stroke:#606060;stroke-width:8.64"/>
	<circle cx="1023.04" cy="299.73" r="14.97" style="fill:none;stroke:#606060;stroke-width:8.64"/>
	<circle cx="1023.04" cy="299.73" r="14.97" style="fill:none;stroke:#606060;stroke-width:8.64"/>
	<circle cx="1039.13" cy="299.61" r="14.97" style="fill:none;stroke:#606060;stroke-width:8.64"/>
	<circle cx="1039.13" cy="299.61" r="14.97" style="fill:none;stroke:#606060;stroke-width:8.64"/>
	<circle cx="1039.13" cy="2173.61" r="14.97" style="fill:none;stroke:#606060;stroke-width:8.64"/>
	<circle cx="1039.13" cy="299.61" r="14.97" style="fill:none;stroke:#606060;stroke-width:8.64"/>
	<circle cx="1039.13" cy="299.61" r="14.97" style="fill:none;stroke:#606060;stroke-width:8.64"/>
	<circle cx="1039.13" cy="299.61" r="14.97" style="fill:none;stroke:#606060;stroke-width:8.64"/>
	<circle cx="1039.13" cy="2173.61" r="14.97" style="fill:none;stroke:#606060;stroke-width:8.64"/>
	<circle cx="1039.13" cy="2173.61" r="14.97" style="fill:none;stroke:#606060;stroke-width:8.64"/>
	<circle cx="1055.09" cy="299.61" r="14.97" style="fill:none;stroke:#606060;stroke-width:8.64"/>
	<circle cx="1055.09" cy="299.61" r="14.97" style="fill:none;stroke:#606060;stroke-width:8.64"/>
	<circle cx="1055.09" cy="299.61" r="14.97" style="fill:none;stroke:#606060;stroke-width:8.64"/>
	<circle cx="1055.09" cy="299.61" r="14.97" style="fill:none;stroke:#606060;stroke-width:8.64"/>
	<circle cx="1055.09" cy="299.61" r="14.97" style="fill:none;stroke:#606060;stroke-width:8.64"/>
	<circle cx="1071.18" cy="299.61" r="14.97" style="fill:none;stroke:#606060;stroke-width:8.64"/>
	<circle cx="1071.18" cy="2173.74" r="14.97" style="fill:none;stroke:#606060;stroke-width:8.64"/>
	<circle cx="1071.18" cy="299.61" r="14.97" style="fill:none;stroke:#606060;stroke-width:8.64"/>
	<circle cx="1087.14" cy="299.73" r="14.97" style="fill:none;stroke:#606060;stroke-width:8.64"/>
	<circle cx="1087.14" cy="299.73" r="14.97" style="fill:none;stroke:#606060;stroke-width:8.64"/>
	<circle cx="1087.14" cy="299.73" r="14.97" style="fill:none;stroke:#606060;stroke-width:8.64"/>
	<circle cx="1087.14" cy="2173.74" r="14.97" style="fill:none;stroke:#606060;stroke-width:8.64"/>
	<circle cx="1103.23" cy="2173.86" r="14.97" style="fill:none;stroke:#606060;stroke-width:8.64"/>
	<circle cx="1103.23" cy="299.73" r="14.97" style="fill:none;stroke:#606060;stroke-width:8.64"/>
	<circle cx="1103.23" cy="2173.86" r="14.97" style="fill:none;stroke:#606060;stroke-width:8.64"/>
	<circle cx="1103.23" cy="2173.86" r="14.97" style="fill:none;stroke:#606060;stroke-width:8.64"/>
	<circle cx="1103.23" cy="299.73" r="14.97" style="fill:none;stroke:#606060;stroke-width:8.64"/>
	<circle cx="1119.19" cy="299.86" r="14.97" style="fill:none;stroke:#606060;stroke-width:8.64"/>
	<circle cx="1119.19" cy="299.86" r="14.97" style="fill:none;stroke:#606060;stroke-width:8.64"/>
	<circle cx="1135.28" cy="2173.74" r="14.97" style="fill:none;stroke:#606060;stroke-width:8.64"/>
	<circle cx="1135.28" cy="299.73" r="14.97" style="fill:none;stroke:#606060;stroke-width:8.64"/>
	<circle cx="1135.28" cy="299.73" r="14.97" style="fill:none;stroke:#606060;stroke-width:8.64"/>
	<circle cx="1135.28" cy="299.73" r="14.97" style="fill:none;stroke:#606060;stroke-width:8.64"/>
	<circle cx="1135.28" cy="2173.74" r="14.97" style="fill:none;stroke:#606060;stroke-width:8.64"/>
	<circle cx="1151.25" cy="299.73" r="14.97" style="fill:none;stroke:#606060;stroke-width:8.64"/>
	<circle cx="1151.25" cy="2173.86" r="14.97" style="fill:none;stroke:#606060;stroke-width:8.64"/>
	<circle cx="1151.25" cy="299.73" r="14.97" style="fill:none;stroke:#606060;stroke-width:8.64"/>
	<circle cx="1151.25" cy="2173.86" r="14.97" style="fill:none;stroke:#606060;stroke-width:8.64"/>
	<circle cx="1151.25" cy="299.73" r="14.97" style="fill:none;stroke:#606060;stroke-width:8.64"/>
	<circle cx="1151.25" cy="299.73" r="14.97" style="fill:none;stroke:#606060;stroke-width:8.64"/>
	<circle cx="1167.33" cy="299.98" r="14.97" style="fill:none;stroke:#606060;stroke-width:8.64"/>
	<circle cx="1167.33" cy="2173.98" r="14.97" style="fill:none;stroke:#606060;stroke-width:8.64"/>
	<circle cx="1167.33" cy="299.98" r="14.97" style="fill:none;stroke:#606060;stroke-width:8.64"/>
	<circle cx="1167.33" cy="2173.98" r="14.97" style="fill:none;stroke:#606060;stroke-width:8.64"/>
	<circle cx="1167.33" cy="299.98" r="14.97" style="fill:none;stroke:#606060;stroke-width:8.64"/>
	<circle cx="1167.33" cy="2173.98" r="14.97" style="fill:none;stroke:#606060;stroke-width:8.64"/>
	<circle cx="1167.33" cy="299.98" r="14.97" style="fill:none;stroke:#606060;stroke-width:8.64"/>
	<circle cx="1183.30" cy="2173.98" r="14.97" style="fill:none;stroke:#606060;stroke-width:8.64"/>
	<circle cx="1183.30" cy="2173.98" r="14.97" style="fill:none;stroke:#606060;stroke-width:8.64"/>
	<circle cx="1183.30" cy="299.98" r="14.97" style="fill:none;stroke:#606060;stroke-width:8.64"/>
	<circle cx="1183.30" cy="299.98" r="14.97" style="fill:none;stroke:#606060;stroke-width:8.64"/>
	<circle cx="1199.38" cy="2174.11" r="14.97" style="fill:none;stroke:#606060;stroke-width:8.64"/>
	<circle cx="1199.38" cy="2174.11" r="14.97" style="fill:none;stroke:#606060;stroke-width:8.64"/>
	<circle cx="1199.38" cy="299.98" r="14.97" style="fill:none;stroke:#606060;stroke-width:8.64"/>
	<circle cx="1215.35" cy="300.10" r="14.97" style="fill:none;stroke:#606060;stroke-width:8.64"/>
	<circle cx="1215.35" cy="300.10" r="14.97" style="fill:none;stroke:#606060;stroke-width:8.64"/>
	<circle cx="1215.35" cy="300.10" r="14.97" style="fill:none;stroke:#606060;stroke-width:8.64"/>
	<circle cx="1215.35" cy="300.10" r="14.97" style="fill:none;stroke:#606060;stroke-width:8.64"/>
	<circle cx="1231.44" cy="2174.11" r="14.97" style="fill:none;stroke:#606060;stroke-width:8.64"/>
	<circle cx="1231.44" cy="300.10" r="14.97" style="fill:none;stroke:#606060;stroke-width:8.64"/>
	<circle cx="1231.44" cy="2174.11" r="14.97" style="fill:none;stroke:#606060;stroke-width:8.64"/>
	<circle cx="1231.44" cy="300.10" r="14.97" style="fill:none;stroke:#606060;stroke-width:8.64"/>
	<circle cx="1247.40" cy="300.23" r="14.97" style="fill:none;stroke:#606060;stroke-width:8.64"/>
	<circle cx="1247.40" cy="2174.23" r="14.97" style="fill:none;stroke:#606060;stroke-width:8.64"/>
	<circle cx="1247.40" cy="300.23" r="14.97" style="fill:none;stroke:#606060;stroke-width:8.64"/>
	<circle cx="1247.40" cy="300.23" r="14.97" style="fill:none;stroke:#606060;stroke-width:8.64"/>
	<circle cx="1263.49" cy="2174.23" r="14.97" style="fill:none;stroke:#606060;stroke-width:8.64"/>
	<circle cx="1263.49" cy="300.23" r="14.97" style="fill:none;stroke:#606060;stroke-width:8.64"/>
	<circle cx="1279.45" cy="300.23" r="14.97" style="fill:none;stroke:#606060;stroke-width:8.64"/>
	<circle cx="1279.45" cy="2174.23" r="14.97" style="fill:none;stroke:#606060;stroke-width:8.64"/>
	<circle cx="1279.45" cy="300.23" r="14.97" style="fill:none;stroke:#606060;stroke-width:8.64"/>
	<circle cx="1279.45" cy="300.23" r="14.97" style="fill:none;stroke:#606060;stroke-width:8.64"/>
	<circle cx="1279.45" cy="300.23" r="14.97" style="fill:none;stroke:#606060;stroke-width:8.64"/>
	<circle cx="1295.54" cy="300.23" r="14.97" style="fill:none;stroke:#606060;stroke-width:8.64"/>
	<circle cx="1311.50" cy="300.23" r="14.97" style="fill:none;stroke:#606060;stroke-width:8.64"/>
	<circle cx="1311.50" cy="300.23" r="14.97" style="fill:none;stroke:#606060;stroke-width:8.64"/>
	<circle cx="1311.50" cy="300.23" r="14.97" style="fill:none;stroke:#606060;stroke-width:8.64"/>
	<circle cx="1327.59" cy="300.23" r="14.97" style="fill:none;stroke:#606060;stroke-width:8.64"/>
	<circle cx="1327.59" cy="300.23" r="14.97" style="fill:none;stroke:#606060;stroke-width:8.64"/>
	<circle cx="1327.59" cy="300.23" r="14.97" style="fill:none;stroke:#606060;stroke-width:8.64"/>
	<circle cx="1327.59" cy="300.23" r="14.97" style="fill:none;stroke:#606060;stroke-width:8.64"/>
	<circle cx="1327.59" cy="2174.23" r="14.97" style="fill:none;stroke:#606060;stroke-width:8.64"/>
	<circle cx="1327.59" cy="2174.23" r="14.97" style="fill:none;stroke:#606060;stroke-width:8.64"/>
	<circle cx="1327.59" cy="300.23" r="14.97" style="fill:none;stroke:#606060;stroke-width:8.64"/>
	<circle cx="1343.55" cy="2174.36" r="14.97" style="fill:none;stroke:#606060;stroke-width:8.64"/>
	<circle cx="1343.55" cy="300.23" r="14.97" style="fill:none;stroke:#606060;stroke-width:8.64"/>
	<circle cx="1343.55" cy="2174.36" r="14.97" style="fill:none;stroke:#606060;stroke-width:8.64"/>
	<circle cx="1343.55" cy="300.23" r="14.97" style="fill:none;stroke:#606060;stroke-width:8.64"/>
	<circle cx="1343.55" cy="300.23" r="14.97" style="fill:none;stroke:#606060;stroke-width:8.64"/>
	<circle cx="1343.55" cy="2174.36" r="14.97" style="fill:none;stroke:#606060;stroke-width:8.64"/>
	<circle cx="1343.55" cy="300.23" r="14.97" style="fill:none;stroke:#606060;stroke-width:8.64"/>
	<circle cx="1359.64" cy="300.35" r="14.97" style="fill:none;stroke:#606060;stroke-width:8.64"/>
	<circle cx="1359.64" cy="300.35" r="14.97" style="fill:none;stroke:#606060;stroke-width:8.64"/>
	<circle cx="1359.64" cy="300.35" r="14.97" style="fill:none;stroke:#606060;stroke-width:8.64"/>
	<circle cx="1359.64" cy="2174.36" r="14.97" style="fill:none;stroke:#606060;stroke-width:8.64"/>
	<circle cx="1375.61" cy="300.35" r="14.97" style="fill:none;stroke:#606060;stroke-width:8.64"/>
	<circle cx="1375.61" cy="300.35" r="14.97" style="fill:none;stroke:#606060;stroke-width:8.64"/>
	<circle cx="1391.69" cy="300.35" r="14.97" style="fill:none;stroke:#606060;stroke-width:8.64"/>
	<circle cx="1391.69" cy="300.35" r="14.97" style="fill:none;stroke:#606060;stroke-width:8.64"/>
	<circle cx="1391.69" cy="300.35" r="14.97" style="fill:none;stroke:#606060;stroke-width:8.64"/>
	<circle cx="1391.69" cy="300.35" r="14.97" style="fill:none;stroke:#606060;stroke-width:8.64"/>
	<circle cx="1391.69" cy="300.35" r="14.97" style="fill:none;stroke:#606060;stroke-width:8.64"/>
	<circle cx="1391.69" cy="300.35" r="14.97" style="fill:none;stroke:#606060;stroke-width:8.64"/>
	<circle cx="1407.66" cy="300.35" r="14.97" style="fill:none;stroke:#606060;stroke-width:8.64"/>
	<circle cx="1407.66" cy="300.35" r="14.97" style="fill:none;stroke:#606060;stroke-width:8.64"/>
	<circle cx="1407.66" cy="300.35" r="14.97" style="fill:none;stroke:#606060;stroke-width:8.64"/>
	<circle cx="1423.74" cy="300.35" r="14.97" style="fill:none;stroke:#606060;stroke-width:8.64"/>
	<circle cx="1423.74" cy="2174.48" r="14.97" style="fill:none;stroke:#606060;stroke-width:8.64"/>
	<circle cx="1455.80" cy="2174.48" r="14.97" style="fill:none;stroke:#606060;stroke-width:8.64"/>
	<circle cx="1455.80" cy="300.47" r="14.97" style="fill:none;stroke:#606060;stroke-width:8.64"/>
	<circle cx="1455.80" cy="300.47" r="14.97" style="fill:none;stroke:#606060;stroke-width:8.64"/>
	<circle cx="1471.76" cy="2174.60" r="14.97" style="fill:none;stroke:#606060;stroke-width:8.64"/>
	<circle cx="1471.76" cy="2174.60" r="14.97" style="fill:none;stroke:#606060;stroke-width:8.64"/>
	<circle cx="1471.76" cy="300.47" r="14.97" style="fill:none;stroke:#606060;stroke-width:8.64"/>
	<circle cx="1487.85" cy="300.47" r="14.97" style="fill:none;stroke:#606060;stroke-width:8.64"/>
	<circle cx="1487.85" cy="2174.60" r="14.97" style="fill:none;stroke:#606060;stroke-width:8.64"/>
	<circle cx="1503.81" cy="300.60" r="14.97" style="fill:none;stroke:#606060;stroke-width:8.64"/>
	<circle cx="1503.81" cy="300.60" r="14.97" style="fill:none;stroke:#606060;stroke-width:8.64"/>
	<circle cx="1519.90" cy="2174.60" r="14.97" style="fill:none;stroke:#606060;stroke-width:8.64"/>
	<circle cx="1519.90" cy="300.60" r="14.97" style="fill:none;stroke:#606060;stroke-width:8.64"/>
	<circle cx="1519.90" cy="2174.60" r="14.97" style="fill:none;stroke:#606060;stroke-width:8.64"/>
	<circle cx="1519.90" cy="300.60" r="14.97" style="fill:none;stroke:#606060;stroke-width:8.64"/>
	<circle cx="1535.86" cy="300.72" r="14.97" style="fill:none;stroke:#606060;stroke-width:8.64"/>
	<circle cx="1551.95" cy="300.72" r="14.97" style="fill:none;stroke:#606060;stroke-width:8.64"/>
	<circle cx="1551.95" cy="2174.73" r="14.97" style="fill:none;stroke:#606060;stroke-width:8.64"/>
	<circle cx="1567.91" cy="300.85" r="14.97" style="fill:none;stroke:#606060;stroke-width:8.64"/>
	<circle cx="1567.91" cy="300.85" r="14.97" style="fill:none;stroke:#606060;stroke-width:8.64"/>
	<circle cx="1567.91" cy="2174.85" r="14.97" style="fill:none;stroke:#606060;stroke-width:8.64"/>
	<circle cx="1567.91" cy="300.85" r="14.97" style="fill:none;stroke:#606060;stroke-width:8.64"/>
	<circle cx="1584.00" cy="300.85" r="14.97" style="fill:none;stroke:#606060;stroke-width:8.64"/>
	<circle cx="1584.00" cy="300.85" r="14.97" style="fill:none;stroke:#606060;stroke-width:8.64"/>
	<circle cx="1616.05" cy="2174.97" r="14.97" style="fill:none;stroke:#606060;stroke-width:8.64"/>
	<circle cx="1616.05" cy="300.85" r="14.97" style="fill:none;stroke:#606060;stroke-width:8.64"/>
	<circle cx="1648.10" cy="300.85" r="14.97" style="fill:none;stroke:#606060;stroke-width:8.64"/>
	<circle cx="1664.07" cy="2174.85" r="14.97" style="fill:none;stroke:#606060;stroke-width:8.64"/>
	<circle cx="1664.07" cy="300.85" r="14.97" style="fill:none;stroke:#606060;stroke-width:8.64"/>
	<circle cx="1664.07" cy="300.85" r="14.97" style="fill:none;stroke:#606060;stroke-width:8.64"/>
	<circle cx="1680.15" cy="300.97" r="14.97" style="fill:none;stroke:#606060;stroke-width:8.64"/>
	<circle cx="1680.15" cy="2174.97" r="14.97" style="fill:none;stroke:#606060;stroke-width:8.64"/>
	<circle cx="1680.15" cy="300.97" r="14.97" style="fill:none;stroke:#606060;stroke-width:8.64"/>
	<circle cx="1696.12" cy="300.97" r="14.97" style="fill:none;stroke:#606060;stroke-width:8.64"/>
	<circle cx="1712.20" cy="2174.97" r="14.97" style="fill:none;stroke:#606060;stroke-width:8.64"/>
	<circle cx="1712.20" cy="300.97" r="14.97" style="fill:none;stroke:#606060;stroke-width:8.64"/>
	<circle cx="1712.20" cy="300.97" r="14.97" style="fill:none;stroke:#606060;stroke-width:8.64"/>
	<circle cx="1712.20" cy="300.97" r="14.97" style="fill:none;stroke:#606060;stroke-width:8.64"/>
	<circle cx="1728.17" cy="301.09" r="14.97" style="fill:none;stroke:#606060;stroke-width:8.64"/>
	<circle cx="1728.17" cy="2175.10" r="14.97" style="fill:none;stroke:#606060;stroke-width:8.64"/>
	<circle cx="1744.26" cy="2175.10" r="14.97" style="fill:none;stroke:#606060;stroke-width:8.64"/>
	<circle cx="1760.22" cy="2175.10" r="14.97" style="fill:none;stroke:#606060;stroke-width:8.64"/>
	<circle cx="1760.22" cy="301.09" r="14.97" style="fill:none;stroke:#606060;stroke-width:8.64"/>
	<circle cx="1776.31" cy="301.09" r="14.97" style="fill:none;stroke:#606060;stroke-width:8.64"/>
	<circle cx="1792.27" cy="301.09" r="14.97" style="fill:none;stroke:#606060;stroke-width:8.64"/>
	<circle cx="1792.27" cy="2175.22" r="14.97" style="fill:none;stroke:#606060;stroke-width:8.64"/>
	<circle cx="1808.36" cy="2175.22" r="14.97" style="fill:none;stroke:#606060;stroke-width:8.64"/>
	<circle cx="1808.36" cy="301.22" r="14.97" style="fill:none;stroke:#606060;stroke-width:8.64"/>
	<circle cx="1824.32" cy="301.22" r="14.97" style="fill:none;stroke:#606060;stroke-width:8.64"/>
	<circle cx="1824.32" cy="301.22" r="14.97" style="fill:none;stroke:#606060;stroke-width:8.64"/>
	<circle cx="1840.41" cy="301.22" r="14.97" style="fill:none;stroke:#606060;stroke-width:8.64"/>
	<circle cx="1840.41" cy="301.22" r="14.97" style="fill:none;stroke:#606060;stroke-width:8.64"/>
	<circle cx="1840.41" cy="301.22" r="14.97" style="fill:none;stroke:#606060;stroke-width:8.64"/>
	<circle cx="1904.51" cy="301.34" r="14.97" style="fill:none;stroke:#606060;stroke-width:8.64"/>
	<circle cx="1904.51" cy="2175.35" r="14.97" style="fill:none;stroke:#606060;stroke-width:8.64"/>
	<circle cx="1904.51" cy="2175.35" r="14.97" style="fill:none;stroke:#606060;stroke-width:8.64"/>
	<circle cx="1920.60" cy="301.34" r="14.97" style="fill:none;stroke:#606060;stroke-width:8.64"/>
	<circle cx="1920.60" cy="301.34" r="14.97" style="fill:none;stroke:#606060;stroke-width:8.64"/>
	<circle cx="1936.56" cy="301.46" r="14.97" style="fill:none;stroke:#606060;stroke-width:8.64"/>
	<circle cx="1968.62" cy="301.46" r="14.97" style="fill:none;stroke:#606060;stroke-width:8.64"/>
	<circle cx="1984.70" cy="2175.47" r="14.97" style="fill:none;stroke:#606060;stroke-width:8.64"/>
	<circle cx="2016.75" cy="301.34" r="14.97" style="fill:none;stroke:#606060;stroke-width:8.64"/>
	<circle cx="2032.72" cy="2175.47" r="14.97" style="fill:none;stroke:#606060;stroke-width:8.64"/>
	<circle cx="2048.80" cy="301.59" r="14.97" style="fill:none;stroke:#606060;stroke-width:8.64"/>
	<circle cx="2064.77" cy="301.59" r="14.97" style="fill:none;stroke:#606060;stroke-width:8.64"/>
	<circle cx="2080.86" cy="301.59" r="14.97" style="fill:none;stroke:#606060;stroke-width:8.64"/>
	<circle cx="2080.86" cy="2175.59" r="14.97" style="fill:none;stroke:#606060;stroke-width:8.64"/>
	<circle cx="2128.87" cy="301.84" r="14.97" style="fill:none;stroke:#606060;stroke-width:8.64"/>
	<circle cx="2128.87" cy="2175.84" r="14.97" style="fill:none;stroke:#606060;stroke-width:8.64"/>
	<circle cx="2144.96" cy="301.84" r="14.97" style="fill:none;stroke:#606060;stroke-width:8.64"/>
	<circle cx="2160.92" cy="301.96" r="14.97" style="fill:none;stroke:#606060;stroke-width:8.64"/>
	<circle cx="2160.92" cy="2175.96" r="14.97" style="fill:none;stroke:#606060;stroke-width:8.64"/>
	<circle cx="2177.01" cy="301.96" r="14.97" style="fill:none;stroke:#606060;stroke-width:8.64"/>
	<circle cx="2177.01" cy="2175.96" r="14.97" style="fill:none;stroke:#606060;stroke-width:8.64"/>
	<circle cx="2192.97" cy="2175.96" r="14.97" style="fill:none;stroke:#606060;stroke-width:8.64"/>
	<circle cx="2192.97" cy="301.96" r="14.97" style="fill:none;stroke:#606060;stroke-width:8.64"/>
	<circle cx="2225.03" cy="301.96" r="14.97" style="fill:none;stroke:#606060;stroke-width:8.64"/>
	<circle cx="2241.11" cy="301.96" r="14.97" style="fill:none;stroke:#606060;stroke-width:8.64"/>
	<circle cx="2305.22" cy="2176.09" r="14.97" style="fill:none;stroke:#606060;stroke-width:8.64"/>
	<circle cx="2337.27" cy="2176.09" r="14.97" style="fill:none;stroke:#606060;stroke-width:8.64"/>
	<circle cx="2353.23" cy="302.08" r="14.97" style="fill:none;stroke:#606060;stroke-width:8.64"/>
	<circle cx="2401.37" cy="302.08" r="14.97" style="fill:none;stroke:#606060;stroke-width:8.64"/>
	<circle cx="2449.38" cy="302.08" r="14.97" style="fill:none;stroke:#606060;stroke-width:8.64"/>
	<circle cx="2481.43" cy="302.21" r="14.97" style="fill:none;stroke:#606060;stroke-width:8.64"/>
	<circle cx="2641.69" cy="302.33" r="14.97" style="fill:none;stroke:#606060;stroke-width:8.64"/>
	<circle cx="2689.83" cy="302.33" r="14.97" style="fill:none;stroke:#606060;stroke-width:8.64"/>
	<circle cx="2753.93" cy="302.33" r="14.97" style="fill:none;stroke:#606060;stroke-width:8.64"/>
	<circle cx="2818.03" cy="2176.58" r="14.97" style="fill:none;stroke:#606060;stroke-width:8.64"/>
	<circle cx="2930.28" cy="302.58" r="14.97" style="fill:none;stroke:#606060;stroke-width:8.64"/>
	<circle cx="2962.33" cy="302.70" r="14.97" style="fill:none;stroke:#606060;stroke-width:8.64"/>
	<circle cx="2994.38" cy="302.70" r="14.97" style="fill:none;stroke:#606060;stroke-width:8.64"/>
	<circle cx="3010.34" cy="2176.71" r="14.97" style="fill:none;stroke:#606060;stroke-width:8.64"/>
	<circle cx="3154.64" cy="302.83" r="14.97" style="fill:none;stroke:#606060;stroke-width:8.64"/>
	<circle cx="3186.69" cy="302.83" r="14.97" style="fill:none;stroke:#606060;stroke-width:8.64"/>
	<circle cx="3218.74" cy="302.95" r="14.97" style="fill:none;stroke:#606060;stroke-width:8.64"/>
	<circle cx="3250.79" cy="302.83" r="14.97" style="fill:none;stroke:#606060;stroke-width:8.64"/>
	<circle cx="3266.75" cy="302.95" r="14.97" style="fill:none;stroke:#606060;stroke-width:8.64"/>
	<circle cx="3330.86" cy="302.95" r="14.97" style="fill:none;stroke:#606060;stroke-width:8.64"/>
	<circle cx="3346.94" cy="2176.95" r="14.97" style="fill:none;stroke:#606060;stroke-width:8.64"/>
	<circle cx="3362.91" cy="2176.95" r="14.97" style="fill:none;stroke:#606060;stroke-width:8.64"/>
	<circle cx="3362.91" cy="302.95" r="14.97" style="fill:none;stroke:#606060;stroke-width:8.64"/>
	<circle cx="3411.05" cy="2177.08" r="14.97" style="fill:none;stroke:#606060;stroke-width:8.64"/>
	<circle cx="3427.01" cy="2177.20" r="14.97" style="fill:none;stroke:#606060;stroke-width:8.64"/>
	<circle cx="3443.10" cy="303.32" r="14.97" style="fill:none;stroke:#606060;stroke-width:8.64"/>
	<circle cx="3443.10" cy="303.32" r="14.97" style="fill:none;stroke:#606060;stroke-width:8.64"/>
	<circle cx="3459.06" cy="2177.33" r="14.97" style="fill:none;stroke:#606060;stroke-width:8.64"/>
	<circle cx="3459.06" cy="303.32" r="14.97" style="fill:none;stroke:#606060;stroke-width:8.64"/>
	<circle cx="3475.15" cy="303.32" r="14.97" style="fill:none;stroke:#606060;stroke-width:8.64"/>
	<circle cx="3491.11" cy="303.32" r="14.97" style="fill:none;stroke:#606060;stroke-width:8.64"/>
	<circle cx="3491.11" cy="303.32" r="14.97" style="fill:none;stroke:#606060;stroke-width:8.64"/>
	<circle cx="3491.11" cy="303.32" r="14.97" style="fill:none;stroke:#606060;stroke-width:8.64"/>
	<circle cx="3507.20" cy="2177.20" r="14.97" style="fill:none;stroke:#606060;stroke-width:8.64"/>
	<circle cx="3523.16" cy="2177.33" r="14.97" style="fill:none;stroke:#606060;stroke-width:8.64"/>
	<circle cx="3587.26" cy="2177.45" r="14.97" style="fill:none;stroke:#606060;stroke-width:8.64"/>
	<circle cx="3587.26" cy="303.44" r="14.97" style="fill:none;stroke:#606060;stroke-width:8.64"/>
	<circle cx="3603.35" cy="2177.45" r="14.97" style="fill:none;stroke:#606060;stroke-width:8.64"/>
	<circle cx="3603.35" cy="2177.45" r="14.97" style="fill:none;stroke:#606060;stroke-width:8.64"/>
	<circle cx="3603.35" cy="303.44" r="14.97" style="fill:none;stroke:#606060;stroke-width:8.64"/>
	<circle cx="3619.32" cy="2177.57" r="14.97" style="fill:none;stroke:#606060;stroke-width:8.64"/>
	<circle cx="3619.32" cy="303.57" r="14.97" style="fill:none;stroke:#606060;stroke-width:8.64"/>
	<circle cx="3635.40" cy="303.57" r="14.97" style="fill:none;stroke:#606060;stroke-width:8.64"/>
	<circle cx="3651.37" cy="2177.57" r="14.97" style="fill:none;stroke:#606060;stroke-width:8.64"/>
	<circle cx="3667.45" cy="2177.57" r="14.97" style="fill:none;stroke:#606060;stroke-width:8.64"/>
	<circle cx="3683.42" cy="2177.70" r="14.97" style="fill:none;stroke:#606060;stroke-width:8.64"/>
	<circle cx="3683.42" cy="303.69" r="14.97" style="fill:none;stroke:#606060;stroke-width:8.64"/>
	<circle cx="3683.42" cy="303.69" r="14.97" style="fill:none;stroke:#606060;stroke-width:8.64"/>
	<circle cx="3699.51" cy="303.69" r="14.97" style="fill:none;stroke:#606060;stroke-width:8.64"/>
	<circle cx="3699.51" cy="303.69" r="14.97" style="fill:none;stroke:#606060;stroke-width:8.64"/>
	<circle cx="3699.51" cy="303.69" r="14.97" style="fill:none;stroke:#606060;stroke-width:8.64"/>
	<circle cx="3715.47" cy="303.69" r="14.97" style="fill:none;stroke:#606060;stroke-width:8.64"/>
	<circle cx="3715.47" cy="2177.70" r="14.97" style="fill:none;stroke:#606060;stroke-width:8.64"/>
	<circle cx="3731.56" cy="303.69" r="14.97" style="fill:none;stroke:#606060;stroke-width:8.64"/>
	<circle cx="3747.52" cy="303.69" r="14.97" style="fill:none;stroke:#606060;stroke-width:8.64"/>
	<circle cx="3747.52" cy="2177.82" r="14.97" style="fill:none;stroke:#606060;stroke-width:8.64"/>
	<circle cx="3747.52" cy="303.69" r="14.97" style="fill:none;stroke:#606060;stroke-width:8.64"/>
	<circle cx="3747.52" cy="303.69" r="14.97" style="fill:none;stroke:#606060;stroke-width:8.64"/>
	<circle cx="3747.52" cy="303.69" r="14.97" style="fill:none;stroke:#606060;stroke-width:8.64"/>
	<circle cx="3763.61" cy="303.69" r="14.97" style="fill:none;stroke:#606060;stroke-width:8.64"/>
	<circle cx="3763.61" cy="303.69" r="14.97" style="fill:none;stroke:#606060;stroke-width:8.64"/>
	<circle cx="3779.57" cy="303.69" r="14.97" style="fill:none;stroke:#606060;stroke-width:8.64"/>
	<circle cx="3795.66" cy="303.69" r="14.97" style="fill:none;stroke:#606060;stroke-width:8.64"/>
	<circle cx="3795.66" cy="303.69" r="14.97" style="fill:none;stroke:#606060;stroke-width:8.64"/>
	<circle cx="3795.66" cy="303.69" r="14.97" style="fill:none;stroke:#606060;stroke-width:8.64"/>
	<circle cx="3795.66" cy="303.69" r="14.97" style="fill:none;stroke:#606060;stroke-width:8.64"/>
	<path d=" M590.29 845.98 L638.43 842.15 L654.39 851.30 L670.48 847.59 L686.44 843.88 L686.44 840.17 L686.44 849.08 L686.44 845.49 L702.53 854.15 L702.53 850.56 L702.53 859.22 L718.49 855.51 L718.49 864.05 L734.58 872.34 L750.54 868.75 L750.54 865.16 L750.54 873.33 L750.54 881.38 L750.54 877.79 L766.63 874.32 L766.63 870.73 L766.63 867.27 L766.63 863.93 L782.60 871.72 L782.60 868.38 L798.68 876.05 L798.68 872.71 L798.68 869.37 L798.68 876.92 L798.68 873.58 L798.68 870.24 L814.65 877.79 L814.65 874.44 L814.65 871.23 L814.65 878.53 L814.65 875.31 L814.65 872.09 L830.73 869.00 L830.73 865.78 L830.73 862.69 L846.70 859.72 L846.70 856.62 L846.70 853.65 L862.78 850.68 L862.78 847.84 L862.78 844.87 L862.78 851.92 L878.75 858.85 L878.75 855.88 L878.75 862.69 L878.75 859.84 L894.84 866.52 L894.84 863.68 L894.84 860.83 L894.84 867.39 L894.84 864.54 L894.84 861.82 L894.84 858.98 L894.84 856.25 L894.84 862.69 L910.80 859.97 L910.80 857.24 L910.80 854.52 L910.80 851.80 L910.80 849.20 L910.80 846.60 L910.80 844.00 L910.80 841.40 L910.80 838.80 L910.80 836.33 L926.89 833.85 L926.89 831.38 L926.89 837.57 L926.89 843.75 L926.89 841.16 L926.89 838.68 L942.98 844.87 L942.98 850.81 L942.98 848.33 L942.98 845.86 L942.98 851.80 L942.98 849.32 L942.98 846.97 L942.98 852.79 L942.98 850.44 L942.98 856.13 L958.94 853.78 L958.94 851.30 L958.94 848.95 L975.03 854.64 L975.03 852.29 L975.03 849.94 L990.99 855.51 L990.99 853.28 L990.99 850.93 L990.99 848.58 L990.99 854.15 L990.99 851.80 L990.99 849.57 L990.99 855.02 L1007.08 852.79 L1007.08 850.44 L1007.08 848.21 L1007.08 853.65 L1023.04 851.43 L1023.04 849.20 L1023.04 854.52 L1023.04 852.29 L1023.04 850.07 L1023.04 847.96 L1039.13 845.73 L1039.13 850.93 L1039.13 856.13 L1039.13 861.33 L1039.13 859.10 L1039.13 857.00 L1039.13 854.77 L1039.13 859.84 L1055.09 864.92 L1055.09 862.81 L1055.09 860.58 L1055.09 858.48 L1055.09 856.38 L1071.18 854.40 L1071.18 852.29 L1071.18 850.19 L1087.14 855.14 L1087.14 859.97 L1087.14 857.99 L1087.14 855.88 L1103.23 853.90 L1103.23 851.92 L1103.23 856.75 L1103.23 854.64 L1103.23 859.47 L1119.19 857.49 L1119.19 855.39 L1135.28 853.53 L1135.28 858.11 L1135.28 856.25 L1135.28 860.83 L1135.28 858.85 L1151.25 857.00 L1151.25 861.57 L1151.25 861.57 L1151.25 861.57 L1151.25 868.13 L1151.25 868.13 L1167.33 868.13 L1167.33 868.13 L1167.33 874.69 L1167.33 881.25 L1167.33 881.25 L1167.33 881.25 L1167.33 881.25 L1183.30 881.25 L1183.30 881.25 L1183.30 881.25 L1183.30 881.25 L1199.38 881.25 L1199.38 874.82 L1199.38 874.82 L1215.35 868.26 L1215.35 874.82 L1215.35 874.82 L1215.35 874.82 L1231.44 868.38 L1231.44 868.38 L1231.44 861.82 L1231.44 861.82 L1247.40 868.38 L1247.40 874.94 L1247.40 874.94 L1247.40 881.50 L1263.49 881.50 L1263.49 881.50 L1279.45 881.50 L1279.45 888.06 L1279.45 881.50 L1279.45 875.06 L1279.45 875.06 L1295.54 875.06 L1311.50 875.06 L1311.50 881.62 L1311.50 881.62 L1327.59 888.18 L1327.59 888.18 L1327.59 888.18 L1327.59 894.74 L1327.59 894.74 L1327.59 894.74 L1327.59 894.86 L1343.55 888.31 L1343.55 894.86 L1343.55 894.86 L1343.55 901.42 L1343.55 894.86 L1343.55 894.86 L1343.55 894.86 L1359.64 894.99 L1359.64 894.99 L1359.64 894.99 L1359.64 901.55 L1375.61 901.55 L1375.61 901.55 L1391.69 901.55 L1391.69 901.55 L1391.69 901.55 L1391.69 901.55 L1391.69 901.67 L1391.69 895.11 L1407.66 895.11 L1407.66 888.55 L1407.66 882.12 L1423.74 882.12 L1423.74 882.12 L1455.80 877.66 L1455.80 879.64 L1455.80 881.62 L1471.76 883.73 L1471.76 885.83 L1471.76 887.93 L1487.85 890.04 L1487.85 885.46 L1503.81 880.76 L1503.81 876.05 L1519.90 878.16 L1519.90 880.26 L1519.90 882.37 L1519.90 877.66 L1535.86 872.96 L1551.95 868.13 L1551.95 870.24 L1567.91 872.34 L1567.91 867.51 L1567.91 869.62 L1567.91 864.67 L1584.00 866.90 L1584.00 861.95 L1616.05 864.05 L1616.05 859.10 L1648.10 861.20 L1664.07 863.31 L1664.07 865.53 L1664.07 867.76 L1680.15 869.87 L1680.15 872.09 L1680.15 874.44 L1696.12 869.25 L1712.20 871.47 L1712.20 873.83 L1712.20 876.05 L1712.20 878.40 L1728.17 880.76 L1728.17 883.11 L1744.26 885.46 L1760.22 880.14 L1760.22 882.61 L1776.31 884.96 L1792.27 887.32 L1792.27 881.99 L1808.36 876.67 L1808.36 879.02 L1824.32 881.50 L1824.32 883.97 L1840.41 886.45 L1840.41 888.92 L1840.41 891.40 L1904.51 885.95 L1904.51 888.43 L1904.51 891.03 L1920.60 893.50 L1920.60 896.10 L1936.56 890.53 L1968.62 884.96 L1984.70 887.44 L2016.75 881.75 L2032.72 876.05 L2048.80 878.65 L2064.77 881.25 L2080.86 883.85 L2080.86 878.03 L2128.87 880.63 L2128.87 883.36 L2144.96 885.95 L2160.92 880.01 L2160.92 882.74 L2177.01 876.67 L2177.01 879.39 L2192.97 873.33 L2192.97 876.05 L2225.03 878.78 L2241.11 881.50 L2305.22 875.31 L2337.27 878.16 L2353.23 871.85 L2401.37 874.57 L2449.38 868.26 L2481.43 871.10 L2641.69 864.67 L2689.83 858.23 L2753.93 860.96 L2818.03 863.80 L2930.28 857.12 L2962.33 850.56 L2994.38 853.28 L3010.34 856.13 L3154.64 858.98 L3186.69 861.82 L3218.74 864.79 L3250.79 857.99 L3266.75 860.83 L3330.86 854.03 L3346.94 856.87 L3362.91 859.84 L3362.91 852.79 L3411.05 855.76 L3427.01 858.85 L3443.10 851.67 L3443.10 854.64 L3459.06 857.74 L3459.06 850.44 L3475.15 853.53 L3491.11 856.62 L3491.11 859.72 L3491.11 862.94 L3507.20 866.03 L3523.16 869.37 L3587.26 872.59 L3587.26 875.93 L3603.35 879.27 L3603.35 882.61 L3603.35 886.08 L3619.32 878.40 L3619.32 870.73 L3635.40 874.07 L3651.37 866.28 L3667.45 869.74 L3683.42 861.82 L3683.42 865.16 L3683.42 868.75 L3699.51 860.58 L3699.51 864.05 L3699.51 867.64 L3715.47 871.23 L3715.47 874.82 L3731.56 866.52 L3747.52 870.24 L3747.52 873.95 L3747.52 877.66 L3747.52 881.50 L3747.52 885.34 L3763.61 889.17 L3763.61 893.13 L3779.57 897.09 L3795.66 901.18 L3795.66 905.38 L3795.66 909.47 L3795.66 913.67" stroke-linejoin="round" style="fill:none;stroke:#000000;stroke-width:8.64"/>
	<line x1="350.71" y1="2414.69" x2="350.71" y2="235.38" style="stroke:#000000;stroke-width:5.76"/>
	<line x1="350.71" y1="2351.32" x2="310.74" y2="2351.32" style="stroke:#000000;stroke-width:5.76"/>
	<text x="266.64" y="2351.32" style="font-family:'Helvetica';font-size:79.94px;fill:#000000" transform="rotate(-90 266.64,2351.32)" text-anchor="middle">-4</text>
	<line x1="350.71" y1="1957.17" x2="310.74" y2="1957.17" style="stroke:#000000;stroke-width:5.76"/>
	<text x="266.64" y="1957.17" style="font-family:'Helvetica';font-size:79.94px;fill:#000000" transform="rotate(-90 266.64,1957.17)" text-anchor="middle">-3</text>
	<line x1="350.71" y1="1563.01" x2="310.74" y2="1563.01" style="stroke:#000000;stroke-width:5.76"/>
	<text x="266.64" y="1563.01" style="font-family:'Helvetica';font-size:79.94px;fill:#000000" transform="rotate(-90 266.64,1563.01)" text-anchor="middle">-2</text>
	<line x1="350.71" y1="1168.86" x2="310.74" y2="1168.86" style="stroke:#000000;stroke-width:5.76"/>
	<text x="266.64" y="1168.86" style="font-family:'Helvetica';font-size:79.94px;fill:#000000" transform="rotate(-90 266.64,1168.86)" text-anchor="middle">-1</text>
	<line x1="350.71" y1="774.70" x2="310.74" y2="774.70" style="stroke:#000000;stroke-width:5.76"/>
	<text x="266.64" y="774.70" style="font-family:'Helvetica';font-size:79.94px;fill:#000000" transform="rotate(-90 266.64,774.70)" text-anchor="middle">0</text>
	<line x1="350.71" y1="380.54" x2="310.74" y2="380.54" style="stroke:#000000;stroke-width:5.76"/>
	<text x="266.64" y="380.54" style="font-family:'Helvetica';font-size:79.94px;fill:#000000" transform="rotate(-90 266.64,380.54)" text-anchor="middle">1</text>
	<text x="176.68" y="1325.03" style="font-family:'Helvetica';font-size:79.94px;fill:#000000" transform="rotate(-90 176.68,1325.03)" text-anchor="middle">Scaled Schoenfeld Residuals</text>
	<line x1="350.71" y1="2414.69" x2="3859.02" y2="2414.69" style="stroke:#000000;stroke-width:5.76"/>
	<line x1="414.07" y1="2414.69" x2="414.07" y2="2454.66" style="stroke:#000000;stroke-width:5.76"/>
	<text x="414.07" y="2530.61" style="font-family:'Helvetica';font-size:79.94px;fill:#000000" text-anchor="middle">0</text>
	<line x1="1215.47" y1="2414.69" x2="1215.47" y2="2454.66" style="stroke:#000000;stroke-width:5.76"/>
	<text x="1215.47" y="2530.61" style="font-family:'Helvetica';font-size:79.94px;fill:#000000" text-anchor="middle">50</text>
	<line x1="2016.75" y1="2414.69" x2="2016.75" y2="2454.66" style="stroke:#000000;stroke-width:5.76"/>
	<text x="2016.75" y="2530.61" style="font-family:'Helvetica';font-size:79.94px;fill:#000000" text-anchor="middle">100</text>
	<line x1="2818.03" y1="2414.69" x2="2818.03" y2="2454.66" style="stroke:#000000;stroke-width:5.76"/>
	<text x="2818.03" y="2530.61" style="font-family:'Helvetica';font-size:79.94px;fill:#000000" text-anchor="middle">150</text>
	<line x1="3619.44" y1="2414.69" x2="3619.44" y2="2454.66" style="stroke:#000000;stroke-width:5.76"/>
	<text x="3619.44" y="2530.61" style="font-family:'Helvetica';font-size:79.94px;fill:#000000" text-anchor="middle">200</text>
	<text x="2104.86" y="2620.57" style="font-family:'Helvetica';font-size:79.94px;fill:#000000" text-anchor="middle">Time</text>
	<text x="368.03" y="2737.89" style="font-family:'Helvetica';font-size:79.94px;fill:#000000">bandwidth = .8</text>
	<text x="368.03" y="187.99" style="font-family:'Helvetica';font-size:99.99px;fill:#000000">Schoenfeld residuals against time, univariable</text>
</svg>
