<?xml version="1.0" encoding="UTF-8" standalone="no"?>
<!-- This is a Stata 16.1 generated SVG file (http://www.stata.com) -->

<svg version="1.1" width="5.50in" height="4.00in" viewBox="0 0 3960 2880" xmlns="http://www.w3.org/2000/svg" xmlns:xlink="http://www.w3.org/1999/xlink">
	<desc>Stata Graph - Graph</desc>
	<rect x="0" y="0" width="3960" height="2880" style="fill:#FFFFFF;stroke:none"/>
	<rect x="0.00" y="0.00" width="3959.88" height="2880.00" style="fill:#FFFFFF"/>
	<rect x="2.88" y="2.88" width="3954.12" height="2874.24" style="fill:none;stroke:#FFFFFF;stroke-width:5.76"/>
	<rect x="353.59" y="238.26" width="3502.55" height="2173.55" style="fill:none;stroke:#000000;stroke-width:5.76"/>
	<circle cx="590.29" cy="1042.26" r="14.97" style="fill:none;stroke:#606060;stroke-width:8.64"/>
	<circle cx="638.43" cy="2322.61" r="14.97" style="fill:none;stroke:#606060;stroke-width:8.64"/>
	<circle cx="654.39" cy="976.67" r="14.97" style="fill:none;stroke:#606060;stroke-width:8.64"/>
	<circle cx="670.48" cy="1058.47" r="14.97" style="fill:none;stroke:#606060;stroke-width:8.64"/>
	<circle cx="686.44" cy="1058.47" r="14.97" style="fill:none;stroke:#606060;stroke-width:8.64"/>
	<circle cx="686.44" cy="1080.50" r="14.97" style="fill:none;stroke:#606060;stroke-width:8.64"/>
	<circle cx="686.44" cy="976.54" r="14.97" style="fill:none;stroke:#606060;stroke-width:8.64"/>
	<circle cx="686.44" cy="942.51" r="14.97" style="fill:none;stroke:#606060;stroke-width:8.64"/>
	<circle cx="702.53" cy="854.40" r="14.97" style="fill:none;stroke:#606060;stroke-width:8.64"/>
	<circle cx="702.53" cy="1099.80" r="14.97" style="fill:none;stroke:#606060;stroke-width:8.64"/>
	<circle cx="702.53" cy="1092.38" r="14.97" style="fill:none;stroke:#606060;stroke-width:8.64"/>
	<circle cx="718.49" cy="976.54" r="14.97" style="fill:none;stroke:#606060;stroke-width:8.64"/>
	<circle cx="718.49" cy="1008.10" r="14.97" style="fill:none;stroke:#606060;stroke-width:8.64"/>
	<circle cx="734.58" cy="1050.30" r="14.97" style="fill:none;stroke:#606060;stroke-width:8.64"/>
	<circle cx="750.54" cy="1050.30" r="14.97" style="fill:none;stroke:#606060;stroke-width:8.64"/>
	<circle cx="750.54" cy="2274.84" r="14.97" style="fill:none;stroke:#606060;stroke-width:8.64"/>
	<circle cx="750.54" cy="2326.20" r="14.97" style="fill:none;stroke:#606060;stroke-width:8.64"/>
	<circle cx="750.54" cy="1058.47" r="14.97" style="fill:none;stroke:#606060;stroke-width:8.64"/>
	<circle cx="750.54" cy="2313.95" r="14.97" style="fill:none;stroke:#606060;stroke-width:8.64"/>
	<circle cx="766.63" cy="746.73" r="14.97" style="fill:none;stroke:#606060;stroke-width:8.64"/>
	<circle cx="766.63" cy="1017.13" r="14.97" style="fill:none;stroke:#606060;stroke-width:8.64"/>
	<circle cx="766.63" cy="1087.05" r="14.97" style="fill:none;stroke:#606060;stroke-width:8.64"/>
	<circle cx="766.63" cy="2229.92" r="14.97" style="fill:none;stroke:#606060;stroke-width:8.64"/>
	<circle cx="782.60" cy="1008.35" r="14.97" style="fill:none;stroke:#606060;stroke-width:8.64"/>
	<circle cx="782.60" cy="2347.49" r="14.97" style="fill:none;stroke:#606060;stroke-width:8.64"/>
	<circle cx="798.68" cy="1077.15" r="14.97" style="fill:none;stroke:#606060;stroke-width:8.64"/>
	<circle cx="798.68" cy="999.31" r="14.97" style="fill:none;stroke:#606060;stroke-width:8.64"/>
	<circle cx="798.68" cy="1050.79" r="14.97" style="fill:none;stroke:#606060;stroke-width:8.64"/>
	<circle cx="798.68" cy="1017.13" r="14.97" style="fill:none;stroke:#606060;stroke-width:8.64"/>
	<circle cx="798.68" cy="1087.05" r="14.97" style="fill:none;stroke:#606060;stroke-width:8.64"/>
	<circle cx="798.68" cy="2283.38" r="14.97" style="fill:none;stroke:#606060;stroke-width:8.64"/>
	<circle cx="814.65" cy="1073.56" r="14.97" style="fill:none;stroke:#606060;stroke-width:8.64"/>
	<circle cx="814.65" cy="955.63" r="14.97" style="fill:none;stroke:#606060;stroke-width:8.64"/>
	<circle cx="814.65" cy="1098.32" r="14.97" style="fill:none;stroke:#606060;stroke-width:8.64"/>
	<circle cx="814.65" cy="2315.43" r="14.97" style="fill:none;stroke:#606060;stroke-width:8.64"/>
	<circle cx="814.65" cy="2347.49" r="14.97" style="fill:none;stroke:#606060;stroke-width:8.64"/>
	<circle cx="814.65" cy="1080.62" r="14.97" style="fill:none;stroke:#606060;stroke-width:8.64"/>
	<circle cx="830.73" cy="954.64" r="14.97" style="fill:none;stroke:#606060;stroke-width:8.64"/>
	<circle cx="830.73" cy="1050.42" r="14.97" style="fill:none;stroke:#606060;stroke-width:8.64"/>
	<circle cx="830.73" cy="1050.79" r="14.97" style="fill:none;stroke:#606060;stroke-width:8.64"/>
	<circle cx="846.70" cy="2191.80" r="14.97" style="fill:none;stroke:#606060;stroke-width:8.64"/>
	<circle cx="846.70" cy="954.76" r="14.97" style="fill:none;stroke:#606060;stroke-width:8.64"/>
	<circle cx="846.70" cy="980.87" r="14.97" style="fill:none;stroke:#606060;stroke-width:8.64"/>
	<circle cx="862.78" cy="2220.76" r="14.97" style="fill:none;stroke:#606060;stroke-width:8.64"/>
	<circle cx="862.78" cy="1096.95" r="14.97" style="fill:none;stroke:#606060;stroke-width:8.64"/>
	<circle cx="862.78" cy="1042.75" r="14.97" style="fill:none;stroke:#606060;stroke-width:8.64"/>
	<circle cx="862.78" cy="2225.96" r="14.97" style="fill:none;stroke:#606060;stroke-width:8.64"/>
	<circle cx="878.75" cy="939.04" r="14.97" style="fill:none;stroke:#606060;stroke-width:8.64"/>
	<circle cx="878.75" cy="2201.71" r="14.97" style="fill:none;stroke:#606060;stroke-width:8.64"/>
	<circle cx="878.75" cy="1051.04" r="14.97" style="fill:none;stroke:#606060;stroke-width:8.64"/>
	<circle cx="878.75" cy="2126.34" r="14.97" style="fill:none;stroke:#606060;stroke-width:8.64"/>
	<circle cx="894.84" cy="1065.27" r="14.97" style="fill:none;stroke:#606060;stroke-width:8.64"/>
	<circle cx="894.84" cy="2182.40" r="14.97" style="fill:none;stroke:#606060;stroke-width:8.64"/>
	<circle cx="894.84" cy="981.24" r="14.97" style="fill:none;stroke:#606060;stroke-width:8.64"/>
	<circle cx="894.84" cy="868.38" r="14.97" style="fill:none;stroke:#606060;stroke-width:8.64"/>
	<circle cx="894.84" cy="1066.63" r="14.97" style="fill:none;stroke:#606060;stroke-width:8.64"/>
	<circle cx="894.84" cy="1080.99" r="14.97" style="fill:none;stroke:#606060;stroke-width:8.64"/>
	<circle cx="894.84" cy="1017.50" r="14.97" style="fill:none;stroke:#606060;stroke-width:8.64"/>
	<circle cx="894.84" cy="977.04" r="14.97" style="fill:none;stroke:#606060;stroke-width:8.64"/>
	<circle cx="894.84" cy="1080.99" r="14.97" style="fill:none;stroke:#606060;stroke-width:8.64"/>
	<circle cx="910.80" cy="997.46" r="14.97" style="fill:none;stroke:#606060;stroke-width:8.64"/>
	<circle cx="910.80" cy="2104.19" r="14.97" style="fill:none;stroke:#606060;stroke-width:8.64"/>
	<circle cx="910.80" cy="1094.48" r="14.97" style="fill:none;stroke:#606060;stroke-width:8.64"/>
	<circle cx="910.80" cy="934.34" r="14.97" style="fill:none;stroke:#606060;stroke-width:8.64"/>
	<circle cx="910.80" cy="970.11" r="14.97" style="fill:none;stroke:#606060;stroke-width:8.64"/>
	<circle cx="910.80" cy="1074.06" r="14.97" style="fill:none;stroke:#606060;stroke-width:8.64"/>
	<circle cx="910.80" cy="2347.98" r="14.97" style="fill:none;stroke:#606060;stroke-width:8.64"/>
	<circle cx="910.80" cy="1017.63" r="14.97" style="fill:none;stroke:#606060;stroke-width:8.64"/>
	<circle cx="910.80" cy="2323.23" r="14.97" style="fill:none;stroke:#606060;stroke-width:8.64"/>
	<circle cx="910.80" cy="2336.60" r="14.97" style="fill:none;stroke:#606060;stroke-width:8.64"/>
	<circle cx="926.89" cy="1034.83" r="14.97" style="fill:none;stroke:#606060;stroke-width:8.64"/>
	<circle cx="926.89" cy="930.88" r="14.97" style="fill:none;stroke:#606060;stroke-width:8.64"/>
	<circle cx="926.89" cy="2211.48" r="14.97" style="fill:none;stroke:#606060;stroke-width:8.64"/>
	<circle cx="926.89" cy="1094.48" r="14.97" style="fill:none;stroke:#606060;stroke-width:8.64"/>
	<circle cx="926.89" cy="1050.92" r="14.97" style="fill:none;stroke:#606060;stroke-width:8.64"/>
	<circle cx="926.89" cy="981.24" r="14.97" style="fill:none;stroke:#606060;stroke-width:8.64"/>
	<circle cx="942.98" cy="1080.99" r="14.97" style="fill:none;stroke:#606060;stroke-width:8.64"/>
	<circle cx="942.98" cy="1080.99" r="14.97" style="fill:none;stroke:#606060;stroke-width:8.64"/>
	<circle cx="942.98" cy="1097.20" r="14.97" style="fill:none;stroke:#606060;stroke-width:8.64"/>
	<circle cx="942.98" cy="2275.34" r="14.97" style="fill:none;stroke:#606060;stroke-width:8.64"/>
	<circle cx="942.98" cy="2275.34" r="14.97" style="fill:none;stroke:#606060;stroke-width:8.64"/>
	<circle cx="942.98" cy="2221.01" r="14.97" style="fill:none;stroke:#606060;stroke-width:8.64"/>
	<circle cx="942.98" cy="990.53" r="14.97" style="fill:none;stroke:#606060;stroke-width:8.64"/>
	<circle cx="942.98" cy="1034.58" r="14.97" style="fill:none;stroke:#606060;stroke-width:8.64"/>
	<circle cx="942.98" cy="1080.99" r="14.97" style="fill:none;stroke:#606060;stroke-width:8.64"/>
	<circle cx="942.98" cy="1941.70" r="14.97" style="fill:none;stroke:#606060;stroke-width:8.64"/>
	<circle cx="958.94" cy="2154.31" r="14.97" style="fill:none;stroke:#606060;stroke-width:8.64"/>
	<circle cx="958.94" cy="2330.53" r="14.97" style="fill:none;stroke:#606060;stroke-width:8.64"/>
	<circle cx="958.94" cy="1094.85" r="14.97" style="fill:none;stroke:#606060;stroke-width:8.64"/>
	<circle cx="975.03" cy="1051.54" r="14.97" style="fill:none;stroke:#606060;stroke-width:8.64"/>
	<circle cx="975.03" cy="2212.22" r="14.97" style="fill:none;stroke:#606060;stroke-width:8.64"/>
	<circle cx="975.03" cy="981.62" r="14.97" style="fill:none;stroke:#606060;stroke-width:8.64"/>
	<circle cx="990.99" cy="2349.96" r="14.97" style="fill:none;stroke:#606060;stroke-width:8.64"/>
	<circle cx="990.99" cy="1035.20" r="14.97" style="fill:none;stroke:#606060;stroke-width:8.64"/>
	<circle cx="990.99" cy="2173.12" r="14.97" style="fill:none;stroke:#606060;stroke-width:8.64"/>
	<circle cx="990.99" cy="1087.92" r="14.97" style="fill:none;stroke:#606060;stroke-width:8.64"/>
	<circle cx="990.99" cy="1888.86" r="14.97" style="fill:none;stroke:#606060;stroke-width:8.64"/>
	<circle cx="990.99" cy="1081.49" r="14.97" style="fill:none;stroke:#606060;stroke-width:8.64"/>
	<circle cx="990.99" cy="1017.13" r="14.97" style="fill:none;stroke:#606060;stroke-width:8.64"/>
	<circle cx="990.99" cy="1087.80" r="14.97" style="fill:none;stroke:#606060;stroke-width:8.64"/>
	<circle cx="1007.08" cy="1097.94" r="14.97" style="fill:none;stroke:#606060;stroke-width:8.64"/>
	<circle cx="1007.08" cy="1093.74" r="14.97" style="fill:none;stroke:#606060;stroke-width:8.64"/>
	<circle cx="1007.08" cy="914.29" r="14.97" style="fill:none;stroke:#606060;stroke-width:8.64"/>
	<circle cx="1007.08" cy="956.74" r="14.97" style="fill:none;stroke:#606060;stroke-width:8.64"/>
	<circle cx="1023.04" cy="2172.13" r="14.97" style="fill:none;stroke:#606060;stroke-width:8.64"/>
	<circle cx="1023.04" cy="1051.54" r="14.97" style="fill:none;stroke:#606060;stroke-width:8.64"/>
	<circle cx="1023.04" cy="955.75" r="14.97" style="fill:none;stroke:#606060;stroke-width:8.64"/>
	<circle cx="1023.04" cy="1088.04" r="14.97" style="fill:none;stroke:#606060;stroke-width:8.64"/>
	<circle cx="1023.04" cy="737.08" r="14.97" style="fill:none;stroke:#606060;stroke-width:8.64"/>
	<circle cx="1023.04" cy="1100.42" r="14.97" style="fill:none;stroke:#606060;stroke-width:8.64"/>
	<circle cx="1039.13" cy="934.84" r="14.97" style="fill:none;stroke:#606060;stroke-width:8.64"/>
	<circle cx="1039.13" cy="1035.20" r="14.97" style="fill:none;stroke:#606060;stroke-width:8.64"/>
	<circle cx="1039.13" cy="2074.11" r="14.97" style="fill:none;stroke:#606060;stroke-width:8.64"/>
	<circle cx="1039.13" cy="1059.58" r="14.97" style="fill:none;stroke:#606060;stroke-width:8.64"/>
	<circle cx="1039.13" cy="868.88" r="14.97" style="fill:none;stroke:#606060;stroke-width:8.64"/>
	<circle cx="1039.13" cy="956.49" r="14.97" style="fill:none;stroke:#606060;stroke-width:8.64"/>
	<circle cx="1039.13" cy="2163.34" r="14.97" style="fill:none;stroke:#606060;stroke-width:8.64"/>
	<circle cx="1039.13" cy="2226.83" r="14.97" style="fill:none;stroke:#606060;stroke-width:8.64"/>
	<circle cx="1055.09" cy="1067.13" r="14.97" style="fill:none;stroke:#606060;stroke-width:8.64"/>
	<circle cx="1055.09" cy="816.28" r="14.97" style="fill:none;stroke:#606060;stroke-width:8.64"/>
	<circle cx="1055.09" cy="1000.18" r="14.97" style="fill:none;stroke:#606060;stroke-width:8.64"/>
	<circle cx="1055.09" cy="1067.13" r="14.97" style="fill:none;stroke:#606060;stroke-width:8.64"/>
	<circle cx="1055.09" cy="1074.55" r="14.97" style="fill:none;stroke:#606060;stroke-width:8.64"/>
	<circle cx="1071.18" cy="934.84" r="14.97" style="fill:none;stroke:#606060;stroke-width:8.64"/>
	<circle cx="1071.18" cy="2348.35" r="14.97" style="fill:none;stroke:#606060;stroke-width:8.64"/>
	<circle cx="1071.18" cy="1094.97" r="14.97" style="fill:none;stroke:#606060;stroke-width:8.64"/>
	<circle cx="1087.14" cy="1095.10" r="14.97" style="fill:none;stroke:#606060;stroke-width:8.64"/>
	<circle cx="1087.14" cy="1035.08" r="14.97" style="fill:none;stroke:#606060;stroke-width:8.64"/>
	<circle cx="1087.14" cy="1065.89" r="14.97" style="fill:none;stroke:#606060;stroke-width:8.64"/>
	<circle cx="1087.14" cy="2226.83" r="14.97" style="fill:none;stroke:#606060;stroke-width:8.64"/>
	<circle cx="1103.23" cy="2074.24" r="14.97" style="fill:none;stroke:#606060;stroke-width:8.64"/>
	<circle cx="1103.23" cy="1051.54" r="14.97" style="fill:none;stroke:#606060;stroke-width:8.64"/>
	<circle cx="1103.23" cy="2300.71" r="14.97" style="fill:none;stroke:#606060;stroke-width:8.64"/>
	<circle cx="1103.23" cy="2117.68" r="14.97" style="fill:none;stroke:#606060;stroke-width:8.64"/>
	<circle cx="1103.23" cy="803.04" r="14.97" style="fill:none;stroke:#606060;stroke-width:8.64"/>
	<circle cx="1119.19" cy="1051.54" r="14.97" style="fill:none;stroke:#606060;stroke-width:8.64"/>
	<circle cx="1119.19" cy="1078.14" r="14.97" style="fill:none;stroke:#606060;stroke-width:8.64"/>
	<circle cx="1135.28" cy="2349.47" r="14.97" style="fill:none;stroke:#606060;stroke-width:8.64"/>
	<circle cx="1135.28" cy="1081.61" r="14.97" style="fill:none;stroke:#606060;stroke-width:8.64"/>
	<circle cx="1135.28" cy="1100.30" r="14.97" style="fill:none;stroke:#606060;stroke-width:8.64"/>
	<circle cx="1135.28" cy="890.90" r="14.97" style="fill:none;stroke:#606060;stroke-width:8.64"/>
	<circle cx="1135.28" cy="2267.29" r="14.97" style="fill:none;stroke:#606060;stroke-width:8.64"/>
	<circle cx="1151.25" cy="1051.78" r="14.97" style="fill:none;stroke:#606060;stroke-width:8.64"/>
	<circle cx="1151.25" cy="2330.90" r="14.97" style="fill:none;stroke:#606060;stroke-width:8.64"/>
	<circle cx="1151.25" cy="977.78" r="14.97" style="fill:none;stroke:#606060;stroke-width:8.64"/>
	<circle cx="1151.25" cy="2127.08" r="14.97" style="fill:none;stroke:#606060;stroke-width:8.64"/>
	<circle cx="1151.25" cy="1099.43" r="14.97" style="fill:none;stroke:#606060;stroke-width:8.64"/>
	<circle cx="1151.25" cy="913.06" r="14.97" style="fill:none;stroke:#606060;stroke-width:8.64"/>
	<circle cx="1167.33" cy="1067.62" r="14.97" style="fill:none;stroke:#606060;stroke-width:8.64"/>
	<circle cx="1167.33" cy="2349.96" r="14.97" style="fill:none;stroke:#606060;stroke-width:8.64"/>
	<circle cx="1167.33" cy="991.52" r="14.97" style="fill:none;stroke:#606060;stroke-width:8.64"/>
	<circle cx="1167.33" cy="2284.74" r="14.97" style="fill:none;stroke:#606060;stroke-width:8.64"/>
	<circle cx="1167.33" cy="887.56" r="14.97" style="fill:none;stroke:#606060;stroke-width:8.64"/>
	<circle cx="1167.33" cy="2331.28" r="14.97" style="fill:none;stroke:#606060;stroke-width:8.64"/>
	<circle cx="1167.33" cy="1035.82" r="14.97" style="fill:none;stroke:#606060;stroke-width:8.64"/>
	<circle cx="1183.30" cy="2344.76" r="14.97" style="fill:none;stroke:#606060;stroke-width:8.64"/>
	<circle cx="1183.30" cy="2060.13" r="14.97" style="fill:none;stroke:#606060;stroke-width:8.64"/>
	<circle cx="1183.30" cy="1094.11" r="14.97" style="fill:none;stroke:#606060;stroke-width:8.64"/>
	<circle cx="1183.30" cy="1075.17" r="14.97" style="fill:none;stroke:#606060;stroke-width:8.64"/>
	<circle cx="1199.38" cy="2331.40" r="14.97" style="fill:none;stroke:#606060;stroke-width:8.64"/>
	<circle cx="1199.38" cy="2259.00" r="14.97" style="fill:none;stroke:#606060;stroke-width:8.64"/>
	<circle cx="1199.38" cy="1018.74" r="14.97" style="fill:none;stroke:#606060;stroke-width:8.64"/>
	<circle cx="1215.35" cy="1101.04" r="14.97" style="fill:none;stroke:#606060;stroke-width:8.64"/>
	<circle cx="1215.35" cy="1094.23" r="14.97" style="fill:none;stroke:#606060;stroke-width:8.64"/>
	<circle cx="1215.35" cy="1100.05" r="14.97" style="fill:none;stroke:#606060;stroke-width:8.64"/>
	<circle cx="1215.35" cy="1098.44" r="14.97" style="fill:none;stroke:#606060;stroke-width:8.64"/>
	<circle cx="1231.44" cy="2206.41" r="14.97" style="fill:none;stroke:#606060;stroke-width:8.64"/>
	<circle cx="1231.44" cy="944.37" r="14.97" style="fill:none;stroke:#606060;stroke-width:8.64"/>
	<circle cx="1231.44" cy="2074.86" r="14.97" style="fill:none;stroke:#606060;stroke-width:8.64"/>
	<circle cx="1231.44" cy="905.26" r="14.97" style="fill:none;stroke:#606060;stroke-width:8.64"/>
	<circle cx="1247.40" cy="935.83" r="14.97" style="fill:none;stroke:#606060;stroke-width:8.64"/>
	<circle cx="1247.40" cy="2141.07" r="14.97" style="fill:none;stroke:#606060;stroke-width:8.64"/>
	<circle cx="1247.40" cy="869.49" r="14.97" style="fill:none;stroke:#606060;stroke-width:8.64"/>
	<circle cx="1247.40" cy="840.66" r="14.97" style="fill:none;stroke:#606060;stroke-width:8.64"/>
	<circle cx="1263.49" cy="2001.84" r="14.97" style="fill:none;stroke:#606060;stroke-width:8.64"/>
	<circle cx="1263.49" cy="1089.03" r="14.97" style="fill:none;stroke:#606060;stroke-width:8.64"/>
	<circle cx="1279.45" cy="914.05" r="14.97" style="fill:none;stroke:#606060;stroke-width:8.64"/>
	<circle cx="1279.45" cy="2185.12" r="14.97" style="fill:none;stroke:#606060;stroke-width:8.64"/>
	<circle cx="1279.45" cy="1096.09" r="14.97" style="fill:none;stroke:#606060;stroke-width:8.64"/>
	<circle cx="1279.45" cy="1096.09" r="14.97" style="fill:none;stroke:#606060;stroke-width:8.64"/>
	<circle cx="1279.45" cy="999.06" r="14.97" style="fill:none;stroke:#606060;stroke-width:8.64"/>
	<circle cx="1295.54" cy="1052.77" r="14.97" style="fill:none;stroke:#606060;stroke-width:8.64"/>
	<circle cx="1311.50" cy="1094.60" r="14.97" style="fill:none;stroke:#606060;stroke-width:8.64"/>
	<circle cx="1311.50" cy="850.44" r="14.97" style="fill:none;stroke:#606060;stroke-width:8.64"/>
	<circle cx="1311.50" cy="1036.19" r="14.97" style="fill:none;stroke:#606060;stroke-width:8.64"/>
	<circle cx="1327.59" cy="973.20" r="14.97" style="fill:none;stroke:#606060;stroke-width:8.64"/>
	<circle cx="1327.59" cy="964.17" r="14.97" style="fill:none;stroke:#606060;stroke-width:8.64"/>
	<circle cx="1327.59" cy="1088.91" r="14.97" style="fill:none;stroke:#606060;stroke-width:8.64"/>
	<circle cx="1327.59" cy="1044.48" r="14.97" style="fill:none;stroke:#606060;stroke-width:8.64"/>
	<circle cx="1327.59" cy="2247.99" r="14.97" style="fill:none;stroke:#606060;stroke-width:8.64"/>
	<circle cx="1327.59" cy="2350.33" r="14.97" style="fill:none;stroke:#606060;stroke-width:8.64"/>
	<circle cx="1327.59" cy="1044.48" r="14.97" style="fill:none;stroke:#606060;stroke-width:8.64"/>
	<circle cx="1343.55" cy="2324.72" r="14.97" style="fill:none;stroke:#606060;stroke-width:8.64"/>
	<circle cx="1343.55" cy="999.06" r="14.97" style="fill:none;stroke:#606060;stroke-width:8.64"/>
	<circle cx="1343.55" cy="2128.07" r="14.97" style="fill:none;stroke:#606060;stroke-width:8.64"/>
	<circle cx="1343.55" cy="1036.31" r="14.97" style="fill:none;stroke:#606060;stroke-width:8.64"/>
	<circle cx="1343.55" cy="888.18" r="14.97" style="fill:none;stroke:#606060;stroke-width:8.64"/>
	<circle cx="1343.55" cy="2248.11" r="14.97" style="fill:none;stroke:#606060;stroke-width:8.64"/>
	<circle cx="1343.55" cy="982.85" r="14.97" style="fill:none;stroke:#606060;stroke-width:8.64"/>
	<circle cx="1359.64" cy="1082.60" r="14.97" style="fill:none;stroke:#606060;stroke-width:8.64"/>
	<circle cx="1359.64" cy="957.61" r="14.97" style="fill:none;stroke:#606060;stroke-width:8.64"/>
	<circle cx="1359.64" cy="888.18" r="14.97" style="fill:none;stroke:#606060;stroke-width:8.64"/>
	<circle cx="1359.64" cy="2099.61" r="14.97" style="fill:none;stroke:#606060;stroke-width:8.64"/>
	<circle cx="1375.61" cy="876.18" r="14.97" style="fill:none;stroke:#606060;stroke-width:8.64"/>
	<circle cx="1375.61" cy="1044.61" r="14.97" style="fill:none;stroke:#606060;stroke-width:8.64"/>
	<circle cx="1391.69" cy="1066.88" r="14.97" style="fill:none;stroke:#606060;stroke-width:8.64"/>
	<circle cx="1391.69" cy="1036.44" r="14.97" style="fill:none;stroke:#606060;stroke-width:8.64"/>
	<circle cx="1391.69" cy="1018.37" r="14.97" style="fill:none;stroke:#606060;stroke-width:8.64"/>
	<circle cx="1391.69" cy="999.06" r="14.97" style="fill:none;stroke:#606060;stroke-width:8.64"/>
	<circle cx="1391.69" cy="915.28" r="14.97" style="fill:none;stroke:#606060;stroke-width:8.64"/>
	<circle cx="1391.69" cy="1019.24" r="14.97" style="fill:none;stroke:#606060;stroke-width:8.64"/>
	<circle cx="1407.66" cy="973.32" r="14.97" style="fill:none;stroke:#606060;stroke-width:8.64"/>
	<circle cx="1407.66" cy="825.93" r="14.97" style="fill:none;stroke:#606060;stroke-width:8.64"/>
	<circle cx="1407.66" cy="1096.09" r="14.97" style="fill:none;stroke:#606060;stroke-width:8.64"/>
	<circle cx="1423.74" cy="885.95" r="14.97" style="fill:none;stroke:#606060;stroke-width:8.64"/>
	<circle cx="1423.74" cy="2350.46" r="14.97" style="fill:none;stroke:#606060;stroke-width:8.64"/>
	<circle cx="1455.80" cy="2285.36" r="14.97" style="fill:none;stroke:#606060;stroke-width:8.64"/>
	<circle cx="1455.80" cy="1067.01" r="14.97" style="fill:none;stroke:#606060;stroke-width:8.64"/>
	<circle cx="1455.80" cy="1079.26" r="14.97" style="fill:none;stroke:#606060;stroke-width:8.64"/>
	<circle cx="1471.76" cy="2350.83" r="14.97" style="fill:none;stroke:#606060;stroke-width:8.64"/>
	<circle cx="1471.76" cy="2351.45" r="14.97" style="fill:none;stroke:#606060;stroke-width:8.64"/>
	<circle cx="1471.76" cy="1019.36" r="14.97" style="fill:none;stroke:#606060;stroke-width:8.64"/>
	<circle cx="1487.85" cy="964.17" r="14.97" style="fill:none;stroke:#606060;stroke-width:8.64"/>
	<circle cx="1487.85" cy="2163.34" r="14.97" style="fill:none;stroke:#606060;stroke-width:8.64"/>
	<circle cx="1503.81" cy="1096.58" r="14.97" style="fill:none;stroke:#606060;stroke-width:8.64"/>
	<circle cx="1503.81" cy="1061.19" r="14.97" style="fill:none;stroke:#606060;stroke-width:8.64"/>
	<circle cx="1519.90" cy="2061.12" r="14.97" style="fill:none;stroke:#606060;stroke-width:8.64"/>
	<circle cx="1519.90" cy="906.87" r="14.97" style="fill:none;stroke:#606060;stroke-width:8.64"/>
	<circle cx="1519.90" cy="2267.91" r="14.97" style="fill:none;stroke:#606060;stroke-width:8.64"/>
	<circle cx="1519.90" cy="1099.31" r="14.97" style="fill:none;stroke:#606060;stroke-width:8.64"/>
	<circle cx="1535.86" cy="1053.27" r="14.97" style="fill:none;stroke:#606060;stroke-width:8.64"/>
	<circle cx="1551.95" cy="1037.06" r="14.97" style="fill:none;stroke:#606060;stroke-width:8.64"/>
	<circle cx="1551.95" cy="2190.69" r="14.97" style="fill:none;stroke:#606060;stroke-width:8.64"/>
	<circle cx="1567.91" cy="1067.75" r="14.97" style="fill:none;stroke:#606060;stroke-width:8.64"/>
	<circle cx="1567.91" cy="870.36" r="14.97" style="fill:none;stroke:#606060;stroke-width:8.64"/>
	<circle cx="1567.91" cy="2128.94" r="14.97" style="fill:none;stroke:#606060;stroke-width:8.64"/>
	<circle cx="1567.91" cy="773.09" r="14.97" style="fill:none;stroke:#606060;stroke-width:8.64"/>
	<circle cx="1584.00" cy="958.47" r="14.97" style="fill:none;stroke:#606060;stroke-width:8.64"/>
	<circle cx="1584.00" cy="892.88" r="14.97" style="fill:none;stroke:#606060;stroke-width:8.64"/>
	<circle cx="1616.05" cy="2119.41" r="14.97" style="fill:none;stroke:#606060;stroke-width:8.64"/>
	<circle cx="1616.05" cy="1096.83" r="14.97" style="fill:none;stroke:#606060;stroke-width:8.64"/>
	<circle cx="1648.10" cy="964.66" r="14.97" style="fill:none;stroke:#606060;stroke-width:8.64"/>
	<circle cx="1664.07" cy="2163.71" r="14.97" style="fill:none;stroke:#606060;stroke-width:8.64"/>
	<circle cx="1664.07" cy="979.39" r="14.97" style="fill:none;stroke:#606060;stroke-width:8.64"/>
	<circle cx="1664.07" cy="916.03" r="14.97" style="fill:none;stroke:#606060;stroke-width:8.64"/>
	<circle cx="1680.15" cy="992.88" r="14.97" style="fill:none;stroke:#606060;stroke-width:8.64"/>
	<circle cx="1680.15" cy="2269.03" r="14.97" style="fill:none;stroke:#606060;stroke-width:8.64"/>
	<circle cx="1680.15" cy="1076.29" r="14.97" style="fill:none;stroke:#606060;stroke-width:8.64"/>
	<circle cx="1696.12" cy="1089.65" r="14.97" style="fill:none;stroke:#606060;stroke-width:8.64"/>
	<circle cx="1712.20" cy="2221.51" r="14.97" style="fill:none;stroke:#606060;stroke-width:8.64"/>
	<circle cx="1712.20" cy="860.71" r="14.97" style="fill:none;stroke:#606060;stroke-width:8.64"/>
	<circle cx="1712.20" cy="1076.29" r="14.97" style="fill:none;stroke:#606060;stroke-width:8.64"/>
	<circle cx="1712.20" cy="958.35" r="14.97" style="fill:none;stroke:#606060;stroke-width:8.64"/>
	<circle cx="1728.17" cy="999.81" r="14.97" style="fill:none;stroke:#606060;stroke-width:8.64"/>
	<circle cx="1728.17" cy="2350.21" r="14.97" style="fill:none;stroke:#606060;stroke-width:8.64"/>
	<circle cx="1744.26" cy="2163.84" r="14.97" style="fill:none;stroke:#606060;stroke-width:8.64"/>
	<circle cx="1760.22" cy="2325.58" r="14.97" style="fill:none;stroke:#606060;stroke-width:8.64"/>
	<circle cx="1760.22" cy="1037.18" r="14.97" style="fill:none;stroke:#606060;stroke-width:8.64"/>
	<circle cx="1776.31" cy="1101.16" r="14.97" style="fill:none;stroke:#606060;stroke-width:8.64"/>
	<circle cx="1792.27" cy="1089.90" r="14.97" style="fill:none;stroke:#606060;stroke-width:8.64"/>
	<circle cx="1792.27" cy="2232.77" r="14.97" style="fill:none;stroke:#606060;stroke-width:8.64"/>
	<circle cx="1808.36" cy="2318.28" r="14.97" style="fill:none;stroke:#606060;stroke-width:8.64"/>
	<circle cx="1808.36" cy="1076.41" r="14.97" style="fill:none;stroke:#606060;stroke-width:8.64"/>
	<circle cx="1824.32" cy="857.49" r="14.97" style="fill:none;stroke:#606060;stroke-width:8.64"/>
	<circle cx="1824.32" cy="1037.30" r="14.97" style="fill:none;stroke:#606060;stroke-width:8.64"/>
	<circle cx="1840.41" cy="716.91" r="14.97" style="fill:none;stroke:#606060;stroke-width:8.64"/>
	<circle cx="1840.41" cy="949.69" r="14.97" style="fill:none;stroke:#606060;stroke-width:8.64"/>
	<circle cx="1840.41" cy="847.59" r="14.97" style="fill:none;stroke:#606060;stroke-width:8.64"/>
	<circle cx="1904.51" cy="1053.64" r="14.97" style="fill:none;stroke:#606060;stroke-width:8.64"/>
	<circle cx="1904.51" cy="2329.17" r="14.97" style="fill:none;stroke:#606060;stroke-width:8.64"/>
	<circle cx="1904.51" cy="2051.72" r="14.97" style="fill:none;stroke:#606060;stroke-width:8.64"/>
	<circle cx="1920.60" cy="1096.95" r="14.97" style="fill:none;stroke:#606060;stroke-width:8.64"/>
	<circle cx="1920.60" cy="979.64" r="14.97" style="fill:none;stroke:#606060;stroke-width:8.64"/>
	<circle cx="1936.56" cy="1061.56" r="14.97" style="fill:none;stroke:#606060;stroke-width:8.64"/>
	<circle cx="1968.62" cy="974.31" r="14.97" style="fill:none;stroke:#606060;stroke-width:8.64"/>
	<circle cx="1984.70" cy="2268.41" r="14.97" style="fill:none;stroke:#606060;stroke-width:8.64"/>
	<circle cx="2016.75" cy="935.83" r="14.97" style="fill:none;stroke:#606060;stroke-width:8.64"/>
	<circle cx="2032.72" cy="2332.76" r="14.97" style="fill:none;stroke:#606060;stroke-width:8.64"/>
	<circle cx="2048.80" cy="945.73" r="14.97" style="fill:none;stroke:#606060;stroke-width:8.64"/>
	<circle cx="2064.77" cy="1099.80" r="14.97" style="fill:none;stroke:#606060;stroke-width:8.64"/>
	<circle cx="2080.86" cy="1067.87" r="14.97" style="fill:none;stroke:#606060;stroke-width:8.64"/>
	<circle cx="2080.86" cy="2260.49" r="14.97" style="fill:none;stroke:#606060;stroke-width:8.64"/>
	<circle cx="2128.87" cy="937.19" r="14.97" style="fill:none;stroke:#606060;stroke-width:8.64"/>
	<circle cx="2128.87" cy="2339.44" r="14.97" style="fill:none;stroke:#606060;stroke-width:8.64"/>
	<circle cx="2144.96" cy="1080.50" r="14.97" style="fill:none;stroke:#606060;stroke-width:8.64"/>
	<circle cx="2160.92" cy="1061.93" r="14.97" style="fill:none;stroke:#606060;stroke-width:8.64"/>
	<circle cx="2160.92" cy="2071.76" r="14.97" style="fill:none;stroke:#606060;stroke-width:8.64"/>
	<circle cx="2177.01" cy="933.85" r="14.97" style="fill:none;stroke:#606060;stroke-width:8.64"/>
	<circle cx="2177.01" cy="2260.86" r="14.97" style="fill:none;stroke:#606060;stroke-width:8.64"/>
	<circle cx="2192.97" cy="2346.74" r="14.97" style="fill:none;stroke:#606060;stroke-width:8.64"/>
	<circle cx="2192.97" cy="993.62" r="14.97" style="fill:none;stroke:#606060;stroke-width:8.64"/>
	<circle cx="2225.03" cy="1046.22" r="14.97" style="fill:none;stroke:#606060;stroke-width:8.64"/>
	<circle cx="2241.11" cy="959.09" r="14.97" style="fill:none;stroke:#606060;stroke-width:8.64"/>
	<circle cx="2305.22" cy="2120.77" r="14.97" style="fill:none;stroke:#606060;stroke-width:8.64"/>
	<circle cx="2337.27" cy="2010.88" r="14.97" style="fill:none;stroke:#606060;stroke-width:8.64"/>
	<circle cx="2353.23" cy="973.57" r="14.97" style="fill:none;stroke:#606060;stroke-width:8.64"/>
	<circle cx="2401.37" cy="1077.52" r="14.97" style="fill:none;stroke:#606060;stroke-width:8.64"/>
	<circle cx="2449.38" cy="959.59" r="14.97" style="fill:none;stroke:#606060;stroke-width:8.64"/>
	<circle cx="2481.43" cy="965.90" r="14.97" style="fill:none;stroke:#606060;stroke-width:8.64"/>
	<circle cx="2641.69" cy="908.60" r="14.97" style="fill:none;stroke:#606060;stroke-width:8.64"/>
	<circle cx="2689.83" cy="1084.83" r="14.97" style="fill:none;stroke:#606060;stroke-width:8.64"/>
	<circle cx="2753.93" cy="871.60" r="14.97" style="fill:none;stroke:#606060;stroke-width:8.64"/>
	<circle cx="2818.03" cy="2261.60" r="14.97" style="fill:none;stroke:#606060;stroke-width:8.64"/>
	<circle cx="2930.28" cy="1098.32" r="14.97" style="fill:none;stroke:#606060;stroke-width:8.64"/>
	<circle cx="2962.33" cy="946.96" r="14.97" style="fill:none;stroke:#606060;stroke-width:8.64"/>
	<circle cx="2994.38" cy="1003.77" r="14.97" style="fill:none;stroke:#606060;stroke-width:8.64"/>
	<circle cx="3010.34" cy="2334.25" r="14.97" style="fill:none;stroke:#606060;stroke-width:8.64"/>
	<circle cx="3154.64" cy="813.93" r="14.97" style="fill:none;stroke:#606060;stroke-width:8.64"/>
	<circle cx="3186.69" cy="1070.72" r="14.97" style="fill:none;stroke:#606060;stroke-width:8.64"/>
	<circle cx="3218.74" cy="947.34" r="14.97" style="fill:none;stroke:#606060;stroke-width:8.64"/>
	<circle cx="3250.79" cy="1085.32" r="14.97" style="fill:none;stroke:#606060;stroke-width:8.64"/>
	<circle cx="3266.75" cy="1039.04" r="14.97" style="fill:none;stroke:#606060;stroke-width:8.64"/>
	<circle cx="3330.86" cy="1039.16" r="14.97" style="fill:none;stroke:#606060;stroke-width:8.64"/>
	<circle cx="3346.94" cy="2304.30" r="14.97" style="fill:none;stroke:#606060;stroke-width:8.64"/>
	<circle cx="3362.91" cy="2288.21" r="14.97" style="fill:none;stroke:#606060;stroke-width:8.64"/>
	<circle cx="3362.91" cy="981.37" r="14.97" style="fill:none;stroke:#606060;stroke-width:8.64"/>
	<circle cx="3411.05" cy="2215.94" r="14.97" style="fill:none;stroke:#606060;stroke-width:8.64"/>
	<circle cx="3427.01" cy="2350.83" r="14.97" style="fill:none;stroke:#606060;stroke-width:8.64"/>
	<circle cx="3443.10" cy="995.10" r="14.97" style="fill:none;stroke:#606060;stroke-width:8.64"/>
	<circle cx="3443.10" cy="957.36" r="14.97" style="fill:none;stroke:#606060;stroke-width:8.64"/>
	<circle cx="3459.06" cy="2271.38" r="14.97" style="fill:none;stroke:#606060;stroke-width:8.64"/>
	<circle cx="3459.06" cy="918.25" r="14.97" style="fill:none;stroke:#606060;stroke-width:8.64"/>
	<circle cx="3475.15" cy="981.74" r="14.97" style="fill:none;stroke:#606060;stroke-width:8.64"/>
	<circle cx="3491.11" cy="985.95" r="14.97" style="fill:none;stroke:#606060;stroke-width:8.64"/>
	<circle cx="3491.11" cy="1071.34" r="14.97" style="fill:none;stroke:#606060;stroke-width:8.64"/>
	<circle cx="3491.11" cy="908.72" r="14.97" style="fill:none;stroke:#606060;stroke-width:8.64"/>
	<circle cx="3507.20" cy="2334.86" r="14.97" style="fill:none;stroke:#606060;stroke-width:8.64"/>
	<circle cx="3523.16" cy="1730.33" r="14.97" style="fill:none;stroke:#606060;stroke-width:8.64"/>
	<circle cx="3587.26" cy="2313.08" r="14.97" style="fill:none;stroke:#606060;stroke-width:8.64"/>
	<circle cx="3587.26" cy="1021.59" r="14.97" style="fill:none;stroke:#606060;stroke-width:8.64"/>
	<circle cx="3603.35" cy="2244.65" r="14.97" style="fill:none;stroke:#606060;stroke-width:8.64"/>
	<circle cx="3603.35" cy="2158.89" r="14.97" style="fill:none;stroke:#606060;stroke-width:8.64"/>
	<circle cx="3603.35" cy="1086.06" r="14.97" style="fill:none;stroke:#606060;stroke-width:8.64"/>
	<circle cx="3619.32" cy="2128.81" r="14.97" style="fill:none;stroke:#606060;stroke-width:8.64"/>
	<circle cx="3619.32" cy="1064.04" r="14.97" style="fill:none;stroke:#606060;stroke-width:8.64"/>
	<circle cx="3635.40" cy="824.70" r="14.97" style="fill:none;stroke:#606060;stroke-width:8.64"/>
	<circle cx="3651.37" cy="2083.64" r="14.97" style="fill:none;stroke:#606060;stroke-width:8.64"/>
	<circle cx="3667.45" cy="2335.36" r="14.97" style="fill:none;stroke:#606060;stroke-width:8.64"/>
	<circle cx="3683.42" cy="2235.61" r="14.97" style="fill:none;stroke:#606060;stroke-width:8.64"/>
	<circle cx="3683.42" cy="960.33" r="14.97" style="fill:none;stroke:#606060;stroke-width:8.64"/>
	<circle cx="3683.42" cy="854.03" r="14.97" style="fill:none;stroke:#606060;stroke-width:8.64"/>
	<circle cx="3699.51" cy="1092.75" r="14.97" style="fill:none;stroke:#606060;stroke-width:8.64"/>
	<circle cx="3699.51" cy="1039.78" r="14.97" style="fill:none;stroke:#606060;stroke-width:8.64"/>
	<circle cx="3699.51" cy="824.94" r="14.97" style="fill:none;stroke:#606060;stroke-width:8.64"/>
	<circle cx="3715.47" cy="986.44" r="14.97" style="fill:none;stroke:#606060;stroke-width:8.64"/>
	<circle cx="3715.47" cy="2207.15" r="14.97" style="fill:none;stroke:#606060;stroke-width:8.64"/>
	<circle cx="3731.56" cy="909.22" r="14.97" style="fill:none;stroke:#606060;stroke-width:8.64"/>
	<circle cx="3747.52" cy="909.22" r="14.97" style="fill:none;stroke:#606060;stroke-width:8.64"/>
	<circle cx="3747.52" cy="2305.53" r="14.97" style="fill:none;stroke:#606060;stroke-width:8.64"/>
	<circle cx="3747.52" cy="977.04" r="14.97" style="fill:none;stroke:#606060;stroke-width:8.64"/>
	<circle cx="3747.52" cy="1048.20" r="14.97" style="fill:none;stroke:#606060;stroke-width:8.64"/>
	<circle cx="3747.52" cy="1031.49" r="14.97" style="fill:none;stroke:#606060;stroke-width:8.64"/>
	<circle cx="3763.61" cy="917.51" r="14.97" style="fill:none;stroke:#606060;stroke-width:8.64"/>
	<circle cx="3763.61" cy="1022.70" r="14.97" style="fill:none;stroke:#606060;stroke-width:8.64"/>
	<circle cx="3779.57" cy="899.20" r="14.97" style="fill:none;stroke:#606060;stroke-width:8.64"/>
	<circle cx="3795.66" cy="599.22" r="14.97" style="fill:none;stroke:#606060;stroke-width:8.64"/>
	<circle cx="3795.66" cy="1056.24" r="14.97" style="fill:none;stroke:#606060;stroke-width:8.64"/>
	<circle cx="3795.66" cy="986.32" r="14.97" style="fill:none;stroke:#606060;stroke-width:8.64"/>
	<circle cx="3795.66" cy="863.43" r="14.97" style="fill:none;stroke:#606060;stroke-width:8.64"/>
	<path d=" M590.29 1373.54 L638.43 1370.82 L654.39 1376.02 L670.48 1374.04 L686.44 1370.95 L686.44 1368.97 L686.44 1375.52 L686.44 1372.93 L702.53 1378.87 L702.53 1375.77 L702.53 1381.96 L718.49 1379.73 L718.49 1385.92 L734.58 1390.13 L750.54 1388.27 L750.54 1386.29 L750.54 1392.23 L750.54 1397.68 L750.54 1395.32 L766.63 1393.47 L766.63 1391.61 L766.63 1389.88 L766.63 1388.15 L782.60 1392.97 L782.60 1390.37 L798.68 1394.46 L798.68 1391.49 L798.68 1388.89 L798.68 1393.22 L798.68 1390.25 L798.68 1387.03 L814.65 1390.62 L814.65 1388.89 L814.65 1386.17 L814.65 1390.62 L814.65 1389.01 L814.65 1387.40 L830.73 1385.18 L830.73 1383.44 L830.73 1381.84 L846.70 1378.99 L846.70 1377.13 L846.70 1374.91 L862.78 1372.68 L862.78 1371.19 L862.78 1369.46 L862.78 1374.16 L878.75 1379.24 L878.75 1377.50 L878.75 1382.33 L878.75 1380.35 L894.84 1384.19 L894.84 1382.45 L894.84 1379.98 L894.84 1384.31 L894.84 1382.33 L894.84 1380.85 L894.84 1378.74 L894.84 1376.27 L894.84 1379.86 L910.80 1377.38 L910.80 1375.77 L910.80 1374.29 L910.80 1372.68 L910.80 1370.95 L910.80 1369.09 L910.80 1366.99 L910.80 1365.38 L910.80 1363.52 L910.80 1360.92 L926.89 1359.68 L926.89 1357.58 L926.89 1362.16 L926.89 1366.37 L926.89 1365.01 L926.89 1363.64 L942.98 1368.22 L942.98 1372.68 L942.98 1371.07 L942.98 1369.21 L942.98 1372.80 L942.98 1371.56 L942.98 1370.20 L942.98 1373.17 L942.98 1371.19 L942.98 1375.03 L958.94 1373.92 L958.94 1372.43 L958.94 1371.07 L975.03 1374.53 L975.03 1373.30 L975.03 1371.07 L990.99 1374.29 L990.99 1371.81 L990.99 1370.08 L990.99 1368.10 L990.99 1371.19 L990.99 1370.08 L990.99 1368.35 L990.99 1371.69 L1007.08 1370.08 L1007.08 1368.22 L1007.08 1366.61 L1007.08 1370.33 L1023.04 1369.09 L1023.04 1367.98 L1023.04 1371.44 L1023.04 1369.34 L1023.04 1368.22 L1023.04 1366.61 L1039.13 1365.13 L1039.13 1368.97 L1039.13 1372.18 L1039.13 1375.77 L1039.13 1374.53 L1039.13 1373.42 L1039.13 1372.43 L1039.13 1375.65 L1055.09 1379.24 L1055.09 1378.12 L1055.09 1376.14 L1055.09 1374.91 L1055.09 1372.43 L1071.18 1370.82 L1071.18 1368.84 L1071.18 1367.73 L1087.14 1371.19 L1087.14 1373.79 L1087.14 1372.80 L1087.14 1371.32 L1103.23 1370.20 L1103.23 1368.72 L1103.23 1371.94 L1103.23 1370.45 L1103.23 1373.92 L1119.19 1372.31 L1119.19 1371.32 L1135.28 1370.33 L1135.28 1373.42 L1135.28 1371.94 L1135.28 1375.28 L1135.28 1374.29 L1151.25 1373.17 L1151.25 1375.65 L1151.25 1375.28 L1151.25 1375.03 L1151.25 1379.86 L1151.25 1379.61 L1167.33 1379.48 L1167.33 1379.11 L1167.33 1383.07 L1167.33 1386.79 L1167.33 1387.28 L1167.33 1387.16 L1167.33 1386.66 L1183.30 1386.66 L1183.30 1386.29 L1183.30 1386.41 L1183.30 1385.80 L1199.38 1385.80 L1199.38 1381.46 L1199.38 1381.09 L1215.35 1376.51 L1215.35 1382.08 L1215.35 1381.34 L1215.35 1381.34 L1231.44 1376.89 L1231.44 1377.13 L1231.44 1372.55 L1231.44 1372.43 L1247.40 1377.01 L1247.40 1381.22 L1247.40 1381.09 L1247.40 1385.05 L1263.49 1385.30 L1263.49 1385.05 L1279.45 1385.05 L1279.45 1389.14 L1279.45 1384.31 L1279.45 1379.48 L1279.45 1379.11 L1295.54 1379.61 L1311.50 1379.11 L1311.50 1383.57 L1311.50 1381.96 L1327.59 1386.66 L1327.59 1386.79 L1327.59 1386.91 L1327.59 1390.62 L1327.59 1390.75 L1327.59 1390.37 L1327.59 1390.87 L1343.55 1386.04 L1343.55 1389.63 L1343.55 1390.37 L1343.55 1394.46 L1343.55 1390.25 L1343.55 1389.76 L1343.55 1390.50 L1359.64 1390.50 L1359.64 1389.51 L1359.64 1389.38 L1359.64 1393.72 L1375.61 1393.10 L1375.61 1392.85 L1391.69 1393.47 L1391.69 1393.10 L1391.69 1393.47 L1391.69 1393.72 L1391.69 1393.22 L1391.69 1388.52 L1407.66 1388.15 L1407.66 1382.08 L1407.66 1377.63 L1423.74 1377.50 L1423.74 1377.26 L1455.80 1374.41 L1455.80 1375.40 L1455.80 1376.51 L1471.76 1377.88 L1471.76 1378.99 L1471.76 1379.98 L1487.85 1380.97 L1487.85 1377.75 L1503.81 1374.53 L1503.81 1371.56 L1519.90 1372.93 L1519.90 1374.16 L1519.90 1375.15 L1519.90 1373.17 L1535.86 1370.20 L1551.95 1366.74 L1551.95 1367.73 L1567.91 1368.84 L1567.91 1365.75 L1567.91 1367.23 L1567.91 1363.52 L1584.00 1364.76 L1584.00 1361.66 L1616.05 1362.65 L1616.05 1360.67 L1648.10 1361.79 L1664.07 1363.15 L1664.07 1364.14 L1664.07 1365.13 L1680.15 1366.24 L1680.15 1367.98 L1680.15 1369.58 L1696.12 1366.49 L1712.20 1367.73 L1712.20 1369.34 L1712.20 1370.45 L1712.20 1373.05 L1728.17 1374.04 L1728.17 1375.90 L1744.26 1377.26 L1760.22 1374.41 L1760.22 1375.65 L1776.31 1377.75 L1792.27 1379.48 L1792.27 1376.27 L1808.36 1372.68 L1808.36 1374.04 L1824.32 1376.39 L1824.32 1377.88 L1840.41 1379.24 L1840.41 1380.47 L1840.41 1382.45 L1904.51 1378.25 L1904.51 1379.48 L1904.51 1380.72 L1920.60 1382.21 L1920.60 1383.57 L1936.56 1379.98 L1968.62 1376.89 L1984.70 1378.37 L2016.75 1374.29 L2032.72 1370.95 L2048.80 1373.42 L2064.77 1374.91 L2080.86 1376.27 L2080.86 1371.81 L2128.87 1373.17 L2128.87 1374.41 L2144.96 1376.64 L2160.92 1372.55 L2160.92 1374.04 L2177.01 1369.58 L2177.01 1371.44 L2192.97 1367.85 L2192.97 1369.09 L2225.03 1371.32 L2241.11 1372.68 L2305.22 1367.98 L2337.27 1369.83 L2353.23 1365.38 L2401.37 1367.73 L2449.38 1363.03 L2481.43 1364.63 L2641.69 1359.81 L2689.83 1356.34 L2753.93 1357.70 L2818.03 1359.06 L2930.28 1354.24 L2962.33 1349.66 L2994.38 1351.27 L3010.34 1352.51 L3154.64 1353.87 L3186.69 1355.23 L3218.74 1356.59 L3250.79 1352.13 L3266.75 1354.24 L3330.86 1350.40 L3346.94 1352.75 L3362.91 1354.98 L3362.91 1350.77 L3411.05 1353.37 L3427.01 1356.22 L3443.10 1352.63 L3443.10 1354.11 L3459.06 1356.47 L3459.06 1352.01 L3475.15 1353.37 L3491.11 1354.86 L3491.11 1356.84 L3491.11 1358.57 L3507.20 1360.06 L3523.16 1362.90 L3587.26 1364.76 L3587.26 1367.11 L3603.35 1369.46 L3603.35 1371.07 L3603.35 1372.93 L3619.32 1367.85 L3619.32 1361.91 L3635.40 1363.89 L3651.37 1358.07 L3667.45 1360.30 L3683.42 1355.60 L3683.42 1357.58 L3683.42 1360.43 L3699.51 1354.86 L3699.51 1357.21 L3699.51 1358.94 L3715.47 1361.54 L3715.47 1364.51 L3731.56 1359.81 L3747.52 1362.90 L3747.52 1365.01 L3747.52 1366.99 L3747.52 1369.09 L3747.52 1371.44 L3763.61 1373.92 L3763.61 1377.01 L3779.57 1379.36 L3795.66 1382.21 L3795.66 1385.92 L3795.66 1388.02 L3795.66 1391.49" stroke-linejoin="round" style="fill:none;stroke:#000000;stroke-width:8.64"/>
	<line x1="350.71" y1="2414.69" x2="350.71" y2="235.38" style="stroke:#000000;stroke-width:5.76"/>
	<line x1="350.71" y1="2340.56" x2="310.74" y2="2340.56" style="stroke:#000000;stroke-width:5.76"/>
	<text x="266.64" y="2340.56" style="font-family:'Helvetica';font-size:79.94px;fill:#000000" transform="rotate(-90 266.64,2340.56)" text-anchor="middle">-4</text>
	<line x1="350.71" y1="1830.07" x2="310.74" y2="1830.07" style="stroke:#000000;stroke-width:5.76"/>
	<text x="266.64" y="1830.07" style="font-family:'Helvetica';font-size:79.94px;fill:#000000" transform="rotate(-90 266.64,1830.07)" text-anchor="middle">-2</text>
	<line x1="350.71" y1="1319.59" x2="310.74" y2="1319.59" style="stroke:#000000;stroke-width:5.76"/>
	<text x="266.64" y="1319.59" style="font-family:'Helvetica';font-size:79.94px;fill:#000000" transform="rotate(-90 266.64,1319.59)" text-anchor="middle">0</text>
	<line x1="350.71" y1="809.23" x2="310.74" y2="809.23" style="stroke:#000000;stroke-width:5.76"/>
	<text x="266.64" y="809.23" style="font-family:'Helvetica';font-size:79.94px;fill:#000000" transform="rotate(-90 266.64,809.23)" text-anchor="middle">2</text>
	<line x1="350.71" y1="298.74" x2="310.74" y2="298.74" style="stroke:#000000;stroke-width:5.76"/>
	<text x="266.64" y="298.74" style="font-family:'Helvetica';font-size:79.94px;fill:#000000" transform="rotate(-90 266.64,298.74)" text-anchor="middle">4</text>
	<text x="176.68" y="1325.03" style="font-family:'Helvetica';font-size:79.94px;fill:#000000" transform="rotate(-90 176.68,1325.03)" text-anchor="middle">Scaled Schoenfeld Residuals</text>
	<line x1="350.71" y1="2414.69" x2="3859.02" y2="2414.69" style="stroke:#000000;stroke-width:5.76"/>
	<line x1="414.07" y1="2414.69" x2="414.07" y2="2454.66" style="stroke:#000000;stroke-width:5.76"/>
	<text x="414.07" y="2530.61" style="font-family:'Helvetica';font-size:79.94px;fill:#000000" text-anchor="middle">0</text>
	<line x1="1215.47" y1="2414.69" x2="1215.47" y2="2454.66" style="stroke:#000000;stroke-width:5.76"/>
	<text x="1215.47" y="2530.61" style="font-family:'Helvetica';font-size:79.94px;fill:#000000" text-anchor="middle">50</text>
	<line x1="2016.75" y1="2414.69" x2="2016.75" y2="2454.66" style="stroke:#000000;stroke-width:5.76"/>
	<text x="2016.75" y="2530.61" style="font-family:'Helvetica';font-size:79.94px;fill:#000000" text-anchor="middle">100</text>
	<line x1="2818.03" y1="2414.69" x2="2818.03" y2="2454.66" style="stroke:#000000;stroke-width:5.76"/>
	<text x="2818.03" y="2530.61" style="font-family:'Helvetica';font-size:79.94px;fill:#000000" text-anchor="middle">150</text>
	<line x1="3619.44" y1="2414.69" x2="3619.44" y2="2454.66" style="stroke:#000000;stroke-width:5.76"/>
	<text x="3619.44" y="2530.61" style="font-family:'Helvetica';font-size:79.94px;fill:#000000" text-anchor="middle">200</text>
	<text x="2104.86" y="2620.57" style="font-family:'Helvetica';font-size:79.94px;fill:#000000" text-anchor="middle">Time</text>
	<text x="368.03" y="2737.89" style="font-family:'Helvetica';font-size:79.94px;fill:#000000">bandwidth = .8</text>
	<text x="368.03" y="187.99" style="font-family:'Helvetica';font-size:99.99px;fill:#000000">Schoenfeld residuals against time, age and sex adjusted</text>
</svg>
