<?xml version="1.0" encoding="UTF-8" standalone="no"?>
<!-- This is a Stata 16.1 generated SVG file (http://www.stata.com) -->

<svg version="1.1" width="5.50in" height="4.00in" viewBox="0 0 3960 2880" xmlns="http://www.w3.org/2000/svg" xmlns:xlink="http://www.w3.org/1999/xlink">
	<desc>Stata Graph - Graph</desc>
	<rect x="0" y="0" width="3960" height="2880" style="fill:#EAF2F3;stroke:none"/>
	<rect x="0.00" y="0.00" width="3959.88" height="2880.00" style="fill:#EAF2F3"/>
	<rect x="2.88" y="2.88" width="3954.12" height="2874.24" style="fill:none;stroke:#EAF2F3;stroke-width:5.76"/>
	<rect x="521.73" y="100.86" width="3337.29" height="2388.33" style="fill:#FFFFFF"/>
	<rect x="524.61" y="103.74" width="3331.53" height="2382.57" style="fill:none;stroke:#FFFFFF;stroke-width:5.76"/>
	<line x1="521.73" y1="2425.82" x2="3859.02" y2="2425.82" style="stroke:#EAF2F3;stroke-width:8.64"/>
	<line x1="521.73" y1="2102.70" x2="3859.02" y2="2102.70" style="stroke:#EAF2F3;stroke-width:8.64"/>
	<line x1="521.73" y1="1779.70" x2="3859.02" y2="1779.70" style="stroke:#EAF2F3;stroke-width:8.64"/>
	<line x1="521.73" y1="1456.58" x2="3859.02" y2="1456.58" style="stroke:#EAF2F3;stroke-width:8.64"/>
	<line x1="521.73" y1="1133.46" x2="3859.02" y2="1133.46" style="stroke:#EAF2F3;stroke-width:8.64"/>
	<line x1="521.73" y1="810.34" x2="3859.02" y2="810.34" style="stroke:#EAF2F3;stroke-width:8.64"/>
	<line x1="521.73" y1="487.22" x2="3859.02" y2="487.22" style="stroke:#EAF2F3;stroke-width:8.64"/>
	<line x1="521.73" y1="164.22" x2="3859.02" y2="164.22" style="stroke:#EAF2F3;stroke-width:8.64"/>
	<defs>
		<path id="path_tikwPuuy" d="M600.31 2425.82 L600.31 2425.82 L615.53 2425.82 L630.75 2425.82 L645.98 2425.82 L661.20 2425.70 L676.42 2425.45 L691.64 2425.20 L706.86 2424.71 L722.08 2424.21 L737.30 2423.47 L752.52 2422.61 L767.75 2421.49 L782.97 2420.25 L798.19 2418.65 L813.41 2416.91 L828.63 2415.06 L843.85 2412.83 L859.07 2410.35 L874.29 2407.63 L889.51 2404.66 L904.61 2401.44 L919.83 2398.10 L935.05 2394.39 L950.28 2390.43 L965.50 2386.22 L980.72 2381.77 L995.94 2377.06 L1011.16 2372.11 L1026.38 2367.04 L1041.60 2361.60 L1056.83 2356.03 L1072.05 2350.21 L1087.27 2344.15 L1102.49 2337.96 L1117.71 2331.52 L1132.93 2324.84 L1148.15 2318.03 L1163.37 2311.10 L1178.60 2303.80 L1193.82 2296.50 L1209.04 2288.95 L1224.26 2281.28 L1239.48 2273.48 L1254.70 2265.44 L1269.80 2257.27 L1285.02 2248.98 L1300.24 2240.56 L1315.46 2232.02 L1330.68 2223.36 L1345.90 2214.58 L1361.13 2205.67 L1376.35 2196.63 L1391.57 2187.47 L1406.79 2178.19 L1422.01 2168.79 L1437.23 2159.38 L1452.45 2149.85 L1467.67 2140.20 L1482.90 2130.55 L1498.12 2120.77 L1513.34 2110.87 L1528.56 2100.85 L1543.78 2090.82 L1559.00 2080.80 L1574.22 2070.65 L1589.44 2060.38 L1604.67 2050.11 L1619.76 2039.83 L1634.98 2029.44 L1650.21 2018.92 L1665.43 2008.40 L1680.65 1997.88 L1695.87 1987.36 L1711.09 1976.72 L1726.31 1966.08 L1741.53 1955.43 L1756.76 1944.67 L1771.98 1933.90 L1787.20 1923.14 L1802.42 1912.37 L1817.64 1901.48 L1832.86 1890.71 L1848.08 1879.82 L1863.30 1868.93 L1878.53 1858.04 L1893.75 1847.15 L1908.97 1836.26 L1924.19 1825.37 L1939.41 1814.36 L1954.63 1803.47 L1969.85 1792.57 L1984.95 1781.56 L2000.17 1770.67 L2015.39 1759.66 L2030.61 1748.77 L2045.84 1737.88 L2061.06 1726.86 L2076.28 1715.97 L2091.50 1705.08 L2106.72 1694.07 L2121.94 1683.18 L2137.16 1672.29 L2152.38 1661.40 L2167.61 1650.38 L2182.83 1639.49 L2198.05 1628.60 L2213.27 1617.71 L2228.49 1606.70 L2243.71 1595.81 L2258.93 1584.92 L2274.15 1574.03 L2289.38 1563.14 L2304.60 1552.24 L2319.82 1541.23 L2335.04 1530.34 L2350.14 1519.45 L2365.36 1508.56 L2380.58 1497.67 L2395.80 1486.66 L2411.02 1475.76 L2426.24 1464.87 L2441.46 1453.86 L2456.68 1442.97 L2471.91 1432.08 L2487.13 1421.07 L2502.35 1410.18 L2517.57 1399.16 L2532.79 1388.27 L2548.01 1377.26 L2563.23 1366.37 L2578.45 1355.35 L2593.68 1344.34 L2608.90 1333.32 L2624.12 1322.31 L2639.34 1311.30 L2654.56 1300.28 L2669.78 1289.14 L2685.00 1278.13 L2700.22 1267.12 L2715.32 1255.98 L2730.54 1244.84 L2745.76 1233.70 L2760.99 1222.56 L2776.21 1211.43 L2791.43 1200.29 L2806.65 1189.15 L2821.87 1177.89 L2837.09 1166.75 L2852.31 1155.49 L2867.53 1144.23 L2882.76 1132.97 L2897.98 1121.58 L2913.20 1110.32 L2928.42 1098.93 L2943.64 1087.55 L2958.86 1076.16 L2974.08 1064.78 L2989.30 1053.39 L3004.53 1041.88 L3019.75 1030.37 L3034.97 1018.87 L3050.19 1007.36 L3065.41 995.85 L3080.51 984.34 L3095.73 972.71 L3110.95 961.07 L3126.17 949.44 L3141.39 937.81 L3156.61 926.17 L3171.84 914.54 L3187.06 902.78 L3202.28 891.15 L3217.50 879.39 L3232.72 867.64 L3247.94 855.88 L3263.16 844.00 L3278.39 832.24 L3293.61 820.49 L3308.83 808.61 L3324.05 796.73 L3339.27 784.85 L3354.49 772.97 L3369.71 761.09 L3384.93 749.21 L3400.16 737.33 L3415.38 725.32 L3430.47 713.32 L3445.70 701.44 L3460.92 689.43 L3476.14 677.43 L3491.36 665.42 L3506.58 653.42 L3521.80 641.42 L3537.02 629.29 L3552.24 617.28 L3567.47 605.16 L3582.69 593.15 L3597.91 581.02 L3613.13 568.90 L3628.35 556.77 L3643.57 544.64 L3658.79 532.51 L3674.01 520.39 L3689.24 508.26 L3704.46 496.01 L3719.68 483.88 L3734.90 471.63 L3750.12 459.50 L3765.34 447.25 L3780.56 434.99 L3795.66 422.74 L3795.66 172.76 L3780.56 186.50 L3765.34 200.23 L3750.12 213.85 L3734.90 227.46 L3719.68 241.07 L3704.46 254.69 L3689.24 268.30 L3674.01 281.91 L3658.79 295.40 L3643.57 309.01 L3628.35 322.50 L3613.13 335.99 L3597.91 349.48 L3582.69 362.85 L3567.47 376.34 L3552.24 389.70 L3537.02 403.19 L3521.80 416.56 L3506.58 429.80 L3491.36 443.16 L3476.14 456.53 L3460.92 469.77 L3445.70 483.01 L3430.47 496.25 L3415.38 509.49 L3400.16 522.74 L3384.93 535.98 L3369.71 549.10 L3354.49 562.21 L3339.27 575.33 L3324.05 588.45 L3308.83 601.57 L3293.61 614.69 L3278.39 627.68 L3263.16 640.67 L3247.94 653.79 L3232.72 666.79 L3217.50 679.66 L3202.28 692.65 L3187.06 705.64 L3171.84 718.51 L3156.61 731.39 L3141.39 744.26 L3126.17 757.13 L3110.95 770.00 L3095.73 782.74 L3080.51 795.61 L3065.41 808.36 L3050.19 821.11 L3034.97 833.85 L3019.75 846.60 L3004.53 859.22 L2989.30 871.97 L2974.08 884.59 L2958.86 897.22 L2943.64 909.84 L2928.42 922.46 L2913.20 935.08 L2897.98 947.58 L2882.76 960.21 L2867.53 972.71 L2852.31 985.20 L2837.09 997.70 L2821.87 1010.20 L2806.65 1022.70 L2791.43 1035.08 L2776.21 1047.58 L2760.99 1059.95 L2745.76 1072.33 L2730.54 1084.83 L2715.32 1097.20 L2700.22 1109.58 L2685.00 1121.83 L2669.78 1134.20 L2654.56 1146.58 L2639.34 1158.83 L2624.12 1171.21 L2608.90 1183.46 L2593.68 1195.71 L2578.45 1207.96 L2563.23 1220.21 L2548.01 1232.46 L2532.79 1244.72 L2517.57 1256.97 L2502.35 1269.22 L2487.13 1281.35 L2471.91 1293.60 L2456.68 1305.85 L2441.46 1317.98 L2426.24 1330.23 L2411.02 1342.36 L2395.80 1354.49 L2380.58 1366.74 L2365.36 1378.87 L2350.14 1390.99 L2335.04 1403.12 L2319.82 1415.25 L2304.60 1427.50 L2289.38 1439.63 L2274.15 1451.76 L2258.93 1463.88 L2243.71 1476.01 L2228.49 1488.14 L2213.27 1500.27 L2198.05 1512.40 L2182.83 1524.52 L2167.61 1536.65 L2152.38 1548.78 L2137.16 1560.91 L2121.94 1573.04 L2106.72 1585.16 L2091.50 1597.29 L2076.28 1609.42 L2061.06 1621.67 L2045.84 1633.80 L2030.61 1645.93 L2015.39 1658.05 L2000.17 1670.31 L1984.95 1682.43 L1969.85 1694.69 L1954.63 1706.81 L1939.41 1719.06 L1924.19 1731.19 L1908.97 1743.44 L1893.75 1755.57 L1878.53 1767.82 L1863.30 1780.08 L1848.08 1792.20 L1832.86 1804.46 L1817.64 1816.58 L1802.42 1828.71 L1787.20 1840.84 L1771.98 1852.97 L1756.76 1865.09 L1741.53 1877.22 L1726.31 1889.23 L1711.09 1901.35 L1695.87 1913.36 L1680.65 1925.24 L1665.43 1937.24 L1650.21 1949.12 L1634.98 1960.88 L1619.76 1972.76 L1604.67 1984.39 L1589.44 1996.15 L1574.22 2007.78 L1559.00 2019.29 L1543.78 2030.80 L1528.56 2042.19 L1513.34 2053.57 L1498.12 2064.83 L1482.90 2075.97 L1467.67 2086.99 L1452.45 2098.00 L1437.23 2108.89 L1422.01 2119.66 L1406.79 2130.30 L1391.57 2140.94 L1376.35 2151.34 L1361.13 2161.61 L1345.90 2171.88 L1330.68 2181.90 L1315.46 2191.80 L1300.24 2201.58 L1285.02 2211.23 L1269.80 2220.64 L1254.70 2229.92 L1239.48 2239.08 L1224.26 2248.11 L1209.04 2256.90 L1193.82 2265.56 L1178.60 2273.98 L1163.37 2282.15 L1148.15 2290.19 L1132.93 2298.11 L1117.71 2305.78 L1102.49 2313.21 L1087.27 2320.39 L1072.05 2327.44 L1056.83 2334.25 L1041.60 2340.80 L1026.38 2347.12 L1011.16 2353.30 L995.94 2359.12 L980.72 2364.81 L965.50 2370.13 L950.28 2375.33 L935.05 2380.16 L919.83 2384.86 L904.61 2389.19 L889.51 2393.40 L874.29 2397.24 L859.07 2400.83 L843.85 2404.17 L828.63 2407.26 L813.41 2410.11 L798.19 2412.71 L782.97 2415.06 L767.75 2417.16 L752.52 2419.02 L737.30 2420.50 L722.08 2421.86 L706.86 2422.98 L691.64 2423.84 L676.42 2424.59 L661.20 2425.08 L645.98 2425.45 L630.75 2425.70 L615.53 2425.82 L600.31 2425.82 L600.31 2425.82 Z" stroke-linejoin="round"/>
	</defs>
	<defs>
		<clipPath id="clipPath_CCETQRcH">
			<use xlink:href="#path_tikwPuuy"/>
		</clipPath>
	</defs>
	<use xlink:href="#path_tikwPuuy" style="stroke:none;fill:#3333FF;fill-opacity:0.25"/>
	<use xlink:href="#path_tikwPuuy" style="fill:none;stroke:#0000FF;stroke-opacity:0.25;stroke-width:17.28" clip-path="url(#clipPath_CCETQRcH)"/>
	<defs>
		<path id="path_NhSnVeWp" d="M600.31 2425.82 L600.31 2425.82 L615.53 2425.82 L630.75 2425.82 L645.98 2425.82 L661.20 2425.70 L676.42 2425.45 L691.64 2425.20 L706.86 2424.83 L722.08 2424.21 L737.30 2423.60 L752.52 2422.73 L767.75 2421.62 L782.97 2420.38 L798.19 2418.89 L813.41 2417.16 L828.63 2415.30 L843.85 2413.08 L859.07 2410.73 L874.29 2408.13 L889.51 2405.16 L904.61 2402.06 L919.83 2398.72 L935.05 2395.13 L950.28 2391.17 L965.50 2387.09 L980.72 2382.76 L995.94 2378.18 L1011.16 2373.35 L1026.38 2368.28 L1041.60 2362.96 L1056.83 2357.51 L1072.05 2351.82 L1087.27 2345.88 L1102.49 2339.69 L1117.71 2333.38 L1132.93 2326.82 L1148.15 2320.14 L1163.37 2313.21 L1178.60 2306.03 L1193.82 2298.85 L1209.04 2291.43 L1224.26 2283.75 L1239.48 2276.08 L1254.70 2268.16 L1269.80 2260.12 L1285.02 2251.95 L1300.24 2243.53 L1315.46 2235.12 L1330.68 2226.58 L1345.90 2217.79 L1361.13 2209.01 L1376.35 2200.10 L1391.57 2191.06 L1406.79 2181.90 L1422.01 2172.62 L1437.23 2163.22 L1452.45 2153.81 L1467.67 2144.28 L1482.90 2134.63 L1498.12 2124.98 L1513.34 2115.20 L1528.56 2105.30 L1543.78 2095.40 L1559.00 2085.38 L1574.22 2075.35 L1589.44 2065.20 L1604.67 2055.06 L1619.76 2044.79 L1634.98 2034.51 L1650.21 2024.12 L1665.43 2013.72 L1680.65 2003.20 L1695.87 1992.81 L1711.09 1982.17 L1726.31 1971.65 L1741.53 1961.00 L1756.76 1950.36 L1771.98 1939.72 L1787.20 1928.95 L1802.42 1918.31 L1817.64 1907.54 L1832.86 1896.78 L1848.08 1885.89 L1863.30 1875.12 L1878.53 1864.23 L1893.75 1853.46 L1908.97 1842.57 L1924.19 1831.68 L1939.41 1820.79 L1954.63 1809.90 L1969.85 1799.01 L1984.95 1788.12 L2000.17 1777.23 L2015.39 1766.34 L2030.61 1755.45 L2045.84 1744.56 L2061.06 1733.67 L2076.28 1722.78 L2091.50 1711.89 L2106.72 1701.00 L2121.94 1689.98 L2137.16 1679.09 L2152.38 1668.20 L2167.61 1657.31 L2182.83 1646.42 L2198.05 1635.53 L2213.27 1624.64 L2228.49 1613.75 L2243.71 1602.86 L2258.93 1591.97 L2274.15 1581.08 L2289.38 1570.19 L2304.60 1559.30 L2319.82 1548.41 L2335.04 1537.52 L2350.14 1526.63 L2365.36 1515.74 L2380.58 1504.85 L2395.80 1493.96 L2411.02 1483.07 L2426.24 1472.18 L2441.46 1461.29 L2456.68 1450.40 L2471.91 1439.38 L2487.13 1428.49 L2502.35 1417.60 L2517.57 1406.71 L2532.79 1395.70 L2548.01 1384.81 L2563.23 1373.79 L2578.45 1362.90 L2593.68 1351.89 L2608.90 1341.00 L2624.12 1329.98 L2639.34 1318.97 L2654.56 1307.95 L2669.78 1296.94 L2685.00 1285.93 L2700.22 1274.79 L2715.32 1263.77 L2730.54 1252.64 L2745.76 1241.62 L2760.99 1230.48 L2776.21 1219.35 L2791.43 1208.21 L2806.65 1197.07 L2821.87 1185.81 L2837.09 1174.67 L2852.31 1163.41 L2867.53 1152.15 L2882.76 1140.89 L2897.98 1129.63 L2913.20 1118.24 L2928.42 1106.85 L2943.64 1095.59 L2958.86 1084.21 L2974.08 1072.70 L2989.30 1061.31 L3004.53 1049.80 L3019.75 1038.42 L3034.97 1026.91 L3050.19 1015.40 L3065.41 1003.77 L3080.51 992.26 L3095.73 980.63 L3110.95 968.99 L3126.17 957.36 L3141.39 945.73 L3156.61 934.09 L3171.84 922.34 L3187.06 910.58 L3202.28 898.95 L3217.50 887.19 L3232.72 875.43 L3247.94 863.55 L3263.16 851.80 L3278.39 839.92 L3293.61 828.16 L3308.83 816.28 L3324.05 804.40 L3339.27 792.52 L3354.49 780.64 L3369.71 768.76 L3384.93 756.75 L3400.16 744.87 L3415.38 732.87 L3430.47 720.99 L3445.70 708.99 L3460.92 696.98 L3476.14 684.98 L3491.36 672.97 L3506.58 660.97 L3521.80 648.97 L3537.02 636.84 L3552.24 624.83 L3567.47 612.83 L3582.69 600.70 L3597.91 588.57 L3613.13 576.57 L3628.35 564.44 L3643.57 552.31 L3658.79 540.19 L3674.01 528.06 L3689.24 515.93 L3704.46 503.80 L3719.68 491.67 L3734.90 479.55 L3750.12 467.29 L3765.34 455.17 L3780.56 443.04 L3795.66 430.79 L3795.66 292.55 L3780.56 305.55 L3765.34 318.54 L3750.12 331.54 L3734.90 344.41 L3719.68 357.40 L3704.46 370.27 L3689.24 383.14 L3674.01 396.01 L3658.79 408.88 L3643.57 421.63 L3628.35 434.50 L3613.13 447.25 L3597.91 459.99 L3582.69 472.74 L3567.47 485.36 L3552.24 498.11 L3537.02 510.73 L3521.80 523.36 L3506.58 535.98 L3491.36 548.60 L3476.14 561.10 L3460.92 573.72 L3445.70 586.22 L3430.47 598.72 L3415.38 611.22 L3400.16 623.72 L3384.93 636.09 L3369.71 648.59 L3354.49 660.97 L3339.27 673.34 L3324.05 685.72 L3308.83 698.10 L3293.61 710.35 L3278.39 722.72 L3263.16 734.97 L3247.94 747.23 L3232.72 759.48 L3217.50 771.73 L3202.28 783.98 L3187.06 796.11 L3171.84 808.24 L3156.61 820.49 L3141.39 832.62 L3126.17 844.74 L3110.95 856.87 L3095.73 868.88 L3080.51 881.00 L3065.41 893.01 L3050.19 905.01 L3034.97 917.02 L3019.75 929.02 L3004.53 941.02 L2989.30 953.03 L2974.08 964.91 L2958.86 976.91 L2943.64 988.79 L2928.42 1000.67 L2913.20 1012.55 L2897.98 1024.43 L2882.76 1036.31 L2867.53 1048.07 L2852.31 1059.95 L2837.09 1071.71 L2821.87 1083.59 L2806.65 1095.35 L2791.43 1107.10 L2776.21 1118.86 L2760.99 1130.62 L2745.76 1142.25 L2730.54 1154.00 L2715.32 1165.76 L2700.22 1177.39 L2685.00 1189.03 L2669.78 1200.78 L2654.56 1212.42 L2639.34 1224.05 L2624.12 1235.68 L2608.90 1247.32 L2593.68 1258.95 L2578.45 1270.46 L2563.23 1282.09 L2548.01 1293.72 L2532.79 1305.23 L2517.57 1316.74 L2502.35 1328.37 L2487.13 1339.88 L2471.91 1351.39 L2456.68 1362.90 L2441.46 1374.53 L2426.24 1386.04 L2411.02 1397.55 L2395.80 1408.94 L2380.58 1420.45 L2365.36 1431.96 L2350.14 1443.47 L2335.04 1454.97 L2319.82 1466.36 L2304.60 1477.87 L2289.38 1489.38 L2274.15 1500.76 L2258.93 1512.27 L2243.71 1523.78 L2228.49 1535.17 L2213.27 1546.68 L2198.05 1558.06 L2182.83 1569.57 L2167.61 1580.96 L2152.38 1592.46 L2137.16 1603.97 L2121.94 1615.36 L2106.72 1626.87 L2091.50 1638.25 L2076.28 1649.76 L2061.06 1661.27 L2045.84 1672.78 L2030.61 1684.29 L2015.39 1695.68 L2000.17 1707.18 L1984.95 1718.69 L1969.85 1730.33 L1954.63 1741.84 L1939.41 1753.34 L1924.19 1764.85 L1908.97 1776.36 L1893.75 1788.00 L1878.53 1799.50 L1863.30 1811.01 L1848.08 1822.65 L1832.86 1834.16 L1817.64 1845.67 L1802.42 1857.17 L1787.20 1868.68 L1771.98 1880.19 L1756.76 1891.70 L1741.53 1903.21 L1726.31 1914.60 L1711.09 1925.98 L1695.87 1937.37 L1680.65 1948.75 L1665.43 1960.01 L1650.21 1971.40 L1634.98 1982.54 L1619.76 1993.80 L1604.67 2004.94 L1589.44 2016.07 L1574.22 2027.09 L1559.00 2037.98 L1543.78 2048.99 L1528.56 2059.76 L1513.34 2070.53 L1498.12 2081.29 L1482.90 2091.81 L1467.67 2102.45 L1452.45 2112.85 L1437.23 2123.25 L1422.01 2133.39 L1406.79 2143.54 L1391.57 2153.56 L1376.35 2163.59 L1361.13 2173.37 L1345.90 2183.02 L1330.68 2192.67 L1315.46 2202.08 L1300.24 2211.36 L1285.02 2220.52 L1269.80 2229.55 L1254.70 2238.34 L1239.48 2247.12 L1224.26 2255.66 L1209.04 2263.95 L1193.82 2272.24 L1178.60 2280.29 L1163.37 2288.09 L1148.15 2295.76 L1132.93 2303.31 L1117.71 2310.61 L1102.49 2317.66 L1087.27 2324.59 L1072.05 2331.28 L1056.83 2337.83 L1041.60 2344.15 L1026.38 2350.21 L1011.16 2356.03 L995.94 2361.60 L980.72 2367.04 L965.50 2372.24 L950.28 2377.19 L935.05 2381.89 L919.83 2386.35 L904.61 2390.55 L889.51 2394.51 L874.29 2398.23 L859.07 2401.69 L843.85 2405.03 L828.63 2408.00 L813.41 2410.73 L798.19 2413.20 L782.97 2415.43 L767.75 2417.41 L752.52 2419.14 L737.30 2420.75 L722.08 2421.99 L706.86 2423.10 L691.64 2423.97 L676.42 2424.59 L661.20 2425.20 L645.98 2425.45 L630.75 2425.70 L615.53 2425.82 L600.31 2425.82 L600.31 2425.82 Z" stroke-linejoin="round"/>
	</defs>
	<defs>
		<clipPath id="clipPath_KNQgHvJD">
			<use xlink:href="#path_NhSnVeWp"/>
		</clipPath>
	</defs>
	<use xlink:href="#path_NhSnVeWp" style="stroke:none;fill:#FF3333;fill-opacity:0.25"/>
	<use xlink:href="#path_NhSnVeWp" style="fill:none;stroke:#FF0000;stroke-opacity:0.25;stroke-width:17.28" clip-path="url(#clipPath_KNQgHvJD)"/>
	<path d=" M585.09 2425.95 L600.31 2425.95 L615.53 2425.95 L630.75 2425.82 L645.98 2425.70 L661.20 2425.58 L676.42 2425.20 L691.64 2424.71 L706.86 2424.09 L721.96 2423.35 L737.18 2422.36 L752.40 2421.12 L767.62 2419.76 L782.84 2418.15 L798.06 2416.17 L813.28 2414.07 L828.51 2411.72 L843.73 2409.12 L858.95 2406.27 L874.17 2403.05 L889.39 2399.71 L904.61 2396.00 L919.83 2392.16 L935.05 2387.95 L950.28 2383.62 L965.50 2378.92 L980.72 2373.97 L995.94 2368.90 L1011.16 2363.45 L1026.38 2357.88 L1041.60 2352.07 L1056.83 2345.88 L1072.05 2339.69 L1087.14 2333.13 L1102.37 2326.45 L1117.59 2319.52 L1132.81 2312.34 L1148.03 2305.04 L1163.25 2297.49 L1178.47 2289.82 L1193.69 2281.90 L1208.91 2273.85 L1224.13 2265.56 L1239.36 2257.27 L1254.58 2248.61 L1269.80 2239.94 L1285.02 2231.03 L1300.24 2222.12 L1315.46 2212.97 L1330.68 2203.69 L1345.90 2194.28 L1361.13 2184.75 L1376.35 2175.10 L1391.57 2165.32 L1406.79 2155.42 L1422.01 2145.40 L1437.23 2135.25 L1452.33 2125.10 L1467.55 2114.83 L1482.77 2104.43 L1497.99 2094.04 L1513.21 2083.40 L1528.44 2072.88 L1543.66 2062.11 L1558.88 2051.34 L1574.10 2040.58 L1589.32 2029.56 L1604.54 2018.67 L1619.76 2007.66 L1634.98 1996.52 L1650.21 1985.51 L1665.43 1974.25 L1680.65 1963.11 L1695.87 1951.85 L1711.09 1940.58 L1726.31 1929.20 L1741.53 1917.81 L1756.76 1906.43 L1771.98 1895.04 L1787.20 1883.66 L1802.30 1872.15 L1817.52 1860.76 L1832.74 1849.25 L1847.96 1837.74 L1863.18 1826.24 L1878.40 1814.60 L1893.62 1803.09 L1908.84 1791.58 L1924.07 1780.08 L1939.29 1768.44 L1954.51 1756.93 L1969.73 1745.42 L1984.95 1733.79 L2000.17 1722.28 L2015.39 1710.77 L2030.61 1699.26 L2045.84 1687.76 L2061.06 1676.12 L2076.28 1664.61 L2091.50 1653.10 L2106.72 1641.60 L2121.94 1630.09 L2137.16 1618.58 L2152.38 1607.07 L2167.48 1595.56 L2182.70 1584.05 L2197.92 1572.54 L2213.14 1561.03 L2228.37 1549.52 L2243.59 1538.01 L2258.81 1526.50 L2274.03 1514.99 L2289.25 1503.49 L2304.47 1491.98 L2319.69 1480.47 L2334.91 1468.96 L2350.14 1457.45 L2365.36 1445.94 L2380.58 1434.43 L2395.80 1422.80 L2411.02 1411.29 L2426.24 1399.78 L2441.46 1388.27 L2456.68 1376.76 L2471.91 1365.13 L2487.13 1353.62 L2502.35 1341.99 L2517.57 1330.48 L2532.67 1318.84 L2547.89 1307.34 L2563.11 1295.70 L2578.33 1284.07 L2593.55 1272.44 L2608.77 1260.80 L2623.99 1249.17 L2639.22 1237.54 L2654.44 1225.91 L2669.66 1214.27 L2684.88 1202.52 L2700.10 1190.88 L2715.32 1179.13 L2730.54 1167.37 L2745.76 1155.74 L2760.99 1143.98 L2776.21 1132.22 L2791.43 1120.34 L2806.65 1108.59 L2821.87 1096.71 L2837.09 1084.95 L2852.31 1073.07 L2867.53 1061.19 L2882.76 1049.31 L2897.85 1037.43 L2913.07 1025.42 L2928.30 1013.54 L2943.52 1001.54 L2958.74 989.54 L2973.96 977.53 L2989.18 965.53 L3004.40 953.52 L3019.62 941.40 L3034.84 929.27 L3050.07 917.14 L3065.29 905.01 L3080.51 892.88 L3095.73 880.76 L3110.95 868.50 L3126.17 856.25 L3141.39 844.13 L3156.61 831.87 L3171.84 819.50 L3187.06 807.25 L3202.28 794.99 L3217.50 782.62 L3232.72 770.24 L3247.94 757.87 L3263.04 745.49 L3278.26 733.12 L3293.48 720.74 L3308.70 708.24 L3323.93 695.87 L3339.15 683.37 L3354.37 670.87 L3369.59 658.37 L3384.81 645.87 L3400.03 633.25 L3415.25 620.75 L3430.47 608.13 L3445.70 595.50 L3460.92 582.88 L3476.14 570.26 L3491.36 557.63 L3506.58 545.01 L3521.80 532.39 L3537.02 519.64 L3552.24 506.90 L3567.47 494.15 L3582.69 481.53 L3597.91 468.66 L3613.01 455.91 L3628.23 443.16 L3643.45 430.42 L3658.67 417.55 L3673.89 404.68 L3689.11 391.80 L3704.33 379.06 L3719.55 366.06 L3734.78 353.19 L3750.00 340.32 L3765.22 327.45 L3780.44 314.46 L3795.66 301.46" stroke-linejoin="round" style="fill:none;stroke:#0000FF;stroke-width:8.64"/>
	<path d=" M585.09 2425.95 L600.31 2425.95 L615.53 2425.95 L630.75 2425.82 L645.98 2425.70 L661.20 2425.58 L676.42 2425.20 L691.64 2424.83 L706.86 2424.21 L721.96 2423.47 L737.18 2422.48 L752.40 2421.37 L767.62 2419.88 L782.84 2418.40 L798.06 2416.54 L813.28 2414.44 L828.51 2412.21 L843.73 2409.61 L858.95 2406.77 L874.17 2403.80 L889.39 2400.45 L904.61 2396.99 L919.83 2393.15 L935.05 2389.07 L950.28 2384.86 L965.50 2380.28 L980.72 2375.58 L995.94 2370.63 L1011.16 2365.31 L1026.38 2359.86 L1041.60 2354.17 L1056.83 2348.35 L1072.05 2342.29 L1087.14 2335.85 L1102.37 2329.42 L1117.59 2322.61 L1132.81 2315.81 L1148.03 2308.63 L1163.25 2301.33 L1178.47 2293.90 L1193.69 2286.23 L1208.91 2278.43 L1224.13 2270.39 L1239.36 2262.22 L1254.58 2253.93 L1269.80 2245.51 L1285.02 2236.97 L1300.24 2228.19 L1315.46 2219.28 L1330.68 2210.37 L1345.90 2201.21 L1361.13 2191.93 L1376.35 2182.52 L1391.57 2173.12 L1406.79 2163.47 L1422.01 2153.81 L1437.23 2144.04 L1452.33 2134.14 L1467.55 2124.11 L1482.77 2114.09 L1497.99 2103.94 L1513.21 2093.67 L1528.44 2083.40 L1543.66 2073.00 L1558.88 2062.61 L1574.10 2052.09 L1589.32 2041.44 L1604.54 2030.80 L1619.76 2020.16 L1634.98 2009.39 L1650.21 1998.62 L1665.43 1987.73 L1680.65 1976.84 L1695.87 1965.95 L1711.09 1955.06 L1726.31 1944.05 L1741.53 1933.04 L1756.76 1922.02 L1771.98 1910.88 L1787.20 1899.75 L1802.30 1888.61 L1817.52 1877.47 L1832.74 1866.33 L1847.96 1855.19 L1863.18 1844.06 L1878.40 1832.79 L1893.62 1821.66 L1908.84 1810.40 L1924.07 1799.26 L1939.29 1788.00 L1954.51 1776.86 L1969.73 1765.60 L1984.95 1754.46 L2000.17 1743.20 L2015.39 1732.06 L2030.61 1720.80 L2045.84 1709.66 L2061.06 1698.40 L2076.28 1687.26 L2091.50 1676.00 L2106.72 1664.86 L2121.94 1653.72 L2137.16 1642.46 L2152.38 1631.32 L2167.48 1620.19 L2182.70 1608.92 L2197.92 1597.79 L2213.14 1586.65 L2228.37 1575.39 L2243.59 1564.25 L2258.81 1553.11 L2274.03 1541.97 L2289.25 1530.71 L2304.47 1519.57 L2319.69 1508.44 L2334.91 1497.17 L2350.14 1486.04 L2365.36 1474.90 L2380.58 1463.64 L2395.80 1452.50 L2411.02 1441.24 L2426.24 1430.10 L2441.46 1418.84 L2456.68 1407.70 L2471.91 1396.44 L2487.13 1385.18 L2502.35 1374.04 L2517.57 1362.78 L2532.67 1351.52 L2547.89 1340.25 L2563.11 1328.99 L2578.33 1317.73 L2593.55 1306.47 L2608.77 1295.08 L2623.99 1283.82 L2639.22 1272.56 L2654.44 1261.18 L2669.66 1249.91 L2684.88 1238.53 L2700.10 1227.14 L2715.32 1215.76 L2730.54 1204.37 L2745.76 1192.99 L2760.99 1181.60 L2776.21 1170.09 L2791.43 1158.71 L2806.65 1147.20 L2821.87 1135.81 L2837.09 1124.30 L2852.31 1112.79 L2867.53 1101.16 L2882.76 1089.65 L2897.85 1078.14 L2913.07 1066.51 L2928.30 1054.88 L2943.52 1043.25 L2958.74 1031.61 L2973.96 1019.98 L2989.18 1008.22 L3004.40 996.59 L3019.62 984.83 L3034.84 973.08 L3050.07 961.32 L3065.29 949.44 L3080.51 937.68 L3095.73 925.80 L3110.95 914.05 L3126.17 902.17 L3141.39 890.29 L3156.61 878.40 L3171.84 866.40 L3187.06 854.52 L3202.28 842.52 L3217.50 830.51 L3232.72 818.51 L3247.94 806.50 L3263.04 794.50 L3278.26 782.50 L3293.48 770.37 L3308.70 758.24 L3323.93 746.24 L3339.15 734.11 L3354.37 721.86 L3369.59 709.73 L3384.81 697.60 L3400.03 685.35 L3415.25 673.22 L3430.47 660.97 L3445.70 648.72 L3460.92 636.47 L3476.14 624.21 L3491.36 611.96 L3506.58 599.59 L3521.80 587.34 L3537.02 574.96 L3552.24 562.59 L3567.47 550.21 L3582.69 537.83 L3597.91 525.46 L3613.01 513.08 L3628.23 500.58 L3643.45 488.21 L3658.67 475.71 L3673.89 463.21 L3689.11 450.71 L3704.33 438.21 L3719.55 425.71 L3734.78 413.21 L3750.00 400.59 L3765.22 388.09 L3780.44 375.47 L3795.66 362.85" stroke-linejoin="round" style="fill:none;stroke:#FF0000;stroke-width:8.64"/>
	<line x1="521.73" y1="2489.19" x2="521.73" y2="100.86" style="stroke:#000000;stroke-width:5.76"/>
	<line x1="521.73" y1="2425.82" x2="481.76" y2="2425.82" style="stroke:#000000;stroke-width:5.76"/>
	<text x="461.83" y="2460.85" style="font-family:'Helvetica';font-size:99.99px;fill:#000000" text-anchor="end">0.00</text>
	<line x1="521.73" y1="2102.70" x2="481.76" y2="2102.70" style="stroke:#000000;stroke-width:5.76"/>
	<text x="461.83" y="2137.73" style="font-family:'Helvetica';font-size:99.99px;fill:#000000" text-anchor="end">1.00</text>
	<line x1="521.73" y1="1779.70" x2="481.76" y2="1779.70" style="stroke:#000000;stroke-width:5.76"/>
	<text x="461.83" y="1814.73" style="font-family:'Helvetica';font-size:99.99px;fill:#000000" text-anchor="end">2.00</text>
	<line x1="521.73" y1="1456.58" x2="481.76" y2="1456.58" style="stroke:#000000;stroke-width:5.76"/>
	<text x="461.83" y="1491.61" style="font-family:'Helvetica';font-size:99.99px;fill:#000000" text-anchor="end">3.00</text>
	<line x1="521.73" y1="1133.46" x2="481.76" y2="1133.46" style="stroke:#000000;stroke-width:5.76"/>
	<text x="461.83" y="1168.49" style="font-family:'Helvetica';font-size:99.99px;fill:#000000" text-anchor="end">4.00</text>
	<line x1="521.73" y1="810.34" x2="481.76" y2="810.34" style="stroke:#000000;stroke-width:5.76"/>
	<text x="461.83" y="845.37" style="font-family:'Helvetica';font-size:99.99px;fill:#000000" text-anchor="end">5.00</text>
	<line x1="521.73" y1="487.22" x2="481.76" y2="487.22" style="stroke:#000000;stroke-width:5.76"/>
	<text x="461.83" y="522.25" style="font-family:'Helvetica';font-size:99.99px;fill:#000000" text-anchor="end">6.00</text>
	<line x1="521.73" y1="164.22" x2="481.76" y2="164.22" style="stroke:#000000;stroke-width:5.76"/>
	<text x="461.83" y="199.25" style="font-family:'Helvetica';font-size:99.99px;fill:#000000" text-anchor="end">7.00</text>
	<text x="190.71" y="1294.96" style="font-family:'Helvetica';font-size:99.99px;fill:#000000" transform="rotate(-90 190.71,1294.96)" text-anchor="middle">Cumulative incidence (%)</text>
	<line x1="521.73" y1="2489.19" x2="3859.02" y2="2489.19" style="stroke:#000000;stroke-width:5.76"/>
	<line x1="585.09" y1="2489.19" x2="585.09" y2="2529.16" style="stroke:#000000;stroke-width:5.76"/>
	<text x="585.09" y="2619.14" style="font-family:'Helvetica';font-size:99.99px;fill:#000000" text-anchor="middle">0</text>
	<line x1="1345.90" y1="2489.19" x2="1345.90" y2="2529.16" style="stroke:#000000;stroke-width:5.76"/>
	<text x="1345.90" y="2619.14" style="font-family:'Helvetica';font-size:99.99px;fill:#000000" text-anchor="middle">50</text>
	<line x1="2106.72" y1="2489.19" x2="2106.72" y2="2529.16" style="stroke:#000000;stroke-width:5.76"/>
	<text x="2106.72" y="2619.14" style="font-family:'Helvetica';font-size:99.99px;fill:#000000" text-anchor="middle">100</text>
	<line x1="2867.53" y1="2489.19" x2="2867.53" y2="2529.16" style="stroke:#000000;stroke-width:5.76"/>
	<text x="2867.53" y="2619.14" style="font-family:'Helvetica';font-size:99.99px;fill:#000000" text-anchor="middle">150</text>
	<line x1="3628.35" y1="2489.19" x2="3628.35" y2="2529.16" style="stroke:#000000;stroke-width:5.76"/>
	<text x="3628.35" y="2619.14" style="font-family:'Helvetica';font-size:99.99px;fill:#000000" text-anchor="middle">200</text>
	<text x="2190.38" y="2729.16" style="font-family:'Helvetica';font-size:99.99px;fill:#000000" text-anchor="middle">Days from 1 March 2020</text>
	<rect x="1933.59" y="2128.20" width="1890.90" height="326.46" style="fill:#FFFFFF"/>
	<rect x="1936.47" y="2131.08" width="1885.14" height="320.70" style="fill:none;stroke:#000000;stroke-width:5.76"/>
	<rect x="1976.78" y="2171.51" width="374.34" height="99.99" style="fill:#3333FF;fill-opacity:0.25"/>
	<rect x="1981.10" y="2175.83" width="365.70" height="91.35" style="fill:none;stroke:#0000FF;stroke-opacity:0.25;stroke-width:8.64"/>
	<rect x="1976.78" y="2311.47" width="374.34" height="99.99" style="fill:#FF3333;fill-opacity:0.25"/>
	<rect x="1981.10" y="2315.79" width="365.70" height="91.35" style="fill:none;stroke:#FF0000;stroke-opacity:0.25;stroke-width:8.64"/>
	<text x="2411.14" y="2256.53" style="font-family:'Helvetica';font-size:99.99px;fill:#000000">Non-current anticoagulant use</text>
	<text x="2411.14" y="2396.50" style="font-family:'Helvetica';font-size:99.99px;fill:#000000">Current anticoagulant use</text>
</svg>
