<?xml version="1.0" encoding="UTF-8" standalone="no"?>
<!-- This is a Stata 16.1 generated SVG file (http://www.stata.com) -->

<svg version="1.1" width="5.50in" height="4.00in" viewBox="0 0 3960 2880" xmlns="http://www.w3.org/2000/svg" xmlns:xlink="http://www.w3.org/1999/xlink">
	<desc>Stata Graph - Graph</desc>
	<rect x="0" y="0" width="3960" height="2880" style="fill:#EAF2F3;stroke:none"/>
	<rect x="0.00" y="0.00" width="3959.88" height="2880.00" style="fill:#EAF2F3"/>
	<rect x="2.88" y="2.88" width="3954.12" height="2874.24" style="fill:none;stroke:#EAF2F3;stroke-width:5.76"/>
	<rect x="521.73" y="100.86" width="3337.29" height="2388.33" style="fill:#FFFFFF"/>
	<rect x="524.61" y="103.74" width="3331.53" height="2382.57" style="fill:none;stroke:#FFFFFF;stroke-width:5.76"/>
	<line x1="521.73" y1="2425.82" x2="3859.02" y2="2425.82" style="stroke:#EAF2F3;stroke-width:8.64"/>
	<line x1="521.73" y1="1973.50" x2="3859.02" y2="1973.50" style="stroke:#EAF2F3;stroke-width:8.64"/>
	<line x1="521.73" y1="1521.18" x2="3859.02" y2="1521.18" style="stroke:#EAF2F3;stroke-width:8.64"/>
	<line x1="521.73" y1="1068.86" x2="3859.02" y2="1068.86" style="stroke:#EAF2F3;stroke-width:8.64"/>
	<line x1="521.73" y1="616.54" x2="3859.02" y2="616.54" style="stroke:#EAF2F3;stroke-width:8.64"/>
	<line x1="521.73" y1="164.22" x2="3859.02" y2="164.22" style="stroke:#EAF2F3;stroke-width:8.64"/>
	<defs>
		<path id="path_YSXXccPS" d="M600.31 2425.82 L600.31 2425.82 L615.53 2425.82 L630.75 2425.70 L645.98 2425.45 L661.20 2424.96 L676.42 2424.09 L691.64 2422.73 L706.86 2420.63 L722.08 2417.78 L737.30 2414.07 L752.52 2409.36 L767.75 2403.55 L782.97 2396.49 L798.19 2388.33 L813.41 2379.04 L828.63 2368.53 L843.85 2356.89 L859.07 2344.02 L874.29 2330.04 L889.51 2315.19 L904.61 2299.22 L919.83 2282.39 L935.05 2264.82 L950.28 2246.38 L965.50 2227.45 L980.72 2207.77 L995.94 2187.72 L1011.16 2167.18 L1026.38 2146.39 L1041.60 2125.35 L1056.83 2104.06 L1072.05 2082.65 L1087.27 2061.24 L1102.49 2039.71 L1117.71 2018.43 L1132.93 1997.14 L1148.15 1976.10 L1163.37 1955.31 L1178.60 1934.64 L1193.82 1914.35 L1209.04 1894.42 L1224.26 1874.87 L1239.48 1855.57 L1254.70 1836.75 L1269.80 1818.19 L1285.02 1800.12 L1300.24 1782.43 L1315.46 1765.10 L1330.68 1748.15 L1345.90 1731.69 L1361.13 1715.48 L1376.35 1699.76 L1391.57 1684.41 L1406.79 1669.44 L1422.01 1654.84 L1437.23 1640.61 L1452.45 1626.74 L1467.67 1613.26 L1482.90 1600.14 L1498.12 1587.27 L1513.34 1574.89 L1528.56 1562.76 L1543.78 1551.01 L1559.00 1539.50 L1574.22 1528.36 L1589.44 1517.47 L1604.67 1506.83 L1619.76 1496.56 L1634.98 1486.66 L1650.21 1476.88 L1665.43 1467.47 L1680.65 1458.32 L1695.87 1449.28 L1711.09 1440.62 L1726.31 1432.20 L1741.53 1424.04 L1756.76 1415.99 L1771.98 1408.32 L1787.20 1400.77 L1802.42 1393.47 L1817.64 1386.29 L1832.86 1379.36 L1848.08 1372.68 L1863.30 1366.12 L1878.53 1359.68 L1893.75 1353.62 L1908.97 1347.56 L1924.19 1341.74 L1939.41 1336.05 L1954.63 1330.48 L1969.85 1325.16 L1984.95 1319.96 L2000.17 1314.88 L2015.39 1309.93 L2030.61 1305.11 L2045.84 1300.41 L2061.06 1295.95 L2076.28 1291.50 L2091.50 1287.29 L2106.72 1283.08 L2121.94 1279.00 L2137.16 1275.04 L2152.38 1271.20 L2167.61 1267.49 L2182.83 1263.90 L2198.05 1260.31 L2213.27 1256.97 L2228.49 1253.63 L2243.71 1250.29 L2258.93 1247.19 L2274.15 1244.10 L2289.38 1241.13 L2304.60 1238.16 L2319.82 1235.31 L2335.04 1232.59 L2350.14 1229.87 L2365.36 1227.27 L2380.58 1224.79 L2395.80 1222.32 L2411.02 1219.84 L2426.24 1217.49 L2441.46 1215.26 L2456.68 1213.04 L2471.91 1210.81 L2487.13 1208.70 L2502.35 1206.60 L2517.57 1204.62 L2532.79 1202.64 L2548.01 1200.78 L2563.23 1198.93 L2578.45 1197.07 L2593.68 1195.34 L2608.90 1193.61 L2624.12 1192.00 L2639.34 1190.39 L2654.56 1188.78 L2669.78 1187.17 L2685.00 1185.69 L2700.22 1184.20 L2715.32 1182.72 L2730.54 1181.35 L2745.76 1179.99 L2760.99 1178.63 L2776.21 1177.27 L2791.43 1176.03 L2806.65 1174.80 L2821.87 1173.56 L2837.09 1172.44 L2852.31 1171.21 L2867.53 1170.09 L2882.76 1168.98 L2897.98 1167.87 L2913.20 1166.88 L2928.42 1165.76 L2943.64 1164.77 L2958.86 1163.78 L2974.08 1162.79 L2989.30 1161.80 L3004.53 1160.94 L3019.75 1159.94 L3034.97 1159.08 L3050.19 1158.21 L3065.41 1157.35 L3080.51 1156.48 L3095.73 1155.74 L3110.95 1154.87 L3126.17 1154.13 L3141.39 1153.26 L3156.61 1152.52 L3171.84 1151.78 L3187.06 1151.03 L3202.28 1150.29 L3217.50 1149.55 L3232.72 1148.93 L3247.94 1148.19 L3263.16 1147.57 L3278.39 1146.83 L3293.61 1146.21 L3308.83 1145.59 L3324.05 1144.85 L3339.27 1144.23 L3354.49 1143.61 L3369.71 1142.99 L3384.93 1142.37 L3400.16 1141.75 L3415.38 1141.26 L3430.47 1140.64 L3445.70 1140.02 L3460.92 1139.53 L3476.14 1138.91 L3491.36 1138.41 L3506.58 1137.79 L3521.80 1137.30 L3537.02 1136.68 L3552.24 1136.18 L3567.47 1135.69 L3582.69 1135.19 L3597.91 1134.58 L3613.13 1134.08 L3628.35 1133.59 L3643.57 1133.09 L3658.79 1132.60 L3674.01 1132.10 L3689.24 1131.61 L3704.46 1131.11 L3719.68 1130.62 L3734.90 1130.12 L3750.12 1129.63 L3765.34 1129.13 L3780.56 1128.64 L3795.66 1128.14 L3795.66 213.35 L3780.56 214.22 L3765.34 214.96 L3750.12 215.83 L3734.90 216.69 L3719.68 217.56 L3704.46 218.30 L3689.24 219.17 L3674.01 220.03 L3658.79 220.90 L3643.57 221.77 L3628.35 222.63 L3613.13 223.50 L3597.91 224.37 L3582.69 225.23 L3567.47 226.10 L3552.24 226.96 L3537.02 227.95 L3521.80 228.82 L3506.58 229.69 L3491.36 230.68 L3476.14 231.54 L3460.92 232.53 L3445.70 233.52 L3430.47 234.51 L3415.38 235.38 L3400.16 236.37 L3384.93 237.36 L3369.71 238.47 L3354.49 239.46 L3339.27 240.45 L3324.05 241.57 L3308.83 242.56 L3293.61 243.67 L3278.39 244.79 L3263.16 245.90 L3247.94 247.01 L3232.72 248.13 L3217.50 249.24 L3202.28 250.48 L3187.06 251.72 L3171.84 252.83 L3156.61 254.07 L3141.39 255.43 L3126.17 256.67 L3110.95 258.03 L3095.73 259.26 L3080.51 260.63 L3065.41 262.11 L3050.19 263.47 L3034.97 264.96 L3019.75 266.44 L3004.53 267.93 L2989.30 269.41 L2974.08 271.02 L2958.86 272.63 L2943.64 274.24 L2928.42 275.85 L2913.20 277.58 L2897.98 279.31 L2882.76 281.05 L2867.53 282.90 L2852.31 284.76 L2837.09 286.74 L2821.87 288.59 L2806.65 290.57 L2791.43 292.68 L2776.21 294.78 L2760.99 296.89 L2745.76 299.11 L2730.54 301.34 L2715.32 303.69 L2700.22 306.04 L2685.00 308.39 L2669.78 310.99 L2654.56 313.47 L2639.34 316.07 L2624.12 318.79 L2608.90 321.51 L2593.68 324.36 L2578.45 327.21 L2563.23 330.18 L2548.01 333.27 L2532.79 336.36 L2517.57 339.58 L2502.35 342.92 L2487.13 346.26 L2471.91 349.73 L2456.68 353.32 L2441.46 357.03 L2426.24 360.74 L2411.02 364.70 L2395.80 368.66 L2380.58 372.75 L2365.36 376.95 L2350.14 381.16 L2335.04 385.62 L2319.82 390.20 L2304.60 394.90 L2289.38 399.72 L2274.15 404.68 L2258.93 409.75 L2243.71 414.95 L2228.49 420.39 L2213.27 425.84 L2198.05 431.53 L2182.83 437.47 L2167.61 443.41 L2152.38 449.60 L2137.16 456.03 L2121.94 462.47 L2106.72 469.27 L2091.50 476.20 L2076.28 483.26 L2061.06 490.56 L2045.84 498.11 L2030.61 505.91 L2015.39 513.83 L2000.17 521.99 L1984.95 530.41 L1969.85 539.20 L1954.63 548.11 L1939.41 557.26 L1924.19 566.67 L1908.97 576.45 L1893.75 586.35 L1878.53 596.74 L1863.30 607.26 L1848.08 618.15 L1832.86 629.29 L1817.64 640.80 L1802.42 652.68 L1787.20 664.93 L1771.98 677.43 L1756.76 690.30 L1741.53 703.54 L1726.31 717.28 L1711.09 731.26 L1695.87 745.62 L1680.65 760.47 L1665.43 775.81 L1650.21 791.41 L1634.98 807.62 L1619.76 824.08 L1604.67 841.16 L1589.44 858.73 L1574.22 876.67 L1559.00 895.11 L1543.78 914.17 L1528.56 933.60 L1513.34 953.65 L1498.12 974.19 L1482.90 995.35 L1467.67 1017.01 L1452.45 1039.28 L1437.23 1062.06 L1422.01 1085.45 L1406.79 1109.45 L1391.57 1134.08 L1376.35 1159.20 L1361.13 1185.07 L1345.90 1211.43 L1330.68 1238.53 L1315.46 1266.13 L1300.24 1294.34 L1285.02 1323.30 L1269.80 1352.75 L1254.70 1382.83 L1239.48 1413.52 L1224.26 1444.83 L1209.04 1476.63 L1193.82 1509.05 L1178.60 1541.97 L1163.37 1575.26 L1148.15 1609.17 L1132.93 1643.33 L1117.71 1677.73 L1102.49 1712.51 L1087.27 1747.40 L1072.05 1782.30 L1056.83 1817.33 L1041.60 1852.10 L1026.38 1886.88 L1011.16 1921.28 L995.94 1955.43 L980.72 1989.10 L965.50 2022.26 L950.28 2054.69 L935.05 2086.37 L919.83 2117.18 L904.61 2147.13 L889.51 2175.84 L874.29 2203.44 L859.07 2229.80 L843.85 2254.67 L828.63 2278.06 L813.41 2299.97 L798.19 2320.01 L782.97 2338.45 L767.75 2355.04 L752.52 2369.76 L737.30 2382.76 L722.08 2393.65 L706.86 2402.81 L691.64 2410.23 L676.42 2415.92 L661.20 2420.13 L645.98 2422.85 L630.75 2424.59 L615.53 2425.45 L600.31 2425.82 L600.31 2425.82 Z" stroke-linejoin="round"/>
	</defs>
	<defs>
		<clipPath id="clipPath_cDQehVfl">
			<use xlink:href="#path_YSXXccPS"/>
		</clipPath>
	</defs>
	<use xlink:href="#path_YSXXccPS" style="stroke:none;fill:#3333FF;fill-opacity:0.25"/>
	<use xlink:href="#path_YSXXccPS" style="fill:none;stroke:#0000FF;stroke-opacity:0.25;stroke-width:17.28" clip-path="url(#clipPath_cDQehVfl)"/>
	<defs>
		<path id="path_ArffXOzY" d="M600.31 2425.82 L600.31 2425.82 L615.53 2425.82 L630.75 2425.70 L645.98 2425.58 L661.20 2425.08 L676.42 2424.34 L691.64 2423.22 L706.86 2421.37 L722.08 2418.89 L737.30 2415.68 L752.52 2411.47 L767.75 2406.27 L782.97 2400.21 L798.19 2392.90 L813.41 2384.61 L828.63 2375.21 L843.85 2364.81 L859.07 2353.30 L874.29 2340.68 L889.51 2327.19 L904.61 2312.71 L919.83 2297.37 L935.05 2281.28 L950.28 2264.45 L965.50 2246.88 L980.72 2228.81 L995.94 2210.24 L1011.16 2191.19 L1026.38 2171.76 L1041.60 2152.08 L1056.83 2132.28 L1072.05 2112.23 L1087.27 2092.06 L1102.49 2072.01 L1117.71 2051.84 L1132.93 2031.91 L1148.15 2011.99 L1163.37 1992.31 L1178.60 1972.88 L1193.82 1953.70 L1209.04 1934.89 L1224.26 1916.33 L1239.48 1898.14 L1254.70 1880.19 L1269.80 1862.74 L1285.02 1845.54 L1300.24 1828.83 L1315.46 1812.38 L1330.68 1796.41 L1345.90 1780.69 L1361.13 1765.47 L1376.35 1750.50 L1391.57 1736.02 L1406.79 1721.79 L1422.01 1707.93 L1437.23 1694.56 L1452.45 1681.44 L1467.67 1668.57 L1482.90 1656.20 L1498.12 1644.07 L1513.34 1632.31 L1528.56 1620.80 L1543.78 1609.67 L1559.00 1598.78 L1574.22 1588.26 L1589.44 1577.99 L1604.67 1567.96 L1619.76 1558.18 L1634.98 1548.78 L1650.21 1539.62 L1665.43 1530.71 L1680.65 1521.93 L1695.87 1513.51 L1711.09 1505.34 L1726.31 1497.30 L1741.53 1489.63 L1756.76 1482.08 L1771.98 1474.77 L1787.20 1467.60 L1802.42 1460.67 L1817.64 1453.98 L1832.86 1447.43 L1848.08 1441.11 L1863.30 1434.93 L1878.53 1428.86 L1893.75 1423.05 L1908.97 1417.35 L1924.19 1411.78 L1939.41 1406.46 L1954.63 1401.27 L1969.85 1396.19 L1984.95 1391.24 L2000.17 1386.41 L2015.39 1381.71 L2030.61 1377.26 L2045.84 1372.80 L2061.06 1368.59 L2076.28 1364.39 L2091.50 1360.30 L2106.72 1356.34 L2121.94 1352.51 L2137.16 1348.79 L2152.38 1345.20 L2167.61 1341.62 L2182.83 1338.15 L2198.05 1334.81 L2213.27 1331.59 L2228.49 1328.50 L2243.71 1325.40 L2258.93 1322.43 L2274.15 1319.46 L2289.38 1316.62 L2304.60 1313.89 L2319.82 1311.17 L2335.04 1308.57 L2350.14 1305.97 L2365.36 1303.50 L2380.58 1301.15 L2395.80 1298.80 L2411.02 1296.45 L2426.24 1294.22 L2441.46 1292.11 L2456.68 1290.01 L2471.91 1287.91 L2487.13 1285.93 L2502.35 1283.95 L2517.57 1282.09 L2532.79 1280.23 L2548.01 1278.38 L2563.23 1276.64 L2578.45 1274.91 L2593.68 1273.30 L2608.90 1271.57 L2624.12 1269.96 L2639.34 1268.48 L2654.56 1266.99 L2669.78 1265.51 L2685.00 1264.02 L2700.22 1262.66 L2715.32 1261.30 L2730.54 1259.94 L2745.76 1258.58 L2760.99 1257.34 L2776.21 1256.10 L2791.43 1254.86 L2806.65 1253.75 L2821.87 1252.51 L2837.09 1251.40 L2852.31 1250.29 L2867.53 1249.17 L2882.76 1248.18 L2897.98 1247.07 L2913.20 1246.08 L2928.42 1245.09 L2943.64 1244.10 L2958.86 1243.23 L2974.08 1242.24 L2989.30 1241.38 L3004.53 1240.51 L3019.75 1239.64 L3034.97 1238.78 L3050.19 1237.91 L3065.41 1237.17 L3080.51 1236.30 L3095.73 1235.56 L3110.95 1234.69 L3126.17 1233.95 L3141.39 1233.21 L3156.61 1232.46 L3171.84 1231.85 L3187.06 1231.10 L3202.28 1230.36 L3217.50 1229.74 L3232.72 1229.00 L3247.94 1228.38 L3263.16 1227.76 L3278.39 1227.14 L3293.61 1226.52 L3308.83 1225.91 L3324.05 1225.29 L3339.27 1224.67 L3354.49 1224.05 L3369.71 1223.55 L3384.93 1222.94 L3400.16 1222.32 L3415.38 1221.82 L3430.47 1221.20 L3445.70 1220.71 L3460.92 1220.21 L3476.14 1219.59 L3491.36 1219.10 L3506.58 1218.60 L3521.80 1218.11 L3537.02 1217.61 L3552.24 1217.00 L3567.47 1216.50 L3582.69 1216.01 L3597.91 1215.51 L3613.13 1215.02 L3628.35 1214.64 L3643.57 1214.15 L3658.79 1213.65 L3674.01 1213.16 L3689.24 1212.66 L3704.46 1212.17 L3719.68 1211.80 L3734.90 1211.30 L3750.12 1210.81 L3765.34 1210.44 L3780.56 1209.94 L3795.66 1209.45 L3795.66 770.62 L3780.56 771.23 L3765.34 771.85 L3750.12 772.47 L3734.90 773.09 L3719.68 773.71 L3704.46 774.33 L3689.24 774.95 L3674.01 775.69 L3658.79 776.31 L3643.57 776.93 L3628.35 777.55 L3613.13 778.16 L3597.91 778.91 L3582.69 779.53 L3567.47 780.14 L3552.24 780.89 L3537.02 781.51 L3521.80 782.25 L3506.58 782.87 L3491.36 783.61 L3476.14 784.23 L3460.92 784.97 L3445.70 785.71 L3430.47 786.33 L3415.38 787.07 L3400.16 787.82 L3384.93 788.56 L3369.71 789.30 L3354.49 790.04 L3339.27 790.79 L3324.05 791.65 L3308.83 792.40 L3293.61 793.14 L3278.39 794.00 L3263.16 794.87 L3247.94 795.61 L3232.72 796.48 L3217.50 797.35 L3202.28 798.21 L3187.06 799.08 L3171.84 800.07 L3156.61 800.94 L3141.39 801.80 L3126.17 802.79 L3110.95 803.78 L3095.73 804.77 L3080.51 805.76 L3065.41 806.75 L3050.19 807.87 L3034.97 808.86 L3019.75 809.97 L3004.53 811.08 L2989.30 812.20 L2974.08 813.31 L2958.86 814.55 L2943.64 815.79 L2928.42 817.02 L2913.20 818.26 L2897.98 819.50 L2882.76 820.86 L2867.53 822.22 L2852.31 823.58 L2837.09 824.94 L2821.87 826.43 L2806.65 827.91 L2791.43 829.40 L2776.21 830.88 L2760.99 832.49 L2745.76 834.10 L2730.54 835.83 L2715.32 837.44 L2700.22 839.17 L2685.00 841.03 L2669.78 842.89 L2654.56 844.74 L2639.34 846.60 L2624.12 848.58 L2608.90 850.68 L2593.68 852.79 L2578.45 854.89 L2563.23 857.12 L2548.01 859.35 L2532.79 861.70 L2517.57 864.05 L2502.35 866.40 L2487.13 869.00 L2471.91 871.47 L2456.68 874.20 L2441.46 876.92 L2426.24 879.64 L2411.02 882.49 L2395.80 885.46 L2380.58 888.55 L2365.36 891.65 L2350.14 894.74 L2335.04 898.08 L2319.82 901.42 L2304.60 904.89 L2289.38 908.48 L2274.15 912.19 L2258.93 915.90 L2243.71 919.74 L2228.49 923.82 L2213.27 927.91 L2198.05 932.11 L2182.83 936.45 L2167.61 940.90 L2152.38 945.48 L2137.16 950.18 L2121.94 955.01 L2106.72 959.96 L2091.50 965.16 L2076.28 970.48 L2061.06 975.80 L2045.84 981.49 L2030.61 987.18 L2015.39 993.12 L2000.17 999.19 L1984.95 1005.50 L1969.85 1011.94 L1954.63 1018.49 L1939.41 1025.30 L1924.19 1032.35 L1908.97 1039.53 L1893.75 1046.96 L1878.53 1054.63 L1863.30 1062.43 L1848.08 1070.47 L1832.86 1078.89 L1817.64 1087.43 L1802.42 1096.21 L1787.20 1105.25 L1771.98 1114.53 L1756.76 1124.06 L1741.53 1133.96 L1726.31 1144.10 L1711.09 1154.50 L1695.87 1165.14 L1680.65 1176.16 L1665.43 1187.54 L1650.21 1199.17 L1634.98 1211.06 L1619.76 1223.43 L1604.67 1236.05 L1589.44 1249.05 L1574.22 1262.29 L1559.00 1276.03 L1543.78 1290.13 L1528.56 1304.61 L1513.34 1319.34 L1498.12 1334.69 L1482.90 1350.28 L1467.67 1366.24 L1452.45 1382.83 L1437.23 1399.66 L1422.01 1416.98 L1406.79 1434.68 L1391.57 1452.87 L1376.35 1471.56 L1361.13 1490.62 L1345.90 1510.04 L1330.68 1530.09 L1315.46 1550.51 L1300.24 1571.43 L1285.02 1592.71 L1269.80 1614.49 L1254.70 1636.64 L1239.48 1659.42 L1224.26 1682.43 L1209.04 1705.95 L1193.82 1729.96 L1178.60 1754.21 L1163.37 1778.96 L1148.15 1803.96 L1132.93 1829.33 L1117.71 1854.82 L1102.49 1880.69 L1087.27 1906.55 L1072.05 1932.54 L1056.83 1958.65 L1041.60 1984.64 L1026.38 2010.63 L1011.16 2036.37 L995.94 2061.99 L980.72 2087.36 L965.50 2112.35 L950.28 2136.98 L935.05 2160.99 L919.83 2184.50 L904.61 2207.40 L889.51 2229.43 L874.29 2250.71 L859.07 2271.01 L843.85 2290.31 L828.63 2308.63 L813.41 2325.71 L798.19 2341.42 L782.97 2355.90 L767.75 2369.14 L752.52 2380.78 L737.30 2391.05 L722.08 2399.83 L706.86 2407.26 L691.64 2413.20 L676.42 2417.78 L661.20 2421.12 L645.98 2423.47 L630.75 2424.83 L615.53 2425.58 L600.31 2425.82 L600.31 2425.82 Z" stroke-linejoin="round"/>
	</defs>
	<defs>
		<clipPath id="clipPath_ZOwjBbnb">
			<use xlink:href="#path_ArffXOzY"/>
		</clipPath>
	</defs>
	<use xlink:href="#path_ArffXOzY" style="stroke:none;fill:#FF3333;fill-opacity:0.25"/>
	<use xlink:href="#path_ArffXOzY" style="fill:none;stroke:#FF0000;stroke-opacity:0.25;stroke-width:17.28" clip-path="url(#clipPath_ZOwjBbnb)"/>
	<path d=" M585.09 2425.95 L600.31 2425.95 L615.53 2425.82 L630.75 2425.58 L645.98 2424.96 L661.20 2423.72 L676.42 2421.74 L691.64 2418.89 L706.86 2415.06 L721.96 2409.86 L737.18 2403.42 L752.40 2395.50 L767.62 2386.10 L782.84 2375.33 L798.06 2362.96 L813.28 2349.10 L828.51 2333.87 L843.73 2317.17 L858.95 2299.22 L874.17 2280.04 L889.39 2259.62 L904.61 2238.09 L919.83 2215.57 L935.05 2192.05 L950.28 2167.92 L965.50 2142.92 L980.72 2117.30 L995.94 2091.19 L1011.16 2064.71 L1026.38 2037.85 L1041.60 2010.63 L1056.83 1983.40 L1072.05 1955.93 L1087.14 1928.46 L1102.37 1901.11 L1117.59 1873.88 L1132.81 1846.78 L1148.03 1819.80 L1163.25 1793.32 L1178.47 1766.96 L1193.69 1741.09 L1208.91 1715.72 L1224.13 1690.73 L1239.36 1666.10 L1254.58 1642.09 L1269.80 1618.45 L1285.02 1595.31 L1300.24 1572.66 L1315.46 1550.51 L1330.68 1528.86 L1345.90 1507.69 L1361.13 1487.15 L1376.35 1466.98 L1391.57 1447.30 L1406.79 1428.12 L1422.01 1409.31 L1437.23 1391.12 L1452.33 1373.30 L1467.55 1355.97 L1482.77 1339.14 L1497.99 1322.68 L1513.21 1306.59 L1528.44 1291.00 L1543.66 1275.90 L1558.88 1261.05 L1574.10 1246.70 L1589.32 1232.71 L1604.54 1219.10 L1619.76 1205.86 L1634.98 1192.99 L1650.21 1180.49 L1665.43 1168.36 L1680.65 1156.48 L1695.87 1144.97 L1711.09 1133.83 L1726.31 1122.94 L1741.53 1112.30 L1756.76 1102.03 L1771.98 1092.00 L1787.20 1082.35 L1802.30 1072.95 L1817.52 1063.66 L1832.74 1054.75 L1847.96 1046.09 L1863.18 1037.68 L1878.40 1029.51 L1893.62 1021.46 L1908.84 1013.79 L1924.07 1006.24 L1939.29 998.82 L1954.51 991.76 L1969.73 984.83 L1984.95 978.15 L2000.17 971.59 L2015.39 965.16 L2030.61 958.97 L2045.84 953.03 L2061.06 947.21 L2076.28 941.52 L2091.50 935.95 L2106.72 930.63 L2121.94 925.43 L2137.16 920.23 L2152.38 915.41 L2167.48 910.58 L2182.70 905.88 L2197.92 901.30 L2213.14 896.97 L2228.37 892.64 L2243.59 888.43 L2258.81 884.35 L2274.03 880.39 L2289.25 876.55 L2304.47 872.84 L2319.69 869.12 L2334.91 865.66 L2350.14 862.19 L2365.36 858.85 L2380.58 855.51 L2395.80 852.42 L2411.02 849.32 L2426.24 846.23 L2441.46 843.26 L2456.68 840.41 L2471.91 837.69 L2487.13 834.97 L2502.35 832.37 L2517.57 829.77 L2532.67 827.29 L2547.89 824.82 L2563.11 822.47 L2578.33 820.12 L2593.55 817.89 L2608.77 815.66 L2623.99 813.56 L2639.22 811.45 L2654.44 809.35 L2669.66 807.37 L2684.88 805.39 L2700.10 803.53 L2715.32 801.68 L2730.54 799.94 L2745.76 798.09 L2760.99 796.48 L2776.21 794.75 L2791.43 793.14 L2806.65 791.53 L2821.87 789.92 L2837.09 788.44 L2852.31 786.95 L2867.53 785.47 L2882.76 784.10 L2897.85 782.62 L2913.07 781.26 L2928.30 780.02 L2943.52 778.66 L2958.74 777.42 L2973.96 776.18 L2989.18 774.95 L3004.40 773.71 L3019.62 772.60 L3034.84 771.36 L3050.07 770.24 L3065.29 769.13 L3080.51 768.14 L3095.73 767.03 L3110.95 766.04 L3126.17 764.92 L3141.39 763.93 L3156.61 762.94 L3171.84 762.08 L3187.06 761.09 L3202.28 760.10 L3217.50 759.23 L3232.72 758.36 L3247.94 757.37 L3263.04 756.51 L3278.26 755.64 L3293.48 754.90 L3308.70 754.03 L3323.93 753.17 L3339.15 752.42 L3354.37 751.56 L3369.59 750.81 L3384.81 749.95 L3400.03 749.21 L3415.25 748.46 L3430.47 747.72 L3445.70 746.98 L3460.92 746.24 L3476.14 745.49 L3491.36 744.75 L3506.58 744.01 L3521.80 743.39 L3537.02 742.65 L3552.24 741.90 L3567.47 741.29 L3582.69 740.54 L3597.91 739.92 L3613.01 739.18 L3628.23 738.56 L3643.45 737.94 L3658.67 737.20 L3673.89 736.58 L3689.11 735.96 L3704.33 735.22 L3719.55 734.60 L3734.78 733.98 L3750.00 733.37 L3765.22 732.75 L3780.44 732.13 L3795.66 731.39" stroke-linejoin="round" style="fill:none;stroke:#0000FF;stroke-width:8.64"/>
	<path d=" M585.09 2425.95 L600.31 2425.95 L615.53 2425.82 L630.75 2425.58 L645.98 2425.08 L661.20 2424.09 L676.42 2422.48 L691.64 2420.13 L706.86 2416.79 L721.96 2412.46 L737.18 2407.01 L752.40 2400.45 L767.62 2392.66 L782.84 2383.50 L798.06 2373.23 L813.28 2361.72 L828.51 2348.85 L843.73 2334.99 L858.95 2319.89 L874.17 2303.80 L889.39 2286.72 L904.61 2268.66 L919.83 2249.85 L935.05 2230.29 L950.28 2210.00 L965.50 2189.08 L980.72 2167.67 L995.94 2145.77 L1011.16 2123.62 L1026.38 2101.09 L1041.60 2078.32 L1056.83 2055.55 L1072.05 2032.53 L1087.14 2009.64 L1102.37 1986.62 L1117.59 1963.85 L1132.81 1941.08 L1148.03 1918.68 L1163.25 1896.40 L1178.47 1874.38 L1193.69 1852.72 L1208.91 1831.43 L1224.13 1810.52 L1239.36 1789.85 L1254.58 1769.80 L1269.80 1750.00 L1285.02 1730.57 L1300.24 1711.64 L1315.46 1693.08 L1330.68 1675.01 L1345.90 1657.31 L1361.13 1639.99 L1376.35 1623.16 L1391.57 1606.57 L1406.79 1590.61 L1422.01 1574.89 L1437.23 1559.55 L1452.33 1544.70 L1467.55 1530.22 L1482.77 1515.98 L1497.99 1502.25 L1513.21 1488.88 L1528.44 1475.76 L1543.66 1463.14 L1558.88 1450.77 L1574.10 1438.64 L1589.32 1427.01 L1604.54 1415.62 L1619.76 1404.48 L1634.98 1393.72 L1650.21 1383.20 L1665.43 1373.05 L1680.65 1363.15 L1695.87 1353.50 L1711.09 1344.09 L1726.31 1334.93 L1741.53 1326.15 L1756.76 1317.48 L1771.98 1309.07 L1787.20 1301.02 L1802.30 1293.10 L1817.52 1285.31 L1832.74 1277.88 L1847.96 1270.58 L1863.18 1263.53 L1878.40 1256.72 L1893.62 1250.04 L1908.84 1243.48 L1924.07 1237.17 L1939.29 1231.10 L1954.51 1225.04 L1969.73 1219.35 L1984.95 1213.65 L2000.17 1208.21 L2015.39 1202.89 L2030.61 1197.69 L2045.84 1192.62 L2061.06 1187.79 L2076.28 1182.96 L2091.50 1178.38 L2106.72 1173.81 L2121.94 1169.47 L2137.16 1165.27 L2152.38 1161.06 L2167.48 1157.10 L2182.70 1153.14 L2197.92 1149.30 L2213.14 1145.59 L2228.37 1142.00 L2243.59 1138.54 L2258.81 1135.07 L2274.03 1131.85 L2289.25 1128.51 L2304.47 1125.42 L2319.69 1122.32 L2334.91 1119.35 L2350.14 1116.51 L2365.36 1113.66 L2380.58 1110.94 L2395.80 1108.34 L2411.02 1105.74 L2426.24 1103.14 L2441.46 1100.67 L2456.68 1098.32 L2471.91 1095.96 L2487.13 1093.74 L2502.35 1091.51 L2517.57 1089.41 L2532.67 1087.30 L2547.89 1085.20 L2563.11 1083.22 L2578.33 1081.24 L2593.55 1079.38 L2608.77 1077.52 L2623.99 1075.67 L2639.22 1073.94 L2654.44 1072.33 L2669.66 1070.59 L2684.88 1068.99 L2700.10 1067.38 L2715.32 1065.89 L2730.54 1064.28 L2745.76 1062.80 L2760.99 1061.44 L2776.21 1060.08 L2791.43 1058.59 L2806.65 1057.35 L2821.87 1055.99 L2837.09 1054.75 L2852.31 1053.52 L2867.53 1052.28 L2882.76 1051.04 L2897.85 1049.93 L2913.07 1048.69 L2928.30 1047.58 L2943.52 1046.59 L2958.74 1045.47 L2973.96 1044.48 L2989.18 1043.37 L3004.40 1042.38 L3019.62 1041.39 L3034.84 1040.52 L3050.07 1039.53 L3065.29 1038.54 L3080.51 1037.68 L3095.73 1036.81 L3110.95 1035.94 L3126.17 1035.08 L3141.39 1034.21 L3156.61 1033.34 L3171.84 1032.60 L3187.06 1031.86 L3202.28 1030.99 L3217.50 1030.25 L3232.72 1029.51 L3247.94 1028.77 L3263.04 1028.02 L3278.26 1027.28 L3293.48 1026.54 L3308.70 1025.92 L3323.93 1025.18 L3339.15 1024.56 L3354.37 1023.82 L3369.59 1023.20 L3384.81 1022.45 L3400.03 1021.84 L3415.25 1021.22 L3430.47 1020.60 L3445.70 1019.98 L3460.92 1019.36 L3476.14 1018.74 L3491.36 1018.12 L3506.58 1017.50 L3521.80 1016.89 L3537.02 1016.39 L3552.24 1015.77 L3567.47 1015.15 L3582.69 1014.66 L3597.91 1014.04 L3613.01 1013.54 L3628.23 1012.93 L3643.45 1012.43 L3658.67 1011.81 L3673.89 1011.32 L3689.11 1010.70 L3704.33 1010.20 L3719.55 1009.58 L3734.78 1009.09 L3750.00 1008.59 L3765.22 1007.98 L3780.44 1007.48 L3795.66 1006.99" stroke-linejoin="round" style="fill:none;stroke:#FF0000;stroke-width:8.64"/>
	<line x1="521.73" y1="2489.19" x2="521.73" y2="100.86" style="stroke:#000000;stroke-width:5.76"/>
	<line x1="521.73" y1="2425.82" x2="481.76" y2="2425.82" style="stroke:#000000;stroke-width:5.76"/>
	<text x="461.83" y="2460.85" style="font-family:'Helvetica';font-size:99.99px;fill:#000000" text-anchor="end">0.00</text>
	<line x1="521.73" y1="1973.50" x2="481.76" y2="1973.50" style="stroke:#000000;stroke-width:5.76"/>
	<text x="461.83" y="2008.53" style="font-family:'Helvetica';font-size:99.99px;fill:#000000" text-anchor="end">0.10</text>
	<line x1="521.73" y1="1521.18" x2="481.76" y2="1521.18" style="stroke:#000000;stroke-width:5.76"/>
	<text x="461.83" y="1556.21" style="font-family:'Helvetica';font-size:99.99px;fill:#000000" text-anchor="end">0.20</text>
	<line x1="521.73" y1="1068.86" x2="481.76" y2="1068.86" style="stroke:#000000;stroke-width:5.76"/>
	<text x="461.83" y="1103.89" style="font-family:'Helvetica';font-size:99.99px;fill:#000000" text-anchor="end">0.30</text>
	<line x1="521.73" y1="616.54" x2="481.76" y2="616.54" style="stroke:#000000;stroke-width:5.76"/>
	<text x="461.83" y="651.57" style="font-family:'Helvetica';font-size:99.99px;fill:#000000" text-anchor="end">0.40</text>
	<line x1="521.73" y1="164.22" x2="481.76" y2="164.22" style="stroke:#000000;stroke-width:5.76"/>
	<text x="461.83" y="199.25" style="font-family:'Helvetica';font-size:99.99px;fill:#000000" text-anchor="end">0.50</text>
	<text x="190.71" y="1294.96" style="font-family:'Helvetica';font-size:99.99px;fill:#000000" transform="rotate(-90 190.71,1294.96)" text-anchor="middle">Cumulative incidence (%)</text>
	<line x1="521.73" y1="2489.19" x2="3859.02" y2="2489.19" style="stroke:#000000;stroke-width:5.76"/>
	<line x1="585.09" y1="2489.19" x2="585.09" y2="2529.16" style="stroke:#000000;stroke-width:5.76"/>
	<text x="585.09" y="2619.14" style="font-family:'Helvetica';font-size:99.99px;fill:#000000" text-anchor="middle">0</text>
	<line x1="1345.90" y1="2489.19" x2="1345.90" y2="2529.16" style="stroke:#000000;stroke-width:5.76"/>
	<text x="1345.90" y="2619.14" style="font-family:'Helvetica';font-size:99.99px;fill:#000000" text-anchor="middle">50</text>
	<line x1="2106.72" y1="2489.19" x2="2106.72" y2="2529.16" style="stroke:#000000;stroke-width:5.76"/>
	<text x="2106.72" y="2619.14" style="font-family:'Helvetica';font-size:99.99px;fill:#000000" text-anchor="middle">100</text>
	<line x1="2867.53" y1="2489.19" x2="2867.53" y2="2529.16" style="stroke:#000000;stroke-width:5.76"/>
	<text x="2867.53" y="2619.14" style="font-family:'Helvetica';font-size:99.99px;fill:#000000" text-anchor="middle">150</text>
	<line x1="3628.35" y1="2489.19" x2="3628.35" y2="2529.16" style="stroke:#000000;stroke-width:5.76"/>
	<text x="3628.35" y="2619.14" style="font-family:'Helvetica';font-size:99.99px;fill:#000000" text-anchor="middle">200</text>
	<text x="2190.38" y="2729.16" style="font-family:'Helvetica';font-size:99.99px;fill:#000000" text-anchor="middle">Days from 1 March 2020</text>
	<rect x="1933.59" y="2128.20" width="1890.90" height="326.46" style="fill:#FFFFFF"/>
	<rect x="1936.47" y="2131.08" width="1885.14" height="320.70" style="fill:none;stroke:#000000;stroke-width:5.76"/>
	<rect x="1976.78" y="2171.51" width="374.34" height="99.99" style="fill:#3333FF;fill-opacity:0.25"/>
	<rect x="1981.10" y="2175.83" width="365.70" height="91.35" style="fill:none;stroke:#0000FF;stroke-opacity:0.25;stroke-width:8.64"/>
	<rect x="1976.78" y="2311.47" width="374.34" height="99.99" style="fill:#FF3333;fill-opacity:0.25"/>
	<rect x="1981.10" y="2315.79" width="365.70" height="91.35" style="fill:none;stroke:#FF0000;stroke-opacity:0.25;stroke-width:8.64"/>
	<text x="2411.14" y="2256.53" style="font-family:'Helvetica';font-size:99.99px;fill:#000000">Non-current anticoagulant use</text>
	<text x="2411.14" y="2396.50" style="font-family:'Helvetica';font-size:99.99px;fill:#000000">Current anticoagulant use</text>
</svg>
