<?xml version="1.0" encoding="UTF-8" standalone="no"?>
<!-- This is a Stata 16.1 generated SVG file (http://www.stata.com) -->

<svg version="1.1" width="5.50in" height="4.00in" viewBox="0 0 3960 2880" xmlns="http://www.w3.org/2000/svg" xmlns:xlink="http://www.w3.org/1999/xlink">
	<desc>Stata Graph - Graph</desc>
	<rect x="0" y="0" width="3960" height="2880" style="fill:#EAF2F3;stroke:none"/>
	<rect x="0.00" y="0.00" width="3959.88" height="2880.00" style="fill:#EAF2F3"/>
	<rect x="2.88" y="2.88" width="3954.12" height="2874.24" style="fill:none;stroke:#EAF2F3;stroke-width:5.76"/>
	<rect x="521.73" y="100.86" width="3337.29" height="2388.33" style="fill:#FFFFFF"/>
	<rect x="524.61" y="103.74" width="3331.53" height="2382.57" style="fill:none;stroke:#FFFFFF;stroke-width:5.76"/>
	<line x1="521.73" y1="2425.82" x2="3859.02" y2="2425.82" style="stroke:#EAF2F3;stroke-width:8.64"/>
	<line x1="521.73" y1="1860.39" x2="3859.02" y2="1860.39" style="stroke:#EAF2F3;stroke-width:8.64"/>
	<line x1="521.73" y1="1294.96" x2="3859.02" y2="1294.96" style="stroke:#EAF2F3;stroke-width:8.64"/>
	<line x1="521.73" y1="729.53" x2="3859.02" y2="729.53" style="stroke:#EAF2F3;stroke-width:8.64"/>
	<defs>
		<path id="path_bNEXDtJn" d="M600.31 2425.82 L600.31 2425.82 L615.53 2425.82 L630.75 2425.82 L645.98 2425.82 L661.20 2425.82 L676.42 2425.82 L691.64 2425.82 L706.86 2425.70 L722.08 2425.45 L737.30 2425.20 L752.52 2424.83 L767.75 2424.21 L782.97 2423.22 L798.19 2421.99 L813.41 2420.13 L828.63 2417.90 L843.85 2414.93 L859.07 2411.34 L874.29 2406.89 L889.51 2401.57 L904.61 2395.38 L919.83 2388.20 L935.05 2380.03 L950.28 2371.00 L965.50 2360.98 L980.72 2350.09 L995.94 2338.33 L1011.16 2325.83 L1026.38 2312.59 L1041.60 2298.85 L1056.83 2284.62 L1072.05 2270.02 L1087.27 2255.04 L1102.49 2240.07 L1117.71 2224.85 L1132.93 2209.75 L1148.15 2194.77 L1163.37 2179.92 L1178.60 2165.32 L1193.82 2151.21 L1209.04 2137.35 L1224.26 2123.99 L1239.48 2110.99 L1254.70 2098.49 L1269.80 2086.37 L1285.02 2074.61 L1300.24 2063.47 L1315.46 2052.58 L1330.68 2042.19 L1345.90 2032.16 L1361.13 2022.51 L1376.35 2013.35 L1391.57 2004.44 L1406.79 1996.03 L1422.01 1987.86 L1437.23 1980.06 L1452.45 1972.51 L1467.67 1965.34 L1482.90 1958.40 L1498.12 1951.72 L1513.34 1945.29 L1528.56 1939.10 L1543.78 1933.16 L1559.00 1927.47 L1574.22 1921.90 L1589.44 1916.45 L1604.67 1911.25 L1619.76 1906.30 L1634.98 1901.35 L1650.21 1896.53 L1665.43 1891.95 L1680.65 1887.37 L1695.87 1882.92 L1711.09 1878.58 L1726.31 1874.25 L1741.53 1870.04 L1756.76 1865.84 L1771.98 1861.75 L1787.20 1857.79 L1802.42 1853.83 L1817.64 1849.87 L1832.86 1846.04 L1848.08 1842.20 L1863.30 1838.49 L1878.53 1834.77 L1893.75 1831.19 L1908.97 1827.60 L1924.19 1824.01 L1939.41 1820.54 L1954.63 1817.08 L1969.85 1813.74 L1984.95 1810.40 L2000.17 1807.05 L2015.39 1803.71 L2030.61 1800.50 L2045.84 1797.28 L2061.06 1794.18 L2076.28 1791.09 L2091.50 1788.00 L2106.72 1784.90 L2121.94 1781.93 L2137.16 1778.84 L2152.38 1775.99 L2167.61 1773.02 L2182.83 1770.18 L2198.05 1767.33 L2213.27 1764.48 L2228.49 1761.64 L2243.71 1758.91 L2258.93 1756.19 L2274.15 1753.47 L2289.38 1750.75 L2304.60 1748.15 L2319.82 1745.42 L2335.04 1742.83 L2350.14 1740.35 L2365.36 1737.75 L2380.58 1735.15 L2395.80 1732.68 L2411.02 1730.20 L2426.24 1727.73 L2441.46 1725.38 L2456.68 1722.90 L2471.91 1720.55 L2487.13 1718.07 L2502.35 1715.72 L2517.57 1713.50 L2532.79 1711.14 L2548.01 1708.79 L2563.23 1706.57 L2578.45 1704.34 L2593.68 1702.11 L2608.90 1699.88 L2624.12 1697.66 L2639.34 1695.43 L2654.56 1693.32 L2669.78 1691.10 L2685.00 1688.99 L2700.22 1686.89 L2715.32 1684.79 L2730.54 1682.68 L2745.76 1680.58 L2760.99 1678.60 L2776.21 1676.49 L2791.43 1674.51 L2806.65 1672.41 L2821.87 1670.43 L2837.09 1668.45 L2852.31 1666.47 L2867.53 1664.49 L2882.76 1662.63 L2897.98 1660.65 L2913.20 1658.80 L2928.42 1656.82 L2943.64 1654.96 L2958.86 1653.10 L2974.08 1651.25 L2989.30 1649.39 L3004.53 1647.54 L3019.75 1645.68 L3034.97 1643.82 L3050.19 1641.97 L3065.41 1640.23 L3080.51 1638.38 L3095.73 1636.64 L3110.95 1634.91 L3126.17 1633.06 L3141.39 1631.32 L3156.61 1629.59 L3171.84 1627.86 L3187.06 1626.13 L3202.28 1624.39 L3217.50 1622.78 L3232.72 1621.05 L3247.94 1619.32 L3263.16 1617.71 L3278.39 1615.98 L3293.61 1614.37 L3308.83 1612.64 L3324.05 1611.03 L3339.27 1609.42 L3354.49 1607.81 L3369.71 1606.20 L3384.93 1604.59 L3400.16 1602.98 L3415.38 1601.38 L3430.47 1599.77 L3445.70 1598.16 L3460.92 1596.55 L3476.14 1595.06 L3491.36 1593.45 L3506.58 1591.97 L3521.80 1590.36 L3537.02 1588.88 L3552.24 1587.27 L3567.47 1585.78 L3582.69 1584.30 L3597.91 1582.69 L3613.13 1581.20 L3628.35 1579.72 L3643.57 1578.23 L3658.79 1576.75 L3674.01 1575.26 L3689.24 1573.78 L3704.46 1572.29 L3719.68 1570.81 L3734.90 1569.32 L3750.12 1567.96 L3765.34 1566.48 L3780.56 1564.99 L3795.66 1563.63 L3795.66 1218.48 L3780.56 1220.58 L3765.34 1222.56 L3750.12 1224.54 L3734.90 1226.65 L3719.68 1228.63 L3704.46 1230.73 L3689.24 1232.71 L3674.01 1234.82 L3658.79 1236.92 L3643.57 1238.90 L3628.35 1241.00 L3613.13 1243.11 L3597.91 1245.21 L3582.69 1247.32 L3567.47 1249.42 L3552.24 1251.52 L3537.02 1253.63 L3521.80 1255.73 L3506.58 1257.83 L3491.36 1260.06 L3476.14 1262.17 L3460.92 1264.39 L3445.70 1266.50 L3430.47 1268.72 L3415.38 1270.83 L3400.16 1273.06 L3384.93 1275.28 L3369.71 1277.39 L3354.49 1279.61 L3339.27 1281.84 L3324.05 1284.07 L3308.83 1286.30 L3293.61 1288.53 L3278.39 1290.88 L3263.16 1293.10 L3247.94 1295.33 L3232.72 1297.68 L3217.50 1299.91 L3202.28 1302.26 L3187.06 1304.61 L3171.84 1306.96 L3156.61 1309.32 L3141.39 1311.67 L3126.17 1314.02 L3110.95 1316.37 L3095.73 1318.72 L3080.51 1321.20 L3065.41 1323.55 L3050.19 1326.02 L3034.97 1328.37 L3019.75 1330.85 L3004.53 1333.32 L2989.30 1335.80 L2974.08 1338.27 L2958.86 1340.87 L2943.64 1343.35 L2928.42 1345.82 L2913.20 1348.42 L2897.98 1351.02 L2882.76 1353.62 L2867.53 1356.22 L2852.31 1358.82 L2837.09 1361.42 L2821.87 1364.02 L2806.65 1366.74 L2791.43 1369.46 L2776.21 1372.18 L2760.99 1374.91 L2745.76 1377.63 L2730.54 1380.35 L2715.32 1383.07 L2700.22 1385.92 L2685.00 1388.77 L2669.78 1391.61 L2654.56 1394.46 L2639.34 1397.30 L2624.12 1400.28 L2608.90 1403.12 L2593.68 1406.09 L2578.45 1409.06 L2563.23 1412.16 L2548.01 1415.13 L2532.79 1418.22 L2517.57 1421.31 L2502.35 1424.41 L2487.13 1427.50 L2471.91 1430.72 L2456.68 1433.81 L2441.46 1437.03 L2426.24 1440.37 L2411.02 1443.59 L2395.80 1446.93 L2380.58 1450.27 L2365.36 1453.61 L2350.14 1457.08 L2335.04 1460.42 L2319.82 1463.88 L2304.60 1467.47 L2289.38 1471.06 L2274.15 1474.65 L2258.93 1478.24 L2243.71 1481.83 L2228.49 1485.54 L2213.27 1489.38 L2198.05 1493.09 L2182.83 1496.93 L2167.61 1500.76 L2152.38 1504.72 L2137.16 1508.68 L2121.94 1512.64 L2106.72 1516.73 L2091.50 1520.81 L2076.28 1525.02 L2061.06 1529.23 L2045.84 1533.43 L2030.61 1537.77 L2015.39 1542.10 L2000.17 1546.55 L1984.95 1551.01 L1969.85 1555.59 L1954.63 1560.17 L1939.41 1564.87 L1924.19 1569.57 L1908.97 1574.27 L1893.75 1579.22 L1878.53 1584.05 L1863.30 1589.12 L1848.08 1594.20 L1832.86 1599.27 L1817.64 1604.47 L1802.42 1609.79 L1787.20 1615.11 L1771.98 1620.56 L1756.76 1626.00 L1741.53 1631.57 L1726.31 1637.26 L1711.09 1643.08 L1695.87 1648.90 L1680.65 1654.84 L1665.43 1661.02 L1650.21 1667.21 L1634.98 1673.52 L1619.76 1680.08 L1604.67 1686.89 L1589.44 1693.82 L1574.22 1701.00 L1559.00 1708.30 L1543.78 1715.97 L1528.56 1724.02 L1513.34 1732.18 L1498.12 1740.72 L1482.90 1749.63 L1467.67 1759.04 L1452.45 1768.69 L1437.23 1778.71 L1422.01 1789.36 L1406.79 1800.37 L1391.57 1811.88 L1376.35 1823.88 L1361.13 1836.51 L1345.90 1849.63 L1330.68 1863.36 L1315.46 1877.72 L1300.24 1892.69 L1285.02 1908.28 L1269.80 1924.62 L1254.70 1941.45 L1239.48 1959.02 L1224.26 1977.22 L1209.04 1995.90 L1193.82 2015.33 L1178.60 2035.13 L1163.37 2055.55 L1148.15 2076.34 L1132.93 2097.38 L1117.71 2118.42 L1102.49 2139.58 L1087.27 2160.50 L1072.05 2181.29 L1056.83 2201.58 L1041.60 2221.26 L1026.38 2240.44 L1011.16 2258.88 L995.94 2276.45 L980.72 2293.16 L965.50 2308.88 L950.28 2323.60 L935.05 2337.22 L919.83 2349.84 L904.61 2361.35 L889.51 2371.62 L874.29 2380.90 L859.07 2389.07 L843.85 2396.25 L828.63 2402.43 L813.41 2407.63 L798.19 2411.96 L782.97 2415.55 L767.75 2418.40 L752.52 2420.50 L737.30 2422.23 L722.08 2423.47 L706.86 2424.34 L691.64 2424.96 L676.42 2425.33 L661.20 2425.58 L645.98 2425.70 L630.75 2425.82 L615.53 2425.82 L600.31 2425.82 L600.31 2425.82 Z" stroke-linejoin="round"/>
	</defs>
	<defs>
		<clipPath id="clipPath_XjjLVGNO">
			<use xlink:href="#path_bNEXDtJn"/>
		</clipPath>
	</defs>
	<use xlink:href="#path_bNEXDtJn" style="stroke:none;fill:#3333FF;fill-opacity:0.25"/>
	<use xlink:href="#path_bNEXDtJn" style="fill:none;stroke:#0000FF;stroke-opacity:0.25;stroke-width:17.28" clip-path="url(#clipPath_XjjLVGNO)"/>
	<defs>
		<path id="path_IRiSwdeC" d="M600.31 2425.82 L600.31 2425.82 L615.53 2425.82 L630.75 2425.82 L645.98 2425.82 L661.20 2425.82 L676.42 2425.82 L691.64 2425.82 L706.86 2425.70 L722.08 2425.58 L737.30 2425.45 L752.52 2425.08 L767.75 2424.71 L782.97 2423.97 L798.19 2423.10 L813.41 2421.86 L828.63 2420.13 L843.85 2418.03 L859.07 2415.43 L874.29 2412.33 L889.51 2408.50 L904.61 2403.92 L919.83 2398.84 L935.05 2392.90 L950.28 2386.35 L965.50 2379.04 L980.72 2371.00 L995.94 2362.46 L1011.16 2353.18 L1026.38 2343.53 L1041.60 2333.38 L1056.83 2322.86 L1072.05 2312.09 L1087.27 2301.08 L1102.49 2289.82 L1117.71 2278.68 L1132.93 2267.42 L1148.15 2256.28 L1163.37 2245.27 L1178.60 2234.50 L1193.82 2223.98 L1209.04 2213.71 L1224.26 2203.81 L1239.48 2194.16 L1254.70 2184.87 L1269.80 2175.84 L1285.02 2167.18 L1300.24 2158.76 L1315.46 2150.72 L1330.68 2142.92 L1345.90 2135.50 L1361.13 2128.32 L1376.35 2121.39 L1391.57 2114.71 L1406.79 2108.39 L1422.01 2102.33 L1437.23 2096.39 L1452.45 2090.82 L1467.67 2085.38 L1482.90 2080.18 L1498.12 2075.23 L1513.34 2070.40 L1528.56 2065.70 L1543.78 2061.24 L1559.00 2056.91 L1574.22 2052.71 L1589.44 2048.75 L1604.67 2044.79 L1619.76 2040.95 L1634.98 2037.24 L1650.21 2033.65 L1665.43 2030.18 L1680.65 2026.72 L1695.87 2023.38 L1711.09 2020.16 L1726.31 2016.94 L1741.53 2013.72 L1756.76 2010.63 L1771.98 2007.54 L1787.20 2004.57 L1802.42 2001.60 L1817.64 1998.62 L1832.86 1995.65 L1848.08 1992.81 L1863.30 1990.09 L1878.53 1987.24 L1893.75 1984.52 L1908.97 1981.79 L1924.19 1979.20 L1939.41 1976.60 L1954.63 1974.00 L1969.85 1971.40 L1984.95 1968.80 L2000.17 1966.33 L2015.39 1963.85 L2030.61 1961.50 L2045.84 1959.02 L2061.06 1956.67 L2076.28 1954.32 L2091.50 1951.97 L2106.72 1949.74 L2121.94 1947.39 L2137.16 1945.16 L2152.38 1942.94 L2167.61 1940.71 L2182.83 1938.60 L2198.05 1936.38 L2213.27 1934.27 L2228.49 1932.17 L2243.71 1930.07 L2258.93 1928.09 L2274.15 1925.98 L2289.38 1924.00 L2304.60 1921.90 L2319.82 1919.92 L2335.04 1917.94 L2350.14 1916.08 L2365.36 1914.10 L2380.58 1912.24 L2395.80 1910.26 L2411.02 1908.41 L2426.24 1906.55 L2441.46 1904.70 L2456.68 1902.96 L2471.91 1901.11 L2487.13 1899.25 L2502.35 1897.52 L2517.57 1895.79 L2532.79 1894.05 L2548.01 1892.32 L2563.23 1890.59 L2578.45 1888.86 L2593.68 1887.12 L2608.90 1885.51 L2624.12 1883.78 L2639.34 1882.17 L2654.56 1880.44 L2669.78 1878.83 L2685.00 1877.22 L2700.22 1875.61 L2715.32 1874.00 L2730.54 1872.52 L2745.76 1870.91 L2760.99 1869.30 L2776.21 1867.82 L2791.43 1866.33 L2806.65 1864.72 L2821.87 1863.24 L2837.09 1861.75 L2852.31 1860.27 L2867.53 1858.78 L2882.76 1857.30 L2897.98 1855.81 L2913.20 1854.33 L2928.42 1852.97 L2943.64 1851.48 L2958.86 1850.12 L2974.08 1848.64 L2989.30 1847.27 L3004.53 1845.91 L3019.75 1844.43 L3034.97 1843.07 L3050.19 1841.71 L3065.41 1840.34 L3080.51 1838.98 L3095.73 1837.62 L3110.95 1836.38 L3126.17 1835.02 L3141.39 1833.66 L3156.61 1832.42 L3171.84 1831.06 L3187.06 1829.82 L3202.28 1828.46 L3217.50 1827.23 L3232.72 1825.86 L3247.94 1824.63 L3263.16 1823.39 L3278.39 1822.15 L3293.61 1820.91 L3308.83 1819.68 L3324.05 1818.44 L3339.27 1817.20 L3354.49 1815.96 L3369.71 1814.73 L3384.93 1813.49 L3400.16 1812.25 L3415.38 1811.14 L3430.47 1809.90 L3445.70 1808.66 L3460.92 1807.55 L3476.14 1806.31 L3491.36 1805.20 L3506.58 1803.96 L3521.80 1802.85 L3537.02 1801.73 L3552.24 1800.50 L3567.47 1799.38 L3582.69 1798.27 L3597.91 1797.15 L3613.13 1796.04 L3628.35 1794.93 L3643.57 1793.69 L3658.79 1792.57 L3674.01 1791.46 L3689.24 1790.47 L3704.46 1789.36 L3719.68 1788.24 L3734.90 1787.13 L3750.12 1786.02 L3765.34 1784.90 L3780.56 1783.91 L3795.66 1782.80 L3795.66 1626.62 L3780.56 1627.98 L3765.34 1629.34 L3750.12 1630.70 L3734.90 1632.07 L3719.68 1633.43 L3704.46 1634.79 L3689.24 1636.15 L3674.01 1637.51 L3658.79 1638.87 L3643.57 1640.23 L3628.35 1641.60 L3613.13 1642.96 L3597.91 1644.32 L3582.69 1645.80 L3567.47 1647.16 L3552.24 1648.53 L3537.02 1650.01 L3521.80 1651.37 L3506.58 1652.73 L3491.36 1654.22 L3476.14 1655.58 L3460.92 1657.06 L3445.70 1658.43 L3430.47 1659.91 L3415.38 1661.27 L3400.16 1662.76 L3384.93 1664.24 L3369.71 1665.60 L3354.49 1667.09 L3339.27 1668.57 L3324.05 1670.06 L3308.83 1671.54 L3293.61 1673.03 L3278.39 1674.51 L3263.16 1676.00 L3247.94 1677.48 L3232.72 1678.97 L3217.50 1680.45 L3202.28 1682.06 L3187.06 1683.55 L3171.84 1685.03 L3156.61 1686.64 L3141.39 1688.13 L3126.17 1689.74 L3110.95 1691.22 L3095.73 1692.83 L3080.51 1694.44 L3065.41 1696.05 L3050.19 1697.53 L3034.97 1699.14 L3019.75 1700.75 L3004.53 1702.36 L2989.30 1704.09 L2974.08 1705.70 L2958.86 1707.31 L2943.64 1708.92 L2928.42 1710.65 L2913.20 1712.26 L2897.98 1713.99 L2882.76 1715.72 L2867.53 1717.33 L2852.31 1719.06 L2837.09 1720.80 L2821.87 1722.53 L2806.65 1724.26 L2791.43 1726.00 L2776.21 1727.85 L2760.99 1729.58 L2745.76 1731.44 L2730.54 1733.17 L2715.32 1735.03 L2700.22 1736.89 L2685.00 1738.74 L2669.78 1740.60 L2654.56 1742.45 L2639.34 1744.31 L2624.12 1746.17 L2608.90 1748.15 L2593.68 1750.00 L2578.45 1751.98 L2563.23 1753.96 L2548.01 1755.94 L2532.79 1757.92 L2517.57 1759.90 L2502.35 1762.01 L2487.13 1763.99 L2471.91 1766.09 L2456.68 1768.20 L2441.46 1770.30 L2426.24 1772.40 L2411.02 1774.63 L2395.80 1776.73 L2380.58 1778.96 L2365.36 1781.19 L2350.14 1783.42 L2335.04 1785.64 L2319.82 1787.87 L2304.60 1790.22 L2289.38 1792.57 L2274.15 1794.93 L2258.93 1797.28 L2243.71 1799.63 L2228.49 1802.10 L2213.27 1804.58 L2198.05 1807.05 L2182.83 1809.53 L2167.61 1812.13 L2152.38 1814.60 L2137.16 1817.20 L2121.94 1819.92 L2106.72 1822.52 L2091.50 1825.25 L2076.28 1827.97 L2061.06 1830.69 L2045.84 1833.54 L2030.61 1836.38 L2015.39 1839.23 L2000.17 1842.08 L1984.95 1845.05 L1969.85 1848.02 L1954.63 1851.11 L1939.41 1854.08 L1924.19 1857.17 L1908.97 1860.39 L1893.75 1863.49 L1878.53 1866.83 L1863.30 1870.04 L1848.08 1873.39 L1832.86 1876.73 L1817.64 1880.19 L1802.42 1883.66 L1787.20 1887.12 L1771.98 1890.71 L1756.76 1894.30 L1741.53 1898.01 L1726.31 1901.73 L1711.09 1905.56 L1695.87 1909.40 L1680.65 1913.23 L1665.43 1917.32 L1650.21 1921.40 L1634.98 1925.49 L1619.76 1929.82 L1604.67 1934.27 L1589.44 1938.85 L1574.22 1943.55 L1559.00 1948.38 L1543.78 1953.33 L1528.56 1958.53 L1513.34 1963.97 L1498.12 1969.67 L1482.90 1975.48 L1467.67 1981.55 L1452.45 1987.98 L1437.23 1994.54 L1422.01 2001.47 L1406.79 2008.77 L1391.57 2016.32 L1376.35 2024.37 L1361.13 2032.66 L1345.90 2041.32 L1330.68 2050.35 L1315.46 2059.88 L1300.24 2069.78 L1285.02 2080.06 L1269.80 2090.82 L1254.70 2102.08 L1239.48 2113.72 L1224.26 2125.72 L1209.04 2138.22 L1193.82 2150.97 L1178.60 2164.21 L1163.37 2177.70 L1148.15 2191.56 L1132.93 2205.42 L1117.71 2219.53 L1102.49 2233.51 L1087.27 2247.37 L1072.05 2261.11 L1056.83 2274.60 L1041.60 2287.71 L1026.38 2300.46 L1011.16 2312.84 L995.94 2324.59 L980.72 2335.73 L965.50 2346.25 L950.28 2356.15 L935.05 2365.31 L919.83 2373.85 L904.61 2381.64 L889.51 2388.70 L874.29 2395.01 L859.07 2400.58 L843.85 2405.40 L828.63 2409.61 L813.41 2413.20 L798.19 2416.29 L782.97 2418.65 L767.75 2420.63 L752.52 2422.23 L737.30 2423.35 L722.08 2424.21 L706.86 2424.83 L691.64 2425.20 L676.42 2425.58 L661.20 2425.70 L645.98 2425.82 L630.75 2425.82 L615.53 2425.82 L600.31 2425.82 L600.31 2425.82 Z" stroke-linejoin="round"/>
	</defs>
	<defs>
		<clipPath id="clipPath_FrkduSBv">
			<use xlink:href="#path_IRiSwdeC"/>
		</clipPath>
	</defs>
	<use xlink:href="#path_IRiSwdeC" style="stroke:none;fill:#FF3333;fill-opacity:0.25"/>
	<use xlink:href="#path_IRiSwdeC" style="fill:none;stroke:#FF0000;stroke-opacity:0.25;stroke-width:17.28" clip-path="url(#clipPath_FrkduSBv)"/>
	<path d=" M585.09 2425.95 L600.31 2425.95 L615.53 2425.95 L630.75 2425.95 L645.98 2425.95 L661.20 2425.82 L676.42 2425.82 L691.64 2425.70 L706.86 2425.45 L721.96 2424.96 L737.18 2424.46 L752.40 2423.60 L767.62 2422.36 L782.84 2420.75 L798.06 2418.52 L813.28 2415.80 L828.51 2412.21 L843.73 2408.00 L858.95 2402.81 L874.17 2396.74 L889.39 2389.69 L904.61 2381.52 L919.83 2372.36 L935.05 2362.21 L950.28 2350.95 L965.50 2338.82 L980.72 2325.58 L995.94 2311.60 L1011.16 2296.62 L1026.38 2281.03 L1041.60 2264.70 L1056.83 2247.87 L1072.05 2230.66 L1087.14 2213.09 L1102.37 2195.27 L1117.59 2177.33 L1132.81 2159.50 L1148.03 2141.68 L1163.25 2124.11 L1178.47 2106.91 L1193.69 2090.08 L1208.91 2073.74 L1224.13 2057.90 L1239.36 2042.56 L1254.58 2027.71 L1269.80 2013.35 L1285.02 1999.61 L1300.24 1986.37 L1315.46 1973.63 L1330.68 1961.38 L1345.90 1949.62 L1361.13 1938.36 L1376.35 1927.59 L1391.57 1917.32 L1406.79 1907.42 L1422.01 1897.89 L1437.23 1888.73 L1452.33 1880.07 L1467.55 1871.65 L1482.77 1863.73 L1497.99 1855.94 L1513.21 1848.51 L1528.44 1841.46 L1543.66 1834.53 L1558.88 1827.84 L1574.10 1821.53 L1589.32 1815.22 L1604.54 1809.28 L1619.76 1803.47 L1634.98 1797.77 L1650.21 1792.20 L1665.43 1786.88 L1680.65 1781.56 L1695.87 1776.49 L1711.09 1771.41 L1726.31 1766.34 L1741.53 1761.51 L1756.76 1756.69 L1771.98 1751.98 L1787.20 1747.28 L1802.30 1742.70 L1817.52 1738.12 L1832.74 1733.67 L1847.96 1729.21 L1863.18 1724.88 L1878.40 1720.55 L1893.62 1716.34 L1908.84 1712.13 L1924.07 1708.05 L1939.29 1703.97 L1954.51 1700.01 L1969.73 1696.05 L1984.95 1692.09 L2000.17 1688.25 L2015.39 1684.41 L2030.61 1680.70 L2045.84 1676.99 L2061.06 1673.28 L2076.28 1669.69 L2091.50 1666.10 L2106.72 1662.51 L2121.94 1659.04 L2137.16 1655.58 L2152.38 1652.24 L2167.48 1648.77 L2182.70 1645.43 L2197.92 1642.21 L2213.14 1638.87 L2228.37 1635.65 L2243.59 1632.44 L2258.81 1629.22 L2274.03 1626.13 L2289.25 1623.03 L2304.47 1619.94 L2319.69 1616.97 L2334.91 1613.87 L2350.14 1610.90 L2365.36 1607.93 L2380.58 1605.09 L2395.80 1602.12 L2411.02 1599.27 L2426.24 1596.42 L2441.46 1593.70 L2456.68 1590.86 L2471.91 1588.13 L2487.13 1585.29 L2502.35 1582.69 L2517.57 1579.97 L2532.67 1577.24 L2547.89 1574.64 L2563.11 1572.05 L2578.33 1569.45 L2593.55 1566.85 L2608.77 1564.25 L2623.99 1561.65 L2639.22 1559.17 L2654.44 1556.70 L2669.66 1554.22 L2684.88 1551.75 L2700.10 1549.27 L2715.32 1546.80 L2730.54 1544.45 L2745.76 1542.10 L2760.99 1539.62 L2776.21 1537.27 L2791.43 1534.92 L2806.65 1532.69 L2821.87 1530.34 L2837.09 1527.99 L2852.31 1525.76 L2867.53 1523.53 L2882.76 1521.31 L2897.85 1519.08 L2913.07 1516.85 L2928.30 1514.62 L2943.52 1512.40 L2958.74 1510.17 L2973.96 1508.06 L2989.18 1505.84 L3004.40 1503.73 L3019.62 1501.63 L3034.84 1499.53 L3050.07 1497.42 L3065.29 1495.32 L3080.51 1493.21 L3095.73 1491.11 L3110.95 1489.13 L3126.17 1487.03 L3141.39 1485.05 L3156.61 1483.07 L3171.84 1480.96 L3187.06 1478.98 L3202.28 1477.00 L3217.50 1475.02 L3232.72 1473.04 L3247.94 1471.06 L3263.04 1469.08 L3278.26 1467.23 L3293.48 1465.25 L3308.70 1463.27 L3323.93 1461.41 L3339.15 1459.43 L3354.37 1457.57 L3369.59 1455.72 L3384.81 1453.74 L3400.03 1451.88 L3415.25 1450.02 L3430.47 1448.17 L3445.70 1446.31 L3460.92 1444.46 L3476.14 1442.60 L3491.36 1440.87 L3506.58 1439.01 L3521.80 1437.15 L3537.02 1435.42 L3552.24 1433.56 L3567.47 1431.83 L3582.69 1429.98 L3597.91 1428.24 L3613.01 1426.39 L3628.23 1424.65 L3643.45 1422.92 L3658.67 1421.19 L3673.89 1419.33 L3689.11 1417.60 L3704.33 1415.87 L3719.55 1414.14 L3734.78 1412.40 L3750.00 1410.67 L3765.22 1409.06 L3780.44 1407.33 L3795.66 1405.60" stroke-linejoin="round" style="fill:none;stroke:#0000FF;stroke-width:8.64"/>
	<path d=" M585.09 2425.95 L600.31 2425.95 L615.53 2425.95 L630.75 2425.95 L645.98 2425.95 L661.20 2425.82 L676.42 2425.82 L691.64 2425.70 L706.86 2425.58 L721.96 2425.33 L737.18 2424.83 L752.40 2424.21 L767.62 2423.47 L782.84 2422.23 L798.06 2420.75 L813.28 2418.77 L828.51 2416.29 L843.73 2413.32 L858.95 2409.74 L874.17 2405.40 L889.39 2400.45 L904.61 2394.76 L919.83 2388.45 L935.05 2381.27 L950.28 2373.35 L965.50 2364.81 L980.72 2355.65 L995.94 2345.75 L1011.16 2335.24 L1026.38 2324.35 L1041.60 2312.96 L1056.83 2301.08 L1072.05 2288.95 L1087.14 2276.70 L1102.37 2264.20 L1117.59 2251.58 L1132.81 2239.08 L1148.03 2226.58 L1163.25 2214.33 L1178.47 2202.20 L1193.69 2190.44 L1208.91 2178.93 L1224.13 2167.80 L1239.36 2157.03 L1254.58 2146.51 L1269.80 2136.49 L1285.02 2126.83 L1300.24 2117.55 L1315.46 2108.52 L1330.68 2099.98 L1345.90 2091.69 L1361.13 2083.89 L1376.35 2076.22 L1391.57 2069.04 L1406.79 2061.99 L1422.01 2055.43 L1437.23 2048.99 L1452.33 2042.81 L1467.55 2036.99 L1482.77 2031.30 L1497.99 2025.97 L1513.21 2020.65 L1528.44 2015.70 L1543.66 2010.88 L1558.88 2006.17 L1574.10 2001.72 L1589.32 1997.26 L1604.54 1993.06 L1619.76 1988.97 L1634.98 1985.01 L1650.21 1981.18 L1665.43 1977.34 L1680.65 1973.63 L1695.87 1970.04 L1711.09 1966.45 L1726.31 1962.98 L1741.53 1959.52 L1756.76 1956.18 L1771.98 1952.84 L1787.20 1949.49 L1802.30 1946.28 L1817.52 1943.06 L1832.74 1939.97 L1847.96 1936.87 L1863.18 1933.78 L1878.40 1930.68 L1893.62 1927.71 L1908.84 1924.87 L1924.07 1921.90 L1939.29 1919.05 L1954.51 1916.20 L1969.73 1913.48 L1984.95 1910.76 L2000.17 1908.04 L2015.39 1905.31 L2030.61 1902.72 L2045.84 1900.12 L2061.06 1897.52 L2076.28 1894.92 L2091.50 1892.44 L2106.72 1889.97 L2121.94 1887.49 L2137.16 1885.02 L2152.38 1882.67 L2167.48 1880.19 L2182.70 1877.84 L2197.92 1875.61 L2213.14 1873.26 L2228.37 1871.03 L2243.59 1868.68 L2258.81 1866.46 L2274.03 1864.35 L2289.25 1862.12 L2304.47 1860.02 L2319.69 1857.79 L2334.91 1855.69 L2350.14 1853.59 L2365.36 1851.48 L2380.58 1849.50 L2395.80 1847.40 L2411.02 1845.42 L2426.24 1843.44 L2441.46 1841.46 L2456.68 1839.48 L2471.91 1837.50 L2487.13 1835.64 L2502.35 1833.66 L2517.57 1831.80 L2532.67 1829.95 L2547.89 1828.09 L2563.11 1826.24 L2578.33 1824.38 L2593.55 1822.52 L2608.77 1820.79 L2623.99 1818.93 L2639.22 1817.20 L2654.44 1815.47 L2669.66 1813.61 L2684.88 1811.88 L2700.10 1810.27 L2715.32 1808.54 L2730.54 1806.81 L2745.76 1805.07 L2760.99 1803.47 L2776.21 1801.73 L2791.43 1800.12 L2806.65 1798.51 L2821.87 1796.91 L2837.09 1795.30 L2852.31 1793.69 L2867.53 1792.08 L2882.76 1790.47 L2897.85 1788.86 L2913.07 1787.38 L2928.30 1785.77 L2943.52 1784.28 L2958.74 1782.67 L2973.96 1781.19 L2989.18 1779.70 L3004.40 1778.22 L3019.62 1776.61 L3034.84 1775.13 L3050.07 1773.64 L3065.29 1772.28 L3080.51 1770.79 L3095.73 1769.31 L3110.95 1767.82 L3126.17 1766.46 L3141.39 1764.98 L3156.61 1763.49 L3171.84 1762.13 L3187.06 1760.77 L3202.28 1759.28 L3217.50 1757.92 L3232.72 1756.56 L3247.94 1755.20 L3263.04 1753.72 L3278.26 1752.35 L3293.48 1750.99 L3308.70 1749.63 L3323.93 1748.27 L3339.15 1747.03 L3354.37 1745.67 L3369.59 1744.31 L3384.81 1742.95 L3400.03 1741.71 L3415.25 1740.35 L3430.47 1738.99 L3445.70 1737.75 L3460.92 1736.39 L3476.14 1735.15 L3491.36 1733.79 L3506.58 1732.55 L3521.80 1731.32 L3537.02 1729.96 L3552.24 1728.72 L3567.47 1727.48 L3582.69 1726.24 L3597.91 1725.01 L3613.01 1723.77 L3628.23 1722.41 L3643.45 1721.17 L3658.67 1719.93 L3673.89 1718.69 L3689.11 1717.58 L3704.33 1716.34 L3719.55 1715.10 L3734.78 1713.87 L3750.00 1712.63 L3765.22 1711.39 L3780.44 1710.28 L3795.66 1709.04" stroke-linejoin="round" style="fill:none;stroke:#FF0000;stroke-width:8.64"/>
	<line x1="521.73" y1="2489.19" x2="521.73" y2="100.86" style="stroke:#000000;stroke-width:5.76"/>
	<line x1="521.73" y1="2425.82" x2="481.76" y2="2425.82" style="stroke:#000000;stroke-width:5.76"/>
	<text x="461.83" y="2460.85" style="font-family:'Helvetica';font-size:99.99px;fill:#000000" text-anchor="end">0.00</text>
	<line x1="521.73" y1="1860.39" x2="481.76" y2="1860.39" style="stroke:#000000;stroke-width:5.76"/>
	<text x="461.83" y="1895.42" style="font-family:'Helvetica';font-size:99.99px;fill:#000000" text-anchor="end">0.50</text>
	<line x1="521.73" y1="1294.96" x2="481.76" y2="1294.96" style="stroke:#000000;stroke-width:5.76"/>
	<text x="461.83" y="1329.99" style="font-family:'Helvetica';font-size:99.99px;fill:#000000" text-anchor="end">1.00</text>
	<line x1="521.73" y1="729.53" x2="481.76" y2="729.53" style="stroke:#000000;stroke-width:5.76"/>
	<text x="461.83" y="764.56" style="font-family:'Helvetica';font-size:99.99px;fill:#000000" text-anchor="end">1.50</text>
	<line x1="521.73" y1="164.22" x2="481.76" y2="164.22" style="stroke:#000000;stroke-width:5.76"/>
	<text x="461.83" y="199.25" style="font-family:'Helvetica';font-size:99.99px;fill:#000000" text-anchor="end">2.00</text>
	<text x="190.71" y="1294.96" style="font-family:'Helvetica';font-size:99.99px;fill:#000000" transform="rotate(-90 190.71,1294.96)" text-anchor="middle">Cumulative incidence (%)</text>
	<line x1="521.73" y1="2489.19" x2="3859.02" y2="2489.19" style="stroke:#000000;stroke-width:5.76"/>
	<line x1="585.09" y1="2489.19" x2="585.09" y2="2529.16" style="stroke:#000000;stroke-width:5.76"/>
	<text x="585.09" y="2619.14" style="font-family:'Helvetica';font-size:99.99px;fill:#000000" text-anchor="middle">0</text>
	<line x1="1345.90" y1="2489.19" x2="1345.90" y2="2529.16" style="stroke:#000000;stroke-width:5.76"/>
	<text x="1345.90" y="2619.14" style="font-family:'Helvetica';font-size:99.99px;fill:#000000" text-anchor="middle">50</text>
	<line x1="2106.72" y1="2489.19" x2="2106.72" y2="2529.16" style="stroke:#000000;stroke-width:5.76"/>
	<text x="2106.72" y="2619.14" style="font-family:'Helvetica';font-size:99.99px;fill:#000000" text-anchor="middle">100</text>
	<line x1="2867.53" y1="2489.19" x2="2867.53" y2="2529.16" style="stroke:#000000;stroke-width:5.76"/>
	<text x="2867.53" y="2619.14" style="font-family:'Helvetica';font-size:99.99px;fill:#000000" text-anchor="middle">150</text>
	<line x1="3628.35" y1="2489.19" x2="3628.35" y2="2529.16" style="stroke:#000000;stroke-width:5.76"/>
	<text x="3628.35" y="2619.14" style="font-family:'Helvetica';font-size:99.99px;fill:#000000" text-anchor="middle">200</text>
	<text x="2190.38" y="2729.16" style="font-family:'Helvetica';font-size:99.99px;fill:#000000" text-anchor="middle">Days from 1 March 2020</text>
	<rect x="1933.59" y="2128.20" width="1890.90" height="326.46" style="fill:#FFFFFF"/>
	<rect x="1936.47" y="2131.08" width="1885.14" height="320.70" style="fill:none;stroke:#000000;stroke-width:5.76"/>
	<rect x="1976.78" y="2171.51" width="374.34" height="99.99" style="fill:#3333FF;fill-opacity:0.25"/>
	<rect x="1981.10" y="2175.83" width="365.70" height="91.35" style="fill:none;stroke:#0000FF;stroke-opacity:0.25;stroke-width:8.64"/>
	<rect x="1976.78" y="2311.47" width="374.34" height="99.99" style="fill:#FF3333;fill-opacity:0.25"/>
	<rect x="1981.10" y="2315.79" width="365.70" height="91.35" style="fill:none;stroke:#FF0000;stroke-opacity:0.25;stroke-width:8.64"/>
	<text x="2411.14" y="2256.53" style="font-family:'Helvetica';font-size:99.99px;fill:#000000">Non-current anticoagulant use</text>
	<text x="2411.14" y="2396.50" style="font-family:'Helvetica';font-size:99.99px;fill:#000000">Current anticoagulant use</text>
</svg>
