<?xml version="1.0" encoding="UTF-8" standalone="no"?>
<!-- This is a Stata 16.1 generated SVG file (http://www.stata.com) -->

<svg version="1.1" width="5.50in" height="4.00in" viewBox="0 0 3960 2880" xmlns="http://www.w3.org/2000/svg" xmlns:xlink="http://www.w3.org/1999/xlink">
	<desc>Stata Graph - Graph</desc>
	<rect x="0" y="0" width="3960" height="2880" style="fill:#FFFFFF;stroke:none"/>
	<rect x="0.00" y="0.00" width="3959.88" height="2880.00" style="fill:#FFFFFF"/>
	<rect x="2.88" y="2.88" width="3954.12" height="2874.24" style="fill:none;stroke:#FFFFFF;stroke-width:5.76"/>
	<rect x="353.59" y="238.26" width="3502.55" height="2173.55" style="fill:none;stroke:#000000;stroke-width:5.76"/>
	<circle cx="660.33" cy="1265.14" r="14.97" style="fill:none;stroke:#606060;stroke-width:8.64"/>
	<circle cx="676.66" cy="2247.49" r="14.97" style="fill:none;stroke:#606060;stroke-width:8.64"/>
	<circle cx="676.66" cy="2215.94" r="14.97" style="fill:none;stroke:#606060;stroke-width:8.64"/>
	<circle cx="676.66" cy="1111.31" r="14.97" style="fill:none;stroke:#606060;stroke-width:8.64"/>
	<circle cx="693.12" cy="972.46" r="14.97" style="fill:none;stroke:#606060;stroke-width:8.64"/>
	<circle cx="709.46" cy="1149.05" r="14.97" style="fill:none;stroke:#606060;stroke-width:8.64"/>
	<circle cx="709.46" cy="1021.96" r="14.97" style="fill:none;stroke:#606060;stroke-width:8.64"/>
	<circle cx="709.46" cy="1020.47" r="14.97" style="fill:none;stroke:#606060;stroke-width:8.64"/>
	<circle cx="725.92" cy="990.40" r="14.97" style="fill:none;stroke:#606060;stroke-width:8.64"/>
	<circle cx="725.92" cy="1057.85" r="14.97" style="fill:none;stroke:#606060;stroke-width:8.64"/>
	<circle cx="725.92" cy="967.88" r="14.97" style="fill:none;stroke:#606060;stroke-width:8.64"/>
	<circle cx="725.92" cy="1097.82" r="14.97" style="fill:none;stroke:#606060;stroke-width:8.64"/>
	<circle cx="758.71" cy="1995.28" r="14.97" style="fill:none;stroke:#606060;stroke-width:8.64"/>
	<circle cx="758.71" cy="1078.27" r="14.97" style="fill:none;stroke:#606060;stroke-width:8.64"/>
	<circle cx="775.17" cy="1131.11" r="14.97" style="fill:none;stroke:#606060;stroke-width:8.64"/>
	<circle cx="775.17" cy="1056.36" r="14.97" style="fill:none;stroke:#606060;stroke-width:8.64"/>
	<circle cx="791.63" cy="1282.83" r="14.97" style="fill:none;stroke:#606060;stroke-width:8.64"/>
	<circle cx="791.63" cy="1075.54" r="14.97" style="fill:none;stroke:#606060;stroke-width:8.64"/>
	<circle cx="807.96" cy="1156.23" r="14.97" style="fill:none;stroke:#606060;stroke-width:8.64"/>
	<circle cx="807.96" cy="1052.40" r="14.97" style="fill:none;stroke:#606060;stroke-width:8.64"/>
	<circle cx="807.96" cy="1265.26" r="14.97" style="fill:none;stroke:#606060;stroke-width:8.64"/>
	<circle cx="807.96" cy="1588.75" r="14.97" style="fill:none;stroke:#606060;stroke-width:8.64"/>
	<circle cx="824.42" cy="1080.87" r="14.97" style="fill:none;stroke:#606060;stroke-width:8.64"/>
	<circle cx="824.42" cy="972.33" r="14.97" style="fill:none;stroke:#606060;stroke-width:8.64"/>
	<circle cx="824.42" cy="1087.30" r="14.97" style="fill:none;stroke:#606060;stroke-width:8.64"/>
	<circle cx="824.42" cy="1110.07" r="14.97" style="fill:none;stroke:#606060;stroke-width:8.64"/>
	<circle cx="840.88" cy="2063.60" r="14.97" style="fill:none;stroke:#606060;stroke-width:8.64"/>
	<circle cx="857.22" cy="2029.93" r="14.97" style="fill:none;stroke:#606060;stroke-width:8.64"/>
	<circle cx="857.22" cy="1111.93" r="14.97" style="fill:none;stroke:#606060;stroke-width:8.64"/>
	<circle cx="857.22" cy="950.18" r="14.97" style="fill:none;stroke:#606060;stroke-width:8.64"/>
	<circle cx="857.22" cy="1044.73" r="14.97" style="fill:none;stroke:#606060;stroke-width:8.64"/>
	<circle cx="857.22" cy="1098.32" r="14.97" style="fill:none;stroke:#606060;stroke-width:8.64"/>
	<circle cx="873.67" cy="1023.94" r="14.97" style="fill:none;stroke:#606060;stroke-width:8.64"/>
	<circle cx="873.67" cy="2105.05" r="14.97" style="fill:none;stroke:#606060;stroke-width:8.64"/>
	<circle cx="890.13" cy="1729.96" r="14.97" style="fill:none;stroke:#606060;stroke-width:8.64"/>
	<circle cx="890.13" cy="2187.10" r="14.97" style="fill:none;stroke:#606060;stroke-width:8.64"/>
	<circle cx="890.13" cy="1177.64" r="14.97" style="fill:none;stroke:#606060;stroke-width:8.64"/>
	<circle cx="906.47" cy="1146.70" r="14.97" style="fill:none;stroke:#606060;stroke-width:8.64"/>
	<circle cx="906.47" cy="1777.23" r="14.97" style="fill:none;stroke:#606060;stroke-width:8.64"/>
	<circle cx="906.47" cy="875.68" r="14.97" style="fill:none;stroke:#606060;stroke-width:8.64"/>
	<circle cx="922.93" cy="1103.39" r="14.97" style="fill:none;stroke:#606060;stroke-width:8.64"/>
	<circle cx="922.93" cy="1003.03" r="14.97" style="fill:none;stroke:#606060;stroke-width:8.64"/>
	<circle cx="922.93" cy="1098.56" r="14.97" style="fill:none;stroke:#606060;stroke-width:8.64"/>
	<circle cx="922.93" cy="2201.33" r="14.97" style="fill:none;stroke:#606060;stroke-width:8.64"/>
	<circle cx="922.93" cy="1953.70" r="14.97" style="fill:none;stroke:#606060;stroke-width:8.64"/>
	<circle cx="922.93" cy="1128.14" r="14.97" style="fill:none;stroke:#606060;stroke-width:8.64"/>
	<circle cx="939.39" cy="1088.29" r="14.97" style="fill:none;stroke:#606060;stroke-width:8.64"/>
	<circle cx="939.39" cy="1147.57" r="14.97" style="fill:none;stroke:#606060;stroke-width:8.64"/>
	<circle cx="939.39" cy="1056.73" r="14.97" style="fill:none;stroke:#606060;stroke-width:8.64"/>
	<circle cx="939.39" cy="300.35" r="14.97" style="fill:none;stroke:#606060;stroke-width:8.64"/>
	<circle cx="939.39" cy="896.47" r="14.97" style="fill:none;stroke:#606060;stroke-width:8.64"/>
	<circle cx="939.39" cy="1640.23" r="14.97" style="fill:none;stroke:#606060;stroke-width:8.64"/>
	<circle cx="939.39" cy="1195.71" r="14.97" style="fill:none;stroke:#606060;stroke-width:8.64"/>
	<circle cx="939.39" cy="1105.37" r="14.97" style="fill:none;stroke:#606060;stroke-width:8.64"/>
	<circle cx="955.72" cy="1215.02" r="14.97" style="fill:none;stroke:#606060;stroke-width:8.64"/>
	<circle cx="955.72" cy="1142.00" r="14.97" style="fill:none;stroke:#606060;stroke-width:8.64"/>
	<circle cx="955.72" cy="1054.14" r="14.97" style="fill:none;stroke:#606060;stroke-width:8.64"/>
	<circle cx="955.72" cy="1678.10" r="14.97" style="fill:none;stroke:#606060;stroke-width:8.64"/>
	<circle cx="955.72" cy="1804.33" r="14.97" style="fill:none;stroke:#606060;stroke-width:8.64"/>
	<circle cx="955.72" cy="1159.33" r="14.97" style="fill:none;stroke:#606060;stroke-width:8.64"/>
	<circle cx="955.72" cy="1067.50" r="14.97" style="fill:none;stroke:#606060;stroke-width:8.64"/>
	<circle cx="955.72" cy="1744.81" r="14.97" style="fill:none;stroke:#606060;stroke-width:8.64"/>
	<circle cx="972.18" cy="2060.01" r="14.97" style="fill:none;stroke:#606060;stroke-width:8.64"/>
	<circle cx="972.18" cy="1004.39" r="14.97" style="fill:none;stroke:#606060;stroke-width:8.64"/>
	<circle cx="972.18" cy="1074.80" r="14.97" style="fill:none;stroke:#606060;stroke-width:8.64"/>
	<circle cx="988.64" cy="1782.80" r="14.97" style="fill:none;stroke:#606060;stroke-width:8.64"/>
	<circle cx="988.64" cy="1120.96" r="14.97" style="fill:none;stroke:#606060;stroke-width:8.64"/>
	<circle cx="1004.97" cy="1207.10" r="14.97" style="fill:none;stroke:#606060;stroke-width:8.64"/>
	<circle cx="1004.97" cy="1171.21" r="14.97" style="fill:none;stroke:#606060;stroke-width:8.64"/>
	<circle cx="1004.97" cy="1039.66" r="14.97" style="fill:none;stroke:#606060;stroke-width:8.64"/>
	<circle cx="1021.43" cy="1003.64" r="14.97" style="fill:none;stroke:#606060;stroke-width:8.64"/>
	<circle cx="1021.43" cy="720.25" r="14.97" style="fill:none;stroke:#606060;stroke-width:8.64"/>
	<circle cx="1021.43" cy="1007.48" r="14.97" style="fill:none;stroke:#606060;stroke-width:8.64"/>
	<circle cx="1021.43" cy="1096.71" r="14.97" style="fill:none;stroke:#606060;stroke-width:8.64"/>
	<circle cx="1037.89" cy="2021.27" r="14.97" style="fill:none;stroke:#606060;stroke-width:8.64"/>
	<circle cx="1037.89" cy="2186.36" r="14.97" style="fill:none;stroke:#606060;stroke-width:8.64"/>
	<circle cx="1037.89" cy="1040.03" r="14.97" style="fill:none;stroke:#606060;stroke-width:8.64"/>
	<circle cx="1037.89" cy="1854.82" r="14.97" style="fill:none;stroke:#606060;stroke-width:8.64"/>
	<circle cx="1037.89" cy="1160.19" r="14.97" style="fill:none;stroke:#606060;stroke-width:8.64"/>
	<circle cx="1054.23" cy="989.16" r="14.97" style="fill:none;stroke:#606060;stroke-width:8.64"/>
	<circle cx="1054.23" cy="1115.15" r="14.97" style="fill:none;stroke:#606060;stroke-width:8.64"/>
	<circle cx="1054.23" cy="941.89" r="14.97" style="fill:none;stroke:#606060;stroke-width:8.64"/>
	<circle cx="1070.68" cy="1163.78" r="14.97" style="fill:none;stroke:#606060;stroke-width:8.64"/>
	<circle cx="1070.68" cy="1080.25" r="14.97" style="fill:none;stroke:#606060;stroke-width:8.64"/>
	<circle cx="1070.68" cy="1112.18" r="14.97" style="fill:none;stroke:#606060;stroke-width:8.64"/>
	<circle cx="1087.02" cy="993.25" r="14.97" style="fill:none;stroke:#606060;stroke-width:8.64"/>
	<circle cx="1087.02" cy="2182.40" r="14.97" style="fill:none;stroke:#606060;stroke-width:8.64"/>
	<circle cx="1087.02" cy="2103.57" r="14.97" style="fill:none;stroke:#606060;stroke-width:8.64"/>
	<circle cx="1087.02" cy="820.36" r="14.97" style="fill:none;stroke:#606060;stroke-width:8.64"/>
	<circle cx="1087.02" cy="1991.57" r="14.97" style="fill:none;stroke:#606060;stroke-width:8.64"/>
	<circle cx="1103.48" cy="1225.66" r="14.97" style="fill:none;stroke:#606060;stroke-width:8.64"/>
	<circle cx="1119.94" cy="1098.81" r="14.97" style="fill:none;stroke:#606060;stroke-width:8.64"/>
	<circle cx="1119.94" cy="964.79" r="14.97" style="fill:none;stroke:#606060;stroke-width:8.64"/>
	<circle cx="1136.27" cy="1176.78" r="14.97" style="fill:none;stroke:#606060;stroke-width:8.64"/>
	<circle cx="1136.27" cy="1082.23" r="14.97" style="fill:none;stroke:#606060;stroke-width:8.64"/>
	<circle cx="1136.27" cy="2148.86" r="14.97" style="fill:none;stroke:#606060;stroke-width:8.64"/>
	<circle cx="1136.27" cy="1636.77" r="14.97" style="fill:none;stroke:#606060;stroke-width:8.64"/>
	<circle cx="1152.73" cy="823.83" r="14.97" style="fill:none;stroke:#606060;stroke-width:8.64"/>
	<circle cx="1152.73" cy="814.18" r="14.97" style="fill:none;stroke:#606060;stroke-width:8.64"/>
	<circle cx="1152.73" cy="1062.92" r="14.97" style="fill:none;stroke:#606060;stroke-width:8.64"/>
	<circle cx="1169.19" cy="2351.45" r="14.97" style="fill:none;stroke:#606060;stroke-width:8.64"/>
	<circle cx="1169.19" cy="962.31" r="14.97" style="fill:none;stroke:#606060;stroke-width:8.64"/>
	<circle cx="1185.53" cy="1661.77" r="14.97" style="fill:none;stroke:#606060;stroke-width:8.64"/>
	<circle cx="1185.53" cy="968.50" r="14.97" style="fill:none;stroke:#606060;stroke-width:8.64"/>
	<circle cx="1201.98" cy="952.53" r="14.97" style="fill:none;stroke:#606060;stroke-width:8.64"/>
	<circle cx="1218.44" cy="1099.92" r="14.97" style="fill:none;stroke:#606060;stroke-width:8.64"/>
	<circle cx="1218.44" cy="2101.09" r="14.97" style="fill:none;stroke:#606060;stroke-width:8.64"/>
	<circle cx="1218.44" cy="2122.38" r="14.97" style="fill:none;stroke:#606060;stroke-width:8.64"/>
	<circle cx="1218.44" cy="1691.22" r="14.97" style="fill:none;stroke:#606060;stroke-width:8.64"/>
	<circle cx="1234.78" cy="1136.06" r="14.97" style="fill:none;stroke:#606060;stroke-width:8.64"/>
	<circle cx="1251.24" cy="916.40" r="14.97" style="fill:none;stroke:#606060;stroke-width:8.64"/>
	<circle cx="1251.24" cy="828.41" r="14.97" style="fill:none;stroke:#606060;stroke-width:8.64"/>
	<circle cx="1251.24" cy="1985.88" r="14.97" style="fill:none;stroke:#606060;stroke-width:8.64"/>
	<circle cx="1251.24" cy="983.10" r="14.97" style="fill:none;stroke:#606060;stroke-width:8.64"/>
	<circle cx="1284.03" cy="963.67" r="14.97" style="fill:none;stroke:#606060;stroke-width:8.64"/>
	<circle cx="1300.49" cy="848.95" r="14.97" style="fill:none;stroke:#606060;stroke-width:8.64"/>
	<circle cx="1398.99" cy="2214.70" r="14.97" style="fill:none;stroke:#606060;stroke-width:8.64"/>
	<circle cx="1398.99" cy="1021.22" r="14.97" style="fill:none;stroke:#606060;stroke-width:8.64"/>
	<circle cx="1398.99" cy="1057.35" r="14.97" style="fill:none;stroke:#606060;stroke-width:8.64"/>
	<circle cx="1415.33" cy="921.84" r="14.97" style="fill:none;stroke:#606060;stroke-width:8.64"/>
	<circle cx="1431.79" cy="1203.14" r="14.97" style="fill:none;stroke:#606060;stroke-width:8.64"/>
	<circle cx="1481.04" cy="1662.01" r="14.97" style="fill:none;stroke:#606060;stroke-width:8.64"/>
	<circle cx="1513.83" cy="1105.37" r="14.97" style="fill:none;stroke:#606060;stroke-width:8.64"/>
	<circle cx="1530.29" cy="964.29" r="14.97" style="fill:none;stroke:#606060;stroke-width:8.64"/>
	<circle cx="1530.29" cy="1063.91" r="14.97" style="fill:none;stroke:#606060;stroke-width:8.64"/>
	<circle cx="1612.34" cy="946.72" r="14.97" style="fill:none;stroke:#606060;stroke-width:8.64"/>
	<circle cx="1612.34" cy="1558.80" r="14.97" style="fill:none;stroke:#606060;stroke-width:8.64"/>
	<circle cx="1628.80" cy="1123.07" r="14.97" style="fill:none;stroke:#606060;stroke-width:8.64"/>
	<circle cx="1628.80" cy="2163.22" r="14.97" style="fill:none;stroke:#606060;stroke-width:8.64"/>
	<circle cx="1645.26" cy="1113.91" r="14.97" style="fill:none;stroke:#606060;stroke-width:8.64"/>
	<circle cx="1645.26" cy="1108.34" r="14.97" style="fill:none;stroke:#606060;stroke-width:8.64"/>
	<circle cx="1678.05" cy="1099.92" r="14.97" style="fill:none;stroke:#606060;stroke-width:8.64"/>
	<circle cx="1678.05" cy="1089.03" r="14.97" style="fill:none;stroke:#606060;stroke-width:8.64"/>
	<circle cx="1710.84" cy="1165.89" r="14.97" style="fill:none;stroke:#606060;stroke-width:8.64"/>
	<circle cx="1727.30" cy="1160.81" r="14.97" style="fill:none;stroke:#606060;stroke-width:8.64"/>
	<circle cx="1743.76" cy="1029.14" r="14.97" style="fill:none;stroke:#606060;stroke-width:8.64"/>
	<circle cx="1792.89" cy="1083.71" r="14.97" style="fill:none;stroke:#606060;stroke-width:8.64"/>
	<circle cx="1825.81" cy="2183.76" r="14.97" style="fill:none;stroke:#606060;stroke-width:8.64"/>
	<circle cx="1858.60" cy="1101.29" r="14.97" style="fill:none;stroke:#606060;stroke-width:8.64"/>
	<circle cx="1875.06" cy="815.04" r="14.97" style="fill:none;stroke:#606060;stroke-width:8.64"/>
	<circle cx="1875.06" cy="978.27" r="14.97" style="fill:none;stroke:#606060;stroke-width:8.64"/>
	<circle cx="1907.85" cy="2063.97" r="14.97" style="fill:none;stroke:#606060;stroke-width:8.64"/>
	<circle cx="1924.31" cy="1023.07" r="14.97" style="fill:none;stroke:#606060;stroke-width:8.64"/>
	<circle cx="1924.31" cy="1811.01" r="14.97" style="fill:none;stroke:#606060;stroke-width:8.64"/>
	<circle cx="1957.11" cy="1125.79" r="14.97" style="fill:none;stroke:#606060;stroke-width:8.64"/>
	<circle cx="2055.61" cy="1055.62" r="14.97" style="fill:none;stroke:#606060;stroke-width:8.64"/>
	<circle cx="2072.07" cy="1108.22" r="14.97" style="fill:none;stroke:#606060;stroke-width:8.64"/>
	<circle cx="2121.32" cy="1035.94" r="14.97" style="fill:none;stroke:#606060;stroke-width:8.64"/>
	<circle cx="2170.45" cy="1044.85" r="14.97" style="fill:none;stroke:#606060;stroke-width:8.64"/>
	<circle cx="2186.91" cy="1174.05" r="14.97" style="fill:none;stroke:#606060;stroke-width:8.64"/>
	<circle cx="2186.91" cy="2205.91" r="14.97" style="fill:none;stroke:#606060;stroke-width:8.64"/>
	<circle cx="2203.37" cy="961.94" r="14.97" style="fill:none;stroke:#606060;stroke-width:8.64"/>
	<circle cx="2203.37" cy="1113.78" r="14.97" style="fill:none;stroke:#606060;stroke-width:8.64"/>
	<circle cx="2203.37" cy="1438.14" r="14.97" style="fill:none;stroke:#606060;stroke-width:8.64"/>
	<circle cx="2252.62" cy="1565.36" r="14.97" style="fill:none;stroke:#606060;stroke-width:8.64"/>
	<circle cx="2334.67" cy="1998.87" r="14.97" style="fill:none;stroke:#606060;stroke-width:8.64"/>
	<circle cx="2351.13" cy="1171.70" r="14.97" style="fill:none;stroke:#606060;stroke-width:8.64"/>
	<circle cx="2515.22" cy="1010.57" r="14.97" style="fill:none;stroke:#606060;stroke-width:8.64"/>
	<circle cx="3073.33" cy="1663.62" r="14.97" style="fill:none;stroke:#606060;stroke-width:8.64"/>
	<circle cx="3171.84" cy="1094.48" r="14.97" style="fill:none;stroke:#606060;stroke-width:8.64"/>
	<circle cx="3401.64" cy="989.04" r="14.97" style="fill:none;stroke:#606060;stroke-width:8.64"/>
	<circle cx="3483.81" cy="414.33" r="14.97" style="fill:none;stroke:#606060;stroke-width:8.64"/>
	<circle cx="3598.65" cy="1610.41" r="14.97" style="fill:none;stroke:#606060;stroke-width:8.64"/>
	<circle cx="3647.90" cy="907.49" r="14.97" style="fill:none;stroke:#606060;stroke-width:8.64"/>
	<circle cx="3664.36" cy="2162.85" r="14.97" style="fill:none;stroke:#606060;stroke-width:8.64"/>
	<circle cx="3697.16" cy="2196.88" r="14.97" style="fill:none;stroke:#606060;stroke-width:8.64"/>
	<circle cx="3762.87" cy="949.56" r="14.97" style="fill:none;stroke:#606060;stroke-width:8.64"/>
	<circle cx="3795.66" cy="2236.11" r="14.97" style="fill:none;stroke:#606060;stroke-width:8.64"/>
	<path d=" M660.33 1301.52 L676.66 1300.16 L676.66 1298.18 L676.66 1294.59 L693.12 1290.38 L709.46 1282.59 L709.46 1278.75 L709.46 1276.27 L725.92 1286.17 L725.92 1298.05 L725.92 1294.71 L725.92 1301.89 L758.71 1300.16 L758.71 1296.20 L775.17 1293.97 L775.17 1289.64 L791.63 1288.15 L791.63 1285.68 L807.96 1283.70 L807.96 1280.23 L807.96 1290.63 L807.96 1299.91 L824.42 1294.47 L824.42 1302.26 L824.42 1301.40 L824.42 1299.17 L840.88 1295.58 L857.22 1294.34 L857.22 1292.11 L857.22 1301.02 L857.22 1304.49 L857.22 1299.54 L873.67 1294.71 L873.67 1292.36 L890.13 1302.88 L890.13 1299.54 L890.13 1303.00 L906.47 1299.79 L906.47 1296.45 L906.47 1294.71 L922.93 1302.14 L922.93 1309.81 L922.93 1313.28 L922.93 1311.67 L922.93 1308.08 L922.93 1303.87 L939.39 1309.81 L939.39 1306.96 L939.39 1303.99 L939.39 1300.03 L939.39 1307.95 L939.39 1305.48 L939.39 1303.38 L939.39 1300.16 L955.72 1299.42 L955.72 1302.39 L955.72 1300.78 L955.72 1298.05 L955.72 1296.20 L955.72 1293.48 L955.72 1295.46 L955.72 1294.22 L972.18 1300.90 L972.18 1299.42 L972.18 1298.05 L988.64 1296.45 L988.64 1294.96 L1004.97 1294.22 L1004.97 1286.05 L1004.97 1277.14 L1021.43 1276.89 L1021.43 1286.05 L1021.43 1285.68 L1021.43 1284.07 L1037.89 1283.82 L1037.89 1291.87 L1037.89 1291.62 L1037.89 1297.93 L1037.89 1298.18 L1054.23 1291.12 L1054.23 1291.25 L1054.23 1290.63 L1070.68 1290.51 L1070.68 1289.64 L1070.68 1298.18 L1087.02 1296.69 L1087.02 1297.19 L1087.02 1298.43 L1087.02 1298.30 L1087.02 1305.23 L1103.48 1306.72 L1119.94 1306.10 L1119.94 1310.31 L1136.27 1303.00 L1136.27 1295.21 L1136.27 1289.89 L1136.27 1294.84 L1152.73 1293.85 L1152.73 1301.89 L1152.73 1310.68 L1169.19 1302.01 L1169.19 1305.85 L1185.53 1299.17 L1185.53 1300.03 L1201.98 1301.27 L1218.44 1297.56 L1218.44 1300.78 L1218.44 1302.39 L1218.44 1304.74 L1234.78 1306.47 L1251.24 1299.17 L1251.24 1293.85 L1251.24 1295.21 L1251.24 1296.94 L1284.03 1298.18 L1300.49 1300.16 L1398.99 1308.70 L1398.99 1312.16 L1398.99 1309.44 L1415.33 1310.43 L1431.79 1312.16 L1481.04 1313.03 L1513.83 1314.51 L1530.29 1316.86 L1530.29 1313.65 L1612.34 1309.07 L1612.34 1310.55 L1628.80 1312.78 L1628.80 1308.70 L1645.26 1301.52 L1645.26 1304.37 L1678.05 1306.59 L1678.05 1302.01 L1710.84 1303.75 L1727.30 1304.74 L1743.76 1306.10 L1792.89 1308.82 L1825.81 1311.91 L1858.60 1318.10 L1875.06 1321.32 L1875.06 1323.80 L1907.85 1316.25 L1924.31 1306.84 L1924.31 1309.69 L1957.11 1303.62 L2055.61 1305.23 L2072.07 1308.82 L2121.32 1311.05 L2170.45 1315.38 L2186.91 1317.24 L2186.91 1319.96 L2203.37 1322.56 L2203.37 1326.52 L2203.37 1316.00 L2252.62 1306.10 L2334.67 1312.29 L2351.13 1303.50 L2515.22 1304.61 L3073.33 1307.21 L3171.84 1311.79 L3401.64 1313.65 L3483.81 1316.86 L3598.65 1305.23 L3647.90 1300.65 L3664.36 1307.46 L3697.16 1314.51 L3762.87 1318.23 L3795.66 1302.88" stroke-linejoin="round" style="fill:none;stroke:#000000;stroke-width:8.64"/>
	<line x1="350.71" y1="2414.69" x2="350.71" y2="235.38" style="stroke:#000000;stroke-width:5.76"/>
	<line x1="350.71" y1="2210.99" x2="310.74" y2="2210.99" style="stroke:#000000;stroke-width:5.76"/>
	<text x="266.64" y="2210.99" style="font-family:'Helvetica';font-size:79.94px;fill:#000000" transform="rotate(-90 266.64,2210.99)" text-anchor="middle">-5</text>
	<line x1="350.71" y1="1254.86" x2="310.74" y2="1254.86" style="stroke:#000000;stroke-width:5.76"/>
	<text x="266.64" y="1254.86" style="font-family:'Helvetica';font-size:79.94px;fill:#000000" transform="rotate(-90 266.64,1254.86)" text-anchor="middle">0</text>
	<line x1="350.71" y1="298.74" x2="310.74" y2="298.74" style="stroke:#000000;stroke-width:5.76"/>
	<text x="266.64" y="298.74" style="font-family:'Helvetica';font-size:79.94px;fill:#000000" transform="rotate(-90 266.64,298.74)" text-anchor="middle">5</text>
	<text x="176.68" y="1325.03" style="font-family:'Helvetica';font-size:79.94px;fill:#000000" transform="rotate(-90 176.68,1325.03)" text-anchor="middle">Scaled Schoenfeld Residuals</text>
	<line x1="350.71" y1="2414.69" x2="3859.02" y2="2414.69" style="stroke:#000000;stroke-width:5.76"/>
	<line x1="414.07" y1="2414.69" x2="414.07" y2="2454.66" style="stroke:#000000;stroke-width:5.76"/>
	<text x="414.07" y="2530.61" style="font-family:'Helvetica';font-size:79.94px;fill:#000000" text-anchor="middle">0</text>
	<line x1="1234.90" y1="2414.69" x2="1234.90" y2="2454.66" style="stroke:#000000;stroke-width:5.76"/>
	<text x="1234.90" y="2530.61" style="font-family:'Helvetica';font-size:79.94px;fill:#000000" text-anchor="middle">50</text>
	<line x1="2055.61" y1="2414.69" x2="2055.61" y2="2454.66" style="stroke:#000000;stroke-width:5.76"/>
	<text x="2055.61" y="2530.61" style="font-family:'Helvetica';font-size:79.94px;fill:#000000" text-anchor="middle">100</text>
	<line x1="2876.45" y1="2414.69" x2="2876.45" y2="2454.66" style="stroke:#000000;stroke-width:5.76"/>
	<text x="2876.45" y="2530.61" style="font-family:'Helvetica';font-size:79.94px;fill:#000000" text-anchor="middle">150</text>
	<line x1="3697.28" y1="2414.69" x2="3697.28" y2="2454.66" style="stroke:#000000;stroke-width:5.76"/>
	<text x="3697.28" y="2530.61" style="font-family:'Helvetica';font-size:79.94px;fill:#000000" text-anchor="middle">200</text>
	<text x="2104.86" y="2620.57" style="font-family:'Helvetica';font-size:79.94px;fill:#000000" text-anchor="middle">Time</text>
	<text x="368.03" y="2737.89" style="font-family:'Helvetica';font-size:79.94px;fill:#000000">bandwidth = .8</text>
	<text x="368.03" y="187.99" style="font-family:'Helvetica';font-size:99.99px;fill:#000000">Schoenfeld residuals against time, DAG adjusted</text>
</svg>
