<?xml version="1.0" encoding="UTF-8" standalone="no"?>
<!-- This is a Stata 16.1 generated SVG file (http://www.stata.com) -->

<svg version="1.1" width="5.50in" height="4.00in" viewBox="0 0 3960 2880" xmlns="http://www.w3.org/2000/svg" xmlns:xlink="http://www.w3.org/1999/xlink">
	<desc>Stata Graph - Graph</desc>
	<rect x="0" y="0" width="3960" height="2880" style="fill:#EAF2F3;stroke:none"/>
	<rect x="0.00" y="0.00" width="3959.88" height="2880.00" style="fill:#EAF2F3"/>
	<rect x="2.88" y="2.88" width="3954.12" height="2874.24" style="fill:none;stroke:#EAF2F3;stroke-width:5.76"/>
	<rect x="556.38" y="100.86" width="3302.64" height="2388.33" style="fill:#FFFFFF"/>
	<rect x="559.26" y="103.74" width="3296.88" height="2382.57" style="fill:none;stroke:#FFFFFF;stroke-width:5.76"/>
	<line x1="556.38" y1="2317.66" x2="3859.02" y2="2317.66" style="stroke:#EAF2F3;stroke-width:8.64"/>
	<line x1="556.38" y1="1818.81" x2="3859.02" y2="1818.81" style="stroke:#EAF2F3;stroke-width:8.64"/>
	<line x1="556.38" y1="1320.08" x2="3859.02" y2="1320.08" style="stroke:#EAF2F3;stroke-width:8.64"/>
	<line x1="556.38" y1="821.23" x2="3859.02" y2="821.23" style="stroke:#EAF2F3;stroke-width:8.64"/>
	<line x1="556.38" y1="322.50" x2="3859.02" y2="322.50" style="stroke:#EAF2F3;stroke-width:8.64"/>
	<defs>
		<path id="path_DwBssVsw" d="M619.74 821.23 L619.74 821.23 L634.84 821.23 L649.93 821.35 L664.91 821.35 L680.01 821.48 L694.98 821.60 L710.08 821.85 L725.17 822.22 L740.15 822.72 L755.25 823.33 L770.34 824.08 L785.32 825.07 L800.41 826.18 L815.51 827.42 L830.49 828.90 L845.58 830.64 L860.56 832.49 L875.65 834.60 L890.75 836.82 L905.73 839.30 L920.82 842.02 L935.92 844.87 L950.89 847.96 L965.99 851.18 L980.97 854.64 L996.06 858.23 L1011.16 862.19 L1026.13 866.15 L1041.23 870.36 L1056.33 874.82 L1071.30 879.39 L1086.40 884.22 L1101.50 889.17 L1116.47 894.25 L1131.57 899.44 L1146.54 904.89 L1161.64 910.58 L1176.74 916.27 L1191.71 922.09 L1206.81 928.15 L1221.91 934.34 L1236.88 940.65 L1251.98 947.09 L1266.95 953.65 L1282.05 960.33 L1297.15 967.14 L1312.12 974.07 L1327.22 981.12 L1342.32 988.30 L1357.29 995.48 L1372.39 1002.90 L1387.48 1010.33 L1402.46 1017.75 L1417.56 1025.42 L1432.53 1033.10 L1447.63 1040.89 L1462.72 1048.81 L1477.70 1056.73 L1492.80 1064.65 L1507.89 1072.82 L1522.87 1080.87 L1537.96 1089.03 L1552.94 1097.33 L1568.04 1105.62 L1583.13 1114.03 L1598.11 1122.45 L1613.20 1130.86 L1628.30 1139.40 L1643.28 1147.82 L1658.37 1156.48 L1673.47 1165.02 L1688.44 1173.68 L1703.54 1182.34 L1718.52 1191.01 L1733.61 1199.79 L1748.71 1208.58 L1763.68 1217.24 L1778.78 1226.03 L1793.88 1234.94 L1808.85 1243.73 L1823.95 1252.51 L1838.92 1261.42 L1854.02 1270.21 L1869.12 1279.12 L1884.09 1287.91 L1899.19 1296.82 L1914.29 1305.73 L1929.26 1314.51 L1944.36 1323.42 L1959.46 1332.21 L1974.43 1341.12 L1989.53 1350.03 L2004.50 1358.82 L2019.60 1367.73 L2034.70 1376.51 L2049.67 1385.30 L2064.77 1394.21 L2079.87 1403.00 L2094.84 1411.78 L2109.94 1420.57 L2124.91 1429.36 L2140.01 1438.14 L2155.11 1446.93 L2170.08 1455.72 L2185.18 1464.50 L2200.28 1473.29 L2215.25 1482.08 L2230.35 1490.86 L2245.32 1499.65 L2260.42 1508.31 L2275.51 1517.10 L2290.49 1525.89 L2305.59 1534.55 L2320.68 1543.33 L2335.66 1552.12 L2350.76 1560.78 L2365.85 1569.57 L2380.83 1578.23 L2395.92 1587.02 L2410.90 1595.68 L2425.99 1604.47 L2441.09 1613.13 L2456.07 1621.92 L2471.16 1630.58 L2486.26 1639.37 L2501.24 1648.15 L2516.33 1656.82 L2531.31 1665.60 L2546.40 1674.27 L2561.50 1683.05 L2576.47 1691.72 L2591.57 1700.50 L2606.67 1709.29 L2621.64 1717.95 L2636.74 1726.74 L2651.84 1735.52 L2666.81 1744.31 L2681.91 1752.97 L2696.88 1761.76 L2711.98 1770.55 L2727.08 1779.33 L2742.05 1788.12 L2757.15 1796.91 L2772.25 1805.69 L2787.22 1814.60 L2802.32 1823.39 L2817.29 1832.18 L2832.39 1841.09 L2847.49 1849.87 L2862.46 1858.78 L2877.56 1867.57 L2892.66 1876.48 L2907.63 1885.39 L2922.73 1894.18 L2937.82 1903.09 L2952.80 1912.00 L2967.90 1921.03 L2982.87 1929.94 L2997.97 1938.85 L3013.07 1947.76 L3028.04 1956.80 L3043.14 1965.83 L3058.23 1974.74 L3073.21 1983.77 L3088.30 1992.81 L3103.28 2001.84 L3118.38 2010.88 L3133.47 2019.91 L3148.45 2028.94 L3163.55 2037.98 L3178.64 2047.01 L3193.62 2056.17 L3208.71 2065.20 L3223.81 2074.36 L3238.78 2083.40 L3253.88 2092.55 L3268.86 2101.71 L3283.95 2110.87 L3299.05 2119.90 L3314.03 2129.06 L3329.12 2138.22 L3344.22 2147.50 L3359.19 2156.66 L3374.29 2165.82 L3389.26 2174.97 L3404.36 2184.26 L3419.46 2193.41 L3434.43 2202.57 L3449.53 2211.85 L3464.63 2221.13 L3479.60 2230.29 L3494.70 2239.57 L3509.80 2248.86 L3524.77 2258.14 L3539.87 2267.29 L3554.84 2276.58 L3569.94 2285.86 L3585.04 2295.14 L3600.01 2304.42 L3615.11 2313.83 L3630.21 2323.11 L3645.18 2332.39 L3660.28 2341.67 L3675.25 2351.08 L3690.35 2360.36 L3705.45 2369.76 L3720.42 2379.04 L3735.52 2388.45 L3750.61 2397.73 L3765.59 2407.14 L3780.69 2416.42 L3795.66 2425.82 L3795.66 164.22 L3780.69 167.93 L3765.59 171.77 L3750.61 175.61 L3735.52 179.44 L3720.42 183.28 L3705.45 187.12 L3690.35 190.95 L3675.25 194.79 L3660.28 198.62 L3645.18 202.46 L3630.21 206.17 L3615.11 210.01 L3600.01 213.85 L3585.04 217.68 L3569.94 221.40 L3554.84 225.23 L3539.87 229.07 L3524.77 232.78 L3509.80 236.62 L3494.70 240.45 L3479.60 244.17 L3464.63 248.00 L3449.53 251.72 L3434.43 255.55 L3419.46 259.26 L3404.36 263.10 L3389.26 266.81 L3374.29 270.65 L3359.19 274.36 L3344.22 278.07 L3329.12 281.91 L3314.03 285.62 L3299.05 289.34 L3283.95 293.05 L3268.86 296.89 L3253.88 300.60 L3238.78 304.31 L3223.81 308.02 L3208.71 311.74 L3193.62 315.45 L3178.64 319.16 L3163.55 322.87 L3148.45 326.59 L3133.47 330.30 L3118.38 334.01 L3103.28 337.72 L3088.30 341.44 L3073.21 345.15 L3058.23 348.86 L3043.14 352.45 L3028.04 356.16 L3013.07 359.88 L2997.97 363.47 L2982.87 367.18 L2967.90 370.77 L2952.80 374.48 L2937.82 378.19 L2922.73 381.78 L2907.63 385.37 L2892.66 389.08 L2877.56 392.67 L2862.46 396.26 L2847.49 399.97 L2832.39 403.56 L2817.29 407.15 L2802.32 410.74 L2787.22 414.45 L2772.25 418.04 L2757.15 421.63 L2742.05 425.22 L2727.08 428.81 L2711.98 432.40 L2696.88 435.98 L2681.91 439.57 L2666.81 443.16 L2651.84 446.75 L2636.74 450.34 L2621.64 453.93 L2606.67 457.52 L2591.57 461.11 L2576.47 464.70 L2561.50 468.28 L2546.40 471.87 L2531.31 475.46 L2516.33 479.05 L2501.24 482.52 L2486.26 486.11 L2471.16 489.69 L2456.07 493.28 L2441.09 496.87 L2425.99 500.46 L2410.90 504.05 L2395.92 507.64 L2380.83 511.10 L2365.85 514.69 L2350.76 518.28 L2335.66 521.87 L2320.68 525.46 L2305.59 529.05 L2290.49 532.64 L2275.51 536.23 L2260.42 539.81 L2245.32 543.40 L2230.35 546.99 L2215.25 550.58 L2200.28 554.17 L2185.18 557.76 L2170.08 561.35 L2155.11 564.94 L2140.01 568.53 L2124.91 572.11 L2109.94 575.70 L2094.84 579.29 L2079.87 583.00 L2064.77 586.59 L2049.67 590.18 L2034.70 593.77 L2019.60 597.36 L2004.50 601.07 L1989.53 604.66 L1974.43 608.25 L1959.46 611.96 L1944.36 615.55 L1929.26 619.14 L1914.29 622.85 L1899.19 626.44 L1884.09 630.03 L1869.12 633.74 L1854.02 637.33 L1838.92 640.92 L1823.95 644.63 L1808.85 648.22 L1793.88 651.81 L1778.78 655.40 L1763.68 658.99 L1748.71 662.58 L1733.61 666.17 L1718.52 669.76 L1703.54 673.34 L1688.44 676.93 L1673.47 680.40 L1658.37 683.99 L1643.28 687.45 L1628.30 690.92 L1613.20 694.38 L1598.11 697.85 L1583.13 701.31 L1568.04 704.78 L1552.94 708.12 L1537.96 711.58 L1522.87 714.93 L1507.89 718.27 L1492.80 721.49 L1477.70 724.83 L1462.72 728.04 L1447.63 731.26 L1432.53 734.48 L1417.56 737.57 L1402.46 740.79 L1387.48 743.88 L1372.39 746.85 L1357.29 749.82 L1342.32 752.79 L1327.22 755.76 L1312.12 758.61 L1297.15 761.46 L1282.05 764.30 L1266.95 767.03 L1251.98 769.75 L1236.88 772.35 L1221.91 774.95 L1206.81 777.42 L1191.71 779.90 L1176.74 782.37 L1161.64 784.72 L1146.54 786.95 L1131.57 789.18 L1116.47 791.41 L1101.50 793.51 L1086.40 795.49 L1071.30 797.47 L1056.33 799.33 L1041.23 801.18 L1026.13 802.92 L1011.16 804.52 L996.06 806.13 L980.97 807.62 L965.99 808.98 L950.89 810.34 L935.92 811.58 L920.82 812.82 L905.73 813.93 L890.75 814.92 L875.65 815.79 L860.56 816.65 L845.58 817.39 L830.49 818.14 L815.51 818.76 L800.41 819.25 L785.32 819.75 L770.34 820.12 L755.25 820.49 L740.15 820.74 L725.17 820.86 L710.08 821.11 L694.98 821.11 L680.01 821.23 L664.91 821.23 L649.93 821.23 L634.84 821.23 L619.74 821.23 L619.74 821.23 Z" stroke-linejoin="round"/>
	</defs>
	<defs>
		<clipPath id="clipPath_xyqoSUxF">
			<use xlink:href="#path_DwBssVsw"/>
		</clipPath>
	</defs>
	<use xlink:href="#path_DwBssVsw" style="stroke:none;fill:#FF3333;fill-opacity:0.25"/>
	<use xlink:href="#path_DwBssVsw" style="fill:none;stroke:#FF0000;stroke-opacity:0.25;stroke-width:17.28" clip-path="url(#clipPath_xyqoSUxF)"/>
	<path d=" M619.74 821.35 L634.71 821.35 L649.81 821.35 L664.91 821.35 L679.88 821.35 L694.98 821.48 L710.08 821.48 L725.05 821.60 L740.15 821.73 L755.25 821.97 L770.22 822.22 L785.32 822.47 L800.29 822.84 L815.39 823.21 L830.49 823.58 L845.46 824.08 L860.56 824.70 L875.65 825.31 L890.63 825.93 L905.73 826.68 L920.70 827.42 L935.80 828.28 L950.89 829.15 L965.87 830.14 L980.97 831.13 L996.06 832.24 L1011.04 833.36 L1026.13 834.60 L1041.23 835.83 L1056.21 837.19 L1071.30 838.43 L1086.28 839.92 L1101.38 841.40 L1116.47 842.89 L1131.45 844.37 L1146.54 845.98 L1161.64 847.71 L1176.62 849.32 L1191.71 851.06 L1206.69 852.91 L1221.78 854.64 L1236.88 856.62 L1251.86 858.48 L1266.95 860.46 L1282.05 862.32 L1297.02 864.42 L1312.12 866.40 L1327.22 868.50 L1342.19 870.61 L1357.29 872.71 L1372.26 874.94 L1387.36 877.17 L1402.46 879.39 L1417.43 881.62 L1432.53 883.85 L1447.63 886.20 L1462.60 888.43 L1477.70 890.78 L1492.67 893.13 L1507.77 895.61 L1522.87 897.96 L1537.84 900.43 L1552.94 902.78 L1568.04 905.26 L1583.01 907.73 L1598.11 910.21 L1613.08 912.68 L1628.18 915.16 L1643.28 917.76 L1658.25 920.23 L1673.35 922.83 L1688.44 925.31 L1703.42 927.91 L1718.52 930.51 L1733.61 933.10 L1748.59 935.58 L1763.68 938.18 L1778.66 940.78 L1793.76 943.38 L1808.85 945.97 L1823.83 948.57 L1838.92 951.17 L1854.02 953.89 L1869.00 956.49 L1884.09 959.09 L1899.07 961.69 L1914.16 964.29 L1929.26 966.89 L1944.24 969.49 L1959.33 972.21 L1974.43 974.81 L1989.40 977.41 L2004.50 980.01 L2019.60 982.61 L2034.57 985.20 L2049.67 987.80 L2064.64 990.40 L2079.74 993.00 L2094.84 995.60 L2109.81 998.20 L2124.91 1000.80 L2140.01 1003.40 L2154.98 1006.00 L2170.08 1008.59 L2185.05 1011.19 L2200.15 1013.79 L2215.25 1016.39 L2230.22 1018.99 L2245.32 1021.59 L2260.42 1024.19 L2275.39 1026.66 L2290.49 1029.26 L2305.59 1031.86 L2320.56 1034.46 L2335.66 1037.06 L2350.63 1039.66 L2365.73 1042.26 L2380.83 1044.73 L2395.80 1047.33 L2410.90 1049.93 L2425.99 1052.53 L2440.97 1055.13 L2456.07 1057.60 L2471.04 1060.20 L2486.14 1062.80 L2501.24 1065.40 L2516.21 1068.00 L2531.31 1070.59 L2546.40 1073.07 L2561.38 1075.67 L2576.47 1078.27 L2591.57 1080.87 L2606.55 1083.47 L2621.64 1086.06 L2636.62 1088.66 L2651.72 1091.14 L2666.81 1093.74 L2681.79 1096.34 L2696.88 1098.93 L2711.98 1101.53 L2726.95 1104.13 L2742.05 1106.73 L2757.03 1109.33 L2772.12 1111.93 L2787.22 1114.53 L2802.20 1117.13 L2817.29 1119.72 L2832.39 1122.32 L2847.36 1124.92 L2862.46 1127.52 L2877.56 1130.24 L2892.53 1132.84 L2907.63 1135.44 L2922.60 1138.04 L2937.70 1140.64 L2952.80 1143.36 L2967.77 1145.96 L2982.87 1148.56 L2997.97 1151.28 L3012.94 1153.88 L3028.04 1156.48 L3043.01 1159.20 L3058.11 1161.80 L3073.21 1164.52 L3088.18 1167.12 L3103.28 1169.85 L3118.38 1172.44 L3133.35 1175.17 L3148.45 1177.89 L3163.42 1180.49 L3178.52 1183.21 L3193.62 1185.93 L3208.59 1188.53 L3223.69 1191.25 L3238.78 1193.98 L3253.76 1196.58 L3268.86 1199.30 L3283.95 1202.02 L3298.93 1204.74 L3314.03 1207.47 L3329.00 1210.19 L3344.10 1212.79 L3359.19 1215.51 L3374.17 1218.23 L3389.26 1220.96 L3404.36 1223.68 L3419.34 1226.40 L3434.43 1229.12 L3449.41 1231.85 L3464.51 1234.57 L3479.60 1237.29 L3494.58 1240.01 L3509.67 1242.74 L3524.77 1245.46 L3539.74 1248.31 L3554.84 1251.03 L3569.94 1253.75 L3584.91 1256.47 L3600.01 1259.20 L3614.99 1261.92 L3630.08 1264.76 L3645.18 1267.49 L3660.15 1270.21 L3675.25 1272.93 L3690.35 1275.78 L3705.32 1278.50 L3720.42 1281.22 L3735.39 1283.95 L3750.49 1286.79 L3765.59 1289.52 L3780.56 1292.24 L3795.66 1295.08" stroke-linejoin="round" style="fill:none;stroke:#FF0000;stroke-width:8.64"/>
	<line x1="556.38" y1="2489.19" x2="556.38" y2="100.86" style="stroke:#000000;stroke-width:5.76"/>
	<line x1="556.38" y1="2317.66" x2="516.41" y2="2317.66" style="stroke:#000000;stroke-width:5.76"/>
	<text x="496.49" y="2352.69" style="font-family:'Helvetica';font-size:99.99px;fill:#000000" text-anchor="end">-0.60</text>
	<line x1="556.38" y1="1818.81" x2="516.41" y2="1818.81" style="stroke:#000000;stroke-width:5.76"/>
	<text x="496.49" y="1853.84" style="font-family:'Helvetica';font-size:99.99px;fill:#000000" text-anchor="end">-0.40</text>
	<line x1="556.38" y1="1320.08" x2="516.41" y2="1320.08" style="stroke:#000000;stroke-width:5.76"/>
	<text x="496.49" y="1355.11" style="font-family:'Helvetica';font-size:99.99px;fill:#000000" text-anchor="end">-0.20</text>
	<line x1="556.38" y1="821.23" x2="516.41" y2="821.23" style="stroke:#000000;stroke-width:5.76"/>
	<text x="496.49" y="856.26" style="font-family:'Helvetica';font-size:99.99px;fill:#000000" text-anchor="end">0.00</text>
	<line x1="556.38" y1="322.50" x2="516.41" y2="322.50" style="stroke:#000000;stroke-width:5.76"/>
	<text x="496.49" y="357.53" style="font-family:'Helvetica';font-size:99.99px;fill:#000000" text-anchor="end">0.20</text>
	<text x="190.71" y="1294.96" style="font-family:'Helvetica';font-size:99.99px;fill:#000000" transform="rotate(-90 190.71,1294.96)" text-anchor="middle">Difference in curves (%)</text>
	<line x1="556.38" y1="2489.19" x2="3859.02" y2="2489.19" style="stroke:#000000;stroke-width:5.76"/>
	<line x1="619.74" y1="2489.19" x2="619.74" y2="2529.16" style="stroke:#000000;stroke-width:5.76"/>
	<text x="619.74" y="2619.14" style="font-family:'Helvetica';font-size:99.99px;fill:#000000" text-anchor="middle">0</text>
	<line x1="1372.39" y1="2489.19" x2="1372.39" y2="2529.16" style="stroke:#000000;stroke-width:5.76"/>
	<text x="1372.39" y="2619.14" style="font-family:'Helvetica';font-size:99.99px;fill:#000000" text-anchor="middle">50</text>
	<line x1="2124.91" y1="2489.19" x2="2124.91" y2="2529.16" style="stroke:#000000;stroke-width:5.76"/>
	<text x="2124.91" y="2619.14" style="font-family:'Helvetica';font-size:99.99px;fill:#000000" text-anchor="middle">100</text>
	<line x1="2877.56" y1="2489.19" x2="2877.56" y2="2529.16" style="stroke:#000000;stroke-width:5.76"/>
	<text x="2877.56" y="2619.14" style="font-family:'Helvetica';font-size:99.99px;fill:#000000" text-anchor="middle">150</text>
	<line x1="3630.21" y1="2489.19" x2="3630.21" y2="2529.16" style="stroke:#000000;stroke-width:5.76"/>
	<text x="3630.21" y="2619.14" style="font-family:'Helvetica';font-size:99.99px;fill:#000000" text-anchor="middle">200</text>
	<text x="2207.70" y="2729.16" style="font-family:'Helvetica';font-size:99.99px;fill:#000000" text-anchor="middle">Days from 1 March 2020</text>
</svg>
