<?xml version="1.0" encoding="UTF-8" standalone="no"?>
<!-- This is a Stata 16.1 generated SVG file (http://www.stata.com) -->

<svg version="1.1" width="5.50in" height="4.00in" viewBox="0 0 3960 2880" xmlns="http://www.w3.org/2000/svg" xmlns:xlink="http://www.w3.org/1999/xlink">
	<desc>Stata Graph - Graph</desc>
	<rect x="0" y="0" width="3960" height="2880" style="fill:#EAF2F3;stroke:none"/>
	<rect x="0.00" y="0.00" width="3959.88" height="2880.00" style="fill:#EAF2F3"/>
	<rect x="2.88" y="2.88" width="3954.12" height="2874.24" style="fill:none;stroke:#EAF2F3;stroke-width:5.76"/>
	<rect x="556.38" y="100.86" width="3302.64" height="2388.33" style="fill:#FFFFFF"/>
	<rect x="559.26" y="103.74" width="3296.88" height="2382.57" style="fill:none;stroke:#FFFFFF;stroke-width:5.76"/>
	<line x1="556.38" y1="2229.18" x2="3859.02" y2="2229.18" style="stroke:#EAF2F3;stroke-width:8.64"/>
	<line x1="556.38" y1="1714.61" x2="3859.02" y2="1714.61" style="stroke:#EAF2F3;stroke-width:8.64"/>
	<line x1="556.38" y1="1200.04" x2="3859.02" y2="1200.04" style="stroke:#EAF2F3;stroke-width:8.64"/>
	<line x1="556.38" y1="685.47" x2="3859.02" y2="685.47" style="stroke:#EAF2F3;stroke-width:8.64"/>
	<line x1="556.38" y1="170.90" x2="3859.02" y2="170.90" style="stroke:#EAF2F3;stroke-width:8.64"/>
	<defs>
		<path id="path_lqOwPzWz" d="M619.74 170.90 L619.74 170.90 L634.84 170.90 L649.93 170.90 L664.91 170.90 L680.01 170.90 L694.98 170.90 L710.08 170.90 L725.17 171.03 L740.15 171.03 L755.25 171.28 L770.34 171.52 L785.32 171.89 L800.41 172.51 L815.51 173.38 L830.49 174.74 L845.58 176.60 L860.56 179.07 L875.65 182.54 L890.75 186.99 L905.73 192.68 L920.82 199.99 L935.92 209.14 L950.89 220.28 L965.99 233.89 L980.97 249.98 L996.06 269.04 L1011.16 290.95 L1026.13 316.19 L1041.23 344.65 L1056.33 376.46 L1071.30 411.61 L1086.40 449.97 L1101.50 491.30 L1116.47 535.48 L1131.57 582.14 L1146.54 630.90 L1161.64 681.27 L1176.74 732.87 L1191.71 784.97 L1206.81 837.32 L1221.91 889.05 L1236.88 939.91 L1251.98 989.41 L1266.95 1037.55 L1282.05 1084.08 L1297.15 1128.88 L1312.12 1172.07 L1327.22 1213.28 L1342.32 1252.88 L1357.29 1290.63 L1372.39 1326.77 L1387.48 1361.17 L1402.46 1394.09 L1417.56 1425.52 L1432.53 1455.59 L1447.63 1484.43 L1462.72 1512.15 L1477.70 1538.76 L1492.80 1564.50 L1507.89 1589.37 L1522.87 1613.50 L1537.96 1637.02 L1552.94 1660.03 L1568.04 1682.31 L1583.13 1703.97 L1598.11 1725.13 L1613.20 1745.67 L1628.30 1765.60 L1643.28 1785.03 L1658.37 1803.84 L1673.47 1822.28 L1688.44 1840.10 L1703.54 1857.42 L1718.52 1874.25 L1733.61 1890.59 L1748.71 1906.43 L1763.68 1921.90 L1778.78 1936.87 L1793.88 1951.35 L1808.85 1965.46 L1823.95 1979.20 L1838.92 1992.56 L1854.02 2005.43 L1869.12 2017.93 L1884.09 2030.06 L1899.19 2041.94 L1914.29 2053.32 L1929.26 2064.46 L1944.36 2075.23 L1959.46 2085.62 L1974.43 2095.77 L1989.53 2105.55 L2004.50 2115.08 L2019.60 2124.36 L2034.70 2133.27 L2049.67 2142.06 L2064.77 2150.47 L2079.87 2158.64 L2094.84 2166.56 L2109.94 2174.23 L2124.91 2181.66 L2140.01 2188.96 L2155.11 2195.89 L2170.08 2202.70 L2185.18 2209.25 L2200.28 2215.69 L2215.25 2221.88 L2230.35 2227.82 L2245.32 2233.63 L2260.42 2239.33 L2275.51 2244.77 L2290.49 2250.09 L2305.59 2255.17 L2320.68 2260.24 L2335.66 2265.07 L2350.76 2269.77 L2365.85 2274.22 L2380.83 2278.68 L2395.92 2282.89 L2410.90 2287.10 L2425.99 2291.06 L2441.09 2295.02 L2456.07 2298.73 L2471.16 2302.44 L2486.26 2305.91 L2501.24 2309.37 L2516.33 2312.71 L2531.31 2315.93 L2546.40 2319.15 L2561.50 2322.12 L2576.47 2325.09 L2591.57 2327.93 L2606.67 2330.78 L2621.64 2333.50 L2636.74 2336.10 L2651.84 2338.58 L2666.81 2341.05 L2681.91 2343.53 L2696.88 2345.75 L2711.98 2348.11 L2727.08 2350.21 L2742.05 2352.31 L2757.15 2354.42 L2772.25 2356.40 L2787.22 2358.38 L2802.32 2360.23 L2817.29 2362.09 L2832.39 2363.95 L2847.49 2365.68 L2862.46 2367.29 L2877.56 2369.02 L2892.66 2370.63 L2907.63 2372.11 L2922.73 2373.60 L2937.82 2375.08 L2952.80 2376.57 L2967.90 2377.93 L2982.87 2379.29 L2997.97 2380.65 L3013.07 2381.89 L3028.04 2383.25 L3043.14 2384.49 L3058.23 2385.60 L3073.21 2386.84 L3088.30 2387.95 L3103.28 2389.07 L3118.38 2390.18 L3133.47 2391.30 L3148.45 2392.29 L3163.55 2393.28 L3178.64 2394.39 L3193.62 2395.26 L3208.71 2396.25 L3223.81 2397.24 L3238.78 2398.10 L3253.88 2399.09 L3268.86 2399.96 L3283.95 2400.83 L3299.05 2401.69 L3314.03 2402.56 L3329.12 2403.42 L3344.22 2404.29 L3359.19 2405.03 L3374.29 2405.90 L3389.26 2406.64 L3404.36 2407.38 L3419.46 2408.25 L3434.43 2408.99 L3449.53 2409.74 L3464.63 2410.48 L3479.60 2411.22 L3494.70 2411.96 L3509.80 2412.71 L3524.77 2413.45 L3539.87 2414.19 L3554.84 2414.81 L3569.94 2415.55 L3585.04 2416.29 L3600.01 2417.04 L3615.11 2417.66 L3630.21 2418.40 L3645.18 2419.02 L3660.28 2419.76 L3675.25 2420.50 L3690.35 2421.12 L3705.45 2421.86 L3720.42 2422.48 L3735.52 2423.22 L3750.61 2423.84 L3765.59 2424.46 L3780.69 2425.20 L3795.66 2425.82 L3795.66 179.81 L3780.69 179.81 L3765.59 179.81 L3750.61 179.81 L3735.52 179.81 L3720.42 179.81 L3705.45 179.81 L3690.35 179.81 L3675.25 179.81 L3660.28 179.81 L3645.18 179.81 L3630.21 179.81 L3615.11 179.81 L3600.01 179.81 L3585.04 179.81 L3569.94 179.81 L3554.84 179.81 L3539.87 179.81 L3524.77 179.81 L3509.80 179.81 L3494.70 179.69 L3479.60 179.69 L3464.63 179.69 L3449.53 179.69 L3434.43 179.69 L3419.46 179.69 L3404.36 179.69 L3389.26 179.69 L3374.29 179.69 L3359.19 179.69 L3344.22 179.69 L3329.12 179.69 L3314.03 179.69 L3299.05 179.69 L3283.95 179.69 L3268.86 179.69 L3253.88 179.69 L3238.78 179.69 L3223.81 179.69 L3208.71 179.69 L3193.62 179.69 L3178.64 179.57 L3163.55 179.57 L3148.45 179.57 L3133.47 179.57 L3118.38 179.57 L3103.28 179.57 L3088.30 179.57 L3073.21 179.57 L3058.23 179.57 L3043.14 179.57 L3028.04 179.57 L3013.07 179.57 L2997.97 179.57 L2982.87 179.57 L2967.90 179.44 L2952.80 179.44 L2937.82 179.44 L2922.73 179.44 L2907.63 179.44 L2892.66 179.44 L2877.56 179.44 L2862.46 179.44 L2847.49 179.44 L2832.39 179.44 L2817.29 179.32 L2802.32 179.32 L2787.22 179.32 L2772.25 179.32 L2757.15 179.32 L2742.05 179.32 L2727.08 179.32 L2711.98 179.32 L2696.88 179.20 L2681.91 179.20 L2666.81 179.20 L2651.84 179.20 L2636.74 179.20 L2621.64 179.20 L2606.67 179.20 L2591.57 179.07 L2576.47 179.07 L2561.50 179.07 L2546.40 179.07 L2531.31 179.07 L2516.33 179.07 L2501.24 178.95 L2486.26 178.95 L2471.16 178.95 L2456.07 178.95 L2441.09 178.95 L2425.99 178.82 L2410.90 178.82 L2395.92 178.82 L2380.83 178.82 L2365.85 178.70 L2350.76 178.70 L2335.66 178.70 L2320.68 178.70 L2305.59 178.58 L2290.49 178.58 L2275.51 178.58 L2260.42 178.58 L2245.32 178.45 L2230.35 178.45 L2215.25 178.45 L2200.28 178.33 L2185.18 178.33 L2170.08 178.33 L2155.11 178.21 L2140.01 178.21 L2124.91 178.21 L2109.94 178.08 L2094.84 178.08 L2079.87 177.96 L2064.77 177.96 L2049.67 177.96 L2034.70 177.83 L2019.60 177.83 L2004.50 177.71 L1989.53 177.71 L1974.43 177.59 L1959.46 177.59 L1944.36 177.46 L1929.26 177.34 L1914.29 177.34 L1899.19 177.22 L1884.09 177.09 L1869.12 177.09 L1854.02 176.97 L1838.92 176.84 L1823.95 176.72 L1808.85 176.72 L1793.88 176.60 L1778.78 176.47 L1763.68 176.35 L1748.71 176.23 L1733.61 176.10 L1718.52 175.98 L1703.54 175.85 L1688.44 175.73 L1673.47 175.48 L1658.37 175.36 L1643.28 175.24 L1628.30 174.99 L1613.20 174.86 L1598.11 174.62 L1583.13 174.49 L1568.04 174.25 L1552.94 174.00 L1537.96 173.75 L1522.87 173.50 L1507.89 173.26 L1492.80 173.01 L1477.70 172.64 L1462.72 172.39 L1447.63 172.14 L1432.53 171.77 L1417.56 171.52 L1402.46 171.15 L1387.48 170.78 L1372.39 170.53 L1357.29 170.16 L1342.32 169.91 L1327.22 169.67 L1312.12 169.30 L1297.15 169.05 L1282.05 168.80 L1266.95 168.55 L1251.98 168.43 L1236.88 168.18 L1221.91 167.93 L1206.81 167.69 L1191.71 167.44 L1176.74 167.19 L1161.64 166.94 L1146.54 166.57 L1131.57 166.20 L1116.47 165.83 L1101.50 165.46 L1086.40 165.09 L1071.30 164.72 L1056.33 164.47 L1041.23 164.22 L1026.13 164.22 L1011.16 164.22 L996.06 164.35 L980.97 164.59 L965.99 164.96 L950.89 165.46 L935.92 166.08 L920.82 166.70 L905.73 167.32 L890.75 167.93 L875.65 168.43 L860.56 169.05 L845.58 169.42 L830.49 169.79 L815.51 170.16 L800.41 170.41 L785.32 170.53 L770.34 170.66 L755.25 170.78 L740.15 170.90 L725.17 170.90 L710.08 170.90 L694.98 170.90 L680.01 170.90 L664.91 170.90 L649.93 170.90 L634.84 170.90 L619.74 170.90 L619.74 170.90 Z" stroke-linejoin="round"/>
	</defs>
	<defs>
		<clipPath id="clipPath_rHMkyRoT">
			<use xlink:href="#path_lqOwPzWz"/>
		</clipPath>
	</defs>
	<use xlink:href="#path_lqOwPzWz" style="stroke:none;fill:#FF3333;fill-opacity:0.25"/>
	<use xlink:href="#path_lqOwPzWz" style="fill:none;stroke:#FF0000;stroke-opacity:0.25;stroke-width:17.28" clip-path="url(#clipPath_rHMkyRoT)"/>
	<path d=" M619.74 171.03 L634.71 171.03 L649.81 171.03 L664.91 171.03 L679.88 171.03 L694.98 171.03 L710.08 171.03 L725.05 171.03 L740.15 171.03 L755.25 171.03 L770.22 171.15 L785.32 171.28 L800.29 171.52 L815.39 171.89 L830.49 172.39 L845.46 173.13 L860.56 174.12 L875.65 175.48 L890.63 177.46 L905.73 180.06 L920.70 183.40 L935.80 187.61 L950.89 192.93 L965.87 199.49 L980.97 207.41 L996.06 216.69 L1011.04 227.71 L1026.13 240.21 L1041.23 254.56 L1056.21 270.53 L1071.30 288.22 L1086.28 307.53 L1101.38 328.44 L1116.47 350.72 L1131.45 374.23 L1146.54 398.73 L1161.64 424.10 L1176.62 450.09 L1191.71 476.33 L1206.69 502.56 L1221.78 528.55 L1236.88 554.05 L1251.86 578.92 L1266.95 603.18 L1282.05 626.57 L1297.02 649.09 L1312.12 670.75 L1327.22 691.54 L1342.19 711.46 L1357.29 730.52 L1372.26 748.71 L1387.36 766.04 L1402.46 782.62 L1417.43 798.58 L1432.53 813.81 L1447.63 828.28 L1462.60 842.39 L1477.70 855.76 L1492.67 868.75 L1507.77 881.38 L1522.87 893.63 L1537.84 905.51 L1552.94 917.02 L1568.04 928.28 L1583.01 939.29 L1598.11 949.93 L1613.08 960.33 L1628.18 970.35 L1643.28 980.13 L1658.25 989.66 L1673.35 998.94 L1688.44 1007.98 L1703.42 1016.64 L1718.52 1025.18 L1733.61 1033.34 L1748.59 1041.39 L1763.68 1049.19 L1778.66 1056.73 L1793.76 1064.04 L1808.85 1071.21 L1823.83 1078.02 L1838.92 1084.70 L1854.02 1091.26 L1869.00 1097.57 L1884.09 1103.64 L1899.07 1109.58 L1914.16 1115.39 L1929.26 1120.96 L1944.24 1126.41 L1959.33 1131.61 L1974.43 1136.68 L1989.40 1141.63 L2004.50 1146.46 L2019.60 1151.16 L2034.57 1155.61 L2049.67 1160.07 L2064.64 1164.28 L2079.74 1168.36 L2094.84 1172.32 L2109.81 1176.28 L2124.91 1179.99 L2140.01 1183.58 L2154.98 1187.17 L2170.08 1190.51 L2185.05 1193.85 L2200.15 1197.07 L2215.25 1200.17 L2230.22 1203.26 L2245.32 1206.11 L2260.42 1208.95 L2275.39 1211.67 L2290.49 1214.40 L2305.59 1217.00 L2320.56 1219.47 L2335.66 1221.95 L2350.63 1224.30 L2365.73 1226.52 L2380.83 1228.75 L2395.80 1230.98 L2410.90 1232.96 L2425.99 1235.06 L2440.97 1237.04 L2456.07 1238.90 L2471.04 1240.76 L2486.14 1242.49 L2501.24 1244.22 L2516.21 1245.95 L2531.31 1247.56 L2546.40 1249.17 L2561.38 1250.66 L2576.47 1252.14 L2591.57 1253.63 L2606.55 1254.99 L2621.64 1256.35 L2636.62 1257.71 L2651.72 1258.95 L2666.81 1260.19 L2681.79 1261.42 L2696.88 1262.54 L2711.98 1263.77 L2726.95 1264.76 L2742.05 1265.88 L2757.03 1266.99 L2772.12 1267.98 L2787.22 1268.97 L2802.20 1269.84 L2817.29 1270.83 L2832.39 1271.69 L2847.36 1272.56 L2862.46 1273.43 L2877.56 1274.29 L2892.53 1275.04 L2907.63 1275.90 L2922.60 1276.64 L2937.70 1277.39 L2952.80 1278.13 L2967.77 1278.75 L2982.87 1279.49 L2997.97 1280.11 L3012.94 1280.85 L3028.04 1281.47 L3043.01 1282.09 L3058.11 1282.71 L3073.21 1283.20 L3088.18 1283.82 L3103.28 1284.44 L3118.38 1284.94 L3133.35 1285.43 L3148.45 1286.05 L3163.42 1286.55 L3178.52 1287.04 L3193.62 1287.54 L3208.59 1288.03 L3223.69 1288.53 L3238.78 1289.02 L3253.76 1289.39 L3268.86 1289.89 L3283.95 1290.38 L3298.93 1290.75 L3314.03 1291.25 L3329.00 1291.62 L3344.10 1291.99 L3359.19 1292.49 L3374.17 1292.86 L3389.26 1293.23 L3404.36 1293.60 L3419.34 1293.97 L3434.43 1294.47 L3449.41 1294.84 L3464.51 1295.21 L3479.60 1295.58 L3494.58 1295.95 L3509.67 1296.32 L3524.77 1296.69 L3539.74 1297.06 L3554.84 1297.31 L3569.94 1297.68 L3584.91 1298.05 L3600.01 1298.43 L3614.99 1298.80 L3630.08 1299.17 L3645.18 1299.54 L3660.15 1299.79 L3675.25 1300.16 L3690.35 1300.53 L3705.32 1300.90 L3720.42 1301.27 L3735.39 1301.52 L3750.49 1301.89 L3765.59 1302.26 L3780.56 1302.51 L3795.66 1302.88" stroke-linejoin="round" style="fill:none;stroke:#FF0000;stroke-width:8.64"/>
	<line x1="556.38" y1="2489.19" x2="556.38" y2="100.86" style="stroke:#000000;stroke-width:5.76"/>
	<line x1="556.38" y1="2229.18" x2="516.41" y2="2229.18" style="stroke:#000000;stroke-width:5.76"/>
	<text x="496.49" y="2264.21" style="font-family:'Helvetica';font-size:99.99px;fill:#000000" text-anchor="end">-0.20</text>
	<line x1="556.38" y1="1714.61" x2="516.41" y2="1714.61" style="stroke:#000000;stroke-width:5.76"/>
	<text x="496.49" y="1749.64" style="font-family:'Helvetica';font-size:99.99px;fill:#000000" text-anchor="end">-0.15</text>
	<line x1="556.38" y1="1200.04" x2="516.41" y2="1200.04" style="stroke:#000000;stroke-width:5.76"/>
	<text x="496.49" y="1235.07" style="font-family:'Helvetica';font-size:99.99px;fill:#000000" text-anchor="end">-0.10</text>
	<line x1="556.38" y1="685.47" x2="516.41" y2="685.47" style="stroke:#000000;stroke-width:5.76"/>
	<text x="496.49" y="720.50" style="font-family:'Helvetica';font-size:99.99px;fill:#000000" text-anchor="end">-0.05</text>
	<line x1="556.38" y1="170.90" x2="516.41" y2="170.90" style="stroke:#000000;stroke-width:5.76"/>
	<text x="496.49" y="205.93" style="font-family:'Helvetica';font-size:99.99px;fill:#000000" text-anchor="end">0.00</text>
	<text x="190.71" y="1294.96" style="font-family:'Helvetica';font-size:99.99px;fill:#000000" transform="rotate(-90 190.71,1294.96)" text-anchor="middle">Difference in curves (%)</text>
	<line x1="556.38" y1="2489.19" x2="3859.02" y2="2489.19" style="stroke:#000000;stroke-width:5.76"/>
	<line x1="619.74" y1="2489.19" x2="619.74" y2="2529.16" style="stroke:#000000;stroke-width:5.76"/>
	<text x="619.74" y="2619.14" style="font-family:'Helvetica';font-size:99.99px;fill:#000000" text-anchor="middle">0</text>
	<line x1="1372.39" y1="2489.19" x2="1372.39" y2="2529.16" style="stroke:#000000;stroke-width:5.76"/>
	<text x="1372.39" y="2619.14" style="font-family:'Helvetica';font-size:99.99px;fill:#000000" text-anchor="middle">50</text>
	<line x1="2124.91" y1="2489.19" x2="2124.91" y2="2529.16" style="stroke:#000000;stroke-width:5.76"/>
	<text x="2124.91" y="2619.14" style="font-family:'Helvetica';font-size:99.99px;fill:#000000" text-anchor="middle">100</text>
	<line x1="2877.56" y1="2489.19" x2="2877.56" y2="2529.16" style="stroke:#000000;stroke-width:5.76"/>
	<text x="2877.56" y="2619.14" style="font-family:'Helvetica';font-size:99.99px;fill:#000000" text-anchor="middle">150</text>
	<line x1="3630.21" y1="2489.19" x2="3630.21" y2="2529.16" style="stroke:#000000;stroke-width:5.76"/>
	<text x="3630.21" y="2619.14" style="font-family:'Helvetica';font-size:99.99px;fill:#000000" text-anchor="middle">200</text>
	<text x="2207.70" y="2729.16" style="font-family:'Helvetica';font-size:99.99px;fill:#000000" text-anchor="middle">Days from 1 March 2020</text>
</svg>
