<?xml version="1.0" encoding="UTF-8" standalone="no"?>
<!-- This is a Stata 16.1 generated SVG file (http://www.stata.com) -->

<svg version="1.1" width="5.50in" height="4.00in" viewBox="0 0 3960 2880" xmlns="http://www.w3.org/2000/svg" xmlns:xlink="http://www.w3.org/1999/xlink">
	<desc>Stata Graph - Graph</desc>
	<rect x="0" y="0" width="3960" height="2880" style="fill:#EAF2F3;stroke:none"/>
	<rect x="0.00" y="0.00" width="3959.88" height="2880.00" style="fill:#EAF2F3"/>
	<rect x="2.88" y="2.88" width="3954.12" height="2874.24" style="fill:none;stroke:#EAF2F3;stroke-width:5.76"/>
	<rect x="556.38" y="100.86" width="3302.64" height="2388.33" style="fill:#FFFFFF"/>
	<rect x="559.26" y="103.74" width="3296.88" height="2382.57" style="fill:none;stroke:#FFFFFF;stroke-width:5.76"/>
	<line x1="556.38" y1="2425.82" x2="3859.02" y2="2425.82" style="stroke:#EAF2F3;stroke-width:8.64"/>
	<line x1="556.38" y1="1978.08" x2="3859.02" y2="1978.08" style="stroke:#EAF2F3;stroke-width:8.64"/>
	<line x1="556.38" y1="1530.34" x2="3859.02" y2="1530.34" style="stroke:#EAF2F3;stroke-width:8.64"/>
	<line x1="556.38" y1="1082.60" x2="3859.02" y2="1082.60" style="stroke:#EAF2F3;stroke-width:8.64"/>
	<line x1="556.38" y1="634.98" x2="3859.02" y2="634.98" style="stroke:#EAF2F3;stroke-width:8.64"/>
	<line x1="556.38" y1="187.24" x2="3859.02" y2="187.24" style="stroke:#EAF2F3;stroke-width:8.64"/>
	<defs>
		<path id="path_TMYWPpqR" d="M619.74 634.98 L619.74 634.98 L634.84 634.98 L649.93 634.98 L664.91 635.35 L680.01 635.97 L694.98 637.08 L710.08 638.94 L725.17 641.66 L740.15 645.50 L755.25 650.33 L770.34 656.39 L785.32 663.82 L800.41 672.60 L815.51 682.75 L830.49 694.26 L845.58 707.13 L860.56 721.24 L875.65 736.71 L890.75 753.41 L905.73 771.23 L920.82 790.04 L935.92 809.97 L950.89 830.76 L965.99 852.42 L980.97 874.82 L996.06 897.83 L1011.16 921.47 L1026.13 945.60 L1041.23 970.11 L1056.33 994.86 L1071.30 1019.86 L1086.40 1045.10 L1101.50 1070.35 L1116.47 1095.59 L1131.57 1120.84 L1146.54 1145.96 L1161.64 1170.96 L1176.74 1195.71 L1191.71 1220.21 L1206.81 1244.47 L1221.91 1268.23 L1236.88 1291.74 L1251.98 1314.76 L1266.95 1337.28 L1282.05 1359.56 L1297.15 1381.22 L1312.12 1402.50 L1327.22 1423.29 L1342.32 1443.71 L1357.29 1463.64 L1372.39 1483.07 L1387.48 1502.12 L1402.46 1520.69 L1417.56 1538.76 L1432.53 1556.45 L1447.63 1573.65 L1462.72 1590.48 L1477.70 1606.82 L1492.80 1622.78 L1507.89 1638.25 L1522.87 1653.48 L1537.96 1668.20 L1552.94 1682.43 L1568.04 1696.42 L1583.13 1710.03 L1598.11 1723.27 L1613.20 1736.14 L1628.30 1748.64 L1643.28 1760.77 L1658.37 1772.65 L1673.47 1784.16 L1688.44 1795.30 L1703.54 1806.19 L1718.52 1816.71 L1733.61 1827.10 L1748.71 1837.00 L1763.68 1846.78 L1778.78 1856.18 L1793.88 1865.47 L1808.85 1874.38 L1823.95 1883.04 L1838.92 1891.45 L1854.02 1899.75 L1869.12 1907.67 L1884.09 1915.46 L1899.19 1923.01 L1914.29 1930.31 L1929.26 1937.37 L1944.36 1944.30 L1959.46 1951.10 L1974.43 1957.66 L1989.53 1963.97 L2004.50 1970.16 L2019.60 1976.10 L2034.70 1982.04 L2049.67 1987.61 L2064.77 1993.18 L2079.87 1998.50 L2094.84 2003.82 L2109.94 2008.90 L2124.91 2013.72 L2140.01 2018.55 L2155.11 2023.25 L2170.08 2027.83 L2185.18 2032.16 L2200.28 2036.49 L2215.25 2040.70 L2230.35 2044.66 L2245.32 2048.62 L2260.42 2052.46 L2275.51 2056.17 L2290.49 2059.88 L2305.59 2063.35 L2320.68 2066.81 L2335.66 2070.15 L2350.76 2073.37 L2365.85 2076.59 L2380.83 2079.68 L2395.92 2082.65 L2410.90 2085.62 L2425.99 2088.47 L2441.09 2091.19 L2456.07 2093.92 L2471.16 2096.51 L2486.26 2099.11 L2501.24 2101.59 L2516.33 2104.06 L2531.31 2106.41 L2546.40 2108.64 L2561.50 2110.87 L2576.47 2113.10 L2591.57 2115.20 L2606.67 2117.30 L2621.64 2119.28 L2636.74 2121.27 L2651.84 2123.25 L2666.81 2125.10 L2681.91 2126.96 L2696.88 2128.69 L2711.98 2130.42 L2727.08 2132.16 L2742.05 2133.76 L2757.15 2135.37 L2772.25 2136.98 L2787.22 2138.47 L2802.32 2139.95 L2817.29 2141.44 L2832.39 2142.92 L2847.49 2144.28 L2862.46 2145.64 L2877.56 2147.01 L2892.66 2148.24 L2907.63 2149.60 L2922.73 2150.84 L2937.82 2152.08 L2952.80 2153.19 L2967.90 2154.43 L2982.87 2155.54 L2997.97 2156.66 L3013.07 2157.77 L3028.04 2158.89 L3043.14 2159.88 L3058.23 2160.99 L3073.21 2161.98 L3088.30 2162.97 L3103.28 2163.96 L3118.38 2164.83 L3133.47 2165.82 L3148.45 2166.68 L3163.55 2167.67 L3178.64 2168.54 L3193.62 2169.41 L3208.71 2170.27 L3223.81 2171.14 L3238.78 2171.88 L3253.88 2172.75 L3268.86 2173.49 L3283.95 2174.36 L3299.05 2175.10 L3314.03 2175.84 L3329.12 2176.58 L3344.22 2177.33 L3359.19 2178.07 L3374.29 2178.81 L3389.26 2179.55 L3404.36 2180.30 L3419.46 2180.91 L3434.43 2181.66 L3449.53 2182.40 L3464.63 2183.02 L3479.60 2183.64 L3494.70 2184.38 L3509.80 2185.00 L3524.77 2185.62 L3539.87 2186.24 L3554.84 2186.98 L3569.94 2187.60 L3585.04 2188.22 L3600.01 2188.83 L3615.11 2189.45 L3630.21 2190.07 L3645.18 2190.69 L3660.28 2191.31 L3675.25 2191.93 L3690.35 2192.42 L3705.45 2193.04 L3720.42 2193.66 L3735.52 2194.28 L3750.61 2194.77 L3765.59 2195.39 L3780.69 2196.01 L3795.66 2196.63 L3795.66 164.22 L3780.69 164.35 L3765.59 164.47 L3750.61 164.72 L3735.52 164.84 L3720.42 165.09 L3705.45 165.21 L3690.35 165.46 L3675.25 165.58 L3660.28 165.71 L3645.18 165.95 L3630.21 166.08 L3615.11 166.33 L3600.01 166.45 L3585.04 166.70 L3569.94 166.82 L3554.84 167.07 L3539.87 167.32 L3524.77 167.44 L3509.80 167.69 L3494.70 167.81 L3479.60 168.06 L3464.63 168.31 L3449.53 168.43 L3434.43 168.68 L3419.46 168.92 L3404.36 169.05 L3389.26 169.30 L3374.29 169.54 L3359.19 169.67 L3344.22 169.91 L3329.12 170.16 L3314.03 170.41 L3299.05 170.66 L3283.95 170.90 L3268.86 171.15 L3253.88 171.40 L3238.78 171.65 L3223.81 171.89 L3208.71 172.14 L3193.62 172.39 L3178.64 172.64 L3163.55 172.88 L3148.45 173.13 L3133.47 173.38 L3118.38 173.75 L3103.28 174.00 L3088.30 174.25 L3073.21 174.62 L3058.23 174.86 L3043.14 175.24 L3028.04 175.48 L3013.07 175.85 L2997.97 176.23 L2982.87 176.47 L2967.90 176.84 L2952.80 177.22 L2937.82 177.59 L2922.73 177.96 L2907.63 178.33 L2892.66 178.70 L2877.56 179.07 L2862.46 179.44 L2847.49 179.94 L2832.39 180.31 L2817.29 180.80 L2802.32 181.18 L2787.22 181.67 L2772.25 182.17 L2757.15 182.54 L2742.05 183.03 L2727.08 183.53 L2711.98 184.02 L2696.88 184.64 L2681.91 185.14 L2666.81 185.63 L2651.84 186.25 L2636.74 186.87 L2621.64 187.36 L2606.67 187.98 L2591.57 188.60 L2576.47 189.34 L2561.50 189.96 L2546.40 190.58 L2531.31 191.32 L2516.33 192.07 L2501.24 192.68 L2486.26 193.55 L2471.16 194.29 L2456.07 195.04 L2441.09 195.90 L2425.99 196.64 L2410.90 197.51 L2395.92 198.38 L2380.83 199.37 L2365.85 200.23 L2350.76 201.22 L2335.66 202.21 L2320.68 203.20 L2305.59 204.19 L2290.49 205.31 L2275.51 206.42 L2260.42 207.54 L2245.32 208.65 L2230.35 209.89 L2215.25 211.12 L2200.28 212.36 L2185.18 213.60 L2170.08 214.96 L2155.11 216.32 L2140.01 217.68 L2124.91 219.17 L2109.94 220.65 L2094.84 222.14 L2079.87 223.75 L2064.77 225.36 L2049.67 226.96 L2034.70 228.70 L2019.60 230.43 L2004.50 232.29 L1989.53 234.14 L1974.43 236.12 L1959.46 237.98 L1944.36 240.08 L1929.26 242.19 L1914.29 244.29 L1899.19 246.52 L1884.09 248.75 L1869.12 251.10 L1854.02 253.45 L1838.92 255.92 L1823.95 258.52 L1808.85 261.12 L1793.88 263.84 L1778.78 266.57 L1763.68 269.41 L1748.71 272.38 L1733.61 275.35 L1718.52 278.45 L1703.54 281.66 L1688.44 284.88 L1673.47 288.22 L1658.37 291.69 L1643.28 295.28 L1628.30 298.99 L1613.20 302.70 L1598.11 306.66 L1583.13 310.62 L1568.04 314.71 L1552.94 318.91 L1537.96 323.12 L1522.87 327.58 L1507.89 332.16 L1492.80 336.86 L1477.70 341.68 L1462.72 346.51 L1447.63 351.58 L1432.53 356.78 L1417.56 362.10 L1402.46 367.55 L1387.48 373.12 L1372.39 378.81 L1357.29 384.63 L1342.32 390.69 L1327.22 396.75 L1312.12 403.07 L1297.15 409.50 L1282.05 415.94 L1266.95 422.62 L1251.98 429.43 L1236.88 436.36 L1221.91 443.41 L1206.81 450.59 L1191.71 457.89 L1176.74 465.19 L1161.64 472.62 L1146.54 480.17 L1131.57 487.71 L1116.47 495.26 L1101.50 502.94 L1086.40 510.48 L1071.30 518.03 L1056.33 525.58 L1041.23 533.01 L1026.13 540.43 L1011.16 547.61 L996.06 554.66 L980.97 561.60 L965.99 568.40 L950.89 574.96 L935.92 581.15 L920.82 587.21 L905.73 592.90 L890.75 598.35 L875.65 603.42 L860.56 608.13 L845.58 612.33 L830.49 616.29 L815.51 619.88 L800.41 622.98 L785.32 625.70 L770.34 627.93 L755.25 629.91 L740.15 631.39 L725.17 632.63 L710.08 633.50 L694.98 634.11 L680.01 634.61 L664.91 634.73 L649.93 634.86 L634.84 634.98 L619.74 634.98 L619.74 634.98 Z" stroke-linejoin="round"/>
	</defs>
	<defs>
		<clipPath id="clipPath_TgWaEDNe">
			<use xlink:href="#path_TMYWPpqR"/>
		</clipPath>
	</defs>
	<use xlink:href="#path_TMYWPpqR" style="stroke:none;fill:#FF3333;fill-opacity:0.25"/>
	<use xlink:href="#path_TMYWPpqR" style="fill:none;stroke:#FF0000;stroke-opacity:0.25;stroke-width:17.28" clip-path="url(#clipPath_TgWaEDNe)"/>
	<path d=" M619.74 634.98 L634.71 634.98 L649.81 634.98 L664.91 635.10 L679.88 635.35 L694.98 635.72 L710.08 636.34 L725.05 637.21 L740.15 638.57 L755.25 640.18 L770.22 642.28 L785.32 644.76 L800.29 647.85 L815.39 651.32 L830.49 655.28 L845.46 659.73 L860.56 664.68 L875.65 670.13 L890.63 675.94 L905.73 682.13 L920.70 688.69 L935.80 695.62 L950.89 702.92 L965.87 710.47 L980.97 718.27 L996.06 726.31 L1011.04 734.60 L1026.13 743.02 L1041.23 751.56 L1056.21 760.22 L1071.30 769.01 L1086.28 777.79 L1101.38 786.70 L1116.47 795.49 L1131.45 804.40 L1146.54 813.19 L1161.64 821.85 L1176.62 830.51 L1191.71 839.05 L1206.69 847.59 L1221.78 855.88 L1236.88 864.05 L1251.86 872.09 L1266.95 880.01 L1282.05 887.81 L1297.02 895.36 L1312.12 902.91 L1327.22 910.09 L1342.19 917.26 L1357.29 924.19 L1372.26 931.00 L1387.36 937.68 L1402.46 944.12 L1417.43 950.55 L1432.53 956.62 L1447.63 962.68 L1462.60 968.62 L1477.70 974.31 L1492.67 979.88 L1507.77 985.33 L1522.87 990.53 L1537.84 995.72 L1552.94 1000.67 L1568.04 1005.62 L1583.01 1010.33 L1598.11 1015.03 L1613.08 1019.48 L1628.18 1023.82 L1643.28 1028.15 L1658.25 1032.23 L1673.35 1036.31 L1688.44 1040.15 L1703.42 1043.99 L1718.52 1047.70 L1733.61 1051.29 L1748.59 1054.75 L1763.68 1058.22 L1778.66 1061.44 L1793.76 1064.65 L1808.85 1067.75 L1823.83 1070.84 L1838.92 1073.81 L1854.02 1076.66 L1869.00 1079.50 L1884.09 1082.10 L1899.07 1084.83 L1914.16 1087.30 L1929.26 1089.90 L1944.24 1092.25 L1959.33 1094.60 L1974.43 1096.95 L1989.40 1099.06 L2004.50 1101.29 L2019.60 1103.39 L2034.57 1105.37 L2049.67 1107.35 L2064.64 1109.33 L2079.74 1111.19 L2094.84 1113.04 L2109.81 1114.77 L2124.91 1116.51 L2140.01 1118.24 L2154.98 1119.85 L2170.08 1121.46 L2185.05 1122.94 L2200.15 1124.43 L2215.25 1125.91 L2230.22 1127.40 L2245.32 1128.76 L2260.42 1130.12 L2275.39 1131.36 L2290.49 1132.60 L2305.59 1133.83 L2320.56 1135.07 L2335.66 1136.18 L2350.63 1137.42 L2365.73 1138.54 L2380.83 1139.53 L2395.80 1140.64 L2410.90 1141.63 L2425.99 1142.62 L2440.97 1143.61 L2456.07 1144.60 L2471.04 1145.47 L2486.14 1146.33 L2501.24 1147.20 L2516.21 1148.06 L2531.31 1148.93 L2546.40 1149.67 L2561.38 1150.54 L2576.47 1151.28 L2591.57 1152.02 L2606.55 1152.77 L2621.64 1153.39 L2636.62 1154.13 L2651.72 1154.75 L2666.81 1155.49 L2681.79 1156.11 L2696.88 1156.73 L2711.98 1157.35 L2726.95 1157.84 L2742.05 1158.46 L2757.03 1159.08 L2772.12 1159.57 L2787.22 1160.07 L2802.20 1160.69 L2817.29 1161.18 L2832.39 1161.68 L2847.36 1162.17 L2862.46 1162.67 L2877.56 1163.16 L2892.53 1163.53 L2907.63 1164.03 L2922.60 1164.40 L2937.70 1164.90 L2952.80 1165.27 L2967.77 1165.64 L2982.87 1166.13 L2997.97 1166.50 L3012.94 1166.88 L3028.04 1167.25 L3043.01 1167.62 L3058.11 1167.99 L3073.21 1168.36 L3088.18 1168.73 L3103.28 1168.98 L3118.38 1169.35 L3133.35 1169.72 L3148.45 1169.97 L3163.42 1170.34 L3178.52 1170.59 L3193.62 1170.96 L3208.59 1171.21 L3223.69 1171.58 L3238.78 1171.83 L3253.76 1172.07 L3268.86 1172.32 L3283.95 1172.69 L3298.93 1172.94 L3314.03 1173.19 L3329.00 1173.43 L3344.10 1173.68 L3359.19 1173.93 L3374.17 1174.18 L3389.26 1174.42 L3404.36 1174.67 L3419.34 1174.92 L3434.43 1175.17 L3449.41 1175.41 L3464.51 1175.66 L3479.60 1175.91 L3494.58 1176.16 L3509.67 1176.40 L3524.77 1176.65 L3539.74 1176.90 L3554.84 1177.02 L3569.94 1177.27 L3584.91 1177.52 L3600.01 1177.77 L3614.99 1177.89 L3630.08 1178.14 L3645.18 1178.38 L3660.15 1178.63 L3675.25 1178.76 L3690.35 1179.00 L3705.32 1179.25 L3720.42 1179.37 L3735.39 1179.62 L3750.49 1179.87 L3765.59 1179.99 L3780.56 1180.24 L3795.66 1180.49" stroke-linejoin="round" style="fill:none;stroke:#FF0000;stroke-width:8.64"/>
	<line x1="556.38" y1="2489.19" x2="556.38" y2="100.86" style="stroke:#000000;stroke-width:5.76"/>
	<line x1="556.38" y1="2425.82" x2="516.41" y2="2425.82" style="stroke:#000000;stroke-width:5.76"/>
	<text x="496.49" y="2460.85" style="font-family:'Helvetica';font-size:99.99px;fill:#000000" text-anchor="end">-0.20</text>
	<line x1="556.38" y1="1978.08" x2="516.41" y2="1978.08" style="stroke:#000000;stroke-width:5.76"/>
	<text x="496.49" y="2013.11" style="font-family:'Helvetica';font-size:99.99px;fill:#000000" text-anchor="end">-0.15</text>
	<line x1="556.38" y1="1530.34" x2="516.41" y2="1530.34" style="stroke:#000000;stroke-width:5.76"/>
	<text x="496.49" y="1565.37" style="font-family:'Helvetica';font-size:99.99px;fill:#000000" text-anchor="end">-0.10</text>
	<line x1="556.38" y1="1082.60" x2="516.41" y2="1082.60" style="stroke:#000000;stroke-width:5.76"/>
	<text x="496.49" y="1117.63" style="font-family:'Helvetica';font-size:99.99px;fill:#000000" text-anchor="end">-0.05</text>
	<line x1="556.38" y1="634.98" x2="516.41" y2="634.98" style="stroke:#000000;stroke-width:5.76"/>
	<text x="496.49" y="670.01" style="font-family:'Helvetica';font-size:99.99px;fill:#000000" text-anchor="end">0.00</text>
	<line x1="556.38" y1="187.24" x2="516.41" y2="187.24" style="stroke:#000000;stroke-width:5.76"/>
	<text x="496.49" y="222.27" style="font-family:'Helvetica';font-size:99.99px;fill:#000000" text-anchor="end">0.05</text>
	<text x="190.71" y="1294.96" style="font-family:'Helvetica';font-size:99.99px;fill:#000000" transform="rotate(-90 190.71,1294.96)" text-anchor="middle">Difference in curves (%)</text>
	<line x1="556.38" y1="2489.19" x2="3859.02" y2="2489.19" style="stroke:#000000;stroke-width:5.76"/>
	<line x1="619.74" y1="2489.19" x2="619.74" y2="2529.16" style="stroke:#000000;stroke-width:5.76"/>
	<text x="619.74" y="2619.14" style="font-family:'Helvetica';font-size:99.99px;fill:#000000" text-anchor="middle">0</text>
	<line x1="1372.39" y1="2489.19" x2="1372.39" y2="2529.16" style="stroke:#000000;stroke-width:5.76"/>
	<text x="1372.39" y="2619.14" style="font-family:'Helvetica';font-size:99.99px;fill:#000000" text-anchor="middle">50</text>
	<line x1="2124.91" y1="2489.19" x2="2124.91" y2="2529.16" style="stroke:#000000;stroke-width:5.76"/>
	<text x="2124.91" y="2619.14" style="font-family:'Helvetica';font-size:99.99px;fill:#000000" text-anchor="middle">100</text>
	<line x1="2877.56" y1="2489.19" x2="2877.56" y2="2529.16" style="stroke:#000000;stroke-width:5.76"/>
	<text x="2877.56" y="2619.14" style="font-family:'Helvetica';font-size:99.99px;fill:#000000" text-anchor="middle">150</text>
	<line x1="3630.21" y1="2489.19" x2="3630.21" y2="2529.16" style="stroke:#000000;stroke-width:5.76"/>
	<text x="3630.21" y="2619.14" style="font-family:'Helvetica';font-size:99.99px;fill:#000000" text-anchor="middle">200</text>
	<text x="2207.70" y="2729.16" style="font-family:'Helvetica';font-size:99.99px;fill:#000000" text-anchor="middle">Days from 1 March 2020</text>
</svg>
