<?xml version="1.0" encoding="UTF-8" standalone="no"?>
<!-- This is a Stata 16.1 generated SVG file (http://www.stata.com) -->

<svg version="1.1" width="5.50in" height="4.00in" viewBox="0 0 3960 2880" xmlns="http://www.w3.org/2000/svg" xmlns:xlink="http://www.w3.org/1999/xlink">
	<desc>Stata Graph - Graph</desc>
	<rect x="0" y="0" width="3960" height="2880" style="fill:#FFFFFF;stroke:none"/>
	<rect x="0.00" y="0.00" width="3959.88" height="2880.00" style="fill:#FFFFFF"/>
	<rect x="2.88" y="2.88" width="3954.12" height="2874.24" style="fill:none;stroke:#FFFFFF;stroke-width:5.76"/>
	<rect x="353.59" y="238.26" width="3502.55" height="2173.55" style="fill:none;stroke:#000000;stroke-width:5.76"/>
	<circle cx="701.41" cy="865.41" r="14.97" style="fill:none;stroke:#606060;stroke-width:8.64"/>
	<circle cx="769.11" cy="991.64" r="14.97" style="fill:none;stroke:#606060;stroke-width:8.64"/>
	<circle cx="786.06" cy="900.43" r="14.97" style="fill:none;stroke:#606060;stroke-width:8.64"/>
	<circle cx="802.89" cy="807.99" r="14.97" style="fill:none;stroke:#606060;stroke-width:8.64"/>
	<circle cx="819.84" cy="1099.80" r="14.97" style="fill:none;stroke:#606060;stroke-width:8.64"/>
	<circle cx="853.63" cy="806.88" r="14.97" style="fill:none;stroke:#606060;stroke-width:8.64"/>
	<circle cx="870.58" cy="1053.64" r="14.97" style="fill:none;stroke:#606060;stroke-width:8.64"/>
	<circle cx="870.58" cy="899.20" r="14.97" style="fill:none;stroke:#606060;stroke-width:8.64"/>
	<circle cx="870.58" cy="874.32" r="14.97" style="fill:none;stroke:#606060;stroke-width:8.64"/>
	<circle cx="870.58" cy="1054.63" r="14.97" style="fill:none;stroke:#606060;stroke-width:8.64"/>
	<circle cx="887.41" cy="491.92" r="14.97" style="fill:none;stroke:#606060;stroke-width:8.64"/>
	<circle cx="887.41" cy="986.44" r="14.97" style="fill:none;stroke:#606060;stroke-width:8.64"/>
	<circle cx="904.37" cy="692.16" r="14.97" style="fill:none;stroke:#606060;stroke-width:8.64"/>
	<circle cx="904.37" cy="884.22" r="14.97" style="fill:none;stroke:#606060;stroke-width:8.64"/>
	<circle cx="921.32" cy="1038.05" r="14.97" style="fill:none;stroke:#606060;stroke-width:8.64"/>
	<circle cx="938.15" cy="941.77" r="14.97" style="fill:none;stroke:#606060;stroke-width:8.64"/>
	<circle cx="938.15" cy="1085.07" r="14.97" style="fill:none;stroke:#606060;stroke-width:8.64"/>
	<circle cx="938.15" cy="2035.63" r="14.97" style="fill:none;stroke:#606060;stroke-width:8.64"/>
	<circle cx="938.15" cy="1612.51" r="14.97" style="fill:none;stroke:#606060;stroke-width:8.64"/>
	<circle cx="955.10" cy="958.23" r="14.97" style="fill:none;stroke:#606060;stroke-width:8.64"/>
	<circle cx="972.06" cy="667.90" r="14.97" style="fill:none;stroke:#606060;stroke-width:8.64"/>
	<circle cx="972.06" cy="768.26" r="14.97" style="fill:none;stroke:#606060;stroke-width:8.64"/>
	<circle cx="972.06" cy="592.90" r="14.97" style="fill:none;stroke:#606060;stroke-width:8.64"/>
	<circle cx="972.06" cy="1379.98" r="14.97" style="fill:none;stroke:#606060;stroke-width:8.64"/>
	<circle cx="988.89" cy="845.12" r="14.97" style="fill:none;stroke:#606060;stroke-width:8.64"/>
	<circle cx="988.89" cy="1059.33" r="14.97" style="fill:none;stroke:#606060;stroke-width:8.64"/>
	<circle cx="1005.84" cy="1057.72" r="14.97" style="fill:none;stroke:#606060;stroke-width:8.64"/>
	<circle cx="1005.84" cy="1874.13" r="14.97" style="fill:none;stroke:#606060;stroke-width:8.64"/>
	<circle cx="1005.84" cy="809.60" r="14.97" style="fill:none;stroke:#606060;stroke-width:8.64"/>
	<circle cx="1005.84" cy="808.48" r="14.97" style="fill:none;stroke:#606060;stroke-width:8.64"/>
	<circle cx="1039.62" cy="1058.10" r="14.97" style="fill:none;stroke:#606060;stroke-width:8.64"/>
	<circle cx="1039.62" cy="579.54" r="14.97" style="fill:none;stroke:#606060;stroke-width:8.64"/>
	<circle cx="1056.58" cy="1096.71" r="14.97" style="fill:none;stroke:#606060;stroke-width:8.64"/>
	<circle cx="1056.58" cy="1122.70" r="14.97" style="fill:none;stroke:#606060;stroke-width:8.64"/>
	<circle cx="1056.58" cy="710.10" r="14.97" style="fill:none;stroke:#606060;stroke-width:8.64"/>
	<circle cx="1056.58" cy="969.86" r="14.97" style="fill:none;stroke:#606060;stroke-width:8.64"/>
	<circle cx="1056.58" cy="909.47" r="14.97" style="fill:none;stroke:#606060;stroke-width:8.64"/>
	<circle cx="1073.41" cy="861.57" r="14.97" style="fill:none;stroke:#606060;stroke-width:8.64"/>
	<circle cx="1073.41" cy="525.21" r="14.97" style="fill:none;stroke:#606060;stroke-width:8.64"/>
	<circle cx="1073.41" cy="882.86" r="14.97" style="fill:none;stroke:#606060;stroke-width:8.64"/>
	<circle cx="1090.36" cy="1216.38" r="14.97" style="fill:none;stroke:#606060;stroke-width:8.64"/>
	<circle cx="1090.36" cy="758.12" r="14.97" style="fill:none;stroke:#606060;stroke-width:8.64"/>
	<circle cx="1107.32" cy="788.19" r="14.97" style="fill:none;stroke:#606060;stroke-width:8.64"/>
	<circle cx="1124.14" cy="830.39" r="14.97" style="fill:none;stroke:#606060;stroke-width:8.64"/>
	<circle cx="1141.10" cy="935.46" r="14.97" style="fill:none;stroke:#606060;stroke-width:8.64"/>
	<circle cx="1141.10" cy="1054.75" r="14.97" style="fill:none;stroke:#606060;stroke-width:8.64"/>
	<circle cx="1158.05" cy="1023.94" r="14.97" style="fill:none;stroke:#606060;stroke-width:8.64"/>
	<circle cx="1174.88" cy="1172.57" r="14.97" style="fill:none;stroke:#606060;stroke-width:8.64"/>
	<circle cx="1174.88" cy="1578.85" r="14.97" style="fill:none;stroke:#606060;stroke-width:8.64"/>
	<circle cx="1191.84" cy="1093.49" r="14.97" style="fill:none;stroke:#606060;stroke-width:8.64"/>
	<circle cx="1191.84" cy="954.64" r="14.97" style="fill:none;stroke:#606060;stroke-width:8.64"/>
	<circle cx="1191.84" cy="646.49" r="14.97" style="fill:none;stroke:#606060;stroke-width:8.64"/>
	<circle cx="1191.84" cy="1750.62" r="14.97" style="fill:none;stroke:#606060;stroke-width:8.64"/>
	<circle cx="1208.67" cy="718.02" r="14.97" style="fill:none;stroke:#606060;stroke-width:8.64"/>
	<circle cx="1208.67" cy="789.43" r="14.97" style="fill:none;stroke:#606060;stroke-width:8.64"/>
	<circle cx="1208.67" cy="1060.45" r="14.97" style="fill:none;stroke:#606060;stroke-width:8.64"/>
	<circle cx="1208.67" cy="772.72" r="14.97" style="fill:none;stroke:#606060;stroke-width:8.64"/>
	<circle cx="1225.62" cy="966.89" r="14.97" style="fill:none;stroke:#606060;stroke-width:8.64"/>
	<circle cx="1242.57" cy="770.37" r="14.97" style="fill:none;stroke:#606060;stroke-width:8.64"/>
	<circle cx="1242.57" cy="883.11" r="14.97" style="fill:none;stroke:#606060;stroke-width:8.64"/>
	<circle cx="1259.40" cy="1759.16" r="14.97" style="fill:none;stroke:#606060;stroke-width:8.64"/>
	<circle cx="1259.40" cy="1079.63" r="14.97" style="fill:none;stroke:#606060;stroke-width:8.64"/>
	<circle cx="1276.36" cy="1940.34" r="14.97" style="fill:none;stroke:#606060;stroke-width:8.64"/>
	<circle cx="1276.36" cy="990.53" r="14.97" style="fill:none;stroke:#606060;stroke-width:8.64"/>
	<circle cx="1276.36" cy="1298.92" r="14.97" style="fill:none;stroke:#606060;stroke-width:8.64"/>
	<circle cx="1293.31" cy="1608.68" r="14.97" style="fill:none;stroke:#606060;stroke-width:8.64"/>
	<circle cx="1293.31" cy="423.86" r="14.97" style="fill:none;stroke:#606060;stroke-width:8.64"/>
	<circle cx="1293.31" cy="1634.29" r="14.97" style="fill:none;stroke:#606060;stroke-width:8.64"/>
	<circle cx="1293.31" cy="854.03" r="14.97" style="fill:none;stroke:#606060;stroke-width:8.64"/>
	<circle cx="1293.31" cy="1441.11" r="14.97" style="fill:none;stroke:#606060;stroke-width:8.64"/>
	<circle cx="1293.31" cy="904.52" r="14.97" style="fill:none;stroke:#606060;stroke-width:8.64"/>
	<circle cx="1310.14" cy="918.38" r="14.97" style="fill:none;stroke:#606060;stroke-width:8.64"/>
	<circle cx="1310.14" cy="827.91" r="14.97" style="fill:none;stroke:#606060;stroke-width:8.64"/>
	<circle cx="1327.10" cy="932.98" r="14.97" style="fill:none;stroke:#606060;stroke-width:8.64"/>
	<circle cx="1360.88" cy="2103.57" r="14.97" style="fill:none;stroke:#606060;stroke-width:8.64"/>
	<circle cx="1377.83" cy="890.29" r="14.97" style="fill:none;stroke:#606060;stroke-width:8.64"/>
	<circle cx="1377.83" cy="755.02" r="14.97" style="fill:none;stroke:#606060;stroke-width:8.64"/>
	<circle cx="1411.62" cy="1071.46" r="14.97" style="fill:none;stroke:#606060;stroke-width:8.64"/>
	<circle cx="1411.62" cy="1070.72" r="14.97" style="fill:none;stroke:#606060;stroke-width:8.64"/>
	<circle cx="1428.57" cy="870.61" r="14.97" style="fill:none;stroke:#606060;stroke-width:8.64"/>
	<circle cx="1428.57" cy="952.90" r="14.97" style="fill:none;stroke:#606060;stroke-width:8.64"/>
	<circle cx="1428.57" cy="1773.52" r="14.97" style="fill:none;stroke:#606060;stroke-width:8.64"/>
	<circle cx="1428.57" cy="1099.43" r="14.97" style="fill:none;stroke:#606060;stroke-width:8.64"/>
	<circle cx="1428.57" cy="1223.80" r="14.97" style="fill:none;stroke:#606060;stroke-width:8.64"/>
	<circle cx="1445.40" cy="1214.40" r="14.97" style="fill:none;stroke:#606060;stroke-width:8.64"/>
	<circle cx="1445.40" cy="988.05" r="14.97" style="fill:none;stroke:#606060;stroke-width:8.64"/>
	<circle cx="1445.40" cy="1643.82" r="14.97" style="fill:none;stroke:#606060;stroke-width:8.64"/>
	<circle cx="1445.40" cy="1054.88" r="14.97" style="fill:none;stroke:#606060;stroke-width:8.64"/>
	<circle cx="1462.35" cy="630.90" r="14.97" style="fill:none;stroke:#606060;stroke-width:8.64"/>
	<circle cx="1462.35" cy="1652.24" r="14.97" style="fill:none;stroke:#606060;stroke-width:8.64"/>
	<circle cx="1462.35" cy="1360.92" r="14.97" style="fill:none;stroke:#606060;stroke-width:8.64"/>
	<circle cx="1462.35" cy="1076.41" r="14.97" style="fill:none;stroke:#606060;stroke-width:8.64"/>
	<circle cx="1479.31" cy="843.26" r="14.97" style="fill:none;stroke:#606060;stroke-width:8.64"/>
	<circle cx="1496.14" cy="724.46" r="14.97" style="fill:none;stroke:#606060;stroke-width:8.64"/>
	<circle cx="1496.14" cy="1295.58" r="14.97" style="fill:none;stroke:#606060;stroke-width:8.64"/>
	<circle cx="1546.88" cy="741.78" r="14.97" style="fill:none;stroke:#606060;stroke-width:8.64"/>
	<circle cx="1597.61" cy="1841.71" r="14.97" style="fill:none;stroke:#606060;stroke-width:8.64"/>
	<circle cx="1614.57" cy="1196.70" r="14.97" style="fill:none;stroke:#606060;stroke-width:8.64"/>
	<circle cx="1631.40" cy="1135.94" r="14.97" style="fill:none;stroke:#606060;stroke-width:8.64"/>
	<circle cx="1648.35" cy="1015.52" r="14.97" style="fill:none;stroke:#606060;stroke-width:8.64"/>
	<circle cx="1648.35" cy="1317.98" r="14.97" style="fill:none;stroke:#606060;stroke-width:8.64"/>
	<circle cx="1766.65" cy="1043.00" r="14.97" style="fill:none;stroke:#606060;stroke-width:8.64"/>
	<circle cx="1766.65" cy="947.09" r="14.97" style="fill:none;stroke:#606060;stroke-width:8.64"/>
	<circle cx="1834.35" cy="1501.38" r="14.97" style="fill:none;stroke:#606060;stroke-width:8.64"/>
	<circle cx="1834.35" cy="1184.57" r="14.97" style="fill:none;stroke:#606060;stroke-width:8.64"/>
	<circle cx="1834.35" cy="1139.90" r="14.97" style="fill:none;stroke:#606060;stroke-width:8.64"/>
	<circle cx="1868.13" cy="1175.54" r="14.97" style="fill:none;stroke:#606060;stroke-width:8.64"/>
	<circle cx="1868.13" cy="1546.68" r="14.97" style="fill:none;stroke:#606060;stroke-width:8.64"/>
	<circle cx="1885.08" cy="1459.31" r="14.97" style="fill:none;stroke:#606060;stroke-width:8.64"/>
	<circle cx="1885.08" cy="757.13" r="14.97" style="fill:none;stroke:#606060;stroke-width:8.64"/>
	<circle cx="1952.65" cy="1921.40" r="14.97" style="fill:none;stroke:#606060;stroke-width:8.64"/>
	<circle cx="1969.61" cy="1540.86" r="14.97" style="fill:none;stroke:#606060;stroke-width:8.64"/>
	<circle cx="1969.61" cy="1663.50" r="14.97" style="fill:none;stroke:#606060;stroke-width:8.64"/>
	<circle cx="1986.43" cy="863.31" r="14.97" style="fill:none;stroke:#606060;stroke-width:8.64"/>
	<circle cx="2020.34" cy="1689.98" r="14.97" style="fill:none;stroke:#606060;stroke-width:8.64"/>
	<circle cx="2037.17" cy="806.50" r="14.97" style="fill:none;stroke:#606060;stroke-width:8.64"/>
	<circle cx="2121.69" cy="1177.02" r="14.97" style="fill:none;stroke:#606060;stroke-width:8.64"/>
	<circle cx="2290.86" cy="1110.57" r="14.97" style="fill:none;stroke:#606060;stroke-width:8.64"/>
	<circle cx="2307.69" cy="1933.16" r="14.97" style="fill:none;stroke:#606060;stroke-width:8.64"/>
	<circle cx="2409.16" cy="624.21" r="14.97" style="fill:none;stroke:#606060;stroke-width:8.64"/>
	<circle cx="2442.95" cy="618.89" r="14.97" style="fill:none;stroke:#606060;stroke-width:8.64"/>
	<circle cx="2544.42" cy="1031.49" r="14.97" style="fill:none;stroke:#606060;stroke-width:8.64"/>
	<circle cx="3372.93" cy="1305.11" r="14.97" style="fill:none;stroke:#606060;stroke-width:8.64"/>
	<circle cx="3474.41" cy="961.07" r="14.97" style="fill:none;stroke:#606060;stroke-width:8.64"/>
	<circle cx="3711.14" cy="1324.41" r="14.97" style="fill:none;stroke:#606060;stroke-width:8.64"/>
	<circle cx="3727.97" cy="885.83" r="14.97" style="fill:none;stroke:#606060;stroke-width:8.64"/>
	<circle cx="3744.92" cy="298.74" r="14.97" style="fill:none;stroke:#606060;stroke-width:8.64"/>
	<path d=" M701.41 981.74 L769.11 975.30 L786.06 989.91 L802.89 984.83 L819.84 981.24 L853.63 982.73 L870.58 979.02 L870.58 978.77 L870.58 975.30 L870.58 973.70 L887.41 986.57 L887.41 988.17 L904.37 1003.27 L904.37 1003.03 L921.32 1007.60 L938.15 1016.64 L938.15 1007.85 L938.15 1017.01 L938.15 1014.66 L955.10 1020.85 L972.06 1019.11 L972.06 1017.75 L972.06 1015.15 L972.06 1014.04 L988.89 1028.52 L988.89 1026.79 L1005.84 1023.20 L1005.84 1023.82 L1005.84 1024.43 L1005.84 1022.45 L1039.62 1021.71 L1039.62 1030.87 L1056.58 1031.61 L1056.58 1033.96 L1056.58 1036.07 L1056.58 1035.45 L1056.58 1042.50 L1073.41 1042.63 L1073.41 1038.05 L1073.41 1044.85 L1090.36 1048.32 L1090.36 1048.57 L1107.32 1046.34 L1124.14 1043.00 L1141.10 1045.60 L1141.10 1042.50 L1158.05 1050.67 L1174.88 1052.16 L1174.88 1053.02 L1191.84 1052.65 L1191.84 1055.25 L1191.84 1057.11 L1191.84 1056.61 L1208.67 1062.55 L1208.67 1066.26 L1208.67 1066.63 L1208.67 1070.35 L1225.62 1075.17 L1242.57 1080.74 L1242.57 1079.63 L1259.40 1088.17 L1259.40 1098.56 L1276.36 1105.25 L1276.36 1106.98 L1276.36 1114.90 L1293.31 1112.67 L1293.31 1115.02 L1293.31 1115.27 L1293.31 1114.28 L1293.31 1104.38 L1293.31 1101.04 L1310.14 1104.63 L1310.14 1109.95 L1327.10 1113.66 L1360.88 1113.04 L1377.83 1113.54 L1377.83 1105.99 L1411.62 1106.48 L1411.62 1098.69 L1428.57 1101.66 L1428.57 1104.63 L1428.57 1105.12 L1428.57 1110.69 L1428.57 1110.81 L1445.40 1110.69 L1445.40 1115.02 L1445.40 1116.63 L1445.40 1118.98 L1462.35 1121.83 L1462.35 1128.64 L1462.35 1131.48 L1462.35 1130.49 L1479.31 1134.82 L1496.14 1138.91 L1496.14 1142.74 L1546.88 1145.22 L1597.61 1146.33 L1614.57 1147.82 L1631.40 1147.57 L1648.35 1142.00 L1648.35 1142.62 L1766.65 1145.09 L1766.65 1151.78 L1834.35 1143.73 L1834.35 1149.55 L1834.35 1154.50 L1868.13 1155.86 L1868.13 1161.31 L1885.08 1164.15 L1885.08 1169.97 L1952.65 1174.18 L1969.61 1165.39 L1969.61 1166.63 L1986.43 1154.50 L2020.34 1157.22 L2037.17 1154.87 L2121.69 1147.45 L2290.86 1159.45 L2307.69 1151.41 L2409.16 1156.60 L2442.95 1151.53 L2544.42 1155.98 L3372.93 1160.32 L3474.41 1166.50 L3711.14 1170.84 L3727.97 1152.89 L3744.92 1158.09" stroke-linejoin="round" style="fill:none;stroke:#000000;stroke-width:8.64"/>
	<line x1="350.71" y1="2414.69" x2="350.71" y2="235.38" style="stroke:#000000;stroke-width:5.76"/>
	<line x1="350.71" y1="2351.32" x2="310.74" y2="2351.32" style="stroke:#000000;stroke-width:5.76"/>
	<text x="266.64" y="2351.32" style="font-family:'Helvetica';font-size:79.94px;fill:#000000" transform="rotate(-90 266.64,2351.32)" text-anchor="middle">-10</text>
	<line x1="350.71" y1="1690.97" x2="310.74" y2="1690.97" style="stroke:#000000;stroke-width:5.76"/>
	<text x="266.64" y="1690.97" style="font-family:'Helvetica';font-size:79.94px;fill:#000000" transform="rotate(-90 266.64,1690.97)" text-anchor="middle">-5</text>
	<line x1="350.71" y1="1030.50" x2="310.74" y2="1030.50" style="stroke:#000000;stroke-width:5.76"/>
	<text x="266.64" y="1030.50" style="font-family:'Helvetica';font-size:79.94px;fill:#000000" transform="rotate(-90 266.64,1030.50)" text-anchor="middle">0</text>
	<line x1="350.71" y1="370.15" x2="310.74" y2="370.15" style="stroke:#000000;stroke-width:5.76"/>
	<text x="266.64" y="370.15" style="font-family:'Helvetica';font-size:79.94px;fill:#000000" transform="rotate(-90 266.64,370.15)" text-anchor="middle">5</text>
	<text x="176.68" y="1325.03" style="font-family:'Helvetica';font-size:79.94px;fill:#000000" transform="rotate(-90 176.68,1325.03)" text-anchor="middle">Scaled Schoenfeld Residuals</text>
	<line x1="350.71" y1="2414.69" x2="3859.02" y2="2414.69" style="stroke:#000000;stroke-width:5.76"/>
	<line x1="414.07" y1="2414.69" x2="414.07" y2="2454.66" style="stroke:#000000;stroke-width:5.76"/>
	<text x="414.07" y="2530.61" style="font-family:'Helvetica';font-size:79.94px;fill:#000000" text-anchor="middle">0</text>
	<line x1="1259.53" y1="2414.69" x2="1259.53" y2="2454.66" style="stroke:#000000;stroke-width:5.76"/>
	<text x="1259.53" y="2530.61" style="font-family:'Helvetica';font-size:79.94px;fill:#000000" text-anchor="middle">50</text>
	<line x1="2104.86" y1="2414.69" x2="2104.86" y2="2454.66" style="stroke:#000000;stroke-width:5.76"/>
	<text x="2104.86" y="2530.61" style="font-family:'Helvetica';font-size:79.94px;fill:#000000" text-anchor="middle">100</text>
	<line x1="2950.32" y1="2414.69" x2="2950.32" y2="2454.66" style="stroke:#000000;stroke-width:5.76"/>
	<text x="2950.32" y="2530.61" style="font-family:'Helvetica';font-size:79.94px;fill:#000000" text-anchor="middle">150</text>
	<line x1="3795.66" y1="2414.69" x2="3795.66" y2="2454.66" style="stroke:#000000;stroke-width:5.76"/>
	<text x="3795.66" y="2530.61" style="font-family:'Helvetica';font-size:79.94px;fill:#000000" text-anchor="middle">200</text>
	<text x="2104.86" y="2620.57" style="font-family:'Helvetica';font-size:79.94px;fill:#000000" text-anchor="middle">Time</text>
	<text x="368.03" y="2737.89" style="font-family:'Helvetica';font-size:79.94px;fill:#000000">bandwidth = .8</text>
	<text x="368.03" y="187.99" style="font-family:'Helvetica';font-size:99.99px;fill:#000000">Schoenfeld residuals against time, fully adjusted</text>
</svg>
