<?xml version="1.0" encoding="UTF-8" standalone="no"?>
<!-- This is a Stata 16.1 generated SVG file (http://www.stata.com) -->

<svg version="1.1" width="5.50in" height="4.00in" viewBox="0 0 3960 2880" xmlns="http://www.w3.org/2000/svg" xmlns:xlink="http://www.w3.org/1999/xlink">
	<desc>Stata Graph - Graph</desc>
	<rect x="0" y="0" width="3960" height="2880" style="fill:#FFFFFF;stroke:none"/>
	<rect x="0.00" y="0.00" width="3959.88" height="2880.00" style="fill:#FFFFFF"/>
	<rect x="2.88" y="2.88" width="3954.12" height="2874.24" style="fill:none;stroke:#FFFFFF;stroke-width:5.76"/>
	<rect x="353.59" y="238.26" width="3502.55" height="2173.55" style="fill:none;stroke:#000000;stroke-width:5.76"/>
	<circle cx="590.29" cy="933.48" r="14.97" style="fill:none;stroke:#606060;stroke-width:8.64"/>
	<circle cx="638.43" cy="2119.90" r="14.97" style="fill:none;stroke:#606060;stroke-width:8.64"/>
	<circle cx="654.39" cy="774.20" r="14.97" style="fill:none;stroke:#606060;stroke-width:8.64"/>
	<circle cx="670.48" cy="910.33" r="14.97" style="fill:none;stroke:#606060;stroke-width:8.64"/>
	<circle cx="686.44" cy="927.91" r="14.97" style="fill:none;stroke:#606060;stroke-width:8.64"/>
	<circle cx="686.44" cy="1170.96" r="14.97" style="fill:none;stroke:#606060;stroke-width:8.64"/>
	<circle cx="686.44" cy="932.73" r="14.97" style="fill:none;stroke:#606060;stroke-width:8.64"/>
	<circle cx="686.44" cy="926.55" r="14.97" style="fill:none;stroke:#606060;stroke-width:8.64"/>
	<circle cx="702.53" cy="869.25" r="14.97" style="fill:none;stroke:#606060;stroke-width:8.64"/>
	<circle cx="702.53" cy="999.68" r="14.97" style="fill:none;stroke:#606060;stroke-width:8.64"/>
	<circle cx="702.53" cy="960.21" r="14.97" style="fill:none;stroke:#606060;stroke-width:8.64"/>
	<circle cx="718.49" cy="916.64" r="14.97" style="fill:none;stroke:#606060;stroke-width:8.64"/>
	<circle cx="718.49" cy="859.10" r="14.97" style="fill:none;stroke:#606060;stroke-width:8.64"/>
	<circle cx="734.58" cy="990.28" r="14.97" style="fill:none;stroke:#606060;stroke-width:8.64"/>
	<circle cx="750.54" cy="1045.60" r="14.97" style="fill:none;stroke:#606060;stroke-width:8.64"/>
	<circle cx="750.54" cy="1890.34" r="14.97" style="fill:none;stroke:#606060;stroke-width:8.64"/>
	<circle cx="750.54" cy="1435.92" r="14.97" style="fill:none;stroke:#606060;stroke-width:8.64"/>
	<circle cx="750.54" cy="973.20" r="14.97" style="fill:none;stroke:#606060;stroke-width:8.64"/>
	<circle cx="750.54" cy="2096.14" r="14.97" style="fill:none;stroke:#606060;stroke-width:8.64"/>
	<circle cx="766.63" cy="844.25" r="14.97" style="fill:none;stroke:#606060;stroke-width:8.64"/>
	<circle cx="766.63" cy="1031.74" r="14.97" style="fill:none;stroke:#606060;stroke-width:8.64"/>
	<circle cx="766.63" cy="943.38" r="14.97" style="fill:none;stroke:#606060;stroke-width:8.64"/>
	<circle cx="766.63" cy="1466.11" r="14.97" style="fill:none;stroke:#606060;stroke-width:8.64"/>
	<circle cx="782.60" cy="1002.78" r="14.97" style="fill:none;stroke:#606060;stroke-width:8.64"/>
	<circle cx="782.60" cy="2104.43" r="14.97" style="fill:none;stroke:#606060;stroke-width:8.64"/>
	<circle cx="798.68" cy="1051.17" r="14.97" style="fill:none;stroke:#606060;stroke-width:8.64"/>
	<circle cx="798.68" cy="1209.45" r="14.97" style="fill:none;stroke:#606060;stroke-width:8.64"/>
	<circle cx="798.68" cy="873.33" r="14.97" style="fill:none;stroke:#606060;stroke-width:8.64"/>
	<circle cx="798.68" cy="867.89" r="14.97" style="fill:none;stroke:#606060;stroke-width:8.64"/>
	<circle cx="798.68" cy="935.08" r="14.97" style="fill:none;stroke:#606060;stroke-width:8.64"/>
	<circle cx="798.68" cy="2057.66" r="14.97" style="fill:none;stroke:#606060;stroke-width:8.64"/>
	<circle cx="814.65" cy="946.96" r="14.97" style="fill:none;stroke:#606060;stroke-width:8.64"/>
	<circle cx="814.65" cy="859.22" r="14.97" style="fill:none;stroke:#606060;stroke-width:8.64"/>
	<circle cx="814.65" cy="1008.10" r="14.97" style="fill:none;stroke:#606060;stroke-width:8.64"/>
	<circle cx="814.65" cy="2082.78" r="14.97" style="fill:none;stroke:#606060;stroke-width:8.64"/>
	<circle cx="814.65" cy="1951.85" r="14.97" style="fill:none;stroke:#606060;stroke-width:8.64"/>
	<circle cx="814.65" cy="1171.08" r="14.97" style="fill:none;stroke:#606060;stroke-width:8.64"/>
	<circle cx="830.73" cy="874.57" r="14.97" style="fill:none;stroke:#606060;stroke-width:8.64"/>
	<circle cx="830.73" cy="983.47" r="14.97" style="fill:none;stroke:#606060;stroke-width:8.64"/>
	<circle cx="830.73" cy="1054.26" r="14.97" style="fill:none;stroke:#606060;stroke-width:8.64"/>
	<circle cx="846.70" cy="2100.72" r="14.97" style="fill:none;stroke:#606060;stroke-width:8.64"/>
	<circle cx="846.70" cy="938.80" r="14.97" style="fill:none;stroke:#606060;stroke-width:8.64"/>
	<circle cx="846.70" cy="979.14" r="14.97" style="fill:none;stroke:#606060;stroke-width:8.64"/>
	<circle cx="862.78" cy="1628.85" r="14.97" style="fill:none;stroke:#606060;stroke-width:8.64"/>
	<circle cx="862.78" cy="833.23" r="14.97" style="fill:none;stroke:#606060;stroke-width:8.64"/>
	<circle cx="862.78" cy="944.49" r="14.97" style="fill:none;stroke:#606060;stroke-width:8.64"/>
	<circle cx="862.78" cy="2011.00" r="14.97" style="fill:none;stroke:#606060;stroke-width:8.64"/>
	<circle cx="878.75" cy="838.93" r="14.97" style="fill:none;stroke:#606060;stroke-width:8.64"/>
	<circle cx="878.75" cy="1677.11" r="14.97" style="fill:none;stroke:#606060;stroke-width:8.64"/>
	<circle cx="878.75" cy="908.60" r="14.97" style="fill:none;stroke:#606060;stroke-width:8.64"/>
	<circle cx="878.75" cy="1850.24" r="14.97" style="fill:none;stroke:#606060;stroke-width:8.64"/>
	<circle cx="894.84" cy="993.50" r="14.97" style="fill:none;stroke:#606060;stroke-width:8.64"/>
	<circle cx="894.84" cy="1601.75" r="14.97" style="fill:none;stroke:#606060;stroke-width:8.64"/>
	<circle cx="894.84" cy="1054.14" r="14.97" style="fill:none;stroke:#606060;stroke-width:8.64"/>
	<circle cx="894.84" cy="830.02" r="14.97" style="fill:none;stroke:#606060;stroke-width:8.64"/>
	<circle cx="894.84" cy="1073.32" r="14.97" style="fill:none;stroke:#606060;stroke-width:8.64"/>
	<circle cx="894.84" cy="1123.81" r="14.97" style="fill:none;stroke:#606060;stroke-width:8.64"/>
	<circle cx="894.84" cy="898.45" r="14.97" style="fill:none;stroke:#606060;stroke-width:8.64"/>
	<circle cx="894.84" cy="759.72" r="14.97" style="fill:none;stroke:#606060;stroke-width:8.64"/>
	<circle cx="894.84" cy="1114.40" r="14.97" style="fill:none;stroke:#606060;stroke-width:8.64"/>
	<circle cx="910.80" cy="944.74" r="14.97" style="fill:none;stroke:#606060;stroke-width:8.64"/>
	<circle cx="910.80" cy="1908.28" r="14.97" style="fill:none;stroke:#606060;stroke-width:8.64"/>
	<circle cx="910.80" cy="996.22" r="14.97" style="fill:none;stroke:#606060;stroke-width:8.64"/>
	<circle cx="910.80" cy="894.86" r="14.97" style="fill:none;stroke:#606060;stroke-width:8.64"/>
	<circle cx="910.80" cy="898.70" r="14.97" style="fill:none;stroke:#606060;stroke-width:8.64"/>
	<circle cx="910.80" cy="1096.58" r="14.97" style="fill:none;stroke:#606060;stroke-width:8.64"/>
	<circle cx="910.80" cy="2099.24" r="14.97" style="fill:none;stroke:#606060;stroke-width:8.64"/>
	<circle cx="910.80" cy="1033.10" r="14.97" style="fill:none;stroke:#606060;stroke-width:8.64"/>
	<circle cx="910.80" cy="2083.15" r="14.97" style="fill:none;stroke:#606060;stroke-width:8.64"/>
	<circle cx="910.80" cy="1960.01" r="14.97" style="fill:none;stroke:#606060;stroke-width:8.64"/>
	<circle cx="926.89" cy="906.00" r="14.97" style="fill:none;stroke:#606060;stroke-width:8.64"/>
	<circle cx="926.89" cy="961.07" r="14.97" style="fill:none;stroke:#606060;stroke-width:8.64"/>
	<circle cx="926.89" cy="1463.14" r="14.97" style="fill:none;stroke:#606060;stroke-width:8.64"/>
	<circle cx="926.89" cy="1006.49" r="14.97" style="fill:none;stroke:#606060;stroke-width:8.64"/>
	<circle cx="926.89" cy="990.90" r="14.97" style="fill:none;stroke:#606060;stroke-width:8.64"/>
	<circle cx="926.89" cy="753.78" r="14.97" style="fill:none;stroke:#606060;stroke-width:8.64"/>
	<circle cx="942.98" cy="1038.17" r="14.97" style="fill:none;stroke:#606060;stroke-width:8.64"/>
	<circle cx="942.98" cy="1120.22" r="14.97" style="fill:none;stroke:#606060;stroke-width:8.64"/>
	<circle cx="942.98" cy="935.70" r="14.97" style="fill:none;stroke:#606060;stroke-width:8.64"/>
	<circle cx="942.98" cy="1580.58" r="14.97" style="fill:none;stroke:#606060;stroke-width:8.64"/>
	<circle cx="942.98" cy="2106.17" r="14.97" style="fill:none;stroke:#606060;stroke-width:8.64"/>
	<circle cx="942.98" cy="1940.58" r="14.97" style="fill:none;stroke:#606060;stroke-width:8.64"/>
	<circle cx="942.98" cy="1037.30" r="14.97" style="fill:none;stroke:#606060;stroke-width:8.64"/>
	<circle cx="942.98" cy="968.75" r="14.97" style="fill:none;stroke:#606060;stroke-width:8.64"/>
	<circle cx="942.98" cy="973.57" r="14.97" style="fill:none;stroke:#606060;stroke-width:8.64"/>
	<circle cx="942.98" cy="1631.94" r="14.97" style="fill:none;stroke:#606060;stroke-width:8.64"/>
	<circle cx="958.94" cy="1962.98" r="14.97" style="fill:none;stroke:#606060;stroke-width:8.64"/>
	<circle cx="958.94" cy="1696.67" r="14.97" style="fill:none;stroke:#606060;stroke-width:8.64"/>
	<circle cx="958.94" cy="996.09" r="14.97" style="fill:none;stroke:#606060;stroke-width:8.64"/>
	<circle cx="975.03" cy="921.47" r="14.97" style="fill:none;stroke:#606060;stroke-width:8.64"/>
	<circle cx="975.03" cy="1839.48" r="14.97" style="fill:none;stroke:#606060;stroke-width:8.64"/>
	<circle cx="975.03" cy="1021.59" r="14.97" style="fill:none;stroke:#606060;stroke-width:8.64"/>
	<circle cx="990.99" cy="2082.04" r="14.97" style="fill:none;stroke:#606060;stroke-width:8.64"/>
	<circle cx="990.99" cy="1095.84" r="14.97" style="fill:none;stroke:#606060;stroke-width:8.64"/>
	<circle cx="990.99" cy="2024.74" r="14.97" style="fill:none;stroke:#606060;stroke-width:8.64"/>
	<circle cx="990.99" cy="936.07" r="14.97" style="fill:none;stroke:#606060;stroke-width:8.64"/>
	<circle cx="990.99" cy="1667.46" r="14.97" style="fill:none;stroke:#606060;stroke-width:8.64"/>
	<circle cx="990.99" cy="1070.59" r="14.97" style="fill:none;stroke:#606060;stroke-width:8.64"/>
	<circle cx="990.99" cy="960.95" r="14.97" style="fill:none;stroke:#606060;stroke-width:8.64"/>
	<circle cx="990.99" cy="924.07" r="14.97" style="fill:none;stroke:#606060;stroke-width:8.64"/>
	<circle cx="1007.08" cy="975.18" r="14.97" style="fill:none;stroke:#606060;stroke-width:8.64"/>
	<circle cx="1007.08" cy="948.94" r="14.97" style="fill:none;stroke:#606060;stroke-width:8.64"/>
	<circle cx="1007.08" cy="602.43" r="14.97" style="fill:none;stroke:#606060;stroke-width:8.64"/>
	<circle cx="1007.08" cy="899.32" r="14.97" style="fill:none;stroke:#606060;stroke-width:8.64"/>
	<circle cx="1023.04" cy="1765.47" r="14.97" style="fill:none;stroke:#606060;stroke-width:8.64"/>
	<circle cx="1023.04" cy="987.18" r="14.97" style="fill:none;stroke:#606060;stroke-width:8.64"/>
	<circle cx="1023.04" cy="937.44" r="14.97" style="fill:none;stroke:#606060;stroke-width:8.64"/>
	<circle cx="1023.04" cy="1012.80" r="14.97" style="fill:none;stroke:#606060;stroke-width:8.64"/>
	<circle cx="1023.04" cy="711.46" r="14.97" style="fill:none;stroke:#606060;stroke-width:8.64"/>
	<circle cx="1023.04" cy="1053.76" r="14.97" style="fill:none;stroke:#606060;stroke-width:8.64"/>
	<circle cx="1039.13" cy="880.39" r="14.97" style="fill:none;stroke:#606060;stroke-width:8.64"/>
	<circle cx="1039.13" cy="933.60" r="14.97" style="fill:none;stroke:#606060;stroke-width:8.64"/>
	<circle cx="1039.13" cy="1744.19" r="14.97" style="fill:none;stroke:#606060;stroke-width:8.64"/>
	<circle cx="1039.13" cy="1017.75" r="14.97" style="fill:none;stroke:#606060;stroke-width:8.64"/>
	<circle cx="1039.13" cy="833.23" r="14.97" style="fill:none;stroke:#606060;stroke-width:8.64"/>
	<circle cx="1039.13" cy="899.32" r="14.97" style="fill:none;stroke:#606060;stroke-width:8.64"/>
	<circle cx="1039.13" cy="1760.77" r="14.97" style="fill:none;stroke:#606060;stroke-width:8.64"/>
	<circle cx="1039.13" cy="2029.07" r="14.97" style="fill:none;stroke:#606060;stroke-width:8.64"/>
	<circle cx="1055.09" cy="970.73" r="14.97" style="fill:none;stroke:#606060;stroke-width:8.64"/>
	<circle cx="1055.09" cy="716.91" r="14.97" style="fill:none;stroke:#606060;stroke-width:8.64"/>
	<circle cx="1055.09" cy="1051.41" r="14.97" style="fill:none;stroke:#606060;stroke-width:8.64"/>
	<circle cx="1055.09" cy="989.41" r="14.97" style="fill:none;stroke:#606060;stroke-width:8.64"/>
	<circle cx="1055.09" cy="998.45" r="14.97" style="fill:none;stroke:#606060;stroke-width:8.64"/>
	<circle cx="1071.18" cy="888.92" r="14.97" style="fill:none;stroke:#606060;stroke-width:8.64"/>
	<circle cx="1071.18" cy="2000.36" r="14.97" style="fill:none;stroke:#606060;stroke-width:8.64"/>
	<circle cx="1071.18" cy="996.71" r="14.97" style="fill:none;stroke:#606060;stroke-width:8.64"/>
	<circle cx="1087.14" cy="1130.12" r="14.97" style="fill:none;stroke:#606060;stroke-width:8.64"/>
	<circle cx="1087.14" cy="969.86" r="14.97" style="fill:none;stroke:#606060;stroke-width:8.64"/>
	<circle cx="1087.14" cy="994.61" r="14.97" style="fill:none;stroke:#606060;stroke-width:8.64"/>
	<circle cx="1087.14" cy="2004.07" r="14.97" style="fill:none;stroke:#606060;stroke-width:8.64"/>
	<circle cx="1103.23" cy="1891.45" r="14.97" style="fill:none;stroke:#606060;stroke-width:8.64"/>
	<circle cx="1103.23" cy="1051.91" r="14.97" style="fill:none;stroke:#606060;stroke-width:8.64"/>
	<circle cx="1103.23" cy="2051.10" r="14.97" style="fill:none;stroke:#606060;stroke-width:8.64"/>
	<circle cx="1103.23" cy="1550.64" r="14.97" style="fill:none;stroke:#606060;stroke-width:8.64"/>
	<circle cx="1103.23" cy="618.15" r="14.97" style="fill:none;stroke:#606060;stroke-width:8.64"/>
	<circle cx="1119.19" cy="983.35" r="14.97" style="fill:none;stroke:#606060;stroke-width:8.64"/>
	<circle cx="1119.19" cy="846.35" r="14.97" style="fill:none;stroke:#606060;stroke-width:8.64"/>
	<circle cx="1135.28" cy="2148.12" r="14.97" style="fill:none;stroke:#606060;stroke-width:8.64"/>
	<circle cx="1135.28" cy="1074.31" r="14.97" style="fill:none;stroke:#606060;stroke-width:8.64"/>
	<circle cx="1135.28" cy="840.66" r="14.97" style="fill:none;stroke:#606060;stroke-width:8.64"/>
	<circle cx="1135.28" cy="695.50" r="14.97" style="fill:none;stroke:#606060;stroke-width:8.64"/>
	<circle cx="1135.28" cy="1557.44" r="14.97" style="fill:none;stroke:#606060;stroke-width:8.64"/>
	<circle cx="1151.25" cy="847.10" r="14.97" style="fill:none;stroke:#606060;stroke-width:8.64"/>
	<circle cx="1151.25" cy="2260.98" r="14.97" style="fill:none;stroke:#606060;stroke-width:8.64"/>
	<circle cx="1151.25" cy="926.30" r="14.97" style="fill:none;stroke:#606060;stroke-width:8.64"/>
	<circle cx="1151.25" cy="1912.37" r="14.97" style="fill:none;stroke:#606060;stroke-width:8.64"/>
	<circle cx="1151.25" cy="1068.24" r="14.97" style="fill:none;stroke:#606060;stroke-width:8.64"/>
	<circle cx="1151.25" cy="859.72" r="14.97" style="fill:none;stroke:#606060;stroke-width:8.64"/>
	<circle cx="1167.33" cy="1067.38" r="14.97" style="fill:none;stroke:#606060;stroke-width:8.64"/>
	<circle cx="1167.33" cy="1924.74" r="14.97" style="fill:none;stroke:#606060;stroke-width:8.64"/>
	<circle cx="1167.33" cy="1095.10" r="14.97" style="fill:none;stroke:#606060;stroke-width:8.64"/>
	<circle cx="1167.33" cy="1559.17" r="14.97" style="fill:none;stroke:#606060;stroke-width:8.64"/>
	<circle cx="1167.33" cy="918.75" r="14.97" style="fill:none;stroke:#606060;stroke-width:8.64"/>
	<circle cx="1167.33" cy="2110.75" r="14.97" style="fill:none;stroke:#606060;stroke-width:8.64"/>
	<circle cx="1167.33" cy="772.22" r="14.97" style="fill:none;stroke:#606060;stroke-width:8.64"/>
	<circle cx="1183.30" cy="1963.36" r="14.97" style="fill:none;stroke:#606060;stroke-width:8.64"/>
	<circle cx="1183.30" cy="1865.47" r="14.97" style="fill:none;stroke:#606060;stroke-width:8.64"/>
	<circle cx="1183.30" cy="1035.70" r="14.97" style="fill:none;stroke:#606060;stroke-width:8.64"/>
	<circle cx="1183.30" cy="483.26" r="14.97" style="fill:none;stroke:#606060;stroke-width:8.64"/>
	<circle cx="1199.38" cy="2017.93" r="14.97" style="fill:none;stroke:#606060;stroke-width:8.64"/>
	<circle cx="1199.38" cy="1574.15" r="14.97" style="fill:none;stroke:#606060;stroke-width:8.64"/>
	<circle cx="1199.38" cy="833.73" r="14.97" style="fill:none;stroke:#606060;stroke-width:8.64"/>
	<circle cx="1215.35" cy="993.87" r="14.97" style="fill:none;stroke:#606060;stroke-width:8.64"/>
	<circle cx="1215.35" cy="968.50" r="14.97" style="fill:none;stroke:#606060;stroke-width:8.64"/>
	<circle cx="1215.35" cy="1002.16" r="14.97" style="fill:none;stroke:#606060;stroke-width:8.64"/>
	<circle cx="1215.35" cy="856.13" r="14.97" style="fill:none;stroke:#606060;stroke-width:8.64"/>
	<circle cx="1231.44" cy="1856.18" r="14.97" style="fill:none;stroke:#606060;stroke-width:8.64"/>
	<circle cx="1231.44" cy="812.44" r="14.97" style="fill:none;stroke:#606060;stroke-width:8.64"/>
	<circle cx="1231.44" cy="1886.13" r="14.97" style="fill:none;stroke:#606060;stroke-width:8.64"/>
	<circle cx="1231.44" cy="892.51" r="14.97" style="fill:none;stroke:#606060;stroke-width:8.64"/>
	<circle cx="1247.40" cy="888.06" r="14.97" style="fill:none;stroke:#606060;stroke-width:8.64"/>
	<circle cx="1247.40" cy="1944.54" r="14.97" style="fill:none;stroke:#606060;stroke-width:8.64"/>
	<circle cx="1247.40" cy="696.12" r="14.97" style="fill:none;stroke:#606060;stroke-width:8.64"/>
	<circle cx="1247.40" cy="636.59" r="14.97" style="fill:none;stroke:#606060;stroke-width:8.64"/>
	<circle cx="1263.49" cy="1647.04" r="14.97" style="fill:none;stroke:#606060;stroke-width:8.64"/>
	<circle cx="1263.49" cy="1012.93" r="14.97" style="fill:none;stroke:#606060;stroke-width:8.64"/>
	<circle cx="1279.45" cy="730.89" r="14.97" style="fill:none;stroke:#606060;stroke-width:8.64"/>
	<circle cx="1279.45" cy="1976.23" r="14.97" style="fill:none;stroke:#606060;stroke-width:8.64"/>
	<circle cx="1279.45" cy="1006.12" r="14.97" style="fill:none;stroke:#606060;stroke-width:8.64"/>
	<circle cx="1279.45" cy="851.43" r="14.97" style="fill:none;stroke:#606060;stroke-width:8.64"/>
	<circle cx="1279.45" cy="925.93" r="14.97" style="fill:none;stroke:#606060;stroke-width:8.64"/>
	<circle cx="1295.54" cy="867.27" r="14.97" style="fill:none;stroke:#606060;stroke-width:8.64"/>
	<circle cx="1311.50" cy="1022.95" r="14.97" style="fill:none;stroke:#606060;stroke-width:8.64"/>
	<circle cx="1311.50" cy="789.18" r="14.97" style="fill:none;stroke:#606060;stroke-width:8.64"/>
	<circle cx="1311.50" cy="982.48" r="14.97" style="fill:none;stroke:#606060;stroke-width:8.64"/>
	<circle cx="1327.59" cy="552.81" r="14.97" style="fill:none;stroke:#606060;stroke-width:8.64"/>
	<circle cx="1327.59" cy="901.79" r="14.97" style="fill:none;stroke:#606060;stroke-width:8.64"/>
	<circle cx="1327.59" cy="954.14" r="14.97" style="fill:none;stroke:#606060;stroke-width:8.64"/>
	<circle cx="1327.59" cy="1896.28" r="14.97" style="fill:none;stroke:#606060;stroke-width:8.64"/>
	<circle cx="1327.59" cy="2082.28" r="14.97" style="fill:none;stroke:#606060;stroke-width:8.64"/>
	<circle cx="1327.59" cy="852.79" r="14.97" style="fill:none;stroke:#606060;stroke-width:8.64"/>
	<circle cx="1343.55" cy="2056.54" r="14.97" style="fill:none;stroke:#606060;stroke-width:8.64"/>
	<circle cx="1343.55" cy="944.37" r="14.97" style="fill:none;stroke:#606060;stroke-width:8.64"/>
	<circle cx="1343.55" cy="1971.89" r="14.97" style="fill:none;stroke:#606060;stroke-width:8.64"/>
	<circle cx="1343.55" cy="788.06" r="14.97" style="fill:none;stroke:#606060;stroke-width:8.64"/>
	<circle cx="1343.55" cy="709.36" r="14.97" style="fill:none;stroke:#606060;stroke-width:8.64"/>
	<circle cx="1343.55" cy="1891.95" r="14.97" style="fill:none;stroke:#606060;stroke-width:8.64"/>
	<circle cx="1343.55" cy="1004.51" r="14.97" style="fill:none;stroke:#606060;stroke-width:8.64"/>
	<circle cx="1359.64" cy="1020.85" r="14.97" style="fill:none;stroke:#606060;stroke-width:8.64"/>
	<circle cx="1359.64" cy="730.27" r="14.97" style="fill:none;stroke:#606060;stroke-width:8.64"/>
	<circle cx="1359.64" cy="769.13" r="14.97" style="fill:none;stroke:#606060;stroke-width:8.64"/>
	<circle cx="1359.64" cy="1702.61" r="14.97" style="fill:none;stroke:#606060;stroke-width:8.64"/>
	<circle cx="1375.61" cy="914.79" r="14.97" style="fill:none;stroke:#606060;stroke-width:8.64"/>
	<circle cx="1375.61" cy="909.47" r="14.97" style="fill:none;stroke:#606060;stroke-width:8.64"/>
	<circle cx="1391.69" cy="987.93" r="14.97" style="fill:none;stroke:#606060;stroke-width:8.64"/>
	<circle cx="1391.69" cy="896.23" r="14.97" style="fill:none;stroke:#606060;stroke-width:8.64"/>
	<circle cx="1391.69" cy="952.53" r="14.97" style="fill:none;stroke:#606060;stroke-width:8.64"/>
	<circle cx="1391.69" cy="800.07" r="14.97" style="fill:none;stroke:#606060;stroke-width:8.64"/>
	<circle cx="1391.69" cy="809.35" r="14.97" style="fill:none;stroke:#606060;stroke-width:8.64"/>
	<circle cx="1391.69" cy="816.53" r="14.97" style="fill:none;stroke:#606060;stroke-width:8.64"/>
	<circle cx="1407.66" cy="943.62" r="14.97" style="fill:none;stroke:#606060;stroke-width:8.64"/>
	<circle cx="1407.66" cy="791.65" r="14.97" style="fill:none;stroke:#606060;stroke-width:8.64"/>
	<circle cx="1407.66" cy="975.68" r="14.97" style="fill:none;stroke:#606060;stroke-width:8.64"/>
	<circle cx="1423.74" cy="926.79" r="14.97" style="fill:none;stroke:#606060;stroke-width:8.64"/>
	<circle cx="1423.74" cy="2085.01" r="14.97" style="fill:none;stroke:#606060;stroke-width:8.64"/>
	<circle cx="1455.80" cy="1539.00" r="14.97" style="fill:none;stroke:#606060;stroke-width:8.64"/>
	<circle cx="1455.80" cy="1004.26" r="14.97" style="fill:none;stroke:#606060;stroke-width:8.64"/>
	<circle cx="1455.80" cy="1005.13" r="14.97" style="fill:none;stroke:#606060;stroke-width:8.64"/>
	<circle cx="1471.76" cy="2150.72" r="14.97" style="fill:none;stroke:#606060;stroke-width:8.64"/>
	<circle cx="1471.76" cy="2100.60" r="14.97" style="fill:none;stroke:#606060;stroke-width:8.64"/>
	<circle cx="1471.76" cy="901.42" r="14.97" style="fill:none;stroke:#606060;stroke-width:8.64"/>
	<circle cx="1487.85" cy="1104.01" r="14.97" style="fill:none;stroke:#606060;stroke-width:8.64"/>
	<circle cx="1487.85" cy="1959.27" r="14.97" style="fill:none;stroke:#606060;stroke-width:8.64"/>
	<circle cx="1503.81" cy="1013.54" r="14.97" style="fill:none;stroke:#606060;stroke-width:8.64"/>
	<circle cx="1503.81" cy="957.98" r="14.97" style="fill:none;stroke:#606060;stroke-width:8.64"/>
	<circle cx="1519.90" cy="1719.68" r="14.97" style="fill:none;stroke:#606060;stroke-width:8.64"/>
	<circle cx="1519.90" cy="721.98" r="14.97" style="fill:none;stroke:#606060;stroke-width:8.64"/>
	<circle cx="1519.90" cy="1543.83" r="14.97" style="fill:none;stroke:#606060;stroke-width:8.64"/>
	<circle cx="1519.90" cy="1042.75" r="14.97" style="fill:none;stroke:#606060;stroke-width:8.64"/>
	<circle cx="1535.86" cy="983.47" r="14.97" style="fill:none;stroke:#606060;stroke-width:8.64"/>
	<circle cx="1551.95" cy="836.33" r="14.97" style="fill:none;stroke:#606060;stroke-width:8.64"/>
	<circle cx="1551.95" cy="1435.30" r="14.97" style="fill:none;stroke:#606060;stroke-width:8.64"/>
	<circle cx="1567.91" cy="996.47" r="14.97" style="fill:none;stroke:#606060;stroke-width:8.64"/>
	<circle cx="1567.91" cy="858.73" r="14.97" style="fill:none;stroke:#606060;stroke-width:8.64"/>
	<circle cx="1567.91" cy="1747.40" r="14.97" style="fill:none;stroke:#606060;stroke-width:8.64"/>
	<circle cx="1567.91" cy="579.04" r="14.97" style="fill:none;stroke:#606060;stroke-width:8.64"/>
	<circle cx="1584.00" cy="906.37" r="14.97" style="fill:none;stroke:#606060;stroke-width:8.64"/>
	<circle cx="1584.00" cy="844.00" r="14.97" style="fill:none;stroke:#606060;stroke-width:8.64"/>
	<circle cx="1616.05" cy="1895.17" r="14.97" style="fill:none;stroke:#606060;stroke-width:8.64"/>
	<circle cx="1616.05" cy="998.45" r="14.97" style="fill:none;stroke:#606060;stroke-width:8.64"/>
	<circle cx="1648.10" cy="985.45" r="14.97" style="fill:none;stroke:#606060;stroke-width:8.64"/>
	<circle cx="1664.07" cy="1314.51" r="14.97" style="fill:none;stroke:#606060;stroke-width:8.64"/>
	<circle cx="1664.07" cy="416.93" r="14.97" style="fill:none;stroke:#606060;stroke-width:8.64"/>
	<circle cx="1664.07" cy="874.44" r="14.97" style="fill:none;stroke:#606060;stroke-width:8.64"/>
	<circle cx="1680.15" cy="1116.01" r="14.97" style="fill:none;stroke:#606060;stroke-width:8.64"/>
	<circle cx="1680.15" cy="1961.62" r="14.97" style="fill:none;stroke:#606060;stroke-width:8.64"/>
	<circle cx="1680.15" cy="1004.51" r="14.97" style="fill:none;stroke:#606060;stroke-width:8.64"/>
	<circle cx="1696.12" cy="1064.16" r="14.97" style="fill:none;stroke:#606060;stroke-width:8.64"/>
	<circle cx="1712.20" cy="2024.49" r="14.97" style="fill:none;stroke:#606060;stroke-width:8.64"/>
	<circle cx="1712.20" cy="957.73" r="14.97" style="fill:none;stroke:#606060;stroke-width:8.64"/>
	<circle cx="1712.20" cy="1065.64" r="14.97" style="fill:none;stroke:#606060;stroke-width:8.64"/>
	<circle cx="1712.20" cy="759.35" r="14.97" style="fill:none;stroke:#606060;stroke-width:8.64"/>
	<circle cx="1728.17" cy="936.69" r="14.97" style="fill:none;stroke:#606060;stroke-width:8.64"/>
	<circle cx="1728.17" cy="1594.44" r="14.97" style="fill:none;stroke:#606060;stroke-width:8.64"/>
	<circle cx="1744.26" cy="1960.01" r="14.97" style="fill:none;stroke:#606060;stroke-width:8.64"/>
	<circle cx="1760.22" cy="2063.72" r="14.97" style="fill:none;stroke:#606060;stroke-width:8.64"/>
	<circle cx="1760.22" cy="966.52" r="14.97" style="fill:none;stroke:#606060;stroke-width:8.64"/>
	<circle cx="1776.31" cy="1001.17" r="14.97" style="fill:none;stroke:#606060;stroke-width:8.64"/>
	<circle cx="1792.27" cy="955.01" r="14.97" style="fill:none;stroke:#606060;stroke-width:8.64"/>
	<circle cx="1792.27" cy="1966.57" r="14.97" style="fill:none;stroke:#606060;stroke-width:8.64"/>
	<circle cx="1808.36" cy="2092.55" r="14.97" style="fill:none;stroke:#606060;stroke-width:8.64"/>
	<circle cx="1808.36" cy="842.76" r="14.97" style="fill:none;stroke:#606060;stroke-width:8.64"/>
	<circle cx="1824.32" cy="794.99" r="14.97" style="fill:none;stroke:#606060;stroke-width:8.64"/>
	<circle cx="1824.32" cy="848.58" r="14.97" style="fill:none;stroke:#606060;stroke-width:8.64"/>
	<circle cx="1840.41" cy="704.53" r="14.97" style="fill:none;stroke:#606060;stroke-width:8.64"/>
	<circle cx="1840.41" cy="874.07" r="14.97" style="fill:none;stroke:#606060;stroke-width:8.64"/>
	<circle cx="1840.41" cy="912.31" r="14.97" style="fill:none;stroke:#606060;stroke-width:8.64"/>
	<circle cx="1904.51" cy="915.65" r="14.97" style="fill:none;stroke:#606060;stroke-width:8.64"/>
	<circle cx="1904.51" cy="2096.27" r="14.97" style="fill:none;stroke:#606060;stroke-width:8.64"/>
	<circle cx="1904.51" cy="1657.81" r="14.97" style="fill:none;stroke:#606060;stroke-width:8.64"/>
	<circle cx="1920.60" cy="988.42" r="14.97" style="fill:none;stroke:#606060;stroke-width:8.64"/>
	<circle cx="1920.60" cy="1031.24" r="14.97" style="fill:none;stroke:#606060;stroke-width:8.64"/>
	<circle cx="1936.56" cy="641.29" r="14.97" style="fill:none;stroke:#606060;stroke-width:8.64"/>
	<circle cx="1968.62" cy="926.55" r="14.97" style="fill:none;stroke:#606060;stroke-width:8.64"/>
	<circle cx="1984.70" cy="1902.84" r="14.97" style="fill:none;stroke:#606060;stroke-width:8.64"/>
	<circle cx="2016.75" cy="903.90" r="14.97" style="fill:none;stroke:#606060;stroke-width:8.64"/>
	<circle cx="2032.72" cy="2166.06" r="14.97" style="fill:none;stroke:#606060;stroke-width:8.64"/>
	<circle cx="2048.80" cy="854.64" r="14.97" style="fill:none;stroke:#606060;stroke-width:8.64"/>
	<circle cx="2064.77" cy="956.62" r="14.97" style="fill:none;stroke:#606060;stroke-width:8.64"/>
	<circle cx="2080.86" cy="999.06" r="14.97" style="fill:none;stroke:#606060;stroke-width:8.64"/>
	<circle cx="2080.86" cy="1380.60" r="14.97" style="fill:none;stroke:#606060;stroke-width:8.64"/>
	<circle cx="2128.87" cy="949.07" r="14.97" style="fill:none;stroke:#606060;stroke-width:8.64"/>
	<circle cx="2128.87" cy="2111.86" r="14.97" style="fill:none;stroke:#606060;stroke-width:8.64"/>
	<circle cx="2144.96" cy="1011.94" r="14.97" style="fill:none;stroke:#606060;stroke-width:8.64"/>
	<circle cx="2160.92" cy="977.41" r="14.97" style="fill:none;stroke:#606060;stroke-width:8.64"/>
	<circle cx="2160.92" cy="1916.58" r="14.97" style="fill:none;stroke:#606060;stroke-width:8.64"/>
	<circle cx="2177.01" cy="962.56" r="14.97" style="fill:none;stroke:#606060;stroke-width:8.64"/>
	<circle cx="2177.01" cy="1274.79" r="14.97" style="fill:none;stroke:#606060;stroke-width:8.64"/>
	<circle cx="2192.97" cy="2096.02" r="14.97" style="fill:none;stroke:#606060;stroke-width:8.64"/>
	<circle cx="2192.97" cy="1115.52" r="14.97" style="fill:none;stroke:#606060;stroke-width:8.64"/>
	<circle cx="2225.03" cy="948.20" r="14.97" style="fill:none;stroke:#606060;stroke-width:8.64"/>
	<circle cx="2241.11" cy="771.73" r="14.97" style="fill:none;stroke:#606060;stroke-width:8.64"/>
	<circle cx="2305.22" cy="1893.68" r="14.97" style="fill:none;stroke:#606060;stroke-width:8.64"/>
	<circle cx="2337.27" cy="1841.71" r="14.97" style="fill:none;stroke:#606060;stroke-width:8.64"/>
	<circle cx="2353.23" cy="912.81" r="14.97" style="fill:none;stroke:#606060;stroke-width:8.64"/>
	<circle cx="2401.37" cy="980.50" r="14.97" style="fill:none;stroke:#606060;stroke-width:8.64"/>
	<circle cx="2449.38" cy="902.66" r="14.97" style="fill:none;stroke:#606060;stroke-width:8.64"/>
	<circle cx="2481.43" cy="833.36" r="14.97" style="fill:none;stroke:#606060;stroke-width:8.64"/>
	<circle cx="2641.69" cy="810.71" r="14.97" style="fill:none;stroke:#606060;stroke-width:8.64"/>
	<circle cx="2689.83" cy="1074.43" r="14.97" style="fill:none;stroke:#606060;stroke-width:8.64"/>
	<circle cx="2753.93" cy="813.56" r="14.97" style="fill:none;stroke:#606060;stroke-width:8.64"/>
	<circle cx="2818.03" cy="2060.25" r="14.97" style="fill:none;stroke:#606060;stroke-width:8.64"/>
	<circle cx="2930.28" cy="1010.70" r="14.97" style="fill:none;stroke:#606060;stroke-width:8.64"/>
	<circle cx="2962.33" cy="994.36" r="14.97" style="fill:none;stroke:#606060;stroke-width:8.64"/>
	<circle cx="2994.38" cy="980.50" r="14.97" style="fill:none;stroke:#606060;stroke-width:8.64"/>
	<circle cx="3010.34" cy="1559.17" r="14.97" style="fill:none;stroke:#606060;stroke-width:8.64"/>
	<circle cx="3154.64" cy="692.53" r="14.97" style="fill:none;stroke:#606060;stroke-width:8.64"/>
	<circle cx="3186.69" cy="1138.04" r="14.97" style="fill:none;stroke:#606060;stroke-width:8.64"/>
	<circle cx="3218.74" cy="835.71" r="14.97" style="fill:none;stroke:#606060;stroke-width:8.64"/>
	<circle cx="3250.79" cy="942.14" r="14.97" style="fill:none;stroke:#606060;stroke-width:8.64"/>
	<circle cx="3266.75" cy="298.74" r="14.97" style="fill:none;stroke:#606060;stroke-width:8.64"/>
	<circle cx="3330.86" cy="876.80" r="14.97" style="fill:none;stroke:#606060;stroke-width:8.64"/>
	<circle cx="3346.94" cy="1579.97" r="14.97" style="fill:none;stroke:#606060;stroke-width:8.64"/>
	<circle cx="3362.91" cy="2033.65" r="14.97" style="fill:none;stroke:#606060;stroke-width:8.64"/>
	<circle cx="3362.91" cy="1010.82" r="14.97" style="fill:none;stroke:#606060;stroke-width:8.64"/>
	<circle cx="3411.05" cy="2027.34" r="14.97" style="fill:none;stroke:#606060;stroke-width:8.64"/>
	<circle cx="3427.01" cy="2064.96" r="14.97" style="fill:none;stroke:#606060;stroke-width:8.64"/>
	<circle cx="3443.10" cy="961.69" r="14.97" style="fill:none;stroke:#606060;stroke-width:8.64"/>
	<circle cx="3443.10" cy="808.11" r="14.97" style="fill:none;stroke:#606060;stroke-width:8.64"/>
	<circle cx="3459.06" cy="2008.65" r="14.97" style="fill:none;stroke:#606060;stroke-width:8.64"/>
	<circle cx="3459.06" cy="670.99" r="14.97" style="fill:none;stroke:#606060;stroke-width:8.64"/>
	<circle cx="3475.15" cy="984.59" r="14.97" style="fill:none;stroke:#606060;stroke-width:8.64"/>
	<circle cx="3491.11" cy="923.33" r="14.97" style="fill:none;stroke:#606060;stroke-width:8.64"/>
	<circle cx="3491.11" cy="992.01" r="14.97" style="fill:none;stroke:#606060;stroke-width:8.64"/>
	<circle cx="3491.11" cy="873.33" r="14.97" style="fill:none;stroke:#606060;stroke-width:8.64"/>
	<circle cx="3507.20" cy="1605.34" r="14.97" style="fill:none;stroke:#606060;stroke-width:8.64"/>
	<circle cx="3523.16" cy="1476.14" r="14.97" style="fill:none;stroke:#606060;stroke-width:8.64"/>
	<circle cx="3587.26" cy="2058.89" r="14.97" style="fill:none;stroke:#606060;stroke-width:8.64"/>
	<circle cx="3587.26" cy="955.50" r="14.97" style="fill:none;stroke:#606060;stroke-width:8.64"/>
	<circle cx="3603.35" cy="1491.73" r="14.97" style="fill:none;stroke:#606060;stroke-width:8.64"/>
	<circle cx="3603.35" cy="1899.87" r="14.97" style="fill:none;stroke:#606060;stroke-width:8.64"/>
	<circle cx="3603.35" cy="1115.27" r="14.97" style="fill:none;stroke:#606060;stroke-width:8.64"/>
	<circle cx="3619.32" cy="1894.18" r="14.97" style="fill:none;stroke:#606060;stroke-width:8.64"/>
	<circle cx="3619.32" cy="1038.91" r="14.97" style="fill:none;stroke:#606060;stroke-width:8.64"/>
	<circle cx="3635.40" cy="851.67" r="14.97" style="fill:none;stroke:#606060;stroke-width:8.64"/>
	<circle cx="3651.37" cy="1750.75" r="14.97" style="fill:none;stroke:#606060;stroke-width:8.64"/>
	<circle cx="3667.45" cy="2163.47" r="14.97" style="fill:none;stroke:#606060;stroke-width:8.64"/>
	<circle cx="3683.42" cy="2142.92" r="14.97" style="fill:none;stroke:#606060;stroke-width:8.64"/>
	<circle cx="3683.42" cy="874.69" r="14.97" style="fill:none;stroke:#606060;stroke-width:8.64"/>
	<circle cx="3683.42" cy="718.89" r="14.97" style="fill:none;stroke:#606060;stroke-width:8.64"/>
	<circle cx="3699.51" cy="794.62" r="14.97" style="fill:none;stroke:#606060;stroke-width:8.64"/>
	<circle cx="3699.51" cy="833.11" r="14.97" style="fill:none;stroke:#606060;stroke-width:8.64"/>
	<circle cx="3699.51" cy="722.72" r="14.97" style="fill:none;stroke:#606060;stroke-width:8.64"/>
	<circle cx="3715.47" cy="1117.50" r="14.97" style="fill:none;stroke:#606060;stroke-width:8.64"/>
	<circle cx="3715.47" cy="1813.12" r="14.97" style="fill:none;stroke:#606060;stroke-width:8.64"/>
	<circle cx="3731.56" cy="880.14" r="14.97" style="fill:none;stroke:#606060;stroke-width:8.64"/>
	<circle cx="3747.52" cy="715.42" r="14.97" style="fill:none;stroke:#606060;stroke-width:8.64"/>
	<circle cx="3747.52" cy="2045.03" r="14.97" style="fill:none;stroke:#606060;stroke-width:8.64"/>
	<circle cx="3747.52" cy="1034.33" r="14.97" style="fill:none;stroke:#606060;stroke-width:8.64"/>
	<circle cx="3747.52" cy="1001.05" r="14.97" style="fill:none;stroke:#606060;stroke-width:8.64"/>
	<circle cx="3747.52" cy="886.45" r="14.97" style="fill:none;stroke:#606060;stroke-width:8.64"/>
	<circle cx="3763.61" cy="882.37" r="14.97" style="fill:none;stroke:#606060;stroke-width:8.64"/>
	<circle cx="3763.61" cy="338.10" r="14.97" style="fill:none;stroke:#606060;stroke-width:8.64"/>
	<circle cx="3779.57" cy="779.03" r="14.97" style="fill:none;stroke:#606060;stroke-width:8.64"/>
	<circle cx="3795.66" cy="538.08" r="14.97" style="fill:none;stroke:#606060;stroke-width:8.64"/>
	<circle cx="3795.66" cy="1120.47" r="14.97" style="fill:none;stroke:#606060;stroke-width:8.64"/>
	<circle cx="3795.66" cy="930.01" r="14.97" style="fill:none;stroke:#606060;stroke-width:8.64"/>
	<circle cx="3795.66" cy="796.60" r="14.97" style="fill:none;stroke:#606060;stroke-width:8.64"/>
	<path d=" M590.29 1214.03 L638.43 1221.33 L654.39 1219.22 L670.48 1223.93 L686.44 1222.94 L686.44 1220.46 L686.44 1219.47 L686.44 1224.17 L702.53 1223.31 L702.53 1225.53 L702.53 1223.55 L718.49 1229.25 L718.49 1226.28 L734.58 1230.98 L750.54 1235.06 L750.54 1233.83 L750.54 1229.12 L750.54 1234.07 L750.54 1236.18 L766.63 1233.70 L766.63 1232.22 L766.63 1230.61 L766.63 1229.12 L782.60 1226.90 L782.60 1230.73 L798.68 1228.26 L798.68 1232.09 L798.68 1230.11 L798.68 1228.13 L798.68 1232.22 L798.68 1229.12 L814.65 1225.78 L814.65 1228.13 L814.65 1226.90 L814.65 1224.17 L814.65 1228.38 L814.65 1227.14 L830.73 1225.04 L830.73 1223.43 L830.73 1221.45 L846.70 1220.34 L846.70 1217.99 L846.70 1216.75 L862.78 1213.16 L862.78 1211.55 L862.78 1210.19 L862.78 1213.78 L878.75 1218.36 L878.75 1216.38 L878.75 1220.83 L878.75 1219.35 L894.84 1223.31 L894.84 1220.96 L894.84 1218.36 L894.84 1221.82 L894.84 1220.71 L894.84 1219.72 L894.84 1217.24 L894.84 1215.02 L894.84 1217.49 L910.80 1216.01 L910.80 1214.52 L910.80 1213.41 L910.80 1211.80 L910.80 1210.56 L910.80 1208.58 L910.80 1206.72 L910.80 1204.87 L910.80 1203.63 L910.80 1201.65 L926.89 1200.54 L926.89 1199.30 L926.89 1203.38 L926.89 1204.99 L926.89 1204.00 L926.89 1203.14 L942.98 1207.47 L942.98 1211.55 L942.98 1210.07 L942.98 1209.69 L942.98 1213.04 L942.98 1212.17 L942.98 1210.93 L942.98 1213.28 L942.98 1211.06 L942.98 1212.54 L958.94 1211.80 L958.94 1210.81 L958.94 1209.20 L975.03 1210.19 L975.03 1209.20 L975.03 1207.71 L990.99 1210.07 L990.99 1207.34 L990.99 1206.11 L990.99 1204.62 L990.99 1207.47 L990.99 1206.60 L990.99 1205.61 L990.99 1206.11 L1007.08 1202.89 L1007.08 1201.53 L1007.08 1201.16 L1007.08 1204.25 L1023.04 1203.51 L1023.04 1202.89 L1023.04 1206.23 L1023.04 1205.24 L1023.04 1204.62 L1023.04 1202.89 L1039.13 1201.77 L1039.13 1203.38 L1039.13 1206.35 L1039.13 1209.69 L1039.13 1208.70 L1039.13 1207.96 L1039.13 1206.97 L1039.13 1209.94 L1055.09 1213.28 L1055.09 1211.80 L1055.09 1210.31 L1055.09 1208.95 L1055.09 1206.97 L1071.18 1205.73 L1071.18 1204.62 L1071.18 1203.51 L1087.14 1206.85 L1087.14 1208.58 L1087.14 1207.71 L1087.14 1207.10 L1103.23 1204.99 L1103.23 1204.00 L1103.23 1206.60 L1103.23 1205.49 L1103.23 1208.95 L1119.19 1207.59 L1119.19 1206.72 L1135.28 1205.98 L1135.28 1206.60 L1135.28 1205.73 L1135.28 1208.95 L1135.28 1208.21 L1151.25 1207.47 L1151.25 1210.81 L1151.25 1206.85 L1151.25 1208.58 L1151.25 1212.66 L1151.25 1213.41 L1167.33 1212.54 L1167.33 1212.05 L1167.33 1215.39 L1167.33 1218.85 L1167.33 1218.48 L1167.33 1218.60 L1167.33 1218.60 L1183.30 1218.48 L1183.30 1217.86 L1183.30 1217.99 L1183.30 1214.15 L1199.38 1216.38 L1199.38 1216.50 L1199.38 1212.66 L1215.35 1213.04 L1215.35 1214.89 L1215.35 1214.03 L1215.35 1212.91 L1231.44 1212.29 L1231.44 1208.21 L1231.44 1205.61 L1231.44 1204.37 L1247.40 1206.97 L1247.40 1211.06 L1247.40 1211.30 L1247.40 1211.18 L1263.49 1215.14 L1263.49 1215.39 L1279.45 1214.77 L1279.45 1214.52 L1279.45 1209.94 L1279.45 1209.32 L1279.45 1209.45 L1295.54 1209.57 L1311.50 1208.95 L1311.50 1207.22 L1311.50 1209.08 L1327.59 1212.79 L1327.59 1210.44 L1327.59 1212.79 L1327.59 1216.13 L1327.59 1213.04 L1327.59 1216.75 L1343.55 1214.40 L1343.55 1214.27 L1343.55 1213.90 L1343.55 1217.99 L1343.55 1219.97 L1343.55 1219.22 L1343.55 1218.85 L1359.64 1217.86 L1359.64 1216.87 L1359.64 1216.25 L1359.64 1217.49 L1375.61 1219.97 L1375.61 1219.72 L1391.69 1215.51 L1391.69 1219.22 L1391.69 1219.72 L1391.69 1220.09 L1391.69 1219.35 L1391.69 1215.14 L1407.66 1212.66 L1407.66 1208.09 L1407.66 1203.14 L1423.74 1203.88 L1423.74 1203.75 L1455.80 1201.40 L1455.80 1202.02 L1455.80 1202.76 L1471.76 1204.37 L1471.76 1204.99 L1471.76 1205.36 L1487.85 1206.23 L1487.85 1204.99 L1503.81 1201.65 L1503.81 1199.05 L1519.90 1199.55 L1519.90 1200.41 L1519.90 1201.28 L1519.90 1199.67 L1535.86 1196.82 L1551.95 1194.97 L1551.95 1195.71 L1567.91 1196.82 L1567.91 1194.35 L1567.91 1194.97 L1567.91 1191.63 L1584.00 1192.00 L1584.00 1188.90 L1616.05 1189.77 L1616.05 1188.04 L1648.10 1188.41 L1664.07 1189.27 L1664.07 1190.39 L1664.07 1191.25 L1680.15 1192.12 L1680.15 1194.47 L1680.15 1195.59 L1696.12 1193.36 L1712.20 1194.22 L1712.20 1195.21 L1712.20 1195.96 L1712.20 1197.94 L1728.17 1198.43 L1728.17 1199.79 L1744.26 1200.78 L1760.22 1198.56 L1760.22 1199.30 L1776.31 1200.91 L1792.27 1202.15 L1792.27 1199.79 L1808.36 1196.33 L1808.36 1197.32 L1824.32 1199.30 L1824.32 1199.92 L1840.41 1200.78 L1840.41 1201.65 L1840.41 1203.01 L1904.51 1199.55 L1904.51 1200.41 L1904.51 1200.78 L1920.60 1201.77 L1920.60 1202.64 L1936.56 1199.17 L1968.62 1196.08 L1984.70 1196.70 L2016.75 1192.99 L2032.72 1191.38 L2048.80 1193.98 L2064.77 1194.84 L2080.86 1196.45 L2080.86 1192.12 L2128.87 1192.62 L2128.87 1194.22 L2144.96 1196.58 L2160.92 1194.97 L2160.92 1196.58 L2177.01 1191.50 L2177.01 1192.74 L2192.97 1189.40 L2192.97 1190.02 L2225.03 1191.50 L2241.11 1192.12 L2305.22 1188.66 L2337.27 1189.03 L2353.23 1187.29 L2401.37 1188.53 L2449.38 1184.08 L2481.43 1186.06 L2641.69 1182.22 L2689.83 1178.88 L2753.93 1179.62 L2818.03 1183.09 L2930.28 1178.88 L2962.33 1176.90 L2994.38 1178.63 L3010.34 1179.50 L3154.64 1180.61 L3186.69 1181.60 L3218.74 1183.21 L3250.79 1179.75 L3266.75 1181.60 L3330.86 1177.89 L3346.94 1179.50 L3362.91 1180.98 L3362.91 1176.90 L3411.05 1179.50 L3427.01 1182.47 L3443.10 1179.87 L3443.10 1180.86 L3459.06 1183.33 L3459.06 1178.88 L3475.15 1179.87 L3491.11 1181.73 L3491.11 1183.21 L3491.11 1184.94 L3507.20 1185.93 L3523.16 1188.16 L3587.26 1189.40 L3587.26 1193.11 L3603.35 1194.72 L3603.35 1196.20 L3603.35 1192.00 L3619.32 1186.68 L3619.32 1188.78 L3635.40 1183.46 L3651.37 1184.94 L3667.45 1180.12 L3683.42 1182.59 L3683.42 1185.44 L3683.42 1181.11 L3699.51 1182.22 L3699.51 1183.21 L3699.51 1186.06 L3715.47 1188.78 L3715.47 1185.44 L3731.56 1187.17 L3747.52 1189.03 L3747.52 1190.26 L3747.52 1192.24 L3747.52 1193.85 L3747.52 1196.45 L3763.61 1199.05 L3763.61 1201.65 L3779.57 1203.38 L3795.66 1206.23 L3795.66 1207.84 L3795.66 1209.69 L3795.66 1203.63" stroke-linejoin="round" style="fill:none;stroke:#000000;stroke-width:8.64"/>
	<line x1="350.71" y1="2414.69" x2="350.71" y2="235.38" style="stroke:#000000;stroke-width:5.76"/>
	<line x1="350.71" y1="2351.32" x2="310.74" y2="2351.32" style="stroke:#000000;stroke-width:5.76"/>
	<text x="266.64" y="2351.32" style="font-family:'Helvetica';font-size:79.94px;fill:#000000" transform="rotate(-90 266.64,2351.32)" text-anchor="middle">-6</text>
	<line x1="350.71" y1="1948.75" x2="310.74" y2="1948.75" style="stroke:#000000;stroke-width:5.76"/>
	<text x="266.64" y="1948.75" style="font-family:'Helvetica';font-size:79.94px;fill:#000000" transform="rotate(-90 266.64,1948.75)" text-anchor="middle">-4</text>
	<line x1="350.71" y1="1546.18" x2="310.74" y2="1546.18" style="stroke:#000000;stroke-width:5.76"/>
	<text x="266.64" y="1546.18" style="font-family:'Helvetica';font-size:79.94px;fill:#000000" transform="rotate(-90 266.64,1546.18)" text-anchor="middle">-2</text>
	<line x1="350.71" y1="1143.73" x2="310.74" y2="1143.73" style="stroke:#000000;stroke-width:5.76"/>
	<text x="266.64" y="1143.73" style="font-family:'Helvetica';font-size:79.94px;fill:#000000" transform="rotate(-90 266.64,1143.73)" text-anchor="middle">0</text>
	<line x1="350.71" y1="741.16" x2="310.74" y2="741.16" style="stroke:#000000;stroke-width:5.76"/>
	<text x="266.64" y="741.16" style="font-family:'Helvetica';font-size:79.94px;fill:#000000" transform="rotate(-90 266.64,741.16)" text-anchor="middle">2</text>
	<line x1="350.71" y1="338.59" x2="310.74" y2="338.59" style="stroke:#000000;stroke-width:5.76"/>
	<text x="266.64" y="338.59" style="font-family:'Helvetica';font-size:79.94px;fill:#000000" transform="rotate(-90 266.64,338.59)" text-anchor="middle">4</text>
	<text x="176.68" y="1325.03" style="font-family:'Helvetica';font-size:79.94px;fill:#000000" transform="rotate(-90 176.68,1325.03)" text-anchor="middle">Scaled Schoenfeld Residuals</text>
	<line x1="350.71" y1="2414.69" x2="3859.02" y2="2414.69" style="stroke:#000000;stroke-width:5.76"/>
	<line x1="414.07" y1="2414.69" x2="414.07" y2="2454.66" style="stroke:#000000;stroke-width:5.76"/>
	<text x="414.07" y="2530.61" style="font-family:'Helvetica';font-size:79.94px;fill:#000000" text-anchor="middle">0</text>
	<line x1="1215.47" y1="2414.69" x2="1215.47" y2="2454.66" style="stroke:#000000;stroke-width:5.76"/>
	<text x="1215.47" y="2530.61" style="font-family:'Helvetica';font-size:79.94px;fill:#000000" text-anchor="middle">50</text>
	<line x1="2016.75" y1="2414.69" x2="2016.75" y2="2454.66" style="stroke:#000000;stroke-width:5.76"/>
	<text x="2016.75" y="2530.61" style="font-family:'Helvetica';font-size:79.94px;fill:#000000" text-anchor="middle">100</text>
	<line x1="2818.03" y1="2414.69" x2="2818.03" y2="2454.66" style="stroke:#000000;stroke-width:5.76"/>
	<text x="2818.03" y="2530.61" style="font-family:'Helvetica';font-size:79.94px;fill:#000000" text-anchor="middle">150</text>
	<line x1="3619.44" y1="2414.69" x2="3619.44" y2="2454.66" style="stroke:#000000;stroke-width:5.76"/>
	<text x="3619.44" y="2530.61" style="font-family:'Helvetica';font-size:79.94px;fill:#000000" text-anchor="middle">200</text>
	<text x="2104.86" y="2620.57" style="font-family:'Helvetica';font-size:79.94px;fill:#000000" text-anchor="middle">Time</text>
	<text x="368.03" y="2737.89" style="font-family:'Helvetica';font-size:79.94px;fill:#000000">bandwidth = .8</text>
	<text x="368.03" y="187.99" style="font-family:'Helvetica';font-size:99.99px;fill:#000000">Schoenfeld residuals against time, DAG adjusted</text>
</svg>
