<?xml version="1.0" encoding="UTF-8" standalone="no"?>
<!-- This is a Stata 16.1 generated SVG file (http://www.stata.com) -->

<svg version="1.1" width="5.50in" height="4.00in" viewBox="0 0 3960 2880" xmlns="http://www.w3.org/2000/svg" xmlns:xlink="http://www.w3.org/1999/xlink">
	<desc>Stata Graph - Graph</desc>
	<rect x="0" y="0" width="3960" height="2880" style="fill:#EAF2F3;stroke:none"/>
	<rect x="0.00" y="0.00" width="3959.88" height="2880.00" style="fill:#EAF2F3"/>
	<rect x="2.88" y="2.88" width="3954.12" height="2874.24" style="fill:none;stroke:#EAF2F3;stroke-width:5.76"/>
	<rect x="521.73" y="100.86" width="3337.29" height="2388.33" style="fill:#FFFFFF"/>
	<rect x="524.61" y="103.74" width="3331.53" height="2382.57" style="fill:none;stroke:#FFFFFF;stroke-width:5.76"/>
	<line x1="521.73" y1="2425.82" x2="3859.02" y2="2425.82" style="stroke:#EAF2F3;stroke-width:8.64"/>
	<line x1="521.73" y1="2199.72" x2="3859.02" y2="2199.72" style="stroke:#EAF2F3;stroke-width:8.64"/>
	<line x1="521.73" y1="1973.50" x2="3859.02" y2="1973.50" style="stroke:#EAF2F3;stroke-width:8.64"/>
	<line x1="521.73" y1="1747.28" x2="3859.02" y2="1747.28" style="stroke:#EAF2F3;stroke-width:8.64"/>
	<line x1="521.73" y1="1521.18" x2="3859.02" y2="1521.18" style="stroke:#EAF2F3;stroke-width:8.64"/>
	<line x1="521.73" y1="1294.96" x2="3859.02" y2="1294.96" style="stroke:#EAF2F3;stroke-width:8.64"/>
	<line x1="521.73" y1="1068.86" x2="3859.02" y2="1068.86" style="stroke:#EAF2F3;stroke-width:8.64"/>
	<line x1="521.73" y1="842.64" x2="3859.02" y2="842.64" style="stroke:#EAF2F3;stroke-width:8.64"/>
	<line x1="521.73" y1="616.54" x2="3859.02" y2="616.54" style="stroke:#EAF2F3;stroke-width:8.64"/>
	<line x1="521.73" y1="390.32" x2="3859.02" y2="390.32" style="stroke:#EAF2F3;stroke-width:8.64"/>
	<defs>
		<path id="path_bDeKdxqb" d="M600.31 2425.82 L600.31 2425.82 L615.53 2425.82 L630.75 2425.82 L645.98 2425.82 L661.20 2425.82 L676.42 2425.82 L691.64 2425.70 L706.86 2425.45 L722.08 2425.20 L737.30 2424.59 L752.52 2423.84 L767.75 2422.73 L782.97 2421.12 L798.19 2419.02 L813.41 2416.42 L828.63 2413.08 L843.85 2408.99 L859.07 2404.17 L874.29 2398.60 L889.51 2392.04 L904.61 2384.61 L919.83 2376.20 L935.05 2366.92 L950.28 2356.52 L965.50 2345.26 L980.72 2333.01 L995.94 2319.77 L1011.16 2305.66 L1026.38 2290.68 L1041.60 2274.72 L1056.83 2258.01 L1072.05 2240.56 L1087.27 2222.37 L1102.49 2203.56 L1117.71 2184.13 L1132.93 2164.08 L1148.15 2143.54 L1163.37 2122.50 L1178.60 2101.22 L1193.82 2079.44 L1209.04 2057.53 L1224.26 2035.26 L1239.48 2012.98 L1254.70 1990.46 L1269.80 1967.93 L1285.02 1945.41 L1300.24 1922.89 L1315.46 1900.36 L1330.68 1878.09 L1345.90 1855.94 L1361.13 1834.03 L1376.35 1812.25 L1391.57 1790.84 L1406.79 1769.68 L1422.01 1748.89 L1437.23 1728.35 L1452.45 1708.05 L1467.67 1688.25 L1482.90 1668.70 L1498.12 1649.52 L1513.34 1630.70 L1528.56 1612.27 L1543.78 1594.32 L1559.00 1576.62 L1574.22 1559.30 L1589.44 1542.34 L1604.67 1525.89 L1619.76 1509.67 L1634.98 1493.83 L1650.21 1478.49 L1665.43 1463.39 L1680.65 1448.79 L1695.87 1434.43 L1711.09 1420.57 L1726.31 1406.96 L1741.53 1393.72 L1756.76 1380.72 L1771.98 1368.22 L1787.20 1355.97 L1802.42 1344.09 L1817.64 1332.46 L1832.86 1321.20 L1848.08 1310.31 L1863.30 1299.66 L1878.53 1289.27 L1893.75 1279.24 L1908.97 1269.47 L1924.19 1259.94 L1939.41 1250.78 L1954.63 1241.75 L1969.85 1233.08 L1984.95 1224.67 L2000.17 1216.50 L2015.39 1208.46 L2030.61 1200.78 L2045.84 1193.23 L2061.06 1186.06 L2076.28 1179.00 L2091.50 1172.20 L2106.72 1165.51 L2121.94 1159.08 L2137.16 1152.89 L2152.38 1146.83 L2167.61 1141.01 L2182.83 1135.32 L2198.05 1129.87 L2213.27 1124.55 L2228.49 1119.35 L2243.71 1114.40 L2258.93 1109.58 L2274.15 1104.87 L2289.38 1100.42 L2304.60 1095.96 L2319.82 1091.76 L2335.04 1087.67 L2350.14 1083.71 L2365.36 1079.88 L2380.58 1076.16 L2395.80 1072.57 L2411.02 1069.11 L2426.24 1065.77 L2441.46 1062.55 L2456.68 1059.46 L2471.91 1056.36 L2487.13 1053.52 L2502.35 1050.67 L2517.57 1047.95 L2532.79 1045.23 L2548.01 1042.75 L2563.23 1040.28 L2578.45 1037.92 L2593.68 1035.70 L2608.90 1033.47 L2624.12 1031.36 L2639.34 1029.26 L2654.56 1027.28 L2669.78 1025.42 L2685.00 1023.57 L2700.22 1021.84 L2715.32 1020.10 L2730.54 1018.49 L2745.76 1016.89 L2760.99 1015.40 L2776.21 1013.92 L2791.43 1012.43 L2806.65 1011.07 L2821.87 1009.83 L2837.09 1008.59 L2852.31 1007.36 L2867.53 1006.24 L2882.76 1005.13 L2897.98 1004.02 L2913.20 1003.03 L2928.42 1002.04 L2943.64 1001.05 L2958.86 1000.18 L2974.08 999.31 L2989.30 998.45 L3004.53 997.70 L3019.75 996.84 L3034.97 996.09 L3050.19 995.48 L3065.41 994.73 L3080.51 994.11 L3095.73 993.50 L3110.95 992.88 L3126.17 992.38 L3141.39 991.76 L3156.61 991.27 L3171.84 990.77 L3187.06 990.28 L3202.28 989.91 L3217.50 989.41 L3232.72 989.04 L3247.94 988.67 L3263.16 988.30 L3278.39 987.93 L3293.61 987.56 L3308.83 987.18 L3324.05 986.94 L3339.27 986.57 L3354.49 986.32 L3369.71 986.07 L3384.93 985.82 L3400.16 985.58 L3415.38 985.33 L3430.47 985.08 L3445.70 984.83 L3460.92 984.71 L3476.14 984.46 L3491.36 984.34 L3506.58 984.09 L3521.80 983.97 L3537.02 983.72 L3552.24 983.60 L3567.47 983.47 L3582.69 983.35 L3597.91 983.22 L3613.13 983.10 L3628.35 982.98 L3643.57 982.73 L3658.79 982.61 L3674.01 982.61 L3689.24 982.48 L3704.46 982.36 L3719.68 982.23 L3734.90 982.11 L3750.12 981.99 L3765.34 981.86 L3780.56 981.74 L3795.66 981.62 L3795.66 844.74 L3780.56 844.87 L3765.34 844.99 L3750.12 845.12 L3734.90 845.12 L3719.68 845.24 L3704.46 845.36 L3689.24 845.49 L3674.01 845.61 L3658.79 845.86 L3643.57 845.98 L3628.35 846.11 L3613.13 846.23 L3597.91 846.35 L3582.69 846.48 L3567.47 846.72 L3552.24 846.85 L3537.02 846.97 L3521.80 847.22 L3506.58 847.34 L3491.36 847.59 L3476.14 847.84 L3460.92 847.96 L3445.70 848.21 L3430.47 848.46 L3415.38 848.70 L3400.16 848.95 L3384.93 849.20 L3369.71 849.45 L3354.49 849.82 L3339.27 850.07 L3324.05 850.44 L3308.83 850.81 L3293.61 851.06 L3278.39 851.43 L3263.16 851.92 L3247.94 852.29 L3232.72 852.66 L3217.50 853.16 L3202.28 853.65 L3187.06 854.15 L3171.84 854.64 L3156.61 855.14 L3141.39 855.76 L3126.17 856.25 L3110.95 856.87 L3095.73 857.61 L3080.51 858.23 L3065.41 858.98 L3050.19 859.72 L3034.97 860.46 L3019.75 861.20 L3004.53 862.07 L2989.30 862.94 L2974.08 863.80 L2958.86 864.79 L2943.64 865.78 L2928.42 866.77 L2913.20 867.89 L2897.98 869.00 L2882.76 870.11 L2867.53 871.35 L2852.31 872.59 L2837.09 873.95 L2821.87 875.31 L2806.65 876.67 L2791.43 878.16 L2776.21 879.77 L2760.99 881.25 L2745.76 882.98 L2730.54 884.72 L2715.32 886.45 L2700.22 888.31 L2685.00 890.29 L2669.78 892.27 L2654.56 894.25 L2639.34 896.47 L2624.12 898.70 L2608.90 900.93 L2593.68 903.40 L2578.45 905.88 L2563.23 908.48 L2548.01 911.08 L2532.79 913.92 L2517.57 916.77 L2502.35 919.74 L2487.13 922.71 L2471.91 925.93 L2456.68 929.27 L2441.46 932.61 L2426.24 936.20 L2411.02 939.79 L2395.80 943.62 L2380.58 947.46 L2365.36 951.54 L2350.14 955.63 L2335.04 959.96 L2319.82 964.41 L2304.60 968.99 L2289.38 973.82 L2274.15 978.77 L2258.93 983.84 L2243.71 989.04 L2228.49 994.49 L2213.27 1000.06 L2198.05 1005.87 L2182.83 1011.81 L2167.61 1017.88 L2152.38 1024.31 L2137.16 1030.87 L2121.94 1037.55 L2106.72 1044.61 L2091.50 1051.78 L2076.28 1059.09 L2061.06 1066.76 L2045.84 1074.68 L2030.61 1082.72 L2015.39 1091.14 L2000.17 1099.80 L1984.95 1108.59 L1969.85 1117.74 L1954.63 1127.15 L1939.41 1136.80 L1924.19 1146.83 L1908.97 1157.10 L1893.75 1167.62 L1878.53 1178.51 L1863.30 1189.65 L1848.08 1201.16 L1832.86 1213.04 L1817.64 1225.16 L1802.42 1237.66 L1787.20 1250.41 L1771.98 1263.53 L1756.76 1277.14 L1741.53 1291.00 L1726.31 1305.23 L1711.09 1319.83 L1695.87 1334.81 L1680.65 1350.15 L1665.43 1365.87 L1650.21 1382.08 L1634.98 1398.54 L1619.76 1415.50 L1604.67 1432.70 L1589.44 1450.40 L1574.22 1468.59 L1559.00 1487.03 L1543.78 1505.96 L1528.56 1525.27 L1513.34 1544.94 L1498.12 1564.99 L1482.90 1585.41 L1467.67 1606.20 L1452.45 1627.49 L1437.23 1649.02 L1422.01 1670.92 L1406.79 1693.20 L1391.57 1715.72 L1376.35 1738.62 L1361.13 1761.76 L1345.90 1785.15 L1330.68 1808.91 L1315.46 1832.67 L1300.24 1856.68 L1285.02 1880.81 L1269.80 1905.07 L1254.70 1929.20 L1239.48 1953.45 L1224.26 1977.59 L1209.04 2001.47 L1193.82 2025.36 L1178.60 2048.87 L1163.37 2072.13 L1148.15 2095.15 L1132.93 2117.68 L1117.71 2139.70 L1102.49 2161.24 L1087.27 2182.28 L1072.05 2202.57 L1056.83 2222.12 L1041.60 2241.06 L1026.38 2259.13 L1011.16 2276.45 L995.94 2292.79 L980.72 2308.13 L965.50 2322.61 L950.28 2336.10 L935.05 2348.48 L919.83 2359.99 L904.61 2370.26 L889.51 2379.66 L874.29 2387.95 L859.07 2395.26 L843.85 2401.57 L828.63 2407.01 L813.41 2411.59 L798.19 2415.30 L782.97 2418.27 L767.75 2420.63 L752.52 2422.36 L737.30 2423.72 L722.08 2424.59 L706.86 2425.20 L691.64 2425.45 L676.42 2425.70 L661.20 2425.82 L645.98 2425.82 L630.75 2425.82 L615.53 2425.82 L600.31 2425.82 L600.31 2425.82 Z" stroke-linejoin="round"/>
	</defs>
	<defs>
		<clipPath id="clipPath_UqIfVMqj">
			<use xlink:href="#path_bDeKdxqb"/>
		</clipPath>
	</defs>
	<use xlink:href="#path_bDeKdxqb" style="stroke:none;fill:#3333FF;fill-opacity:0.25"/>
	<use xlink:href="#path_bDeKdxqb" style="fill:none;stroke:#0000FF;stroke-opacity:0.25;stroke-width:17.28" clip-path="url(#clipPath_UqIfVMqj)"/>
	<defs>
		<path id="path_rmwDVXZr" d="M600.31 2425.82 L600.31 2425.82 L615.53 2425.82 L630.75 2425.82 L645.98 2425.82 L661.20 2425.82 L676.42 2425.82 L691.64 2425.70 L706.86 2425.58 L722.08 2425.33 L737.30 2424.83 L752.52 2424.21 L767.75 2423.35 L782.97 2422.11 L798.19 2420.50 L813.41 2418.52 L828.63 2415.92 L843.85 2412.83 L859.07 2408.99 L874.29 2404.66 L889.51 2399.59 L904.61 2393.89 L919.83 2387.46 L935.05 2380.28 L950.28 2372.24 L965.50 2363.58 L980.72 2354.17 L995.94 2344.15 L1011.16 2333.26 L1026.38 2321.87 L1041.60 2309.74 L1056.83 2297.00 L1072.05 2283.75 L1087.27 2269.89 L1102.49 2255.54 L1117.71 2240.81 L1132.93 2225.59 L1148.15 2210.00 L1163.37 2194.16 L1178.60 2178.07 L1193.82 2161.61 L1209.04 2145.03 L1224.26 2128.20 L1239.48 2111.36 L1254.70 2094.41 L1269.80 2077.46 L1285.02 2060.50 L1300.24 2043.55 L1315.46 2026.59 L1330.68 2009.76 L1345.90 1993.18 L1361.13 1976.60 L1376.35 1960.26 L1391.57 1944.17 L1406.79 1928.21 L1422.01 1912.62 L1437.23 1897.15 L1452.45 1881.93 L1467.67 1866.95 L1482.90 1852.22 L1498.12 1837.87 L1513.34 1823.76 L1528.56 1809.90 L1543.78 1796.29 L1559.00 1782.92 L1574.22 1769.93 L1589.44 1757.18 L1604.67 1744.68 L1619.76 1732.55 L1634.98 1720.67 L1650.21 1709.04 L1665.43 1697.66 L1680.65 1686.64 L1695.87 1675.87 L1711.09 1665.36 L1726.31 1655.08 L1741.53 1645.06 L1756.76 1635.41 L1771.98 1625.88 L1787.20 1616.60 L1802.42 1607.69 L1817.64 1598.90 L1832.86 1590.36 L1848.08 1582.19 L1863.30 1574.15 L1878.53 1566.23 L1893.75 1558.68 L1908.97 1551.25 L1924.19 1544.08 L1939.41 1537.15 L1954.63 1530.34 L1969.85 1523.78 L1984.95 1517.35 L2000.17 1511.16 L2015.39 1505.22 L2030.61 1499.28 L2045.84 1493.71 L2061.06 1488.14 L2076.28 1482.82 L2091.50 1477.62 L2106.72 1472.67 L2121.94 1467.72 L2137.16 1463.02 L2152.38 1458.44 L2167.61 1454.11 L2182.83 1449.78 L2198.05 1445.57 L2213.27 1441.61 L2228.49 1437.65 L2243.71 1433.94 L2258.93 1430.22 L2274.15 1426.76 L2289.38 1423.29 L2304.60 1419.95 L2319.82 1416.73 L2335.04 1413.64 L2350.14 1410.67 L2365.36 1407.70 L2380.58 1404.98 L2395.80 1402.26 L2411.02 1399.66 L2426.24 1397.06 L2441.46 1394.58 L2456.68 1392.23 L2471.91 1389.88 L2487.13 1387.78 L2502.35 1385.55 L2517.57 1383.57 L2532.79 1381.46 L2548.01 1379.61 L2563.23 1377.75 L2578.45 1375.90 L2593.68 1374.16 L2608.90 1372.55 L2624.12 1370.95 L2639.34 1369.34 L2654.56 1367.85 L2669.78 1366.49 L2685.00 1365.01 L2700.22 1363.77 L2715.32 1362.41 L2730.54 1361.17 L2745.76 1359.93 L2760.99 1358.82 L2776.21 1357.70 L2791.43 1356.59 L2806.65 1355.60 L2821.87 1354.61 L2837.09 1353.74 L2852.31 1352.75 L2867.53 1351.89 L2882.76 1351.02 L2897.98 1350.28 L2913.20 1349.41 L2928.42 1348.67 L2943.64 1348.05 L2958.86 1347.31 L2974.08 1346.69 L2989.30 1346.07 L3004.53 1345.45 L3019.75 1344.83 L3034.97 1344.21 L3050.19 1343.72 L3065.41 1343.22 L3080.51 1342.73 L3095.73 1342.23 L3110.95 1341.86 L3126.17 1341.37 L3141.39 1341.00 L3156.61 1340.63 L3171.84 1340.25 L3187.06 1339.88 L3202.28 1339.51 L3217.50 1339.14 L3232.72 1338.89 L3247.94 1338.52 L3263.16 1338.27 L3278.39 1338.03 L3293.61 1337.78 L3308.83 1337.53 L3324.05 1337.28 L3339.27 1337.04 L3354.49 1336.79 L3369.71 1336.67 L3384.93 1336.42 L3400.16 1336.29 L3415.38 1336.05 L3430.47 1335.92 L3445.70 1335.68 L3460.92 1335.55 L3476.14 1335.43 L3491.36 1335.30 L3506.58 1335.18 L3521.80 1335.06 L3537.02 1334.93 L3552.24 1334.81 L3567.47 1334.69 L3582.69 1334.56 L3597.91 1334.44 L3613.13 1334.31 L3628.35 1334.19 L3643.57 1334.19 L3658.79 1334.07 L3674.01 1333.94 L3689.24 1333.82 L3704.46 1333.82 L3719.68 1333.70 L3734.90 1333.57 L3750.12 1333.57 L3765.34 1333.45 L3780.56 1333.32 L3795.66 1333.32 L3795.66 1105.86 L3780.56 1105.99 L3765.34 1106.11 L3750.12 1106.11 L3734.90 1106.24 L3719.68 1106.36 L3704.46 1106.48 L3689.24 1106.61 L3674.01 1106.73 L3658.79 1106.73 L3643.57 1106.85 L3628.35 1106.98 L3613.13 1107.10 L3597.91 1107.23 L3582.69 1107.35 L3567.47 1107.47 L3552.24 1107.60 L3537.02 1107.84 L3521.80 1107.97 L3506.58 1108.09 L3491.36 1108.22 L3476.14 1108.46 L3460.92 1108.59 L3445.70 1108.83 L3430.47 1108.96 L3415.38 1109.21 L3400.16 1109.45 L3384.93 1109.70 L3369.71 1109.82 L3354.49 1110.07 L3339.27 1110.32 L3324.05 1110.69 L3308.83 1110.94 L3293.61 1111.19 L3278.39 1111.56 L3263.16 1111.93 L3247.94 1112.18 L3232.72 1112.55 L3217.50 1112.92 L3202.28 1113.29 L3187.06 1113.78 L3171.84 1114.16 L3156.61 1114.65 L3141.39 1115.15 L3126.17 1115.64 L3110.95 1116.14 L3095.73 1116.63 L3080.51 1117.25 L3065.41 1117.74 L3050.19 1118.36 L3034.97 1119.11 L3019.75 1119.72 L3004.53 1120.47 L2989.30 1121.09 L2974.08 1121.95 L2958.86 1122.70 L2943.64 1123.56 L2928.42 1124.43 L2913.20 1125.29 L2897.98 1126.16 L2882.76 1127.15 L2867.53 1128.26 L2852.31 1129.25 L2837.09 1130.37 L2821.87 1131.48 L2806.65 1132.72 L2791.43 1133.96 L2776.21 1135.19 L2760.99 1136.56 L2745.76 1137.92 L2730.54 1139.40 L2715.32 1140.89 L2700.22 1142.37 L2685.00 1143.98 L2669.78 1145.71 L2654.56 1147.45 L2639.34 1149.18 L2624.12 1151.03 L2608.90 1153.01 L2593.68 1154.99 L2578.45 1157.10 L2563.23 1159.33 L2548.01 1161.55 L2532.79 1163.78 L2517.57 1166.26 L2502.35 1168.73 L2487.13 1171.33 L2471.91 1173.93 L2456.68 1176.65 L2441.46 1179.50 L2426.24 1182.47 L2411.02 1185.56 L2395.80 1188.66 L2380.58 1192.00 L2365.36 1195.34 L2350.14 1198.80 L2335.04 1202.52 L2319.82 1206.23 L2304.60 1210.07 L2289.38 1214.03 L2274.15 1218.11 L2258.93 1222.44 L2243.71 1226.77 L2228.49 1231.35 L2213.27 1236.05 L2198.05 1240.88 L2182.83 1245.83 L2167.61 1251.03 L2152.38 1256.35 L2137.16 1261.79 L2121.94 1267.49 L2106.72 1273.30 L2091.50 1279.37 L2076.28 1285.56 L2061.06 1291.99 L2045.84 1298.55 L2030.61 1305.36 L2015.39 1312.41 L2000.17 1319.59 L1984.95 1327.01 L1969.85 1334.69 L1954.63 1342.61 L1939.41 1350.77 L1924.19 1359.06 L1908.97 1367.73 L1893.75 1376.51 L1878.53 1385.67 L1863.30 1395.08 L1848.08 1404.61 L1832.86 1414.63 L1817.64 1424.78 L1802.42 1435.17 L1787.20 1445.94 L1771.98 1457.08 L1756.76 1468.34 L1741.53 1479.97 L1726.31 1491.98 L1711.09 1504.23 L1695.87 1516.85 L1680.65 1529.72 L1665.43 1542.96 L1650.21 1556.45 L1634.98 1570.31 L1619.76 1584.54 L1604.67 1599.15 L1589.44 1614.00 L1574.22 1629.10 L1559.00 1644.69 L1543.78 1660.53 L1528.56 1676.74 L1513.34 1693.32 L1498.12 1710.15 L1482.90 1727.36 L1467.67 1744.81 L1452.45 1762.63 L1437.23 1780.69 L1422.01 1799.13 L1406.79 1817.82 L1391.57 1836.75 L1376.35 1855.94 L1361.13 1875.37 L1345.90 1895.04 L1330.68 1914.84 L1315.46 1934.89 L1300.24 1954.94 L1285.02 1975.24 L1269.80 1995.41 L1254.70 2015.70 L1239.48 2035.87 L1224.26 2056.05 L1209.04 2076.09 L1193.82 2095.90 L1178.60 2115.57 L1163.37 2134.88 L1148.15 2154.06 L1132.93 2172.75 L1117.71 2191.06 L1102.49 2208.88 L1087.27 2226.33 L1072.05 2243.04 L1056.83 2259.25 L1041.60 2274.84 L1026.38 2289.82 L1011.16 2303.93 L995.94 2317.41 L980.72 2330.04 L965.50 2341.92 L950.28 2352.93 L935.05 2363.08 L919.83 2372.36 L904.61 2380.90 L889.51 2388.45 L874.29 2395.26 L859.07 2401.07 L843.85 2406.27 L828.63 2410.60 L813.41 2414.31 L798.19 2417.28 L782.97 2419.76 L767.75 2421.62 L752.52 2423.10 L737.30 2424.09 L722.08 2424.83 L706.86 2425.33 L691.64 2425.58 L676.42 2425.70 L661.20 2425.82 L645.98 2425.82 L630.75 2425.82 L615.53 2425.82 L600.31 2425.82 L600.31 2425.82 Z" stroke-linejoin="round"/>
	</defs>
	<defs>
		<clipPath id="clipPath_CSgGSoHT">
			<use xlink:href="#path_rmwDVXZr"/>
		</clipPath>
	</defs>
	<use xlink:href="#path_rmwDVXZr" style="stroke:none;fill:#FF3333;fill-opacity:0.25"/>
	<use xlink:href="#path_rmwDVXZr" style="fill:none;stroke:#FF0000;stroke-opacity:0.25;stroke-width:17.28" clip-path="url(#clipPath_CSgGSoHT)"/>
	<path d=" M585.09 2425.95 L600.31 2425.95 L615.53 2425.95 L630.75 2425.95 L645.98 2425.95 L661.20 2425.82 L676.42 2425.82 L691.64 2425.70 L706.86 2425.45 L721.96 2424.96 L737.18 2424.34 L752.40 2423.22 L767.62 2421.86 L782.84 2419.88 L798.06 2417.41 L813.28 2414.31 L828.51 2410.35 L843.73 2405.78 L858.95 2400.21 L874.17 2393.77 L889.39 2386.35 L904.61 2378.05 L919.83 2368.65 L935.05 2358.38 L950.28 2346.99 L965.50 2334.74 L980.72 2321.38 L995.94 2307.14 L1011.16 2291.92 L1026.38 2275.83 L1041.60 2258.88 L1056.83 2241.06 L1072.05 2222.50 L1087.14 2203.31 L1102.37 2183.39 L1117.59 2162.85 L1132.81 2141.93 L1148.03 2120.40 L1163.25 2098.37 L1178.47 2076.09 L1193.69 2053.45 L1208.91 2030.55 L1224.13 2007.54 L1239.36 1984.27 L1254.58 1960.88 L1269.80 1937.49 L1285.02 1914.22 L1300.24 1890.84 L1315.46 1867.69 L1330.68 1844.55 L1345.90 1821.66 L1361.13 1799.01 L1376.35 1776.61 L1391.57 1754.46 L1406.79 1732.55 L1422.01 1711.02 L1437.23 1689.74 L1452.33 1668.94 L1467.55 1648.40 L1482.77 1628.23 L1497.99 1608.43 L1513.21 1589.00 L1528.44 1569.94 L1543.66 1551.25 L1558.88 1533.06 L1574.10 1515.12 L1589.32 1497.67 L1604.54 1480.47 L1619.76 1463.76 L1634.98 1447.43 L1650.21 1431.46 L1665.43 1415.87 L1680.65 1400.77 L1695.87 1385.92 L1711.09 1371.44 L1726.31 1357.33 L1741.53 1343.60 L1756.76 1330.23 L1771.98 1317.24 L1787.20 1304.49 L1802.30 1292.11 L1817.52 1280.11 L1832.74 1268.48 L1847.96 1257.09 L1863.18 1245.95 L1878.40 1235.31 L1893.62 1224.79 L1908.84 1214.64 L1924.07 1204.74 L1939.29 1195.21 L1954.51 1185.81 L1969.73 1176.78 L1984.95 1167.99 L2000.17 1159.45 L2015.39 1151.28 L2030.61 1143.24 L2045.84 1135.44 L2061.06 1127.89 L2076.28 1120.47 L2091.50 1113.41 L2106.72 1106.48 L2121.94 1099.80 L2137.16 1093.37 L2152.38 1087.05 L2167.48 1080.99 L2182.70 1075.05 L2197.92 1069.36 L2213.14 1063.79 L2228.37 1058.47 L2243.59 1053.27 L2258.81 1048.20 L2274.03 1043.37 L2289.25 1038.54 L2304.47 1034.09 L2319.69 1029.63 L2334.91 1025.30 L2350.14 1021.22 L2365.36 1017.26 L2380.58 1013.30 L2395.80 1009.58 L2411.02 1006.00 L2426.24 1002.53 L2441.46 999.06 L2456.68 995.85 L2471.91 992.75 L2487.13 989.66 L2502.35 986.69 L2517.57 983.84 L2532.67 981.12 L2547.89 978.52 L2563.11 975.92 L2578.33 973.45 L2593.55 971.10 L2608.77 968.75 L2623.99 966.52 L2639.22 964.41 L2654.44 962.31 L2669.66 960.33 L2684.88 958.47 L2700.10 956.62 L2715.32 954.88 L2730.54 953.15 L2745.76 951.54 L2760.99 949.93 L2776.21 948.33 L2791.43 946.96 L2806.65 945.48 L2821.87 944.12 L2837.09 942.88 L2852.31 941.52 L2867.53 940.41 L2882.76 939.17 L2897.85 938.05 L2913.07 937.06 L2928.30 935.95 L2943.52 934.96 L2958.74 934.09 L2973.96 933.10 L2989.18 932.24 L3004.40 931.50 L3019.62 930.63 L3034.84 929.89 L3050.07 929.14 L3065.29 928.40 L3080.51 927.78 L3095.73 927.16 L3110.95 926.55 L3126.17 925.93 L3141.39 925.31 L3156.61 924.81 L3171.84 924.32 L3187.06 923.82 L3202.28 923.33 L3217.50 922.96 L3232.72 922.46 L3247.94 922.09 L3263.04 921.72 L3278.26 921.35 L3293.48 920.98 L3308.70 920.61 L3323.93 920.23 L3339.15 919.99 L3354.37 919.61 L3369.59 919.37 L3384.81 919.12 L3400.03 918.87 L3415.25 918.62 L3430.47 918.38 L3445.70 918.13 L3460.92 918.01 L3476.14 917.76 L3491.36 917.51 L3506.58 917.39 L3521.80 917.14 L3537.02 917.02 L3552.24 916.89 L3567.47 916.64 L3582.69 916.52 L3597.91 916.40 L3613.01 916.27 L3628.23 916.15 L3643.45 916.03 L3658.67 915.90 L3673.89 915.78 L3689.11 915.65 L3704.33 915.53 L3719.55 915.41 L3734.78 915.28 L3750.00 915.16 L3765.22 915.04 L3780.44 914.91 L3795.66 914.79" stroke-linejoin="round" style="fill:none;stroke:#0000FF;stroke-width:8.64"/>
	<path d=" M585.09 2425.95 L600.31 2425.95 L615.53 2425.95 L630.75 2425.95 L645.98 2425.95 L661.20 2425.82 L676.42 2425.82 L691.64 2425.70 L706.86 2425.58 L721.96 2425.20 L737.18 2424.59 L752.40 2423.84 L767.62 2422.73 L782.84 2421.12 L798.06 2419.14 L813.28 2416.67 L828.51 2413.57 L843.73 2409.86 L858.95 2405.53 L874.17 2400.45 L889.39 2394.64 L904.61 2387.95 L919.83 2380.65 L935.05 2372.36 L950.28 2363.45 L965.50 2353.67 L980.72 2343.03 L995.94 2331.77 L1011.16 2319.77 L1026.38 2306.90 L1041.60 2293.53 L1056.83 2279.42 L1072.05 2264.70 L1087.14 2249.47 L1102.37 2233.76 L1117.59 2217.42 L1132.81 2200.84 L1148.03 2183.76 L1163.25 2166.31 L1178.47 2148.61 L1193.69 2130.67 L1208.91 2112.48 L1224.13 2094.16 L1239.36 2075.72 L1254.58 2057.16 L1269.80 2038.60 L1285.02 2020.16 L1300.24 2001.60 L1315.46 1983.16 L1330.68 1964.84 L1345.90 1946.65 L1361.13 1928.58 L1376.35 1910.88 L1391.57 1893.19 L1406.79 1875.86 L1422.01 1858.78 L1437.23 1841.83 L1452.33 1825.25 L1467.55 1808.91 L1482.77 1792.95 L1497.99 1777.23 L1513.21 1761.76 L1528.44 1746.66 L1543.66 1731.81 L1558.88 1717.21 L1574.10 1702.98 L1589.32 1689.12 L1604.54 1675.50 L1619.76 1662.14 L1634.98 1649.14 L1650.21 1636.52 L1665.43 1624.15 L1680.65 1612.02 L1695.87 1600.26 L1711.09 1588.75 L1726.31 1577.49 L1741.53 1566.60 L1756.76 1555.96 L1771.98 1545.56 L1787.20 1535.41 L1802.30 1525.64 L1817.52 1516.11 L1832.74 1506.70 L1847.96 1497.67 L1863.18 1488.88 L1878.40 1480.34 L1893.62 1472.05 L1908.84 1463.88 L1924.07 1456.09 L1939.29 1448.42 L1954.51 1440.99 L1969.73 1433.81 L1984.95 1426.76 L2000.17 1419.95 L2015.39 1413.39 L2030.61 1406.96 L2045.84 1400.77 L2061.06 1394.83 L2076.28 1388.89 L2091.50 1383.32 L2106.72 1377.75 L2121.94 1372.43 L2137.16 1367.23 L2152.38 1362.28 L2167.48 1357.46 L2182.70 1352.75 L2197.92 1348.17 L2213.14 1343.72 L2228.37 1339.51 L2243.59 1335.30 L2258.81 1331.34 L2274.03 1327.38 L2289.25 1323.67 L2304.47 1320.08 L2319.69 1316.49 L2334.91 1313.15 L2350.14 1309.81 L2365.36 1306.59 L2380.58 1303.62 L2395.80 1300.53 L2411.02 1297.68 L2426.24 1294.96 L2441.46 1292.24 L2456.68 1289.64 L2471.91 1287.16 L2487.13 1284.69 L2502.35 1282.34 L2517.57 1280.11 L2532.67 1277.88 L2547.89 1275.78 L2563.11 1273.67 L2578.33 1271.82 L2593.55 1269.84 L2608.77 1267.98 L2623.99 1266.25 L2639.22 1264.52 L2654.44 1262.91 L2669.66 1261.30 L2684.88 1259.81 L2700.10 1258.33 L2715.32 1256.97 L2730.54 1255.61 L2745.76 1254.25 L2760.99 1253.01 L2776.21 1251.77 L2791.43 1250.66 L2806.65 1249.54 L2821.87 1248.43 L2837.09 1247.32 L2852.31 1246.33 L2867.53 1245.46 L2882.76 1244.47 L2897.85 1243.60 L2913.07 1242.74 L2928.30 1241.87 L2943.52 1241.13 L2958.74 1240.39 L2973.96 1239.64 L2989.18 1238.90 L3004.40 1238.28 L3019.62 1237.66 L3034.84 1237.04 L3050.07 1236.42 L3065.29 1235.93 L3080.51 1235.31 L3095.73 1234.82 L3110.95 1234.32 L3126.17 1233.83 L3141.39 1233.45 L3156.61 1232.96 L3171.84 1232.59 L3187.06 1232.22 L3202.28 1231.85 L3217.50 1231.47 L3232.72 1231.10 L3247.94 1230.86 L3263.04 1230.48 L3278.26 1230.24 L3293.48 1229.87 L3308.70 1229.62 L3323.93 1229.37 L3339.15 1229.12 L3354.37 1228.88 L3369.59 1228.63 L3384.81 1228.50 L3400.03 1228.26 L3415.25 1228.01 L3430.47 1227.89 L3445.70 1227.64 L3460.92 1227.51 L3476.14 1227.39 L3491.36 1227.14 L3506.58 1227.02 L3521.80 1226.90 L3537.02 1226.77 L3552.24 1226.65 L3567.47 1226.52 L3582.69 1226.40 L3597.91 1226.28 L3613.01 1226.15 L3628.23 1226.03 L3643.45 1225.91 L3658.67 1225.91 L3673.89 1225.78 L3689.11 1225.66 L3704.33 1225.53 L3719.55 1225.41 L3734.78 1225.41 L3750.00 1225.29 L3765.22 1225.16 L3780.44 1225.04 L3795.66 1225.04" stroke-linejoin="round" style="fill:none;stroke:#FF0000;stroke-width:8.64"/>
	<line x1="521.73" y1="2489.19" x2="521.73" y2="100.86" style="stroke:#000000;stroke-width:5.76"/>
	<line x1="521.73" y1="2425.82" x2="481.76" y2="2425.82" style="stroke:#000000;stroke-width:5.76"/>
	<text x="461.83" y="2460.85" style="font-family:'Helvetica';font-size:99.99px;fill:#000000" text-anchor="end">0.00</text>
	<line x1="521.73" y1="2199.72" x2="481.76" y2="2199.72" style="stroke:#000000;stroke-width:5.76"/>
	<text x="461.83" y="2234.75" style="font-family:'Helvetica';font-size:99.99px;fill:#000000" text-anchor="end">0.10</text>
	<line x1="521.73" y1="1973.50" x2="481.76" y2="1973.50" style="stroke:#000000;stroke-width:5.76"/>
	<text x="461.83" y="2008.53" style="font-family:'Helvetica';font-size:99.99px;fill:#000000" text-anchor="end">0.20</text>
	<line x1="521.73" y1="1747.28" x2="481.76" y2="1747.28" style="stroke:#000000;stroke-width:5.76"/>
	<text x="461.83" y="1782.31" style="font-family:'Helvetica';font-size:99.99px;fill:#000000" text-anchor="end">0.30</text>
	<line x1="521.73" y1="1521.18" x2="481.76" y2="1521.18" style="stroke:#000000;stroke-width:5.76"/>
	<text x="461.83" y="1556.21" style="font-family:'Helvetica';font-size:99.99px;fill:#000000" text-anchor="end">0.40</text>
	<line x1="521.73" y1="1294.96" x2="481.76" y2="1294.96" style="stroke:#000000;stroke-width:5.76"/>
	<text x="461.83" y="1329.99" style="font-family:'Helvetica';font-size:99.99px;fill:#000000" text-anchor="end">0.50</text>
	<line x1="521.73" y1="1068.86" x2="481.76" y2="1068.86" style="stroke:#000000;stroke-width:5.76"/>
	<text x="461.83" y="1103.89" style="font-family:'Helvetica';font-size:99.99px;fill:#000000" text-anchor="end">0.60</text>
	<line x1="521.73" y1="842.64" x2="481.76" y2="842.64" style="stroke:#000000;stroke-width:5.76"/>
	<text x="461.83" y="877.67" style="font-family:'Helvetica';font-size:99.99px;fill:#000000" text-anchor="end">0.70</text>
	<line x1="521.73" y1="616.54" x2="481.76" y2="616.54" style="stroke:#000000;stroke-width:5.76"/>
	<text x="461.83" y="651.57" style="font-family:'Helvetica';font-size:99.99px;fill:#000000" text-anchor="end">0.80</text>
	<line x1="521.73" y1="390.32" x2="481.76" y2="390.32" style="stroke:#000000;stroke-width:5.76"/>
	<text x="461.83" y="425.35" style="font-family:'Helvetica';font-size:99.99px;fill:#000000" text-anchor="end">0.90</text>
	<line x1="521.73" y1="164.22" x2="481.76" y2="164.22" style="stroke:#000000;stroke-width:5.76"/>
	<text x="461.83" y="199.25" style="font-family:'Helvetica';font-size:99.99px;fill:#000000" text-anchor="end">1.00</text>
	<text x="190.71" y="1294.96" style="font-family:'Helvetica';font-size:99.99px;fill:#000000" transform="rotate(-90 190.71,1294.96)" text-anchor="middle">Cumulative incidence (%)</text>
	<line x1="521.73" y1="2489.19" x2="3859.02" y2="2489.19" style="stroke:#000000;stroke-width:5.76"/>
	<line x1="585.09" y1="2489.19" x2="585.09" y2="2529.16" style="stroke:#000000;stroke-width:5.76"/>
	<text x="585.09" y="2619.14" style="font-family:'Helvetica';font-size:99.99px;fill:#000000" text-anchor="middle">0</text>
	<line x1="1345.90" y1="2489.19" x2="1345.90" y2="2529.16" style="stroke:#000000;stroke-width:5.76"/>
	<text x="1345.90" y="2619.14" style="font-family:'Helvetica';font-size:99.99px;fill:#000000" text-anchor="middle">50</text>
	<line x1="2106.72" y1="2489.19" x2="2106.72" y2="2529.16" style="stroke:#000000;stroke-width:5.76"/>
	<text x="2106.72" y="2619.14" style="font-family:'Helvetica';font-size:99.99px;fill:#000000" text-anchor="middle">100</text>
	<line x1="2867.53" y1="2489.19" x2="2867.53" y2="2529.16" style="stroke:#000000;stroke-width:5.76"/>
	<text x="2867.53" y="2619.14" style="font-family:'Helvetica';font-size:99.99px;fill:#000000" text-anchor="middle">150</text>
	<line x1="3628.35" y1="2489.19" x2="3628.35" y2="2529.16" style="stroke:#000000;stroke-width:5.76"/>
	<text x="3628.35" y="2619.14" style="font-family:'Helvetica';font-size:99.99px;fill:#000000" text-anchor="middle">200</text>
	<text x="2190.38" y="2729.16" style="font-family:'Helvetica';font-size:99.99px;fill:#000000" text-anchor="middle">Days from 1 March 2020</text>
	<rect x="2717.80" y="2128.20" width="1106.70" height="326.46" style="fill:#FFFFFF"/>
	<rect x="2720.68" y="2131.08" width="1100.94" height="320.70" style="fill:none;stroke:#000000;stroke-width:5.76"/>
	<rect x="2761.11" y="2171.51" width="374.34" height="99.99" style="fill:#3333FF;fill-opacity:0.25"/>
	<rect x="2765.43" y="2175.83" width="365.70" height="91.35" style="fill:none;stroke:#0000FF;stroke-opacity:0.25;stroke-width:8.64"/>
	<rect x="2761.11" y="2311.47" width="374.34" height="99.99" style="fill:#FF3333;fill-opacity:0.25"/>
	<rect x="2765.43" y="2315.79" width="365.70" height="91.35" style="fill:none;stroke:#FF0000;stroke-opacity:0.25;stroke-width:8.64"/>
	<text x="3195.47" y="2256.53" style="font-family:'Helvetica';font-size:99.99px;fill:#000000">DOAC use</text>
	<text x="3195.47" y="2396.50" style="font-family:'Helvetica';font-size:99.99px;fill:#000000">Warfarin use</text>
</svg>
