<?xml version="1.0" encoding="UTF-8" standalone="no"?>
<!-- This is a Stata 16.1 generated SVG file (http://www.stata.com) -->

<svg version="1.1" width="5.50in" height="4.00in" viewBox="0 0 3960 2880" xmlns="http://www.w3.org/2000/svg" xmlns:xlink="http://www.w3.org/1999/xlink">
	<desc>Stata Graph - Graph</desc>
	<rect x="0" y="0" width="3960" height="2880" style="fill:#EAF2F3;stroke:none"/>
	<rect x="0.00" y="0.00" width="3959.88" height="2880.00" style="fill:#EAF2F3"/>
	<rect x="2.88" y="2.88" width="3954.12" height="2874.24" style="fill:none;stroke:#EAF2F3;stroke-width:5.76"/>
	<rect x="521.73" y="100.86" width="3337.29" height="2388.33" style="fill:#FFFFFF"/>
	<rect x="524.61" y="103.74" width="3331.53" height="2382.57" style="fill:none;stroke:#FFFFFF;stroke-width:5.76"/>
	<line x1="521.73" y1="2425.82" x2="3859.02" y2="2425.82" style="stroke:#EAF2F3;stroke-width:8.64"/>
	<line x1="521.73" y1="2275.09" x2="3859.02" y2="2275.09" style="stroke:#EAF2F3;stroke-width:8.64"/>
	<line x1="521.73" y1="2124.24" x2="3859.02" y2="2124.24" style="stroke:#EAF2F3;stroke-width:8.64"/>
	<line x1="521.73" y1="1973.50" x2="3859.02" y2="1973.50" style="stroke:#EAF2F3;stroke-width:8.64"/>
	<line x1="521.73" y1="1822.77" x2="3859.02" y2="1822.77" style="stroke:#EAF2F3;stroke-width:8.64"/>
	<line x1="521.73" y1="1671.91" x2="3859.02" y2="1671.91" style="stroke:#EAF2F3;stroke-width:8.64"/>
	<line x1="521.73" y1="1521.18" x2="3859.02" y2="1521.18" style="stroke:#EAF2F3;stroke-width:8.64"/>
	<line x1="521.73" y1="1370.45" x2="3859.02" y2="1370.45" style="stroke:#EAF2F3;stroke-width:8.64"/>
	<line x1="521.73" y1="1219.59" x2="3859.02" y2="1219.59" style="stroke:#EAF2F3;stroke-width:8.64"/>
	<line x1="521.73" y1="1068.86" x2="3859.02" y2="1068.86" style="stroke:#EAF2F3;stroke-width:8.64"/>
	<line x1="521.73" y1="918.01" x2="3859.02" y2="918.01" style="stroke:#EAF2F3;stroke-width:8.64"/>
	<line x1="521.73" y1="767.27" x2="3859.02" y2="767.27" style="stroke:#EAF2F3;stroke-width:8.64"/>
	<line x1="521.73" y1="616.54" x2="3859.02" y2="616.54" style="stroke:#EAF2F3;stroke-width:8.64"/>
	<line x1="521.73" y1="465.69" x2="3859.02" y2="465.69" style="stroke:#EAF2F3;stroke-width:8.64"/>
	<line x1="521.73" y1="314.95" x2="3859.02" y2="314.95" style="stroke:#EAF2F3;stroke-width:8.64"/>
	<line x1="521.73" y1="164.22" x2="3859.02" y2="164.22" style="stroke:#EAF2F3;stroke-width:8.64"/>
	<defs>
		<path id="path_lqlhrmqm" d="M600.31 2425.82 L600.31 2425.82 L615.53 2425.82 L630.75 2425.82 L645.98 2425.70 L661.20 2425.45 L676.42 2424.96 L691.64 2424.09 L706.86 2422.73 L722.08 2420.63 L737.30 2417.66 L752.52 2413.82 L767.75 2408.99 L782.97 2402.93 L798.19 2395.75 L813.41 2387.21 L828.63 2377.44 L843.85 2366.30 L859.07 2353.80 L874.29 2339.94 L889.51 2324.72 L904.61 2308.26 L919.83 2290.56 L935.05 2271.63 L950.28 2251.58 L965.50 2230.42 L980.72 2208.26 L995.94 2185.25 L1011.16 2161.24 L1026.38 2136.49 L1041.60 2110.99 L1056.83 2084.76 L1072.05 2058.03 L1087.27 2030.80 L1102.49 2003.08 L1117.71 1975.11 L1132.93 1946.77 L1148.15 1918.18 L1163.37 1889.47 L1178.60 1860.64 L1193.82 1831.80 L1209.04 1802.85 L1224.26 1774.01 L1239.48 1745.30 L1254.70 1716.84 L1269.80 1688.37 L1285.02 1660.28 L1300.24 1632.44 L1315.46 1604.84 L1330.68 1577.61 L1345.90 1550.76 L1361.13 1524.28 L1376.35 1498.29 L1391.57 1472.67 L1406.79 1447.43 L1422.01 1422.80 L1437.23 1398.54 L1452.45 1374.66 L1467.67 1351.39 L1482.90 1328.50 L1498.12 1306.10 L1513.34 1284.19 L1528.56 1262.66 L1543.78 1241.62 L1559.00 1221.08 L1574.22 1201.03 L1589.44 1181.35 L1604.67 1162.05 L1619.76 1143.24 L1634.98 1124.92 L1650.21 1106.98 L1665.43 1089.41 L1680.65 1072.33 L1695.87 1055.62 L1711.09 1039.28 L1726.31 1023.32 L1741.53 1007.73 L1756.76 992.51 L1771.98 977.66 L1787.20 963.30 L1802.42 949.07 L1817.64 935.33 L1832.86 921.84 L1848.08 908.72 L1863.30 895.98 L1878.53 883.48 L1893.75 871.23 L1908.97 859.35 L1924.19 847.71 L1939.41 836.45 L1954.63 825.44 L1969.85 814.67 L1984.95 804.15 L2000.17 793.88 L2015.39 783.86 L2030.61 774.08 L2045.84 764.55 L2061.06 755.27 L2076.28 746.24 L2091.50 737.33 L2106.72 728.79 L2121.94 720.37 L2137.16 712.08 L2152.38 704.16 L2167.61 696.36 L2182.83 688.69 L2198.05 681.27 L2213.27 673.96 L2228.49 666.91 L2243.71 659.98 L2258.93 653.17 L2274.15 646.61 L2289.38 640.18 L2304.60 633.87 L2319.82 627.68 L2335.04 621.74 L2350.14 615.92 L2365.36 610.23 L2380.58 604.66 L2395.80 599.09 L2411.02 593.77 L2426.24 588.57 L2441.46 583.50 L2456.68 578.55 L2471.91 573.72 L2487.13 569.02 L2502.35 564.32 L2517.57 559.86 L2532.79 555.41 L2548.01 551.08 L2563.23 546.87 L2578.45 542.66 L2593.68 538.70 L2608.90 534.74 L2624.12 530.78 L2639.34 527.07 L2654.56 523.36 L2669.78 519.77 L2685.00 516.18 L2700.22 512.71 L2715.32 509.25 L2730.54 505.91 L2745.76 502.69 L2760.99 499.47 L2776.21 496.38 L2791.43 493.28 L2806.65 490.31 L2821.87 487.34 L2837.09 484.50 L2852.31 481.65 L2867.53 478.80 L2882.76 476.08 L2897.98 473.48 L2913.20 470.88 L2928.42 468.28 L2943.64 465.81 L2958.86 463.33 L2974.08 460.86 L2989.30 458.51 L3004.53 456.16 L3019.75 453.81 L3034.97 451.58 L3050.19 449.35 L3065.41 447.12 L3080.51 445.02 L3095.73 442.92 L3110.95 440.81 L3126.17 438.71 L3141.39 436.73 L3156.61 434.75 L3171.84 432.77 L3187.06 430.79 L3202.28 428.93 L3217.50 427.07 L3232.72 425.22 L3247.94 423.36 L3263.16 421.63 L3278.39 419.90 L3293.61 418.04 L3308.83 416.31 L3324.05 414.70 L3339.27 412.97 L3354.49 411.36 L3369.71 409.75 L3384.93 408.02 L3400.16 406.41 L3415.38 404.92 L3430.47 403.31 L3445.70 401.71 L3460.92 400.22 L3476.14 398.73 L3491.36 397.25 L3506.58 395.76 L3521.80 394.28 L3537.02 392.79 L3552.24 391.31 L3567.47 389.95 L3582.69 388.46 L3597.91 387.10 L3613.13 385.62 L3628.35 384.26 L3643.57 382.89 L3658.79 381.53 L3674.01 380.17 L3689.24 378.81 L3704.46 377.45 L3719.68 376.09 L3734.90 374.73 L3750.12 373.37 L3765.34 372.13 L3780.56 370.77 L3795.66 369.53 L3795.66 238.47 L3780.56 239.83 L3765.34 241.20 L3750.12 242.68 L3734.90 244.04 L3719.68 245.40 L3704.46 246.89 L3689.24 248.37 L3674.01 249.74 L3658.79 251.22 L3643.57 252.71 L3628.35 254.19 L3613.13 255.68 L3597.91 257.16 L3582.69 258.65 L3567.47 260.13 L3552.24 261.62 L3537.02 263.22 L3521.80 264.71 L3506.58 266.32 L3491.36 267.80 L3476.14 269.41 L3460.92 271.02 L3445.70 272.63 L3430.47 274.36 L3415.38 275.97 L3400.16 277.58 L3384.93 279.31 L3369.71 281.05 L3354.49 282.78 L3339.27 284.51 L3324.05 286.24 L3308.83 288.10 L3293.61 289.83 L3278.39 291.69 L3263.16 293.54 L3247.94 295.52 L3232.72 297.38 L3217.50 299.36 L3202.28 301.34 L3187.06 303.32 L3171.84 305.30 L3156.61 307.40 L3141.39 309.38 L3126.17 311.61 L3110.95 313.72 L3095.73 315.94 L3080.51 318.05 L3065.41 320.40 L3050.19 322.63 L3034.97 324.98 L3019.75 327.33 L3004.53 329.80 L2989.30 332.28 L2974.08 334.75 L2958.86 337.23 L2943.64 339.83 L2928.42 342.55 L2913.20 345.15 L2897.98 348.00 L2882.76 350.72 L2867.53 353.56 L2852.31 356.53 L2837.09 359.50 L2821.87 362.48 L2806.65 365.57 L2791.43 368.66 L2776.21 371.88 L2760.99 375.22 L2745.76 378.56 L2730.54 381.90 L2715.32 385.49 L2700.22 388.96 L2685.00 392.67 L2669.78 396.38 L2654.56 400.10 L2639.34 404.06 L2624.12 408.02 L2608.90 412.10 L2593.68 416.18 L2578.45 420.39 L2563.23 424.72 L2548.01 429.18 L2532.79 433.76 L2517.57 438.34 L2502.35 443.16 L2487.13 447.99 L2471.91 452.94 L2456.68 458.01 L2441.46 463.21 L2426.24 468.53 L2411.02 473.98 L2395.80 479.55 L2380.58 485.24 L2365.36 491.18 L2350.14 497.12 L2335.04 503.31 L2319.82 509.62 L2304.60 516.05 L2289.38 522.61 L2274.15 529.42 L2258.93 536.35 L2243.71 543.40 L2228.49 550.70 L2213.27 558.13 L2198.05 565.80 L2182.83 573.60 L2167.61 581.64 L2152.38 589.81 L2137.16 598.23 L2121.94 606.89 L2106.72 615.68 L2091.50 624.83 L2076.28 634.11 L2061.06 643.64 L2045.84 653.42 L2030.61 663.44 L2015.39 673.72 L2000.17 684.24 L1984.95 695.00 L1969.85 706.02 L1954.63 717.40 L1939.41 729.03 L1924.19 740.91 L1908.97 753.17 L1893.75 765.67 L1878.53 778.54 L1863.30 791.65 L1848.08 805.14 L1832.86 818.88 L1817.64 833.11 L1802.42 847.59 L1787.20 862.44 L1771.98 877.66 L1756.76 893.38 L1741.53 909.34 L1726.31 925.68 L1711.09 942.51 L1695.87 959.71 L1680.65 977.28 L1665.43 995.23 L1650.21 1013.67 L1634.98 1032.60 L1619.76 1051.91 L1604.67 1071.71 L1589.44 1091.88 L1574.22 1112.55 L1559.00 1133.71 L1543.78 1155.37 L1528.56 1177.39 L1513.34 1199.92 L1498.12 1222.94 L1482.90 1246.45 L1467.67 1270.46 L1452.45 1294.96 L1437.23 1319.96 L1422.01 1345.33 L1406.79 1371.32 L1391.57 1397.68 L1376.35 1424.53 L1361.13 1451.88 L1345.90 1479.60 L1330.68 1507.82 L1315.46 1536.28 L1300.24 1565.24 L1285.02 1594.44 L1269.80 1623.90 L1254.70 1653.72 L1239.48 1683.67 L1224.26 1713.87 L1209.04 1744.06 L1193.82 1774.51 L1178.60 1804.83 L1163.37 1835.27 L1148.15 1865.47 L1132.93 1895.66 L1117.71 1925.61 L1102.49 1955.31 L1087.27 1984.76 L1072.05 2013.72 L1056.83 2042.31 L1041.60 2070.28 L1026.38 2097.63 L1011.16 2124.36 L995.94 2150.35 L980.72 2175.35 L965.50 2199.60 L950.28 2222.74 L935.05 2244.90 L919.83 2265.93 L904.61 2285.73 L889.51 2304.30 L874.29 2321.62 L859.07 2337.46 L843.85 2351.94 L828.63 2365.06 L813.41 2376.69 L798.19 2386.96 L782.97 2395.75 L767.75 2403.30 L752.52 2409.49 L737.30 2414.44 L722.08 2418.27 L706.86 2421.12 L691.64 2423.10 L676.42 2424.46 L661.20 2425.20 L645.98 2425.58 L630.75 2425.82 L615.53 2425.82 L600.31 2425.82 L600.31 2425.82 Z" stroke-linejoin="round"/>
	</defs>
	<defs>
		<clipPath id="clipPath_ktTxiqXD">
			<use xlink:href="#path_lqlhrmqm"/>
		</clipPath>
	</defs>
	<use xlink:href="#path_lqlhrmqm" style="stroke:none;fill:#3333FF;fill-opacity:0.25"/>
	<use xlink:href="#path_lqlhrmqm" style="fill:none;stroke:#0000FF;stroke-opacity:0.25;stroke-width:17.28" clip-path="url(#clipPath_ktTxiqXD)"/>
	<defs>
		<path id="path_SoucQkXI" d="M600.31 2425.82 L600.31 2425.82 L615.53 2425.82 L630.75 2425.82 L645.98 2425.70 L661.20 2425.58 L676.42 2425.20 L691.64 2424.46 L706.86 2423.35 L722.08 2421.74 L737.30 2419.51 L752.52 2416.54 L767.75 2412.71 L782.97 2408.00 L798.19 2402.43 L813.41 2395.87 L828.63 2388.20 L843.85 2379.54 L859.07 2369.89 L874.29 2359.24 L889.51 2347.49 L904.61 2334.86 L919.83 2321.13 L935.05 2306.65 L950.28 2291.18 L965.50 2274.97 L980.72 2257.89 L995.94 2240.19 L1011.16 2221.88 L1026.38 2202.82 L1041.60 2183.27 L1056.83 2163.34 L1072.05 2142.80 L1087.27 2122.01 L1102.49 2100.85 L1117.71 2079.44 L1132.93 2057.78 L1148.15 2036.00 L1163.37 2014.09 L1178.60 1992.19 L1193.82 1970.16 L1209.04 1948.13 L1224.26 1926.11 L1239.48 1904.20 L1254.70 1882.42 L1269.80 1860.76 L1285.02 1839.35 L1300.24 1818.07 L1315.46 1797.15 L1330.68 1776.36 L1345.90 1755.82 L1361.13 1735.65 L1376.35 1715.85 L1391.57 1696.29 L1406.79 1677.11 L1422.01 1658.30 L1437.23 1639.74 L1452.45 1621.55 L1467.67 1603.73 L1482.90 1586.28 L1498.12 1569.20 L1513.34 1552.49 L1528.56 1536.03 L1543.78 1520.07 L1559.00 1504.35 L1574.22 1488.88 L1589.44 1473.91 L1604.67 1459.18 L1619.76 1444.83 L1634.98 1430.84 L1650.21 1417.11 L1665.43 1403.62 L1680.65 1390.62 L1695.87 1377.75 L1711.09 1365.25 L1726.31 1353.12 L1741.53 1341.24 L1756.76 1329.61 L1771.98 1318.23 L1787.20 1307.09 L1802.42 1296.32 L1817.64 1285.80 L1832.86 1275.53 L1848.08 1265.38 L1863.30 1255.61 L1878.53 1246.08 L1893.75 1236.67 L1908.97 1227.64 L1924.19 1218.73 L1939.41 1210.07 L1954.63 1201.65 L1969.85 1193.36 L1984.95 1185.31 L2000.17 1177.39 L2015.39 1169.85 L2030.61 1162.30 L2045.84 1154.99 L2061.06 1147.94 L2076.28 1141.01 L2091.50 1134.20 L2106.72 1127.65 L2121.94 1121.09 L2137.16 1114.90 L2152.38 1108.71 L2167.61 1102.77 L2182.83 1096.83 L2198.05 1091.14 L2213.27 1085.57 L2228.49 1080.12 L2243.71 1074.93 L2258.93 1069.73 L2274.15 1064.65 L2289.38 1059.70 L2304.60 1054.88 L2319.82 1050.18 L2335.04 1045.60 L2350.14 1041.14 L2365.36 1036.69 L2380.58 1032.48 L2395.80 1028.27 L2411.02 1024.19 L2426.24 1020.23 L2441.46 1016.39 L2456.68 1012.55 L2471.91 1008.84 L2487.13 1005.25 L2502.35 1001.66 L2517.57 998.20 L2532.79 994.73 L2548.01 991.52 L2563.23 988.17 L2578.45 985.08 L2593.68 981.99 L2608.90 978.89 L2624.12 975.92 L2639.34 973.08 L2654.56 970.23 L2669.78 967.38 L2685.00 964.79 L2700.22 962.06 L2715.32 959.46 L2730.54 956.86 L2745.76 954.39 L2760.99 951.91 L2776.21 949.56 L2791.43 947.21 L2806.65 944.86 L2821.87 942.63 L2837.09 940.41 L2852.31 938.30 L2867.53 936.20 L2882.76 934.09 L2897.98 931.99 L2913.20 930.01 L2928.42 928.03 L2943.64 926.05 L2958.86 924.19 L2974.08 922.34 L2989.30 920.48 L3004.53 918.75 L3019.75 916.89 L3034.97 915.16 L3050.19 913.55 L3065.41 911.82 L3080.51 910.21 L3095.73 908.60 L3110.95 906.99 L3126.17 905.38 L3141.39 903.90 L3156.61 902.29 L3171.84 900.80 L3187.06 899.32 L3202.28 897.83 L3217.50 896.47 L3232.72 894.99 L3247.94 893.63 L3263.16 892.27 L3278.39 890.90 L3293.61 889.54 L3308.83 888.18 L3324.05 886.94 L3339.27 885.71 L3354.49 884.35 L3369.71 883.11 L3384.93 881.87 L3400.16 880.63 L3415.38 879.39 L3430.47 878.16 L3445.70 877.04 L3460.92 875.81 L3476.14 874.69 L3491.36 873.58 L3506.58 872.34 L3521.80 871.23 L3537.02 870.11 L3552.24 869.00 L3567.47 867.89 L3582.69 866.77 L3597.91 865.66 L3613.13 864.67 L3628.35 863.55 L3643.57 862.44 L3658.79 861.45 L3674.01 860.34 L3689.24 859.35 L3704.46 858.36 L3719.68 857.24 L3734.90 856.25 L3750.12 855.26 L3765.34 854.15 L3780.56 853.16 L3795.66 852.17 L3795.66 632.26 L3780.56 633.37 L3765.34 634.61 L3750.12 635.72 L3734.90 636.96 L3719.68 638.07 L3704.46 639.19 L3689.24 640.43 L3674.01 641.66 L3658.79 642.78 L3643.57 644.02 L3628.35 645.25 L3613.13 646.49 L3597.91 647.60 L3582.69 648.84 L3567.47 650.20 L3552.24 651.44 L3537.02 652.68 L3521.80 653.92 L3506.58 655.28 L3491.36 656.51 L3476.14 657.88 L3460.92 659.11 L3445.70 660.47 L3430.47 661.84 L3415.38 663.20 L3400.16 664.56 L3384.93 666.04 L3369.71 667.40 L3354.49 668.77 L3339.27 670.25 L3324.05 671.74 L3308.83 673.22 L3293.61 674.71 L3278.39 676.19 L3263.16 677.80 L3247.94 679.28 L3232.72 680.89 L3217.50 682.50 L3202.28 684.11 L3187.06 685.72 L3171.84 687.45 L3156.61 689.06 L3141.39 690.79 L3126.17 692.53 L3110.95 694.38 L3095.73 696.12 L3080.51 697.97 L3065.41 699.83 L3050.19 701.81 L3034.97 703.66 L3019.75 705.64 L3004.53 707.62 L2989.30 709.60 L2974.08 711.71 L2958.86 713.81 L2943.64 715.92 L2928.42 718.14 L2913.20 720.37 L2897.98 722.60 L2882.76 724.95 L2867.53 727.30 L2852.31 729.65 L2837.09 732.13 L2821.87 734.60 L2806.65 737.20 L2791.43 739.80 L2776.21 742.40 L2760.99 745.12 L2745.76 747.97 L2730.54 750.69 L2715.32 753.66 L2700.22 756.51 L2685.00 759.60 L2669.78 762.57 L2654.56 765.79 L2639.34 769.01 L2624.12 772.22 L2608.90 775.57 L2593.68 779.03 L2578.45 782.50 L2563.23 786.08 L2548.01 789.80 L2532.79 793.51 L2517.57 797.35 L2502.35 801.31 L2487.13 805.27 L2471.91 809.35 L2456.68 813.56 L2441.46 817.89 L2426.24 822.22 L2411.02 826.80 L2395.80 831.38 L2380.58 836.08 L2365.36 840.91 L2350.14 845.86 L2335.04 850.93 L2319.82 856.13 L2304.60 861.45 L2289.38 866.90 L2274.15 872.46 L2258.93 878.16 L2243.71 883.97 L2228.49 890.04 L2213.27 896.10 L2198.05 902.41 L2182.83 908.85 L2167.61 915.53 L2152.38 922.34 L2137.16 929.27 L2121.94 936.32 L2106.72 943.62 L2091.50 951.17 L2076.28 958.84 L2061.06 966.64 L2045.84 974.69 L2030.61 982.98 L2015.39 991.39 L2000.17 1000.06 L1984.95 1008.97 L1969.85 1018.12 L1954.63 1027.40 L1939.41 1037.06 L1924.19 1046.83 L1908.97 1056.86 L1893.75 1067.25 L1878.53 1077.77 L1863.30 1088.66 L1848.08 1099.68 L1832.86 1111.06 L1817.64 1122.82 L1802.42 1134.70 L1787.20 1146.95 L1771.98 1159.45 L1756.76 1172.32 L1741.53 1185.56 L1726.31 1199.05 L1711.09 1212.79 L1695.87 1227.02 L1680.65 1241.50 L1665.43 1256.35 L1650.21 1271.45 L1634.98 1287.04 L1619.76 1302.88 L1604.67 1319.22 L1589.44 1335.80 L1574.22 1352.88 L1559.00 1370.20 L1543.78 1388.02 L1528.56 1406.22 L1513.34 1424.78 L1498.12 1443.71 L1482.90 1463.02 L1467.67 1482.82 L1452.45 1502.87 L1437.23 1523.41 L1422.01 1544.45 L1406.79 1565.73 L1391.57 1587.39 L1376.35 1609.54 L1361.13 1631.94 L1345.90 1654.71 L1330.68 1677.85 L1315.46 1701.37 L1300.24 1725.13 L1285.02 1749.14 L1269.80 1773.39 L1254.70 1797.77 L1239.48 1822.40 L1224.26 1847.15 L1209.04 1871.90 L1193.82 1896.90 L1178.60 1921.77 L1163.37 1946.65 L1148.15 1971.40 L1132.93 1996.15 L1117.71 2020.65 L1102.49 2044.91 L1087.27 2068.92 L1072.05 2092.55 L1056.83 2115.82 L1041.60 2138.59 L1026.38 2160.87 L1011.16 2182.65 L995.94 2203.69 L980.72 2224.10 L965.50 2243.66 L950.28 2262.47 L935.05 2280.41 L919.83 2297.37 L904.61 2313.45 L889.51 2328.43 L874.29 2342.29 L859.07 2355.04 L843.85 2366.79 L828.63 2377.19 L813.41 2386.59 L798.19 2394.76 L782.97 2401.94 L767.75 2407.88 L752.52 2412.83 L737.30 2416.79 L722.08 2419.88 L706.86 2422.11 L691.64 2423.72 L676.42 2424.71 L661.20 2425.33 L645.98 2425.70 L630.75 2425.82 L615.53 2425.82 L600.31 2425.82 L600.31 2425.82 Z" stroke-linejoin="round"/>
	</defs>
	<defs>
		<clipPath id="clipPath_rkJzUvBf">
			<use xlink:href="#path_SoucQkXI"/>
		</clipPath>
	</defs>
	<use xlink:href="#path_SoucQkXI" style="stroke:none;fill:#FF3333;fill-opacity:0.25"/>
	<use xlink:href="#path_SoucQkXI" style="fill:none;stroke:#FF0000;stroke-opacity:0.25;stroke-width:17.28" clip-path="url(#clipPath_rkJzUvBf)"/>
	<path d=" M585.09 2425.95 L600.31 2425.95 L615.53 2425.95 L630.75 2425.82 L645.98 2425.70 L661.20 2425.45 L676.42 2424.83 L691.64 2423.72 L706.86 2422.11 L721.96 2419.64 L737.18 2416.29 L752.40 2411.96 L767.62 2406.39 L782.84 2399.71 L798.06 2391.67 L813.28 2382.39 L828.51 2371.62 L843.73 2359.61 L858.95 2346.13 L874.17 2331.28 L889.39 2315.06 L904.61 2297.61 L919.83 2278.80 L935.05 2258.88 L950.28 2237.84 L965.50 2215.69 L980.72 2192.55 L995.94 2168.42 L1011.16 2143.42 L1026.38 2117.68 L1041.60 2091.32 L1056.83 2064.21 L1072.05 2036.62 L1087.14 2008.53 L1102.37 1979.94 L1117.59 1951.10 L1132.81 1921.90 L1148.03 1892.57 L1163.25 1863.11 L1178.47 1833.41 L1193.69 1803.84 L1208.91 1774.26 L1224.13 1744.68 L1239.36 1715.23 L1254.58 1686.02 L1269.80 1656.94 L1285.02 1628.11 L1300.24 1599.52 L1315.46 1571.30 L1330.68 1543.46 L1345.90 1515.98 L1361.13 1488.88 L1376.35 1462.15 L1391.57 1435.92 L1406.79 1410.18 L1422.01 1384.81 L1437.23 1360.06 L1452.33 1335.68 L1467.55 1311.67 L1482.77 1288.28 L1497.99 1265.38 L1513.21 1242.86 L1528.44 1220.83 L1543.66 1199.30 L1558.88 1178.26 L1574.10 1157.59 L1589.32 1137.42 L1604.54 1117.74 L1619.76 1098.44 L1634.98 1079.63 L1650.21 1061.19 L1665.43 1043.25 L1680.65 1025.67 L1695.87 1008.47 L1711.09 991.76 L1726.31 975.43 L1741.53 959.46 L1756.76 943.87 L1771.98 928.65 L1787.20 913.80 L1802.30 899.32 L1817.52 885.09 L1832.74 871.35 L1847.96 857.86 L1863.18 844.74 L1878.40 831.87 L1893.62 819.37 L1908.84 807.12 L1924.07 795.24 L1939.29 783.61 L1954.51 772.35 L1969.73 761.33 L1984.95 750.44 L2000.17 739.92 L2015.39 729.65 L2030.61 719.75 L2045.84 709.98 L2061.06 700.45 L2076.28 691.17 L2091.50 682.01 L2106.72 673.22 L2121.94 664.56 L2137.16 656.14 L2152.38 647.98 L2167.48 639.93 L2182.70 632.13 L2197.92 624.46 L2213.14 617.04 L2228.37 609.74 L2243.59 602.68 L2258.81 595.75 L2274.03 588.94 L2289.25 582.39 L2304.47 575.95 L2319.69 569.64 L2334.91 563.58 L2350.14 557.51 L2365.36 551.69 L2380.58 546.00 L2395.80 540.43 L2411.02 534.86 L2426.24 529.54 L2441.46 524.35 L2456.68 519.27 L2471.91 514.32 L2487.13 509.49 L2502.35 504.79 L2517.57 500.09 L2532.67 495.63 L2547.89 491.18 L2563.11 486.85 L2578.33 482.64 L2593.55 478.43 L2608.77 474.35 L2623.99 470.39 L2639.22 466.55 L2654.44 462.72 L2669.66 459.00 L2684.88 455.41 L2700.10 451.83 L2715.32 448.36 L2730.54 445.02 L2745.76 441.68 L2760.99 438.34 L2776.21 435.12 L2791.43 432.02 L2806.65 428.93 L2821.87 425.96 L2837.09 422.99 L2852.31 420.14 L2867.53 417.30 L2882.76 414.45 L2897.85 411.73 L2913.07 409.13 L2928.30 406.41 L2943.52 403.81 L2958.74 401.33 L2973.96 398.86 L2989.18 396.38 L3004.40 394.03 L3019.62 391.68 L3034.84 389.33 L3050.07 386.98 L3065.29 384.75 L3080.51 382.65 L3095.73 380.42 L3110.95 378.32 L3126.17 376.21 L3141.39 374.11 L3156.61 372.13 L3171.84 370.02 L3187.06 368.04 L3202.28 366.19 L3217.50 364.21 L3232.72 362.35 L3247.94 360.50 L3263.04 358.64 L3278.26 356.78 L3293.48 355.05 L3308.70 353.32 L3323.93 351.58 L3339.15 349.85 L3354.37 348.12 L3369.59 346.39 L3384.81 344.78 L3400.03 343.17 L3415.25 341.44 L3430.47 339.83 L3445.70 338.22 L3460.92 336.73 L3476.14 335.13 L3491.36 333.64 L3506.58 332.03 L3521.80 330.55 L3537.02 329.06 L3552.24 327.58 L3567.47 326.09 L3582.69 324.61 L3597.91 323.12 L3613.01 321.64 L3628.23 320.28 L3643.45 318.79 L3658.67 317.43 L3673.89 316.07 L3689.11 314.58 L3704.33 313.22 L3719.55 311.86 L3734.78 310.50 L3750.00 309.14 L3765.22 307.78 L3780.44 306.41 L3795.66 305.05" stroke-linejoin="round" style="fill:none;stroke:#0000FF;stroke-width:8.64"/>
	<path d=" M585.09 2425.95 L600.31 2425.95 L615.53 2425.95 L630.75 2425.82 L645.98 2425.82 L661.20 2425.58 L676.42 2425.08 L691.64 2424.21 L706.86 2422.85 L721.96 2421.00 L737.18 2418.27 L752.40 2414.93 L767.62 2410.60 L782.84 2405.28 L798.06 2398.97 L813.28 2391.54 L828.51 2383.13 L843.73 2373.60 L858.95 2362.96 L874.17 2351.32 L889.39 2338.58 L904.61 2324.72 L919.83 2309.99 L935.05 2294.27 L950.28 2277.57 L965.50 2260.12 L980.72 2241.80 L995.94 2222.87 L1011.16 2203.19 L1026.38 2182.89 L1041.60 2161.98 L1056.83 2140.57 L1072.05 2118.79 L1087.14 2096.64 L1102.37 2074.11 L1117.59 2051.22 L1132.81 2028.20 L1148.03 2005.06 L1163.25 1981.67 L1178.47 1958.28 L1193.69 1934.89 L1208.91 1911.50 L1224.13 1888.11 L1239.36 1864.85 L1254.58 1841.71 L1269.80 1818.69 L1285.02 1795.92 L1300.24 1773.39 L1315.46 1750.99 L1330.68 1728.97 L1345.90 1707.18 L1361.13 1685.65 L1376.35 1664.61 L1391.57 1643.82 L1406.79 1623.40 L1422.01 1603.36 L1437.23 1583.68 L1452.33 1564.37 L1467.55 1545.44 L1482.77 1526.88 L1497.99 1508.68 L1513.21 1490.86 L1528.44 1473.41 L1543.66 1456.34 L1558.88 1439.63 L1574.10 1423.29 L1589.32 1407.21 L1604.54 1391.61 L1619.76 1376.39 L1634.98 1361.42 L1650.21 1346.81 L1665.43 1332.58 L1680.65 1318.60 L1695.87 1304.98 L1711.09 1291.74 L1726.31 1278.75 L1741.53 1266.00 L1756.76 1253.63 L1771.98 1241.62 L1787.20 1229.74 L1802.30 1218.23 L1817.52 1207.10 L1832.74 1196.08 L1847.96 1185.44 L1863.18 1174.92 L1878.40 1164.77 L1893.62 1154.87 L1908.84 1145.22 L1924.07 1135.69 L1939.29 1126.53 L1954.51 1117.50 L1969.73 1108.71 L1984.95 1100.17 L2000.17 1091.76 L2015.39 1083.59 L2030.61 1075.67 L2045.84 1067.87 L2061.06 1060.32 L2076.28 1052.90 L2091.50 1045.72 L2106.72 1038.67 L2121.94 1031.86 L2137.16 1025.18 L2152.38 1018.62 L2167.48 1012.31 L2182.70 1006.12 L2197.92 999.93 L2213.14 994.11 L2228.37 988.30 L2243.59 982.61 L2258.81 977.16 L2274.03 971.72 L2289.25 966.52 L2304.47 961.44 L2319.69 956.37 L2334.91 951.54 L2350.14 946.72 L2365.36 942.14 L2380.58 937.56 L2395.80 933.10 L2411.02 928.77 L2426.24 924.57 L2441.46 920.48 L2456.68 916.40 L2471.91 912.44 L2487.13 908.60 L2502.35 904.76 L2517.57 901.18 L2532.67 897.46 L2547.89 894.00 L2563.11 890.53 L2578.33 887.19 L2593.55 883.85 L2608.77 880.63 L2623.99 877.54 L2639.22 874.44 L2654.44 871.47 L2669.66 868.50 L2684.88 865.53 L2700.10 862.69 L2715.32 859.97 L2730.54 857.24 L2745.76 854.64 L2760.99 852.05 L2776.21 849.45 L2791.43 846.97 L2806.65 844.50 L2821.87 842.15 L2837.09 839.79 L2852.31 837.44 L2867.53 835.21 L2882.76 832.99 L2897.85 830.88 L2913.07 828.66 L2928.30 826.55 L2943.52 824.57 L2958.74 822.59 L2973.96 820.61 L2989.18 818.63 L3004.40 816.65 L3019.62 814.80 L3034.84 812.94 L3050.07 811.21 L3065.29 809.35 L3080.51 807.62 L3095.73 805.89 L3110.95 804.15 L3126.17 802.54 L3141.39 800.94 L3156.61 799.20 L3171.84 797.72 L3187.06 796.11 L3202.28 794.50 L3217.50 793.01 L3232.72 791.53 L3247.94 790.04 L3263.04 788.56 L3278.26 787.07 L3293.48 785.71 L3308.70 784.35 L3323.93 782.87 L3339.15 781.51 L3354.37 780.14 L3369.59 778.78 L3384.81 777.55 L3400.03 776.18 L3415.25 774.95 L3430.47 773.59 L3445.70 772.35 L3460.92 771.11 L3476.14 769.87 L3491.36 768.64 L3506.58 767.40 L3521.80 766.16 L3537.02 765.05 L3552.24 763.81 L3567.47 762.70 L3582.69 761.46 L3597.91 760.34 L3613.01 759.11 L3628.23 757.99 L3643.45 756.88 L3658.67 755.76 L3673.89 754.65 L3689.11 753.54 L3704.33 752.42 L3719.55 751.31 L3734.78 750.20 L3750.00 749.08 L3765.22 748.09 L3780.44 746.98 L3795.66 745.86" stroke-linejoin="round" style="fill:none;stroke:#FF0000;stroke-width:8.64"/>
	<line x1="521.73" y1="2489.19" x2="521.73" y2="100.86" style="stroke:#000000;stroke-width:5.76"/>
	<line x1="521.73" y1="2425.82" x2="481.76" y2="2425.82" style="stroke:#000000;stroke-width:5.76"/>
	<text x="461.83" y="2460.85" style="font-family:'Helvetica';font-size:99.99px;fill:#000000" text-anchor="end">0.00</text>
	<line x1="521.73" y1="2275.09" x2="481.76" y2="2275.09" style="stroke:#000000;stroke-width:5.76"/>
	<text x="461.83" y="2310.12" style="font-family:'Helvetica';font-size:99.99px;fill:#000000" text-anchor="end">0.10</text>
	<line x1="521.73" y1="2124.24" x2="481.76" y2="2124.24" style="stroke:#000000;stroke-width:5.76"/>
	<text x="461.83" y="2159.26" style="font-family:'Helvetica';font-size:99.99px;fill:#000000" text-anchor="end">0.20</text>
	<line x1="521.73" y1="1973.50" x2="481.76" y2="1973.50" style="stroke:#000000;stroke-width:5.76"/>
	<text x="461.83" y="2008.53" style="font-family:'Helvetica';font-size:99.99px;fill:#000000" text-anchor="end">0.30</text>
	<line x1="521.73" y1="1822.77" x2="481.76" y2="1822.77" style="stroke:#000000;stroke-width:5.76"/>
	<text x="461.83" y="1857.80" style="font-family:'Helvetica';font-size:99.99px;fill:#000000" text-anchor="end">0.40</text>
	<line x1="521.73" y1="1671.91" x2="481.76" y2="1671.91" style="stroke:#000000;stroke-width:5.76"/>
	<text x="461.83" y="1706.94" style="font-family:'Helvetica';font-size:99.99px;fill:#000000" text-anchor="end">0.50</text>
	<line x1="521.73" y1="1521.18" x2="481.76" y2="1521.18" style="stroke:#000000;stroke-width:5.76"/>
	<text x="461.83" y="1556.21" style="font-family:'Helvetica';font-size:99.99px;fill:#000000" text-anchor="end">0.60</text>
	<line x1="521.73" y1="1370.45" x2="481.76" y2="1370.45" style="stroke:#000000;stroke-width:5.76"/>
	<text x="461.83" y="1405.48" style="font-family:'Helvetica';font-size:99.99px;fill:#000000" text-anchor="end">0.70</text>
	<line x1="521.73" y1="1219.59" x2="481.76" y2="1219.59" style="stroke:#000000;stroke-width:5.76"/>
	<text x="461.83" y="1254.62" style="font-family:'Helvetica';font-size:99.99px;fill:#000000" text-anchor="end">0.80</text>
	<line x1="521.73" y1="1068.86" x2="481.76" y2="1068.86" style="stroke:#000000;stroke-width:5.76"/>
	<text x="461.83" y="1103.89" style="font-family:'Helvetica';font-size:99.99px;fill:#000000" text-anchor="end">0.90</text>
	<line x1="521.73" y1="918.01" x2="481.76" y2="918.01" style="stroke:#000000;stroke-width:5.76"/>
	<text x="461.83" y="953.03" style="font-family:'Helvetica';font-size:99.99px;fill:#000000" text-anchor="end">1.00</text>
	<line x1="521.73" y1="767.27" x2="481.76" y2="767.27" style="stroke:#000000;stroke-width:5.76"/>
	<text x="461.83" y="802.30" style="font-family:'Helvetica';font-size:99.99px;fill:#000000" text-anchor="end">1.10</text>
	<line x1="521.73" y1="616.54" x2="481.76" y2="616.54" style="stroke:#000000;stroke-width:5.76"/>
	<text x="461.83" y="651.57" style="font-family:'Helvetica';font-size:99.99px;fill:#000000" text-anchor="end">1.20</text>
	<line x1="521.73" y1="465.69" x2="481.76" y2="465.69" style="stroke:#000000;stroke-width:5.76"/>
	<text x="461.83" y="500.71" style="font-family:'Helvetica';font-size:99.99px;fill:#000000" text-anchor="end">1.30</text>
	<line x1="521.73" y1="314.95" x2="481.76" y2="314.95" style="stroke:#000000;stroke-width:5.76"/>
	<text x="461.83" y="349.98" style="font-family:'Helvetica';font-size:99.99px;fill:#000000" text-anchor="end">1.40</text>
	<line x1="521.73" y1="164.22" x2="481.76" y2="164.22" style="stroke:#000000;stroke-width:5.76"/>
	<text x="461.83" y="199.25" style="font-family:'Helvetica';font-size:99.99px;fill:#000000" text-anchor="end">1.50</text>
	<text x="190.71" y="1294.96" style="font-family:'Helvetica';font-size:99.99px;fill:#000000" transform="rotate(-90 190.71,1294.96)" text-anchor="middle">Cumulative incidence (%)</text>
	<line x1="521.73" y1="2489.19" x2="3859.02" y2="2489.19" style="stroke:#000000;stroke-width:5.76"/>
	<line x1="585.09" y1="2489.19" x2="585.09" y2="2529.16" style="stroke:#000000;stroke-width:5.76"/>
	<text x="585.09" y="2619.14" style="font-family:'Helvetica';font-size:99.99px;fill:#000000" text-anchor="middle">0</text>
	<line x1="1345.90" y1="2489.19" x2="1345.90" y2="2529.16" style="stroke:#000000;stroke-width:5.76"/>
	<text x="1345.90" y="2619.14" style="font-family:'Helvetica';font-size:99.99px;fill:#000000" text-anchor="middle">50</text>
	<line x1="2106.72" y1="2489.19" x2="2106.72" y2="2529.16" style="stroke:#000000;stroke-width:5.76"/>
	<text x="2106.72" y="2619.14" style="font-family:'Helvetica';font-size:99.99px;fill:#000000" text-anchor="middle">100</text>
	<line x1="2867.53" y1="2489.19" x2="2867.53" y2="2529.16" style="stroke:#000000;stroke-width:5.76"/>
	<text x="2867.53" y="2619.14" style="font-family:'Helvetica';font-size:99.99px;fill:#000000" text-anchor="middle">150</text>
	<line x1="3628.35" y1="2489.19" x2="3628.35" y2="2529.16" style="stroke:#000000;stroke-width:5.76"/>
	<text x="3628.35" y="2619.14" style="font-family:'Helvetica';font-size:99.99px;fill:#000000" text-anchor="middle">200</text>
	<text x="2190.38" y="2729.16" style="font-family:'Helvetica';font-size:99.99px;fill:#000000" text-anchor="middle">Days from 1 March 2020</text>
	<rect x="2717.80" y="2128.20" width="1106.70" height="326.46" style="fill:#FFFFFF"/>
	<rect x="2720.68" y="2131.08" width="1100.94" height="320.70" style="fill:none;stroke:#000000;stroke-width:5.76"/>
	<rect x="2761.11" y="2171.51" width="374.34" height="99.99" style="fill:#3333FF;fill-opacity:0.25"/>
	<rect x="2765.43" y="2175.83" width="365.70" height="91.35" style="fill:none;stroke:#0000FF;stroke-opacity:0.25;stroke-width:8.64"/>
	<rect x="2761.11" y="2311.47" width="374.34" height="99.99" style="fill:#FF3333;fill-opacity:0.25"/>
	<rect x="2765.43" y="2315.79" width="365.70" height="91.35" style="fill:none;stroke:#FF0000;stroke-opacity:0.25;stroke-width:8.64"/>
	<text x="3195.47" y="2256.53" style="font-family:'Helvetica';font-size:99.99px;fill:#000000">DOAC use</text>
	<text x="3195.47" y="2396.50" style="font-family:'Helvetica';font-size:99.99px;fill:#000000">Warfarin use</text>
</svg>
