<?xml version="1.0" encoding="UTF-8" standalone="no"?>
<!-- This is a Stata 16.1 generated SVG file (http://www.stata.com) -->

<svg version="1.1" width="5.50in" height="4.00in" viewBox="0 0 3960 2880" xmlns="http://www.w3.org/2000/svg" xmlns:xlink="http://www.w3.org/1999/xlink">
	<desc>Stata Graph - Graph</desc>
	<rect x="0" y="0" width="3960" height="2880" style="fill:#EAF2F3;stroke:none"/>
	<rect x="0.00" y="0.00" width="3959.88" height="2880.00" style="fill:#EAF2F3"/>
	<rect x="2.88" y="2.88" width="3954.12" height="2874.24" style="fill:none;stroke:#EAF2F3;stroke-width:5.76"/>
	<rect x="521.73" y="100.86" width="3337.29" height="2388.33" style="fill:#FFFFFF"/>
	<rect x="524.61" y="103.74" width="3331.53" height="2382.57" style="fill:none;stroke:#FFFFFF;stroke-width:5.76"/>
	<line x1="521.73" y1="2425.82" x2="3859.02" y2="2425.82" style="stroke:#EAF2F3;stroke-width:8.64"/>
	<line x1="521.73" y1="2199.72" x2="3859.02" y2="2199.72" style="stroke:#EAF2F3;stroke-width:8.64"/>
	<line x1="521.73" y1="1973.50" x2="3859.02" y2="1973.50" style="stroke:#EAF2F3;stroke-width:8.64"/>
	<line x1="521.73" y1="1747.28" x2="3859.02" y2="1747.28" style="stroke:#EAF2F3;stroke-width:8.64"/>
	<line x1="521.73" y1="1521.18" x2="3859.02" y2="1521.18" style="stroke:#EAF2F3;stroke-width:8.64"/>
	<line x1="521.73" y1="1294.96" x2="3859.02" y2="1294.96" style="stroke:#EAF2F3;stroke-width:8.64"/>
	<line x1="521.73" y1="1068.86" x2="3859.02" y2="1068.86" style="stroke:#EAF2F3;stroke-width:8.64"/>
	<line x1="521.73" y1="842.64" x2="3859.02" y2="842.64" style="stroke:#EAF2F3;stroke-width:8.64"/>
	<line x1="521.73" y1="616.54" x2="3859.02" y2="616.54" style="stroke:#EAF2F3;stroke-width:8.64"/>
	<line x1="521.73" y1="390.32" x2="3859.02" y2="390.32" style="stroke:#EAF2F3;stroke-width:8.64"/>
	<defs>
		<path id="path_IppiFxwC" d="M600.31 2425.82 L600.31 2425.82 L615.53 2425.82 L630.75 2425.70 L645.98 2425.45 L661.20 2424.71 L676.42 2423.47 L691.64 2421.49 L706.86 2418.52 L722.08 2414.44 L737.30 2409.12 L752.52 2402.43 L767.75 2394.27 L782.97 2384.74 L798.19 2373.72 L813.41 2361.35 L828.63 2347.49 L843.85 2332.27 L859.07 2315.81 L874.29 2298.11 L889.51 2279.17 L904.61 2259.25 L919.83 2238.34 L935.05 2216.56 L950.28 2194.03 L965.50 2170.77 L980.72 2147.01 L995.94 2122.63 L1011.16 2098.00 L1026.38 2072.88 L1041.60 2047.63 L1056.83 2022.14 L1072.05 1996.52 L1087.27 1971.03 L1102.49 1945.41 L1117.71 1920.04 L1132.93 1894.67 L1148.15 1869.67 L1163.37 1844.80 L1178.60 1820.30 L1193.82 1796.04 L1209.04 1772.28 L1224.26 1748.89 L1239.48 1725.87 L1254.70 1703.35 L1269.80 1681.20 L1285.02 1659.54 L1300.24 1638.38 L1315.46 1617.71 L1330.68 1597.41 L1345.90 1577.61 L1361.13 1558.31 L1376.35 1539.50 L1391.57 1521.18 L1406.79 1503.24 L1422.01 1485.79 L1437.23 1468.71 L1452.45 1452.13 L1467.67 1436.04 L1482.90 1420.20 L1498.12 1404.98 L1513.34 1390.00 L1528.56 1375.52 L1543.78 1361.42 L1559.00 1347.68 L1574.22 1334.31 L1589.44 1321.32 L1604.67 1308.70 L1619.76 1296.45 L1634.98 1284.44 L1650.21 1272.81 L1665.43 1261.55 L1680.65 1250.53 L1695.87 1239.89 L1711.09 1229.49 L1726.31 1219.47 L1741.53 1209.69 L1756.76 1200.17 L1771.98 1190.88 L1787.20 1181.85 L1802.42 1173.19 L1817.64 1164.65 L1832.86 1156.36 L1848.08 1148.44 L1863.30 1140.64 L1878.53 1133.09 L1893.75 1125.67 L1908.97 1118.49 L1924.19 1111.56 L1939.41 1104.87 L1954.63 1098.32 L1969.85 1091.88 L1984.95 1085.69 L2000.17 1079.75 L2015.39 1073.94 L2030.61 1068.24 L2045.84 1062.67 L2061.06 1057.35 L2076.28 1052.16 L2091.50 1047.08 L2106.72 1042.13 L2121.94 1037.43 L2137.16 1032.73 L2152.38 1028.27 L2167.61 1023.82 L2182.83 1019.61 L2198.05 1015.40 L2213.27 1011.44 L2228.49 1007.48 L2243.71 1003.77 L2258.93 1000.06 L2274.15 996.47 L2289.38 993.00 L2304.60 989.54 L2319.82 986.19 L2335.04 983.10 L2350.14 979.88 L2365.36 976.91 L2380.58 973.94 L2395.80 971.10 L2411.02 968.25 L2426.24 965.53 L2441.46 962.93 L2456.68 960.33 L2471.91 957.85 L2487.13 955.50 L2502.35 953.15 L2517.57 950.80 L2532.79 948.57 L2548.01 946.47 L2563.23 944.37 L2578.45 942.26 L2593.68 940.28 L2608.90 938.30 L2624.12 936.45 L2639.34 934.59 L2654.56 932.73 L2669.78 931.00 L2685.00 929.39 L2700.22 927.66 L2715.32 926.05 L2730.54 924.57 L2745.76 922.96 L2760.99 921.47 L2776.21 919.99 L2791.43 918.62 L2806.65 917.26 L2821.87 915.90 L2837.09 914.66 L2852.31 913.30 L2867.53 912.07 L2882.76 910.83 L2897.98 909.71 L2913.20 908.60 L2928.42 907.49 L2943.64 906.37 L2958.86 905.26 L2974.08 904.27 L2989.30 903.16 L3004.53 902.17 L3019.75 901.30 L3034.97 900.31 L3050.19 899.32 L3065.41 898.45 L3080.51 897.59 L3095.73 896.72 L3110.95 895.85 L3126.17 894.99 L3141.39 894.25 L3156.61 893.38 L3171.84 892.64 L3187.06 891.89 L3202.28 891.15 L3217.50 890.41 L3232.72 889.67 L3247.94 889.05 L3263.16 888.31 L3278.39 887.69 L3293.61 886.94 L3308.83 886.33 L3324.05 885.71 L3339.27 885.09 L3354.49 884.47 L3369.71 883.85 L3384.93 883.23 L3400.16 882.74 L3415.38 882.12 L3430.47 881.50 L3445.70 881.00 L3460.92 880.39 L3476.14 879.89 L3491.36 879.39 L3506.58 878.78 L3521.80 878.28 L3537.02 877.79 L3552.24 877.29 L3567.47 876.80 L3582.69 876.30 L3597.91 875.81 L3613.13 875.31 L3628.35 874.82 L3643.57 874.32 L3658.79 873.83 L3674.01 873.33 L3689.24 872.96 L3704.46 872.46 L3719.68 871.97 L3734.90 871.47 L3750.12 871.10 L3765.34 870.61 L3780.56 870.24 L3795.66 869.74 L3795.66 727.05 L3780.56 727.55 L3765.34 728.04 L3750.12 728.54 L3734.90 729.03 L3719.68 729.53 L3704.46 730.02 L3689.24 730.52 L3674.01 731.01 L3658.79 731.51 L3643.57 732.00 L3628.35 732.50 L3613.13 733.12 L3597.91 733.61 L3582.69 734.11 L3567.47 734.73 L3552.24 735.22 L3537.02 735.84 L3521.80 736.34 L3506.58 736.95 L3491.36 737.45 L3476.14 738.07 L3460.92 738.69 L3445.70 739.31 L3430.47 739.80 L3415.38 740.42 L3400.16 741.04 L3384.93 741.78 L3369.71 742.40 L3354.49 743.02 L3339.27 743.64 L3324.05 744.38 L3308.83 745.00 L3293.61 745.74 L3278.39 746.48 L3263.16 747.23 L3247.94 747.97 L3232.72 748.71 L3217.50 749.45 L3202.28 750.20 L3187.06 751.06 L3171.84 751.80 L3156.61 752.67 L3141.39 753.54 L3126.17 754.40 L3110.95 755.27 L3095.73 756.26 L3080.51 757.13 L3065.41 758.12 L3050.19 759.11 L3034.97 760.10 L3019.75 761.09 L3004.53 762.08 L2989.30 763.19 L2974.08 764.30 L2958.86 765.42 L2943.64 766.53 L2928.42 767.77 L2913.20 768.88 L2897.98 770.12 L2882.76 771.48 L2867.53 772.72 L2852.31 774.08 L2837.09 775.44 L2821.87 776.80 L2806.65 778.29 L2791.43 779.77 L2776.21 781.26 L2760.99 782.87 L2745.76 784.48 L2730.54 786.08 L2715.32 787.69 L2700.22 789.43 L2685.00 791.28 L2669.78 793.14 L2654.56 794.99 L2639.34 796.85 L2624.12 798.83 L2608.90 800.94 L2593.68 803.04 L2578.45 805.14 L2563.23 807.37 L2548.01 809.60 L2532.79 811.95 L2517.57 814.30 L2502.35 816.78 L2487.13 819.37 L2471.91 821.97 L2456.68 824.70 L2441.46 827.42 L2426.24 830.26 L2411.02 833.11 L2395.80 836.20 L2380.58 839.30 L2365.36 842.39 L2350.14 845.73 L2335.04 849.08 L2319.82 852.54 L2304.60 856.01 L2289.38 859.72 L2274.15 863.43 L2258.93 867.39 L2243.71 871.35 L2228.49 875.43 L2213.27 879.64 L2198.05 883.97 L2182.83 888.43 L2167.61 893.01 L2152.38 897.83 L2137.16 902.66 L2121.94 907.61 L2106.72 912.81 L2091.50 918.13 L2076.28 923.58 L2061.06 929.14 L2045.84 934.96 L2030.61 940.90 L2015.39 947.09 L2000.17 953.40 L1984.95 959.83 L1969.85 966.52 L1954.63 973.32 L1939.41 980.50 L1924.19 987.68 L1908.97 995.23 L1893.75 1002.90 L1878.53 1010.82 L1863.30 1018.99 L1848.08 1027.40 L1832.86 1036.07 L1817.64 1044.98 L1802.42 1054.14 L1787.20 1063.54 L1771.98 1073.19 L1756.76 1083.22 L1741.53 1093.49 L1726.31 1104.01 L1711.09 1114.90 L1695.87 1126.04 L1680.65 1137.55 L1665.43 1149.30 L1650.21 1161.55 L1634.98 1174.05 L1619.76 1186.92 L1604.67 1200.04 L1589.44 1213.65 L1574.22 1227.64 L1559.00 1241.99 L1543.78 1256.72 L1528.56 1271.94 L1513.34 1287.54 L1498.12 1303.50 L1482.90 1319.96 L1467.67 1336.79 L1452.45 1354.11 L1437.23 1371.94 L1422.01 1390.13 L1406.79 1408.81 L1391.57 1428.00 L1376.35 1447.67 L1361.13 1467.84 L1345.90 1488.51 L1330.68 1509.55 L1315.46 1531.21 L1300.24 1553.36 L1285.02 1575.88 L1269.80 1599.02 L1254.70 1622.66 L1239.48 1646.67 L1224.26 1671.17 L1209.04 1696.17 L1193.82 1721.66 L1178.60 1747.53 L1163.37 1773.64 L1148.15 1800.25 L1132.93 1826.98 L1117.71 1854.08 L1102.49 1881.31 L1087.27 1908.78 L1072.05 1936.25 L1056.83 1963.73 L1041.60 1991.20 L1026.38 2018.55 L1011.16 2045.78 L995.94 2072.75 L980.72 2099.24 L965.50 2125.47 L950.28 2151.09 L935.05 2176.09 L919.83 2200.34 L904.61 2223.73 L889.51 2246.38 L874.29 2267.91 L859.07 2288.33 L843.85 2307.51 L828.63 2325.46 L813.41 2341.92 L798.19 2357.02 L782.97 2370.51 L767.75 2382.51 L752.52 2392.90 L737.30 2401.57 L722.08 2408.87 L706.86 2414.56 L691.64 2418.89 L676.42 2421.86 L661.20 2423.84 L645.98 2425.08 L630.75 2425.58 L615.53 2425.82 L600.31 2425.82 L600.31 2425.82 Z" stroke-linejoin="round"/>
	</defs>
	<defs>
		<clipPath id="clipPath_alnCHboW">
			<use xlink:href="#path_IppiFxwC"/>
		</clipPath>
	</defs>
	<use xlink:href="#path_IppiFxwC" style="stroke:none;fill:#3333FF;fill-opacity:0.25"/>
	<use xlink:href="#path_IppiFxwC" style="fill:none;stroke:#0000FF;stroke-opacity:0.25;stroke-width:17.28" clip-path="url(#clipPath_alnCHboW)"/>
	<defs>
		<path id="path_uYICUwED" d="M600.31 2425.82 L600.31 2425.82 L615.53 2425.82 L630.75 2425.70 L645.98 2425.58 L661.20 2424.96 L676.42 2423.97 L691.64 2422.23 L706.86 2419.88 L722.08 2416.54 L737.30 2412.21 L752.52 2406.77 L767.75 2400.21 L782.97 2392.53 L798.19 2383.62 L813.41 2373.60 L828.63 2362.46 L843.85 2350.21 L859.07 2336.97 L874.29 2322.74 L889.51 2307.64 L904.61 2291.67 L919.83 2274.97 L935.05 2257.52 L950.28 2239.57 L965.50 2221.13 L980.72 2202.20 L995.94 2182.77 L1011.16 2163.22 L1026.38 2143.29 L1041.60 2123.25 L1056.83 2103.07 L1072.05 2082.90 L1087.27 2062.61 L1102.49 2042.43 L1117.71 2022.26 L1132.93 2002.34 L1148.15 1982.54 L1163.37 1962.86 L1178.60 1943.43 L1193.82 1924.37 L1209.04 1905.56 L1224.26 1887.12 L1239.48 1868.93 L1254.70 1851.11 L1269.80 1833.66 L1285.02 1816.58 L1300.24 1799.88 L1315.46 1783.54 L1330.68 1767.58 L1345.90 1751.98 L1361.13 1736.76 L1376.35 1721.79 L1391.57 1707.31 L1406.79 1693.20 L1422.01 1679.34 L1437.23 1665.97 L1452.45 1652.86 L1467.67 1640.11 L1482.90 1627.61 L1498.12 1615.48 L1513.34 1603.73 L1528.56 1592.22 L1543.78 1581.08 L1559.00 1570.19 L1574.22 1559.67 L1589.44 1549.40 L1604.67 1539.37 L1619.76 1529.72 L1634.98 1520.19 L1650.21 1511.03 L1665.43 1502.12 L1680.65 1493.46 L1695.87 1484.92 L1711.09 1476.75 L1726.31 1468.83 L1741.53 1461.04 L1756.76 1453.49 L1771.98 1446.19 L1787.20 1439.13 L1802.42 1432.20 L1817.64 1425.40 L1832.86 1418.96 L1848.08 1412.53 L1863.30 1406.34 L1878.53 1400.40 L1893.75 1394.58 L1908.97 1388.89 L1924.19 1383.44 L1939.41 1378.12 L1954.63 1372.93 L1969.85 1367.85 L1984.95 1362.90 L2000.17 1358.20 L2015.39 1353.62 L2030.61 1349.04 L2045.84 1344.71 L2061.06 1340.50 L2076.28 1336.29 L2091.50 1332.33 L2106.72 1328.50 L2121.94 1324.66 L2137.16 1320.95 L2152.38 1317.36 L2167.61 1313.89 L2182.83 1310.55 L2198.05 1307.34 L2213.27 1304.12 L2228.49 1301.02 L2243.71 1298.05 L2258.93 1295.08 L2274.15 1292.24 L2289.38 1289.52 L2304.60 1286.79 L2319.82 1284.19 L2335.04 1281.60 L2350.14 1279.12 L2365.36 1276.77 L2380.58 1274.42 L2395.80 1272.19 L2411.02 1269.96 L2426.24 1267.73 L2441.46 1265.75 L2456.68 1263.65 L2471.91 1261.67 L2487.13 1259.81 L2502.35 1257.96 L2517.57 1256.10 L2532.79 1254.37 L2548.01 1252.64 L2563.23 1250.90 L2578.45 1249.30 L2593.68 1247.69 L2608.90 1246.20 L2624.12 1244.72 L2639.34 1243.23 L2654.56 1241.87 L2669.78 1240.51 L2685.00 1239.15 L2700.22 1237.79 L2715.32 1236.55 L2730.54 1235.31 L2745.76 1234.07 L2760.99 1232.84 L2776.21 1231.72 L2791.43 1230.61 L2806.65 1229.49 L2821.87 1228.50 L2837.09 1227.39 L2852.31 1226.40 L2867.53 1225.41 L2882.76 1224.54 L2897.98 1223.55 L2913.20 1222.69 L2928.42 1221.82 L2943.64 1220.96 L2958.86 1220.09 L2974.08 1219.22 L2989.30 1218.48 L3004.53 1217.61 L3019.75 1216.87 L3034.97 1216.13 L3050.19 1215.39 L3065.41 1214.64 L3080.51 1214.03 L3095.73 1213.28 L3110.95 1212.66 L3126.17 1211.92 L3141.39 1211.30 L3156.61 1210.68 L3171.84 1210.07 L3187.06 1209.45 L3202.28 1208.83 L3217.50 1208.33 L3232.72 1207.71 L3247.94 1207.22 L3263.16 1206.60 L3278.39 1206.11 L3293.61 1205.61 L3308.83 1205.12 L3324.05 1204.62 L3339.27 1204.13 L3354.49 1203.63 L3369.71 1203.14 L3384.93 1202.64 L3400.16 1202.15 L3415.38 1201.65 L3430.47 1201.28 L3445.70 1200.78 L3460.92 1200.41 L3476.14 1199.92 L3491.36 1199.55 L3506.58 1199.05 L3521.80 1198.68 L3537.02 1198.31 L3552.24 1197.94 L3567.47 1197.44 L3582.69 1197.07 L3597.91 1196.70 L3613.13 1196.33 L3628.35 1195.96 L3643.57 1195.59 L3658.79 1195.21 L3674.01 1194.84 L3689.24 1194.47 L3704.46 1194.10 L3719.68 1193.73 L3734.90 1193.36 L3750.12 1192.99 L3765.34 1192.62 L3780.56 1192.24 L3795.66 1191.87 L3795.66 955.13 L3780.56 955.50 L3765.34 956.00 L3750.12 956.37 L3734.90 956.86 L3719.68 957.24 L3704.46 957.73 L3689.24 958.10 L3674.01 958.60 L3658.79 958.97 L3643.57 959.46 L3628.35 959.96 L3613.13 960.33 L3597.91 960.83 L3582.69 961.32 L3567.47 961.82 L3552.24 962.19 L3537.02 962.68 L3521.80 963.18 L3506.58 963.67 L3491.36 964.17 L3476.14 964.66 L3460.92 965.16 L3445.70 965.78 L3430.47 966.27 L3415.38 966.77 L3400.16 967.38 L3384.93 967.88 L3369.71 968.50 L3354.49 968.99 L3339.27 969.61 L3324.05 970.23 L3308.83 970.73 L3293.61 971.34 L3278.39 971.96 L3263.16 972.58 L3247.94 973.32 L3232.72 973.94 L3217.50 974.56 L3202.28 975.30 L3187.06 975.92 L3171.84 976.67 L3156.61 977.41 L3141.39 978.15 L3126.17 978.89 L3110.95 979.64 L3095.73 980.50 L3080.51 981.24 L3065.41 982.11 L3050.19 982.98 L3034.97 983.84 L3019.75 984.71 L3004.53 985.58 L2989.30 986.57 L2974.08 987.56 L2958.86 988.42 L2943.64 989.41 L2928.42 990.53 L2913.20 991.52 L2897.98 992.63 L2882.76 993.74 L2867.53 994.86 L2852.31 995.97 L2837.09 997.21 L2821.87 998.45 L2806.65 999.68 L2791.43 1000.92 L2776.21 1002.28 L2760.99 1003.64 L2745.76 1005.01 L2730.54 1006.49 L2715.32 1007.98 L2700.22 1009.46 L2685.00 1010.95 L2669.78 1012.55 L2654.56 1014.16 L2639.34 1015.90 L2624.12 1017.63 L2608.90 1019.36 L2593.68 1021.22 L2578.45 1023.07 L2563.23 1024.93 L2548.01 1026.91 L2532.79 1029.01 L2517.57 1030.99 L2502.35 1033.22 L2487.13 1035.45 L2471.91 1037.68 L2456.68 1040.03 L2441.46 1042.38 L2426.24 1044.85 L2411.02 1047.45 L2395.80 1050.05 L2380.58 1052.65 L2365.36 1055.50 L2350.14 1058.34 L2335.04 1061.19 L2319.82 1064.28 L2304.60 1067.25 L2289.38 1070.47 L2274.15 1073.81 L2258.93 1077.15 L2243.71 1080.62 L2228.49 1084.21 L2213.27 1087.80 L2198.05 1091.63 L2182.83 1095.47 L2167.61 1099.43 L2152.38 1103.64 L2137.16 1107.84 L2121.94 1112.18 L2106.72 1116.63 L2091.50 1121.21 L2076.28 1126.04 L2061.06 1130.86 L2045.84 1135.94 L2030.61 1141.01 L2015.39 1146.33 L2000.17 1151.90 L1984.95 1157.47 L1969.85 1163.29 L1954.63 1169.23 L1939.41 1175.41 L1924.19 1181.73 L1908.97 1188.28 L1893.75 1194.97 L1878.53 1201.77 L1863.30 1208.95 L1848.08 1216.25 L1832.86 1223.68 L1817.64 1231.47 L1802.42 1239.39 L1787.20 1247.56 L1771.98 1255.98 L1756.76 1264.64 L1741.53 1273.55 L1726.31 1282.71 L1711.09 1292.24 L1695.87 1301.89 L1680.65 1311.91 L1665.43 1322.19 L1650.21 1332.71 L1634.98 1343.60 L1619.76 1354.73 L1604.67 1366.24 L1589.44 1378.12 L1574.22 1390.25 L1559.00 1402.75 L1543.78 1415.50 L1528.56 1428.74 L1513.34 1442.23 L1498.12 1456.21 L1482.90 1470.44 L1467.67 1485.17 L1452.45 1500.14 L1437.23 1515.61 L1422.01 1531.58 L1406.79 1547.79 L1391.57 1564.50 L1376.35 1581.57 L1361.13 1599.15 L1345.90 1617.09 L1330.68 1635.41 L1315.46 1654.22 L1300.24 1673.52 L1285.02 1693.08 L1269.80 1713.25 L1254.70 1733.79 L1239.48 1754.71 L1224.26 1775.99 L1209.04 1797.77 L1193.82 1819.80 L1178.60 1842.32 L1163.37 1865.09 L1148.15 1888.11 L1132.93 1911.38 L1117.71 1934.89 L1102.49 1958.53 L1087.27 1982.29 L1072.05 2006.17 L1056.83 2029.93 L1041.60 2053.82 L1026.38 2077.46 L1011.16 2100.97 L995.94 2124.24 L980.72 2147.13 L965.50 2169.65 L950.28 2191.68 L935.05 2213.21 L919.83 2234.00 L904.61 2254.18 L889.51 2273.48 L874.29 2291.92 L859.07 2309.37 L843.85 2325.71 L828.63 2340.93 L813.41 2355.04 L798.19 2367.78 L782.97 2379.29 L767.75 2389.32 L752.52 2398.10 L737.30 2405.53 L722.08 2411.59 L706.86 2416.42 L691.64 2420.01 L676.42 2422.61 L661.20 2424.21 L645.98 2425.20 L630.75 2425.70 L615.53 2425.82 L600.31 2425.82 L600.31 2425.82 Z" stroke-linejoin="round"/>
	</defs>
	<defs>
		<clipPath id="clipPath_HaFIDhdl">
			<use xlink:href="#path_uYICUwED"/>
		</clipPath>
	</defs>
	<use xlink:href="#path_uYICUwED" style="stroke:none;fill:#FF3333;fill-opacity:0.25"/>
	<use xlink:href="#path_uYICUwED" style="fill:none;stroke:#FF0000;stroke-opacity:0.25;stroke-width:17.28" clip-path="url(#clipPath_HaFIDhdl)"/>
	<path d=" M585.09 2425.95 L600.31 2425.95 L615.53 2425.82 L630.75 2425.70 L645.98 2425.33 L661.20 2424.46 L676.42 2422.85 L691.64 2420.38 L706.86 2416.79 L721.96 2411.96 L737.18 2405.78 L752.40 2398.10 L767.62 2388.94 L782.84 2378.30 L798.06 2366.05 L813.28 2352.31 L828.51 2337.22 L843.73 2320.76 L858.95 2302.94 L874.17 2283.88 L889.39 2263.71 L904.61 2242.42 L919.83 2220.27 L935.05 2197.25 L950.28 2173.49 L965.50 2149.11 L980.72 2124.11 L995.94 2098.74 L1011.16 2072.88 L1026.38 2046.77 L1041.60 2020.41 L1056.83 1994.05 L1072.05 1967.44 L1087.14 1940.96 L1102.37 1914.47 L1117.59 1888.11 L1132.81 1862.00 L1148.03 1836.01 L1163.25 1810.40 L1178.47 1785.03 L1193.69 1760.03 L1208.91 1735.40 L1224.13 1711.14 L1239.36 1687.38 L1254.58 1664.12 L1269.80 1641.22 L1285.02 1618.82 L1300.24 1597.04 L1315.46 1575.63 L1330.68 1554.72 L1345.90 1534.18 L1361.13 1514.25 L1376.35 1494.82 L1391.57 1475.76 L1406.79 1457.20 L1422.01 1439.13 L1437.23 1421.56 L1452.33 1404.36 L1467.55 1387.65 L1482.77 1371.32 L1497.99 1355.48 L1513.21 1340.01 L1528.44 1325.03 L1543.66 1310.43 L1558.88 1296.07 L1574.10 1282.34 L1589.32 1268.85 L1604.54 1255.73 L1619.76 1242.98 L1634.98 1230.61 L1650.21 1218.48 L1665.43 1206.85 L1680.65 1195.46 L1695.87 1184.32 L1711.09 1173.56 L1726.31 1163.16 L1741.53 1152.89 L1756.76 1142.99 L1771.98 1133.46 L1787.20 1124.06 L1802.30 1115.02 L1817.52 1106.24 L1832.74 1097.70 L1847.96 1089.28 L1863.18 1081.24 L1878.40 1073.44 L1893.62 1065.77 L1908.84 1058.34 L1924.07 1051.17 L1939.29 1044.11 L1954.51 1037.30 L1969.73 1030.75 L1984.95 1024.31 L2000.17 1018.00 L2015.39 1011.94 L2030.61 1006.12 L2045.84 1000.30 L2061.06 994.73 L2076.28 989.41 L2091.50 984.09 L2106.72 979.02 L2121.94 974.07 L2137.16 969.24 L2152.38 964.54 L2167.48 959.96 L2182.70 955.50 L2197.92 951.30 L2213.14 947.09 L2228.37 943.00 L2243.59 939.04 L2258.81 935.21 L2274.03 931.50 L2289.25 927.91 L2304.47 924.32 L2319.69 920.98 L2334.91 917.63 L2350.14 914.29 L2365.36 911.20 L2380.58 908.11 L2395.80 905.14 L2411.02 902.29 L2426.24 899.44 L2441.46 896.72 L2456.68 894.12 L2471.91 891.52 L2487.13 888.92 L2502.35 886.57 L2517.57 884.10 L2532.67 881.87 L2547.89 879.64 L2563.11 877.41 L2578.33 875.31 L2593.55 873.21 L2608.77 871.23 L2623.99 869.25 L2639.22 867.27 L2654.44 865.41 L2669.66 863.68 L2684.88 861.82 L2700.10 860.21 L2715.32 858.48 L2730.54 856.87 L2745.76 855.26 L2760.99 853.78 L2776.21 852.29 L2791.43 850.81 L2806.65 849.32 L2821.87 847.96 L2837.09 846.60 L2852.31 845.24 L2867.53 844.00 L2882.76 842.76 L2897.85 841.53 L2913.07 840.29 L2928.30 839.17 L2943.52 838.06 L2958.74 836.95 L2973.96 835.83 L2989.18 834.84 L3004.40 833.73 L3019.62 832.74 L3034.84 831.75 L3050.07 830.76 L3065.29 829.89 L3080.51 828.90 L3095.73 828.04 L3110.95 827.17 L3126.17 826.30 L3141.39 825.44 L3156.61 824.70 L3171.84 823.83 L3187.06 823.09 L3202.28 822.34 L3217.50 821.60 L3232.72 820.86 L3247.94 820.12 L3263.04 819.37 L3278.26 818.63 L3293.48 818.01 L3308.70 817.27 L3323.93 816.65 L3339.15 816.03 L3354.37 815.41 L3369.59 814.67 L3384.81 814.05 L3400.03 813.56 L3415.25 812.94 L3430.47 812.32 L3445.70 811.70 L3460.92 811.21 L3476.14 810.59 L3491.36 810.09 L3506.58 809.47 L3521.80 808.98 L3537.02 808.36 L3552.24 807.87 L3567.47 807.37 L3582.69 806.88 L3597.91 806.26 L3613.01 805.76 L3628.23 805.27 L3643.45 804.77 L3658.67 804.28 L3673.89 803.78 L3689.11 803.29 L3704.33 802.79 L3719.55 802.42 L3734.78 801.93 L3750.00 801.43 L3765.22 800.94 L3780.44 800.44 L3795.66 799.94" stroke-linejoin="round" style="fill:none;stroke:#0000FF;stroke-width:8.64"/>
	<path d=" M585.09 2425.95 L600.31 2425.95 L615.53 2425.95 L630.75 2425.82 L645.98 2425.45 L661.20 2424.71 L676.42 2423.35 L691.64 2421.37 L706.86 2418.40 L721.96 2414.31 L737.18 2409.24 L752.40 2402.93 L767.62 2395.26 L782.84 2386.47 L798.06 2376.32 L813.28 2365.06 L828.51 2352.56 L843.73 2338.82 L858.95 2324.10 L874.17 2308.38 L889.39 2291.67 L904.61 2274.10 L919.83 2255.79 L935.05 2236.73 L950.28 2217.05 L965.50 2196.88 L980.72 2176.21 L995.94 2155.17 L1011.16 2133.76 L1026.38 2112.11 L1041.60 2090.33 L1056.83 2068.42 L1072.05 2046.52 L1087.14 2024.49 L1102.37 2002.59 L1117.59 1980.80 L1132.81 1959.15 L1148.03 1937.61 L1163.25 1916.33 L1178.47 1895.41 L1193.69 1874.62 L1208.91 1854.20 L1224.13 1834.16 L1239.36 1814.48 L1254.58 1795.17 L1269.80 1776.36 L1285.02 1757.80 L1300.24 1739.61 L1315.46 1721.91 L1330.68 1704.59 L1345.90 1687.63 L1361.13 1671.05 L1376.35 1654.96 L1391.57 1639.24 L1406.79 1623.77 L1422.01 1608.80 L1437.23 1594.20 L1452.33 1579.97 L1467.55 1566.11 L1482.77 1552.62 L1497.99 1539.50 L1513.21 1526.63 L1528.44 1514.25 L1543.66 1502.12 L1558.88 1490.24 L1574.10 1478.86 L1589.32 1467.60 L1604.54 1456.71 L1619.76 1446.19 L1634.98 1435.92 L1650.21 1425.89 L1665.43 1416.24 L1680.65 1406.71 L1695.87 1397.55 L1711.09 1388.64 L1726.31 1379.98 L1741.53 1371.56 L1756.76 1363.40 L1771.98 1355.35 L1787.20 1347.68 L1802.30 1340.13 L1817.52 1332.83 L1832.74 1325.65 L1847.96 1318.84 L1863.18 1312.04 L1878.40 1305.60 L1893.62 1299.29 L1908.84 1293.10 L1924.07 1287.04 L1939.29 1281.35 L1954.51 1275.65 L1969.73 1270.21 L1984.95 1264.76 L2000.17 1259.69 L2015.39 1254.62 L2030.61 1249.67 L2045.84 1244.96 L2061.06 1240.39 L2076.28 1235.93 L2091.50 1231.47 L2106.72 1227.27 L2121.94 1223.18 L2137.16 1219.10 L2152.38 1215.26 L2167.48 1211.55 L2182.70 1207.84 L2197.92 1204.25 L2213.14 1200.78 L2228.37 1197.44 L2243.59 1194.10 L2258.81 1191.01 L2274.03 1187.91 L2289.25 1184.82 L2304.47 1181.97 L2319.69 1179.13 L2334.91 1176.28 L2350.14 1173.68 L2365.36 1171.08 L2380.58 1168.48 L2395.80 1166.01 L2411.02 1163.66 L2426.24 1161.31 L2441.46 1159.08 L2456.68 1156.85 L2471.91 1154.62 L2487.13 1152.64 L2502.35 1150.54 L2517.57 1148.56 L2532.67 1146.70 L2547.89 1144.85 L2563.11 1142.99 L2578.33 1141.26 L2593.55 1139.53 L2608.77 1137.79 L2623.99 1136.18 L2639.22 1134.58 L2654.44 1133.09 L2669.66 1131.61 L2684.88 1130.12 L2700.10 1128.64 L2715.32 1127.27 L2730.54 1125.91 L2745.76 1124.68 L2760.99 1123.31 L2776.21 1122.08 L2791.43 1120.84 L2806.65 1119.72 L2821.87 1118.61 L2837.09 1117.50 L2852.31 1116.38 L2867.53 1115.27 L2882.76 1114.28 L2897.85 1113.17 L2913.07 1112.18 L2928.30 1111.31 L2943.52 1110.32 L2958.74 1109.45 L2973.96 1108.46 L2989.18 1107.60 L3004.40 1106.73 L3019.62 1105.99 L3034.84 1105.12 L3050.07 1104.38 L3065.29 1103.51 L3080.51 1102.77 L3095.73 1102.03 L3110.95 1101.29 L3126.17 1100.67 L3141.39 1099.92 L3156.61 1099.18 L3171.84 1098.56 L3187.06 1097.94 L3202.28 1097.33 L3217.50 1096.58 L3232.72 1096.09 L3247.94 1095.47 L3263.04 1094.85 L3278.26 1094.23 L3293.48 1093.74 L3308.70 1093.12 L3323.93 1092.62 L3339.15 1092.00 L3354.37 1091.51 L3369.59 1091.01 L3384.81 1090.52 L3400.03 1090.02 L3415.25 1089.41 L3430.47 1089.03 L3445.70 1088.54 L3460.92 1088.04 L3476.14 1087.55 L3491.36 1087.05 L3506.58 1086.68 L3521.80 1086.19 L3537.02 1085.69 L3552.24 1085.32 L3567.47 1084.83 L3582.69 1084.46 L3597.91 1083.96 L3613.01 1083.59 L3628.23 1083.22 L3643.45 1082.72 L3658.67 1082.35 L3673.89 1081.98 L3689.11 1081.49 L3704.33 1081.11 L3719.55 1080.74 L3734.78 1080.37 L3750.00 1079.88 L3765.22 1079.50 L3780.44 1079.13 L3795.66 1078.76" stroke-linejoin="round" style="fill:none;stroke:#FF0000;stroke-width:8.64"/>
	<line x1="521.73" y1="2489.19" x2="521.73" y2="100.86" style="stroke:#000000;stroke-width:5.76"/>
	<line x1="521.73" y1="2425.82" x2="481.76" y2="2425.82" style="stroke:#000000;stroke-width:5.76"/>
	<text x="461.83" y="2460.85" style="font-family:'Helvetica';font-size:99.99px;fill:#000000" text-anchor="end">0.00</text>
	<line x1="521.73" y1="2199.72" x2="481.76" y2="2199.72" style="stroke:#000000;stroke-width:5.76"/>
	<text x="461.83" y="2234.75" style="font-family:'Helvetica';font-size:99.99px;fill:#000000" text-anchor="end">0.10</text>
	<line x1="521.73" y1="1973.50" x2="481.76" y2="1973.50" style="stroke:#000000;stroke-width:5.76"/>
	<text x="461.83" y="2008.53" style="font-family:'Helvetica';font-size:99.99px;fill:#000000" text-anchor="end">0.20</text>
	<line x1="521.73" y1="1747.28" x2="481.76" y2="1747.28" style="stroke:#000000;stroke-width:5.76"/>
	<text x="461.83" y="1782.31" style="font-family:'Helvetica';font-size:99.99px;fill:#000000" text-anchor="end">0.30</text>
	<line x1="521.73" y1="1521.18" x2="481.76" y2="1521.18" style="stroke:#000000;stroke-width:5.76"/>
	<text x="461.83" y="1556.21" style="font-family:'Helvetica';font-size:99.99px;fill:#000000" text-anchor="end">0.40</text>
	<line x1="521.73" y1="1294.96" x2="481.76" y2="1294.96" style="stroke:#000000;stroke-width:5.76"/>
	<text x="461.83" y="1329.99" style="font-family:'Helvetica';font-size:99.99px;fill:#000000" text-anchor="end">0.50</text>
	<line x1="521.73" y1="1068.86" x2="481.76" y2="1068.86" style="stroke:#000000;stroke-width:5.76"/>
	<text x="461.83" y="1103.89" style="font-family:'Helvetica';font-size:99.99px;fill:#000000" text-anchor="end">0.60</text>
	<line x1="521.73" y1="842.64" x2="481.76" y2="842.64" style="stroke:#000000;stroke-width:5.76"/>
	<text x="461.83" y="877.67" style="font-family:'Helvetica';font-size:99.99px;fill:#000000" text-anchor="end">0.70</text>
	<line x1="521.73" y1="616.54" x2="481.76" y2="616.54" style="stroke:#000000;stroke-width:5.76"/>
	<text x="461.83" y="651.57" style="font-family:'Helvetica';font-size:99.99px;fill:#000000" text-anchor="end">0.80</text>
	<line x1="521.73" y1="390.32" x2="481.76" y2="390.32" style="stroke:#000000;stroke-width:5.76"/>
	<text x="461.83" y="425.35" style="font-family:'Helvetica';font-size:99.99px;fill:#000000" text-anchor="end">0.90</text>
	<line x1="521.73" y1="164.22" x2="481.76" y2="164.22" style="stroke:#000000;stroke-width:5.76"/>
	<text x="461.83" y="199.25" style="font-family:'Helvetica';font-size:99.99px;fill:#000000" text-anchor="end">1.00</text>
	<text x="190.71" y="1294.96" style="font-family:'Helvetica';font-size:99.99px;fill:#000000" transform="rotate(-90 190.71,1294.96)" text-anchor="middle">Cumulative incidence (%)</text>
	<line x1="521.73" y1="2489.19" x2="3859.02" y2="2489.19" style="stroke:#000000;stroke-width:5.76"/>
	<line x1="585.09" y1="2489.19" x2="585.09" y2="2529.16" style="stroke:#000000;stroke-width:5.76"/>
	<text x="585.09" y="2619.14" style="font-family:'Helvetica';font-size:99.99px;fill:#000000" text-anchor="middle">0</text>
	<line x1="1345.90" y1="2489.19" x2="1345.90" y2="2529.16" style="stroke:#000000;stroke-width:5.76"/>
	<text x="1345.90" y="2619.14" style="font-family:'Helvetica';font-size:99.99px;fill:#000000" text-anchor="middle">50</text>
	<line x1="2106.72" y1="2489.19" x2="2106.72" y2="2529.16" style="stroke:#000000;stroke-width:5.76"/>
	<text x="2106.72" y="2619.14" style="font-family:'Helvetica';font-size:99.99px;fill:#000000" text-anchor="middle">100</text>
	<line x1="2867.53" y1="2489.19" x2="2867.53" y2="2529.16" style="stroke:#000000;stroke-width:5.76"/>
	<text x="2867.53" y="2619.14" style="font-family:'Helvetica';font-size:99.99px;fill:#000000" text-anchor="middle">150</text>
	<line x1="3628.35" y1="2489.19" x2="3628.35" y2="2529.16" style="stroke:#000000;stroke-width:5.76"/>
	<text x="3628.35" y="2619.14" style="font-family:'Helvetica';font-size:99.99px;fill:#000000" text-anchor="middle">200</text>
	<text x="2190.38" y="2729.16" style="font-family:'Helvetica';font-size:99.99px;fill:#000000" text-anchor="middle">Days from 1 March 2020</text>
	<rect x="2717.80" y="2128.20" width="1106.70" height="326.46" style="fill:#FFFFFF"/>
	<rect x="2720.68" y="2131.08" width="1100.94" height="320.70" style="fill:none;stroke:#000000;stroke-width:5.76"/>
	<rect x="2761.11" y="2171.51" width="374.34" height="99.99" style="fill:#3333FF;fill-opacity:0.25"/>
	<rect x="2765.43" y="2175.83" width="365.70" height="91.35" style="fill:none;stroke:#0000FF;stroke-opacity:0.25;stroke-width:8.64"/>
	<rect x="2761.11" y="2311.47" width="374.34" height="99.99" style="fill:#FF3333;fill-opacity:0.25"/>
	<rect x="2765.43" y="2315.79" width="365.70" height="91.35" style="fill:none;stroke:#FF0000;stroke-opacity:0.25;stroke-width:8.64"/>
	<text x="3195.47" y="2256.53" style="font-family:'Helvetica';font-size:99.99px;fill:#000000">DOAC use</text>
	<text x="3195.47" y="2396.50" style="font-family:'Helvetica';font-size:99.99px;fill:#000000">Warfarin use</text>
</svg>
