<?xml version="1.0" encoding="UTF-8" standalone="no"?>
<!-- This is a Stata 16.1 generated SVG file (http://www.stata.com) -->

<svg version="1.1" width="5.50in" height="4.00in" viewBox="0 0 3960 2880" xmlns="http://www.w3.org/2000/svg" xmlns:xlink="http://www.w3.org/1999/xlink">
	<desc>Stata Graph - Graph</desc>
	<rect x="0" y="0" width="3960" height="2880" style="fill:#EAF2F3;stroke:none"/>
	<rect x="0.00" y="0.00" width="3959.88" height="2880.00" style="fill:#EAF2F3"/>
	<rect x="2.88" y="2.88" width="3954.12" height="2874.24" style="fill:none;stroke:#EAF2F3;stroke-width:5.76"/>
	<rect x="521.73" y="100.86" width="3337.29" height="2388.33" style="fill:#FFFFFF"/>
	<rect x="524.61" y="103.74" width="3331.53" height="2382.57" style="fill:none;stroke:#FFFFFF;stroke-width:5.76"/>
	<line x1="521.73" y1="2425.82" x2="3859.02" y2="2425.82" style="stroke:#EAF2F3;stroke-width:8.64"/>
	<line x1="521.73" y1="1973.50" x2="3859.02" y2="1973.50" style="stroke:#EAF2F3;stroke-width:8.64"/>
	<line x1="521.73" y1="1521.18" x2="3859.02" y2="1521.18" style="stroke:#EAF2F3;stroke-width:8.64"/>
	<line x1="521.73" y1="1068.86" x2="3859.02" y2="1068.86" style="stroke:#EAF2F3;stroke-width:8.64"/>
	<line x1="521.73" y1="616.54" x2="3859.02" y2="616.54" style="stroke:#EAF2F3;stroke-width:8.64"/>
	<defs>
		<path id="path_JeYiJrRg" d="M600.31 2417.90 L600.31 2417.90 L615.53 2408.25 L630.75 2398.10 L645.98 2387.83 L661.20 2377.31 L676.42 2366.79 L691.64 2356.15 L706.86 2345.63 L722.08 2334.99 L737.30 2324.47 L752.52 2313.95 L767.75 2303.55 L782.97 2293.04 L798.19 2282.64 L813.41 2272.37 L828.63 2262.10 L843.85 2251.83 L859.07 2241.68 L874.29 2231.53 L889.51 2221.38 L904.61 2211.36 L919.83 2201.46 L935.05 2191.43 L950.28 2181.53 L965.50 2171.63 L980.72 2161.86 L995.94 2152.08 L1011.16 2142.30 L1026.38 2132.65 L1041.60 2123.00 L1056.83 2113.47 L1072.05 2103.82 L1087.27 2094.29 L1102.49 2084.88 L1117.71 2075.35 L1132.93 2065.95 L1148.15 2056.67 L1163.37 2047.26 L1178.60 2037.98 L1193.82 2028.70 L1209.04 2019.54 L1224.26 2010.38 L1239.48 2001.22 L1254.70 1992.07 L1269.80 1983.03 L1285.02 1973.87 L1300.24 1964.96 L1315.46 1955.93 L1330.68 1947.02 L1345.90 1938.11 L1361.13 1929.20 L1376.35 1920.29 L1391.57 1911.50 L1406.79 1902.72 L1422.01 1893.93 L1437.23 1885.27 L1452.45 1876.60 L1467.67 1867.94 L1482.90 1859.28 L1498.12 1850.62 L1513.34 1842.08 L1528.56 1833.54 L1543.78 1825.00 L1559.00 1816.58 L1574.22 1808.04 L1589.44 1799.63 L1604.67 1791.21 L1619.76 1782.80 L1634.98 1774.51 L1650.21 1766.09 L1665.43 1757.80 L1680.65 1749.51 L1695.87 1741.22 L1711.09 1732.93 L1726.31 1724.76 L1741.53 1716.47 L1756.76 1708.30 L1771.98 1700.13 L1787.20 1691.96 L1802.42 1683.80 L1817.64 1675.75 L1832.86 1667.58 L1848.08 1659.42 L1863.30 1651.37 L1878.53 1643.33 L1893.75 1635.28 L1908.97 1627.24 L1924.19 1619.20 L1939.41 1611.15 L1954.63 1603.11 L1969.85 1595.19 L1984.95 1587.14 L2000.17 1579.10 L2015.39 1571.18 L2030.61 1563.26 L2045.84 1555.21 L2061.06 1547.29 L2076.28 1539.37 L2091.50 1531.45 L2106.72 1523.53 L2121.94 1515.61 L2137.16 1507.69 L2152.38 1499.77 L2167.61 1491.98 L2182.83 1484.06 L2198.05 1476.14 L2213.27 1468.34 L2228.49 1460.42 L2243.71 1452.50 L2258.93 1444.70 L2274.15 1436.78 L2289.38 1428.99 L2304.60 1421.07 L2319.82 1413.27 L2335.04 1405.35 L2350.14 1397.55 L2365.36 1389.76 L2380.58 1381.84 L2395.80 1374.04 L2411.02 1366.12 L2426.24 1358.32 L2441.46 1350.53 L2456.68 1342.61 L2471.91 1334.81 L2487.13 1327.01 L2502.35 1319.09 L2517.57 1311.30 L2532.79 1303.50 L2548.01 1295.70 L2563.23 1287.78 L2578.45 1279.99 L2593.68 1272.19 L2608.90 1264.27 L2624.12 1256.47 L2639.34 1248.55 L2654.56 1240.76 L2669.78 1232.96 L2685.00 1225.04 L2700.22 1217.24 L2715.32 1209.45 L2730.54 1201.53 L2745.76 1193.73 L2760.99 1185.81 L2776.21 1178.01 L2791.43 1170.09 L2806.65 1162.30 L2821.87 1154.50 L2837.09 1146.58 L2852.31 1138.78 L2867.53 1130.99 L2882.76 1123.07 L2897.98 1115.27 L2913.20 1107.35 L2928.42 1099.55 L2943.64 1091.76 L2958.86 1083.96 L2974.08 1076.04 L2989.30 1068.24 L3004.53 1060.45 L3019.75 1052.53 L3034.97 1044.73 L3050.19 1036.93 L3065.41 1029.14 L3080.51 1021.34 L3095.73 1013.54 L3110.95 1005.75 L3126.17 997.95 L3141.39 990.15 L3156.61 982.36 L3171.84 974.56 L3187.06 966.77 L3202.28 958.97 L3217.50 951.17 L3232.72 943.38 L3247.94 935.58 L3263.16 927.91 L3278.39 920.11 L3293.61 912.31 L3308.83 904.52 L3324.05 896.84 L3339.27 889.05 L3354.49 881.38 L3369.71 873.58 L3384.93 865.91 L3400.16 858.23 L3415.38 850.44 L3430.47 842.76 L3445.70 835.09 L3460.92 827.29 L3476.14 819.62 L3491.36 811.95 L3506.58 804.28 L3521.80 796.60 L3537.02 788.93 L3552.24 781.26 L3567.47 773.59 L3582.69 765.91 L3597.91 758.36 L3613.13 750.69 L3628.35 743.02 L3643.57 735.47 L3658.79 727.80 L3674.01 720.25 L3689.24 712.57 L3704.46 705.03 L3719.68 697.35 L3734.90 689.80 L3750.12 682.26 L3765.34 674.71 L3780.56 667.16 L3795.66 659.61 L3795.66 596.25 L3780.56 604.04 L3765.34 611.84 L3750.12 619.76 L3734.90 627.56 L3719.68 635.35 L3704.46 643.27 L3689.24 651.07 L3674.01 658.87 L3658.79 666.79 L3643.57 674.58 L3628.35 682.50 L3613.13 690.42 L3597.91 698.22 L3582.69 706.14 L3567.47 713.94 L3552.24 721.86 L3537.02 729.78 L3521.80 737.57 L3506.58 745.49 L3491.36 753.41 L3476.14 761.33 L3460.92 769.13 L3445.70 777.05 L3430.47 784.97 L3415.38 792.89 L3400.16 800.81 L3384.93 808.73 L3369.71 816.65 L3354.49 824.57 L3339.27 832.49 L3324.05 840.41 L3308.83 848.33 L3293.61 856.25 L3278.39 864.17 L3263.16 872.09 L3247.94 880.01 L3232.72 887.93 L3217.50 895.85 L3202.28 903.90 L3187.06 911.82 L3171.84 919.74 L3156.61 927.66 L3141.39 935.58 L3126.17 943.62 L3110.95 951.54 L3095.73 959.46 L3080.51 967.51 L3065.41 975.43 L3050.19 983.35 L3034.97 991.39 L3019.75 999.31 L3004.53 1007.36 L2989.30 1015.28 L2974.08 1023.20 L2958.86 1031.24 L2943.64 1039.16 L2928.42 1047.21 L2913.20 1055.13 L2897.98 1063.17 L2882.76 1071.21 L2867.53 1079.13 L2852.31 1087.18 L2837.09 1095.10 L2821.87 1103.14 L2806.65 1111.19 L2791.43 1119.11 L2776.21 1127.15 L2760.99 1135.19 L2745.76 1143.11 L2730.54 1151.16 L2715.32 1159.20 L2700.22 1167.12 L2685.00 1175.17 L2669.78 1183.21 L2654.56 1191.25 L2639.34 1199.17 L2624.12 1207.22 L2608.90 1215.26 L2593.68 1223.31 L2578.45 1231.35 L2563.23 1239.27 L2548.01 1247.32 L2532.79 1255.36 L2517.57 1263.40 L2502.35 1271.45 L2487.13 1279.49 L2471.91 1287.54 L2456.68 1295.58 L2441.46 1303.62 L2426.24 1311.67 L2411.02 1319.71 L2395.80 1327.76 L2380.58 1335.80 L2365.36 1343.84 L2350.14 1351.89 L2335.04 1360.06 L2319.82 1368.10 L2304.60 1376.14 L2289.38 1384.19 L2274.15 1392.35 L2258.93 1400.40 L2243.71 1408.57 L2228.49 1416.61 L2213.27 1424.78 L2198.05 1432.82 L2182.83 1440.99 L2167.61 1449.16 L2152.38 1457.20 L2137.16 1465.37 L2121.94 1473.54 L2106.72 1481.71 L2091.50 1489.87 L2076.28 1498.04 L2061.06 1506.21 L2045.84 1514.38 L2030.61 1522.54 L2015.39 1530.84 L2000.17 1539.00 L1984.95 1547.29 L1969.85 1555.46 L1954.63 1563.75 L1939.41 1571.92 L1924.19 1580.21 L1908.97 1588.50 L1893.75 1596.80 L1878.53 1605.09 L1863.30 1613.38 L1848.08 1621.67 L1832.86 1630.09 L1817.64 1638.38 L1802.42 1646.79 L1787.20 1655.21 L1771.98 1663.62 L1756.76 1672.04 L1741.53 1680.45 L1726.31 1688.87 L1711.09 1697.28 L1695.87 1705.82 L1680.65 1714.36 L1665.43 1722.78 L1650.21 1731.32 L1634.98 1739.98 L1619.76 1748.52 L1604.67 1757.18 L1589.44 1765.72 L1574.22 1774.38 L1559.00 1783.17 L1543.78 1791.83 L1528.56 1800.62 L1513.34 1809.28 L1498.12 1818.19 L1482.90 1826.98 L1467.67 1835.89 L1452.45 1844.80 L1437.23 1853.71 L1422.01 1862.62 L1406.79 1871.65 L1391.57 1880.69 L1376.35 1889.85 L1361.13 1898.88 L1345.90 1908.04 L1330.68 1917.32 L1315.46 1926.48 L1300.24 1935.76 L1285.02 1945.16 L1269.80 1954.44 L1254.70 1963.85 L1239.48 1973.38 L1224.26 1982.78 L1209.04 1992.31 L1193.82 2001.97 L1178.60 2011.50 L1163.37 2021.27 L1148.15 2030.92 L1132.93 2040.70 L1117.71 2050.48 L1102.49 2060.38 L1087.27 2070.28 L1072.05 2080.18 L1056.83 2090.20 L1041.60 2100.23 L1026.38 2110.37 L1011.16 2120.52 L995.94 2130.79 L980.72 2140.94 L965.50 2151.34 L950.28 2161.73 L935.05 2172.13 L919.83 2182.52 L904.61 2193.04 L889.51 2203.69 L874.29 2214.33 L859.07 2224.97 L843.85 2235.74 L828.63 2246.50 L813.41 2257.39 L798.19 2268.28 L782.97 2279.30 L767.75 2290.31 L752.52 2301.45 L737.30 2312.59 L722.08 2323.73 L706.86 2334.99 L691.64 2346.25 L676.42 2357.51 L661.20 2368.90 L645.98 2380.41 L630.75 2391.79 L615.53 2403.30 L600.31 2414.69 L600.31 2417.90 Z" stroke-linejoin="round"/>
	</defs>
	<defs>
		<clipPath id="clipPath_utjoqDEG">
			<use xlink:href="#path_JeYiJrRg"/>
		</clipPath>
	</defs>
	<use xlink:href="#path_JeYiJrRg" style="stroke:none;fill:#3333FF;fill-opacity:0.25"/>
	<use xlink:href="#path_JeYiJrRg" style="fill:none;stroke:#0000FF;stroke-opacity:0.25;stroke-width:17.28" clip-path="url(#clipPath_utjoqDEG)"/>
	<defs>
		<path id="path_gjPFwDfG" d="M600.31 2418.89 L600.31 2418.89 L615.53 2410.48 L630.75 2401.57 L645.98 2392.53 L661.20 2383.38 L676.42 2374.09 L691.64 2364.94 L706.86 2355.65 L722.08 2346.37 L737.30 2337.22 L752.52 2328.06 L767.75 2319.02 L782.97 2309.87 L798.19 2300.83 L813.41 2291.80 L828.63 2282.89 L843.85 2273.98 L859.07 2265.07 L874.29 2256.28 L889.51 2247.49 L904.61 2238.71 L919.83 2230.04 L935.05 2221.38 L950.28 2212.72 L965.50 2204.18 L980.72 2195.64 L995.94 2187.10 L1011.16 2178.69 L1026.38 2170.15 L1041.60 2161.86 L1056.83 2153.44 L1072.05 2145.15 L1087.27 2136.86 L1102.49 2128.57 L1117.71 2120.40 L1132.93 2112.11 L1148.15 2104.06 L1163.37 2095.90 L1178.60 2087.85 L1193.82 2079.68 L1209.04 2071.76 L1224.26 2063.72 L1239.48 2055.80 L1254.70 2047.88 L1269.80 2039.96 L1285.02 2032.04 L1300.24 2024.24 L1315.46 2016.45 L1330.68 2008.65 L1345.90 2000.85 L1361.13 1993.18 L1376.35 1985.51 L1391.57 1977.83 L1406.79 1970.16 L1422.01 1962.49 L1437.23 1954.94 L1452.45 1947.39 L1467.67 1939.84 L1482.90 1932.29 L1498.12 1924.87 L1513.34 1917.44 L1528.56 1910.02 L1543.78 1902.59 L1559.00 1895.17 L1574.22 1887.87 L1589.44 1880.56 L1604.67 1873.26 L1619.76 1865.96 L1634.98 1858.66 L1650.21 1851.36 L1665.43 1844.18 L1680.65 1836.88 L1695.87 1829.70 L1711.09 1822.52 L1726.31 1815.35 L1741.53 1808.17 L1756.76 1801.11 L1771.98 1793.94 L1787.20 1786.88 L1802.42 1779.70 L1817.64 1772.65 L1832.86 1765.60 L1848.08 1758.54 L1863.30 1751.49 L1878.53 1744.43 L1893.75 1737.50 L1908.97 1730.45 L1924.19 1723.40 L1939.41 1716.47 L1954.63 1709.54 L1969.85 1702.48 L1984.95 1695.55 L2000.17 1688.62 L2015.39 1681.69 L2030.61 1674.76 L2045.84 1667.83 L2061.06 1660.90 L2076.28 1653.97 L2091.50 1647.04 L2106.72 1640.11 L2121.94 1633.18 L2137.16 1626.37 L2152.38 1619.44 L2167.61 1612.51 L2182.83 1605.71 L2198.05 1598.78 L2213.27 1591.97 L2228.49 1585.04 L2243.71 1578.23 L2258.93 1571.30 L2274.15 1564.50 L2289.38 1557.57 L2304.60 1550.76 L2319.82 1543.95 L2335.04 1537.02 L2350.14 1530.22 L2365.36 1523.41 L2380.58 1516.48 L2395.80 1509.67 L2411.02 1502.87 L2426.24 1495.94 L2441.46 1489.13 L2456.68 1482.32 L2471.91 1475.52 L2487.13 1468.59 L2502.35 1461.78 L2517.57 1454.97 L2532.79 1448.17 L2548.01 1441.36 L2563.23 1434.43 L2578.45 1427.62 L2593.68 1420.82 L2608.90 1414.01 L2624.12 1407.08 L2639.34 1400.28 L2654.56 1393.47 L2669.78 1386.54 L2685.00 1379.73 L2700.22 1372.93 L2715.32 1366.00 L2730.54 1359.19 L2745.76 1352.38 L2760.99 1345.58 L2776.21 1338.65 L2791.43 1331.84 L2806.65 1325.03 L2821.87 1318.10 L2837.09 1311.30 L2852.31 1304.49 L2867.53 1297.56 L2882.76 1290.75 L2897.98 1283.95 L2913.20 1277.14 L2928.42 1270.21 L2943.64 1263.40 L2958.86 1256.60 L2974.08 1249.79 L2989.30 1242.86 L3004.53 1236.05 L3019.75 1229.25 L3034.97 1222.44 L3050.19 1215.63 L3065.41 1208.70 L3080.51 1201.90 L3095.73 1195.09 L3110.95 1188.28 L3126.17 1181.48 L3141.39 1174.67 L3156.61 1167.87 L3171.84 1161.06 L3187.06 1154.25 L3202.28 1147.45 L3217.50 1140.64 L3232.72 1133.83 L3247.94 1127.03 L3263.16 1120.22 L3278.39 1113.54 L3293.61 1106.73 L3308.83 1099.92 L3324.05 1093.12 L3339.27 1086.31 L3354.49 1079.63 L3369.71 1072.82 L3384.93 1066.02 L3400.16 1059.33 L3415.38 1052.53 L3430.47 1045.84 L3445.70 1039.04 L3460.92 1032.35 L3476.14 1025.55 L3491.36 1018.87 L3506.58 1012.06 L3521.80 1005.38 L3537.02 998.69 L3552.24 991.89 L3567.47 985.20 L3582.69 978.52 L3597.91 971.84 L3613.13 965.16 L3628.35 958.35 L3643.57 951.67 L3658.79 944.98 L3674.01 938.30 L3689.24 931.62 L3704.46 925.06 L3719.68 918.38 L3734.90 911.69 L3750.12 905.01 L3765.34 898.33 L3780.56 891.77 L3795.66 885.09 L3795.66 775.81 L3780.56 782.87 L3765.34 790.04 L3750.12 797.10 L3734.90 804.15 L3719.68 811.33 L3704.46 818.38 L3689.24 825.56 L3674.01 832.62 L3658.79 839.79 L3643.57 846.97 L3628.35 854.03 L3613.13 861.20 L3597.91 868.26 L3582.69 875.43 L3567.47 882.61 L3552.24 889.79 L3537.02 896.84 L3521.80 904.02 L3506.58 911.20 L3491.36 918.38 L3476.14 925.56 L3460.92 932.73 L3445.70 939.91 L3430.47 947.09 L3415.38 954.27 L3400.16 961.44 L3384.93 968.62 L3369.71 975.80 L3354.49 982.98 L3339.27 990.15 L3324.05 997.33 L3308.83 1004.51 L3293.61 1011.69 L3278.39 1018.87 L3263.16 1026.04 L3247.94 1033.34 L3232.72 1040.52 L3217.50 1047.70 L3202.28 1054.88 L3187.06 1062.18 L3171.84 1069.36 L3156.61 1076.53 L3141.39 1083.84 L3126.17 1091.01 L3110.95 1098.19 L3095.73 1105.49 L3080.51 1112.67 L3065.41 1119.97 L3050.19 1127.15 L3034.97 1134.45 L3019.75 1141.63 L3004.53 1148.93 L2989.30 1156.11 L2974.08 1163.41 L2958.86 1170.59 L2943.64 1177.89 L2928.42 1185.07 L2913.20 1192.37 L2897.98 1199.55 L2882.76 1206.85 L2867.53 1214.03 L2852.31 1221.33 L2837.09 1228.63 L2821.87 1235.81 L2806.65 1243.11 L2791.43 1250.41 L2776.21 1257.59 L2760.99 1264.89 L2745.76 1272.19 L2730.54 1279.37 L2715.32 1286.67 L2700.22 1293.97 L2685.00 1301.15 L2669.78 1308.45 L2654.56 1315.75 L2639.34 1322.93 L2624.12 1330.23 L2608.90 1337.53 L2593.68 1344.71 L2578.45 1352.01 L2563.23 1359.31 L2548.01 1366.49 L2532.79 1373.79 L2517.57 1381.09 L2502.35 1388.39 L2487.13 1395.57 L2471.91 1402.87 L2456.68 1410.18 L2441.46 1417.48 L2426.24 1424.78 L2411.02 1431.96 L2395.80 1439.26 L2380.58 1446.56 L2365.36 1453.86 L2350.14 1461.16 L2335.04 1468.46 L2319.82 1475.76 L2304.60 1483.07 L2289.38 1490.37 L2274.15 1497.67 L2258.93 1504.97 L2243.71 1512.27 L2228.49 1519.57 L2213.27 1527.00 L2198.05 1534.30 L2182.83 1541.60 L2167.61 1548.90 L2152.38 1556.33 L2137.16 1563.63 L2121.94 1571.06 L2106.72 1578.36 L2091.50 1585.78 L2076.28 1593.08 L2061.06 1600.51 L2045.84 1607.93 L2030.61 1615.36 L2015.39 1622.66 L2000.17 1630.09 L1984.95 1637.51 L1969.85 1644.94 L1954.63 1652.36 L1939.41 1659.91 L1924.19 1667.34 L1908.97 1674.76 L1893.75 1682.31 L1878.53 1689.74 L1863.30 1697.28 L1848.08 1704.71 L1832.86 1712.26 L1817.64 1719.81 L1802.42 1727.36 L1787.20 1734.91 L1771.98 1742.45 L1756.76 1750.13 L1741.53 1757.68 L1726.31 1765.35 L1711.09 1772.90 L1695.87 1780.57 L1680.65 1788.24 L1665.43 1795.92 L1650.21 1803.71 L1634.98 1811.39 L1619.76 1819.18 L1604.67 1826.85 L1589.44 1834.65 L1574.22 1842.45 L1559.00 1850.37 L1543.78 1858.16 L1528.56 1866.08 L1513.34 1874.00 L1498.12 1881.93 L1482.90 1889.85 L1467.67 1897.89 L1452.45 1905.81 L1437.23 1913.85 L1422.01 1922.02 L1406.79 1930.07 L1391.57 1938.23 L1376.35 1946.40 L1361.13 1954.57 L1345.90 1962.86 L1330.68 1971.15 L1315.46 1979.44 L1300.24 1987.73 L1285.02 1996.15 L1269.80 2004.57 L1254.70 2012.98 L1239.48 2021.52 L1224.26 2030.06 L1209.04 2038.60 L1193.82 2047.26 L1178.60 2055.80 L1163.37 2064.46 L1148.15 2073.25 L1132.93 2082.04 L1117.71 2090.82 L1102.49 2099.61 L1087.27 2108.52 L1072.05 2117.43 L1056.83 2126.34 L1041.60 2135.37 L1026.38 2144.41 L1011.16 2153.56 L995.94 2162.72 L980.72 2171.88 L965.50 2181.16 L950.28 2190.44 L935.05 2199.72 L919.83 2209.13 L904.61 2218.54 L889.51 2227.94 L874.29 2237.47 L859.07 2247.00 L843.85 2256.65 L828.63 2266.30 L813.41 2275.96 L798.19 2285.73 L782.97 2295.51 L767.75 2305.41 L752.52 2315.19 L737.30 2325.21 L722.08 2335.11 L706.86 2345.14 L691.64 2355.16 L676.42 2365.31 L661.20 2375.46 L645.98 2385.60 L630.75 2395.75 L615.53 2405.90 L600.31 2416.05 L600.31 2418.89 Z" stroke-linejoin="round"/>
	</defs>
	<defs>
		<clipPath id="clipPath_UmGCNaYZ">
			<use xlink:href="#path_gjPFwDfG"/>
		</clipPath>
	</defs>
	<use xlink:href="#path_gjPFwDfG" style="stroke:none;fill:#FF3333;fill-opacity:0.25"/>
	<use xlink:href="#path_gjPFwDfG" style="fill:none;stroke:#FF0000;stroke-opacity:0.25;stroke-width:17.28" clip-path="url(#clipPath_UmGCNaYZ)"/>
	<path d=" M585.09 2425.95 L600.31 2416.42 L615.53 2406.02 L630.75 2395.26 L645.98 2384.37 L661.20 2373.35 L676.42 2362.34 L691.64 2351.45 L706.86 2340.43 L721.96 2329.54 L737.18 2318.78 L752.40 2307.89 L767.62 2297.12 L782.84 2286.48 L798.06 2275.71 L813.28 2265.07 L828.51 2254.55 L843.73 2244.03 L858.95 2233.63 L874.17 2223.11 L889.39 2212.84 L904.61 2202.45 L919.83 2192.18 L935.05 2182.03 L950.28 2171.88 L965.50 2161.73 L980.72 2151.71 L995.94 2141.68 L1011.16 2131.66 L1026.38 2121.76 L1041.60 2111.86 L1056.83 2102.08 L1072.05 2092.31 L1087.14 2082.53 L1102.37 2072.88 L1117.59 2063.22 L1132.81 2053.57 L1148.03 2044.04 L1163.25 2034.51 L1178.47 2025.11 L1193.69 2015.58 L1208.91 2006.17 L1224.13 1996.89 L1239.36 1987.49 L1254.58 1978.21 L1269.80 1969.05 L1285.02 1959.77 L1300.24 1950.61 L1315.46 1941.45 L1330.68 1932.42 L1345.90 1923.38 L1361.13 1914.35 L1376.35 1905.31 L1391.57 1896.40 L1406.79 1887.49 L1422.01 1878.58 L1437.23 1869.80 L1452.33 1860.89 L1467.55 1852.10 L1482.77 1843.44 L1497.99 1834.65 L1513.21 1825.99 L1528.44 1817.33 L1543.66 1808.66 L1558.88 1800.12 L1574.10 1791.58 L1589.32 1783.05 L1604.54 1774.51 L1619.76 1765.97 L1634.98 1757.55 L1650.21 1749.01 L1665.43 1740.60 L1680.65 1732.18 L1695.87 1723.77 L1711.09 1715.48 L1726.31 1707.06 L1741.53 1698.77 L1756.76 1690.48 L1771.98 1682.19 L1787.20 1673.89 L1802.30 1665.60 L1817.52 1657.31 L1832.74 1649.14 L1847.96 1640.85 L1863.18 1632.68 L1878.40 1624.52 L1893.62 1616.35 L1908.84 1608.18 L1924.07 1600.01 L1939.29 1591.85 L1954.51 1583.68 L1969.73 1575.63 L1984.95 1567.47 L2000.17 1559.42 L2015.39 1551.25 L2030.61 1543.21 L2045.84 1535.17 L2061.06 1527.12 L2076.28 1518.95 L2091.50 1510.91 L2106.72 1502.87 L2121.94 1494.82 L2137.16 1486.90 L2152.38 1478.86 L2167.48 1470.81 L2182.70 1462.77 L2197.92 1454.85 L2213.14 1446.81 L2228.37 1438.76 L2243.59 1430.84 L2258.81 1422.80 L2274.03 1414.88 L2289.25 1406.96 L2304.47 1398.91 L2319.69 1390.99 L2334.91 1382.95 L2350.14 1375.03 L2365.36 1367.11 L2380.58 1359.19 L2395.80 1351.14 L2411.02 1343.22 L2426.24 1335.30 L2441.46 1327.38 L2456.68 1319.46 L2471.91 1311.42 L2487.13 1303.50 L2502.35 1295.58 L2517.57 1287.66 L2532.67 1279.74 L2547.89 1271.82 L2563.11 1263.90 L2578.33 1255.98 L2593.55 1248.06 L2608.77 1240.14 L2623.99 1232.22 L2639.22 1224.17 L2654.44 1216.25 L2669.66 1208.33 L2684.88 1200.41 L2700.10 1192.49 L2715.32 1184.57 L2730.54 1176.65 L2745.76 1168.73 L2760.99 1160.81 L2776.21 1152.89 L2791.43 1144.97 L2806.65 1137.05 L2821.87 1129.13 L2837.09 1121.21 L2852.31 1113.29 L2867.53 1105.37 L2882.76 1097.45 L2897.85 1089.53 L2913.07 1081.61 L2928.30 1073.69 L2943.52 1065.77 L2958.74 1057.85 L2973.96 1049.93 L2989.18 1042.13 L3004.40 1034.21 L3019.62 1026.29 L3034.84 1018.37 L3050.07 1010.45 L3065.29 1002.65 L3080.51 994.73 L3095.73 986.81 L3110.95 978.89 L3126.17 971.10 L3141.39 963.18 L3156.61 955.26 L3171.84 947.46 L3187.06 939.54 L3202.28 931.74 L3217.50 923.82 L3232.72 916.03 L3247.94 908.11 L3263.04 900.31 L3278.26 892.39 L3293.48 884.59 L3308.70 876.80 L3323.93 868.88 L3339.15 861.08 L3354.37 853.28 L3369.59 845.49 L3384.81 837.57 L3400.03 829.77 L3415.25 821.97 L3430.47 814.18 L3445.70 806.38 L3460.92 798.58 L3476.14 790.79 L3491.36 782.99 L3506.58 775.19 L3521.80 767.40 L3537.02 759.72 L3552.24 751.93 L3567.47 744.13 L3582.69 736.34 L3597.91 728.66 L3613.01 720.87 L3628.23 713.07 L3643.45 705.40 L3658.67 697.60 L3673.89 689.93 L3689.11 682.13 L3704.33 674.46 L3719.55 666.79 L3734.78 658.99 L3750.00 651.32 L3765.22 643.64 L3780.44 635.97 L3795.66 628.17" stroke-linejoin="round" style="fill:none;stroke:#0000FF;stroke-width:8.64"/>
	<path d=" M585.09 2425.95 L600.31 2417.66 L615.53 2408.37 L630.75 2398.84 L645.98 2389.32 L661.20 2379.66 L676.42 2369.89 L691.64 2360.23 L706.86 2350.70 L721.96 2341.05 L737.18 2331.52 L752.40 2321.87 L767.62 2312.46 L782.84 2302.94 L798.06 2293.53 L813.28 2284.25 L828.51 2274.84 L843.73 2265.56 L858.95 2256.40 L874.17 2247.12 L889.39 2238.09 L904.61 2228.93 L919.83 2219.90 L935.05 2210.86 L950.28 2201.95 L965.50 2193.04 L980.72 2184.13 L995.94 2175.22 L1011.16 2166.44 L1026.38 2157.65 L1041.60 2148.99 L1056.83 2140.32 L1072.05 2131.66 L1087.14 2123.12 L1102.37 2114.46 L1117.59 2105.92 L1132.81 2097.50 L1148.03 2089.09 L1163.25 2080.67 L1178.47 2072.26 L1193.69 2063.84 L1208.91 2055.55 L1224.13 2047.38 L1239.36 2039.09 L1254.58 2030.92 L1269.80 2022.76 L1285.02 2014.59 L1300.24 2006.42 L1315.46 1998.38 L1330.68 1990.33 L1345.90 1982.29 L1361.13 1974.37 L1376.35 1966.45 L1391.57 1958.53 L1406.79 1950.61 L1422.01 1942.69 L1437.23 1934.89 L1452.33 1927.10 L1467.55 1919.30 L1482.77 1911.63 L1497.99 1903.83 L1513.21 1896.16 L1528.44 1888.48 L1543.66 1880.94 L1558.88 1873.26 L1574.10 1865.71 L1589.32 1858.16 L1604.54 1850.62 L1619.76 1843.07 L1634.98 1835.52 L1650.21 1828.09 L1665.43 1820.54 L1680.65 1813.12 L1695.87 1805.69 L1711.09 1798.27 L1726.31 1790.84 L1741.53 1783.54 L1756.76 1776.12 L1771.98 1768.81 L1787.20 1761.51 L1802.30 1754.09 L1817.52 1746.79 L1832.74 1739.48 L1847.96 1732.31 L1863.18 1725.01 L1878.40 1717.70 L1893.62 1710.40 L1908.84 1703.22 L1924.07 1696.05 L1939.29 1688.75 L1954.51 1681.57 L1969.73 1674.39 L1984.95 1667.21 L2000.17 1660.03 L2015.39 1652.86 L2030.61 1645.68 L2045.84 1638.50 L2061.06 1631.32 L2076.28 1624.15 L2091.50 1616.97 L2106.72 1609.91 L2121.94 1602.74 L2137.16 1595.68 L2152.38 1588.50 L2167.48 1581.45 L2182.70 1574.27 L2197.92 1567.22 L2213.14 1560.17 L2228.37 1552.99 L2243.59 1545.93 L2258.81 1538.88 L2274.03 1531.70 L2289.25 1524.65 L2304.47 1517.59 L2319.69 1510.54 L2334.91 1503.49 L2350.14 1496.43 L2365.36 1489.38 L2380.58 1482.20 L2395.80 1475.15 L2411.02 1468.09 L2426.24 1461.04 L2441.46 1453.98 L2456.68 1446.93 L2471.91 1439.88 L2487.13 1432.82 L2502.35 1425.77 L2517.57 1418.71 L2532.67 1411.66 L2547.89 1404.73 L2563.11 1397.68 L2578.33 1390.62 L2593.55 1383.57 L2608.77 1376.51 L2623.99 1369.46 L2639.22 1362.41 L2654.44 1355.35 L2669.66 1348.30 L2684.88 1341.24 L2700.10 1334.19 L2715.32 1327.14 L2730.54 1320.08 L2745.76 1313.03 L2760.99 1305.97 L2776.21 1298.92 L2791.43 1291.87 L2806.65 1284.81 L2821.87 1277.76 L2837.09 1270.70 L2852.31 1263.65 L2867.53 1256.60 L2882.76 1249.67 L2897.85 1242.61 L2913.07 1235.56 L2928.30 1228.50 L2943.52 1221.45 L2958.74 1214.40 L2973.96 1207.34 L2989.18 1200.29 L3004.40 1193.36 L3019.62 1186.30 L3034.84 1179.25 L3050.07 1172.20 L3065.29 1165.14 L3080.51 1158.21 L3095.73 1151.16 L3110.95 1144.10 L3126.17 1137.05 L3141.39 1130.12 L3156.61 1123.07 L3171.84 1116.01 L3187.06 1109.08 L3202.28 1102.03 L3217.50 1095.10 L3232.72 1088.04 L3247.94 1081.11 L3263.04 1074.06 L3278.26 1067.13 L3293.48 1060.08 L3308.70 1053.15 L3323.93 1046.09 L3339.15 1039.16 L3354.37 1032.11 L3369.59 1025.18 L3384.81 1018.25 L3400.03 1011.19 L3415.25 1004.26 L3430.47 997.33 L3445.70 990.40 L3460.92 983.47 L3476.14 976.42 L3491.36 969.49 L3506.58 962.56 L3521.80 955.63 L3537.02 948.70 L3552.24 941.77 L3567.47 934.84 L3582.69 927.91 L3597.91 920.98 L3613.01 914.05 L3628.23 907.24 L3643.45 900.31 L3658.67 893.38 L3673.89 886.45 L3689.11 879.52 L3704.33 872.71 L3719.55 865.78 L3734.78 858.98 L3750.00 852.05 L3765.22 845.12 L3780.44 838.31 L3795.66 831.38" stroke-linejoin="round" style="fill:none;stroke:#FF0000;stroke-width:8.64"/>
	<line x1="521.73" y1="2489.19" x2="521.73" y2="100.86" style="stroke:#000000;stroke-width:5.76"/>
	<line x1="521.73" y1="2425.82" x2="481.76" y2="2425.82" style="stroke:#000000;stroke-width:5.76"/>
	<text x="461.83" y="2460.85" style="font-family:'Helvetica';font-size:99.99px;fill:#000000" text-anchor="end">0.00</text>
	<line x1="521.73" y1="1973.50" x2="481.76" y2="1973.50" style="stroke:#000000;stroke-width:5.76"/>
	<text x="461.83" y="2008.53" style="font-family:'Helvetica';font-size:99.99px;fill:#000000" text-anchor="end">1.00</text>
	<line x1="521.73" y1="1521.18" x2="481.76" y2="1521.18" style="stroke:#000000;stroke-width:5.76"/>
	<text x="461.83" y="1556.21" style="font-family:'Helvetica';font-size:99.99px;fill:#000000" text-anchor="end">2.00</text>
	<line x1="521.73" y1="1068.86" x2="481.76" y2="1068.86" style="stroke:#000000;stroke-width:5.76"/>
	<text x="461.83" y="1103.89" style="font-family:'Helvetica';font-size:99.99px;fill:#000000" text-anchor="end">3.00</text>
	<line x1="521.73" y1="616.54" x2="481.76" y2="616.54" style="stroke:#000000;stroke-width:5.76"/>
	<text x="461.83" y="651.57" style="font-family:'Helvetica';font-size:99.99px;fill:#000000" text-anchor="end">4.00</text>
	<line x1="521.73" y1="164.22" x2="481.76" y2="164.22" style="stroke:#000000;stroke-width:5.76"/>
	<text x="461.83" y="199.25" style="font-family:'Helvetica';font-size:99.99px;fill:#000000" text-anchor="end">5.00</text>
	<text x="190.71" y="1294.96" style="font-family:'Helvetica';font-size:99.99px;fill:#000000" transform="rotate(-90 190.71,1294.96)" text-anchor="middle">Cumulative incidence (%)</text>
	<line x1="521.73" y1="2489.19" x2="3859.02" y2="2489.19" style="stroke:#000000;stroke-width:5.76"/>
	<line x1="585.09" y1="2489.19" x2="585.09" y2="2529.16" style="stroke:#000000;stroke-width:5.76"/>
	<text x="585.09" y="2619.14" style="font-family:'Helvetica';font-size:99.99px;fill:#000000" text-anchor="middle">0</text>
	<line x1="1345.90" y1="2489.19" x2="1345.90" y2="2529.16" style="stroke:#000000;stroke-width:5.76"/>
	<text x="1345.90" y="2619.14" style="font-family:'Helvetica';font-size:99.99px;fill:#000000" text-anchor="middle">50</text>
	<line x1="2106.72" y1="2489.19" x2="2106.72" y2="2529.16" style="stroke:#000000;stroke-width:5.76"/>
	<text x="2106.72" y="2619.14" style="font-family:'Helvetica';font-size:99.99px;fill:#000000" text-anchor="middle">100</text>
	<line x1="2867.53" y1="2489.19" x2="2867.53" y2="2529.16" style="stroke:#000000;stroke-width:5.76"/>
	<text x="2867.53" y="2619.14" style="font-family:'Helvetica';font-size:99.99px;fill:#000000" text-anchor="middle">150</text>
	<line x1="3628.35" y1="2489.19" x2="3628.35" y2="2529.16" style="stroke:#000000;stroke-width:5.76"/>
	<text x="3628.35" y="2619.14" style="font-family:'Helvetica';font-size:99.99px;fill:#000000" text-anchor="middle">200</text>
	<text x="2190.38" y="2729.16" style="font-family:'Helvetica';font-size:99.99px;fill:#000000" text-anchor="middle">Days from 1 March 2020</text>
	<rect x="2717.80" y="2128.20" width="1106.70" height="326.46" style="fill:#FFFFFF"/>
	<rect x="2720.68" y="2131.08" width="1100.94" height="320.70" style="fill:none;stroke:#000000;stroke-width:5.76"/>
	<rect x="2761.11" y="2171.51" width="374.34" height="99.99" style="fill:#3333FF;fill-opacity:0.25"/>
	<rect x="2765.43" y="2175.83" width="365.70" height="91.35" style="fill:none;stroke:#0000FF;stroke-opacity:0.25;stroke-width:8.64"/>
	<rect x="2761.11" y="2311.47" width="374.34" height="99.99" style="fill:#FF3333;fill-opacity:0.25"/>
	<rect x="2765.43" y="2315.79" width="365.70" height="91.35" style="fill:none;stroke:#FF0000;stroke-opacity:0.25;stroke-width:8.64"/>
	<text x="3195.47" y="2256.53" style="font-family:'Helvetica';font-size:99.99px;fill:#000000">DOAC use</text>
	<text x="3195.47" y="2396.50" style="font-family:'Helvetica';font-size:99.99px;fill:#000000">Warfarin use</text>
</svg>
