<?xml version="1.0" encoding="UTF-8" standalone="no"?>
<!-- This is a Stata 16.1 generated SVG file (http://www.stata.com) -->

<svg version="1.1" width="5.50in" height="4.00in" viewBox="0 0 3960 2880" xmlns="http://www.w3.org/2000/svg" xmlns:xlink="http://www.w3.org/1999/xlink">
	<desc>Stata Graph - Graph</desc>
	<rect x="0" y="0" width="3960" height="2880" style="fill:#EAF2F3;stroke:none"/>
	<rect x="0.00" y="0.00" width="3959.88" height="2880.00" style="fill:#EAF2F3"/>
	<rect x="2.88" y="2.88" width="3954.12" height="2874.24" style="fill:none;stroke:#EAF2F3;stroke-width:5.76"/>
	<rect x="521.73" y="100.86" width="3337.29" height="2388.33" style="fill:#FFFFFF"/>
	<rect x="524.61" y="103.74" width="3331.53" height="2382.57" style="fill:none;stroke:#FFFFFF;stroke-width:5.76"/>
	<line x1="521.73" y1="2425.82" x2="3859.02" y2="2425.82" style="stroke:#EAF2F3;stroke-width:8.64"/>
	<line x1="521.73" y1="2275.09" x2="3859.02" y2="2275.09" style="stroke:#EAF2F3;stroke-width:8.64"/>
	<line x1="521.73" y1="2124.24" x2="3859.02" y2="2124.24" style="stroke:#EAF2F3;stroke-width:8.64"/>
	<line x1="521.73" y1="1973.50" x2="3859.02" y2="1973.50" style="stroke:#EAF2F3;stroke-width:8.64"/>
	<line x1="521.73" y1="1822.77" x2="3859.02" y2="1822.77" style="stroke:#EAF2F3;stroke-width:8.64"/>
	<line x1="521.73" y1="1671.91" x2="3859.02" y2="1671.91" style="stroke:#EAF2F3;stroke-width:8.64"/>
	<line x1="521.73" y1="1521.18" x2="3859.02" y2="1521.18" style="stroke:#EAF2F3;stroke-width:8.64"/>
	<line x1="521.73" y1="1370.45" x2="3859.02" y2="1370.45" style="stroke:#EAF2F3;stroke-width:8.64"/>
	<line x1="521.73" y1="1219.59" x2="3859.02" y2="1219.59" style="stroke:#EAF2F3;stroke-width:8.64"/>
	<line x1="521.73" y1="1068.86" x2="3859.02" y2="1068.86" style="stroke:#EAF2F3;stroke-width:8.64"/>
	<line x1="521.73" y1="918.01" x2="3859.02" y2="918.01" style="stroke:#EAF2F3;stroke-width:8.64"/>
	<line x1="521.73" y1="767.27" x2="3859.02" y2="767.27" style="stroke:#EAF2F3;stroke-width:8.64"/>
	<line x1="521.73" y1="616.54" x2="3859.02" y2="616.54" style="stroke:#EAF2F3;stroke-width:8.64"/>
	<line x1="521.73" y1="465.69" x2="3859.02" y2="465.69" style="stroke:#EAF2F3;stroke-width:8.64"/>
	<line x1="521.73" y1="314.95" x2="3859.02" y2="314.95" style="stroke:#EAF2F3;stroke-width:8.64"/>
	<line x1="521.73" y1="164.22" x2="3859.02" y2="164.22" style="stroke:#EAF2F3;stroke-width:8.64"/>
	<defs>
		<path id="path_KTTaFnmy" d="M600.31 2425.82 L600.31 2425.82 L615.53 2425.82 L630.75 2425.82 L645.98 2425.70 L661.20 2425.45 L676.42 2424.96 L691.64 2424.09 L706.86 2422.73 L722.08 2420.63 L737.30 2417.66 L752.52 2413.82 L767.75 2408.99 L782.97 2402.93 L798.19 2395.75 L813.41 2387.21 L828.63 2377.31 L843.85 2366.17 L859.07 2353.67 L874.29 2339.81 L889.51 2324.72 L904.61 2308.26 L919.83 2290.56 L935.05 2271.63 L950.28 2251.58 L965.50 2230.42 L980.72 2208.26 L995.94 2185.25 L1011.16 2161.24 L1026.38 2136.49 L1041.60 2110.99 L1056.83 2084.88 L1072.05 2058.15 L1087.27 2030.92 L1102.49 2003.33 L1117.71 1975.36 L1132.93 1947.02 L1148.15 1918.56 L1163.37 1889.85 L1178.60 1861.01 L1193.82 1832.18 L1209.04 1803.34 L1224.26 1774.63 L1239.48 1745.92 L1254.70 1717.46 L1269.80 1689.12 L1285.02 1661.02 L1300.24 1633.18 L1315.46 1605.71 L1330.68 1578.48 L1345.90 1551.63 L1361.13 1525.27 L1376.35 1499.28 L1391.57 1473.66 L1406.79 1448.54 L1422.01 1423.91 L1437.23 1399.66 L1452.45 1375.90 L1467.67 1352.63 L1482.90 1329.86 L1498.12 1307.46 L1513.34 1285.56 L1528.56 1264.15 L1543.78 1243.11 L1559.00 1222.56 L1574.22 1202.52 L1589.44 1182.84 L1604.67 1163.66 L1619.76 1144.97 L1634.98 1126.66 L1650.21 1108.71 L1665.43 1091.14 L1680.65 1074.06 L1695.87 1057.35 L1711.09 1041.14 L1726.31 1025.18 L1741.53 1009.58 L1756.76 994.49 L1771.98 979.64 L1787.20 965.16 L1802.42 951.05 L1817.64 937.31 L1832.86 923.95 L1848.08 910.83 L1863.30 897.96 L1878.53 885.58 L1893.75 873.33 L1908.97 861.45 L1924.19 849.94 L1939.41 838.56 L1954.63 827.54 L1969.85 816.78 L1984.95 806.38 L2000.17 796.11 L2015.39 786.08 L2030.61 776.31 L2045.84 766.90 L2061.06 757.62 L2076.28 748.59 L2091.50 739.68 L2106.72 731.14 L2121.94 722.72 L2137.16 714.43 L2152.38 706.51 L2167.61 698.71 L2182.83 691.04 L2198.05 683.62 L2213.27 676.31 L2228.49 669.26 L2243.71 662.33 L2258.93 655.65 L2274.15 649.09 L2289.38 642.65 L2304.60 636.34 L2319.82 630.15 L2335.04 624.21 L2350.14 618.40 L2365.36 612.71 L2380.58 607.14 L2395.80 601.69 L2411.02 596.37 L2426.24 591.17 L2441.46 586.10 L2456.68 581.15 L2471.91 576.20 L2487.13 571.50 L2502.35 566.92 L2517.57 562.34 L2532.79 557.88 L2548.01 553.55 L2563.23 549.34 L2578.45 545.26 L2593.68 541.18 L2608.90 537.22 L2624.12 533.38 L2639.34 529.54 L2654.56 525.83 L2669.78 522.24 L2685.00 518.65 L2700.22 515.19 L2715.32 511.85 L2730.54 508.50 L2745.76 505.29 L2760.99 502.07 L2776.21 498.98 L2791.43 495.88 L2806.65 492.79 L2821.87 489.94 L2837.09 486.97 L2852.31 484.25 L2867.53 481.40 L2882.76 478.68 L2897.98 476.08 L2913.20 473.36 L2928.42 470.88 L2943.64 468.28 L2958.86 465.81 L2974.08 463.33 L2989.30 460.98 L3004.53 458.63 L3019.75 456.40 L3034.97 454.05 L3050.19 451.83 L3065.41 449.72 L3080.51 447.49 L3095.73 445.39 L3110.95 443.29 L3126.17 441.31 L3141.39 439.20 L3156.61 437.22 L3171.84 435.24 L3187.06 433.39 L3202.28 431.41 L3217.50 429.55 L3232.72 427.69 L3247.94 425.96 L3263.16 424.10 L3278.39 422.37 L3293.61 420.64 L3308.83 418.91 L3324.05 417.17 L3339.27 415.57 L3354.49 413.83 L3369.71 412.22 L3384.93 410.62 L3400.16 409.01 L3415.38 407.40 L3430.47 405.79 L3445.70 404.30 L3460.92 402.70 L3476.14 401.21 L3491.36 399.72 L3506.58 398.24 L3521.80 396.75 L3537.02 395.27 L3552.24 393.78 L3567.47 392.42 L3582.69 390.94 L3597.91 389.58 L3613.13 388.09 L3628.35 386.73 L3643.57 385.37 L3658.79 384.01 L3674.01 382.65 L3689.24 381.29 L3704.46 379.92 L3719.68 378.56 L3734.90 377.20 L3750.12 375.84 L3765.34 374.60 L3780.56 373.24 L3795.66 372.00 L3795.66 241.20 L3780.56 242.56 L3765.34 244.04 L3750.12 245.40 L3734.90 246.77 L3719.68 248.25 L3704.46 249.61 L3689.24 251.10 L3674.01 252.58 L3658.79 253.94 L3643.57 255.43 L3628.35 256.91 L3613.13 258.40 L3597.91 259.88 L3582.69 261.37 L3567.47 262.98 L3552.24 264.46 L3537.02 265.95 L3521.80 267.56 L3506.58 269.04 L3491.36 270.65 L3476.14 272.26 L3460.92 273.87 L3445.70 275.48 L3430.47 277.08 L3415.38 278.82 L3400.16 280.43 L3384.93 282.16 L3369.71 283.89 L3354.49 285.62 L3339.27 287.36 L3324.05 289.09 L3308.83 290.95 L3293.61 292.68 L3278.39 294.53 L3263.16 296.39 L3247.94 298.37 L3232.72 300.23 L3217.50 302.21 L3202.28 304.19 L3187.06 306.17 L3171.84 308.15 L3156.61 310.25 L3141.39 312.23 L3126.17 314.46 L3110.95 316.56 L3095.73 318.79 L3080.51 321.02 L3065.41 323.25 L3050.19 325.47 L3034.97 327.82 L3019.75 330.18 L3004.53 332.65 L2989.30 335.13 L2974.08 337.60 L2958.86 340.20 L2943.64 342.80 L2928.42 345.40 L2913.20 348.12 L2897.98 350.84 L2882.76 353.56 L2867.53 356.41 L2852.31 359.38 L2837.09 362.35 L2821.87 365.32 L2806.65 368.42 L2791.43 371.51 L2776.21 374.73 L2760.99 378.07 L2745.76 381.41 L2730.54 384.75 L2715.32 388.34 L2700.22 391.80 L2685.00 395.52 L2669.78 399.23 L2654.56 402.94 L2639.34 406.90 L2624.12 410.86 L2608.90 414.82 L2593.68 419.03 L2578.45 423.24 L2563.23 427.57 L2548.01 432.02 L2532.79 436.60 L2517.57 441.18 L2502.35 445.89 L2487.13 450.71 L2471.91 455.79 L2456.68 460.86 L2441.46 466.06 L2426.24 471.38 L2411.02 476.82 L2395.80 482.39 L2380.58 488.09 L2365.36 493.90 L2350.14 499.97 L2335.04 506.03 L2319.82 512.34 L2304.60 518.78 L2289.38 525.34 L2274.15 532.14 L2258.93 539.07 L2243.71 546.13 L2228.49 553.30 L2213.27 560.85 L2198.05 568.40 L2182.83 576.20 L2167.61 584.24 L2152.38 592.41 L2137.16 600.83 L2121.94 609.49 L2106.72 618.27 L2091.50 627.43 L2076.28 636.71 L2061.06 646.12 L2045.84 655.90 L2030.61 665.92 L2015.39 676.19 L2000.17 686.71 L1984.95 697.48 L1969.85 708.49 L1954.63 719.88 L1939.41 731.39 L1924.19 743.39 L1908.97 755.52 L1893.75 768.02 L1878.53 780.89 L1863.30 794.00 L1848.08 807.37 L1832.86 821.23 L1817.64 835.34 L1802.42 849.82 L1787.20 864.67 L1771.98 879.89 L1756.76 895.48 L1741.53 911.45 L1726.31 927.78 L1711.09 944.61 L1695.87 961.69 L1680.65 979.26 L1665.43 997.21 L1650.21 1015.65 L1634.98 1034.46 L1619.76 1053.76 L1604.67 1073.56 L1589.44 1093.74 L1574.22 1114.28 L1559.00 1135.44 L1543.78 1156.97 L1528.56 1179.00 L1513.34 1201.53 L1498.12 1224.54 L1482.90 1248.06 L1467.67 1271.94 L1452.45 1296.45 L1437.23 1321.32 L1422.01 1346.69 L1406.79 1372.55 L1391.57 1398.91 L1376.35 1425.77 L1361.13 1452.99 L1345.90 1480.72 L1330.68 1508.81 L1315.46 1537.27 L1300.24 1566.11 L1285.02 1595.31 L1269.80 1624.76 L1254.70 1654.47 L1239.48 1684.41 L1224.26 1714.49 L1209.04 1744.68 L1193.82 1775.00 L1178.60 1805.45 L1163.37 1835.76 L1148.15 1865.96 L1132.93 1896.03 L1117.71 1925.98 L1102.49 1955.68 L1087.27 1985.01 L1072.05 2013.97 L1056.83 2042.43 L1041.60 2070.40 L1026.38 2097.75 L1011.16 2124.48 L995.94 2150.35 L980.72 2175.47 L965.50 2199.60 L950.28 2222.74 L935.05 2244.90 L919.83 2265.93 L904.61 2285.73 L889.51 2304.30 L874.29 2321.50 L859.07 2337.46 L843.85 2351.94 L828.63 2365.06 L813.41 2376.69 L798.19 2386.96 L782.97 2395.75 L767.75 2403.30 L752.52 2409.49 L737.30 2414.44 L722.08 2418.27 L706.86 2421.12 L691.64 2423.10 L676.42 2424.46 L661.20 2425.20 L645.98 2425.58 L630.75 2425.82 L615.53 2425.82 L600.31 2425.82 L600.31 2425.82 Z" stroke-linejoin="round"/>
	</defs>
	<defs>
		<clipPath id="clipPath_tCIYgcpO">
			<use xlink:href="#path_KTTaFnmy"/>
		</clipPath>
	</defs>
	<use xlink:href="#path_KTTaFnmy" style="stroke:none;fill:#3333FF;fill-opacity:0.25"/>
	<use xlink:href="#path_KTTaFnmy" style="fill:none;stroke:#0000FF;stroke-opacity:0.25;stroke-width:17.28" clip-path="url(#clipPath_tCIYgcpO)"/>
	<defs>
		<path id="path_kDQUSbdw" d="M600.31 2425.82 L600.31 2425.82 L615.53 2425.82 L630.75 2425.82 L645.98 2425.70 L661.20 2425.58 L676.42 2425.20 L691.64 2424.46 L706.86 2423.35 L722.08 2421.74 L737.30 2419.51 L752.52 2416.42 L767.75 2412.71 L782.97 2408.00 L798.19 2402.31 L813.41 2395.75 L828.63 2388.08 L843.85 2379.54 L859.07 2369.76 L874.29 2359.12 L889.51 2347.36 L904.61 2334.62 L919.83 2321.00 L935.05 2306.40 L950.28 2291.06 L965.50 2274.72 L980.72 2257.77 L995.94 2239.94 L1011.16 2221.63 L1026.38 2202.57 L1041.60 2183.02 L1056.83 2163.09 L1072.05 2142.55 L1087.27 2121.76 L1102.49 2100.60 L1117.71 2079.19 L1132.93 2057.66 L1148.15 2035.75 L1163.37 2013.85 L1178.60 1991.94 L1193.82 1969.91 L1209.04 1947.89 L1224.26 1925.86 L1239.48 1904.08 L1254.70 1882.30 L1269.80 1860.64 L1285.02 1839.23 L1300.24 1817.94 L1315.46 1797.03 L1330.68 1776.24 L1345.90 1755.70 L1361.13 1735.52 L1376.35 1715.72 L1391.57 1696.17 L1406.79 1676.99 L1422.01 1658.18 L1437.23 1639.61 L1452.45 1621.55 L1467.67 1603.73 L1482.90 1586.28 L1498.12 1569.20 L1513.34 1552.49 L1528.56 1536.03 L1543.78 1520.07 L1559.00 1504.35 L1574.22 1489.01 L1589.44 1473.91 L1604.67 1459.18 L1619.76 1444.83 L1634.98 1430.84 L1650.21 1417.11 L1665.43 1403.74 L1680.65 1390.62 L1695.87 1377.88 L1711.09 1365.38 L1726.31 1353.25 L1741.53 1341.24 L1756.76 1329.61 L1771.98 1318.35 L1787.20 1307.21 L1802.42 1296.45 L1817.64 1285.93 L1832.86 1275.65 L1848.08 1265.51 L1863.30 1255.73 L1878.53 1246.20 L1893.75 1236.92 L1908.97 1227.76 L1924.19 1218.85 L1939.41 1210.19 L1954.63 1201.77 L1969.85 1193.48 L1984.95 1185.44 L2000.17 1177.64 L2015.39 1169.97 L2030.61 1162.54 L2045.84 1155.24 L2061.06 1148.06 L2076.28 1141.13 L2091.50 1134.33 L2106.72 1127.77 L2121.94 1121.33 L2137.16 1115.02 L2152.38 1108.83 L2167.61 1102.89 L2182.83 1097.08 L2198.05 1091.39 L2213.27 1085.82 L2228.49 1080.37 L2243.71 1075.05 L2258.93 1069.85 L2274.15 1064.78 L2289.38 1059.95 L2304.60 1055.13 L2319.82 1050.42 L2335.04 1045.84 L2350.14 1041.27 L2365.36 1036.93 L2380.58 1032.60 L2395.80 1028.52 L2411.02 1024.43 L2426.24 1020.35 L2441.46 1016.51 L2456.68 1012.68 L2471.91 1008.97 L2487.13 1005.38 L2502.35 1001.79 L2517.57 998.32 L2532.79 994.98 L2548.01 991.64 L2563.23 988.42 L2578.45 985.20 L2593.68 982.11 L2608.90 979.14 L2624.12 976.17 L2639.34 973.20 L2654.56 970.35 L2669.78 967.63 L2685.00 964.91 L2700.22 962.19 L2715.32 959.59 L2730.54 956.99 L2745.76 954.51 L2760.99 952.04 L2776.21 949.69 L2791.43 947.34 L2806.65 944.98 L2821.87 942.76 L2837.09 940.53 L2852.31 938.43 L2867.53 936.32 L2882.76 934.22 L2897.98 932.11 L2913.20 930.13 L2928.42 928.15 L2943.64 926.17 L2958.86 924.32 L2974.08 922.46 L2989.30 920.61 L3004.53 918.87 L3019.75 917.02 L3034.97 915.28 L3050.19 913.55 L3065.41 911.94 L3080.51 910.21 L3095.73 908.60 L3110.95 906.99 L3126.17 905.51 L3141.39 903.90 L3156.61 902.41 L3171.84 900.93 L3187.06 899.44 L3202.28 897.96 L3217.50 896.47 L3232.72 895.11 L3247.94 893.63 L3263.16 892.27 L3278.39 890.90 L3293.61 889.67 L3308.83 888.31 L3324.05 886.94 L3339.27 885.71 L3354.49 884.35 L3369.71 883.11 L3384.93 881.87 L3400.16 880.63 L3415.38 879.39 L3430.47 878.28 L3445.70 877.04 L3460.92 875.81 L3476.14 874.69 L3491.36 873.58 L3506.58 872.34 L3521.80 871.23 L3537.02 870.11 L3552.24 869.00 L3567.47 867.89 L3582.69 866.77 L3597.91 865.66 L3613.13 864.67 L3628.35 863.55 L3643.57 862.44 L3658.79 861.45 L3674.01 860.34 L3689.24 859.35 L3704.46 858.23 L3719.68 857.24 L3734.90 856.25 L3750.12 855.14 L3765.34 854.15 L3780.56 853.16 L3795.66 852.17 L3795.66 632.51 L3780.56 633.62 L3765.34 634.86 L3750.12 635.97 L3734.90 637.08 L3719.68 638.32 L3704.46 639.44 L3689.24 640.67 L3674.01 641.91 L3658.79 643.03 L3643.57 644.26 L3628.35 645.50 L3613.13 646.74 L3597.91 647.98 L3582.69 649.21 L3567.47 650.45 L3552.24 651.69 L3537.02 652.93 L3521.80 654.16 L3506.58 655.52 L3491.36 656.76 L3476.14 658.12 L3460.92 659.48 L3445.70 660.72 L3430.47 662.08 L3415.38 663.44 L3400.16 664.93 L3384.93 666.29 L3369.71 667.65 L3354.49 669.14 L3339.27 670.62 L3324.05 671.98 L3308.83 673.47 L3293.61 674.95 L3278.39 676.56 L3263.16 678.05 L3247.94 679.66 L3232.72 681.14 L3217.50 682.75 L3202.28 684.48 L3187.06 686.09 L3171.84 687.70 L3156.61 689.43 L3141.39 691.17 L3126.17 692.90 L3110.95 694.75 L3095.73 696.49 L3080.51 698.34 L3065.41 700.20 L3050.19 702.06 L3034.97 704.04 L3019.75 706.02 L3004.53 708.00 L2989.30 709.98 L2974.08 712.08 L2958.86 714.18 L2943.64 716.41 L2928.42 718.51 L2913.20 720.74 L2897.98 723.09 L2882.76 725.32 L2867.53 727.67 L2852.31 730.15 L2837.09 732.50 L2821.87 735.10 L2806.65 737.57 L2791.43 740.17 L2776.21 742.89 L2760.99 745.62 L2745.76 748.34 L2730.54 751.19 L2715.32 754.03 L2700.22 757.00 L2685.00 759.97 L2669.78 763.07 L2654.56 766.16 L2639.34 769.38 L2624.12 772.72 L2608.90 776.06 L2593.68 779.40 L2578.45 782.99 L2563.23 786.58 L2548.01 790.17 L2532.79 793.88 L2517.57 797.72 L2502.35 801.68 L2487.13 805.64 L2471.91 809.85 L2456.68 814.05 L2441.46 818.26 L2426.24 822.72 L2411.02 827.17 L2395.80 831.75 L2380.58 836.58 L2365.36 841.40 L2350.14 846.35 L2335.04 851.43 L2319.82 856.50 L2304.60 861.82 L2289.38 867.27 L2274.15 872.84 L2258.93 878.65 L2243.71 884.47 L2228.49 890.41 L2213.27 896.60 L2198.05 902.91 L2182.83 909.34 L2167.61 915.90 L2152.38 922.71 L2137.16 929.64 L2121.94 936.82 L2106.72 944.12 L2091.50 951.54 L2076.28 959.22 L2061.06 967.01 L2045.84 975.18 L2030.61 983.35 L2015.39 991.89 L2000.17 1000.55 L1984.95 1009.34 L1969.85 1018.49 L1954.63 1027.78 L1939.41 1037.43 L1924.19 1047.21 L1908.97 1057.23 L1893.75 1067.62 L1878.53 1078.14 L1863.30 1089.03 L1848.08 1100.05 L1832.86 1111.43 L1817.64 1123.07 L1802.42 1135.07 L1787.20 1147.32 L1771.98 1159.82 L1756.76 1172.69 L1741.53 1185.81 L1726.31 1199.30 L1711.09 1213.16 L1695.87 1227.27 L1680.65 1241.75 L1665.43 1256.60 L1650.21 1271.69 L1634.98 1287.29 L1619.76 1303.13 L1604.67 1319.34 L1589.44 1336.05 L1574.22 1353.00 L1559.00 1370.45 L1543.78 1388.15 L1528.56 1406.34 L1513.34 1424.90 L1498.12 1443.84 L1482.90 1463.14 L1467.67 1482.94 L1452.45 1502.99 L1437.23 1523.53 L1422.01 1544.45 L1406.79 1565.73 L1391.57 1587.39 L1376.35 1609.54 L1361.13 1631.94 L1345.90 1654.71 L1330.68 1677.85 L1315.46 1701.37 L1300.24 1725.01 L1285.02 1749.01 L1269.80 1773.27 L1254.70 1797.65 L1239.48 1822.28 L1224.26 1847.03 L1209.04 1871.78 L1193.82 1896.65 L1178.60 1921.65 L1163.37 1946.40 L1148.15 1971.28 L1132.93 1995.90 L1117.71 2020.41 L1102.49 2044.66 L1087.27 2068.67 L1072.05 2092.31 L1056.83 2115.57 L1041.60 2138.47 L1026.38 2160.74 L1011.16 2182.40 L995.94 2203.56 L980.72 2223.86 L965.50 2243.53 L950.28 2262.34 L935.05 2280.29 L919.83 2297.24 L904.61 2313.21 L889.51 2328.18 L874.29 2342.17 L859.07 2354.91 L843.85 2366.67 L828.63 2377.19 L813.41 2386.47 L798.19 2394.76 L782.97 2401.82 L767.75 2407.76 L752.52 2412.71 L737.30 2416.79 L722.08 2419.76 L706.86 2422.11 L691.64 2423.72 L676.42 2424.71 L661.20 2425.33 L645.98 2425.70 L630.75 2425.82 L615.53 2425.82 L600.31 2425.82 L600.31 2425.82 Z" stroke-linejoin="round"/>
	</defs>
	<defs>
		<clipPath id="clipPath_psfRiueS">
			<use xlink:href="#path_kDQUSbdw"/>
		</clipPath>
	</defs>
	<use xlink:href="#path_kDQUSbdw" style="stroke:none;fill:#FF3333;fill-opacity:0.25"/>
	<use xlink:href="#path_kDQUSbdw" style="fill:none;stroke:#FF0000;stroke-opacity:0.25;stroke-width:17.28" clip-path="url(#clipPath_psfRiueS)"/>
	<path d=" M585.09 2425.95 L600.31 2425.95 L615.53 2425.95 L630.75 2425.82 L645.98 2425.70 L661.20 2425.45 L676.42 2424.83 L691.64 2423.72 L706.86 2421.99 L721.96 2419.64 L737.18 2416.29 L752.40 2411.84 L767.62 2406.39 L782.84 2399.71 L798.06 2391.67 L813.28 2382.26 L828.51 2371.62 L843.73 2359.49 L858.95 2346.00 L874.17 2331.15 L889.39 2315.06 L904.61 2297.49 L919.83 2278.80 L935.05 2258.88 L950.28 2237.84 L965.50 2215.69 L980.72 2192.55 L995.94 2168.42 L1011.16 2143.54 L1026.38 2117.80 L1041.60 2091.44 L1056.83 2064.34 L1072.05 2036.74 L1087.14 2008.65 L1102.37 1980.19 L1117.59 1951.35 L1132.81 1922.27 L1148.03 1892.94 L1163.25 1863.49 L1178.47 1833.91 L1193.69 1804.33 L1208.91 1774.75 L1224.13 1745.30 L1239.36 1715.85 L1254.58 1686.64 L1269.80 1657.68 L1285.02 1628.85 L1300.24 1600.39 L1315.46 1572.29 L1330.68 1544.45 L1345.90 1516.97 L1361.13 1489.87 L1376.35 1463.27 L1391.57 1437.03 L1406.79 1411.29 L1422.01 1386.04 L1437.23 1361.29 L1452.33 1336.91 L1467.55 1313.03 L1482.77 1289.76 L1497.99 1266.74 L1513.21 1244.35 L1528.44 1222.44 L1543.66 1200.91 L1558.88 1179.87 L1574.10 1159.20 L1589.32 1139.15 L1604.54 1119.48 L1619.76 1100.17 L1634.98 1081.36 L1650.21 1063.05 L1665.43 1045.10 L1680.65 1027.53 L1695.87 1010.45 L1711.09 993.74 L1726.31 977.41 L1741.53 961.44 L1756.76 945.85 L1771.98 930.63 L1787.20 915.90 L1802.30 901.42 L1817.52 887.32 L1832.74 873.45 L1847.96 860.09 L1863.18 846.97 L1878.40 834.10 L1893.62 821.60 L1908.84 809.47 L1924.07 797.59 L1939.29 785.96 L1954.51 774.70 L1969.73 763.56 L1984.95 752.79 L2000.17 742.40 L2015.39 732.13 L2030.61 722.10 L2045.84 712.33 L2061.06 702.80 L2076.28 693.52 L2091.50 684.48 L2106.72 675.70 L2121.94 667.03 L2137.16 658.62 L2152.38 650.45 L2167.48 642.41 L2182.70 634.61 L2197.92 627.06 L2213.14 619.51 L2228.37 612.33 L2243.59 605.28 L2258.81 598.35 L2274.03 591.54 L2289.25 584.98 L2304.47 578.55 L2319.69 572.24 L2334.91 566.17 L2350.14 560.11 L2365.36 554.29 L2380.58 548.60 L2395.80 543.03 L2411.02 537.59 L2426.24 532.27 L2441.46 527.07 L2456.68 521.99 L2471.91 517.04 L2487.13 512.09 L2502.35 507.39 L2517.57 502.81 L2532.67 498.23 L2547.89 493.78 L2563.11 489.45 L2578.33 485.24 L2593.55 481.16 L2608.77 477.07 L2623.99 473.11 L2639.22 469.27 L2654.44 465.44 L2669.66 461.73 L2684.88 458.14 L2700.10 454.55 L2715.32 451.08 L2730.54 447.74 L2745.76 444.40 L2760.99 441.06 L2776.21 437.84 L2791.43 434.75 L2806.65 431.65 L2821.87 428.68 L2837.09 425.71 L2852.31 422.87 L2867.53 420.02 L2882.76 417.17 L2897.85 414.45 L2913.07 411.73 L2928.30 409.13 L2943.52 406.53 L2958.74 404.06 L2973.96 401.58 L2989.18 399.11 L3004.40 396.63 L3019.62 394.28 L3034.84 392.05 L3050.07 389.70 L3065.29 387.47 L3080.51 385.25 L3095.73 383.14 L3110.95 381.04 L3126.17 378.93 L3141.39 376.83 L3156.61 374.73 L3171.84 372.75 L3187.06 370.77 L3202.28 368.79 L3217.50 366.93 L3232.72 365.07 L3247.94 363.22 L3263.04 361.36 L3278.26 359.50 L3293.48 357.77 L3308.70 355.92 L3323.93 354.18 L3339.15 352.45 L3354.37 350.72 L3369.59 349.11 L3384.81 347.38 L3400.03 345.77 L3415.25 344.16 L3430.47 342.55 L3445.70 340.94 L3460.92 339.33 L3476.14 337.85 L3491.36 336.24 L3506.58 334.75 L3521.80 333.15 L3537.02 331.66 L3552.24 330.18 L3567.47 328.69 L3582.69 327.21 L3597.91 325.84 L3613.01 324.36 L3628.23 322.87 L3643.45 321.51 L3658.67 320.03 L3673.89 318.67 L3689.11 317.18 L3704.33 315.82 L3719.55 314.46 L3734.78 313.10 L3750.00 311.74 L3765.22 310.37 L3780.44 309.01 L3795.66 307.65" stroke-linejoin="round" style="fill:none;stroke:#0000FF;stroke-width:8.64"/>
	<path d=" M585.09 2425.95 L600.31 2425.95 L615.53 2425.95 L630.75 2425.82 L645.98 2425.82 L661.20 2425.58 L676.42 2425.08 L691.64 2424.21 L706.86 2422.85 L721.96 2420.87 L737.18 2418.27 L752.40 2414.81 L767.62 2410.48 L782.84 2405.16 L798.06 2398.84 L813.28 2391.54 L828.51 2383.00 L843.73 2373.48 L858.95 2362.83 L874.17 2351.20 L889.39 2338.33 L904.61 2324.59 L919.83 2309.74 L935.05 2294.03 L950.28 2277.44 L965.50 2259.87 L980.72 2241.68 L995.94 2222.62 L1011.16 2202.94 L1026.38 2182.65 L1041.60 2161.73 L1056.83 2140.32 L1072.05 2118.54 L1087.14 2096.39 L1102.37 2073.87 L1117.59 2051.10 L1132.81 2028.08 L1148.03 2004.81 L1163.25 1981.55 L1178.47 1958.16 L1193.69 1934.77 L1208.91 1911.25 L1224.13 1887.99 L1239.36 1864.72 L1254.58 1841.58 L1269.80 1818.56 L1285.02 1795.79 L1300.24 1773.27 L1315.46 1750.87 L1330.68 1728.84 L1345.90 1707.06 L1361.13 1685.65 L1376.35 1664.49 L1391.57 1643.82 L1406.79 1623.40 L1422.01 1603.36 L1437.23 1583.68 L1452.33 1564.37 L1467.55 1545.44 L1482.77 1526.88 L1497.99 1508.68 L1513.21 1490.86 L1528.44 1473.41 L1543.66 1456.34 L1558.88 1439.63 L1574.10 1423.29 L1589.32 1407.33 L1604.54 1391.74 L1619.76 1376.51 L1634.98 1361.54 L1650.21 1346.94 L1665.43 1332.71 L1680.65 1318.72 L1695.87 1305.11 L1711.09 1291.87 L1726.31 1278.87 L1741.53 1266.25 L1756.76 1253.87 L1771.98 1241.75 L1787.20 1229.99 L1802.30 1218.48 L1817.52 1207.34 L1832.74 1196.33 L1847.96 1185.69 L1863.18 1175.17 L1878.40 1165.02 L1893.62 1155.12 L1908.84 1145.47 L1924.07 1135.94 L1939.29 1126.78 L1954.51 1117.74 L1969.73 1108.96 L1984.95 1100.42 L2000.17 1092.00 L2015.39 1083.96 L2030.61 1075.92 L2045.84 1068.24 L2061.06 1060.69 L2076.28 1053.27 L2091.50 1046.09 L2106.72 1039.04 L2121.94 1032.11 L2137.16 1025.42 L2152.38 1018.99 L2167.48 1012.55 L2182.70 1006.37 L2197.92 1000.30 L2213.14 994.36 L2228.37 988.55 L2243.59 982.98 L2258.81 977.41 L2274.03 972.09 L2289.25 966.89 L2304.47 961.69 L2319.69 956.74 L2334.91 951.79 L2350.14 947.09 L2365.36 942.39 L2380.58 937.93 L2395.80 933.48 L2411.02 929.14 L2426.24 924.81 L2441.46 920.73 L2456.68 916.64 L2471.91 912.68 L2487.13 908.85 L2502.35 905.14 L2517.57 901.42 L2532.67 897.83 L2547.89 894.25 L2563.11 890.78 L2578.33 887.44 L2593.55 884.22 L2608.77 881.00 L2623.99 877.79 L2639.22 874.69 L2654.44 871.72 L2669.66 868.75 L2684.88 865.91 L2700.10 863.06 L2715.32 860.21 L2730.54 857.49 L2745.76 854.89 L2760.99 852.29 L2776.21 849.69 L2791.43 847.22 L2806.65 844.74 L2821.87 842.39 L2837.09 840.04 L2852.31 837.69 L2867.53 835.46 L2882.76 833.23 L2897.85 831.01 L2913.07 828.90 L2928.30 826.80 L2943.52 824.82 L2958.74 822.72 L2973.96 820.74 L2989.18 818.88 L3004.40 816.90 L3019.62 815.04 L3034.84 813.19 L3050.07 811.33 L3065.29 809.60 L3080.51 807.87 L3095.73 806.13 L3110.95 804.40 L3126.17 802.79 L3141.39 801.06 L3156.61 799.45 L3171.84 797.84 L3187.06 796.23 L3202.28 794.75 L3217.50 793.26 L3232.72 791.65 L3247.94 790.17 L3263.04 788.81 L3278.26 787.32 L3293.48 785.84 L3308.70 784.48 L3323.93 783.11 L3339.15 781.75 L3354.37 780.39 L3369.59 779.03 L3384.81 777.67 L3400.03 776.31 L3415.25 775.07 L3430.47 773.83 L3445.70 772.47 L3460.92 771.23 L3476.14 770.00 L3491.36 768.76 L3506.58 767.52 L3521.80 766.28 L3537.02 765.17 L3552.24 763.93 L3567.47 762.82 L3582.69 761.58 L3597.91 760.47 L3613.01 759.23 L3628.23 758.12 L3643.45 757.00 L3658.67 755.89 L3673.89 754.77 L3689.11 753.66 L3704.33 752.55 L3719.55 751.43 L3734.78 750.32 L3750.00 749.21 L3765.22 748.09 L3780.44 747.10 L3795.66 745.99" stroke-linejoin="round" style="fill:none;stroke:#FF0000;stroke-width:8.64"/>
	<line x1="521.73" y1="2489.19" x2="521.73" y2="100.86" style="stroke:#000000;stroke-width:5.76"/>
	<line x1="521.73" y1="2425.82" x2="481.76" y2="2425.82" style="stroke:#000000;stroke-width:5.76"/>
	<text x="461.83" y="2460.85" style="font-family:'Helvetica';font-size:99.99px;fill:#000000" text-anchor="end">0.00</text>
	<line x1="521.73" y1="2275.09" x2="481.76" y2="2275.09" style="stroke:#000000;stroke-width:5.76"/>
	<text x="461.83" y="2310.12" style="font-family:'Helvetica';font-size:99.99px;fill:#000000" text-anchor="end">0.10</text>
	<line x1="521.73" y1="2124.24" x2="481.76" y2="2124.24" style="stroke:#000000;stroke-width:5.76"/>
	<text x="461.83" y="2159.26" style="font-family:'Helvetica';font-size:99.99px;fill:#000000" text-anchor="end">0.20</text>
	<line x1="521.73" y1="1973.50" x2="481.76" y2="1973.50" style="stroke:#000000;stroke-width:5.76"/>
	<text x="461.83" y="2008.53" style="font-family:'Helvetica';font-size:99.99px;fill:#000000" text-anchor="end">0.30</text>
	<line x1="521.73" y1="1822.77" x2="481.76" y2="1822.77" style="stroke:#000000;stroke-width:5.76"/>
	<text x="461.83" y="1857.80" style="font-family:'Helvetica';font-size:99.99px;fill:#000000" text-anchor="end">0.40</text>
	<line x1="521.73" y1="1671.91" x2="481.76" y2="1671.91" style="stroke:#000000;stroke-width:5.76"/>
	<text x="461.83" y="1706.94" style="font-family:'Helvetica';font-size:99.99px;fill:#000000" text-anchor="end">0.50</text>
	<line x1="521.73" y1="1521.18" x2="481.76" y2="1521.18" style="stroke:#000000;stroke-width:5.76"/>
	<text x="461.83" y="1556.21" style="font-family:'Helvetica';font-size:99.99px;fill:#000000" text-anchor="end">0.60</text>
	<line x1="521.73" y1="1370.45" x2="481.76" y2="1370.45" style="stroke:#000000;stroke-width:5.76"/>
	<text x="461.83" y="1405.48" style="font-family:'Helvetica';font-size:99.99px;fill:#000000" text-anchor="end">0.70</text>
	<line x1="521.73" y1="1219.59" x2="481.76" y2="1219.59" style="stroke:#000000;stroke-width:5.76"/>
	<text x="461.83" y="1254.62" style="font-family:'Helvetica';font-size:99.99px;fill:#000000" text-anchor="end">0.80</text>
	<line x1="521.73" y1="1068.86" x2="481.76" y2="1068.86" style="stroke:#000000;stroke-width:5.76"/>
	<text x="461.83" y="1103.89" style="font-family:'Helvetica';font-size:99.99px;fill:#000000" text-anchor="end">0.90</text>
	<line x1="521.73" y1="918.01" x2="481.76" y2="918.01" style="stroke:#000000;stroke-width:5.76"/>
	<text x="461.83" y="953.03" style="font-family:'Helvetica';font-size:99.99px;fill:#000000" text-anchor="end">1.00</text>
	<line x1="521.73" y1="767.27" x2="481.76" y2="767.27" style="stroke:#000000;stroke-width:5.76"/>
	<text x="461.83" y="802.30" style="font-family:'Helvetica';font-size:99.99px;fill:#000000" text-anchor="end">1.10</text>
	<line x1="521.73" y1="616.54" x2="481.76" y2="616.54" style="stroke:#000000;stroke-width:5.76"/>
	<text x="461.83" y="651.57" style="font-family:'Helvetica';font-size:99.99px;fill:#000000" text-anchor="end">1.20</text>
	<line x1="521.73" y1="465.69" x2="481.76" y2="465.69" style="stroke:#000000;stroke-width:5.76"/>
	<text x="461.83" y="500.71" style="font-family:'Helvetica';font-size:99.99px;fill:#000000" text-anchor="end">1.30</text>
	<line x1="521.73" y1="314.95" x2="481.76" y2="314.95" style="stroke:#000000;stroke-width:5.76"/>
	<text x="461.83" y="349.98" style="font-family:'Helvetica';font-size:99.99px;fill:#000000" text-anchor="end">1.40</text>
	<line x1="521.73" y1="164.22" x2="481.76" y2="164.22" style="stroke:#000000;stroke-width:5.76"/>
	<text x="461.83" y="199.25" style="font-family:'Helvetica';font-size:99.99px;fill:#000000" text-anchor="end">1.50</text>
	<text x="190.71" y="1294.96" style="font-family:'Helvetica';font-size:99.99px;fill:#000000" transform="rotate(-90 190.71,1294.96)" text-anchor="middle">Cumulative incidence (%)</text>
	<line x1="521.73" y1="2489.19" x2="3859.02" y2="2489.19" style="stroke:#000000;stroke-width:5.76"/>
	<line x1="585.09" y1="2489.19" x2="585.09" y2="2529.16" style="stroke:#000000;stroke-width:5.76"/>
	<text x="585.09" y="2619.14" style="font-family:'Helvetica';font-size:99.99px;fill:#000000" text-anchor="middle">0</text>
	<line x1="1345.90" y1="2489.19" x2="1345.90" y2="2529.16" style="stroke:#000000;stroke-width:5.76"/>
	<text x="1345.90" y="2619.14" style="font-family:'Helvetica';font-size:99.99px;fill:#000000" text-anchor="middle">50</text>
	<line x1="2106.72" y1="2489.19" x2="2106.72" y2="2529.16" style="stroke:#000000;stroke-width:5.76"/>
	<text x="2106.72" y="2619.14" style="font-family:'Helvetica';font-size:99.99px;fill:#000000" text-anchor="middle">100</text>
	<line x1="2867.53" y1="2489.19" x2="2867.53" y2="2529.16" style="stroke:#000000;stroke-width:5.76"/>
	<text x="2867.53" y="2619.14" style="font-family:'Helvetica';font-size:99.99px;fill:#000000" text-anchor="middle">150</text>
	<line x1="3628.35" y1="2489.19" x2="3628.35" y2="2529.16" style="stroke:#000000;stroke-width:5.76"/>
	<text x="3628.35" y="2619.14" style="font-family:'Helvetica';font-size:99.99px;fill:#000000" text-anchor="middle">200</text>
	<text x="2190.38" y="2729.16" style="font-family:'Helvetica';font-size:99.99px;fill:#000000" text-anchor="middle">Days from 1 March 2020</text>
	<rect x="2717.80" y="2128.20" width="1106.70" height="326.46" style="fill:#FFFFFF"/>
	<rect x="2720.68" y="2131.08" width="1100.94" height="320.70" style="fill:none;stroke:#000000;stroke-width:5.76"/>
	<rect x="2761.11" y="2171.51" width="374.34" height="99.99" style="fill:#3333FF;fill-opacity:0.25"/>
	<rect x="2765.43" y="2175.83" width="365.70" height="91.35" style="fill:none;stroke:#0000FF;stroke-opacity:0.25;stroke-width:8.64"/>
	<rect x="2761.11" y="2311.47" width="374.34" height="99.99" style="fill:#FF3333;fill-opacity:0.25"/>
	<rect x="2765.43" y="2315.79" width="365.70" height="91.35" style="fill:none;stroke:#FF0000;stroke-opacity:0.25;stroke-width:8.64"/>
	<text x="3195.47" y="2256.53" style="font-family:'Helvetica';font-size:99.99px;fill:#000000">DOAC use</text>
	<text x="3195.47" y="2396.50" style="font-family:'Helvetica';font-size:99.99px;fill:#000000">Warfarin use</text>
</svg>
