<?xml version="1.0" encoding="UTF-8" standalone="no"?>
<!-- This is a Stata 16.1 generated SVG file (http://www.stata.com) -->

<svg version="1.1" width="5.50in" height="4.00in" viewBox="0 0 3960 2880" xmlns="http://www.w3.org/2000/svg" xmlns:xlink="http://www.w3.org/1999/xlink">
	<desc>Stata Graph - Graph</desc>
	<rect x="0" y="0" width="3960" height="2880" style="fill:#EAF2F3;stroke:none"/>
	<rect x="0.00" y="0.00" width="3959.88" height="2880.00" style="fill:#EAF2F3"/>
	<rect x="2.88" y="2.88" width="3954.12" height="2874.24" style="fill:none;stroke:#EAF2F3;stroke-width:5.76"/>
	<rect x="578.53" y="100.86" width="3280.49" height="2388.33" style="fill:#FFFFFF"/>
	<rect x="581.41" y="103.74" width="3274.73" height="2382.57" style="fill:none;stroke:#FFFFFF;stroke-width:5.76"/>
	<line x1="578.53" y1="2425.82" x2="3859.02" y2="2425.82" style="stroke:#EAF2F3;stroke-width:8.64"/>
	<line x1="578.53" y1="2350.46" x2="3859.02" y2="2350.46" style="stroke:#EAF2F3;stroke-width:8.64"/>
	<line x1="578.53" y1="2275.09" x2="3859.02" y2="2275.09" style="stroke:#EAF2F3;stroke-width:8.64"/>
	<line x1="578.53" y1="2199.72" x2="3859.02" y2="2199.72" style="stroke:#EAF2F3;stroke-width:8.64"/>
	<line x1="578.53" y1="2124.24" x2="3859.02" y2="2124.24" style="stroke:#EAF2F3;stroke-width:8.64"/>
	<line x1="578.53" y1="2048.87" x2="3859.02" y2="2048.87" style="stroke:#EAF2F3;stroke-width:8.64"/>
	<line x1="578.53" y1="1973.50" x2="3859.02" y2="1973.50" style="stroke:#EAF2F3;stroke-width:8.64"/>
	<line x1="578.53" y1="1898.14" x2="3859.02" y2="1898.14" style="stroke:#EAF2F3;stroke-width:8.64"/>
	<line x1="578.53" y1="1822.77" x2="3859.02" y2="1822.77" style="stroke:#EAF2F3;stroke-width:8.64"/>
	<line x1="578.53" y1="1747.28" x2="3859.02" y2="1747.28" style="stroke:#EAF2F3;stroke-width:8.64"/>
	<line x1="578.53" y1="1671.91" x2="3859.02" y2="1671.91" style="stroke:#EAF2F3;stroke-width:8.64"/>
	<line x1="578.53" y1="1596.55" x2="3859.02" y2="1596.55" style="stroke:#EAF2F3;stroke-width:8.64"/>
	<line x1="578.53" y1="1521.18" x2="3859.02" y2="1521.18" style="stroke:#EAF2F3;stroke-width:8.64"/>
	<line x1="578.53" y1="1445.82" x2="3859.02" y2="1445.82" style="stroke:#EAF2F3;stroke-width:8.64"/>
	<line x1="578.53" y1="1370.45" x2="3859.02" y2="1370.45" style="stroke:#EAF2F3;stroke-width:8.64"/>
	<line x1="578.53" y1="1294.96" x2="3859.02" y2="1294.96" style="stroke:#EAF2F3;stroke-width:8.64"/>
	<line x1="578.53" y1="1219.59" x2="3859.02" y2="1219.59" style="stroke:#EAF2F3;stroke-width:8.64"/>
	<line x1="578.53" y1="1144.23" x2="3859.02" y2="1144.23" style="stroke:#EAF2F3;stroke-width:8.64"/>
	<line x1="578.53" y1="1068.86" x2="3859.02" y2="1068.86" style="stroke:#EAF2F3;stroke-width:8.64"/>
	<line x1="578.53" y1="993.50" x2="3859.02" y2="993.50" style="stroke:#EAF2F3;stroke-width:8.64"/>
	<line x1="578.53" y1="918.01" x2="3859.02" y2="918.01" style="stroke:#EAF2F3;stroke-width:8.64"/>
	<line x1="578.53" y1="842.64" x2="3859.02" y2="842.64" style="stroke:#EAF2F3;stroke-width:8.64"/>
	<line x1="578.53" y1="767.27" x2="3859.02" y2="767.27" style="stroke:#EAF2F3;stroke-width:8.64"/>
	<line x1="578.53" y1="691.91" x2="3859.02" y2="691.91" style="stroke:#EAF2F3;stroke-width:8.64"/>
	<line x1="578.53" y1="616.54" x2="3859.02" y2="616.54" style="stroke:#EAF2F3;stroke-width:8.64"/>
	<line x1="578.53" y1="541.05" x2="3859.02" y2="541.05" style="stroke:#EAF2F3;stroke-width:8.64"/>
	<line x1="578.53" y1="465.69" x2="3859.02" y2="465.69" style="stroke:#EAF2F3;stroke-width:8.64"/>
	<line x1="578.53" y1="390.32" x2="3859.02" y2="390.32" style="stroke:#EAF2F3;stroke-width:8.64"/>
	<line x1="578.53" y1="314.95" x2="3859.02" y2="314.95" style="stroke:#EAF2F3;stroke-width:8.64"/>
	<line x1="578.53" y1="239.59" x2="3859.02" y2="239.59" style="stroke:#EAF2F3;stroke-width:8.64"/>
	<defs>
		<path id="path_WlJAqmaj" d="M656.74 2425.82 L656.74 2425.82 L671.72 2425.82 L686.69 2425.82 L701.66 2425.70 L716.51 2425.58 L731.49 2425.45 L746.46 2425.08 L761.43 2424.71 L776.41 2424.21 L791.26 2423.72 L806.23 2422.98 L821.21 2422.11 L836.18 2421.24 L851.15 2420.13 L866.00 2418.89 L880.98 2417.53 L895.95 2416.05 L910.92 2414.31 L925.77 2412.46 L940.75 2410.48 L955.72 2408.37 L970.70 2406.15 L985.67 2403.67 L1000.52 2401.07 L1015.49 2398.23 L1030.47 2395.38 L1045.44 2392.29 L1060.41 2389.07 L1075.26 2385.60 L1090.24 2382.14 L1105.21 2378.43 L1120.18 2374.59 L1135.04 2370.63 L1150.01 2366.42 L1164.98 2362.09 L1179.96 2357.63 L1194.93 2353.06 L1209.78 2348.35 L1224.75 2343.53 L1239.73 2338.45 L1254.70 2333.38 L1269.67 2328.06 L1284.53 2322.74 L1299.50 2317.17 L1314.47 2311.47 L1329.45 2305.66 L1344.30 2299.84 L1359.27 2293.78 L1374.24 2287.59 L1389.22 2281.28 L1404.19 2274.97 L1419.04 2268.41 L1434.02 2261.85 L1448.99 2255.17 L1463.96 2248.24 L1478.94 2241.31 L1493.79 2234.38 L1508.76 2227.20 L1523.73 2220.02 L1538.71 2212.60 L1553.68 2205.17 L1568.53 2197.74 L1583.51 2190.07 L1598.48 2182.40 L1613.45 2174.60 L1628.30 2166.81 L1643.28 2158.89 L1658.25 2150.84 L1673.22 2142.80 L1688.20 2134.51 L1703.05 2126.34 L1718.02 2118.05 L1732.99 2109.63 L1747.97 2101.09 L1762.94 2092.55 L1777.79 2084.02 L1792.77 2075.35 L1807.74 2066.57 L1822.71 2057.78 L1837.56 2048.99 L1852.54 2040.08 L1867.51 2031.17 L1882.48 2022.14 L1897.46 2013.10 L1912.31 2003.95 L1927.28 1994.79 L1942.26 1985.63 L1957.23 1976.35 L1972.20 1967.07 L1987.05 1957.66 L2002.03 1948.26 L2017.00 1938.85 L2031.97 1929.32 L2046.83 1919.92 L2061.80 1910.39 L2076.77 1900.74 L2091.75 1891.21 L2106.72 1881.55 L2121.57 1871.90 L2136.54 1862.12 L2151.52 1852.47 L2166.49 1842.70 L2181.47 1832.92 L2196.32 1823.14 L2211.29 1813.37 L2226.26 1803.47 L2241.24 1793.69 L2256.09 1783.79 L2271.06 1774.01 L2286.03 1764.11 L2301.01 1754.21 L2315.98 1744.31 L2330.83 1734.41 L2345.80 1724.51 L2360.78 1714.61 L2375.75 1704.71 L2390.73 1694.81 L2405.58 1684.91 L2420.55 1675.01 L2435.52 1665.11 L2450.50 1655.21 L2465.35 1645.31 L2480.32 1635.41 L2495.30 1625.51 L2510.27 1615.73 L2525.24 1605.83 L2540.09 1595.93 L2555.07 1586.15 L2570.04 1576.25 L2585.01 1566.48 L2599.99 1556.70 L2614.84 1546.92 L2629.81 1537.15 L2644.78 1527.37 L2659.76 1517.72 L2674.73 1507.94 L2689.58 1498.29 L2704.56 1488.64 L2719.53 1478.98 L2734.50 1469.33 L2749.35 1459.68 L2764.33 1450.15 L2779.30 1440.50 L2794.28 1430.97 L2809.25 1421.44 L2824.10 1412.03 L2839.07 1402.50 L2854.05 1393.10 L2869.02 1383.69 L2883.99 1374.29 L2898.84 1364.88 L2913.82 1355.60 L2928.79 1346.32 L2943.76 1337.04 L2958.61 1327.88 L2973.59 1318.60 L2988.56 1309.44 L3003.54 1300.28 L3018.51 1291.12 L3033.36 1282.09 L3048.33 1272.93 L3063.31 1263.90 L3078.28 1254.86 L3093.26 1245.95 L3108.11 1236.92 L3123.08 1228.01 L3138.05 1219.10 L3153.03 1210.19 L3167.88 1201.28 L3182.85 1192.37 L3197.82 1183.58 L3212.80 1174.80 L3227.77 1166.01 L3242.62 1157.22 L3257.59 1148.44 L3272.57 1139.65 L3287.54 1130.99 L3302.52 1122.20 L3317.37 1113.54 L3332.34 1104.87 L3347.31 1096.21 L3362.29 1087.67 L3377.14 1079.01 L3392.11 1070.35 L3407.09 1061.81 L3422.06 1053.27 L3437.03 1044.73 L3451.88 1036.07 L3466.86 1027.65 L3481.83 1019.11 L3496.80 1010.57 L3511.78 1002.04 L3526.63 993.62 L3541.60 985.08 L3556.57 976.67 L3571.55 968.25 L3586.40 959.83 L3601.37 951.30 L3616.35 942.88 L3631.32 934.47 L3646.29 926.17 L3661.14 917.76 L3676.12 909.34 L3691.09 900.93 L3706.07 892.64 L3721.04 884.22 L3735.89 875.81 L3750.86 867.51 L3765.84 859.10 L3780.81 850.81 L3795.78 842.52 L3795.78 820.36 L3780.81 828.78 L3765.84 837.32 L3750.86 845.73 L3735.89 854.15 L3721.04 862.69 L3706.07 871.10 L3691.09 879.64 L3676.12 888.06 L3661.14 896.60 L3646.29 905.01 L3631.32 913.55 L3616.35 922.09 L3601.37 930.51 L3586.40 939.04 L3571.55 947.58 L3556.57 956.12 L3541.60 964.66 L3526.63 973.20 L3511.78 981.74 L3496.80 990.28 L3481.83 998.82 L3466.86 1007.48 L3451.88 1016.02 L3437.03 1024.68 L3422.06 1033.22 L3407.09 1041.88 L3392.11 1050.55 L3377.14 1059.21 L3362.29 1067.87 L3347.31 1076.53 L3332.34 1085.32 L3317.37 1093.98 L3302.52 1102.77 L3287.54 1111.56 L3272.57 1120.34 L3257.59 1129.13 L3242.62 1137.92 L3227.77 1146.70 L3212.80 1155.61 L3197.82 1164.40 L3182.85 1173.31 L3167.88 1182.22 L3153.03 1191.25 L3138.05 1200.17 L3123.08 1209.20 L3108.11 1218.11 L3093.26 1227.14 L3078.28 1236.30 L3063.31 1245.34 L3048.33 1254.49 L3033.36 1263.53 L3018.51 1272.81 L3003.54 1281.97 L2988.56 1291.12 L2973.59 1300.41 L2958.61 1309.69 L2943.76 1318.97 L2928.79 1328.37 L2913.82 1337.78 L2898.84 1347.18 L2883.99 1356.59 L2869.02 1366.12 L2854.05 1375.52 L2839.07 1385.05 L2824.10 1394.71 L2809.25 1404.24 L2794.28 1413.89 L2779.30 1423.54 L2764.33 1433.19 L2749.35 1442.85 L2734.50 1452.62 L2719.53 1462.28 L2704.56 1472.05 L2689.58 1481.83 L2674.73 1491.73 L2659.76 1501.51 L2644.78 1511.28 L2629.81 1521.18 L2614.84 1531.08 L2599.99 1540.98 L2585.01 1550.88 L2570.04 1560.78 L2555.07 1570.81 L2540.09 1580.71 L2525.24 1590.73 L2510.27 1600.63 L2495.30 1610.66 L2480.32 1620.68 L2465.35 1630.58 L2450.50 1640.61 L2435.52 1650.63 L2420.55 1660.65 L2405.58 1670.68 L2390.73 1680.70 L2375.75 1690.60 L2360.78 1700.63 L2345.80 1710.65 L2330.83 1720.67 L2315.98 1730.70 L2301.01 1740.60 L2286.03 1750.62 L2271.06 1760.65 L2256.09 1770.55 L2241.24 1780.45 L2226.26 1790.47 L2211.29 1800.37 L2196.32 1810.27 L2181.47 1820.17 L2166.49 1829.95 L2151.52 1839.85 L2136.54 1849.63 L2121.57 1859.40 L2106.72 1869.18 L2091.75 1878.95 L2076.77 1888.61 L2061.80 1898.26 L2046.83 1907.91 L2031.97 1917.57 L2017.00 1927.10 L2002.03 1936.62 L1987.05 1946.15 L1972.20 1955.68 L1957.23 1965.09 L1942.26 1974.49 L1927.28 1983.77 L1912.31 1993.06 L1897.46 2002.34 L1882.48 2011.50 L1867.51 2020.65 L1852.54 2029.69 L1837.56 2038.72 L1822.71 2047.76 L1807.74 2056.67 L1792.77 2065.45 L1777.79 2074.36 L1762.94 2083.03 L1747.97 2091.69 L1732.99 2100.35 L1718.02 2108.89 L1703.05 2117.30 L1688.20 2125.72 L1673.22 2134.14 L1658.25 2142.30 L1643.28 2150.47 L1628.30 2158.64 L1613.45 2166.56 L1598.48 2174.60 L1583.51 2182.40 L1568.53 2190.20 L1553.68 2197.87 L1538.71 2205.42 L1523.73 2212.84 L1508.76 2220.27 L1493.79 2227.57 L1478.94 2234.75 L1463.96 2241.80 L1448.99 2248.73 L1434.02 2255.66 L1419.04 2262.34 L1404.19 2269.03 L1389.22 2275.59 L1374.24 2282.02 L1359.27 2288.21 L1344.30 2294.40 L1329.45 2300.46 L1314.47 2306.40 L1299.50 2312.22 L1284.53 2317.91 L1269.67 2323.36 L1254.70 2328.80 L1239.73 2334.12 L1224.75 2339.20 L1209.78 2344.27 L1194.93 2349.10 L1179.96 2353.80 L1164.98 2358.38 L1150.01 2362.83 L1135.04 2367.04 L1120.18 2371.12 L1105.21 2375.21 L1090.24 2378.92 L1075.26 2382.63 L1060.41 2386.22 L1045.44 2389.56 L1030.47 2392.78 L1015.49 2395.75 L1000.52 2398.72 L985.67 2401.44 L970.70 2404.04 L955.72 2406.39 L940.75 2408.75 L925.77 2410.85 L910.92 2412.83 L895.95 2414.56 L880.98 2416.29 L866.00 2417.78 L851.15 2419.14 L836.18 2420.38 L821.21 2421.37 L806.23 2422.36 L791.26 2423.22 L776.41 2423.84 L761.43 2424.46 L746.46 2424.83 L731.49 2425.20 L716.51 2425.45 L701.66 2425.70 L686.69 2425.82 L671.72 2425.82 L656.74 2425.82 L656.74 2425.82 Z" stroke-linejoin="round"/>
	</defs>
	<defs>
		<clipPath id="clipPath_EDKfcbLx">
			<use xlink:href="#path_WlJAqmaj"/>
		</clipPath>
	</defs>
	<use xlink:href="#path_WlJAqmaj" style="stroke:none;fill:#3333FF;fill-opacity:0.25"/>
	<use xlink:href="#path_WlJAqmaj" style="fill:none;stroke:#0000FF;stroke-opacity:0.25;stroke-width:17.28" clip-path="url(#clipPath_EDKfcbLx)"/>
	<defs>
		<path id="path_sSvtIkOA" d="M656.74 2425.82 L656.74 2425.82 L671.72 2425.82 L686.69 2425.82 L701.66 2425.70 L716.51 2425.58 L731.49 2425.45 L746.46 2425.20 L761.43 2424.96 L776.41 2424.46 L791.26 2423.97 L806.23 2423.47 L821.21 2422.73 L836.18 2421.99 L851.15 2421.00 L866.00 2420.01 L880.98 2418.77 L895.95 2417.53 L910.92 2416.17 L925.77 2414.56 L940.75 2412.95 L955.72 2411.10 L970.70 2409.24 L985.67 2407.14 L1000.52 2404.91 L1015.49 2402.56 L1030.47 2400.08 L1045.44 2397.48 L1060.41 2394.76 L1075.26 2391.91 L1090.24 2388.94 L1105.21 2385.85 L1120.18 2382.63 L1135.04 2379.29 L1150.01 2375.70 L1164.98 2372.11 L1179.96 2368.40 L1194.93 2364.44 L1209.78 2360.48 L1224.75 2356.40 L1239.73 2352.19 L1254.70 2347.86 L1269.67 2343.40 L1284.53 2338.82 L1299.50 2334.12 L1314.47 2329.42 L1329.45 2324.47 L1344.30 2319.52 L1359.27 2314.44 L1374.24 2309.25 L1389.22 2303.93 L1404.19 2298.48 L1419.04 2293.04 L1434.02 2287.47 L1448.99 2281.77 L1463.96 2275.96 L1478.94 2270.14 L1493.79 2264.20 L1508.76 2258.14 L1523.73 2251.95 L1538.71 2245.76 L1553.68 2239.57 L1568.53 2233.14 L1583.51 2226.70 L1598.48 2220.14 L1613.45 2213.59 L1628.30 2206.90 L1643.28 2200.22 L1658.25 2193.41 L1673.22 2186.48 L1688.20 2179.55 L1703.05 2172.62 L1718.02 2165.57 L1732.99 2158.39 L1747.97 2151.21 L1762.94 2143.91 L1777.79 2136.61 L1792.77 2129.31 L1807.74 2121.88 L1822.71 2114.33 L1837.56 2106.79 L1852.54 2099.24 L1867.51 2091.69 L1882.48 2084.02 L1897.46 2076.22 L1912.31 2068.42 L1927.28 2060.63 L1942.26 2052.83 L1957.23 2044.91 L1972.20 2036.99 L1987.05 2028.94 L2002.03 2021.02 L2017.00 2012.98 L2031.97 2004.81 L2046.83 1996.77 L2061.80 1988.60 L2076.77 1980.43 L2091.75 1972.14 L2106.72 1963.97 L2121.57 1955.68 L2136.54 1947.39 L2151.52 1939.10 L2166.49 1930.68 L2181.47 1922.39 L2196.32 1913.98 L2211.29 1905.56 L2226.26 1897.15 L2241.24 1888.73 L2256.09 1880.32 L2271.06 1871.78 L2286.03 1863.36 L2301.01 1854.82 L2315.98 1846.41 L2330.83 1837.87 L2345.80 1829.33 L2360.78 1820.79 L2375.75 1812.25 L2390.73 1803.84 L2405.58 1795.30 L2420.55 1786.76 L2435.52 1778.22 L2450.50 1769.68 L2465.35 1761.14 L2480.32 1752.60 L2495.30 1744.19 L2510.27 1735.65 L2525.24 1727.11 L2540.09 1718.57 L2555.07 1710.15 L2570.04 1701.62 L2585.01 1693.20 L2599.99 1684.66 L2614.84 1676.25 L2629.81 1667.83 L2644.78 1659.29 L2659.76 1650.88 L2674.73 1642.46 L2689.58 1634.17 L2704.56 1625.75 L2719.53 1617.34 L2734.50 1609.05 L2749.35 1600.76 L2764.33 1592.34 L2779.30 1584.05 L2794.28 1575.88 L2809.25 1567.59 L2824.10 1559.30 L2839.07 1551.13 L2854.05 1542.96 L2869.02 1534.80 L2883.99 1526.63 L2898.84 1518.46 L2913.82 1510.42 L2928.79 1502.37 L2943.76 1494.33 L2958.61 1486.28 L2973.59 1478.24 L2988.56 1470.20 L3003.54 1462.28 L3018.51 1454.36 L3033.36 1446.44 L3048.33 1438.51 L3063.31 1430.59 L3078.28 1422.80 L3093.26 1415.00 L3108.11 1407.08 L3123.08 1399.28 L3138.05 1391.61 L3153.03 1383.82 L3167.88 1376.02 L3182.85 1368.35 L3197.82 1360.55 L3212.80 1352.88 L3227.77 1345.20 L3242.62 1337.53 L3257.59 1329.86 L3272.57 1322.31 L3287.54 1314.64 L3302.52 1307.09 L3317.37 1299.42 L3332.34 1291.87 L3347.31 1284.32 L3362.29 1276.77 L3377.14 1269.22 L3392.11 1261.67 L3407.09 1254.12 L3422.06 1246.70 L3437.03 1239.15 L3451.88 1231.72 L3466.86 1224.17 L3481.83 1216.75 L3496.80 1209.32 L3511.78 1201.77 L3526.63 1194.35 L3541.60 1186.92 L3556.57 1179.50 L3571.55 1172.07 L3586.40 1164.65 L3601.37 1157.22 L3616.35 1149.92 L3631.32 1142.50 L3646.29 1135.07 L3661.14 1127.65 L3676.12 1120.34 L3691.09 1112.92 L3706.07 1105.62 L3721.04 1098.19 L3735.89 1090.77 L3750.86 1083.47 L3765.84 1076.04 L3780.81 1068.74 L3795.78 1061.44 L3795.78 1023.69 L3780.81 1031.24 L3765.84 1038.79 L3750.86 1046.34 L3735.89 1053.89 L3721.04 1061.44 L3706.07 1068.99 L3691.09 1076.53 L3676.12 1084.08 L3661.14 1091.63 L3646.29 1099.18 L3631.32 1106.73 L3616.35 1114.28 L3601.37 1121.83 L3586.40 1129.38 L3571.55 1136.93 L3556.57 1144.60 L3541.60 1152.15 L3526.63 1159.82 L3511.78 1167.37 L3496.80 1175.04 L3481.83 1182.59 L3466.86 1190.26 L3451.88 1197.94 L3437.03 1205.49 L3422.06 1213.16 L3407.09 1220.83 L3392.11 1228.50 L3377.14 1236.18 L3362.29 1243.97 L3347.31 1251.65 L3332.34 1259.32 L3317.37 1267.12 L3302.52 1274.91 L3287.54 1282.59 L3272.57 1290.38 L3257.59 1298.18 L3242.62 1305.97 L3227.77 1313.89 L3212.80 1321.69 L3197.82 1329.61 L3182.85 1337.41 L3167.88 1345.33 L3153.03 1353.25 L3138.05 1361.17 L3123.08 1369.09 L3108.11 1377.13 L3093.26 1385.05 L3078.28 1393.10 L3063.31 1401.14 L3048.33 1409.19 L3033.36 1417.23 L3018.51 1425.40 L3003.54 1433.44 L2988.56 1441.61 L2973.59 1449.78 L2958.61 1457.94 L2943.76 1466.11 L2928.79 1474.40 L2913.82 1482.70 L2898.84 1490.99 L2883.99 1499.28 L2869.02 1507.57 L2854.05 1515.98 L2839.07 1524.40 L2824.10 1532.82 L2809.25 1541.23 L2794.28 1549.65 L2779.30 1558.18 L2764.33 1566.72 L2749.35 1575.14 L2734.50 1583.68 L2719.53 1592.22 L2704.56 1600.88 L2689.58 1609.42 L2674.73 1618.08 L2659.76 1626.62 L2644.78 1635.28 L2629.81 1643.95 L2614.84 1652.61 L2599.99 1661.27 L2585.01 1669.93 L2570.04 1678.72 L2555.07 1687.38 L2540.09 1696.05 L2525.24 1704.83 L2510.27 1713.50 L2495.30 1722.28 L2480.32 1730.95 L2465.35 1739.73 L2450.50 1748.52 L2435.52 1757.18 L2420.55 1765.97 L2405.58 1774.75 L2390.73 1783.42 L2375.75 1792.20 L2360.78 1800.99 L2345.80 1809.65 L2330.83 1818.44 L2315.98 1827.10 L2301.01 1835.76 L2286.03 1844.55 L2271.06 1853.21 L2256.09 1861.88 L2241.24 1870.54 L2226.26 1879.20 L2211.29 1887.87 L2196.32 1896.40 L2181.47 1905.07 L2166.49 1913.61 L2151.52 1922.15 L2136.54 1930.68 L2121.57 1939.22 L2106.72 1947.64 L2091.75 1956.18 L2076.77 1964.59 L2061.80 1973.01 L2046.83 1981.30 L2031.97 1989.59 L2017.00 1998.01 L2002.03 2006.17 L1987.05 2014.47 L1972.20 2022.63 L1957.23 2030.80 L1942.26 2038.84 L1927.28 2047.01 L1912.31 2055.06 L1897.46 2062.98 L1882.48 2070.90 L1867.51 2078.82 L1852.54 2086.74 L1837.56 2094.53 L1822.71 2102.21 L1807.74 2109.88 L1792.77 2117.55 L1777.79 2125.10 L1762.94 2132.65 L1747.97 2140.20 L1732.99 2147.62 L1718.02 2154.93 L1703.05 2162.23 L1688.20 2169.41 L1673.22 2176.58 L1658.25 2183.76 L1643.28 2190.69 L1628.30 2197.62 L1613.45 2204.55 L1598.48 2211.36 L1583.51 2218.04 L1568.53 2224.72 L1553.68 2231.28 L1538.71 2237.84 L1523.73 2244.28 L1508.76 2250.59 L1493.79 2256.78 L1478.94 2262.96 L1463.96 2269.03 L1448.99 2274.97 L1434.02 2280.91 L1419.04 2286.60 L1404.19 2292.29 L1389.22 2297.86 L1374.24 2303.43 L1359.27 2308.75 L1344.30 2314.07 L1329.45 2319.15 L1314.47 2324.22 L1299.50 2329.17 L1284.53 2334.00 L1269.67 2338.82 L1254.70 2343.40 L1239.73 2347.86 L1224.75 2352.31 L1209.78 2356.52 L1194.93 2360.61 L1179.96 2364.69 L1164.98 2368.53 L1150.01 2372.36 L1135.04 2375.95 L1120.18 2379.42 L1105.21 2382.88 L1090.24 2386.10 L1075.26 2389.19 L1060.41 2392.16 L1045.44 2395.01 L1030.47 2397.73 L1015.49 2400.33 L1000.52 2402.81 L985.67 2405.16 L970.70 2407.38 L955.72 2409.36 L940.75 2411.34 L925.77 2413.08 L910.92 2414.81 L895.95 2416.29 L880.98 2417.78 L866.00 2419.02 L851.15 2420.13 L836.18 2421.24 L821.21 2422.11 L806.23 2422.85 L791.26 2423.60 L776.41 2424.21 L761.43 2424.59 L746.46 2425.08 L731.49 2425.33 L716.51 2425.58 L701.66 2425.70 L686.69 2425.82 L671.72 2425.82 L656.74 2425.82 L656.74 2425.82 Z" stroke-linejoin="round"/>
	</defs>
	<defs>
		<clipPath id="clipPath_gzhsXLYU">
			<use xlink:href="#path_sSvtIkOA"/>
		</clipPath>
	</defs>
	<use xlink:href="#path_sSvtIkOA" style="stroke:none;fill:#FF3333;fill-opacity:0.25"/>
	<use xlink:href="#path_sSvtIkOA" style="fill:none;stroke:#FF0000;stroke-opacity:0.25;stroke-width:17.28" clip-path="url(#clipPath_gzhsXLYU)"/>
	<path d=" M641.77 2425.95 L656.74 2425.95 L671.72 2425.95 L686.57 2425.82 L701.54 2425.70 L716.51 2425.58 L731.49 2425.33 L746.46 2425.08 L761.31 2424.71 L776.28 2424.09 L791.26 2423.47 L806.23 2422.73 L821.08 2421.86 L836.05 2420.87 L851.03 2419.76 L866.00 2418.40 L880.98 2416.91 L895.83 2415.43 L910.80 2413.70 L925.77 2411.72 L940.75 2409.74 L955.72 2407.51 L970.57 2405.16 L985.54 2402.68 L1000.52 2399.96 L1015.49 2397.11 L1030.34 2394.14 L1045.32 2391.05 L1060.29 2387.71 L1075.26 2384.24 L1090.24 2380.65 L1105.09 2376.82 L1120.06 2372.98 L1135.04 2368.90 L1150.01 2364.69 L1164.98 2360.36 L1179.83 2355.78 L1194.81 2351.20 L1209.78 2346.37 L1224.75 2341.42 L1239.60 2336.35 L1254.58 2331.15 L1269.55 2325.83 L1284.53 2320.39 L1299.50 2314.82 L1314.35 2309.00 L1329.32 2303.18 L1344.30 2297.24 L1359.27 2291.06 L1374.24 2284.87 L1389.09 2278.56 L1404.07 2272.12 L1419.04 2265.44 L1434.02 2258.76 L1448.87 2252.07 L1463.84 2245.14 L1478.81 2238.09 L1493.79 2231.03 L1508.76 2223.86 L1523.61 2216.56 L1538.58 2209.13 L1553.56 2201.58 L1568.53 2194.03 L1583.51 2186.36 L1598.36 2178.56 L1613.33 2170.77 L1628.30 2162.85 L1643.28 2154.80 L1658.25 2146.63 L1673.10 2138.47 L1688.07 2130.30 L1703.05 2121.88 L1718.02 2113.59 L1732.87 2105.05 L1747.85 2096.51 L1762.82 2087.98 L1777.79 2079.31 L1792.77 2070.53 L1807.62 2061.74 L1822.59 2052.83 L1837.56 2043.92 L1852.54 2035.01 L1867.51 2025.97 L1882.36 2016.94 L1897.34 2007.78 L1912.31 1998.62 L1927.28 1989.34 L1942.13 1980.06 L1957.11 1970.78 L1972.08 1961.38 L1987.05 1951.97 L2002.03 1942.56 L2016.88 1933.04 L2031.85 1923.63 L2046.83 1913.98 L2061.80 1904.45 L2076.77 1894.80 L2091.62 1885.14 L2106.60 1875.49 L2121.57 1865.71 L2136.54 1855.94 L2151.39 1846.28 L2166.37 1836.38 L2181.34 1826.61 L2196.32 1816.83 L2211.29 1806.93 L2226.14 1797.03 L2241.11 1787.13 L2256.09 1777.23 L2271.06 1767.33 L2286.03 1757.43 L2300.88 1747.53 L2315.86 1737.63 L2330.83 1727.60 L2345.80 1717.70 L2360.66 1707.80 L2375.63 1697.78 L2390.60 1687.88 L2405.58 1677.85 L2420.55 1667.95 L2435.40 1657.93 L2450.37 1648.03 L2465.35 1638.01 L2480.32 1628.11 L2495.30 1618.21 L2510.14 1608.31 L2525.12 1598.40 L2540.09 1588.50 L2555.07 1578.60 L2569.92 1568.70 L2584.89 1558.80 L2599.86 1548.90 L2614.84 1539.13 L2629.81 1529.23 L2644.66 1519.45 L2659.64 1509.67 L2674.61 1499.90 L2689.58 1490.12 L2704.56 1480.47 L2719.41 1470.69 L2734.38 1461.04 L2749.35 1451.39 L2764.33 1441.73 L2779.30 1432.08 L2794.15 1422.55 L2809.12 1412.90 L2824.10 1403.37 L2839.07 1393.96 L2853.92 1384.43 L2868.90 1374.91 L2883.87 1365.50 L2898.84 1356.09 L2913.82 1346.81 L2928.67 1337.41 L2943.64 1328.13 L2958.61 1318.84 L2973.59 1309.56 L2988.56 1300.41 L3003.41 1291.25 L3018.39 1282.09 L3033.36 1272.93 L3048.33 1263.77 L3063.18 1254.74 L3078.16 1245.71 L3093.13 1236.67 L3108.11 1227.64 L3123.08 1218.60 L3137.93 1209.69 L3152.90 1200.78 L3167.88 1191.87 L3182.85 1182.96 L3197.82 1174.05 L3212.67 1165.27 L3227.65 1156.48 L3242.62 1147.57 L3257.59 1138.91 L3272.45 1130.12 L3287.42 1121.33 L3302.39 1112.55 L3317.37 1103.88 L3332.34 1095.22 L3347.19 1086.56 L3362.16 1077.90 L3377.14 1069.23 L3392.11 1060.57 L3407.09 1051.91 L3421.93 1043.37 L3436.91 1034.71 L3451.88 1026.17 L3466.86 1017.63 L3481.71 1009.09 L3496.68 1000.55 L3511.65 992.01 L3526.63 983.47 L3541.60 974.93 L3556.45 966.52 L3571.43 957.98 L3586.40 949.56 L3601.37 941.02 L3616.35 932.61 L3631.20 924.07 L3646.17 915.65 L3661.14 907.24 L3676.12 898.82 L3690.97 890.41 L3705.94 881.99 L3720.91 873.58 L3735.89 865.16 L3750.86 856.75 L3765.71 848.33 L3780.69 839.92 L3795.66 831.50" stroke-linejoin="round" style="fill:none;stroke:#0000FF;stroke-width:8.64"/>
	<path d=" M641.77 2425.95 L656.74 2425.95 L671.72 2425.95 L686.57 2425.82 L701.54 2425.82 L716.51 2425.70 L731.49 2425.45 L746.46 2425.20 L761.31 2424.83 L776.28 2424.46 L791.26 2423.84 L806.23 2423.22 L821.08 2422.48 L836.05 2421.62 L851.03 2420.63 L866.00 2419.64 L880.98 2418.40 L895.83 2417.04 L910.80 2415.55 L925.77 2413.94 L940.75 2412.21 L955.72 2410.35 L970.57 2408.37 L985.54 2406.27 L1000.52 2403.92 L1015.49 2401.57 L1030.34 2399.09 L1045.32 2396.37 L1060.29 2393.65 L1075.26 2390.68 L1090.24 2387.58 L1105.09 2384.49 L1120.06 2381.15 L1135.04 2377.68 L1150.01 2374.09 L1164.98 2370.38 L1179.83 2366.55 L1194.81 2362.71 L1209.78 2358.62 L1224.75 2354.42 L1239.60 2350.09 L1254.58 2345.75 L1269.55 2341.18 L1284.53 2336.60 L1299.50 2331.77 L1314.35 2326.94 L1329.32 2321.99 L1344.30 2316.92 L1359.27 2311.72 L1374.24 2306.40 L1389.09 2300.96 L1404.07 2295.51 L1419.04 2289.94 L1434.02 2284.25 L1448.87 2278.43 L1463.84 2272.62 L1478.81 2266.68 L1493.79 2260.61 L1508.76 2254.42 L1523.61 2248.24 L1538.58 2241.93 L1553.56 2235.49 L1568.53 2229.05 L1583.51 2222.50 L1598.36 2215.94 L1613.33 2209.25 L1628.30 2202.45 L1643.28 2195.64 L1658.25 2188.71 L1673.10 2181.66 L1688.07 2174.60 L1703.05 2167.55 L1718.02 2160.37 L1732.87 2153.07 L1747.85 2145.77 L1762.82 2138.47 L1777.79 2131.04 L1792.77 2123.49 L1807.62 2115.94 L1822.59 2108.39 L1837.56 2100.72 L1852.54 2093.05 L1867.51 2085.38 L1882.36 2077.58 L1897.34 2069.78 L1912.31 2061.86 L1927.28 2053.94 L1942.13 2046.02 L1957.11 2037.98 L1972.08 2029.93 L1987.05 2021.89 L2002.03 2013.72 L2016.88 2005.56 L2031.85 1997.39 L2046.83 1989.10 L2061.80 1980.93 L2076.77 1972.64 L2091.62 1964.22 L2106.60 1955.93 L2121.57 1947.51 L2136.54 1939.10 L2151.39 1930.68 L2166.37 1922.27 L2181.34 1913.85 L2196.32 1905.31 L2211.29 1896.78 L2226.14 1888.36 L2241.11 1879.82 L2256.09 1871.16 L2271.06 1862.62 L2286.03 1854.08 L2300.88 1845.42 L2315.86 1836.88 L2330.83 1828.22 L2345.80 1819.68 L2360.66 1811.01 L2375.63 1802.35 L2390.60 1793.81 L2405.58 1785.15 L2420.55 1776.49 L2435.40 1767.82 L2450.37 1759.28 L2465.35 1750.62 L2480.32 1741.96 L2495.30 1733.30 L2510.14 1724.76 L2525.12 1716.09 L2540.09 1707.43 L2555.07 1698.89 L2569.92 1690.35 L2584.89 1681.69 L2599.86 1673.15 L2614.84 1664.61 L2629.81 1656.07 L2644.66 1647.54 L2659.64 1639.00 L2674.61 1630.46 L2689.58 1621.92 L2704.56 1613.50 L2719.41 1604.96 L2734.38 1596.55 L2749.35 1588.13 L2764.33 1579.72 L2779.30 1571.30 L2794.15 1562.89 L2809.12 1554.60 L2824.10 1546.18 L2839.07 1537.89 L2853.92 1529.60 L2868.90 1521.31 L2883.87 1513.14 L2898.84 1504.85 L2913.82 1496.68 L2928.67 1488.51 L2943.64 1480.34 L2958.61 1472.30 L2973.59 1464.13 L2988.56 1456.09 L3003.41 1448.04 L3018.39 1440.00 L3033.36 1431.96 L3048.33 1424.04 L3063.18 1416.12 L3078.16 1408.07 L3093.13 1400.15 L3108.11 1392.23 L3123.08 1384.43 L3137.93 1376.51 L3152.90 1368.72 L3167.88 1360.80 L3182.85 1353.00 L3197.82 1345.20 L3212.67 1337.53 L3227.65 1329.74 L3242.62 1321.94 L3257.59 1314.27 L3272.45 1306.47 L3287.42 1298.80 L3302.39 1291.12 L3317.37 1283.45 L3332.34 1275.78 L3347.19 1268.11 L3362.16 1260.56 L3377.14 1252.88 L3392.11 1245.34 L3407.09 1237.66 L3421.93 1230.11 L3436.91 1222.56 L3451.88 1215.02 L3466.86 1207.34 L3481.71 1199.79 L3496.68 1192.37 L3511.65 1184.82 L3526.63 1177.27 L3541.60 1169.72 L3556.45 1162.17 L3571.43 1154.75 L3586.40 1147.20 L3601.37 1139.77 L3616.35 1132.22 L3631.20 1124.80 L3646.17 1117.25 L3661.14 1109.82 L3676.12 1102.40 L3690.97 1094.85 L3705.94 1087.43 L3720.91 1080.00 L3735.89 1072.57 L3750.86 1065.03 L3765.71 1057.60 L3780.69 1050.18 L3795.66 1042.75" stroke-linejoin="round" style="fill:none;stroke:#FF0000;stroke-width:8.64"/>
	<line x1="578.53" y1="2489.19" x2="578.53" y2="100.86" style="stroke:#000000;stroke-width:5.76"/>
	<line x1="578.53" y1="2425.82" x2="538.44" y2="2425.82" style="stroke:#000000;stroke-width:5.76"/>
	<text x="518.51" y="2460.85" style="font-family:'Helvetica';font-size:99.99px;fill:#000000" text-anchor="end">0.00</text>
	<line x1="578.53" y1="2350.46" x2="538.44" y2="2350.46" style="stroke:#000000;stroke-width:5.76"/>
	<text x="518.51" y="2385.49" style="font-family:'Helvetica';font-size:99.99px;fill:#000000" text-anchor="end">1.00</text>
	<line x1="578.53" y1="2275.09" x2="538.44" y2="2275.09" style="stroke:#000000;stroke-width:5.76"/>
	<text x="518.51" y="2310.12" style="font-family:'Helvetica';font-size:99.99px;fill:#000000" text-anchor="end">2.00</text>
	<line x1="578.53" y1="2199.72" x2="538.44" y2="2199.72" style="stroke:#000000;stroke-width:5.76"/>
	<text x="518.51" y="2234.75" style="font-family:'Helvetica';font-size:99.99px;fill:#000000" text-anchor="end">3.00</text>
	<line x1="578.53" y1="2124.24" x2="538.44" y2="2124.24" style="stroke:#000000;stroke-width:5.76"/>
	<text x="518.51" y="2159.26" style="font-family:'Helvetica';font-size:99.99px;fill:#000000" text-anchor="end">4.00</text>
	<line x1="578.53" y1="2048.87" x2="538.44" y2="2048.87" style="stroke:#000000;stroke-width:5.76"/>
	<text x="518.51" y="2083.90" style="font-family:'Helvetica';font-size:99.99px;fill:#000000" text-anchor="end">5.00</text>
	<line x1="578.53" y1="1973.50" x2="538.44" y2="1973.50" style="stroke:#000000;stroke-width:5.76"/>
	<text x="518.51" y="2008.53" style="font-family:'Helvetica';font-size:99.99px;fill:#000000" text-anchor="end">6.00</text>
	<line x1="578.53" y1="1898.14" x2="538.44" y2="1898.14" style="stroke:#000000;stroke-width:5.76"/>
	<text x="518.51" y="1933.17" style="font-family:'Helvetica';font-size:99.99px;fill:#000000" text-anchor="end">7.00</text>
	<line x1="578.53" y1="1822.77" x2="538.44" y2="1822.77" style="stroke:#000000;stroke-width:5.76"/>
	<text x="518.51" y="1857.80" style="font-family:'Helvetica';font-size:99.99px;fill:#000000" text-anchor="end">8.00</text>
	<line x1="578.53" y1="1747.28" x2="538.44" y2="1747.28" style="stroke:#000000;stroke-width:5.76"/>
	<text x="518.51" y="1782.31" style="font-family:'Helvetica';font-size:99.99px;fill:#000000" text-anchor="end">9.00</text>
	<line x1="578.53" y1="1671.91" x2="538.44" y2="1671.91" style="stroke:#000000;stroke-width:5.76"/>
	<text x="518.51" y="1706.94" style="font-family:'Helvetica';font-size:99.99px;fill:#000000" text-anchor="end">10.00</text>
	<line x1="578.53" y1="1596.55" x2="538.44" y2="1596.55" style="stroke:#000000;stroke-width:5.76"/>
	<text x="518.51" y="1631.58" style="font-family:'Helvetica';font-size:99.99px;fill:#000000" text-anchor="end">11.00</text>
	<line x1="578.53" y1="1521.18" x2="538.44" y2="1521.18" style="stroke:#000000;stroke-width:5.76"/>
	<text x="518.51" y="1556.21" style="font-family:'Helvetica';font-size:99.99px;fill:#000000" text-anchor="end">12.00</text>
	<line x1="578.53" y1="1445.82" x2="538.44" y2="1445.82" style="stroke:#000000;stroke-width:5.76"/>
	<text x="518.51" y="1480.84" style="font-family:'Helvetica';font-size:99.99px;fill:#000000" text-anchor="end">13.00</text>
	<line x1="578.53" y1="1370.45" x2="538.44" y2="1370.45" style="stroke:#000000;stroke-width:5.76"/>
	<text x="518.51" y="1405.48" style="font-family:'Helvetica';font-size:99.99px;fill:#000000" text-anchor="end">14.00</text>
	<line x1="578.53" y1="1294.96" x2="538.44" y2="1294.96" style="stroke:#000000;stroke-width:5.76"/>
	<text x="518.51" y="1329.99" style="font-family:'Helvetica';font-size:99.99px;fill:#000000" text-anchor="end">15.00</text>
	<line x1="578.53" y1="1219.59" x2="538.44" y2="1219.59" style="stroke:#000000;stroke-width:5.76"/>
	<text x="518.51" y="1254.62" style="font-family:'Helvetica';font-size:99.99px;fill:#000000" text-anchor="end">16.00</text>
	<line x1="578.53" y1="1144.23" x2="538.44" y2="1144.23" style="stroke:#000000;stroke-width:5.76"/>
	<text x="518.51" y="1179.26" style="font-family:'Helvetica';font-size:99.99px;fill:#000000" text-anchor="end">17.00</text>
	<line x1="578.53" y1="1068.86" x2="538.44" y2="1068.86" style="stroke:#000000;stroke-width:5.76"/>
	<text x="518.51" y="1103.89" style="font-family:'Helvetica';font-size:99.99px;fill:#000000" text-anchor="end">18.00</text>
	<line x1="578.53" y1="993.50" x2="538.44" y2="993.50" style="stroke:#000000;stroke-width:5.76"/>
	<text x="518.51" y="1028.52" style="font-family:'Helvetica';font-size:99.99px;fill:#000000" text-anchor="end">19.00</text>
	<line x1="578.53" y1="918.01" x2="538.44" y2="918.01" style="stroke:#000000;stroke-width:5.76"/>
	<text x="518.51" y="953.03" style="font-family:'Helvetica';font-size:99.99px;fill:#000000" text-anchor="end">20.00</text>
	<line x1="578.53" y1="842.64" x2="538.44" y2="842.64" style="stroke:#000000;stroke-width:5.76"/>
	<text x="518.51" y="877.67" style="font-family:'Helvetica';font-size:99.99px;fill:#000000" text-anchor="end">21.00</text>
	<line x1="578.53" y1="767.27" x2="538.44" y2="767.27" style="stroke:#000000;stroke-width:5.76"/>
	<text x="518.51" y="802.30" style="font-family:'Helvetica';font-size:99.99px;fill:#000000" text-anchor="end">22.00</text>
	<line x1="578.53" y1="691.91" x2="538.44" y2="691.91" style="stroke:#000000;stroke-width:5.76"/>
	<text x="518.51" y="726.94" style="font-family:'Helvetica';font-size:99.99px;fill:#000000" text-anchor="end">23.00</text>
	<line x1="578.53" y1="616.54" x2="538.44" y2="616.54" style="stroke:#000000;stroke-width:5.76"/>
	<text x="518.51" y="651.57" style="font-family:'Helvetica';font-size:99.99px;fill:#000000" text-anchor="end">24.00</text>
	<line x1="578.53" y1="541.05" x2="538.44" y2="541.05" style="stroke:#000000;stroke-width:5.76"/>
	<text x="518.51" y="576.08" style="font-family:'Helvetica';font-size:99.99px;fill:#000000" text-anchor="end">25.00</text>
	<line x1="578.53" y1="465.69" x2="538.44" y2="465.69" style="stroke:#000000;stroke-width:5.76"/>
	<text x="518.51" y="500.71" style="font-family:'Helvetica';font-size:99.99px;fill:#000000" text-anchor="end">26.00</text>
	<line x1="578.53" y1="390.32" x2="538.44" y2="390.32" style="stroke:#000000;stroke-width:5.76"/>
	<text x="518.51" y="425.35" style="font-family:'Helvetica';font-size:99.99px;fill:#000000" text-anchor="end">27.00</text>
	<line x1="578.53" y1="314.95" x2="538.44" y2="314.95" style="stroke:#000000;stroke-width:5.76"/>
	<text x="518.51" y="349.98" style="font-family:'Helvetica';font-size:99.99px;fill:#000000" text-anchor="end">28.00</text>
	<line x1="578.53" y1="239.59" x2="538.44" y2="239.59" style="stroke:#000000;stroke-width:5.76"/>
	<text x="518.51" y="274.62" style="font-family:'Helvetica';font-size:99.99px;fill:#000000" text-anchor="end">29.00</text>
	<line x1="578.53" y1="164.22" x2="538.44" y2="164.22" style="stroke:#000000;stroke-width:5.76"/>
	<text x="518.51" y="199.25" style="font-family:'Helvetica';font-size:99.99px;fill:#000000" text-anchor="end">30.00</text>
	<text x="190.71" y="1294.96" style="font-family:'Helvetica';font-size:99.99px;fill:#000000" transform="rotate(-90 190.71,1294.96)" text-anchor="middle">Cumulative incidence (%)</text>
	<line x1="578.53" y1="2489.19" x2="3859.02" y2="2489.19" style="stroke:#000000;stroke-width:5.76"/>
	<line x1="641.89" y1="2489.19" x2="641.89" y2="2529.16" style="stroke:#000000;stroke-width:5.76"/>
	<text x="641.89" y="2619.14" style="font-family:'Helvetica';font-size:99.99px;fill:#000000" text-anchor="middle">0</text>
	<line x1="1389.22" y1="2489.19" x2="1389.22" y2="2529.16" style="stroke:#000000;stroke-width:5.76"/>
	<text x="1389.22" y="2619.14" style="font-family:'Helvetica';font-size:99.99px;fill:#000000" text-anchor="middle">50</text>
	<line x1="2136.54" y1="2489.19" x2="2136.54" y2="2529.16" style="stroke:#000000;stroke-width:5.76"/>
	<text x="2136.54" y="2619.14" style="font-family:'Helvetica';font-size:99.99px;fill:#000000" text-anchor="middle">100</text>
	<line x1="2883.99" y1="2489.19" x2="2883.99" y2="2529.16" style="stroke:#000000;stroke-width:5.76"/>
	<text x="2883.99" y="2619.14" style="font-family:'Helvetica';font-size:99.99px;fill:#000000" text-anchor="middle">150</text>
	<line x1="3631.32" y1="2489.19" x2="3631.32" y2="2529.16" style="stroke:#000000;stroke-width:5.76"/>
	<text x="3631.32" y="2619.14" style="font-family:'Helvetica';font-size:99.99px;fill:#000000" text-anchor="middle">200</text>
	<text x="2218.84" y="2729.16" style="font-family:'Helvetica';font-size:99.99px;fill:#000000" text-anchor="middle">Days from 1 March 2020</text>
	<rect x="2717.92" y="2128.20" width="1106.57" height="326.46" style="fill:#FFFFFF"/>
	<rect x="2720.80" y="2131.08" width="1100.81" height="320.70" style="fill:none;stroke:#000000;stroke-width:5.76"/>
	<rect x="2761.11" y="2171.51" width="374.34" height="99.99" style="fill:#3333FF;fill-opacity:0.25"/>
	<rect x="2765.43" y="2175.83" width="365.70" height="91.35" style="fill:none;stroke:#0000FF;stroke-opacity:0.25;stroke-width:8.64"/>
	<rect x="2761.11" y="2311.47" width="374.34" height="99.99" style="fill:#FF3333;fill-opacity:0.25"/>
	<rect x="2765.43" y="2315.79" width="365.70" height="91.35" style="fill:none;stroke:#FF0000;stroke-opacity:0.25;stroke-width:8.64"/>
	<text x="3195.47" y="2256.53" style="font-family:'Helvetica';font-size:99.99px;fill:#000000">DOAC use</text>
	<text x="3195.47" y="2396.50" style="font-family:'Helvetica';font-size:99.99px;fill:#000000">Warfarin use</text>
</svg>
