<?xml version="1.0" encoding="UTF-8" standalone="no"?>
<!-- This is a Stata 16.1 generated SVG file (http://www.stata.com) -->

<svg version="1.1" width="5.50in" height="4.00in" viewBox="0 0 3960 2880" xmlns="http://www.w3.org/2000/svg" xmlns:xlink="http://www.w3.org/1999/xlink">
	<desc>Stata Graph - Graph</desc>
	<rect x="0" y="0" width="3960" height="2880" style="fill:#EAF2F3;stroke:none"/>
	<rect x="0.00" y="0.00" width="3959.88" height="2880.00" style="fill:#EAF2F3"/>
	<rect x="2.88" y="2.88" width="3954.12" height="2874.24" style="fill:none;stroke:#EAF2F3;stroke-width:5.76"/>
	<rect x="578.53" y="100.86" width="3280.49" height="2388.33" style="fill:#FFFFFF"/>
	<rect x="581.41" y="103.74" width="3274.73" height="2382.57" style="fill:none;stroke:#FFFFFF;stroke-width:5.76"/>
	<line x1="578.53" y1="2425.82" x2="3859.02" y2="2425.82" style="stroke:#EAF2F3;stroke-width:8.64"/>
	<line x1="578.53" y1="2199.72" x2="3859.02" y2="2199.72" style="stroke:#EAF2F3;stroke-width:8.64"/>
	<line x1="578.53" y1="1973.50" x2="3859.02" y2="1973.50" style="stroke:#EAF2F3;stroke-width:8.64"/>
	<line x1="578.53" y1="1747.28" x2="3859.02" y2="1747.28" style="stroke:#EAF2F3;stroke-width:8.64"/>
	<line x1="578.53" y1="1521.18" x2="3859.02" y2="1521.18" style="stroke:#EAF2F3;stroke-width:8.64"/>
	<line x1="578.53" y1="1294.96" x2="3859.02" y2="1294.96" style="stroke:#EAF2F3;stroke-width:8.64"/>
	<line x1="578.53" y1="1068.86" x2="3859.02" y2="1068.86" style="stroke:#EAF2F3;stroke-width:8.64"/>
	<line x1="578.53" y1="842.64" x2="3859.02" y2="842.64" style="stroke:#EAF2F3;stroke-width:8.64"/>
	<line x1="578.53" y1="616.54" x2="3859.02" y2="616.54" style="stroke:#EAF2F3;stroke-width:8.64"/>
	<line x1="578.53" y1="390.32" x2="3859.02" y2="390.32" style="stroke:#EAF2F3;stroke-width:8.64"/>
	<line x1="578.53" y1="164.22" x2="3859.02" y2="164.22" style="stroke:#EAF2F3;stroke-width:8.64"/>
	<defs>
		<path id="path_zsMoSjts" d="M656.74 2425.82 L656.74 2425.82 L671.72 2425.82 L686.69 2425.82 L701.66 2425.70 L716.51 2425.58 L731.49 2425.33 L746.46 2424.96 L761.43 2424.34 L776.41 2423.60 L791.26 2422.61 L806.23 2421.49 L821.21 2420.01 L836.18 2418.27 L851.15 2416.29 L866.00 2413.94 L880.98 2411.34 L895.95 2408.37 L910.92 2405.16 L925.77 2401.57 L940.75 2397.61 L955.72 2393.40 L970.70 2388.82 L985.67 2383.99 L1000.52 2378.80 L1015.49 2373.23 L1030.47 2367.41 L1045.44 2361.35 L1060.41 2354.91 L1075.26 2348.11 L1090.24 2341.05 L1105.21 2333.75 L1120.18 2326.20 L1135.04 2318.28 L1150.01 2310.11 L1164.98 2301.82 L1179.96 2293.16 L1194.93 2284.25 L1209.78 2275.21 L1224.75 2265.93 L1239.73 2256.40 L1254.70 2246.63 L1269.67 2236.73 L1284.53 2226.58 L1299.50 2216.18 L1314.47 2205.79 L1329.45 2195.15 L1344.30 2184.26 L1359.27 2173.37 L1374.24 2162.23 L1389.22 2150.97 L1404.19 2139.58 L1419.04 2128.20 L1434.02 2116.56 L1448.99 2104.81 L1463.96 2092.93 L1478.94 2081.05 L1493.79 2069.04 L1508.76 2056.91 L1523.73 2044.79 L1538.71 2032.53 L1553.68 2020.16 L1568.53 2007.78 L1583.51 1995.28 L1598.48 1982.78 L1613.45 1970.29 L1628.30 1957.66 L1643.28 1944.92 L1658.25 1932.29 L1673.22 1919.55 L1688.20 1906.80 L1703.05 1894.05 L1718.02 1881.31 L1732.99 1868.44 L1747.97 1855.69 L1762.94 1842.82 L1777.79 1829.95 L1792.77 1817.20 L1807.74 1804.33 L1822.71 1791.46 L1837.56 1778.71 L1852.54 1765.84 L1867.51 1753.10 L1882.48 1740.23 L1897.46 1727.48 L1912.31 1714.73 L1927.28 1702.11 L1942.26 1689.36 L1957.23 1676.74 L1972.20 1663.99 L1987.05 1651.37 L2002.03 1638.87 L2017.00 1626.25 L2031.97 1613.75 L2046.83 1601.13 L2061.80 1588.63 L2076.77 1576.25 L2091.75 1563.75 L2106.72 1551.38 L2121.57 1539.00 L2136.54 1526.63 L2151.52 1514.38 L2166.49 1502.00 L2181.47 1489.75 L2196.32 1477.50 L2211.29 1465.37 L2226.26 1453.24 L2241.24 1440.99 L2256.09 1428.99 L2271.06 1416.86 L2286.03 1404.85 L2301.01 1392.85 L2315.98 1380.85 L2330.83 1368.84 L2345.80 1356.96 L2360.78 1344.96 L2375.75 1333.08 L2390.73 1321.32 L2405.58 1309.44 L2420.55 1297.68 L2435.52 1285.93 L2450.50 1274.17 L2465.35 1262.54 L2480.32 1250.78 L2495.30 1239.15 L2510.27 1227.51 L2525.24 1215.88 L2540.09 1204.37 L2555.07 1192.74 L2570.04 1181.23 L2585.01 1169.72 L2599.99 1158.21 L2614.84 1146.83 L2629.81 1135.32 L2644.78 1123.93 L2659.76 1112.55 L2674.73 1101.16 L2689.58 1089.78 L2704.56 1078.39 L2719.53 1067.13 L2734.50 1055.74 L2749.35 1044.48 L2764.33 1033.22 L2779.30 1021.96 L2794.28 1010.82 L2809.25 999.56 L2824.10 988.30 L2839.07 977.16 L2854.05 966.02 L2869.02 954.88 L2883.99 943.75 L2898.84 932.61 L2913.82 921.47 L2928.79 910.33 L2943.76 899.32 L2958.61 888.18 L2973.59 877.17 L2988.56 866.15 L3003.54 855.14 L3018.51 844.13 L3033.36 833.11 L3048.33 822.10 L3063.31 811.21 L3078.28 800.19 L3093.26 789.30 L3108.11 778.29 L3123.08 767.40 L3138.05 756.51 L3153.03 745.62 L3167.88 734.73 L3182.85 723.84 L3197.82 712.95 L3212.80 702.06 L3227.77 691.29 L3242.62 680.40 L3257.59 669.63 L3272.57 658.74 L3287.54 647.98 L3302.52 637.21 L3317.37 626.44 L3332.34 615.68 L3347.31 604.91 L3362.29 594.14 L3377.14 583.38 L3392.11 572.61 L3407.09 561.97 L3422.06 551.20 L3437.03 540.43 L3451.88 529.79 L3466.86 519.02 L3481.83 508.38 L3496.80 497.74 L3511.78 487.10 L3526.63 476.33 L3541.60 465.69 L3556.57 455.04 L3571.55 444.40 L3586.40 433.76 L3601.37 423.11 L3616.35 412.47 L3631.32 401.95 L3646.29 391.31 L3661.14 380.67 L3676.12 370.15 L3691.09 359.50 L3706.07 348.86 L3721.04 338.34 L3735.89 327.70 L3750.86 317.18 L3765.84 306.54 L3780.81 296.02 L3795.78 285.50 L3795.78 236.37 L3780.81 247.26 L3765.84 258.03 L3750.86 268.79 L3735.89 279.56 L3721.04 290.45 L3706.07 301.22 L3691.09 311.98 L3676.12 322.87 L3661.14 333.64 L3646.29 344.41 L3631.32 355.30 L3616.35 366.06 L3601.37 376.83 L3586.40 387.72 L3571.55 398.49 L3556.57 409.38 L3541.60 420.14 L3526.63 431.03 L3511.78 441.80 L3496.80 452.69 L3481.83 463.58 L3466.86 474.35 L3451.88 485.24 L3437.03 496.13 L3422.06 506.90 L3407.09 517.79 L3392.11 528.68 L3377.14 539.57 L3362.29 550.46 L3347.31 561.35 L3332.34 572.24 L3317.37 583.13 L3302.52 594.02 L3287.54 605.03 L3272.57 615.92 L3257.59 626.94 L3242.62 637.83 L3227.77 648.84 L3212.80 659.73 L3197.82 670.75 L3182.85 681.76 L3167.88 692.77 L3153.03 703.79 L3138.05 714.80 L3123.08 725.82 L3108.11 736.83 L3093.26 747.97 L3078.28 758.98 L3063.31 770.12 L3048.33 781.26 L3033.36 792.27 L3018.51 803.41 L3003.54 814.55 L2988.56 825.81 L2973.59 836.95 L2958.61 848.09 L2943.76 859.35 L2928.79 870.61 L2913.82 881.87 L2898.84 893.13 L2883.99 904.39 L2869.02 915.65 L2854.05 926.92 L2839.07 938.30 L2824.10 949.69 L2809.25 961.07 L2794.28 972.46 L2779.30 983.84 L2764.33 995.23 L2749.35 1006.74 L2734.50 1018.12 L2719.53 1029.63 L2704.56 1041.14 L2689.58 1052.77 L2674.73 1064.28 L2659.76 1075.92 L2644.78 1087.43 L2629.81 1099.06 L2614.84 1110.81 L2599.99 1122.45 L2585.01 1134.08 L2570.04 1145.84 L2555.07 1157.59 L2540.09 1169.35 L2525.24 1181.23 L2510.27 1192.99 L2495.30 1204.87 L2480.32 1216.75 L2465.35 1228.63 L2450.50 1240.51 L2435.52 1252.51 L2420.55 1264.52 L2405.58 1276.52 L2390.73 1288.53 L2375.75 1300.53 L2360.78 1312.66 L2345.80 1324.79 L2330.83 1336.91 L2315.98 1349.16 L2301.01 1361.29 L2286.03 1373.54 L2271.06 1385.80 L2256.09 1398.05 L2241.24 1410.42 L2226.26 1422.67 L2211.29 1435.05 L2196.32 1447.55 L2181.47 1459.92 L2166.49 1472.42 L2151.52 1484.92 L2136.54 1497.42 L2121.57 1509.92 L2106.72 1522.54 L2091.75 1535.17 L2076.77 1547.79 L2061.80 1560.41 L2046.83 1573.16 L2031.97 1585.91 L2017.00 1598.65 L2002.03 1611.40 L1987.05 1624.27 L1972.20 1637.14 L1957.23 1650.01 L1942.26 1662.88 L1927.28 1675.75 L1912.31 1688.75 L1897.46 1701.74 L1882.48 1714.73 L1867.51 1727.73 L1852.54 1740.85 L1837.56 1753.96 L1822.71 1766.96 L1807.74 1780.08 L1792.77 1793.19 L1777.79 1806.31 L1762.94 1819.43 L1747.97 1832.67 L1732.99 1845.79 L1718.02 1858.91 L1703.05 1872.02 L1688.20 1885.14 L1673.22 1898.14 L1658.25 1911.25 L1643.28 1924.25 L1628.30 1937.24 L1613.45 1950.24 L1598.48 1963.11 L1583.51 1975.98 L1568.53 1988.85 L1553.68 2001.60 L1538.71 2014.34 L1523.73 2026.96 L1508.76 2039.46 L1493.79 2051.96 L1478.94 2064.34 L1463.96 2076.59 L1448.99 2088.84 L1434.02 2100.97 L1419.04 2112.85 L1404.19 2124.73 L1389.22 2136.49 L1374.24 2148.12 L1359.27 2159.50 L1344.30 2170.89 L1329.45 2182.03 L1314.47 2193.04 L1299.50 2203.81 L1284.53 2214.45 L1269.67 2224.97 L1254.70 2235.24 L1239.73 2245.27 L1224.75 2255.17 L1209.78 2264.82 L1194.93 2274.22 L1179.96 2283.38 L1164.98 2292.42 L1150.01 2301.08 L1135.04 2309.49 L1120.18 2317.66 L1105.21 2325.71 L1090.24 2333.26 L1075.26 2340.68 L1060.41 2347.73 L1045.44 2354.54 L1030.47 2360.98 L1015.49 2367.16 L1000.52 2373.10 L985.67 2378.67 L970.70 2383.87 L955.72 2388.82 L940.75 2393.40 L925.77 2397.61 L910.92 2401.57 L895.95 2405.16 L880.98 2408.50 L866.00 2411.34 L851.15 2414.07 L836.18 2416.42 L821.21 2418.40 L806.23 2420.13 L791.26 2421.62 L776.41 2422.85 L761.43 2423.72 L746.46 2424.46 L731.49 2425.08 L716.51 2425.45 L701.66 2425.70 L686.69 2425.82 L671.72 2425.82 L656.74 2425.82 L656.74 2425.82 Z" stroke-linejoin="round"/>
	</defs>
	<defs>
		<clipPath id="clipPath_fHVPPhtd">
			<use xlink:href="#path_zsMoSjts"/>
		</clipPath>
	</defs>
	<use xlink:href="#path_zsMoSjts" style="stroke:none;fill:#3333FF;fill-opacity:0.25"/>
	<use xlink:href="#path_zsMoSjts" style="fill:none;stroke:#0000FF;stroke-opacity:0.25;stroke-width:17.28" clip-path="url(#clipPath_fHVPPhtd)"/>
	<defs>
		<path id="path_meTmCVQh" d="M656.74 2425.82 L656.74 2425.82 L671.72 2425.82 L686.69 2425.82 L701.66 2425.70 L716.51 2425.58 L731.49 2425.45 L746.46 2425.08 L761.43 2424.59 L776.41 2423.97 L791.26 2423.10 L806.23 2422.11 L821.21 2420.87 L836.18 2419.39 L851.15 2417.66 L866.00 2415.68 L880.98 2413.57 L895.95 2410.97 L910.92 2408.25 L925.77 2405.28 L940.75 2401.94 L955.72 2398.35 L970.70 2394.51 L985.67 2390.31 L1000.52 2385.97 L1015.49 2381.27 L1030.47 2376.32 L1045.44 2371.12 L1060.41 2365.68 L1075.26 2359.99 L1090.24 2353.92 L1105.21 2347.73 L1120.18 2341.30 L1135.04 2334.74 L1150.01 2327.81 L1164.98 2320.76 L1179.96 2313.45 L1194.93 2305.91 L1209.78 2298.23 L1224.75 2290.31 L1239.73 2282.27 L1254.70 2274.10 L1269.67 2265.69 L1284.53 2257.15 L1299.50 2248.36 L1314.47 2239.45 L1329.45 2230.54 L1344.30 2221.38 L1359.27 2212.10 L1374.24 2202.70 L1389.22 2193.17 L1404.19 2183.51 L1419.04 2173.86 L1434.02 2163.96 L1448.99 2154.06 L1463.96 2144.04 L1478.94 2134.01 L1493.79 2123.86 L1508.76 2113.59 L1523.73 2103.20 L1538.71 2092.93 L1553.68 2082.41 L1568.53 2071.89 L1583.51 2061.37 L1598.48 2050.73 L1613.45 2040.08 L1628.30 2029.44 L1643.28 2018.67 L1658.25 2008.03 L1673.22 1997.26 L1688.20 1986.37 L1703.05 1975.61 L1718.02 1964.72 L1732.99 1953.95 L1747.97 1943.06 L1762.94 1932.17 L1777.79 1921.28 L1792.77 1910.39 L1807.74 1899.50 L1822.71 1888.61 L1837.56 1877.84 L1852.54 1866.95 L1867.51 1856.06 L1882.48 1845.29 L1897.46 1834.40 L1912.31 1823.64 L1927.28 1812.87 L1942.26 1802.10 L1957.23 1791.34 L1972.20 1780.57 L1987.05 1769.80 L2002.03 1759.16 L2017.00 1748.52 L2031.97 1737.88 L2046.83 1727.23 L2061.80 1716.59 L2076.77 1706.07 L2091.75 1695.43 L2106.72 1684.91 L2121.57 1674.39 L2136.54 1663.99 L2151.52 1653.48 L2166.49 1643.08 L2181.47 1632.68 L2196.32 1622.29 L2211.29 1611.89 L2226.26 1601.50 L2241.24 1591.23 L2256.09 1580.96 L2271.06 1570.68 L2286.03 1560.41 L2301.01 1550.14 L2315.98 1539.99 L2330.83 1529.85 L2345.80 1519.70 L2360.78 1509.55 L2375.75 1499.40 L2390.73 1489.38 L2405.58 1479.23 L2420.55 1469.21 L2435.52 1459.18 L2450.50 1449.16 L2465.35 1439.26 L2480.32 1429.23 L2495.30 1419.33 L2510.27 1409.43 L2525.24 1399.53 L2540.09 1389.63 L2555.07 1379.86 L2570.04 1369.96 L2585.01 1360.18 L2599.99 1350.40 L2614.84 1340.63 L2629.81 1330.85 L2644.78 1321.07 L2659.76 1311.30 L2674.73 1301.64 L2689.58 1291.99 L2704.56 1282.21 L2719.53 1272.56 L2734.50 1262.91 L2749.35 1253.26 L2764.33 1243.73 L2779.30 1234.07 L2794.28 1224.54 L2809.25 1214.89 L2824.10 1205.36 L2839.07 1195.83 L2854.05 1186.30 L2869.02 1176.78 L2883.99 1167.25 L2898.84 1157.72 L2913.82 1148.19 L2928.79 1138.78 L2943.76 1129.25 L2958.61 1119.85 L2973.59 1110.44 L2988.56 1100.91 L3003.54 1091.51 L3018.51 1082.10 L3033.36 1072.70 L3048.33 1063.29 L3063.31 1054.01 L3078.28 1044.61 L3093.26 1035.20 L3108.11 1025.92 L3123.08 1016.51 L3138.05 1007.23 L3153.03 997.95 L3167.88 988.55 L3182.85 979.26 L3197.82 969.98 L3212.80 960.70 L3227.77 951.42 L3242.62 942.14 L3257.59 932.86 L3272.57 923.58 L3287.54 914.29 L3302.52 905.14 L3317.37 895.85 L3332.34 886.70 L3347.31 877.41 L3362.29 868.26 L3377.14 858.98 L3392.11 849.82 L3407.09 840.54 L3422.06 831.38 L3437.03 822.22 L3451.88 813.06 L3466.86 803.78 L3481.83 794.62 L3496.80 785.47 L3511.78 776.31 L3526.63 767.15 L3541.60 757.99 L3556.57 748.83 L3571.55 739.68 L3586.40 730.64 L3601.37 721.49 L3616.35 712.33 L3631.32 703.17 L3646.29 694.01 L3661.14 684.98 L3676.12 675.82 L3691.09 666.66 L3706.07 657.63 L3721.04 648.47 L3735.89 639.31 L3750.86 630.28 L3765.84 621.12 L3780.81 612.09 L3795.78 602.93 L3795.78 519.77 L3780.81 529.30 L3765.84 538.70 L3750.86 548.23 L3735.89 557.76 L3721.04 567.29 L3706.07 576.69 L3691.09 586.22 L3676.12 595.75 L3661.14 605.28 L3646.29 614.69 L3631.32 624.21 L3616.35 633.74 L3601.37 643.27 L3586.40 652.80 L3571.55 662.21 L3556.57 671.74 L3541.60 681.27 L3526.63 690.79 L3511.78 700.32 L3496.80 709.85 L3481.83 719.38 L3466.86 728.91 L3451.88 738.44 L3437.03 747.97 L3422.06 757.50 L3407.09 767.15 L3392.11 776.68 L3377.14 786.21 L3362.29 795.74 L3347.31 805.39 L3332.34 814.92 L3317.37 824.57 L3302.52 834.10 L3287.54 843.75 L3272.57 853.28 L3257.59 862.94 L3242.62 872.59 L3227.77 882.12 L3212.80 891.77 L3197.82 901.42 L3182.85 911.08 L3167.88 920.73 L3153.03 930.38 L3138.05 940.16 L3123.08 949.81 L3108.11 959.46 L3093.26 969.24 L3078.28 978.89 L3063.31 988.67 L3048.33 998.32 L3033.36 1008.10 L3018.51 1017.88 L3003.54 1027.65 L2988.56 1037.43 L2973.59 1047.21 L2958.61 1056.98 L2943.76 1066.88 L2928.79 1076.66 L2913.82 1086.56 L2898.84 1096.46 L2883.99 1106.24 L2869.02 1116.14 L2854.05 1126.04 L2839.07 1135.94 L2824.10 1145.96 L2809.25 1155.86 L2794.28 1165.89 L2779.30 1175.79 L2764.33 1185.81 L2749.35 1195.83 L2734.50 1205.86 L2719.53 1215.88 L2704.56 1226.03 L2689.58 1236.05 L2674.73 1246.20 L2659.76 1256.35 L2644.78 1266.37 L2629.81 1276.52 L2614.84 1286.79 L2599.99 1296.94 L2585.01 1307.21 L2570.04 1317.36 L2555.07 1327.63 L2540.09 1337.90 L2525.24 1348.17 L2510.27 1358.57 L2495.30 1368.84 L2480.32 1379.24 L2465.35 1389.63 L2450.50 1400.03 L2435.52 1410.42 L2420.55 1420.82 L2405.58 1431.34 L2390.73 1441.86 L2375.75 1452.38 L2360.78 1462.89 L2345.80 1473.41 L2330.83 1484.06 L2315.98 1494.58 L2301.01 1505.22 L2286.03 1515.86 L2271.06 1526.63 L2256.09 1537.27 L2241.24 1548.04 L2226.26 1558.80 L2211.29 1569.57 L2196.32 1580.34 L2181.47 1591.10 L2166.49 1601.99 L2151.52 1612.88 L2136.54 1623.77 L2121.57 1634.66 L2106.72 1645.68 L2091.75 1656.57 L2076.77 1667.58 L2061.80 1678.60 L2046.83 1689.74 L2031.97 1700.75 L2017.00 1711.89 L2002.03 1722.90 L1987.05 1734.04 L1972.20 1745.30 L1957.23 1756.44 L1942.26 1767.58 L1927.28 1778.84 L1912.31 1790.10 L1897.46 1801.36 L1882.48 1812.62 L1867.51 1824.01 L1852.54 1835.27 L1837.56 1846.66 L1822.71 1857.92 L1807.74 1869.30 L1792.77 1880.69 L1777.79 1892.07 L1762.94 1903.46 L1747.97 1914.84 L1732.99 1926.23 L1718.02 1937.61 L1703.05 1948.88 L1688.20 1960.26 L1673.22 1971.52 L1658.25 1982.91 L1643.28 1994.17 L1628.30 2005.31 L1613.45 2016.57 L1598.48 2027.71 L1583.51 2038.84 L1568.53 2049.98 L1553.68 2061.00 L1538.71 2071.89 L1523.73 2082.78 L1508.76 2093.67 L1493.79 2104.43 L1478.94 2115.08 L1463.96 2125.72 L1448.99 2136.24 L1434.02 2146.63 L1419.04 2157.03 L1404.19 2167.18 L1389.22 2177.33 L1374.24 2187.35 L1359.27 2197.25 L1344.30 2206.90 L1329.45 2216.56 L1314.47 2226.08 L1299.50 2235.37 L1284.53 2244.52 L1269.67 2253.56 L1254.70 2262.34 L1239.73 2271.01 L1224.75 2279.55 L1209.78 2287.84 L1194.93 2295.88 L1179.96 2303.80 L1164.98 2311.47 L1150.01 2319.02 L1135.04 2326.20 L1120.18 2333.26 L1105.21 2340.06 L1090.24 2346.62 L1075.26 2352.93 L1060.41 2359.00 L1045.44 2364.81 L1030.47 2370.38 L1015.49 2375.70 L1000.52 2380.78 L985.67 2385.48 L970.70 2389.93 L955.72 2394.14 L940.75 2398.10 L925.77 2401.69 L910.92 2405.16 L895.95 2408.25 L880.98 2410.97 L866.00 2413.57 L851.15 2415.80 L836.18 2417.78 L821.21 2419.51 L806.23 2421.00 L791.26 2422.23 L776.41 2423.22 L761.43 2424.09 L746.46 2424.71 L731.49 2425.20 L716.51 2425.45 L701.66 2425.70 L686.69 2425.82 L671.72 2425.82 L656.74 2425.82 L656.74 2425.82 Z" stroke-linejoin="round"/>
	</defs>
	<defs>
		<clipPath id="clipPath_MkFptrNS">
			<use xlink:href="#path_meTmCVQh"/>
		</clipPath>
	</defs>
	<use xlink:href="#path_meTmCVQh" style="stroke:none;fill:#FF3333;fill-opacity:0.25"/>
	<use xlink:href="#path_meTmCVQh" style="fill:none;stroke:#FF0000;stroke-opacity:0.25;stroke-width:17.28" clip-path="url(#clipPath_MkFptrNS)"/>
	<path d=" M641.77 2425.95 L656.74 2425.95 L671.72 2425.95 L686.57 2425.82 L701.54 2425.70 L716.51 2425.58 L731.49 2425.20 L746.46 2424.83 L761.31 2424.21 L776.28 2423.35 L791.26 2422.23 L806.23 2420.87 L821.08 2419.26 L836.05 2417.41 L851.03 2415.30 L866.00 2412.83 L880.98 2409.98 L895.83 2406.89 L910.80 2403.42 L925.77 2399.71 L940.75 2395.63 L955.72 2391.30 L970.57 2386.47 L985.54 2381.40 L1000.52 2376.07 L1015.49 2370.38 L1030.34 2364.44 L1045.32 2358.01 L1060.29 2351.45 L1075.26 2344.52 L1090.24 2337.34 L1105.09 2329.91 L1120.06 2322.12 L1135.04 2314.07 L1150.01 2305.78 L1164.98 2297.24 L1179.83 2288.46 L1194.81 2279.42 L1209.78 2270.14 L1224.75 2260.61 L1239.60 2250.96 L1254.58 2241.06 L1269.55 2230.91 L1284.53 2220.64 L1299.50 2210.24 L1314.35 2199.60 L1329.32 2188.71 L1344.30 2177.70 L1359.27 2166.56 L1374.24 2155.30 L1389.09 2143.91 L1404.07 2132.40 L1419.04 2120.65 L1434.02 2108.89 L1448.87 2097.01 L1463.84 2085.01 L1478.81 2072.88 L1493.79 2060.63 L1508.76 2048.37 L1523.61 2036.00 L1538.58 2023.50 L1553.56 2011.00 L1568.53 1998.50 L1583.51 1985.88 L1598.36 1973.13 L1613.33 1960.39 L1628.30 1947.64 L1643.28 1934.77 L1658.25 1921.90 L1673.10 1909.03 L1688.07 1896.16 L1703.05 1883.16 L1718.02 1870.29 L1732.87 1857.30 L1747.85 1844.30 L1762.82 1831.31 L1777.79 1818.32 L1792.77 1805.32 L1807.62 1792.33 L1822.59 1779.46 L1837.56 1766.46 L1852.54 1753.47 L1867.51 1740.60 L1882.36 1727.73 L1897.34 1714.86 L1912.31 1701.99 L1927.28 1689.12 L1942.13 1676.25 L1957.11 1663.50 L1972.08 1650.75 L1987.05 1638.01 L2002.03 1625.26 L2016.88 1612.64 L2031.85 1600.01 L2046.83 1587.39 L2061.80 1574.77 L2076.77 1562.15 L2091.62 1549.65 L2106.60 1537.15 L2121.57 1524.65 L2136.54 1512.15 L2151.39 1499.77 L2166.37 1487.40 L2181.34 1475.02 L2196.32 1462.65 L2211.29 1450.40 L2226.14 1438.14 L2241.11 1425.89 L2256.09 1413.64 L2271.06 1401.51 L2286.03 1389.38 L2300.88 1377.26 L2315.86 1365.13 L2330.83 1353.12 L2345.80 1341.00 L2360.66 1328.99 L2375.63 1316.99 L2390.60 1305.11 L2405.58 1293.23 L2420.55 1281.22 L2435.40 1269.34 L2450.37 1257.59 L2465.35 1245.71 L2480.32 1233.95 L2495.30 1222.19 L2510.14 1210.44 L2525.12 1198.68 L2540.09 1187.05 L2555.07 1175.41 L2569.92 1163.78 L2584.89 1152.15 L2599.86 1140.52 L2614.84 1129.01 L2629.81 1117.37 L2644.66 1105.86 L2659.64 1094.36 L2674.61 1082.85 L2689.58 1071.46 L2704.56 1059.95 L2719.41 1048.57 L2734.38 1037.18 L2749.35 1025.80 L2764.33 1014.41 L2779.30 1003.15 L2794.15 991.76 L2809.12 980.50 L2824.10 969.24 L2839.07 957.98 L2853.92 946.72 L2868.90 935.46 L2883.87 924.19 L2898.84 913.06 L2913.82 901.79 L2928.67 890.66 L2943.64 879.52 L2958.61 868.38 L2973.59 857.24 L2988.56 846.11 L3003.41 835.09 L3018.39 823.95 L3033.36 812.94 L3048.33 801.93 L3063.18 790.79 L3078.16 779.77 L3093.13 768.76 L3108.11 757.74 L3123.08 746.85 L3137.93 735.84 L3152.90 724.83 L3167.88 713.94 L3182.85 702.92 L3197.82 692.03 L3212.67 681.14 L3227.65 670.25 L3242.62 659.36 L3257.59 648.47 L3272.45 637.58 L3287.42 626.69 L3302.39 615.80 L3317.37 605.03 L3332.34 594.14 L3347.19 583.25 L3362.16 572.49 L3377.14 561.72 L3392.11 550.83 L3407.09 540.06 L3421.93 529.30 L3436.91 518.53 L3451.88 507.64 L3466.86 496.87 L3481.71 486.11 L3496.68 475.34 L3511.65 464.57 L3526.63 453.93 L3541.60 443.16 L3556.45 432.40 L3571.43 421.63 L3586.40 410.99 L3601.37 400.22 L3616.35 389.45 L3631.20 378.81 L3646.17 368.04 L3661.14 357.40 L3676.12 346.63 L3690.97 335.99 L3705.94 325.23 L3720.91 314.58 L3735.89 303.82 L3750.86 293.17 L3765.71 282.53 L3780.69 271.76 L3795.66 261.12" stroke-linejoin="round" style="fill:none;stroke:#0000FF;stroke-width:8.64"/>
	<path d=" M641.77 2425.95 L656.74 2425.95 L671.72 2425.95 L686.57 2425.82 L701.54 2425.82 L716.51 2425.58 L731.49 2425.33 L746.46 2424.96 L761.31 2424.46 L776.28 2423.72 L791.26 2422.73 L806.23 2421.62 L821.08 2420.25 L836.05 2418.65 L851.03 2416.79 L866.00 2414.69 L880.98 2412.33 L895.83 2409.74 L910.80 2406.77 L925.77 2403.67 L940.75 2400.08 L955.72 2396.37 L970.57 2392.41 L985.54 2388.08 L1000.52 2383.50 L1015.49 2378.67 L1030.34 2373.48 L1045.32 2368.15 L1060.29 2362.46 L1075.26 2356.64 L1090.24 2350.46 L1105.09 2344.15 L1120.06 2337.46 L1135.04 2330.66 L1150.01 2323.60 L1164.98 2316.30 L1179.83 2308.75 L1194.81 2301.08 L1209.78 2293.16 L1224.75 2285.12 L1239.60 2276.82 L1254.58 2268.41 L1269.55 2259.75 L1284.53 2250.96 L1299.50 2242.05 L1314.35 2233.01 L1329.32 2223.73 L1344.30 2214.33 L1359.27 2204.80 L1374.24 2195.27 L1389.09 2185.49 L1404.07 2175.59 L1419.04 2165.57 L1434.02 2155.54 L1448.87 2145.40 L1463.84 2135.13 L1478.81 2124.73 L1493.79 2114.33 L1508.76 2103.82 L1523.61 2093.30 L1538.58 2082.65 L1553.56 2071.89 L1568.53 2061.12 L1583.51 2050.35 L1598.36 2039.46 L1613.33 2028.57 L1628.30 2017.68 L1643.28 2006.67 L1658.25 1995.65 L1673.10 1984.64 L1688.07 1973.63 L1703.05 1962.49 L1718.02 1951.35 L1732.87 1940.34 L1747.85 1929.20 L1762.82 1918.06 L1777.79 1906.92 L1792.77 1895.79 L1807.62 1884.65 L1822.59 1873.63 L1837.56 1862.50 L1852.54 1851.36 L1867.51 1840.34 L1882.36 1829.21 L1897.34 1818.19 L1912.31 1807.18 L1927.28 1796.16 L1942.13 1785.15 L1957.11 1774.14 L1972.08 1763.25 L1987.05 1752.23 L2002.03 1741.34 L2016.88 1730.45 L2031.85 1719.56 L2046.83 1708.79 L2061.80 1697.90 L2076.77 1687.14 L2091.62 1676.37 L2106.60 1665.60 L2121.57 1654.84 L2136.54 1644.19 L2151.39 1633.55 L2166.37 1622.91 L2181.34 1612.27 L2196.32 1601.62 L2211.29 1590.98 L2226.14 1580.46 L2241.11 1569.94 L2256.09 1559.42 L2271.06 1548.90 L2286.03 1538.51 L2300.88 1528.11 L2315.86 1517.59 L2330.83 1507.20 L2345.80 1496.93 L2360.66 1486.53 L2375.63 1476.26 L2390.60 1465.99 L2405.58 1455.72 L2420.55 1445.45 L2435.40 1435.17 L2450.37 1425.03 L2465.35 1414.75 L2480.32 1404.61 L2495.30 1394.46 L2510.14 1384.31 L2525.12 1374.29 L2540.09 1364.14 L2555.07 1354.11 L2569.92 1344.09 L2584.89 1334.07 L2599.86 1324.04 L2614.84 1314.02 L2629.81 1304.12 L2644.66 1294.09 L2659.64 1284.19 L2674.61 1274.29 L2689.58 1264.39 L2704.56 1254.49 L2719.41 1244.72 L2734.38 1234.82 L2749.35 1225.04 L2764.33 1215.14 L2779.30 1205.36 L2794.15 1195.59 L2809.12 1185.81 L2824.10 1176.03 L2839.07 1166.26 L2853.92 1156.60 L2868.90 1146.83 L2883.87 1137.17 L2898.84 1127.52 L2913.82 1117.87 L2928.67 1108.22 L2943.64 1098.56 L2958.61 1088.91 L2973.59 1079.26 L2988.56 1069.60 L3003.41 1060.08 L3018.39 1050.42 L3033.36 1040.89 L3048.33 1031.24 L3063.18 1021.71 L3078.16 1012.18 L3093.13 1002.65 L3108.11 993.12 L3123.08 983.60 L3137.93 974.07 L3152.90 964.66 L3167.88 955.13 L3182.85 945.60 L3197.82 936.20 L3212.67 926.67 L3227.65 917.26 L3242.62 907.86 L3257.59 898.33 L3272.45 888.92 L3287.42 879.52 L3302.39 870.11 L3317.37 860.71 L3332.34 851.30 L3347.19 841.90 L3362.16 832.49 L3377.14 823.09 L3392.11 813.68 L3407.09 804.28 L3421.93 794.99 L3436.91 785.59 L3451.88 776.18 L3466.86 766.90 L3481.71 757.50 L3496.68 748.22 L3511.65 738.81 L3526.63 729.53 L3541.60 720.12 L3556.45 710.84 L3571.43 701.44 L3586.40 692.16 L3601.37 682.87 L3616.35 673.47 L3631.20 664.19 L3646.17 654.91 L3661.14 645.62 L3676.12 636.34 L3690.97 626.94 L3705.94 617.66 L3720.91 608.37 L3735.89 599.09 L3750.86 589.81 L3765.71 580.53 L3780.69 571.12 L3795.66 561.84" stroke-linejoin="round" style="fill:none;stroke:#FF0000;stroke-width:8.64"/>
	<line x1="578.53" y1="2489.19" x2="578.53" y2="100.86" style="stroke:#000000;stroke-width:5.76"/>
	<line x1="578.53" y1="2425.82" x2="538.44" y2="2425.82" style="stroke:#000000;stroke-width:5.76"/>
	<text x="518.51" y="2460.85" style="font-family:'Helvetica';font-size:99.99px;fill:#000000" text-anchor="end">0.00</text>
	<line x1="578.53" y1="2199.72" x2="538.44" y2="2199.72" style="stroke:#000000;stroke-width:5.76"/>
	<text x="518.51" y="2234.75" style="font-family:'Helvetica';font-size:99.99px;fill:#000000" text-anchor="end">1.00</text>
	<line x1="578.53" y1="1973.50" x2="538.44" y2="1973.50" style="stroke:#000000;stroke-width:5.76"/>
	<text x="518.51" y="2008.53" style="font-family:'Helvetica';font-size:99.99px;fill:#000000" text-anchor="end">2.00</text>
	<line x1="578.53" y1="1747.28" x2="538.44" y2="1747.28" style="stroke:#000000;stroke-width:5.76"/>
	<text x="518.51" y="1782.31" style="font-family:'Helvetica';font-size:99.99px;fill:#000000" text-anchor="end">3.00</text>
	<line x1="578.53" y1="1521.18" x2="538.44" y2="1521.18" style="stroke:#000000;stroke-width:5.76"/>
	<text x="518.51" y="1556.21" style="font-family:'Helvetica';font-size:99.99px;fill:#000000" text-anchor="end">4.00</text>
	<line x1="578.53" y1="1294.96" x2="538.44" y2="1294.96" style="stroke:#000000;stroke-width:5.76"/>
	<text x="518.51" y="1329.99" style="font-family:'Helvetica';font-size:99.99px;fill:#000000" text-anchor="end">5.00</text>
	<line x1="578.53" y1="1068.86" x2="538.44" y2="1068.86" style="stroke:#000000;stroke-width:5.76"/>
	<text x="518.51" y="1103.89" style="font-family:'Helvetica';font-size:99.99px;fill:#000000" text-anchor="end">6.00</text>
	<line x1="578.53" y1="842.64" x2="538.44" y2="842.64" style="stroke:#000000;stroke-width:5.76"/>
	<text x="518.51" y="877.67" style="font-family:'Helvetica';font-size:99.99px;fill:#000000" text-anchor="end">7.00</text>
	<line x1="578.53" y1="616.54" x2="538.44" y2="616.54" style="stroke:#000000;stroke-width:5.76"/>
	<text x="518.51" y="651.57" style="font-family:'Helvetica';font-size:99.99px;fill:#000000" text-anchor="end">8.00</text>
	<line x1="578.53" y1="390.32" x2="538.44" y2="390.32" style="stroke:#000000;stroke-width:5.76"/>
	<text x="518.51" y="425.35" style="font-family:'Helvetica';font-size:99.99px;fill:#000000" text-anchor="end">9.00</text>
	<line x1="578.53" y1="164.22" x2="538.44" y2="164.22" style="stroke:#000000;stroke-width:5.76"/>
	<text x="518.51" y="199.25" style="font-family:'Helvetica';font-size:99.99px;fill:#000000" text-anchor="end">10.00</text>
	<text x="190.71" y="1294.96" style="font-family:'Helvetica';font-size:99.99px;fill:#000000" transform="rotate(-90 190.71,1294.96)" text-anchor="middle">Cumulative incidence (%)</text>
	<line x1="578.53" y1="2489.19" x2="3859.02" y2="2489.19" style="stroke:#000000;stroke-width:5.76"/>
	<line x1="641.89" y1="2489.19" x2="641.89" y2="2529.16" style="stroke:#000000;stroke-width:5.76"/>
	<text x="641.89" y="2619.14" style="font-family:'Helvetica';font-size:99.99px;fill:#000000" text-anchor="middle">0</text>
	<line x1="1389.22" y1="2489.19" x2="1389.22" y2="2529.16" style="stroke:#000000;stroke-width:5.76"/>
	<text x="1389.22" y="2619.14" style="font-family:'Helvetica';font-size:99.99px;fill:#000000" text-anchor="middle">50</text>
	<line x1="2136.54" y1="2489.19" x2="2136.54" y2="2529.16" style="stroke:#000000;stroke-width:5.76"/>
	<text x="2136.54" y="2619.14" style="font-family:'Helvetica';font-size:99.99px;fill:#000000" text-anchor="middle">100</text>
	<line x1="2883.99" y1="2489.19" x2="2883.99" y2="2529.16" style="stroke:#000000;stroke-width:5.76"/>
	<text x="2883.99" y="2619.14" style="font-family:'Helvetica';font-size:99.99px;fill:#000000" text-anchor="middle">150</text>
	<line x1="3631.32" y1="2489.19" x2="3631.32" y2="2529.16" style="stroke:#000000;stroke-width:5.76"/>
	<text x="3631.32" y="2619.14" style="font-family:'Helvetica';font-size:99.99px;fill:#000000" text-anchor="middle">200</text>
	<text x="2218.84" y="2729.16" style="font-family:'Helvetica';font-size:99.99px;fill:#000000" text-anchor="middle">Days from 1 March 2020</text>
	<rect x="2717.92" y="2128.20" width="1106.57" height="326.46" style="fill:#FFFFFF"/>
	<rect x="2720.80" y="2131.08" width="1100.81" height="320.70" style="fill:none;stroke:#000000;stroke-width:5.76"/>
	<rect x="2761.11" y="2171.51" width="374.34" height="99.99" style="fill:#3333FF;fill-opacity:0.25"/>
	<rect x="2765.43" y="2175.83" width="365.70" height="91.35" style="fill:none;stroke:#0000FF;stroke-opacity:0.25;stroke-width:8.64"/>
	<rect x="2761.11" y="2311.47" width="374.34" height="99.99" style="fill:#FF3333;fill-opacity:0.25"/>
	<rect x="2765.43" y="2315.79" width="365.70" height="91.35" style="fill:none;stroke:#FF0000;stroke-opacity:0.25;stroke-width:8.64"/>
	<text x="3195.47" y="2256.53" style="font-family:'Helvetica';font-size:99.99px;fill:#000000">DOAC use</text>
	<text x="3195.47" y="2396.50" style="font-family:'Helvetica';font-size:99.99px;fill:#000000">Warfarin use</text>
</svg>
