<?xml version="1.0" encoding="UTF-8" standalone="no"?>
<!-- This is a Stata 16.1 generated SVG file (http://www.stata.com) -->

<svg version="1.1" width="5.50in" height="4.00in" viewBox="0 0 3960 2880" xmlns="http://www.w3.org/2000/svg" xmlns:xlink="http://www.w3.org/1999/xlink">
	<desc>Stata Graph - Graph</desc>
	<rect x="0" y="0" width="3960" height="2880" style="fill:#EAF2F3;stroke:none"/>
	<rect x="0.00" y="0.00" width="3959.88" height="2880.00" style="fill:#EAF2F3"/>
	<rect x="2.88" y="2.88" width="3954.12" height="2874.24" style="fill:none;stroke:#EAF2F3;stroke-width:5.76"/>
	<rect x="556.38" y="100.86" width="3302.64" height="2388.33" style="fill:#FFFFFF"/>
	<rect x="559.26" y="103.74" width="3296.88" height="2382.57" style="fill:none;stroke:#FFFFFF;stroke-width:5.76"/>
	<line x1="556.38" y1="2425.82" x2="3859.02" y2="2425.82" style="stroke:#EAF2F3;stroke-width:8.64"/>
	<line x1="556.38" y1="1860.39" x2="3859.02" y2="1860.39" style="stroke:#EAF2F3;stroke-width:8.64"/>
	<line x1="556.38" y1="1294.96" x2="3859.02" y2="1294.96" style="stroke:#EAF2F3;stroke-width:8.64"/>
	<line x1="556.38" y1="729.53" x2="3859.02" y2="729.53" style="stroke:#EAF2F3;stroke-width:8.64"/>
	<line x1="556.38" y1="164.22" x2="3859.02" y2="164.22" style="stroke:#EAF2F3;stroke-width:8.64"/>
	<defs>
		<path id="path_nAuTpjrk" d="M619.74 164.22 L619.74 164.22 L634.84 164.22 L649.93 164.22 L664.91 164.22 L680.01 164.35 L694.98 164.72 L710.08 165.34 L725.17 166.45 L740.15 168.31 L755.25 170.90 L770.34 174.37 L785.32 178.95 L800.41 184.64 L815.51 191.57 L830.49 199.86 L845.58 209.52 L860.56 220.53 L875.65 232.90 L890.75 246.77 L905.73 261.99 L920.82 278.57 L935.92 296.39 L950.89 315.57 L965.99 335.87 L980.97 357.40 L996.06 379.92 L1011.16 403.44 L1026.13 427.94 L1041.23 453.31 L1056.33 479.42 L1071.30 506.28 L1086.40 533.75 L1101.50 561.72 L1116.47 590.18 L1131.57 619.14 L1146.54 648.35 L1161.64 677.80 L1176.74 707.38 L1191.71 737.20 L1206.81 767.15 L1221.91 796.97 L1236.88 826.80 L1251.98 856.62 L1266.95 886.20 L1282.05 915.65 L1297.15 944.98 L1312.12 973.94 L1327.22 1002.65 L1342.32 1030.99 L1357.29 1058.96 L1372.39 1086.56 L1387.48 1113.78 L1402.46 1140.52 L1417.56 1166.75 L1432.53 1192.62 L1447.63 1217.99 L1462.72 1242.86 L1477.70 1267.24 L1492.80 1291.12 L1507.89 1314.51 L1522.87 1337.41 L1537.96 1359.93 L1552.94 1381.96 L1568.04 1403.37 L1583.13 1424.41 L1598.11 1445.07 L1613.20 1465.12 L1628.30 1484.80 L1643.28 1503.98 L1658.37 1522.79 L1673.47 1541.11 L1688.44 1559.05 L1703.54 1576.50 L1718.52 1593.58 L1733.61 1610.29 L1748.71 1626.50 L1763.68 1642.34 L1778.78 1657.93 L1793.88 1673.03 L1808.85 1687.76 L1823.95 1702.11 L1838.92 1716.22 L1854.02 1729.96 L1869.12 1743.32 L1884.09 1756.31 L1899.19 1769.06 L1914.29 1781.44 L1929.26 1793.56 L1944.36 1805.32 L1959.46 1816.95 L1974.43 1828.09 L1989.53 1839.11 L2004.50 1849.75 L2019.60 1860.14 L2034.70 1870.42 L2049.67 1880.32 L2064.77 1889.97 L2079.87 1899.37 L2094.84 1908.53 L2109.94 1917.57 L2124.91 1926.35 L2140.01 1934.89 L2155.11 1943.18 L2170.08 1951.35 L2185.18 1959.27 L2200.28 1966.94 L2215.25 1974.49 L2230.35 1981.92 L2245.32 1989.10 L2260.42 1996.15 L2275.51 2002.96 L2290.49 2009.64 L2305.59 2016.20 L2320.68 2022.51 L2335.66 2028.70 L2350.76 2034.76 L2365.85 2040.70 L2380.83 2046.52 L2395.92 2052.21 L2410.90 2057.66 L2425.99 2063.10 L2441.09 2068.30 L2456.07 2073.50 L2471.16 2078.45 L2486.26 2083.40 L2501.24 2088.22 L2516.33 2092.93 L2531.31 2097.50 L2546.40 2101.96 L2561.50 2106.29 L2576.47 2110.62 L2591.57 2114.71 L2606.67 2118.91 L2621.64 2122.87 L2636.74 2126.71 L2651.84 2130.55 L2666.81 2134.38 L2681.91 2137.97 L2696.88 2141.56 L2711.98 2145.15 L2727.08 2148.49 L2742.05 2151.83 L2757.15 2155.17 L2772.25 2158.39 L2787.22 2161.61 L2802.32 2164.70 L2817.29 2167.67 L2832.39 2170.64 L2847.49 2173.61 L2862.46 2176.46 L2877.56 2179.31 L2892.66 2182.03 L2907.63 2184.75 L2922.73 2187.35 L2937.82 2189.95 L2952.80 2192.42 L2967.90 2195.02 L2982.87 2197.50 L2997.97 2199.85 L3013.07 2202.20 L3028.04 2204.55 L3043.14 2206.90 L3058.23 2209.13 L3073.21 2211.36 L3088.30 2213.46 L3103.28 2215.57 L3118.38 2217.67 L3133.47 2219.77 L3148.45 2221.88 L3163.55 2223.86 L3178.64 2225.84 L3193.62 2227.82 L3208.71 2229.67 L3223.81 2231.53 L3238.78 2233.51 L3253.88 2235.24 L3268.86 2237.10 L3283.95 2238.95 L3299.05 2240.69 L3314.03 2242.42 L3329.12 2244.15 L3344.22 2245.89 L3359.19 2247.49 L3374.29 2249.23 L3389.26 2250.84 L3404.36 2252.44 L3419.46 2254.05 L3434.43 2255.66 L3449.53 2257.27 L3464.63 2258.76 L3479.60 2260.36 L3494.70 2261.85 L3509.80 2263.33 L3524.77 2264.82 L3539.87 2266.30 L3554.84 2267.79 L3569.94 2269.27 L3585.04 2270.76 L3600.01 2272.12 L3615.11 2273.61 L3630.21 2274.97 L3645.18 2276.45 L3660.28 2277.81 L3675.25 2279.17 L3690.35 2280.54 L3705.45 2281.90 L3720.42 2283.26 L3735.52 2284.62 L3750.61 2285.98 L3765.59 2287.34 L3780.69 2288.70 L3795.66 2290.07 L3795.66 1325.78 L3780.69 1325.03 L3765.59 1324.29 L3750.61 1323.55 L3735.52 1322.81 L3720.42 1322.06 L3705.45 1321.32 L3690.35 1320.58 L3675.25 1319.83 L3660.28 1319.09 L3645.18 1318.35 L3630.21 1317.48 L3615.11 1316.74 L3600.01 1316.00 L3585.04 1315.26 L3569.94 1314.39 L3554.84 1313.65 L3539.87 1312.78 L3524.77 1312.04 L3509.80 1311.17 L3494.70 1310.31 L3479.60 1309.56 L3464.63 1308.70 L3449.53 1307.83 L3434.43 1306.96 L3419.46 1306.10 L3404.36 1305.23 L3389.26 1304.37 L3374.29 1303.50 L3359.19 1302.51 L3344.22 1301.64 L3329.12 1300.65 L3314.03 1299.79 L3299.05 1298.80 L3283.95 1297.81 L3268.86 1296.82 L3253.88 1295.83 L3238.78 1294.84 L3223.81 1293.85 L3208.71 1292.86 L3193.62 1291.74 L3178.64 1290.75 L3163.55 1289.64 L3148.45 1288.53 L3133.47 1287.41 L3118.38 1286.30 L3103.28 1285.18 L3088.30 1283.95 L3073.21 1282.83 L3058.23 1281.60 L3043.14 1280.36 L3028.04 1279.12 L3013.07 1277.88 L2997.97 1276.52 L2982.87 1275.16 L2967.90 1273.92 L2952.80 1272.56 L2937.82 1271.08 L2922.73 1269.71 L2907.63 1268.23 L2892.66 1266.74 L2877.56 1265.26 L2862.46 1263.77 L2847.49 1262.17 L2832.39 1260.56 L2817.29 1258.95 L2802.32 1257.34 L2787.22 1255.61 L2772.25 1253.87 L2757.15 1252.14 L2742.05 1250.29 L2727.08 1248.55 L2711.98 1246.57 L2696.88 1244.72 L2681.91 1242.74 L2666.81 1240.76 L2651.84 1238.65 L2636.74 1236.55 L2621.64 1234.44 L2606.67 1232.34 L2591.57 1229.99 L2576.47 1227.76 L2561.50 1225.41 L2546.40 1223.06 L2531.31 1220.58 L2516.33 1218.11 L2501.24 1215.51 L2486.26 1212.91 L2471.16 1210.19 L2456.07 1207.47 L2441.09 1204.74 L2425.99 1201.77 L2410.90 1198.93 L2395.92 1195.83 L2380.83 1192.74 L2365.85 1189.65 L2350.76 1186.43 L2335.66 1183.09 L2320.68 1179.62 L2305.59 1176.16 L2290.49 1172.57 L2275.51 1168.98 L2260.42 1165.27 L2245.32 1161.43 L2230.35 1157.47 L2215.25 1153.51 L2200.28 1149.30 L2185.18 1145.09 L2170.08 1140.76 L2155.11 1136.31 L2140.01 1131.73 L2124.91 1127.15 L2109.94 1122.32 L2094.84 1117.37 L2079.87 1112.42 L2064.77 1107.23 L2049.67 1101.90 L2034.70 1096.58 L2019.60 1091.01 L2004.50 1085.32 L1989.53 1079.50 L1974.43 1073.44 L1959.46 1067.38 L1944.36 1061.07 L1929.26 1054.63 L1914.29 1047.95 L1899.19 1041.14 L1884.09 1034.21 L1869.12 1027.16 L1854.02 1019.86 L1838.92 1012.31 L1823.95 1004.63 L1808.85 996.71 L1793.88 988.67 L1778.78 980.38 L1763.68 971.96 L1748.71 963.30 L1733.61 954.39 L1718.52 945.23 L1703.54 935.95 L1688.44 926.42 L1673.47 916.64 L1658.37 906.62 L1643.28 896.35 L1628.30 885.83 L1613.20 875.06 L1598.11 864.05 L1583.13 852.79 L1568.04 841.28 L1552.94 829.52 L1537.96 817.52 L1522.87 805.14 L1507.89 792.64 L1492.80 779.77 L1477.70 766.78 L1462.72 753.41 L1447.63 739.80 L1432.53 725.94 L1417.56 711.71 L1402.46 697.35 L1387.48 682.75 L1372.39 667.78 L1357.29 652.68 L1342.32 637.33 L1327.22 621.86 L1312.12 606.15 L1297.15 590.18 L1282.05 574.22 L1266.95 558.01 L1251.98 541.79 L1236.88 525.46 L1221.91 509.12 L1206.81 492.66 L1191.71 476.33 L1176.74 459.99 L1161.64 443.66 L1146.54 427.57 L1131.57 411.48 L1116.47 395.64 L1101.50 380.05 L1086.40 364.70 L1071.30 349.60 L1056.33 334.88 L1041.23 320.65 L1026.13 306.79 L1011.16 293.30 L996.06 280.43 L980.97 268.05 L965.99 256.29 L950.89 245.28 L935.92 234.76 L920.82 225.11 L905.73 216.07 L890.75 207.91 L875.65 200.36 L860.56 193.67 L845.58 187.73 L830.49 182.66 L815.51 178.21 L800.41 174.62 L785.32 171.65 L770.34 169.30 L755.25 167.44 L740.15 166.20 L725.17 165.21 L710.08 164.72 L694.98 164.35 L680.01 164.22 L664.91 164.22 L649.93 164.22 L634.84 164.22 L619.74 164.22 L619.74 164.22 Z" stroke-linejoin="round"/>
	</defs>
	<defs>
		<clipPath id="clipPath_LaKtEZKr">
			<use xlink:href="#path_nAuTpjrk"/>
		</clipPath>
	</defs>
	<use xlink:href="#path_nAuTpjrk" style="stroke:none;fill:#FF3333;fill-opacity:0.25"/>
	<use xlink:href="#path_nAuTpjrk" style="fill:none;stroke:#FF0000;stroke-opacity:0.25;stroke-width:17.28" clip-path="url(#clipPath_LaKtEZKr)"/>
	<path d=" M619.74 164.22 L634.71 164.22 L649.81 164.22 L664.91 164.22 L679.88 164.35 L694.98 164.59 L710.08 165.09 L725.05 165.95 L740.15 167.32 L755.25 169.17 L770.22 171.89 L785.32 175.36 L800.29 179.69 L815.39 185.01 L830.49 191.32 L845.46 198.75 L860.56 207.16 L875.65 216.69 L890.63 227.34 L905.73 239.09 L920.70 251.84 L935.80 265.70 L950.89 280.43 L965.87 296.14 L980.97 312.73 L996.06 330.18 L1011.04 348.49 L1026.13 367.43 L1041.23 386.98 L1056.21 407.27 L1071.30 428.06 L1086.28 449.23 L1101.38 471.01 L1116.47 493.04 L1131.45 515.31 L1146.54 537.96 L1161.64 560.73 L1176.62 583.75 L1191.71 606.77 L1206.69 629.91 L1221.78 653.05 L1236.88 676.19 L1251.86 699.21 L1266.95 722.23 L1282.05 745.00 L1297.02 767.65 L1312.12 790.04 L1327.22 812.32 L1342.19 834.22 L1357.29 855.88 L1372.26 877.29 L1387.36 898.33 L1402.46 919.00 L1417.43 939.29 L1432.53 959.34 L1447.63 978.89 L1462.60 998.20 L1477.70 1017.01 L1492.67 1035.57 L1507.77 1053.64 L1522.87 1071.34 L1537.84 1088.79 L1552.94 1105.74 L1568.04 1122.45 L1583.01 1138.66 L1598.11 1154.62 L1613.08 1170.09 L1628.18 1185.31 L1643.28 1200.17 L1658.25 1214.77 L1673.35 1228.88 L1688.44 1242.74 L1703.42 1256.23 L1718.52 1269.47 L1733.61 1282.34 L1748.59 1294.96 L1763.68 1307.21 L1778.66 1319.22 L1793.76 1330.97 L1808.85 1342.36 L1823.83 1353.50 L1838.92 1364.26 L1854.02 1374.91 L1869.00 1385.30 L1884.09 1395.32 L1899.07 1405.23 L1914.16 1414.75 L1929.26 1424.16 L1944.24 1433.32 L1959.33 1442.23 L1974.43 1450.89 L1989.40 1459.31 L2004.50 1467.60 L2019.60 1475.64 L2034.57 1483.56 L2049.67 1491.23 L2064.64 1498.66 L2079.74 1505.96 L2094.84 1513.01 L2109.81 1520.07 L2124.91 1526.75 L2140.01 1533.43 L2154.98 1539.87 L2170.08 1546.06 L2185.05 1552.24 L2200.15 1558.18 L2215.25 1564.00 L2230.22 1569.82 L2245.32 1575.26 L2260.42 1580.71 L2275.39 1586.03 L2290.49 1591.23 L2305.59 1596.30 L2320.56 1601.13 L2335.66 1605.95 L2350.63 1610.66 L2365.73 1615.24 L2380.83 1619.69 L2395.80 1624.02 L2410.90 1628.35 L2425.99 1632.56 L2440.97 1636.52 L2456.07 1640.61 L2471.04 1644.44 L2486.14 1648.28 L2501.24 1651.87 L2516.21 1655.58 L2531.31 1659.04 L2546.40 1662.51 L2561.38 1665.97 L2576.47 1669.19 L2591.57 1672.41 L2606.55 1675.63 L2621.64 1678.72 L2636.62 1681.69 L2651.72 1684.66 L2666.81 1687.63 L2681.79 1690.48 L2696.88 1693.20 L2711.98 1695.92 L2726.95 1698.52 L2742.05 1701.12 L2757.03 1703.72 L2772.12 1706.19 L2787.22 1708.67 L2802.20 1711.02 L2817.29 1713.37 L2832.39 1715.72 L2847.36 1717.95 L2862.46 1720.18 L2877.56 1722.28 L2892.53 1724.51 L2907.63 1726.49 L2922.60 1728.59 L2937.70 1730.57 L2952.80 1732.55 L2967.77 1734.53 L2982.87 1736.39 L2997.97 1738.25 L3012.94 1740.10 L3028.04 1741.84 L3043.01 1743.69 L3058.11 1745.42 L3073.21 1747.16 L3088.18 1748.77 L3103.28 1750.50 L3118.38 1752.11 L3133.35 1753.72 L3148.45 1755.20 L3163.42 1756.81 L3178.52 1758.29 L3193.62 1759.78 L3208.59 1761.27 L3223.69 1762.75 L3238.78 1764.24 L3253.76 1765.60 L3268.86 1767.08 L3283.95 1768.44 L3298.93 1769.80 L3314.03 1771.17 L3329.00 1772.53 L3344.10 1773.76 L3359.19 1775.13 L3374.17 1776.36 L3389.26 1777.60 L3404.36 1778.96 L3419.34 1780.20 L3434.43 1781.31 L3449.41 1782.55 L3464.51 1783.79 L3479.60 1785.03 L3494.58 1786.14 L3509.67 1787.38 L3524.77 1788.49 L3539.74 1789.60 L3554.84 1790.72 L3569.94 1791.96 L3584.91 1793.07 L3600.01 1794.18 L3614.99 1795.30 L3630.08 1796.29 L3645.18 1797.40 L3660.15 1798.51 L3675.25 1799.63 L3690.35 1800.62 L3705.32 1801.73 L3720.42 1802.72 L3735.39 1803.84 L3750.49 1804.83 L3765.59 1805.94 L3780.56 1806.93 L3795.66 1807.92" stroke-linejoin="round" style="fill:none;stroke:#FF0000;stroke-width:8.64"/>
	<line x1="556.38" y1="2489.19" x2="556.38" y2="100.86" style="stroke:#000000;stroke-width:5.76"/>
	<line x1="556.38" y1="2425.82" x2="516.41" y2="2425.82" style="stroke:#000000;stroke-width:5.76"/>
	<text x="496.49" y="2460.85" style="font-family:'Helvetica';font-size:99.99px;fill:#000000" text-anchor="end">-0.40</text>
	<line x1="556.38" y1="1860.39" x2="516.41" y2="1860.39" style="stroke:#000000;stroke-width:5.76"/>
	<text x="496.49" y="1895.42" style="font-family:'Helvetica';font-size:99.99px;fill:#000000" text-anchor="end">-0.30</text>
	<line x1="556.38" y1="1294.96" x2="516.41" y2="1294.96" style="stroke:#000000;stroke-width:5.76"/>
	<text x="496.49" y="1329.99" style="font-family:'Helvetica';font-size:99.99px;fill:#000000" text-anchor="end">-0.20</text>
	<line x1="556.38" y1="729.53" x2="516.41" y2="729.53" style="stroke:#000000;stroke-width:5.76"/>
	<text x="496.49" y="764.56" style="font-family:'Helvetica';font-size:99.99px;fill:#000000" text-anchor="end">-0.10</text>
	<line x1="556.38" y1="164.22" x2="516.41" y2="164.22" style="stroke:#000000;stroke-width:5.76"/>
	<text x="496.49" y="199.25" style="font-family:'Helvetica';font-size:99.99px;fill:#000000" text-anchor="end">0.00</text>
	<text x="190.71" y="1294.96" style="font-family:'Helvetica';font-size:99.99px;fill:#000000" transform="rotate(-90 190.71,1294.96)" text-anchor="middle">Difference in curves (%)</text>
	<line x1="556.38" y1="2489.19" x2="3859.02" y2="2489.19" style="stroke:#000000;stroke-width:5.76"/>
	<line x1="619.74" y1="2489.19" x2="619.74" y2="2529.16" style="stroke:#000000;stroke-width:5.76"/>
	<text x="619.74" y="2619.14" style="font-family:'Helvetica';font-size:99.99px;fill:#000000" text-anchor="middle">0</text>
	<line x1="1372.39" y1="2489.19" x2="1372.39" y2="2529.16" style="stroke:#000000;stroke-width:5.76"/>
	<text x="1372.39" y="2619.14" style="font-family:'Helvetica';font-size:99.99px;fill:#000000" text-anchor="middle">50</text>
	<line x1="2124.91" y1="2489.19" x2="2124.91" y2="2529.16" style="stroke:#000000;stroke-width:5.76"/>
	<text x="2124.91" y="2619.14" style="font-family:'Helvetica';font-size:99.99px;fill:#000000" text-anchor="middle">100</text>
	<line x1="2877.56" y1="2489.19" x2="2877.56" y2="2529.16" style="stroke:#000000;stroke-width:5.76"/>
	<text x="2877.56" y="2619.14" style="font-family:'Helvetica';font-size:99.99px;fill:#000000" text-anchor="middle">150</text>
	<line x1="3630.21" y1="2489.19" x2="3630.21" y2="2529.16" style="stroke:#000000;stroke-width:5.76"/>
	<text x="3630.21" y="2619.14" style="font-family:'Helvetica';font-size:99.99px;fill:#000000" text-anchor="middle">200</text>
	<text x="2207.70" y="2729.16" style="font-family:'Helvetica';font-size:99.99px;fill:#000000" text-anchor="middle">Days from 1 March 2020</text>
</svg>
