<?xml version="1.0" encoding="UTF-8" standalone="no"?>
<!-- This is a Stata 16.1 generated SVG file (http://www.stata.com) -->

<svg version="1.1" width="5.50in" height="4.00in" viewBox="0 0 3960 2880" xmlns="http://www.w3.org/2000/svg" xmlns:xlink="http://www.w3.org/1999/xlink">
	<desc>Stata Graph - Graph</desc>
	<rect x="0" y="0" width="3960" height="2880" style="fill:#EAF2F3;stroke:none"/>
	<rect x="0.00" y="0.00" width="3959.88" height="2880.00" style="fill:#EAF2F3"/>
	<rect x="2.88" y="2.88" width="3954.12" height="2874.24" style="fill:none;stroke:#EAF2F3;stroke-width:5.76"/>
	<rect x="556.38" y="100.86" width="3302.64" height="2388.33" style="fill:#FFFFFF"/>
	<rect x="559.26" y="103.74" width="3296.88" height="2382.57" style="fill:none;stroke:#FFFFFF;stroke-width:5.76"/>
	<line x1="556.38" y1="2425.82" x2="3859.02" y2="2425.82" style="stroke:#EAF2F3;stroke-width:8.64"/>
	<line x1="556.38" y1="1860.39" x2="3859.02" y2="1860.39" style="stroke:#EAF2F3;stroke-width:8.64"/>
	<line x1="556.38" y1="1294.96" x2="3859.02" y2="1294.96" style="stroke:#EAF2F3;stroke-width:8.64"/>
	<line x1="556.38" y1="729.53" x2="3859.02" y2="729.53" style="stroke:#EAF2F3;stroke-width:8.64"/>
	<line x1="556.38" y1="164.22" x2="3859.02" y2="164.22" style="stroke:#EAF2F3;stroke-width:8.64"/>
	<defs>
		<path id="path_RMEwLwyF" d="M619.74 164.22 L619.74 164.22 L634.84 164.22 L649.93 164.22 L664.91 164.22 L680.01 164.22 L694.98 164.22 L710.08 164.35 L725.17 164.59 L740.15 164.96 L755.25 165.58 L770.34 166.70 L785.32 168.31 L800.41 170.53 L815.51 173.38 L830.49 177.22 L845.58 182.04 L860.56 187.86 L875.65 194.91 L890.75 203.20 L905.73 212.86 L920.82 223.87 L935.92 236.37 L950.89 250.35 L965.99 265.70 L980.97 282.65 L996.06 300.97 L1011.16 320.77 L1026.13 342.06 L1041.23 364.58 L1056.33 388.46 L1071.30 413.59 L1086.40 439.94 L1101.50 467.42 L1116.47 495.88 L1131.57 525.34 L1146.54 555.53 L1161.64 586.72 L1176.74 618.52 L1191.71 650.82 L1206.81 683.86 L1221.91 717.15 L1236.88 750.94 L1251.98 784.97 L1266.95 819.25 L1282.05 853.53 L1297.15 887.93 L1312.12 922.34 L1327.22 956.62 L1342.32 990.77 L1357.29 1024.68 L1372.39 1058.34 L1387.48 1091.63 L1402.46 1124.55 L1417.56 1157.10 L1432.53 1189.15 L1447.63 1220.83 L1462.72 1251.89 L1477.70 1282.46 L1492.80 1312.66 L1507.89 1342.11 L1522.87 1371.19 L1537.96 1399.66 L1552.94 1427.50 L1568.04 1454.85 L1583.13 1481.58 L1598.11 1507.69 L1613.20 1533.31 L1628.30 1558.31 L1643.28 1582.81 L1658.37 1606.70 L1673.47 1629.96 L1688.44 1652.73 L1703.54 1674.88 L1718.52 1696.54 L1733.61 1717.70 L1748.71 1738.25 L1763.68 1758.29 L1778.78 1777.85 L1793.88 1796.78 L1808.85 1815.35 L1823.95 1833.29 L1838.92 1850.86 L1854.02 1867.94 L1869.12 1884.52 L1884.09 1900.61 L1899.19 1916.20 L1914.29 1931.55 L1929.26 1946.28 L1944.36 1960.63 L1959.46 1974.62 L1974.43 1988.23 L1989.53 2001.35 L2004.50 2014.22 L2019.60 2026.59 L2034.70 2038.60 L2049.67 2050.35 L2064.77 2061.62 L2079.87 2072.63 L2094.84 2083.40 L2109.94 2093.67 L2124.91 2103.69 L2140.01 2113.47 L2155.11 2122.87 L2170.08 2132.03 L2185.18 2140.82 L2200.28 2149.48 L2215.25 2157.77 L2230.35 2165.82 L2245.32 2173.61 L2260.42 2181.16 L2275.51 2188.46 L2290.49 2195.52 L2305.59 2202.45 L2320.68 2209.01 L2335.66 2215.44 L2350.76 2221.63 L2365.85 2227.69 L2380.83 2233.51 L2395.92 2239.08 L2410.90 2244.52 L2425.99 2249.85 L2441.09 2254.92 L2456.07 2259.75 L2471.16 2264.45 L2486.26 2269.15 L2501.24 2273.48 L2516.33 2277.81 L2531.31 2281.90 L2546.40 2285.86 L2561.50 2289.69 L2576.47 2293.41 L2591.57 2297.00 L2606.67 2300.46 L2621.64 2303.80 L2636.74 2307.02 L2651.84 2310.11 L2666.81 2313.08 L2681.91 2316.05 L2696.88 2318.78 L2711.98 2321.50 L2727.08 2324.10 L2742.05 2326.57 L2757.15 2328.92 L2772.25 2331.28 L2787.22 2333.38 L2802.32 2335.61 L2817.29 2337.59 L2832.39 2339.57 L2847.49 2341.42 L2862.46 2343.28 L2877.56 2345.01 L2892.66 2346.74 L2907.63 2348.35 L2922.73 2349.96 L2937.82 2351.45 L2952.80 2352.81 L2967.90 2354.17 L2982.87 2355.53 L2997.97 2356.77 L3013.07 2358.01 L3028.04 2359.12 L3043.14 2360.23 L3058.23 2361.35 L3073.21 2362.34 L3088.30 2363.33 L3103.28 2364.32 L3118.38 2365.18 L3133.47 2366.05 L3148.45 2366.79 L3163.55 2367.66 L3178.64 2368.40 L3193.62 2369.02 L3208.71 2369.76 L3223.81 2370.38 L3238.78 2371.00 L3253.88 2371.62 L3268.86 2372.24 L3283.95 2372.73 L3299.05 2373.23 L3314.03 2373.72 L3329.12 2374.22 L3344.22 2374.71 L3359.19 2375.08 L3374.29 2375.46 L3389.26 2375.95 L3404.36 2376.32 L3419.46 2376.57 L3434.43 2376.94 L3449.53 2377.31 L3464.63 2377.56 L3479.60 2377.93 L3494.70 2378.18 L3509.80 2378.43 L3524.77 2378.67 L3539.87 2378.92 L3554.84 2379.17 L3569.94 2379.42 L3585.04 2379.66 L3600.01 2379.91 L3615.11 2380.03 L3630.21 2380.28 L3645.18 2380.41 L3660.28 2380.65 L3675.25 2380.78 L3690.35 2381.02 L3705.45 2381.15 L3720.42 2381.40 L3735.52 2381.52 L3750.61 2381.64 L3765.59 2381.89 L3780.69 2382.01 L3795.66 2382.14 L3795.66 1048.32 L3780.69 1048.20 L3765.59 1048.20 L3750.61 1048.07 L3735.52 1048.07 L3720.42 1047.95 L3705.45 1047.95 L3690.35 1047.82 L3675.25 1047.82 L3660.28 1047.70 L3645.18 1047.58 L3630.21 1047.58 L3615.11 1047.45 L3600.01 1047.33 L3585.04 1047.33 L3569.94 1047.21 L3554.84 1047.08 L3539.87 1046.96 L3524.77 1046.96 L3509.80 1046.83 L3494.70 1046.71 L3479.60 1046.59 L3464.63 1046.46 L3449.53 1046.34 L3434.43 1046.22 L3419.46 1046.09 L3404.36 1045.97 L3389.26 1045.84 L3374.29 1045.60 L3359.19 1045.47 L3344.22 1045.35 L3329.12 1045.10 L3314.03 1044.98 L3299.05 1044.73 L3283.95 1044.48 L3268.86 1044.36 L3253.88 1044.11 L3238.78 1043.86 L3223.81 1043.62 L3208.71 1043.37 L3193.62 1043.12 L3178.64 1042.75 L3163.55 1042.50 L3148.45 1042.13 L3133.47 1041.88 L3118.38 1041.51 L3103.28 1041.14 L3088.30 1040.77 L3073.21 1040.40 L3058.23 1040.03 L3043.14 1039.53 L3028.04 1039.16 L3013.07 1038.67 L2997.97 1038.17 L2982.87 1037.68 L2967.90 1037.18 L2952.80 1036.56 L2937.82 1036.07 L2922.73 1035.45 L2907.63 1034.83 L2892.66 1034.21 L2877.56 1033.47 L2862.46 1032.85 L2847.49 1032.11 L2832.39 1031.36 L2817.29 1030.62 L2802.32 1029.76 L2787.22 1028.89 L2772.25 1028.02 L2757.15 1027.16 L2742.05 1026.17 L2727.08 1025.18 L2711.98 1024.19 L2696.88 1023.07 L2681.91 1021.96 L2666.81 1020.85 L2651.84 1019.61 L2636.74 1018.37 L2621.64 1017.13 L2606.67 1015.77 L2591.57 1014.41 L2576.47 1013.05 L2561.50 1011.56 L2546.40 1009.96 L2531.31 1008.35 L2516.33 1006.74 L2501.24 1005.01 L2486.26 1003.27 L2471.16 1001.42 L2456.07 999.56 L2441.09 997.58 L2425.99 995.60 L2410.90 993.50 L2395.92 991.39 L2380.83 989.16 L2365.85 986.81 L2350.76 984.46 L2335.66 981.99 L2320.68 979.39 L2305.59 976.79 L2290.49 974.07 L2275.51 971.22 L2260.42 968.25 L2245.32 965.28 L2230.35 962.19 L2215.25 958.97 L2200.28 955.63 L2185.18 952.29 L2170.08 948.70 L2155.11 945.11 L2140.01 941.27 L2124.91 937.44 L2109.94 933.48 L2094.84 929.39 L2079.87 925.06 L2064.77 920.73 L2049.67 916.15 L2034.70 911.57 L2019.60 906.74 L2004.50 901.79 L1989.53 896.72 L1974.43 891.40 L1959.46 886.08 L1944.36 880.51 L1929.26 874.69 L1914.29 868.88 L1899.19 862.69 L1884.09 856.50 L1869.12 850.07 L1854.02 843.51 L1838.92 836.70 L1823.95 829.65 L1808.85 822.47 L1793.88 815.04 L1778.78 807.49 L1763.68 799.70 L1748.71 791.78 L1733.61 783.49 L1718.52 775.07 L1703.54 766.41 L1688.44 757.62 L1673.47 748.46 L1658.37 739.18 L1643.28 729.65 L1628.30 719.88 L1613.20 709.85 L1598.11 699.58 L1583.13 689.19 L1568.04 678.54 L1552.94 667.53 L1537.96 656.39 L1522.87 645.01 L1507.89 633.37 L1492.80 621.62 L1477.70 609.61 L1462.72 597.36 L1447.63 584.86 L1432.53 572.24 L1417.56 559.37 L1402.46 546.37 L1387.48 533.13 L1372.39 519.77 L1357.29 506.28 L1342.32 492.66 L1327.22 479.05 L1312.12 465.31 L1297.15 451.45 L1282.05 437.72 L1266.95 423.98 L1251.98 410.24 L1236.88 396.63 L1221.91 383.02 L1206.81 369.65 L1191.71 356.41 L1176.74 343.54 L1161.64 330.79 L1146.54 318.29 L1131.57 306.17 L1116.47 294.41 L1101.50 283.03 L1086.40 272.13 L1071.30 261.62 L1056.33 251.59 L1041.23 242.06 L1026.13 233.15 L1011.16 224.74 L996.06 216.82 L980.97 209.64 L965.99 202.96 L950.89 196.89 L935.92 191.45 L920.82 186.62 L905.73 182.29 L890.75 178.58 L875.65 175.36 L860.56 172.76 L845.58 170.53 L830.49 168.80 L815.51 167.32 L800.41 166.33 L785.32 165.58 L770.34 164.96 L755.25 164.59 L740.15 164.35 L725.17 164.22 L710.08 164.22 L694.98 164.22 L680.01 164.22 L664.91 164.22 L649.93 164.22 L634.84 164.22 L619.74 164.22 L619.74 164.22 Z" stroke-linejoin="round"/>
	</defs>
	<defs>
		<clipPath id="clipPath_MIKkvCtM">
			<use xlink:href="#path_RMEwLwyF"/>
		</clipPath>
	</defs>
	<use xlink:href="#path_RMEwLwyF" style="stroke:none;fill:#FF3333;fill-opacity:0.25"/>
	<use xlink:href="#path_RMEwLwyF" style="fill:none;stroke:#FF0000;stroke-opacity:0.25;stroke-width:17.28" clip-path="url(#clipPath_MIKkvCtM)"/>
	<path d=" M619.74 164.22 L634.71 164.22 L649.81 164.22 L664.91 164.22 L679.88 164.22 L694.98 164.22 L710.08 164.35 L725.05 164.47 L740.15 164.72 L755.25 165.21 L770.22 165.95 L785.32 166.94 L800.29 168.43 L815.39 170.41 L830.49 173.01 L845.46 176.35 L860.56 180.31 L875.65 185.26 L890.63 190.95 L905.73 197.63 L920.70 205.31 L935.80 213.97 L950.89 223.62 L965.87 234.39 L980.97 246.15 L996.06 259.02 L1011.04 272.75 L1026.13 287.60 L1041.23 303.44 L1056.21 320.03 L1071.30 337.72 L1086.28 356.04 L1101.38 375.22 L1116.47 395.15 L1131.45 415.81 L1146.54 436.97 L1161.64 458.76 L1176.62 481.03 L1191.71 503.68 L1206.69 526.82 L1221.78 550.21 L1236.88 573.85 L1251.86 597.61 L1266.95 621.62 L1282.05 645.75 L1297.02 669.76 L1312.12 693.89 L1327.22 717.90 L1342.19 741.78 L1357.29 765.54 L1372.26 789.18 L1387.36 812.44 L1402.46 835.46 L1417.43 858.23 L1432.53 880.76 L1447.63 902.91 L1462.60 924.69 L1477.70 946.10 L1492.67 967.14 L1507.77 987.80 L1522.87 1008.10 L1537.84 1028.02 L1552.94 1047.58 L1568.04 1066.76 L1583.01 1085.45 L1598.11 1103.76 L1613.08 1121.71 L1628.18 1139.15 L1643.28 1156.23 L1658.25 1172.94 L1673.35 1189.27 L1688.44 1205.24 L1703.42 1220.71 L1718.52 1235.93 L1733.61 1250.66 L1748.59 1265.01 L1763.68 1279.12 L1778.66 1292.73 L1793.76 1305.97 L1808.85 1318.97 L1823.83 1331.59 L1838.92 1343.84 L1854.02 1355.72 L1869.00 1367.36 L1884.09 1378.62 L1899.07 1389.51 L1914.16 1400.28 L1929.26 1410.55 L1944.24 1420.57 L1959.33 1430.35 L1974.43 1439.88 L1989.40 1449.03 L2004.50 1458.07 L2019.60 1466.73 L2034.57 1475.15 L2049.67 1483.31 L2064.64 1491.23 L2079.74 1498.91 L2094.84 1506.46 L2109.81 1513.63 L2124.91 1520.69 L2140.01 1527.49 L2154.98 1534.05 L2170.08 1540.49 L2185.05 1546.68 L2200.15 1552.62 L2215.25 1558.43 L2230.22 1564.13 L2245.32 1569.57 L2260.42 1574.77 L2275.39 1579.97 L2290.49 1584.92 L2305.59 1589.62 L2320.56 1594.32 L2335.66 1598.78 L2350.63 1603.11 L2365.73 1607.32 L2380.83 1611.40 L2395.80 1615.24 L2410.90 1619.07 L2425.99 1622.78 L2440.97 1626.25 L2456.07 1629.71 L2471.04 1633.06 L2486.14 1636.27 L2501.24 1639.37 L2516.21 1642.34 L2531.31 1645.18 L2546.40 1648.03 L2561.38 1650.75 L2576.47 1653.23 L2591.57 1655.83 L2606.55 1658.18 L2621.64 1660.53 L2636.62 1662.76 L2651.72 1664.98 L2666.81 1667.09 L2681.79 1669.07 L2696.88 1671.05 L2711.98 1672.90 L2726.95 1674.64 L2742.05 1676.37 L2757.03 1678.10 L2772.12 1679.71 L2787.22 1681.20 L2802.20 1682.68 L2817.29 1684.17 L2832.39 1685.53 L2847.36 1686.89 L2862.46 1688.13 L2877.56 1689.36 L2892.53 1690.48 L2907.63 1691.72 L2922.60 1692.71 L2937.70 1693.82 L2952.80 1694.81 L2967.77 1695.80 L2982.87 1696.67 L2997.97 1697.53 L3012.94 1698.40 L3028.04 1699.26 L3043.01 1700.01 L3058.11 1700.75 L3073.21 1701.49 L3088.18 1702.11 L3103.28 1702.73 L3118.38 1703.35 L3133.35 1703.97 L3148.45 1704.59 L3163.42 1705.08 L3178.52 1705.70 L3193.62 1706.19 L3208.59 1706.57 L3223.69 1707.06 L3238.78 1707.56 L3253.76 1707.93 L3268.86 1708.30 L3283.95 1708.67 L3298.93 1709.04 L3314.03 1709.41 L3329.00 1709.78 L3344.10 1710.03 L3359.19 1710.40 L3374.17 1710.65 L3389.26 1710.90 L3404.36 1711.14 L3419.34 1711.39 L3434.43 1711.64 L3449.41 1711.89 L3464.51 1712.13 L3479.60 1712.26 L3494.58 1712.51 L3509.67 1712.63 L3524.77 1712.88 L3539.74 1713.00 L3554.84 1713.25 L3569.94 1713.37 L3584.91 1713.50 L3600.01 1713.62 L3614.99 1713.87 L3630.08 1713.99 L3645.18 1714.11 L3660.15 1714.24 L3675.25 1714.36 L3690.35 1714.49 L3705.32 1714.61 L3720.42 1714.73 L3735.39 1714.86 L3750.49 1714.98 L3765.59 1715.10 L3780.56 1715.23 L3795.66 1715.23" stroke-linejoin="round" style="fill:none;stroke:#FF0000;stroke-width:8.64"/>
	<line x1="556.38" y1="2489.19" x2="556.38" y2="100.86" style="stroke:#000000;stroke-width:5.76"/>
	<line x1="556.38" y1="2425.82" x2="516.41" y2="2425.82" style="stroke:#000000;stroke-width:5.76"/>
	<text x="496.49" y="2460.85" style="font-family:'Helvetica';font-size:99.99px;fill:#000000" text-anchor="end">-0.20</text>
	<line x1="556.38" y1="1860.39" x2="516.41" y2="1860.39" style="stroke:#000000;stroke-width:5.76"/>
	<text x="496.49" y="1895.42" style="font-family:'Helvetica';font-size:99.99px;fill:#000000" text-anchor="end">-0.15</text>
	<line x1="556.38" y1="1294.96" x2="516.41" y2="1294.96" style="stroke:#000000;stroke-width:5.76"/>
	<text x="496.49" y="1329.99" style="font-family:'Helvetica';font-size:99.99px;fill:#000000" text-anchor="end">-0.10</text>
	<line x1="556.38" y1="729.53" x2="516.41" y2="729.53" style="stroke:#000000;stroke-width:5.76"/>
	<text x="496.49" y="764.56" style="font-family:'Helvetica';font-size:99.99px;fill:#000000" text-anchor="end">-0.05</text>
	<line x1="556.38" y1="164.22" x2="516.41" y2="164.22" style="stroke:#000000;stroke-width:5.76"/>
	<text x="496.49" y="199.25" style="font-family:'Helvetica';font-size:99.99px;fill:#000000" text-anchor="end">0.00</text>
	<text x="190.71" y="1294.96" style="font-family:'Helvetica';font-size:99.99px;fill:#000000" transform="rotate(-90 190.71,1294.96)" text-anchor="middle">Difference in curves (%)</text>
	<line x1="556.38" y1="2489.19" x2="3859.02" y2="2489.19" style="stroke:#000000;stroke-width:5.76"/>
	<line x1="619.74" y1="2489.19" x2="619.74" y2="2529.16" style="stroke:#000000;stroke-width:5.76"/>
	<text x="619.74" y="2619.14" style="font-family:'Helvetica';font-size:99.99px;fill:#000000" text-anchor="middle">0</text>
	<line x1="1372.39" y1="2489.19" x2="1372.39" y2="2529.16" style="stroke:#000000;stroke-width:5.76"/>
	<text x="1372.39" y="2619.14" style="font-family:'Helvetica';font-size:99.99px;fill:#000000" text-anchor="middle">50</text>
	<line x1="2124.91" y1="2489.19" x2="2124.91" y2="2529.16" style="stroke:#000000;stroke-width:5.76"/>
	<text x="2124.91" y="2619.14" style="font-family:'Helvetica';font-size:99.99px;fill:#000000" text-anchor="middle">100</text>
	<line x1="2877.56" y1="2489.19" x2="2877.56" y2="2529.16" style="stroke:#000000;stroke-width:5.76"/>
	<text x="2877.56" y="2619.14" style="font-family:'Helvetica';font-size:99.99px;fill:#000000" text-anchor="middle">150</text>
	<line x1="3630.21" y1="2489.19" x2="3630.21" y2="2529.16" style="stroke:#000000;stroke-width:5.76"/>
	<text x="3630.21" y="2619.14" style="font-family:'Helvetica';font-size:99.99px;fill:#000000" text-anchor="middle">200</text>
	<text x="2207.70" y="2729.16" style="font-family:'Helvetica';font-size:99.99px;fill:#000000" text-anchor="middle">Days from 1 March 2020</text>
</svg>
