<?xml version="1.0" encoding="UTF-8" standalone="no"?>
<!-- This is a Stata 16.1 generated SVG file (http://www.stata.com) -->

<svg version="1.1" width="5.50in" height="4.00in" viewBox="0 0 3960 2880" xmlns="http://www.w3.org/2000/svg" xmlns:xlink="http://www.w3.org/1999/xlink">
	<desc>Stata Graph - Graph</desc>
	<rect x="0" y="0" width="3960" height="2880" style="fill:#EAF2F3;stroke:none"/>
	<rect x="0.00" y="0.00" width="3959.88" height="2880.00" style="fill:#EAF2F3"/>
	<rect x="2.88" y="2.88" width="3954.12" height="2874.24" style="fill:none;stroke:#EAF2F3;stroke-width:5.76"/>
	<rect x="556.38" y="100.86" width="3302.64" height="2388.33" style="fill:#FFFFFF"/>
	<rect x="559.26" y="103.74" width="3296.88" height="2382.57" style="fill:none;stroke:#FFFFFF;stroke-width:5.76"/>
	<line x1="556.38" y1="2425.82" x2="3859.02" y2="2425.82" style="stroke:#EAF2F3;stroke-width:8.64"/>
	<line x1="556.38" y1="1860.39" x2="3859.02" y2="1860.39" style="stroke:#EAF2F3;stroke-width:8.64"/>
	<line x1="556.38" y1="1294.96" x2="3859.02" y2="1294.96" style="stroke:#EAF2F3;stroke-width:8.64"/>
	<line x1="556.38" y1="729.53" x2="3859.02" y2="729.53" style="stroke:#EAF2F3;stroke-width:8.64"/>
	<line x1="556.38" y1="164.22" x2="3859.02" y2="164.22" style="stroke:#EAF2F3;stroke-width:8.64"/>
	<defs>
		<path id="path_EhIispPU" d="M619.74 164.22 L619.74 164.22 L634.84 164.22 L649.93 164.22 L664.91 164.22 L680.01 164.22 L694.98 164.22 L710.08 164.35 L725.17 164.47 L740.15 164.84 L755.25 165.58 L770.34 166.57 L785.32 168.06 L800.41 170.16 L815.51 173.13 L830.49 176.84 L845.58 181.42 L860.56 187.24 L875.65 194.17 L890.75 202.46 L905.73 211.99 L920.82 223.00 L935.92 235.50 L950.89 249.36 L965.99 264.83 L980.97 281.79 L996.06 300.35 L1011.16 320.28 L1026.13 341.68 L1041.23 364.46 L1056.33 388.59 L1071.30 414.08 L1086.40 440.69 L1101.50 468.53 L1116.47 497.49 L1131.57 527.32 L1146.54 558.13 L1161.64 589.69 L1176.74 622.11 L1191.71 655.03 L1206.81 688.69 L1221.91 722.72 L1236.88 757.13 L1251.98 791.78 L1266.95 826.68 L1282.05 861.70 L1297.15 896.84 L1312.12 931.99 L1327.22 967.01 L1342.32 1001.79 L1357.29 1036.44 L1372.39 1070.84 L1387.48 1104.87 L1402.46 1138.54 L1417.56 1171.70 L1432.53 1204.50 L1447.63 1236.80 L1462.72 1268.48 L1477.70 1299.79 L1492.80 1330.48 L1507.89 1360.67 L1522.87 1390.25 L1537.96 1419.21 L1552.94 1447.67 L1568.04 1475.52 L1583.13 1502.87 L1598.11 1529.47 L1613.20 1555.59 L1628.30 1581.08 L1643.28 1605.95 L1658.37 1630.33 L1673.47 1654.09 L1688.44 1677.24 L1703.54 1699.76 L1718.52 1721.79 L1733.61 1743.32 L1748.71 1764.24 L1763.68 1784.53 L1778.78 1804.33 L1793.88 1823.64 L1808.85 1842.45 L1823.95 1860.76 L1838.92 1878.58 L1854.02 1895.79 L1869.12 1912.62 L1884.09 1928.95 L1899.19 1944.79 L1914.29 1960.26 L1929.26 1975.24 L1944.36 1989.84 L1959.46 2003.95 L1974.43 2017.68 L1989.53 2030.92 L2004.50 2043.92 L2019.60 2056.42 L2034.70 2068.55 L2049.67 2080.30 L2064.77 2091.81 L2079.87 2102.83 L2094.84 2113.59 L2109.94 2123.99 L2124.91 2134.14 L2140.01 2143.91 L2155.11 2153.44 L2170.08 2162.60 L2185.18 2171.51 L2200.28 2180.17 L2215.25 2188.46 L2230.35 2196.51 L2245.32 2204.30 L2260.42 2211.98 L2275.51 2219.28 L2290.49 2226.33 L2305.59 2233.14 L2320.68 2239.82 L2335.66 2246.26 L2350.76 2252.44 L2365.85 2258.38 L2380.83 2264.20 L2395.92 2269.77 L2410.90 2275.21 L2425.99 2280.41 L2441.09 2285.49 L2456.07 2290.44 L2471.16 2295.14 L2486.26 2299.59 L2501.24 2304.05 L2516.33 2308.26 L2531.31 2312.34 L2546.40 2316.30 L2561.50 2320.14 L2576.47 2323.73 L2591.57 2327.32 L2606.67 2330.78 L2621.64 2334.00 L2636.74 2337.22 L2651.84 2340.31 L2666.81 2343.16 L2681.91 2346.00 L2696.88 2348.72 L2711.98 2351.45 L2727.08 2353.92 L2742.05 2356.40 L2757.15 2358.75 L2772.25 2360.98 L2787.22 2363.08 L2802.32 2365.18 L2817.29 2367.16 L2832.39 2369.14 L2847.49 2371.00 L2862.46 2372.73 L2877.56 2374.47 L2892.66 2376.07 L2907.63 2377.68 L2922.73 2379.17 L2937.82 2380.65 L2952.80 2382.01 L2967.90 2383.38 L2982.87 2384.61 L2997.97 2385.85 L3013.07 2387.09 L3028.04 2388.20 L3043.14 2389.19 L3058.23 2390.31 L3073.21 2391.17 L3088.30 2392.16 L3103.28 2393.03 L3118.38 2393.89 L3133.47 2394.76 L3148.45 2395.50 L3163.55 2396.25 L3178.64 2396.99 L3193.62 2397.73 L3208.71 2398.35 L3223.81 2398.97 L3238.78 2399.59 L3253.88 2400.08 L3268.86 2400.70 L3283.95 2401.20 L3299.05 2401.69 L3314.03 2402.19 L3329.12 2402.56 L3344.22 2403.05 L3359.19 2403.42 L3374.29 2403.80 L3389.26 2404.17 L3404.36 2404.54 L3419.46 2404.91 L3434.43 2405.28 L3449.53 2405.53 L3464.63 2405.90 L3479.60 2406.15 L3494.70 2406.39 L3509.80 2406.64 L3524.77 2406.89 L3539.87 2407.14 L3554.84 2407.38 L3569.94 2407.63 L3585.04 2407.88 L3600.01 2408.13 L3615.11 2408.25 L3630.21 2408.50 L3645.18 2408.75 L3660.28 2408.87 L3675.25 2409.12 L3690.35 2409.24 L3705.45 2409.49 L3720.42 2409.61 L3735.52 2409.86 L3750.61 2409.98 L3765.59 2410.11 L3780.69 2410.35 L3795.66 2410.48 L3795.66 1075.17 L3780.69 1075.05 L3765.59 1075.05 L3750.61 1074.93 L3735.52 1074.93 L3720.42 1074.80 L3705.45 1074.68 L3690.35 1074.68 L3675.25 1074.55 L3660.28 1074.55 L3645.18 1074.43 L3630.21 1074.31 L3615.11 1074.31 L3600.01 1074.18 L3585.04 1074.06 L3569.94 1074.06 L3554.84 1073.94 L3539.87 1073.81 L3524.77 1073.69 L3509.80 1073.56 L3494.70 1073.56 L3479.60 1073.44 L3464.63 1073.32 L3449.53 1073.19 L3434.43 1073.07 L3419.46 1072.95 L3404.36 1072.70 L3389.26 1072.57 L3374.29 1072.45 L3359.19 1072.33 L3344.22 1072.08 L3329.12 1071.96 L3314.03 1071.83 L3299.05 1071.58 L3283.95 1071.34 L3268.86 1071.21 L3253.88 1070.97 L3238.78 1070.72 L3223.81 1070.47 L3208.71 1070.22 L3193.62 1069.98 L3178.64 1069.73 L3163.55 1069.36 L3148.45 1069.11 L3133.47 1068.74 L3118.38 1068.49 L3103.28 1068.12 L3088.30 1067.75 L3073.21 1067.38 L3058.23 1067.01 L3043.14 1066.51 L3028.04 1066.14 L3013.07 1065.64 L2997.97 1065.15 L2982.87 1064.65 L2967.90 1064.16 L2952.80 1063.66 L2937.82 1063.05 L2922.73 1062.43 L2907.63 1061.93 L2892.66 1061.19 L2877.56 1060.57 L2862.46 1059.83 L2847.49 1059.21 L2832.39 1058.47 L2817.29 1057.60 L2802.32 1056.86 L2787.22 1055.99 L2772.25 1055.13 L2757.15 1054.14 L2742.05 1053.27 L2727.08 1052.28 L2711.98 1051.17 L2696.88 1050.18 L2681.91 1049.06 L2666.81 1047.95 L2651.84 1046.71 L2636.74 1045.47 L2621.64 1044.24 L2606.67 1042.87 L2591.57 1041.51 L2576.47 1040.03 L2561.50 1038.54 L2546.40 1037.06 L2531.31 1035.45 L2516.33 1033.72 L2501.24 1031.98 L2486.26 1030.25 L2471.16 1028.39 L2456.07 1026.54 L2441.09 1024.56 L2425.99 1022.45 L2410.90 1020.35 L2395.92 1018.25 L2380.83 1015.90 L2365.85 1013.54 L2350.76 1011.19 L2335.66 1008.59 L2320.68 1006.00 L2305.59 1003.40 L2290.49 1000.55 L2275.51 997.70 L2260.42 994.73 L2245.32 991.64 L2230.35 988.55 L2215.25 985.20 L2200.28 981.86 L2185.18 978.40 L2170.08 974.81 L2155.11 971.10 L2140.01 967.14 L2124.91 963.18 L2109.94 959.09 L2094.84 954.88 L2079.87 950.55 L2064.77 946.10 L2049.67 941.40 L2034.70 936.69 L2019.60 931.74 L2004.50 926.67 L1989.53 921.35 L1974.43 916.03 L1959.46 910.46 L1944.36 904.76 L1929.26 898.82 L1914.29 892.76 L1899.19 886.45 L1884.09 880.01 L1869.12 873.45 L1854.02 866.52 L1838.92 859.59 L1823.95 852.29 L1808.85 844.99 L1793.88 837.32 L1778.78 829.52 L1763.68 821.48 L1748.71 813.19 L1733.61 804.65 L1718.52 795.98 L1703.54 786.95 L1688.44 777.79 L1673.47 768.39 L1658.37 758.73 L1643.28 748.83 L1628.30 738.69 L1613.20 728.42 L1598.11 717.77 L1583.13 706.88 L1568.04 695.87 L1552.94 684.48 L1537.96 672.97 L1522.87 661.09 L1507.89 649.09 L1492.80 636.84 L1477.70 624.34 L1462.72 611.59 L1447.63 598.60 L1432.53 585.48 L1417.56 572.11 L1402.46 558.62 L1387.48 544.89 L1372.39 531.03 L1357.29 517.04 L1342.32 502.94 L1327.22 488.70 L1312.12 474.35 L1297.15 460.12 L1282.05 445.76 L1266.95 431.41 L1251.98 417.17 L1236.88 403.07 L1221.91 389.08 L1206.81 375.10 L1191.71 361.49 L1176.74 348.00 L1161.64 334.88 L1146.54 322.01 L1131.57 309.38 L1116.47 297.26 L1101.50 285.50 L1086.40 274.24 L1071.30 263.35 L1056.33 253.08 L1041.23 243.30 L1026.13 234.14 L1011.16 225.48 L996.06 217.44 L980.97 210.01 L965.99 203.20 L950.89 197.02 L935.92 191.57 L920.82 186.62 L905.73 182.29 L890.75 178.58 L875.65 175.36 L860.56 172.64 L845.58 170.41 L830.49 168.68 L815.51 167.32 L800.41 166.20 L785.32 165.46 L770.34 164.96 L755.25 164.59 L740.15 164.35 L725.17 164.22 L710.08 164.22 L694.98 164.22 L680.01 164.22 L664.91 164.22 L649.93 164.22 L634.84 164.22 L619.74 164.22 L619.74 164.22 Z" stroke-linejoin="round"/>
	</defs>
	<defs>
		<clipPath id="clipPath_QbkwgPPq">
			<use xlink:href="#path_EhIispPU"/>
		</clipPath>
	</defs>
	<use xlink:href="#path_EhIispPU" style="stroke:none;fill:#FF3333;fill-opacity:0.25"/>
	<use xlink:href="#path_EhIispPU" style="fill:none;stroke:#FF0000;stroke-opacity:0.25;stroke-width:17.28" clip-path="url(#clipPath_QbkwgPPq)"/>
	<path d=" M619.74 164.22 L634.71 164.22 L649.81 164.22 L664.91 164.22 L679.88 164.22 L694.98 164.22 L710.08 164.35 L725.05 164.47 L740.15 164.72 L755.25 165.09 L770.22 165.83 L785.32 166.82 L800.29 168.31 L815.39 170.29 L830.49 172.76 L845.46 175.98 L860.56 180.06 L875.65 184.76 L890.63 190.58 L905.73 197.26 L920.70 204.81 L935.80 213.60 L950.89 223.25 L965.87 234.14 L980.97 246.02 L996.06 258.89 L1011.04 272.88 L1026.13 287.98 L1041.23 303.94 L1056.21 320.89 L1071.30 338.84 L1086.28 357.52 L1101.38 377.08 L1116.47 397.37 L1131.45 418.41 L1146.54 440.07 L1161.64 462.34 L1176.62 485.12 L1191.71 508.38 L1206.69 532.02 L1221.78 555.90 L1236.88 580.16 L1251.86 604.54 L1266.95 629.16 L1282.05 653.79 L1297.02 678.54 L1312.12 703.29 L1327.22 727.92 L1342.19 752.42 L1357.29 776.80 L1372.26 800.94 L1387.36 824.94 L1402.46 848.58 L1417.43 871.97 L1432.53 894.99 L1447.63 917.76 L1462.60 940.16 L1477.70 962.06 L1492.67 983.72 L1507.77 1004.88 L1522.87 1025.80 L1537.84 1046.09 L1552.94 1066.14 L1568.04 1085.82 L1583.01 1105.00 L1598.11 1123.69 L1613.08 1142.00 L1628.18 1159.94 L1643.28 1177.52 L1658.25 1194.60 L1673.35 1211.30 L1688.44 1227.51 L1703.42 1243.48 L1718.52 1258.95 L1733.61 1274.05 L1748.59 1288.77 L1763.68 1303.00 L1778.66 1316.99 L1793.76 1330.60 L1808.85 1343.72 L1823.83 1356.59 L1838.92 1369.09 L1854.02 1381.22 L1869.00 1393.10 L1884.09 1404.61 L1899.07 1415.74 L1914.16 1426.51 L1929.26 1437.03 L1944.24 1447.30 L1959.33 1457.20 L1974.43 1466.85 L1989.40 1476.26 L2004.50 1485.29 L2019.60 1494.08 L2034.57 1502.62 L2049.67 1510.91 L2064.64 1518.95 L2079.74 1526.75 L2094.84 1534.30 L2109.81 1541.60 L2124.91 1548.78 L2140.01 1555.59 L2154.98 1562.27 L2170.08 1568.70 L2185.05 1575.02 L2200.15 1581.08 L2215.25 1586.90 L2230.22 1592.59 L2245.32 1598.03 L2260.42 1603.36 L2275.39 1608.55 L2290.49 1613.50 L2305.59 1618.33 L2320.56 1623.03 L2335.66 1627.49 L2350.63 1631.82 L2365.73 1636.03 L2380.83 1640.11 L2395.80 1644.07 L2410.90 1647.91 L2425.99 1651.50 L2440.97 1655.08 L2456.07 1658.55 L2471.04 1661.77 L2486.14 1664.98 L2501.24 1668.08 L2516.21 1671.05 L2531.31 1673.89 L2546.40 1676.74 L2561.38 1679.34 L2576.47 1681.94 L2591.57 1684.41 L2606.55 1686.89 L2621.64 1689.12 L2636.62 1691.34 L2651.72 1693.57 L2666.81 1695.68 L2681.79 1697.66 L2696.88 1699.51 L2711.98 1701.37 L2726.95 1703.10 L2742.05 1704.83 L2757.03 1706.57 L2772.12 1708.05 L2787.22 1709.66 L2802.20 1711.02 L2817.29 1712.51 L2832.39 1713.87 L2847.36 1715.10 L2862.46 1716.34 L2877.56 1717.58 L2892.53 1718.69 L2907.63 1719.81 L2922.60 1720.92 L2937.70 1721.91 L2952.80 1722.90 L2967.77 1723.77 L2982.87 1724.76 L2997.97 1725.62 L3012.94 1726.37 L3028.04 1727.23 L3043.01 1727.98 L3058.11 1728.72 L3073.21 1729.34 L3088.18 1729.96 L3103.28 1730.70 L3118.38 1731.19 L3133.35 1731.81 L3148.45 1732.43 L3163.42 1732.93 L3178.52 1733.42 L3193.62 1733.92 L3208.59 1734.41 L3223.69 1734.78 L3238.78 1735.15 L3253.76 1735.65 L3268.86 1736.02 L3283.95 1736.39 L3298.93 1736.76 L3314.03 1737.01 L3329.00 1737.38 L3344.10 1737.63 L3359.19 1738.00 L3374.17 1738.25 L3389.26 1738.49 L3404.36 1738.74 L3419.34 1738.99 L3434.43 1739.24 L3449.41 1739.36 L3464.51 1739.61 L3479.60 1739.86 L3494.58 1739.98 L3509.67 1740.23 L3524.77 1740.35 L3539.74 1740.60 L3554.84 1740.72 L3569.94 1740.85 L3584.91 1741.09 L3600.01 1741.22 L3614.99 1741.34 L3630.08 1741.46 L3645.18 1741.59 L3660.15 1741.71 L3675.25 1741.84 L3690.35 1741.96 L3705.32 1742.21 L3720.42 1742.33 L3735.39 1742.45 L3750.49 1742.58 L3765.59 1742.70 L3780.56 1742.83 L3795.66 1742.95" stroke-linejoin="round" style="fill:none;stroke:#FF0000;stroke-width:8.64"/>
	<line x1="556.38" y1="2489.19" x2="556.38" y2="100.86" style="stroke:#000000;stroke-width:5.76"/>
	<line x1="556.38" y1="2425.82" x2="516.41" y2="2425.82" style="stroke:#000000;stroke-width:5.76"/>
	<text x="496.49" y="2460.85" style="font-family:'Helvetica';font-size:99.99px;fill:#000000" text-anchor="end">-0.20</text>
	<line x1="556.38" y1="1860.39" x2="516.41" y2="1860.39" style="stroke:#000000;stroke-width:5.76"/>
	<text x="496.49" y="1895.42" style="font-family:'Helvetica';font-size:99.99px;fill:#000000" text-anchor="end">-0.15</text>
	<line x1="556.38" y1="1294.96" x2="516.41" y2="1294.96" style="stroke:#000000;stroke-width:5.76"/>
	<text x="496.49" y="1329.99" style="font-family:'Helvetica';font-size:99.99px;fill:#000000" text-anchor="end">-0.10</text>
	<line x1="556.38" y1="729.53" x2="516.41" y2="729.53" style="stroke:#000000;stroke-width:5.76"/>
	<text x="496.49" y="764.56" style="font-family:'Helvetica';font-size:99.99px;fill:#000000" text-anchor="end">-0.05</text>
	<line x1="556.38" y1="164.22" x2="516.41" y2="164.22" style="stroke:#000000;stroke-width:5.76"/>
	<text x="496.49" y="199.25" style="font-family:'Helvetica';font-size:99.99px;fill:#000000" text-anchor="end">0.00</text>
	<text x="190.71" y="1294.96" style="font-family:'Helvetica';font-size:99.99px;fill:#000000" transform="rotate(-90 190.71,1294.96)" text-anchor="middle">Difference in curves (%)</text>
	<line x1="556.38" y1="2489.19" x2="3859.02" y2="2489.19" style="stroke:#000000;stroke-width:5.76"/>
	<line x1="619.74" y1="2489.19" x2="619.74" y2="2529.16" style="stroke:#000000;stroke-width:5.76"/>
	<text x="619.74" y="2619.14" style="font-family:'Helvetica';font-size:99.99px;fill:#000000" text-anchor="middle">0</text>
	<line x1="1372.39" y1="2489.19" x2="1372.39" y2="2529.16" style="stroke:#000000;stroke-width:5.76"/>
	<text x="1372.39" y="2619.14" style="font-family:'Helvetica';font-size:99.99px;fill:#000000" text-anchor="middle">50</text>
	<line x1="2124.91" y1="2489.19" x2="2124.91" y2="2529.16" style="stroke:#000000;stroke-width:5.76"/>
	<text x="2124.91" y="2619.14" style="font-family:'Helvetica';font-size:99.99px;fill:#000000" text-anchor="middle">100</text>
	<line x1="2877.56" y1="2489.19" x2="2877.56" y2="2529.16" style="stroke:#000000;stroke-width:5.76"/>
	<text x="2877.56" y="2619.14" style="font-family:'Helvetica';font-size:99.99px;fill:#000000" text-anchor="middle">150</text>
	<line x1="3630.21" y1="2489.19" x2="3630.21" y2="2529.16" style="stroke:#000000;stroke-width:5.76"/>
	<text x="3630.21" y="2619.14" style="font-family:'Helvetica';font-size:99.99px;fill:#000000" text-anchor="middle">200</text>
	<text x="2207.70" y="2729.16" style="font-family:'Helvetica';font-size:99.99px;fill:#000000" text-anchor="middle">Days from 1 March 2020</text>
</svg>
