<?xml version="1.0" encoding="UTF-8" standalone="no"?>
<!-- This is a Stata 16.1 generated SVG file (http://www.stata.com) -->

<svg version="1.1" width="5.50in" height="4.00in" viewBox="0 0 3960 2880" xmlns="http://www.w3.org/2000/svg" xmlns:xlink="http://www.w3.org/1999/xlink">
	<desc>Stata Graph - Graph</desc>
	<rect x="0" y="0" width="3960" height="2880" style="fill:#EAF2F3;stroke:none"/>
	<rect x="0.00" y="0.00" width="3959.88" height="2880.00" style="fill:#EAF2F3"/>
	<rect x="2.88" y="2.88" width="3954.12" height="2874.24" style="fill:none;stroke:#EAF2F3;stroke-width:5.76"/>
	<rect x="556.38" y="100.86" width="3302.64" height="2388.33" style="fill:#FFFFFF"/>
	<rect x="559.26" y="103.74" width="3296.88" height="2382.57" style="fill:none;stroke:#FFFFFF;stroke-width:5.76"/>
	<line x1="556.38" y1="2425.82" x2="3859.02" y2="2425.82" style="stroke:#EAF2F3;stroke-width:8.64"/>
	<line x1="556.38" y1="1860.39" x2="3859.02" y2="1860.39" style="stroke:#EAF2F3;stroke-width:8.64"/>
	<line x1="556.38" y1="1294.96" x2="3859.02" y2="1294.96" style="stroke:#EAF2F3;stroke-width:8.64"/>
	<line x1="556.38" y1="729.53" x2="3859.02" y2="729.53" style="stroke:#EAF2F3;stroke-width:8.64"/>
	<line x1="556.38" y1="164.22" x2="3859.02" y2="164.22" style="stroke:#EAF2F3;stroke-width:8.64"/>
	<defs>
		<path id="path_ZsWEPsJr" d="M619.74 164.22 L619.74 164.22 L634.84 164.22 L649.93 164.22 L664.91 164.35 L680.01 164.96 L694.98 166.08 L710.08 168.31 L725.17 171.52 L740.15 176.35 L755.25 182.66 L770.34 190.83 L785.32 200.73 L800.41 212.73 L815.51 226.59 L830.49 242.43 L845.58 260.25 L860.56 279.81 L875.65 301.22 L890.75 324.36 L905.73 348.99 L920.82 374.97 L935.92 402.45 L950.89 431.03 L965.99 460.74 L980.97 491.43 L996.06 522.86 L1011.16 555.04 L1026.13 587.83 L1041.23 621.12 L1056.33 654.78 L1071.30 688.69 L1086.40 722.72 L1101.50 756.88 L1116.47 791.03 L1131.57 825.07 L1146.54 858.98 L1161.64 892.64 L1176.74 925.93 L1191.71 958.97 L1206.81 991.52 L1221.91 1023.69 L1236.88 1055.25 L1251.98 1086.31 L1266.95 1116.88 L1282.05 1146.83 L1297.15 1176.16 L1312.12 1204.74 L1327.22 1232.84 L1342.32 1260.31 L1357.29 1287.16 L1372.39 1313.40 L1387.48 1339.02 L1402.46 1363.89 L1417.56 1388.27 L1432.53 1412.03 L1447.63 1435.17 L1462.72 1457.82 L1477.70 1479.85 L1492.80 1501.26 L1507.89 1522.05 L1522.87 1542.47 L1537.96 1562.15 L1552.94 1581.45 L1568.04 1600.14 L1583.13 1618.33 L1598.11 1636.15 L1613.20 1653.35 L1628.30 1670.18 L1643.28 1686.39 L1658.37 1702.23 L1673.47 1717.70 L1688.44 1732.68 L1703.54 1747.28 L1718.52 1761.39 L1733.61 1775.13 L1748.71 1788.61 L1763.68 1801.61 L1778.78 1814.23 L1793.88 1826.48 L1808.85 1838.36 L1823.95 1850.00 L1838.92 1861.26 L1854.02 1872.27 L1869.12 1882.79 L1884.09 1893.19 L1899.19 1903.21 L1914.29 1912.99 L1929.26 1922.52 L1944.36 1931.67 L1959.46 1940.58 L1974.43 1949.25 L1989.53 1957.79 L2004.50 1965.95 L2019.60 1973.87 L2034.70 1981.67 L2049.67 1989.22 L2064.77 1996.52 L2079.87 2003.58 L2094.84 2010.51 L2109.94 2017.19 L2124.91 2023.75 L2140.01 2030.06 L2155.11 2036.25 L2170.08 2042.19 L2185.18 2048.00 L2200.28 2053.70 L2215.25 2059.14 L2230.35 2064.46 L2245.32 2069.66 L2260.42 2074.73 L2275.51 2079.56 L2290.49 2084.39 L2305.59 2088.97 L2320.68 2093.54 L2335.66 2097.88 L2350.76 2102.08 L2365.85 2106.29 L2380.83 2110.25 L2395.92 2114.21 L2410.90 2117.92 L2425.99 2121.64 L2441.09 2125.23 L2456.07 2128.69 L2471.16 2132.16 L2486.26 2135.37 L2501.24 2138.59 L2516.33 2141.68 L2531.31 2144.78 L2546.40 2147.75 L2561.50 2150.59 L2576.47 2153.32 L2591.57 2156.04 L2606.67 2158.76 L2621.64 2161.36 L2636.74 2163.84 L2651.84 2166.19 L2666.81 2168.66 L2681.91 2170.89 L2696.88 2173.12 L2711.98 2175.35 L2727.08 2177.45 L2742.05 2179.55 L2757.15 2181.53 L2772.25 2183.51 L2787.22 2185.49 L2802.32 2187.35 L2817.29 2189.08 L2832.39 2190.94 L2847.49 2192.67 L2862.46 2194.28 L2877.56 2196.01 L2892.66 2197.50 L2907.63 2199.11 L2922.73 2200.59 L2937.82 2202.08 L2952.80 2203.56 L2967.90 2204.92 L2982.87 2206.41 L2997.97 2207.65 L3013.07 2209.01 L3028.04 2210.24 L3043.14 2211.48 L3058.23 2212.72 L3073.21 2213.96 L3088.30 2215.07 L3103.28 2216.31 L3118.38 2217.42 L3133.47 2218.54 L3148.45 2219.53 L3163.55 2220.64 L3178.64 2221.63 L3193.62 2222.62 L3208.71 2223.61 L3223.81 2224.60 L3238.78 2225.47 L3253.88 2226.46 L3268.86 2227.32 L3283.95 2228.31 L3299.05 2229.18 L3314.03 2230.04 L3329.12 2230.79 L3344.22 2231.65 L3359.19 2232.52 L3374.29 2233.26 L3389.26 2234.00 L3404.36 2234.87 L3419.46 2235.61 L3434.43 2236.36 L3449.53 2237.10 L3464.63 2237.84 L3479.60 2238.58 L3494.70 2239.33 L3509.80 2239.94 L3524.77 2240.69 L3539.87 2241.31 L3554.84 2242.05 L3569.94 2242.67 L3585.04 2243.41 L3600.01 2244.03 L3615.11 2244.65 L3630.21 2245.27 L3645.18 2245.89 L3660.28 2246.63 L3675.25 2247.25 L3690.35 2247.87 L3705.45 2248.48 L3720.42 2249.10 L3735.52 2249.60 L3750.61 2250.22 L3765.59 2250.84 L3780.69 2251.45 L3795.66 2252.07 L3795.66 863.80 L3780.69 863.68 L3765.59 863.43 L3750.61 863.31 L3735.52 863.06 L3720.42 862.81 L3705.45 862.69 L3690.35 862.44 L3675.25 862.19 L3660.28 862.07 L3645.18 861.82 L3630.21 861.57 L3615.11 861.45 L3600.01 861.20 L3585.04 860.96 L3569.94 860.71 L3554.84 860.46 L3539.87 860.34 L3524.77 860.09 L3509.80 859.84 L3494.70 859.59 L3479.60 859.35 L3464.63 859.10 L3449.53 858.85 L3434.43 858.60 L3419.46 858.36 L3404.36 858.11 L3389.26 857.86 L3374.29 857.61 L3359.19 857.37 L3344.22 857.00 L3329.12 856.75 L3314.03 856.50 L3299.05 856.13 L3283.95 855.88 L3268.86 855.63 L3253.88 855.26 L3238.78 855.02 L3223.81 854.64 L3208.71 854.40 L3193.62 854.03 L3178.64 853.65 L3163.55 853.28 L3148.45 853.04 L3133.47 852.66 L3118.38 852.29 L3103.28 851.92 L3088.30 851.55 L3073.21 851.06 L3058.23 850.68 L3043.14 850.31 L3028.04 849.82 L3013.07 849.45 L2997.97 848.95 L2982.87 848.58 L2967.90 848.09 L2952.80 847.59 L2937.82 847.10 L2922.73 846.60 L2907.63 846.11 L2892.66 845.61 L2877.56 845.12 L2862.46 844.50 L2847.49 844.00 L2832.39 843.38 L2817.29 842.76 L2802.32 842.15 L2787.22 841.53 L2772.25 840.91 L2757.15 840.29 L2742.05 839.55 L2727.08 838.93 L2711.98 838.18 L2696.88 837.44 L2681.91 836.70 L2666.81 835.96 L2651.84 835.09 L2636.74 834.35 L2621.64 833.48 L2606.67 832.62 L2591.57 831.75 L2576.47 830.76 L2561.50 829.89 L2546.40 828.90 L2531.31 827.91 L2516.33 826.92 L2501.24 825.81 L2486.26 824.82 L2471.16 823.71 L2456.07 822.47 L2441.09 821.35 L2425.99 820.12 L2410.90 818.88 L2395.92 817.64 L2380.83 816.28 L2365.85 815.04 L2350.76 813.56 L2335.66 812.20 L2320.68 810.71 L2305.59 809.23 L2290.49 807.62 L2275.51 806.01 L2260.42 804.40 L2245.32 802.79 L2230.35 800.94 L2215.25 799.20 L2200.28 797.35 L2185.18 795.49 L2170.08 793.51 L2155.11 791.53 L2140.01 789.43 L2124.91 787.32 L2109.94 785.09 L2094.84 782.87 L2079.87 780.64 L2064.77 778.16 L2049.67 775.81 L2034.70 773.21 L2019.60 770.62 L2004.50 768.02 L1989.53 765.17 L1974.43 762.32 L1959.46 759.48 L1944.36 756.51 L1929.26 753.41 L1914.29 750.20 L1899.19 746.98 L1884.09 743.51 L1869.12 740.05 L1854.02 736.58 L1838.92 732.87 L1823.95 729.03 L1808.85 725.20 L1793.88 721.24 L1778.78 717.03 L1763.68 712.82 L1748.71 708.49 L1733.61 704.04 L1718.52 699.33 L1703.54 694.63 L1688.44 689.68 L1673.47 684.73 L1658.37 679.53 L1643.28 674.21 L1628.30 668.77 L1613.20 663.07 L1598.11 657.38 L1583.13 651.44 L1568.04 645.25 L1552.94 638.94 L1537.96 632.51 L1522.87 625.95 L1507.89 619.02 L1492.80 612.09 L1477.70 604.91 L1462.72 597.48 L1447.63 589.93 L1432.53 582.14 L1417.56 574.09 L1402.46 565.93 L1387.48 557.51 L1372.39 548.97 L1357.29 540.19 L1342.32 531.15 L1327.22 521.87 L1312.12 512.46 L1297.15 502.81 L1282.05 492.91 L1266.95 482.89 L1251.98 472.62 L1236.88 462.22 L1221.91 451.58 L1206.81 440.69 L1191.71 429.80 L1176.74 418.66 L1161.64 407.40 L1146.54 396.14 L1131.57 384.75 L1116.47 373.24 L1101.50 361.73 L1086.40 350.22 L1071.30 338.84 L1056.33 327.33 L1041.23 316.07 L1026.13 304.81 L1011.16 293.79 L996.06 283.03 L980.97 272.38 L965.99 262.11 L950.89 252.21 L935.92 242.56 L920.82 233.40 L905.73 224.61 L890.75 216.45 L875.65 208.77 L860.56 201.60 L845.58 195.16 L830.49 189.22 L815.51 184.02 L800.41 179.44 L785.32 175.61 L770.34 172.39 L755.25 169.79 L740.15 167.81 L725.17 166.33 L710.08 165.34 L694.98 164.72 L680.01 164.35 L664.91 164.22 L649.93 164.22 L634.84 164.22 L619.74 164.22 L619.74 164.22 Z" stroke-linejoin="round"/>
	</defs>
	<defs>
		<clipPath id="clipPath_DyUkzihw">
			<use xlink:href="#path_ZsWEPsJr"/>
		</clipPath>
	</defs>
	<use xlink:href="#path_ZsWEPsJr" style="stroke:none;fill:#FF3333;fill-opacity:0.25"/>
	<use xlink:href="#path_ZsWEPsJr" style="fill:none;stroke:#FF0000;stroke-opacity:0.25;stroke-width:17.28" clip-path="url(#clipPath_DyUkzihw)"/>
	<path d=" M619.74 164.22 L634.71 164.22 L649.81 164.22 L664.91 164.35 L679.88 164.72 L694.98 165.46 L710.08 166.82 L725.05 169.05 L740.15 172.14 L755.25 176.23 L770.22 181.67 L785.32 188.23 L800.29 196.15 L815.39 205.43 L830.49 215.95 L845.46 227.71 L860.56 240.83 L875.65 255.06 L890.63 270.40 L905.73 286.86 L920.70 304.31 L935.80 322.63 L950.89 341.68 L965.87 361.49 L980.97 382.03 L996.06 403.07 L1011.04 424.48 L1026.13 446.38 L1041.23 468.66 L1056.21 491.18 L1071.30 513.83 L1086.28 536.60 L1101.38 559.37 L1116.47 582.14 L1131.45 604.91 L1146.54 627.56 L1161.64 650.08 L1176.62 672.35 L1191.71 694.38 L1206.69 716.16 L1221.78 737.70 L1236.88 758.73 L1251.86 779.53 L1266.95 799.94 L1282.05 819.99 L1297.02 839.55 L1312.12 858.73 L1327.22 877.41 L1342.19 895.73 L1357.29 913.67 L1372.26 931.25 L1387.36 948.33 L1402.46 965.03 L1417.43 981.24 L1432.53 997.21 L1447.63 1012.68 L1462.60 1027.65 L1477.70 1042.38 L1492.67 1056.73 L1507.77 1070.59 L1522.87 1084.21 L1537.84 1097.45 L1552.94 1110.32 L1568.04 1122.82 L1583.01 1134.95 L1598.11 1146.83 L1613.08 1158.34 L1628.18 1169.47 L1643.28 1180.36 L1658.25 1191.01 L1673.35 1201.28 L1688.44 1211.30 L1703.42 1220.96 L1718.52 1230.48 L1733.61 1239.64 L1748.59 1248.55 L1763.68 1257.22 L1778.66 1265.75 L1793.76 1273.92 L1808.85 1281.84 L1823.83 1289.64 L1838.92 1297.19 L1854.02 1304.49 L1869.00 1311.54 L1884.09 1318.47 L1899.07 1325.16 L1914.16 1331.59 L1929.26 1338.03 L1944.24 1344.09 L1959.33 1350.15 L1974.43 1355.85 L1989.40 1361.54 L2004.50 1366.99 L2019.60 1372.31 L2034.57 1377.50 L2049.67 1382.58 L2064.64 1387.40 L2079.74 1392.23 L2094.84 1396.81 L2109.81 1401.27 L2124.91 1405.60 L2140.01 1409.80 L2154.98 1413.89 L2170.08 1417.97 L2185.05 1421.81 L2200.15 1425.64 L2215.25 1429.23 L2230.22 1432.82 L2245.32 1436.29 L2260.42 1439.63 L2275.39 1442.85 L2290.49 1446.06 L2305.59 1449.16 L2320.56 1452.13 L2335.66 1455.10 L2350.63 1457.94 L2365.73 1460.67 L2380.83 1463.39 L2395.80 1465.99 L2410.90 1468.46 L2425.99 1470.94 L2440.97 1473.41 L2456.07 1475.64 L2471.04 1477.99 L2486.14 1480.10 L2501.24 1482.32 L2516.21 1484.43 L2531.31 1486.41 L2546.40 1488.39 L2561.38 1490.24 L2576.47 1492.10 L2591.57 1493.96 L2606.55 1495.69 L2621.64 1497.42 L2636.62 1499.15 L2651.72 1500.76 L2666.81 1502.37 L2681.79 1503.86 L2696.88 1505.34 L2711.98 1506.83 L2726.95 1508.19 L2742.05 1509.67 L2757.03 1510.91 L2772.12 1512.27 L2787.22 1513.51 L2802.20 1514.75 L2817.29 1515.98 L2832.39 1517.22 L2847.36 1518.34 L2862.46 1519.45 L2877.56 1520.56 L2892.53 1521.68 L2907.63 1522.67 L2922.60 1523.66 L2937.70 1524.65 L2952.80 1525.64 L2967.77 1526.63 L2982.87 1527.49 L2997.97 1528.36 L3012.94 1529.23 L3028.04 1530.09 L3043.01 1530.96 L3058.11 1531.83 L3073.21 1532.57 L3088.18 1533.43 L3103.28 1534.18 L3118.38 1534.92 L3133.35 1535.66 L3148.45 1536.28 L3163.42 1537.02 L3178.52 1537.77 L3193.62 1538.38 L3208.59 1539.00 L3223.69 1539.62 L3238.78 1540.36 L3253.76 1540.98 L3268.86 1541.48 L3283.95 1542.10 L3298.93 1542.72 L3314.03 1543.33 L3329.00 1543.83 L3344.10 1544.45 L3359.19 1544.94 L3374.17 1545.44 L3389.26 1546.06 L3404.36 1546.55 L3419.34 1547.05 L3434.43 1547.54 L3449.41 1548.04 L3464.51 1548.53 L3479.60 1549.03 L3494.58 1549.52 L3509.67 1549.89 L3524.77 1550.39 L3539.74 1550.88 L3554.84 1551.38 L3569.94 1551.75 L3584.91 1552.24 L3600.01 1552.62 L3614.99 1553.11 L3630.08 1553.48 L3645.18 1553.98 L3660.15 1554.35 L3675.25 1554.72 L3690.35 1555.21 L3705.32 1555.59 L3720.42 1555.96 L3735.39 1556.45 L3750.49 1556.82 L3765.59 1557.19 L3780.56 1557.57 L3795.66 1558.06" stroke-linejoin="round" style="fill:none;stroke:#FF0000;stroke-width:8.64"/>
	<line x1="556.38" y1="2489.19" x2="556.38" y2="100.86" style="stroke:#000000;stroke-width:5.76"/>
	<line x1="556.38" y1="2425.82" x2="516.41" y2="2425.82" style="stroke:#000000;stroke-width:5.76"/>
	<text x="496.49" y="2460.85" style="font-family:'Helvetica';font-size:99.99px;fill:#000000" text-anchor="end">-0.20</text>
	<line x1="556.38" y1="1860.39" x2="516.41" y2="1860.39" style="stroke:#000000;stroke-width:5.76"/>
	<text x="496.49" y="1895.42" style="font-family:'Helvetica';font-size:99.99px;fill:#000000" text-anchor="end">-0.15</text>
	<line x1="556.38" y1="1294.96" x2="516.41" y2="1294.96" style="stroke:#000000;stroke-width:5.76"/>
	<text x="496.49" y="1329.99" style="font-family:'Helvetica';font-size:99.99px;fill:#000000" text-anchor="end">-0.10</text>
	<line x1="556.38" y1="729.53" x2="516.41" y2="729.53" style="stroke:#000000;stroke-width:5.76"/>
	<text x="496.49" y="764.56" style="font-family:'Helvetica';font-size:99.99px;fill:#000000" text-anchor="end">-0.05</text>
	<line x1="556.38" y1="164.22" x2="516.41" y2="164.22" style="stroke:#000000;stroke-width:5.76"/>
	<text x="496.49" y="199.25" style="font-family:'Helvetica';font-size:99.99px;fill:#000000" text-anchor="end">0.00</text>
	<text x="190.71" y="1294.96" style="font-family:'Helvetica';font-size:99.99px;fill:#000000" transform="rotate(-90 190.71,1294.96)" text-anchor="middle">Difference in curves (%)</text>
	<line x1="556.38" y1="2489.19" x2="3859.02" y2="2489.19" style="stroke:#000000;stroke-width:5.76"/>
	<line x1="619.74" y1="2489.19" x2="619.74" y2="2529.16" style="stroke:#000000;stroke-width:5.76"/>
	<text x="619.74" y="2619.14" style="font-family:'Helvetica';font-size:99.99px;fill:#000000" text-anchor="middle">0</text>
	<line x1="1372.39" y1="2489.19" x2="1372.39" y2="2529.16" style="stroke:#000000;stroke-width:5.76"/>
	<text x="1372.39" y="2619.14" style="font-family:'Helvetica';font-size:99.99px;fill:#000000" text-anchor="middle">50</text>
	<line x1="2124.91" y1="2489.19" x2="2124.91" y2="2529.16" style="stroke:#000000;stroke-width:5.76"/>
	<text x="2124.91" y="2619.14" style="font-family:'Helvetica';font-size:99.99px;fill:#000000" text-anchor="middle">100</text>
	<line x1="2877.56" y1="2489.19" x2="2877.56" y2="2529.16" style="stroke:#000000;stroke-width:5.76"/>
	<text x="2877.56" y="2619.14" style="font-family:'Helvetica';font-size:99.99px;fill:#000000" text-anchor="middle">150</text>
	<line x1="3630.21" y1="2489.19" x2="3630.21" y2="2529.16" style="stroke:#000000;stroke-width:5.76"/>
	<text x="3630.21" y="2619.14" style="font-family:'Helvetica';font-size:99.99px;fill:#000000" text-anchor="middle">200</text>
	<text x="2207.70" y="2729.16" style="font-family:'Helvetica';font-size:99.99px;fill:#000000" text-anchor="middle">Days from 1 March 2020</text>
</svg>
