<?xml version="1.0" encoding="UTF-8" standalone="no"?>
<!-- This is a Stata 16.1 generated SVG file (http://www.stata.com) -->

<svg version="1.1" width="5.50in" height="4.00in" viewBox="0 0 3960 2880" xmlns="http://www.w3.org/2000/svg" xmlns:xlink="http://www.w3.org/1999/xlink">
	<desc>Stata Graph - Graph</desc>
	<rect x="0" y="0" width="3960" height="2880" style="fill:#EAF2F3;stroke:none"/>
	<rect x="0.00" y="0.00" width="3959.88" height="2880.00" style="fill:#EAF2F3"/>
	<rect x="2.88" y="2.88" width="3954.12" height="2874.24" style="fill:none;stroke:#EAF2F3;stroke-width:5.76"/>
	<rect x="556.38" y="100.86" width="3302.64" height="2388.33" style="fill:#FFFFFF"/>
	<rect x="559.26" y="103.74" width="3296.88" height="2382.57" style="fill:none;stroke:#FFFFFF;stroke-width:5.76"/>
	<line x1="556.38" y1="2425.82" x2="3859.02" y2="2425.82" style="stroke:#EAF2F3;stroke-width:8.64"/>
	<line x1="556.38" y1="1860.39" x2="3859.02" y2="1860.39" style="stroke:#EAF2F3;stroke-width:8.64"/>
	<line x1="556.38" y1="1294.96" x2="3859.02" y2="1294.96" style="stroke:#EAF2F3;stroke-width:8.64"/>
	<line x1="556.38" y1="729.53" x2="3859.02" y2="729.53" style="stroke:#EAF2F3;stroke-width:8.64"/>
	<line x1="556.38" y1="164.22" x2="3859.02" y2="164.22" style="stroke:#EAF2F3;stroke-width:8.64"/>
	<defs>
		<path id="path_LpPFdHRQ" d="M619.74 164.22 L619.74 164.22 L634.84 164.22 L649.93 164.22 L664.91 164.22 L680.01 164.35 L694.98 164.72 L710.08 165.34 L725.17 166.45 L740.15 168.31 L755.25 170.90 L770.34 174.37 L785.32 178.95 L800.41 184.64 L815.51 191.69 L830.49 199.99 L845.58 209.64 L860.56 220.65 L875.65 233.15 L890.75 247.01 L905.73 262.23 L920.82 278.82 L935.92 296.76 L950.89 316.07 L965.99 336.49 L980.97 358.02 L996.06 380.67 L1011.16 404.43 L1026.13 428.93 L1041.23 454.42 L1056.33 480.66 L1071.30 507.64 L1086.40 535.24 L1101.50 563.33 L1116.47 592.04 L1131.57 621.00 L1146.54 650.33 L1161.64 679.90 L1176.74 709.73 L1191.71 739.68 L1206.81 769.75 L1221.91 799.82 L1236.88 829.77 L1251.98 859.72 L1266.95 889.54 L1282.05 919.12 L1297.15 948.57 L1312.12 977.66 L1327.22 1006.49 L1342.32 1034.95 L1357.29 1063.17 L1372.39 1090.89 L1387.48 1118.24 L1402.46 1145.09 L1417.56 1171.58 L1432.53 1197.57 L1447.63 1222.94 L1462.72 1247.93 L1477.70 1272.56 L1492.80 1296.57 L1507.89 1320.08 L1522.87 1343.10 L1537.96 1365.75 L1552.94 1387.78 L1568.04 1409.43 L1583.13 1430.59 L1598.11 1451.26 L1613.20 1471.56 L1628.30 1491.23 L1643.28 1510.54 L1658.37 1529.47 L1673.47 1547.91 L1688.44 1565.86 L1703.54 1583.43 L1718.52 1600.63 L1733.61 1617.34 L1748.71 1633.80 L1763.68 1649.76 L1778.78 1665.36 L1793.88 1680.45 L1808.85 1695.30 L1823.95 1709.78 L1838.92 1723.89 L1854.02 1737.75 L1869.12 1751.12 L1884.09 1764.24 L1899.19 1777.11 L1914.29 1789.48 L1929.26 1801.73 L1944.36 1813.61 L1959.46 1825.12 L1974.43 1836.51 L1989.53 1847.40 L2004.50 1858.16 L2019.60 1868.68 L2034.70 1878.95 L2049.67 1888.86 L2064.77 1898.63 L2079.87 1908.04 L2094.84 1917.32 L2109.94 1926.35 L2124.91 1935.14 L2140.01 1943.68 L2155.11 1952.09 L2170.08 1960.26 L2185.18 1968.18 L2200.28 1975.98 L2215.25 1983.65 L2230.35 1990.95 L2245.32 1998.25 L2260.42 2005.31 L2275.51 2012.11 L2290.49 2018.92 L2305.59 2025.48 L2320.68 2031.79 L2335.66 2038.10 L2350.76 2044.17 L2365.85 2050.11 L2380.83 2055.92 L2395.92 2061.62 L2410.90 2067.18 L2425.99 2072.51 L2441.09 2077.83 L2456.07 2083.03 L2471.16 2088.10 L2486.26 2092.93 L2501.24 2097.75 L2516.33 2102.45 L2531.31 2107.03 L2546.40 2111.61 L2561.50 2115.94 L2576.47 2120.28 L2591.57 2124.48 L2606.67 2128.57 L2621.64 2132.65 L2636.74 2136.49 L2651.84 2140.32 L2666.81 2144.16 L2681.91 2147.75 L2696.88 2151.34 L2711.98 2154.93 L2727.08 2158.39 L2742.05 2161.73 L2757.15 2165.07 L2772.25 2168.29 L2787.22 2171.51 L2802.32 2174.60 L2817.29 2177.57 L2832.39 2180.54 L2847.49 2183.51 L2862.46 2186.36 L2877.56 2189.21 L2892.66 2191.93 L2907.63 2194.65 L2922.73 2197.37 L2937.82 2199.97 L2952.80 2202.45 L2967.90 2205.05 L2982.87 2207.52 L2997.97 2209.87 L3013.07 2212.22 L3028.04 2214.58 L3043.14 2216.93 L3058.23 2219.15 L3073.21 2221.38 L3088.30 2223.61 L3103.28 2225.71 L3118.38 2227.82 L3133.47 2229.92 L3148.45 2231.90 L3163.55 2234.00 L3178.64 2235.98 L3193.62 2237.84 L3208.71 2239.82 L3223.81 2241.68 L3238.78 2243.53 L3253.88 2245.39 L3268.86 2247.25 L3283.95 2249.10 L3299.05 2250.84 L3314.03 2252.57 L3329.12 2254.30 L3344.22 2256.03 L3359.19 2257.64 L3374.29 2259.37 L3389.26 2260.98 L3404.36 2262.59 L3419.46 2264.20 L3434.43 2265.81 L3449.53 2267.42 L3464.63 2269.03 L3479.60 2270.51 L3494.70 2272.00 L3509.80 2273.61 L3524.77 2275.09 L3539.87 2276.58 L3554.84 2278.06 L3569.94 2279.55 L3585.04 2280.91 L3600.01 2282.39 L3615.11 2283.88 L3630.21 2285.24 L3645.18 2286.60 L3660.28 2288.09 L3675.25 2289.45 L3690.35 2290.81 L3705.45 2292.17 L3720.42 2293.53 L3735.52 2294.89 L3750.61 2296.25 L3765.59 2297.61 L3780.69 2298.98 L3795.66 2300.34 L3795.66 1334.56 L3780.69 1333.82 L3765.59 1333.08 L3750.61 1332.33 L3735.52 1331.59 L3720.42 1330.85 L3705.45 1330.11 L3690.35 1329.36 L3675.25 1328.62 L3660.28 1327.88 L3645.18 1327.01 L3630.21 1326.27 L3615.11 1325.53 L3600.01 1324.79 L3585.04 1323.92 L3569.94 1323.18 L3554.84 1322.31 L3539.87 1321.57 L3524.77 1320.70 L3509.80 1319.96 L3494.70 1319.09 L3479.60 1318.23 L3464.63 1317.36 L3449.53 1316.49 L3434.43 1315.63 L3419.46 1314.76 L3404.36 1313.89 L3389.26 1313.03 L3374.29 1312.16 L3359.19 1311.17 L3344.22 1310.31 L3329.12 1309.32 L3314.03 1308.45 L3299.05 1307.46 L3283.95 1306.47 L3268.86 1305.48 L3253.88 1304.49 L3238.78 1303.50 L3223.81 1302.51 L3208.71 1301.40 L3193.62 1300.41 L3178.64 1299.29 L3163.55 1298.18 L3148.45 1297.06 L3133.47 1295.95 L3118.38 1294.84 L3103.28 1293.72 L3088.30 1292.49 L3073.21 1291.37 L3058.23 1290.13 L3043.14 1288.90 L3028.04 1287.66 L3013.07 1286.30 L2997.97 1285.06 L2982.87 1283.70 L2967.90 1282.34 L2952.80 1280.98 L2937.82 1279.61 L2922.73 1278.13 L2907.63 1276.77 L2892.66 1275.28 L2877.56 1273.67 L2862.46 1272.19 L2847.49 1270.58 L2832.39 1268.97 L2817.29 1267.36 L2802.32 1265.75 L2787.22 1264.02 L2772.25 1262.29 L2757.15 1260.43 L2742.05 1258.70 L2727.08 1256.84 L2711.98 1254.99 L2696.88 1253.01 L2681.91 1251.03 L2666.81 1249.05 L2651.84 1246.94 L2636.74 1244.84 L2621.64 1242.74 L2606.67 1240.51 L2591.57 1238.28 L2576.47 1235.93 L2561.50 1233.58 L2546.40 1231.23 L2531.31 1228.75 L2516.33 1226.28 L2501.24 1223.68 L2486.26 1220.96 L2471.16 1218.36 L2456.07 1215.51 L2441.09 1212.66 L2425.99 1209.82 L2410.90 1206.85 L2395.92 1203.88 L2380.83 1200.66 L2365.85 1197.57 L2350.76 1194.22 L2335.66 1190.88 L2320.68 1187.54 L2305.59 1183.95 L2290.49 1180.36 L2275.51 1176.78 L2260.42 1172.94 L2245.32 1169.10 L2230.35 1165.14 L2215.25 1161.06 L2200.28 1156.97 L2185.18 1152.64 L2170.08 1148.31 L2155.11 1143.86 L2140.01 1139.28 L2124.91 1134.58 L2109.94 1129.75 L2094.84 1124.80 L2079.87 1119.72 L2064.77 1114.53 L2049.67 1109.21 L2034.70 1103.76 L2019.60 1098.19 L2004.50 1092.38 L1989.53 1086.56 L1974.43 1080.50 L1959.46 1074.31 L1944.36 1068.00 L1929.26 1061.44 L1914.29 1054.75 L1899.19 1047.95 L1884.09 1040.89 L1869.12 1033.72 L1854.02 1026.41 L1838.92 1018.87 L1823.95 1011.07 L1808.85 1003.15 L1793.88 995.10 L1778.78 986.69 L1763.68 978.15 L1748.71 969.36 L1733.61 960.45 L1718.52 951.30 L1703.54 941.89 L1688.44 932.24 L1673.47 922.34 L1658.37 912.19 L1643.28 901.92 L1628.30 891.28 L1613.20 880.51 L1598.11 869.37 L1583.13 857.99 L1568.04 846.48 L1552.94 834.60 L1537.96 822.47 L1522.87 810.09 L1507.89 797.35 L1492.80 784.48 L1477.70 771.23 L1462.72 757.87 L1447.63 744.13 L1432.53 730.15 L1417.56 715.79 L1402.46 701.31 L1387.48 686.59 L1372.39 671.49 L1357.29 656.27 L1342.32 640.80 L1327.22 625.20 L1312.12 609.36 L1297.15 593.28 L1282.05 577.19 L1266.95 560.85 L1251.98 544.52 L1236.88 528.06 L1221.91 511.47 L1206.81 495.02 L1191.71 478.43 L1176.74 461.97 L1161.64 445.64 L1146.54 429.30 L1131.57 413.21 L1116.47 397.25 L1101.50 381.53 L1086.40 366.06 L1071.30 350.84 L1056.33 335.99 L1041.23 321.64 L1026.13 307.65 L1011.16 294.16 L996.06 281.17 L980.97 268.67 L965.99 256.91 L950.89 245.78 L935.92 235.26 L920.82 225.48 L905.73 216.45 L890.75 208.15 L875.65 200.61 L860.56 193.80 L845.58 187.86 L830.49 182.78 L815.51 178.33 L800.41 174.62 L785.32 171.65 L770.34 169.30 L755.25 167.44 L740.15 166.20 L725.17 165.21 L710.08 164.72 L694.98 164.35 L680.01 164.22 L664.91 164.22 L649.93 164.22 L634.84 164.22 L619.74 164.22 L619.74 164.22 Z" stroke-linejoin="round"/>
	</defs>
	<defs>
		<clipPath id="clipPath_CKPmaMQT">
			<use xlink:href="#path_LpPFdHRQ"/>
		</clipPath>
	</defs>
	<use xlink:href="#path_LpPFdHRQ" style="stroke:none;fill:#FF3333;fill-opacity:0.25"/>
	<use xlink:href="#path_LpPFdHRQ" style="fill:none;stroke:#FF0000;stroke-opacity:0.25;stroke-width:17.28" clip-path="url(#clipPath_CKPmaMQT)"/>
	<path d=" M619.74 164.22 L634.71 164.22 L649.81 164.22 L664.91 164.22 L679.88 164.35 L694.98 164.59 L710.08 165.09 L725.05 165.95 L740.15 167.32 L755.25 169.17 L770.22 171.89 L785.32 175.36 L800.29 179.69 L815.39 185.01 L830.49 191.45 L845.46 198.75 L860.56 207.29 L875.65 216.94 L890.63 227.58 L905.73 239.34 L920.70 252.21 L935.80 266.07 L950.89 280.92 L965.87 296.76 L980.97 313.47 L996.06 331.04 L1011.04 349.36 L1026.13 368.42 L1041.23 388.09 L1056.21 408.39 L1071.30 429.30 L1086.28 450.71 L1101.38 472.49 L1116.47 494.64 L1131.45 517.17 L1146.54 539.94 L1161.64 562.83 L1176.62 585.97 L1191.71 609.12 L1206.69 632.38 L1221.78 655.77 L1236.88 679.04 L1251.86 702.18 L1266.95 725.20 L1282.05 748.22 L1297.02 770.99 L1312.12 793.51 L1327.22 815.91 L1342.19 837.94 L1357.29 859.72 L1372.26 881.25 L1387.36 902.41 L1402.46 923.33 L1417.43 943.75 L1432.53 963.92 L1447.63 983.60 L1462.60 1003.03 L1477.70 1021.96 L1492.67 1040.52 L1507.77 1058.84 L1522.87 1076.66 L1537.84 1094.11 L1552.94 1111.31 L1568.04 1128.02 L1583.01 1144.35 L1598.11 1160.44 L1613.08 1176.03 L1628.18 1191.38 L1643.28 1206.35 L1658.25 1220.96 L1673.35 1235.19 L1688.44 1249.17 L1703.42 1262.78 L1718.52 1276.03 L1733.61 1289.02 L1748.59 1301.64 L1763.68 1314.02 L1778.66 1326.02 L1793.76 1337.78 L1808.85 1349.29 L1823.83 1360.55 L1838.92 1371.44 L1854.02 1382.08 L1869.00 1392.48 L1884.09 1402.63 L1899.07 1412.53 L1914.16 1422.18 L1929.26 1431.71 L1944.24 1440.87 L1959.33 1449.78 L1974.43 1458.56 L1989.40 1467.10 L2004.50 1475.39 L2019.60 1483.44 L2034.57 1491.36 L2049.67 1499.15 L2064.64 1506.58 L2079.74 1514.00 L2094.84 1521.06 L2109.81 1528.11 L2124.91 1534.92 L2140.01 1541.60 L2154.98 1548.04 L2170.08 1554.35 L2185.05 1560.54 L2200.15 1566.60 L2215.25 1572.42 L2230.22 1578.11 L2245.32 1583.68 L2260.42 1589.25 L2275.39 1594.57 L2290.49 1599.77 L2305.59 1604.84 L2320.56 1609.79 L2335.66 1614.62 L2350.63 1619.32 L2365.73 1623.90 L2380.83 1628.35 L2395.80 1632.81 L2410.90 1637.02 L2425.99 1641.22 L2440.97 1645.31 L2456.07 1649.39 L2471.04 1653.23 L2486.14 1657.06 L2501.24 1660.78 L2516.21 1664.37 L2531.31 1667.95 L2546.40 1671.42 L2561.38 1674.88 L2576.47 1678.23 L2591.57 1681.44 L2606.55 1684.66 L2621.64 1687.76 L2636.62 1690.73 L2651.72 1693.70 L2666.81 1696.67 L2681.79 1699.51 L2696.88 1702.23 L2711.98 1704.96 L2726.95 1707.68 L2742.05 1710.28 L2757.03 1712.88 L2772.12 1715.35 L2787.22 1717.83 L2802.20 1720.18 L2817.29 1722.53 L2832.39 1724.88 L2847.36 1727.11 L2862.46 1729.34 L2877.56 1731.56 L2892.53 1733.67 L2907.63 1735.77 L2922.60 1737.75 L2937.70 1739.86 L2952.80 1741.84 L2967.77 1743.69 L2982.87 1745.67 L2997.97 1747.53 L3012.94 1749.38 L3028.04 1751.12 L3043.01 1752.97 L3058.11 1754.71 L3073.21 1756.44 L3088.18 1758.05 L3103.28 1759.78 L3118.38 1761.39 L3133.35 1763.00 L3148.45 1764.61 L3163.42 1766.09 L3178.52 1767.70 L3193.62 1769.19 L3208.59 1770.67 L3223.69 1772.16 L3238.78 1773.64 L3253.76 1775.00 L3268.86 1776.49 L3283.95 1777.85 L3298.93 1779.21 L3314.03 1780.57 L3329.00 1781.93 L3344.10 1783.17 L3359.19 1784.53 L3374.17 1785.77 L3389.26 1787.13 L3404.36 1788.37 L3419.34 1789.60 L3434.43 1790.84 L3449.41 1792.08 L3464.51 1793.19 L3479.60 1794.43 L3494.58 1795.67 L3509.67 1796.78 L3524.77 1797.90 L3539.74 1799.13 L3554.84 1800.25 L3569.94 1801.36 L3584.91 1802.48 L3600.01 1803.59 L3614.99 1804.70 L3630.08 1805.82 L3645.18 1806.93 L3660.15 1808.04 L3675.25 1809.03 L3690.35 1810.15 L3705.32 1811.26 L3720.42 1812.25 L3735.39 1813.37 L3750.49 1814.36 L3765.59 1815.47 L3780.56 1816.46 L3795.66 1817.45" stroke-linejoin="round" style="fill:none;stroke:#FF0000;stroke-width:8.64"/>
	<line x1="556.38" y1="2489.19" x2="556.38" y2="100.86" style="stroke:#000000;stroke-width:5.76"/>
	<line x1="556.38" y1="2425.82" x2="516.41" y2="2425.82" style="stroke:#000000;stroke-width:5.76"/>
	<text x="496.49" y="2460.85" style="font-family:'Helvetica';font-size:99.99px;fill:#000000" text-anchor="end">-0.40</text>
	<line x1="556.38" y1="1860.39" x2="516.41" y2="1860.39" style="stroke:#000000;stroke-width:5.76"/>
	<text x="496.49" y="1895.42" style="font-family:'Helvetica';font-size:99.99px;fill:#000000" text-anchor="end">-0.30</text>
	<line x1="556.38" y1="1294.96" x2="516.41" y2="1294.96" style="stroke:#000000;stroke-width:5.76"/>
	<text x="496.49" y="1329.99" style="font-family:'Helvetica';font-size:99.99px;fill:#000000" text-anchor="end">-0.20</text>
	<line x1="556.38" y1="729.53" x2="516.41" y2="729.53" style="stroke:#000000;stroke-width:5.76"/>
	<text x="496.49" y="764.56" style="font-family:'Helvetica';font-size:99.99px;fill:#000000" text-anchor="end">-0.10</text>
	<line x1="556.38" y1="164.22" x2="516.41" y2="164.22" style="stroke:#000000;stroke-width:5.76"/>
	<text x="496.49" y="199.25" style="font-family:'Helvetica';font-size:99.99px;fill:#000000" text-anchor="end">0.00</text>
	<text x="190.71" y="1294.96" style="font-family:'Helvetica';font-size:99.99px;fill:#000000" transform="rotate(-90 190.71,1294.96)" text-anchor="middle">Difference in curves (%)</text>
	<line x1="556.38" y1="2489.19" x2="3859.02" y2="2489.19" style="stroke:#000000;stroke-width:5.76"/>
	<line x1="619.74" y1="2489.19" x2="619.74" y2="2529.16" style="stroke:#000000;stroke-width:5.76"/>
	<text x="619.74" y="2619.14" style="font-family:'Helvetica';font-size:99.99px;fill:#000000" text-anchor="middle">0</text>
	<line x1="1372.39" y1="2489.19" x2="1372.39" y2="2529.16" style="stroke:#000000;stroke-width:5.76"/>
	<text x="1372.39" y="2619.14" style="font-family:'Helvetica';font-size:99.99px;fill:#000000" text-anchor="middle">50</text>
	<line x1="2124.91" y1="2489.19" x2="2124.91" y2="2529.16" style="stroke:#000000;stroke-width:5.76"/>
	<text x="2124.91" y="2619.14" style="font-family:'Helvetica';font-size:99.99px;fill:#000000" text-anchor="middle">100</text>
	<line x1="2877.56" y1="2489.19" x2="2877.56" y2="2529.16" style="stroke:#000000;stroke-width:5.76"/>
	<text x="2877.56" y="2619.14" style="font-family:'Helvetica';font-size:99.99px;fill:#000000" text-anchor="middle">150</text>
	<line x1="3630.21" y1="2489.19" x2="3630.21" y2="2529.16" style="stroke:#000000;stroke-width:5.76"/>
	<text x="3630.21" y="2619.14" style="font-family:'Helvetica';font-size:99.99px;fill:#000000" text-anchor="middle">200</text>
	<text x="2207.70" y="2729.16" style="font-family:'Helvetica';font-size:99.99px;fill:#000000" text-anchor="middle">Days from 1 March 2020</text>
</svg>
