<?xml version="1.0" encoding="UTF-8" standalone="no"?>
<!-- This is a Stata 16.1 generated SVG file (http://www.stata.com) -->

<svg version="1.1" width="5.50in" height="4.00in" viewBox="0 0 3960 2880" xmlns="http://www.w3.org/2000/svg" xmlns:xlink="http://www.w3.org/1999/xlink">
	<desc>Stata Graph - Graph</desc>
	<rect x="0" y="0" width="3960" height="2880" style="fill:#EAF2F3;stroke:none"/>
	<rect x="0.00" y="0.00" width="3959.88" height="2880.00" style="fill:#EAF2F3"/>
	<rect x="2.88" y="2.88" width="3954.12" height="2874.24" style="fill:none;stroke:#EAF2F3;stroke-width:5.76"/>
	<rect x="556.38" y="100.86" width="3302.64" height="2388.33" style="fill:#FFFFFF"/>
	<rect x="559.26" y="103.74" width="3296.88" height="2382.57" style="fill:none;stroke:#FFFFFF;stroke-width:5.76"/>
	<line x1="556.38" y1="2425.82" x2="3859.02" y2="2425.82" style="stroke:#EAF2F3;stroke-width:8.64"/>
	<line x1="556.38" y1="1671.91" x2="3859.02" y2="1671.91" style="stroke:#EAF2F3;stroke-width:8.64"/>
	<line x1="556.38" y1="918.01" x2="3859.02" y2="918.01" style="stroke:#EAF2F3;stroke-width:8.64"/>
	<line x1="556.38" y1="164.22" x2="3859.02" y2="164.22" style="stroke:#EAF2F3;stroke-width:8.64"/>
	<defs>
		<path id="path_HyJqPAYL" d="M619.74 164.22 L619.74 164.22 L634.84 176.84 L649.93 190.58 L664.91 204.57 L680.01 218.80 L694.98 233.03 L710.08 247.26 L725.17 261.49 L740.15 275.60 L755.25 289.71 L770.34 303.82 L785.32 317.80 L800.41 331.66 L815.51 345.52 L830.49 359.38 L845.58 372.99 L860.56 386.73 L875.65 400.22 L890.75 413.71 L905.73 427.07 L920.82 440.44 L935.92 453.68 L950.89 466.92 L965.99 480.04 L980.97 493.04 L996.06 506.03 L1011.16 518.90 L1026.13 531.65 L1041.23 544.52 L1056.33 557.14 L1071.30 569.76 L1086.40 582.39 L1101.50 594.76 L1116.47 607.26 L1131.57 619.64 L1146.54 631.89 L1161.64 644.14 L1176.74 656.27 L1191.71 668.39 L1206.81 680.52 L1221.91 692.53 L1236.88 704.41 L1251.98 716.29 L1266.95 728.17 L1282.05 739.92 L1297.15 751.56 L1312.12 763.31 L1327.22 774.82 L1342.32 786.46 L1357.29 797.96 L1372.39 809.35 L1387.48 820.74 L1402.46 832.12 L1417.56 843.38 L1432.53 854.64 L1447.63 865.91 L1462.72 877.04 L1477.70 888.06 L1492.80 899.20 L1507.89 910.09 L1522.87 921.10 L1537.96 931.99 L1552.94 942.88 L1568.04 953.77 L1583.13 964.54 L1598.11 975.30 L1613.20 985.95 L1628.30 996.59 L1643.28 1007.23 L1658.37 1017.88 L1673.47 1028.52 L1688.44 1039.04 L1703.54 1049.56 L1718.52 1059.95 L1733.61 1070.47 L1748.71 1080.87 L1763.68 1091.26 L1778.78 1101.66 L1793.88 1111.93 L1808.85 1122.32 L1823.95 1132.60 L1838.92 1142.87 L1854.02 1153.14 L1869.12 1163.29 L1884.09 1173.56 L1899.19 1183.71 L1914.29 1193.85 L1929.26 1204.00 L1944.36 1214.15 L1959.46 1224.17 L1974.43 1234.32 L1989.53 1244.35 L2004.50 1254.37 L2019.60 1264.39 L2034.70 1274.42 L2049.67 1284.44 L2064.77 1294.34 L2079.87 1304.37 L2094.84 1314.27 L2109.94 1324.29 L2124.91 1334.19 L2140.01 1344.09 L2155.11 1353.99 L2170.08 1363.89 L2185.18 1373.67 L2200.28 1383.57 L2215.25 1393.47 L2230.35 1403.25 L2245.32 1413.02 L2260.42 1422.92 L2275.51 1432.70 L2290.49 1442.48 L2305.59 1452.25 L2320.68 1462.03 L2335.66 1471.80 L2350.76 1481.58 L2365.85 1491.36 L2380.83 1501.01 L2395.92 1510.79 L2410.90 1520.56 L2425.99 1530.22 L2441.09 1539.99 L2456.07 1549.65 L2471.16 1559.30 L2486.26 1569.08 L2501.24 1578.73 L2516.33 1588.38 L2531.31 1598.03 L2546.40 1607.69 L2561.50 1617.34 L2576.47 1626.99 L2591.57 1636.64 L2606.67 1646.30 L2621.64 1655.95 L2636.74 1665.60 L2651.84 1675.26 L2666.81 1684.79 L2681.91 1694.44 L2696.88 1704.09 L2711.98 1713.74 L2727.08 1723.27 L2742.05 1732.93 L2757.15 1742.45 L2772.25 1752.11 L2787.22 1761.64 L2802.32 1771.29 L2817.29 1780.82 L2832.39 1790.47 L2847.49 1800.00 L2862.46 1809.53 L2877.56 1819.06 L2892.66 1828.59 L2907.63 1838.24 L2922.73 1847.77 L2937.82 1857.30 L2952.80 1866.70 L2967.90 1876.23 L2982.87 1885.76 L2997.97 1895.29 L3013.07 1904.82 L3028.04 1914.22 L3043.14 1923.75 L3058.23 1933.28 L3073.21 1942.69 L3088.30 1952.22 L3103.28 1961.62 L3118.38 1971.03 L3133.47 1980.43 L3148.45 1989.96 L3163.55 1999.37 L3178.64 2008.77 L3193.62 2018.18 L3208.71 2027.58 L3223.81 2036.99 L3238.78 2046.39 L3253.88 2055.68 L3268.86 2065.08 L3283.95 2074.49 L3299.05 2083.77 L3314.03 2093.17 L3329.12 2102.45 L3344.22 2111.74 L3359.19 2121.14 L3374.29 2130.42 L3389.26 2139.70 L3404.36 2148.99 L3419.46 2158.27 L3434.43 2167.55 L3449.53 2176.83 L3464.63 2186.11 L3479.60 2195.27 L3494.70 2204.55 L3509.80 2213.83 L3524.77 2222.99 L3539.87 2232.27 L3554.84 2241.43 L3569.94 2250.59 L3585.04 2259.75 L3600.01 2269.03 L3615.11 2278.18 L3630.21 2287.34 L3645.18 2296.38 L3660.28 2305.53 L3675.25 2314.69 L3690.35 2323.85 L3705.45 2332.88 L3720.42 2342.04 L3735.52 2351.08 L3750.61 2360.11 L3765.59 2369.27 L3780.69 2378.30 L3795.66 2387.34 L3795.66 1327.88 L3780.69 1323.18 L3765.59 1318.35 L3750.61 1313.65 L3735.52 1308.94 L3720.42 1304.24 L3705.45 1299.42 L3690.35 1294.71 L3675.25 1289.89 L3660.28 1285.18 L3645.18 1280.36 L3630.21 1275.65 L3615.11 1270.83 L3600.01 1266.00 L3585.04 1261.30 L3569.94 1256.47 L3554.84 1251.65 L3539.87 1246.82 L3524.77 1242.12 L3509.80 1237.29 L3494.70 1232.46 L3479.60 1227.64 L3464.63 1222.81 L3449.53 1217.99 L3434.43 1213.04 L3419.46 1208.21 L3404.36 1203.38 L3389.26 1198.56 L3374.29 1193.73 L3359.19 1188.78 L3344.22 1183.95 L3329.12 1179.13 L3314.03 1174.18 L3299.05 1169.35 L3283.95 1164.40 L3268.86 1159.57 L3253.88 1154.62 L3238.78 1149.80 L3223.81 1144.85 L3208.71 1139.90 L3193.62 1134.95 L3178.64 1130.12 L3163.55 1125.17 L3148.45 1120.22 L3133.47 1115.27 L3118.38 1110.32 L3103.28 1105.37 L3088.30 1100.54 L3073.21 1095.59 L3058.23 1090.64 L3043.14 1085.69 L3028.04 1080.62 L3013.07 1075.67 L2997.97 1070.72 L2982.87 1065.77 L2967.90 1060.82 L2952.80 1055.87 L2937.82 1050.79 L2922.73 1045.84 L2907.63 1040.89 L2892.66 1035.82 L2877.56 1030.87 L2862.46 1025.92 L2847.49 1020.85 L2832.39 1015.90 L2817.29 1010.82 L2802.32 1005.87 L2787.22 1000.80 L2772.25 995.85 L2757.15 990.77 L2742.05 985.82 L2727.08 980.75 L2711.98 975.68 L2696.88 970.73 L2681.91 965.65 L2666.81 960.58 L2651.84 955.63 L2636.74 950.55 L2621.64 945.48 L2606.67 940.41 L2591.57 935.46 L2576.47 930.38 L2561.50 925.31 L2546.40 920.23 L2531.31 915.16 L2516.33 910.09 L2501.24 905.14 L2486.26 900.06 L2471.16 894.99 L2456.07 889.91 L2441.09 884.84 L2425.99 879.64 L2410.90 874.57 L2395.92 869.49 L2380.83 864.42 L2365.85 859.35 L2350.76 854.27 L2335.66 849.08 L2320.68 844.00 L2305.59 838.93 L2290.49 833.73 L2275.51 828.66 L2260.42 823.58 L2245.32 818.38 L2230.35 813.19 L2215.25 808.11 L2200.28 802.92 L2185.18 797.72 L2170.08 792.64 L2155.11 787.45 L2140.01 782.25 L2124.91 777.05 L2109.94 771.85 L2094.84 766.66 L2079.87 761.46 L2064.77 756.26 L2049.67 751.06 L2034.70 745.74 L2019.60 740.54 L2004.50 735.35 L1989.53 730.02 L1974.43 724.70 L1959.46 719.50 L1944.36 714.18 L1929.26 708.86 L1914.29 703.54 L1899.19 698.22 L1884.09 692.90 L1869.12 687.58 L1854.02 682.26 L1838.92 676.81 L1823.95 671.49 L1808.85 666.04 L1793.88 660.72 L1778.78 655.28 L1763.68 649.83 L1748.71 644.39 L1733.61 638.94 L1718.52 633.50 L1703.54 627.93 L1688.44 622.48 L1673.47 616.91 L1658.37 611.34 L1643.28 605.78 L1628.30 600.21 L1613.20 594.64 L1598.11 589.07 L1583.13 583.38 L1568.04 577.68 L1552.94 571.99 L1537.96 566.30 L1522.87 560.61 L1507.89 554.91 L1492.80 549.10 L1477.70 543.28 L1462.72 537.46 L1447.63 531.65 L1432.53 525.71 L1417.56 519.89 L1402.46 513.95 L1387.48 508.01 L1372.39 501.95 L1357.29 496.01 L1342.32 489.94 L1327.22 483.88 L1312.12 477.81 L1297.15 471.63 L1282.05 465.56 L1266.95 459.37 L1251.98 453.19 L1236.88 446.88 L1221.91 440.69 L1206.81 434.38 L1191.71 428.06 L1176.74 421.75 L1161.64 415.32 L1146.54 408.88 L1131.57 402.45 L1116.47 396.01 L1101.50 389.45 L1086.40 382.89 L1071.30 376.34 L1056.33 369.65 L1041.23 362.97 L1026.13 356.29 L1011.16 349.60 L996.06 342.80 L980.97 335.99 L965.99 329.19 L950.89 322.38 L935.92 315.45 L920.82 308.52 L905.73 301.46 L890.75 294.41 L875.65 287.36 L860.56 280.30 L845.58 273.12 L830.49 265.95 L815.51 258.65 L800.41 251.47 L785.32 244.17 L770.34 236.74 L755.25 229.44 L740.15 222.01 L725.17 214.47 L710.08 207.04 L694.98 199.61 L680.01 192.07 L664.91 184.64 L649.93 177.34 L634.84 170.29 L619.74 164.22 L619.74 164.22 Z" stroke-linejoin="round"/>
	</defs>
	<defs>
		<clipPath id="clipPath_vhZMngst">
			<use xlink:href="#path_HyJqPAYL"/>
		</clipPath>
	</defs>
	<use xlink:href="#path_HyJqPAYL" style="stroke:none;fill:#FF3333;fill-opacity:0.25"/>
	<use xlink:href="#path_HyJqPAYL" style="fill:none;stroke:#FF0000;stroke-opacity:0.25;stroke-width:17.28" clip-path="url(#clipPath_vhZMngst)"/>
	<path d=" M619.74 164.22 L634.71 173.63 L649.81 184.02 L664.91 194.66 L679.88 205.56 L694.98 216.32 L710.08 227.21 L725.05 238.10 L740.15 248.87 L755.25 259.64 L770.22 270.40 L785.32 281.05 L800.29 291.69 L815.39 302.21 L830.49 312.73 L845.46 323.12 L860.56 333.52 L875.65 343.91 L890.63 354.18 L905.73 364.33 L920.70 374.48 L935.80 384.63 L950.89 394.65 L965.87 404.68 L980.97 414.58 L996.06 424.48 L1011.04 434.25 L1026.13 444.03 L1041.23 453.81 L1056.21 463.46 L1071.30 473.11 L1086.28 482.64 L1101.38 492.17 L1116.47 501.70 L1131.45 511.10 L1146.54 520.51 L1161.64 529.79 L1176.62 539.07 L1191.71 548.35 L1206.69 557.51 L1221.78 566.67 L1236.88 575.70 L1251.86 584.86 L1266.95 593.77 L1282.05 602.81 L1297.02 611.72 L1312.12 620.63 L1327.22 629.41 L1342.19 638.20 L1357.29 646.99 L1372.26 655.77 L1387.36 664.43 L1402.46 673.10 L1417.43 681.64 L1432.53 690.30 L1447.63 698.84 L1462.60 707.25 L1477.70 715.79 L1492.67 724.21 L1507.77 732.62 L1522.87 740.91 L1537.84 749.21 L1552.94 757.50 L1568.04 765.79 L1583.01 773.96 L1598.11 782.25 L1613.08 790.42 L1628.18 798.46 L1643.28 806.63 L1658.25 814.67 L1673.35 822.72 L1688.44 830.76 L1703.42 838.80 L1718.52 846.85 L1733.61 854.77 L1748.59 862.69 L1763.68 870.61 L1778.66 878.53 L1793.76 886.45 L1808.85 894.25 L1823.83 902.04 L1838.92 909.96 L1854.02 917.76 L1869.00 925.56 L1884.09 933.23 L1899.07 941.02 L1914.16 948.82 L1929.26 956.49 L1944.24 964.17 L1959.33 971.96 L1974.43 979.64 L1989.40 987.31 L2004.50 994.86 L2019.60 1002.53 L2034.57 1010.20 L2049.67 1017.75 L2064.64 1025.42 L2079.74 1032.97 L2094.84 1040.52 L2109.81 1048.07 L2124.91 1055.62 L2140.01 1063.17 L2154.98 1070.72 L2170.08 1078.27 L2185.05 1085.82 L2200.15 1093.37 L2215.25 1100.79 L2230.22 1108.34 L2245.32 1115.76 L2260.42 1123.31 L2275.39 1130.74 L2290.49 1138.16 L2305.59 1145.59 L2320.56 1153.14 L2335.66 1160.56 L2350.63 1167.99 L2365.73 1175.41 L2380.83 1182.84 L2395.80 1190.26 L2410.90 1197.57 L2425.99 1204.99 L2440.97 1212.42 L2456.07 1219.84 L2471.04 1227.14 L2486.14 1234.57 L2501.24 1241.99 L2516.21 1249.30 L2531.31 1256.72 L2546.40 1264.02 L2561.38 1271.45 L2576.47 1278.75 L2591.57 1286.05 L2606.55 1293.48 L2621.64 1300.78 L2636.62 1308.08 L2651.72 1315.50 L2666.81 1322.81 L2681.79 1330.11 L2696.88 1337.41 L2711.98 1344.83 L2726.95 1352.13 L2742.05 1359.44 L2757.03 1366.74 L2772.12 1374.04 L2787.22 1381.34 L2802.20 1388.64 L2817.29 1395.94 L2832.39 1403.25 L2847.36 1410.55 L2862.46 1417.72 L2877.56 1425.03 L2892.53 1432.33 L2907.63 1439.63 L2922.60 1446.81 L2937.70 1454.11 L2952.80 1461.41 L2967.77 1468.59 L2982.87 1475.89 L2997.97 1483.07 L3012.94 1490.37 L3028.04 1497.55 L3043.01 1504.72 L3058.11 1512.02 L3073.21 1519.20 L3088.18 1526.38 L3103.28 1533.56 L3118.38 1540.74 L3133.35 1547.91 L3148.45 1555.09 L3163.42 1562.27 L3178.52 1569.45 L3193.62 1576.62 L3208.59 1583.80 L3223.69 1590.98 L3238.78 1598.16 L3253.76 1605.21 L3268.86 1612.39 L3283.95 1619.44 L3298.93 1626.62 L3314.03 1633.67 L3329.00 1640.85 L3344.10 1647.91 L3359.19 1655.08 L3374.17 1662.14 L3389.26 1669.19 L3404.36 1676.25 L3419.34 1683.30 L3434.43 1690.35 L3449.41 1697.41 L3464.51 1704.46 L3479.60 1711.52 L3494.58 1718.57 L3509.67 1725.62 L3524.77 1732.55 L3539.74 1739.61 L3554.84 1746.66 L3569.94 1753.59 L3584.91 1760.65 L3600.01 1767.58 L3614.99 1774.51 L3630.08 1781.56 L3645.18 1788.49 L3660.15 1795.42 L3675.25 1802.35 L3690.35 1809.28 L3705.32 1816.21 L3720.42 1823.14 L3735.39 1830.07 L3750.49 1837.00 L3765.59 1843.93 L3780.56 1850.74 L3795.66 1857.67" stroke-linejoin="round" style="fill:none;stroke:#FF0000;stroke-width:8.64"/>
	<line x1="556.38" y1="2489.19" x2="556.38" y2="100.86" style="stroke:#000000;stroke-width:5.76"/>
	<line x1="556.38" y1="2425.82" x2="516.41" y2="2425.82" style="stroke:#000000;stroke-width:5.76"/>
	<text x="496.49" y="2460.85" style="font-family:'Helvetica';font-size:99.99px;fill:#000000" text-anchor="end">-0.60</text>
	<line x1="556.38" y1="1671.91" x2="516.41" y2="1671.91" style="stroke:#000000;stroke-width:5.76"/>
	<text x="496.49" y="1706.94" style="font-family:'Helvetica';font-size:99.99px;fill:#000000" text-anchor="end">-0.40</text>
	<line x1="556.38" y1="918.01" x2="516.41" y2="918.01" style="stroke:#000000;stroke-width:5.76"/>
	<text x="496.49" y="953.03" style="font-family:'Helvetica';font-size:99.99px;fill:#000000" text-anchor="end">-0.20</text>
	<line x1="556.38" y1="164.22" x2="516.41" y2="164.22" style="stroke:#000000;stroke-width:5.76"/>
	<text x="496.49" y="199.25" style="font-family:'Helvetica';font-size:99.99px;fill:#000000" text-anchor="end">0.00</text>
	<text x="190.71" y="1294.96" style="font-family:'Helvetica';font-size:99.99px;fill:#000000" transform="rotate(-90 190.71,1294.96)" text-anchor="middle">Difference in curves (%)</text>
	<line x1="556.38" y1="2489.19" x2="3859.02" y2="2489.19" style="stroke:#000000;stroke-width:5.76"/>
	<line x1="619.74" y1="2489.19" x2="619.74" y2="2529.16" style="stroke:#000000;stroke-width:5.76"/>
	<text x="619.74" y="2619.14" style="font-family:'Helvetica';font-size:99.99px;fill:#000000" text-anchor="middle">0</text>
	<line x1="1372.39" y1="2489.19" x2="1372.39" y2="2529.16" style="stroke:#000000;stroke-width:5.76"/>
	<text x="1372.39" y="2619.14" style="font-family:'Helvetica';font-size:99.99px;fill:#000000" text-anchor="middle">50</text>
	<line x1="2124.91" y1="2489.19" x2="2124.91" y2="2529.16" style="stroke:#000000;stroke-width:5.76"/>
	<text x="2124.91" y="2619.14" style="font-family:'Helvetica';font-size:99.99px;fill:#000000" text-anchor="middle">100</text>
	<line x1="2877.56" y1="2489.19" x2="2877.56" y2="2529.16" style="stroke:#000000;stroke-width:5.76"/>
	<text x="2877.56" y="2619.14" style="font-family:'Helvetica';font-size:99.99px;fill:#000000" text-anchor="middle">150</text>
	<line x1="3630.21" y1="2489.19" x2="3630.21" y2="2529.16" style="stroke:#000000;stroke-width:5.76"/>
	<text x="3630.21" y="2619.14" style="font-family:'Helvetica';font-size:99.99px;fill:#000000" text-anchor="middle">200</text>
	<text x="2207.70" y="2729.16" style="font-family:'Helvetica';font-size:99.99px;fill:#000000" text-anchor="middle">Days from 1 March 2020</text>
</svg>
