<?xml version="1.0" encoding="UTF-8" standalone="no"?>
<!-- This is a Stata 16.1 generated SVG file (http://www.stata.com) -->

<svg version="1.1" width="5.50in" height="4.00in" viewBox="0 0 3960 2880" xmlns="http://www.w3.org/2000/svg" xmlns:xlink="http://www.w3.org/1999/xlink">
	<desc>Stata Graph - Graph</desc>
	<rect x="0" y="0" width="3960" height="2880" style="fill:#EAF2F3;stroke:none"/>
	<rect x="0.00" y="0.00" width="3959.88" height="2880.00" style="fill:#EAF2F3"/>
	<rect x="2.88" y="2.88" width="3954.12" height="2874.24" style="fill:none;stroke:#EAF2F3;stroke-width:5.76"/>
	<rect x="556.38" y="100.86" width="3302.64" height="2388.33" style="fill:#FFFFFF"/>
	<rect x="559.26" y="103.74" width="3296.88" height="2382.57" style="fill:none;stroke:#FFFFFF;stroke-width:5.76"/>
	<line x1="556.38" y1="2357.88" x2="3859.02" y2="2357.88" style="stroke:#EAF2F3;stroke-width:8.64"/>
	<line x1="556.38" y1="1626.62" x2="3859.02" y2="1626.62" style="stroke:#EAF2F3;stroke-width:8.64"/>
	<line x1="556.38" y1="895.36" x2="3859.02" y2="895.36" style="stroke:#EAF2F3;stroke-width:8.64"/>
	<line x1="556.38" y1="164.22" x2="3859.02" y2="164.22" style="stroke:#EAF2F3;stroke-width:8.64"/>
	<defs>
		<path id="path_WkWOYyAe" d="M619.74 164.22 L619.74 164.22 L634.84 164.22 L649.93 164.22 L664.91 164.22 L680.01 164.47 L694.98 164.72 L710.08 165.09 L725.17 165.58 L740.15 166.33 L755.25 167.19 L770.34 168.31 L785.32 169.54 L800.41 171.03 L815.51 172.76 L830.49 174.74 L845.58 176.84 L860.56 179.20 L875.65 181.92 L890.75 184.76 L905.73 187.86 L920.82 191.32 L935.92 194.91 L950.89 198.87 L965.99 202.96 L980.97 207.41 L996.06 212.11 L1011.16 216.94 L1026.13 222.14 L1041.23 227.58 L1056.33 233.28 L1071.30 239.22 L1086.40 245.40 L1101.50 251.72 L1116.47 258.40 L1131.57 265.33 L1146.54 272.38 L1161.64 279.81 L1176.74 287.36 L1191.71 295.15 L1206.81 303.20 L1221.91 311.36 L1236.88 319.90 L1251.98 328.57 L1266.95 337.35 L1282.05 346.51 L1297.15 355.67 L1312.12 365.20 L1327.22 374.85 L1342.32 384.63 L1357.29 394.65 L1372.39 404.80 L1387.48 415.19 L1402.46 425.71 L1417.56 436.36 L1432.53 447.25 L1447.63 458.26 L1462.72 469.40 L1477.70 480.66 L1492.80 492.17 L1507.89 503.68 L1522.87 515.43 L1537.96 527.32 L1552.94 539.32 L1568.04 551.32 L1583.13 563.58 L1598.11 575.95 L1613.20 588.33 L1628.30 600.95 L1643.28 613.57 L1658.37 626.32 L1673.47 639.19 L1688.44 652.06 L1703.54 665.05 L1718.52 678.17 L1733.61 691.41 L1748.71 704.65 L1763.68 718.02 L1778.78 731.51 L1793.88 745.00 L1808.85 758.61 L1823.95 772.22 L1838.92 785.96 L1854.02 799.70 L1869.12 813.43 L1884.09 827.29 L1899.19 841.28 L1914.29 855.14 L1929.26 869.25 L1944.36 883.23 L1959.46 897.34 L1974.43 911.45 L1989.53 925.68 L2004.50 939.79 L2019.60 954.02 L2034.70 968.25 L2049.67 982.61 L2064.77 996.84 L2079.87 1011.19 L2094.84 1025.55 L2109.94 1039.90 L2124.91 1054.26 L2140.01 1068.61 L2155.11 1082.97 L2170.08 1097.33 L2185.18 1111.80 L2200.28 1126.16 L2215.25 1140.52 L2230.35 1154.87 L2245.32 1169.23 L2260.42 1183.58 L2275.51 1197.94 L2290.49 1212.29 L2305.59 1226.65 L2320.68 1240.88 L2335.66 1255.24 L2350.76 1269.47 L2365.85 1283.70 L2380.83 1297.93 L2395.92 1312.16 L2410.90 1326.27 L2425.99 1340.38 L2441.09 1354.49 L2456.07 1368.59 L2471.16 1382.58 L2486.26 1396.56 L2501.24 1410.55 L2516.33 1424.53 L2531.31 1438.39 L2546.40 1452.25 L2561.50 1465.99 L2576.47 1479.72 L2591.57 1493.46 L2606.67 1507.07 L2621.64 1520.69 L2636.74 1534.30 L2651.84 1547.79 L2666.81 1561.28 L2681.91 1574.64 L2696.88 1588.01 L2711.98 1601.38 L2727.08 1614.62 L2742.05 1627.86 L2757.15 1640.98 L2772.25 1654.09 L2787.22 1667.09 L2802.32 1680.08 L2817.29 1692.95 L2832.39 1705.82 L2847.49 1718.57 L2862.46 1731.32 L2877.56 1743.94 L2892.66 1756.56 L2907.63 1769.19 L2922.73 1781.56 L2937.82 1794.06 L2952.80 1806.44 L2967.90 1818.69 L2982.87 1830.94 L2997.97 1843.07 L3013.07 1855.19 L3028.04 1867.32 L3043.14 1879.33 L3058.23 1891.21 L3073.21 1903.09 L3088.30 1914.97 L3103.28 1926.72 L3118.38 1938.48 L3133.47 1950.24 L3148.45 1961.87 L3163.55 1973.38 L3178.64 1985.01 L3193.62 1996.40 L3208.71 2007.91 L3223.81 2019.29 L3238.78 2030.68 L3253.88 2041.94 L3268.86 2053.20 L3283.95 2064.46 L3299.05 2075.60 L3314.03 2086.74 L3329.12 2097.88 L3344.22 2109.01 L3359.19 2120.03 L3374.29 2130.92 L3389.26 2141.93 L3404.36 2152.82 L3419.46 2163.71 L3434.43 2174.60 L3449.53 2185.37 L3464.63 2196.14 L3479.60 2206.90 L3494.70 2217.55 L3509.80 2228.31 L3524.77 2238.95 L3539.87 2249.47 L3554.84 2260.12 L3569.94 2270.64 L3585.04 2281.16 L3600.01 2291.67 L3615.11 2302.19 L3630.21 2312.59 L3645.18 2322.98 L3660.28 2333.38 L3675.25 2343.77 L3690.35 2354.17 L3705.45 2364.44 L3720.42 2374.71 L3735.52 2384.98 L3750.61 2395.26 L3765.59 2405.40 L3780.69 2415.68 L3795.66 2425.82 L3795.66 1999.74 L3780.69 1991.45 L3765.59 1983.28 L3750.61 1974.99 L3735.52 1966.70 L3720.42 1958.40 L3705.45 1949.99 L3690.35 1941.70 L3675.25 1933.28 L3660.28 1924.87 L3645.18 1916.45 L3630.21 1908.04 L3615.11 1899.62 L3600.01 1891.08 L3585.04 1882.67 L3569.94 1874.13 L3554.84 1865.59 L3539.87 1856.93 L3524.77 1848.39 L3509.80 1839.72 L3494.70 1831.06 L3479.60 1822.40 L3464.63 1813.74 L3449.53 1805.07 L3434.43 1796.29 L3419.46 1787.50 L3404.36 1778.71 L3389.26 1769.80 L3374.29 1761.02 L3359.19 1752.11 L3344.22 1743.07 L3329.12 1734.16 L3314.03 1725.13 L3299.05 1716.09 L3283.95 1707.06 L3268.86 1698.03 L3253.88 1688.87 L3238.78 1679.71 L3223.81 1670.43 L3208.71 1661.27 L3193.62 1651.99 L3178.64 1642.59 L3163.55 1633.30 L3148.45 1623.90 L3133.47 1614.49 L3118.38 1604.96 L3103.28 1595.43 L3088.30 1585.91 L3073.21 1576.25 L3058.23 1566.60 L3043.14 1556.95 L3028.04 1547.29 L3013.07 1537.52 L2997.97 1527.62 L2982.87 1517.72 L2967.90 1507.82 L2952.80 1497.92 L2937.82 1487.89 L2922.73 1477.74 L2907.63 1467.72 L2892.66 1457.45 L2877.56 1447.30 L2862.46 1437.03 L2847.49 1426.63 L2832.39 1416.36 L2817.29 1405.84 L2802.32 1395.45 L2787.22 1384.93 L2772.25 1374.29 L2757.15 1363.77 L2742.05 1353.12 L2727.08 1342.36 L2711.98 1331.59 L2696.88 1320.83 L2681.91 1309.93 L2666.81 1299.04 L2651.84 1288.15 L2636.74 1277.26 L2621.64 1266.25 L2606.67 1255.11 L2591.57 1244.10 L2576.47 1232.96 L2561.50 1221.82 L2546.40 1210.56 L2531.31 1199.42 L2516.33 1188.16 L2501.24 1176.78 L2486.26 1165.51 L2471.16 1154.13 L2456.07 1142.74 L2441.09 1131.36 L2425.99 1119.85 L2410.90 1108.46 L2395.92 1096.95 L2380.83 1085.45 L2365.85 1073.81 L2350.76 1062.30 L2335.66 1050.67 L2320.68 1039.16 L2305.59 1027.53 L2290.49 1015.90 L2275.51 1004.26 L2260.42 992.63 L2245.32 980.87 L2230.35 969.24 L2215.25 957.61 L2200.28 945.85 L2185.18 934.22 L2170.08 922.46 L2155.11 910.83 L2140.01 899.20 L2124.91 887.44 L2109.94 875.81 L2094.84 864.17 L2079.87 852.54 L2064.77 840.91 L2049.67 829.27 L2034.70 817.64 L2019.60 806.01 L2004.50 794.50 L1989.53 782.99 L1974.43 771.48 L1959.46 759.97 L1944.36 748.46 L1929.26 737.08 L1914.29 725.69 L1899.19 714.31 L1884.09 703.05 L1869.12 691.78 L1854.02 680.52 L1838.92 669.38 L1823.95 658.25 L1808.85 647.11 L1793.88 636.09 L1778.78 625.20 L1763.68 614.19 L1748.71 603.42 L1733.61 592.53 L1718.52 581.89 L1703.54 571.12 L1688.44 560.61 L1673.47 550.09 L1658.37 539.57 L1643.28 529.30 L1628.30 518.90 L1613.20 508.75 L1598.11 498.60 L1583.13 488.58 L1568.04 478.68 L1552.94 468.78 L1537.96 459.13 L1522.87 449.47 L1507.89 439.94 L1492.80 430.54 L1477.70 421.26 L1462.72 411.98 L1447.63 402.94 L1432.53 394.03 L1417.56 385.12 L1402.46 376.46 L1387.48 367.92 L1372.39 359.50 L1357.29 351.21 L1342.32 343.05 L1327.22 335.00 L1312.12 327.21 L1297.15 319.53 L1282.05 311.98 L1266.95 304.56 L1251.98 297.38 L1236.88 290.33 L1221.91 283.40 L1206.81 276.71 L1191.71 270.15 L1176.74 263.84 L1161.64 257.66 L1146.54 251.72 L1131.57 245.90 L1116.47 240.21 L1101.50 234.88 L1086.40 229.56 L1071.30 224.61 L1056.33 219.79 L1041.23 215.08 L1026.13 210.75 L1011.16 206.55 L996.06 202.46 L980.97 198.75 L965.99 195.16 L950.89 191.82 L935.92 188.60 L920.82 185.63 L905.73 182.91 L890.75 180.43 L875.65 178.08 L860.56 175.98 L845.58 174.00 L830.49 172.27 L815.51 170.78 L800.41 169.42 L785.32 168.18 L770.34 167.19 L755.25 166.45 L740.15 165.71 L725.17 165.21 L710.08 164.84 L694.98 164.47 L680.01 164.35 L664.91 164.22 L649.93 164.22 L634.84 164.22 L619.74 164.22 L619.74 164.22 Z" stroke-linejoin="round"/>
	</defs>
	<defs>
		<clipPath id="clipPath_bkjFNwEH">
			<use xlink:href="#path_WkWOYyAe"/>
		</clipPath>
	</defs>
	<use xlink:href="#path_WkWOYyAe" style="stroke:none;fill:#FF3333;fill-opacity:0.25"/>
	<use xlink:href="#path_WkWOYyAe" style="fill:none;stroke:#FF0000;stroke-opacity:0.25;stroke-width:17.28" clip-path="url(#clipPath_bkjFNwEH)"/>
	<path d=" M619.74 164.22 L634.71 164.22 L649.81 164.22 L664.91 164.35 L679.88 164.47 L694.98 164.72 L710.08 164.96 L725.05 165.46 L740.15 166.08 L755.25 166.82 L770.22 167.81 L785.32 168.92 L800.29 170.29 L815.39 171.77 L830.49 173.50 L845.46 175.48 L860.56 177.59 L875.65 180.06 L890.63 182.66 L905.73 185.51 L920.70 188.60 L935.80 191.82 L950.89 195.41 L965.87 199.12 L980.97 203.08 L996.06 207.41 L1011.04 211.87 L1026.13 216.57 L1041.23 221.40 L1056.21 226.59 L1071.30 231.91 L1086.28 237.48 L1101.38 243.30 L1116.47 249.36 L1131.45 255.68 L1146.54 262.11 L1161.64 268.79 L1176.62 275.60 L1191.71 282.78 L1206.69 289.96 L1221.78 297.50 L1236.88 305.18 L1251.86 312.97 L1266.95 321.02 L1282.05 329.31 L1297.02 337.72 L1312.12 346.26 L1327.22 355.05 L1342.19 363.96 L1357.29 372.99 L1372.26 382.28 L1387.36 391.68 L1402.46 401.21 L1417.43 410.86 L1432.53 420.64 L1447.63 430.66 L1462.60 440.81 L1477.70 451.08 L1492.67 461.35 L1507.77 471.87 L1522.87 482.52 L1537.84 493.28 L1552.94 504.17 L1568.04 515.06 L1583.01 526.20 L1598.11 537.34 L1613.08 548.60 L1628.18 559.99 L1643.28 571.50 L1658.25 583.00 L1673.35 594.64 L1688.44 606.39 L1703.42 618.15 L1718.52 630.15 L1733.61 642.04 L1748.59 654.16 L1763.68 666.17 L1778.66 678.42 L1793.76 690.67 L1808.85 702.92 L1823.83 715.30 L1838.92 727.67 L1854.02 740.17 L1869.00 752.67 L1884.09 765.29 L1899.07 777.92 L1914.16 790.54 L1929.26 803.16 L1944.24 815.91 L1959.33 828.66 L1974.43 841.53 L1989.40 854.40 L2004.50 867.27 L2019.60 880.14 L2034.57 893.01 L2049.67 906.00 L2064.64 918.87 L2079.74 931.87 L2094.84 944.86 L2109.81 957.85 L2124.91 970.97 L2140.01 983.97 L2154.98 996.96 L2170.08 1009.96 L2185.05 1023.07 L2200.15 1036.07 L2215.25 1049.06 L2230.22 1062.18 L2245.32 1075.17 L2260.42 1088.17 L2275.39 1101.16 L2290.49 1114.16 L2305.59 1127.15 L2320.56 1140.14 L2335.66 1153.01 L2350.63 1166.01 L2365.73 1178.88 L2380.83 1191.75 L2395.80 1204.62 L2410.90 1217.37 L2425.99 1230.24 L2440.97 1242.98 L2456.07 1255.73 L2471.04 1268.48 L2486.14 1281.10 L2501.24 1293.72 L2516.21 1306.35 L2531.31 1318.97 L2546.40 1331.47 L2561.38 1343.97 L2576.47 1356.47 L2591.57 1368.84 L2606.55 1381.22 L2621.64 1393.59 L2636.62 1405.84 L2651.72 1418.10 L2666.81 1430.22 L2681.79 1442.35 L2696.88 1454.48 L2711.98 1466.61 L2726.95 1478.61 L2742.05 1490.49 L2757.03 1502.37 L2772.12 1514.25 L2787.22 1526.01 L2802.20 1537.77 L2817.29 1549.52 L2832.39 1561.16 L2847.36 1572.66 L2862.46 1584.17 L2877.56 1595.68 L2892.53 1607.07 L2907.63 1618.45 L2922.60 1629.71 L2937.70 1640.98 L2952.80 1652.24 L2967.77 1663.38 L2982.87 1674.39 L2997.97 1685.40 L3012.94 1696.42 L3028.04 1707.31 L3043.01 1718.20 L3058.11 1728.97 L3073.21 1739.73 L3088.18 1750.50 L3103.28 1761.14 L3118.38 1771.78 L3133.35 1782.43 L3148.45 1792.95 L3163.42 1803.47 L3178.52 1813.86 L3193.62 1824.26 L3208.59 1834.65 L3223.69 1844.92 L3238.78 1855.19 L3253.76 1865.47 L3268.86 1875.61 L3283.95 1885.89 L3298.93 1895.91 L3314.03 1906.06 L3329.00 1916.08 L3344.10 1926.11 L3359.19 1936.13 L3374.17 1946.03 L3389.26 1955.93 L3404.36 1965.83 L3419.34 1975.61 L3434.43 1985.51 L3449.41 1995.28 L3464.51 2004.94 L3479.60 2014.71 L3494.58 2024.37 L3509.67 2034.02 L3524.77 2043.67 L3539.74 2053.32 L3554.84 2062.85 L3569.94 2072.38 L3584.91 2081.91 L3600.01 2091.44 L3614.99 2100.97 L3630.08 2110.37 L3645.18 2119.78 L3660.15 2129.19 L3675.25 2138.59 L3690.35 2148.00 L3705.32 2157.28 L3720.42 2166.56 L3735.39 2175.84 L3750.49 2185.12 L3765.59 2194.40 L3780.56 2203.69 L3795.66 2212.84" stroke-linejoin="round" style="fill:none;stroke:#FF0000;stroke-width:8.64"/>
	<line x1="556.38" y1="2489.19" x2="556.38" y2="100.86" style="stroke:#000000;stroke-width:5.76"/>
	<line x1="556.38" y1="2357.88" x2="516.41" y2="2357.88" style="stroke:#000000;stroke-width:5.76"/>
	<text x="496.49" y="2392.91" style="font-family:'Helvetica';font-size:99.99px;fill:#000000" text-anchor="end">-3.00</text>
	<line x1="556.38" y1="1626.62" x2="516.41" y2="1626.62" style="stroke:#000000;stroke-width:5.76"/>
	<text x="496.49" y="1661.65" style="font-family:'Helvetica';font-size:99.99px;fill:#000000" text-anchor="end">-2.00</text>
	<line x1="556.38" y1="895.36" x2="516.41" y2="895.36" style="stroke:#000000;stroke-width:5.76"/>
	<text x="496.49" y="930.39" style="font-family:'Helvetica';font-size:99.99px;fill:#000000" text-anchor="end">-1.00</text>
	<line x1="556.38" y1="164.22" x2="516.41" y2="164.22" style="stroke:#000000;stroke-width:5.76"/>
	<text x="496.49" y="199.25" style="font-family:'Helvetica';font-size:99.99px;fill:#000000" text-anchor="end">0.00</text>
	<text x="190.71" y="1294.96" style="font-family:'Helvetica';font-size:99.99px;fill:#000000" transform="rotate(-90 190.71,1294.96)" text-anchor="middle">Difference in curves (%)</text>
	<line x1="556.38" y1="2489.19" x2="3859.02" y2="2489.19" style="stroke:#000000;stroke-width:5.76"/>
	<line x1="619.74" y1="2489.19" x2="619.74" y2="2529.16" style="stroke:#000000;stroke-width:5.76"/>
	<text x="619.74" y="2619.14" style="font-family:'Helvetica';font-size:99.99px;fill:#000000" text-anchor="middle">0</text>
	<line x1="1372.39" y1="2489.19" x2="1372.39" y2="2529.16" style="stroke:#000000;stroke-width:5.76"/>
	<text x="1372.39" y="2619.14" style="font-family:'Helvetica';font-size:99.99px;fill:#000000" text-anchor="middle">50</text>
	<line x1="2124.91" y1="2489.19" x2="2124.91" y2="2529.16" style="stroke:#000000;stroke-width:5.76"/>
	<text x="2124.91" y="2619.14" style="font-family:'Helvetica';font-size:99.99px;fill:#000000" text-anchor="middle">100</text>
	<line x1="2877.56" y1="2489.19" x2="2877.56" y2="2529.16" style="stroke:#000000;stroke-width:5.76"/>
	<text x="2877.56" y="2619.14" style="font-family:'Helvetica';font-size:99.99px;fill:#000000" text-anchor="middle">150</text>
	<line x1="3630.21" y1="2489.19" x2="3630.21" y2="2529.16" style="stroke:#000000;stroke-width:5.76"/>
	<text x="3630.21" y="2619.14" style="font-family:'Helvetica';font-size:99.99px;fill:#000000" text-anchor="middle">200</text>
	<text x="2207.70" y="2729.16" style="font-family:'Helvetica';font-size:99.99px;fill:#000000" text-anchor="middle">Days from 1 March 2020</text>
</svg>
