<?xml version="1.0" encoding="UTF-8" standalone="no"?>
<!-- This is a Stata 16.1 generated SVG file (http://www.stata.com) -->

<svg version="1.1" width="5.50in" height="4.00in" viewBox="0 0 3960 2880" xmlns="http://www.w3.org/2000/svg" xmlns:xlink="http://www.w3.org/1999/xlink">
	<desc>Stata Graph - Graph</desc>
	<rect x="0" y="0" width="3960" height="2880" style="fill:#EAF2F3;stroke:none"/>
	<rect x="0.00" y="0.00" width="3959.88" height="2880.00" style="fill:#EAF2F3"/>
	<rect x="2.88" y="2.88" width="3954.12" height="2874.24" style="fill:none;stroke:#EAF2F3;stroke-width:5.76"/>
	<rect x="556.38" y="100.86" width="3302.64" height="2388.33" style="fill:#FFFFFF"/>
	<rect x="559.26" y="103.74" width="3296.88" height="2382.57" style="fill:none;stroke:#FFFFFF;stroke-width:5.76"/>
	<line x1="556.38" y1="2360.73" x2="3859.02" y2="2360.73" style="stroke:#EAF2F3;stroke-width:8.64"/>
	<line x1="556.38" y1="1628.48" x2="3859.02" y2="1628.48" style="stroke:#EAF2F3;stroke-width:8.64"/>
	<line x1="556.38" y1="896.35" x2="3859.02" y2="896.35" style="stroke:#EAF2F3;stroke-width:8.64"/>
	<line x1="556.38" y1="164.22" x2="3859.02" y2="164.22" style="stroke:#EAF2F3;stroke-width:8.64"/>
	<defs>
		<path id="path_JAJdlcYq" d="M619.74 164.22 L619.74 164.22 L634.84 164.22 L649.93 164.22 L664.91 164.22 L680.01 164.35 L694.98 164.59 L710.08 164.96 L725.17 165.46 L740.15 166.20 L755.25 167.19 L770.34 168.43 L785.32 169.91 L800.41 171.77 L815.51 173.87 L830.49 176.35 L845.58 179.20 L860.56 182.29 L875.65 185.75 L890.75 189.59 L905.73 193.80 L920.82 198.38 L935.92 203.33 L950.89 208.53 L965.99 214.22 L980.97 220.16 L996.06 226.47 L1011.16 233.15 L1026.13 240.21 L1041.23 247.63 L1056.33 255.30 L1071.30 263.22 L1086.40 271.64 L1101.50 280.18 L1116.47 289.09 L1131.57 298.25 L1146.54 307.78 L1161.64 317.55 L1176.74 327.45 L1191.71 337.72 L1206.81 348.24 L1221.91 358.89 L1236.88 369.90 L1251.98 381.04 L1266.95 392.30 L1282.05 403.93 L1297.15 415.69 L1312.12 427.57 L1327.22 439.57 L1342.32 451.83 L1357.29 464.20 L1372.39 476.82 L1387.48 489.45 L1402.46 502.32 L1417.56 515.19 L1432.53 528.18 L1447.63 541.30 L1462.72 554.54 L1477.70 567.91 L1492.80 581.27 L1507.89 594.76 L1522.87 608.37 L1537.96 621.99 L1552.94 635.72 L1568.04 649.46 L1583.13 663.20 L1598.11 677.06 L1613.20 690.92 L1628.30 704.78 L1643.28 718.76 L1658.37 732.62 L1673.47 746.61 L1688.44 760.59 L1703.54 774.58 L1718.52 788.56 L1733.61 802.54 L1748.71 816.53 L1763.68 830.39 L1778.78 844.37 L1793.88 858.36 L1808.85 872.22 L1823.95 886.08 L1838.92 899.94 L1854.02 913.80 L1869.12 927.66 L1884.09 941.40 L1899.19 955.13 L1914.29 968.75 L1929.26 982.48 L1944.36 996.09 L1959.46 1009.71 L1974.43 1023.20 L1989.53 1036.69 L2004.50 1050.18 L2019.60 1063.54 L2034.70 1077.03 L2049.67 1090.27 L2064.77 1103.64 L2079.87 1116.88 L2094.84 1130.12 L2109.94 1143.24 L2124.91 1156.36 L2140.01 1169.47 L2155.11 1182.59 L2170.08 1195.59 L2185.18 1208.58 L2200.28 1221.45 L2215.25 1234.32 L2230.35 1247.19 L2245.32 1260.06 L2260.42 1272.81 L2275.51 1285.56 L2290.49 1298.18 L2305.59 1310.80 L2320.68 1323.42 L2335.66 1336.05 L2350.76 1348.55 L2365.85 1361.05 L2380.83 1373.42 L2395.92 1385.92 L2410.90 1398.29 L2425.99 1410.55 L2441.09 1422.92 L2456.07 1435.17 L2471.16 1447.43 L2486.26 1459.55 L2501.24 1471.68 L2516.33 1483.81 L2531.31 1495.94 L2546.40 1507.94 L2561.50 1520.07 L2576.47 1531.95 L2591.57 1543.95 L2606.67 1555.83 L2621.64 1567.71 L2636.74 1579.59 L2651.84 1591.47 L2666.81 1603.23 L2681.91 1614.99 L2696.88 1626.74 L2711.98 1638.50 L2727.08 1650.13 L2742.05 1661.77 L2757.15 1673.40 L2772.25 1685.03 L2787.22 1696.54 L2802.32 1708.05 L2817.29 1719.56 L2832.39 1731.07 L2847.49 1742.58 L2862.46 1753.96 L2877.56 1765.35 L2892.66 1776.73 L2907.63 1788.12 L2922.73 1799.50 L2937.82 1810.77 L2952.80 1822.03 L2967.90 1833.29 L2982.87 1844.55 L2997.97 1855.81 L3013.07 1866.95 L3028.04 1878.21 L3043.14 1889.35 L3058.23 1900.49 L3073.21 1911.63 L3088.30 1922.64 L3103.28 1933.78 L3118.38 1944.79 L3133.47 1955.81 L3148.45 1966.82 L3163.55 1977.83 L3178.64 1988.85 L3193.62 1999.74 L3208.71 2010.75 L3223.81 2021.64 L3238.78 2032.53 L3253.88 2043.42 L3268.86 2054.31 L3283.95 2065.08 L3299.05 2075.97 L3314.03 2086.74 L3329.12 2097.63 L3344.22 2108.39 L3359.19 2119.16 L3374.29 2129.93 L3389.26 2140.57 L3404.36 2151.34 L3419.46 2162.10 L3434.43 2172.75 L3449.53 2183.39 L3464.63 2194.16 L3479.60 2204.80 L3494.70 2215.44 L3509.80 2226.08 L3524.77 2236.60 L3539.87 2247.25 L3554.84 2257.89 L3569.94 2268.41 L3585.04 2279.05 L3600.01 2289.57 L3615.11 2300.09 L3630.21 2310.61 L3645.18 2321.13 L3660.28 2331.65 L3675.25 2342.17 L3690.35 2352.68 L3705.45 2363.20 L3720.42 2373.60 L3735.52 2384.12 L3750.61 2394.51 L3765.59 2405.03 L3780.69 2415.43 L3795.66 2425.82 L3795.66 1796.78 L3780.69 1789.23 L3765.59 1781.81 L3750.61 1774.26 L3735.52 1766.71 L3720.42 1759.16 L3705.45 1751.61 L3690.35 1744.06 L3675.25 1736.51 L3660.28 1728.97 L3645.18 1721.42 L3630.21 1713.74 L3615.11 1706.19 L3600.01 1698.65 L3585.04 1690.97 L3569.94 1683.42 L3554.84 1675.75 L3539.87 1668.08 L3524.77 1660.53 L3509.80 1652.86 L3494.70 1645.18 L3479.60 1637.51 L3464.63 1629.84 L3449.53 1622.17 L3434.43 1614.37 L3419.46 1606.70 L3404.36 1599.02 L3389.26 1591.23 L3374.29 1583.55 L3359.19 1575.76 L3344.22 1567.96 L3329.12 1560.17 L3314.03 1552.37 L3299.05 1544.57 L3283.95 1536.78 L3268.86 1528.98 L3253.88 1521.18 L3238.78 1513.26 L3223.81 1505.47 L3208.71 1497.55 L3193.62 1489.63 L3178.64 1481.71 L3163.55 1473.78 L3148.45 1465.86 L3133.47 1457.94 L3118.38 1450.02 L3103.28 1441.98 L3088.30 1434.06 L3073.21 1426.02 L3058.23 1417.97 L3043.14 1409.93 L3028.04 1401.88 L3013.07 1393.84 L2997.97 1385.80 L2982.87 1377.75 L2967.90 1369.58 L2952.80 1361.42 L2937.82 1353.37 L2922.73 1345.20 L2907.63 1336.91 L2892.66 1328.75 L2877.56 1320.58 L2862.46 1312.29 L2847.49 1304.12 L2832.39 1295.83 L2817.29 1287.54 L2802.32 1279.24 L2787.22 1270.83 L2772.25 1262.54 L2757.15 1254.12 L2742.05 1245.83 L2727.08 1237.41 L2711.98 1229.00 L2696.88 1220.46 L2681.91 1212.05 L2666.81 1203.51 L2651.84 1194.97 L2636.74 1186.43 L2621.64 1177.89 L2606.67 1169.35 L2591.57 1160.69 L2576.47 1152.15 L2561.50 1143.49 L2546.40 1134.82 L2531.31 1126.04 L2516.33 1117.37 L2501.24 1108.59 L2486.26 1099.80 L2471.16 1091.01 L2456.07 1082.23 L2441.09 1073.32 L2425.99 1064.41 L2410.90 1055.50 L2395.92 1046.59 L2380.83 1037.68 L2365.85 1028.64 L2350.76 1019.61 L2335.66 1010.57 L2320.68 1001.54 L2305.59 992.38 L2290.49 983.35 L2275.51 974.07 L2260.42 964.91 L2245.32 955.75 L2230.35 946.47 L2215.25 937.19 L2200.28 927.91 L2185.18 918.50 L2170.08 909.22 L2155.11 899.81 L2140.01 890.29 L2124.91 880.88 L2109.94 871.35 L2094.84 861.82 L2079.87 852.29 L2064.77 842.76 L2049.67 833.11 L2034.70 823.46 L2019.60 813.81 L2004.50 804.03 L1989.53 794.38 L1974.43 784.60 L1959.46 774.82 L1944.36 764.92 L1929.26 755.15 L1914.29 745.25 L1899.19 735.35 L1884.09 725.45 L1869.12 715.42 L1854.02 705.52 L1838.92 695.50 L1823.95 685.47 L1808.85 675.45 L1793.88 665.42 L1778.78 655.28 L1763.68 645.25 L1748.71 635.10 L1733.61 625.08 L1718.52 614.93 L1703.54 604.79 L1688.44 594.76 L1673.47 584.61 L1658.37 574.59 L1643.28 564.44 L1628.30 554.42 L1613.20 544.39 L1598.11 534.37 L1583.13 524.35 L1568.04 514.32 L1552.94 504.42 L1537.96 494.52 L1522.87 484.74 L1507.89 474.84 L1492.80 465.19 L1477.70 455.41 L1462.72 445.76 L1447.63 436.23 L1432.53 426.70 L1417.56 417.30 L1402.46 408.02 L1387.48 398.73 L1372.39 389.58 L1357.29 380.54 L1342.32 371.51 L1327.22 362.72 L1312.12 353.94 L1297.15 345.40 L1282.05 336.86 L1266.95 328.44 L1251.98 320.28 L1236.88 312.23 L1221.91 304.31 L1206.81 296.51 L1191.71 288.97 L1176.74 281.54 L1161.64 274.36 L1146.54 267.31 L1131.57 260.38 L1116.47 253.82 L1101.50 247.38 L1086.40 241.07 L1071.30 235.13 L1056.33 229.32 L1041.23 223.75 L1026.13 218.43 L1011.16 213.35 L996.06 208.53 L980.97 203.95 L965.99 199.61 L950.89 195.53 L935.92 191.69 L920.82 188.23 L905.73 184.89 L890.75 181.92 L875.65 179.07 L860.56 176.60 L845.58 174.37 L830.49 172.39 L815.51 170.78 L800.41 169.30 L785.32 167.93 L770.34 166.94 L755.25 166.08 L740.15 165.46 L725.17 164.96 L710.08 164.59 L694.98 164.35 L680.01 164.22 L664.91 164.22 L649.93 164.22 L634.84 164.22 L619.74 164.22 L619.74 164.22 Z" stroke-linejoin="round"/>
	</defs>
	<defs>
		<clipPath id="clipPath_mTgbCbfP">
			<use xlink:href="#path_JAJdlcYq"/>
		</clipPath>
	</defs>
	<use xlink:href="#path_JAJdlcYq" style="stroke:none;fill:#FF3333;fill-opacity:0.25"/>
	<use xlink:href="#path_JAJdlcYq" style="fill:none;stroke:#FF0000;stroke-opacity:0.25;stroke-width:17.28" clip-path="url(#clipPath_mTgbCbfP)"/>
	<path d=" M619.74 164.22 L634.71 164.22 L649.81 164.22 L664.91 164.22 L679.88 164.35 L694.98 164.59 L710.08 164.84 L725.05 165.34 L740.15 165.95 L755.25 166.70 L770.22 167.81 L785.32 169.05 L800.29 170.53 L815.39 172.39 L830.49 174.49 L845.46 176.84 L860.56 179.57 L875.65 182.54 L890.63 185.75 L905.73 189.34 L920.70 193.30 L935.80 197.51 L950.89 202.09 L965.87 206.92 L980.97 212.11 L996.06 217.56 L1011.04 223.38 L1026.13 229.44 L1041.23 235.75 L1056.21 242.31 L1071.30 249.24 L1086.28 256.42 L1101.38 263.84 L1116.47 271.52 L1131.45 279.44 L1146.54 287.60 L1161.64 296.02 L1176.62 304.56 L1191.71 313.47 L1206.69 322.50 L1221.78 331.66 L1236.88 341.07 L1251.86 350.72 L1266.95 360.50 L1282.05 370.40 L1297.02 380.54 L1312.12 390.81 L1327.22 401.21 L1342.19 411.73 L1357.29 422.50 L1372.26 433.26 L1387.36 444.15 L1402.46 455.17 L1417.43 466.30 L1432.53 477.57 L1447.63 488.83 L1462.60 500.21 L1477.70 511.72 L1492.67 523.36 L1507.77 534.86 L1522.87 546.62 L1537.84 558.38 L1552.94 570.13 L1568.04 582.01 L1583.01 593.89 L1598.11 605.78 L1613.08 617.66 L1628.18 629.66 L1643.28 641.66 L1658.25 653.67 L1673.35 665.67 L1688.44 677.68 L1703.42 689.80 L1718.52 701.81 L1733.61 713.81 L1748.59 725.82 L1763.68 737.94 L1778.66 749.95 L1793.76 761.95 L1808.85 773.96 L1823.83 785.84 L1838.92 797.84 L1854.02 809.72 L1869.00 821.60 L1884.09 833.48 L1899.07 845.24 L1914.16 857.12 L1929.26 868.88 L1944.24 880.63 L1959.33 892.27 L1974.43 903.90 L1989.40 915.53 L2004.50 927.16 L2019.60 938.80 L2034.57 950.31 L2049.67 961.82 L2064.64 973.20 L2079.74 984.71 L2094.84 996.09 L2109.81 1007.36 L2124.91 1018.74 L2140.01 1030.00 L2154.98 1041.27 L2170.08 1052.40 L2185.05 1063.54 L2200.15 1074.68 L2215.25 1085.82 L2230.22 1096.95 L2245.32 1107.97 L2260.42 1118.86 L2275.39 1129.87 L2290.49 1140.76 L2305.59 1151.65 L2320.56 1162.54 L2335.66 1173.31 L2350.63 1184.20 L2365.73 1194.84 L2380.83 1205.61 L2395.80 1216.25 L2410.90 1227.02 L2425.99 1237.54 L2440.97 1248.18 L2456.07 1258.70 L2471.04 1269.22 L2486.14 1279.74 L2501.24 1290.26 L2516.21 1300.65 L2531.31 1311.05 L2546.40 1321.44 L2561.38 1331.84 L2576.47 1342.11 L2591.57 1352.38 L2606.55 1362.65 L2621.64 1372.93 L2636.62 1383.07 L2651.72 1393.34 L2666.81 1403.49 L2681.79 1413.64 L2696.88 1423.66 L2711.98 1433.81 L2726.95 1443.84 L2742.05 1453.86 L2757.03 1463.88 L2772.12 1473.78 L2787.22 1483.81 L2802.20 1493.71 L2817.29 1503.61 L2832.39 1513.51 L2847.36 1523.41 L2862.46 1533.19 L2877.56 1543.09 L2892.53 1552.86 L2907.63 1562.64 L2922.60 1572.42 L2937.70 1582.07 L2952.80 1591.85 L2967.77 1601.50 L2982.87 1611.15 L2997.97 1620.80 L3012.94 1630.46 L3028.04 1640.11 L3043.01 1649.76 L3058.11 1659.29 L3073.21 1668.82 L3088.18 1678.47 L3103.28 1688.00 L3118.38 1697.41 L3133.35 1706.94 L3148.45 1716.47 L3163.42 1725.87 L3178.52 1735.28 L3193.62 1744.81 L3208.59 1754.21 L3223.69 1763.62 L3238.78 1773.02 L3253.76 1782.30 L3268.86 1791.71 L3283.95 1800.99 L3298.93 1810.40 L3314.03 1819.68 L3329.00 1828.96 L3344.10 1838.24 L3359.19 1847.52 L3374.17 1856.80 L3389.26 1865.96 L3404.36 1875.24 L3419.34 1884.40 L3434.43 1893.68 L3449.41 1902.84 L3464.51 1912.00 L3479.60 1921.16 L3494.58 1930.31 L3509.67 1939.47 L3524.77 1948.63 L3539.74 1957.79 L3554.84 1966.82 L3569.94 1975.98 L3584.91 1985.01 L3600.01 1994.17 L3614.99 2003.20 L3630.08 2012.24 L3645.18 2021.40 L3660.15 2030.43 L3675.25 2039.46 L3690.35 2048.50 L3705.32 2057.41 L3720.42 2066.44 L3735.39 2075.48 L3750.49 2084.51 L3765.59 2093.42 L3780.56 2102.45 L3795.66 2111.36" stroke-linejoin="round" style="fill:none;stroke:#FF0000;stroke-width:8.64"/>
	<line x1="556.38" y1="2489.19" x2="556.38" y2="100.86" style="stroke:#000000;stroke-width:5.76"/>
	<line x1="556.38" y1="2360.73" x2="516.41" y2="2360.73" style="stroke:#000000;stroke-width:5.76"/>
	<text x="496.49" y="2395.76" style="font-family:'Helvetica';font-size:99.99px;fill:#000000" text-anchor="end">-1.50</text>
	<line x1="556.38" y1="1628.48" x2="516.41" y2="1628.48" style="stroke:#000000;stroke-width:5.76"/>
	<text x="496.49" y="1663.51" style="font-family:'Helvetica';font-size:99.99px;fill:#000000" text-anchor="end">-1.00</text>
	<line x1="556.38" y1="896.35" x2="516.41" y2="896.35" style="stroke:#000000;stroke-width:5.76"/>
	<text x="496.49" y="931.38" style="font-family:'Helvetica';font-size:99.99px;fill:#000000" text-anchor="end">-0.50</text>
	<line x1="556.38" y1="164.22" x2="516.41" y2="164.22" style="stroke:#000000;stroke-width:5.76"/>
	<text x="496.49" y="199.25" style="font-family:'Helvetica';font-size:99.99px;fill:#000000" text-anchor="end">0.00</text>
	<text x="190.71" y="1294.96" style="font-family:'Helvetica';font-size:99.99px;fill:#000000" transform="rotate(-90 190.71,1294.96)" text-anchor="middle">Difference in curves (%)</text>
	<line x1="556.38" y1="2489.19" x2="3859.02" y2="2489.19" style="stroke:#000000;stroke-width:5.76"/>
	<line x1="619.74" y1="2489.19" x2="619.74" y2="2529.16" style="stroke:#000000;stroke-width:5.76"/>
	<text x="619.74" y="2619.14" style="font-family:'Helvetica';font-size:99.99px;fill:#000000" text-anchor="middle">0</text>
	<line x1="1372.39" y1="2489.19" x2="1372.39" y2="2529.16" style="stroke:#000000;stroke-width:5.76"/>
	<text x="1372.39" y="2619.14" style="font-family:'Helvetica';font-size:99.99px;fill:#000000" text-anchor="middle">50</text>
	<line x1="2124.91" y1="2489.19" x2="2124.91" y2="2529.16" style="stroke:#000000;stroke-width:5.76"/>
	<text x="2124.91" y="2619.14" style="font-family:'Helvetica';font-size:99.99px;fill:#000000" text-anchor="middle">100</text>
	<line x1="2877.56" y1="2489.19" x2="2877.56" y2="2529.16" style="stroke:#000000;stroke-width:5.76"/>
	<text x="2877.56" y="2619.14" style="font-family:'Helvetica';font-size:99.99px;fill:#000000" text-anchor="middle">150</text>
	<line x1="3630.21" y1="2489.19" x2="3630.21" y2="2529.16" style="stroke:#000000;stroke-width:5.76"/>
	<text x="3630.21" y="2619.14" style="font-family:'Helvetica';font-size:99.99px;fill:#000000" text-anchor="middle">200</text>
	<text x="2207.70" y="2729.16" style="font-family:'Helvetica';font-size:99.99px;fill:#000000" text-anchor="middle">Days from 1 March 2020</text>
</svg>
