<?xml version="1.0" encoding="UTF-8" standalone="no"?>
<!-- This is a Stata 16.1 generated SVG file (http://www.stata.com) -->

<svg version="1.1" width="5.50in" height="4.00in" viewBox="0 0 3960 2880" xmlns="http://www.w3.org/2000/svg" xmlns:xlink="http://www.w3.org/1999/xlink">
	<desc>Stata Graph - Graph</desc>
	<rect x="0" y="0" width="3960" height="2880" style="fill:#EAF2F3;stroke:none"/>
	<rect x="0.00" y="0.00" width="3959.88" height="2880.00" style="fill:#EAF2F3"/>
	<rect x="2.88" y="2.88" width="3954.12" height="2874.24" style="fill:none;stroke:#EAF2F3;stroke-width:5.76"/>
	<rect x="521.73" y="100.86" width="3337.29" height="2388.33" style="fill:#FFFFFF"/>
	<rect x="524.61" y="103.74" width="3331.53" height="2382.57" style="fill:none;stroke:#FFFFFF;stroke-width:5.76"/>
	<line x1="521.73" y1="2425.82" x2="3859.02" y2="2425.82" style="stroke:#EAF2F3;stroke-width:8.64"/>
	<line x1="521.73" y1="2199.72" x2="3859.02" y2="2199.72" style="stroke:#EAF2F3;stroke-width:8.64"/>
	<line x1="521.73" y1="1973.50" x2="3859.02" y2="1973.50" style="stroke:#EAF2F3;stroke-width:8.64"/>
	<line x1="521.73" y1="1747.28" x2="3859.02" y2="1747.28" style="stroke:#EAF2F3;stroke-width:8.64"/>
	<line x1="521.73" y1="1521.18" x2="3859.02" y2="1521.18" style="stroke:#EAF2F3;stroke-width:8.64"/>
	<line x1="521.73" y1="1294.96" x2="3859.02" y2="1294.96" style="stroke:#EAF2F3;stroke-width:8.64"/>
	<line x1="521.73" y1="1068.86" x2="3859.02" y2="1068.86" style="stroke:#EAF2F3;stroke-width:8.64"/>
	<line x1="521.73" y1="842.64" x2="3859.02" y2="842.64" style="stroke:#EAF2F3;stroke-width:8.64"/>
	<line x1="521.73" y1="616.54" x2="3859.02" y2="616.54" style="stroke:#EAF2F3;stroke-width:8.64"/>
	<line x1="521.73" y1="390.32" x2="3859.02" y2="390.32" style="stroke:#EAF2F3;stroke-width:8.64"/>
	<defs>
		<path id="path_LctJFcIy" d="M600.31 2425.82 L600.31 2425.82 L615.53 2425.82 L630.75 2425.70 L645.98 2425.45 L661.20 2424.83 L676.42 2423.60 L691.64 2421.62 L706.86 2418.65 L722.08 2414.69 L737.30 2409.36 L752.52 2402.81 L767.75 2394.88 L782.97 2385.60 L798.19 2374.71 L813.41 2362.59 L828.63 2348.97 L843.85 2334.00 L859.07 2317.79 L874.29 2300.46 L889.51 2281.90 L904.61 2262.22 L919.83 2241.68 L935.05 2220.39 L950.28 2198.24 L965.50 2175.35 L980.72 2151.96 L995.94 2128.07 L1011.16 2103.82 L1026.38 2079.19 L1041.60 2054.31 L1056.83 2029.32 L1072.05 2004.19 L1087.27 1979.07 L1102.49 1953.95 L1117.71 1928.95 L1132.93 1904.08 L1148.15 1879.45 L1163.37 1855.07 L1178.60 1830.94 L1193.82 1807.18 L1209.04 1783.79 L1224.26 1760.89 L1239.48 1738.25 L1254.70 1716.09 L1269.80 1694.44 L1285.02 1673.15 L1300.24 1652.36 L1315.46 1632.07 L1330.68 1612.27 L1345.90 1592.84 L1361.13 1573.90 L1376.35 1555.46 L1391.57 1537.39 L1406.79 1519.82 L1422.01 1502.62 L1437.23 1486.04 L1452.45 1469.70 L1467.67 1453.86 L1482.90 1438.51 L1498.12 1423.42 L1513.34 1408.81 L1528.56 1394.58 L1543.78 1380.85 L1559.00 1367.36 L1574.22 1354.24 L1589.44 1341.49 L1604.67 1329.12 L1619.76 1317.11 L1634.98 1305.48 L1650.21 1294.09 L1665.43 1283.08 L1680.65 1272.31 L1695.87 1261.79 L1711.09 1251.65 L1726.31 1241.87 L1741.53 1232.22 L1756.76 1222.94 L1771.98 1213.90 L1787.20 1205.12 L1802.42 1196.58 L1817.64 1188.28 L1832.86 1180.24 L1848.08 1172.44 L1863.30 1164.77 L1878.53 1157.47 L1893.75 1150.29 L1908.97 1143.24 L1924.19 1136.56 L1939.41 1130.00 L1954.63 1123.56 L1969.85 1117.37 L1984.95 1111.31 L2000.17 1105.49 L2015.39 1099.80 L2030.61 1094.23 L2045.84 1088.91 L2061.06 1083.59 L2076.28 1078.51 L2091.50 1073.69 L2106.72 1068.86 L2121.94 1064.28 L2137.16 1059.70 L2152.38 1055.37 L2167.61 1051.04 L2182.83 1046.96 L2198.05 1042.87 L2213.27 1039.04 L2228.49 1035.20 L2243.71 1031.49 L2258.93 1027.90 L2274.15 1024.43 L2289.38 1021.09 L2304.60 1017.75 L2319.82 1014.53 L2335.04 1011.44 L2350.14 1008.47 L2365.36 1005.50 L2380.58 1002.65 L2395.80 999.81 L2411.02 997.21 L2426.24 994.49 L2441.46 992.01 L2456.68 989.54 L2471.91 987.06 L2487.13 984.71 L2502.35 982.48 L2517.57 980.25 L2532.79 978.15 L2548.01 976.05 L2563.23 973.94 L2578.45 972.09 L2593.68 970.11 L2608.90 968.25 L2624.12 966.39 L2639.34 964.66 L2654.56 962.93 L2669.78 961.20 L2685.00 959.59 L2700.22 957.98 L2715.32 956.49 L2730.54 955.01 L2745.76 953.52 L2760.99 952.04 L2776.21 950.68 L2791.43 949.32 L2806.65 948.08 L2821.87 946.72 L2837.09 945.48 L2852.31 944.24 L2867.53 943.13 L2882.76 941.89 L2897.98 940.78 L2913.20 939.66 L2928.42 938.67 L2943.64 937.56 L2958.86 936.57 L2974.08 935.58 L2989.30 934.59 L3004.53 933.72 L3019.75 932.73 L3034.97 931.87 L3050.19 931.00 L3065.41 930.13 L3080.51 929.27 L3095.73 928.53 L3110.95 927.66 L3126.17 926.92 L3141.39 926.17 L3156.61 925.43 L3171.84 924.69 L3187.06 923.95 L3202.28 923.20 L3217.50 922.59 L3232.72 921.84 L3247.94 921.22 L3263.16 920.61 L3278.39 919.99 L3293.61 919.37 L3308.83 918.75 L3324.05 918.13 L3339.27 917.51 L3354.49 917.02 L3369.71 916.40 L3384.93 915.78 L3400.16 915.28 L3415.38 914.79 L3430.47 914.17 L3445.70 913.67 L3460.92 913.18 L3476.14 912.68 L3491.36 912.19 L3506.58 911.69 L3521.80 911.20 L3537.02 910.70 L3552.24 910.21 L3567.47 909.84 L3582.69 909.34 L3597.91 908.85 L3613.13 908.35 L3628.35 907.98 L3643.57 907.49 L3658.79 907.12 L3674.01 906.62 L3689.24 906.25 L3704.46 905.75 L3719.68 905.38 L3734.90 904.89 L3750.12 904.52 L3765.34 904.15 L3780.56 903.65 L3795.66 903.28 L3795.66 761.83 L3780.56 762.20 L3765.34 762.70 L3750.12 763.19 L3734.90 763.56 L3719.68 764.06 L3704.46 764.55 L3689.24 765.05 L3674.01 765.54 L3658.79 765.91 L3643.57 766.41 L3628.35 766.90 L3613.13 767.40 L3597.91 767.89 L3582.69 768.39 L3567.47 768.88 L3552.24 769.38 L3537.02 769.87 L3521.80 770.49 L3506.58 770.99 L3491.36 771.48 L3476.14 772.10 L3460.92 772.60 L3445.70 773.21 L3430.47 773.71 L3415.38 774.33 L3400.16 774.82 L3384.93 775.44 L3369.71 776.06 L3354.49 776.68 L3339.27 777.30 L3324.05 777.92 L3308.83 778.54 L3293.61 779.28 L3278.39 779.90 L3263.16 780.64 L3247.94 781.26 L3232.72 782.00 L3217.50 782.74 L3202.28 783.49 L3187.06 784.23 L3171.84 784.97 L3156.61 785.84 L3141.39 786.58 L3126.17 787.45 L3110.95 788.19 L3095.73 789.05 L3080.51 790.04 L3065.41 790.91 L3050.19 791.78 L3034.97 792.77 L3019.75 793.76 L3004.53 794.75 L2989.30 795.74 L2974.08 796.73 L2958.86 797.84 L2943.64 798.95 L2928.42 800.07 L2913.20 801.18 L2897.98 802.42 L2882.76 803.53 L2867.53 804.77 L2852.31 806.13 L2837.09 807.37 L2821.87 808.73 L2806.65 810.09 L2791.43 811.58 L2776.21 812.94 L2760.99 814.42 L2745.76 816.03 L2730.54 817.64 L2715.32 819.25 L2700.22 820.86 L2685.00 822.59 L2669.78 824.32 L2654.56 826.18 L2639.34 828.04 L2624.12 829.89 L2608.90 831.87 L2593.68 833.85 L2578.45 835.96 L2563.23 838.06 L2548.01 840.29 L2532.79 842.52 L2517.57 844.87 L2502.35 847.22 L2487.13 849.69 L2471.91 852.17 L2456.68 854.77 L2441.46 857.49 L2426.24 860.21 L2411.02 863.06 L2395.80 865.91 L2380.58 868.88 L2365.36 871.97 L2350.14 875.19 L2335.04 878.40 L2319.82 881.75 L2304.60 885.21 L2289.38 888.80 L2274.15 892.39 L2258.93 896.23 L2243.71 900.06 L2228.49 904.02 L2213.27 908.11 L2198.05 912.31 L2182.83 916.77 L2167.61 921.22 L2152.38 925.80 L2137.16 930.51 L2121.94 935.46 L2106.72 940.41 L2091.50 945.60 L2076.28 950.92 L2061.06 956.37 L2045.84 962.06 L2030.61 967.88 L2015.39 973.82 L2000.17 980.01 L1984.95 986.32 L1969.85 992.75 L1954.63 999.56 L1939.41 1006.37 L1924.19 1013.54 L1908.97 1020.85 L1893.75 1028.39 L1878.53 1036.07 L1863.30 1044.11 L1848.08 1052.28 L1832.86 1060.69 L1817.64 1069.48 L1802.42 1078.39 L1787.20 1087.67 L1771.98 1097.08 L1756.76 1106.85 L1741.53 1116.88 L1726.31 1127.27 L1711.09 1137.92 L1695.87 1148.81 L1680.65 1160.07 L1665.43 1171.58 L1650.21 1183.58 L1634.98 1195.83 L1619.76 1208.33 L1604.67 1221.33 L1589.44 1234.69 L1574.22 1248.31 L1559.00 1262.41 L1543.78 1276.89 L1528.56 1291.74 L1513.34 1306.96 L1498.12 1322.68 L1482.90 1338.77 L1467.67 1355.35 L1452.45 1372.31 L1437.23 1389.76 L1422.01 1407.70 L1406.79 1426.02 L1391.57 1444.83 L1376.35 1464.13 L1361.13 1483.93 L1345.90 1504.23 L1330.68 1524.90 L1315.46 1546.18 L1300.24 1567.84 L1285.02 1590.11 L1269.80 1612.76 L1254.70 1635.90 L1239.48 1659.66 L1224.26 1683.67 L1209.04 1708.30 L1193.82 1733.30 L1178.60 1758.67 L1163.37 1784.41 L1148.15 1810.52 L1132.93 1836.88 L1117.71 1863.49 L1102.49 1890.22 L1087.27 1917.19 L1072.05 1944.17 L1056.83 1971.28 L1041.60 1998.25 L1026.38 2025.23 L1011.16 2051.96 L995.94 2078.45 L980.72 2104.56 L965.50 2130.30 L950.28 2155.42 L935.05 2180.05 L919.83 2203.93 L904.61 2227.07 L889.51 2249.23 L874.29 2270.39 L859.07 2290.56 L843.85 2309.37 L828.63 2327.07 L813.41 2343.28 L798.19 2358.13 L782.97 2371.50 L767.75 2383.25 L752.52 2393.40 L737.30 2402.06 L722.08 2409.12 L706.86 2414.69 L691.64 2418.89 L676.42 2421.99 L661.20 2423.97 L645.98 2425.08 L630.75 2425.58 L615.53 2425.82 L600.31 2425.82 L600.31 2425.82 Z" stroke-linejoin="round"/>
	</defs>
	<defs>
		<clipPath id="clipPath_JMjBmVAZ">
			<use xlink:href="#path_LctJFcIy"/>
		</clipPath>
	</defs>
	<use xlink:href="#path_LctJFcIy" style="stroke:none;fill:#3333FF;fill-opacity:0.25"/>
	<use xlink:href="#path_LctJFcIy" style="fill:none;stroke:#0000FF;stroke-opacity:0.25;stroke-width:17.28" clip-path="url(#clipPath_JMjBmVAZ)"/>
	<defs>
		<path id="path_okRRJNvM" d="M600.31 2425.82 L600.31 2425.82 L615.53 2425.82 L630.75 2425.70 L645.98 2425.58 L661.20 2424.96 L676.42 2423.97 L691.64 2422.36 L706.86 2420.01 L722.08 2416.79 L737.30 2412.46 L752.52 2407.26 L767.75 2400.83 L782.97 2393.28 L798.19 2384.61 L813.41 2374.84 L828.63 2363.95 L843.85 2351.94 L859.07 2338.95 L874.29 2325.09 L889.51 2310.36 L904.61 2294.77 L919.83 2278.43 L935.05 2261.35 L950.28 2243.78 L965.50 2225.71 L980.72 2207.27 L995.94 2188.34 L1011.16 2169.16 L1026.38 2149.73 L1041.60 2130.05 L1056.83 2110.37 L1072.05 2090.57 L1087.27 2070.77 L1102.49 2051.10 L1117.71 2031.42 L1132.93 2011.87 L1148.15 1992.56 L1163.37 1973.38 L1178.60 1954.44 L1193.82 1935.76 L1209.04 1917.32 L1224.26 1899.25 L1239.48 1881.55 L1254.70 1864.23 L1269.80 1847.15 L1285.02 1830.44 L1300.24 1814.11 L1315.46 1798.14 L1330.68 1782.55 L1345.90 1767.33 L1361.13 1752.48 L1376.35 1738.00 L1391.57 1723.77 L1406.79 1710.03 L1422.01 1696.54 L1437.23 1683.42 L1452.45 1670.68 L1467.67 1658.18 L1482.90 1646.05 L1498.12 1634.29 L1513.34 1622.78 L1528.56 1611.65 L1543.78 1600.76 L1559.00 1590.11 L1574.22 1579.84 L1589.44 1569.82 L1604.67 1560.17 L1619.76 1550.64 L1634.98 1541.48 L1650.21 1532.44 L1665.43 1523.78 L1680.65 1515.37 L1695.87 1507.07 L1711.09 1499.15 L1726.31 1491.36 L1741.53 1483.81 L1756.76 1476.51 L1771.98 1469.45 L1787.20 1462.52 L1802.42 1455.72 L1817.64 1449.28 L1832.86 1442.85 L1848.08 1436.66 L1863.30 1430.72 L1878.53 1424.90 L1893.75 1419.21 L1908.97 1413.76 L1924.19 1408.44 L1939.41 1403.25 L1954.63 1398.17 L1969.85 1393.34 L1984.95 1388.52 L2000.17 1383.94 L2015.39 1379.48 L2030.61 1375.15 L2045.84 1370.82 L2061.06 1366.74 L2076.28 1362.78 L2091.50 1358.94 L2106.72 1355.10 L2121.94 1351.52 L2137.16 1347.93 L2152.38 1344.46 L2167.61 1341.12 L2182.83 1337.78 L2198.05 1334.69 L2213.27 1331.59 L2228.49 1328.62 L2243.71 1325.65 L2258.93 1322.81 L2274.15 1320.08 L2289.38 1317.48 L2304.60 1314.88 L2319.82 1312.29 L2335.04 1309.93 L2350.14 1307.46 L2365.36 1305.23 L2380.58 1302.88 L2395.80 1300.78 L2411.02 1298.67 L2426.24 1296.57 L2441.46 1294.59 L2456.68 1292.61 L2471.91 1290.75 L2487.13 1288.90 L2502.35 1287.04 L2517.57 1285.31 L2532.79 1283.58 L2548.01 1281.97 L2563.23 1280.36 L2578.45 1278.87 L2593.68 1277.26 L2608.90 1275.78 L2624.12 1274.42 L2639.34 1273.06 L2654.56 1271.69 L2669.78 1270.33 L2685.00 1269.10 L2700.22 1267.86 L2715.32 1266.62 L2730.54 1265.38 L2745.76 1264.27 L2760.99 1263.16 L2776.21 1262.04 L2791.43 1260.93 L2806.65 1259.94 L2821.87 1258.95 L2837.09 1257.96 L2852.31 1256.97 L2867.53 1256.10 L2882.76 1255.11 L2897.98 1254.25 L2913.20 1253.38 L2928.42 1252.51 L2943.64 1251.77 L2958.86 1250.90 L2974.08 1250.16 L2989.30 1249.42 L3004.53 1248.68 L3019.75 1247.93 L3034.97 1247.19 L3050.19 1246.57 L3065.41 1245.83 L3080.51 1245.21 L3095.73 1244.59 L3110.95 1243.97 L3126.17 1243.36 L3141.39 1242.74 L3156.61 1242.12 L3171.84 1241.50 L3187.06 1241.00 L3202.28 1240.39 L3217.50 1239.89 L3232.72 1239.39 L3247.94 1238.78 L3263.16 1238.28 L3278.39 1237.79 L3293.61 1237.29 L3308.83 1236.80 L3324.05 1236.42 L3339.27 1235.93 L3354.49 1235.43 L3369.71 1235.06 L3384.93 1234.57 L3400.16 1234.20 L3415.38 1233.70 L3430.47 1233.33 L3445.70 1232.84 L3460.92 1232.46 L3476.14 1232.09 L3491.36 1231.72 L3506.58 1231.35 L3521.80 1230.98 L3537.02 1230.61 L3552.24 1230.11 L3567.47 1229.74 L3582.69 1229.49 L3597.91 1229.12 L3613.13 1228.75 L3628.35 1228.38 L3643.57 1228.01 L3658.79 1227.64 L3674.01 1227.27 L3689.24 1227.02 L3704.46 1226.65 L3719.68 1226.28 L3734.90 1226.03 L3750.12 1225.66 L3765.34 1225.29 L3780.56 1225.04 L3795.66 1224.67 L3795.66 990.53 L3780.56 990.90 L3765.34 991.39 L3750.12 991.76 L3734.90 992.13 L3719.68 992.51 L3704.46 993.00 L3689.24 993.37 L3674.01 993.74 L3658.79 994.11 L3643.57 994.61 L3628.35 994.98 L3613.13 995.48 L3597.91 995.85 L3582.69 996.22 L3567.47 996.71 L3552.24 997.21 L3537.02 997.58 L3521.80 998.07 L3506.58 998.45 L3491.36 998.94 L3476.14 999.44 L3460.92 999.93 L3445.70 1000.43 L3430.47 1000.92 L3415.38 1001.42 L3400.16 1001.91 L3384.93 1002.41 L3369.71 1002.90 L3354.49 1003.40 L3339.27 1004.02 L3324.05 1004.51 L3308.83 1005.13 L3293.61 1005.62 L3278.39 1006.24 L3263.16 1006.86 L3247.94 1007.48 L3232.72 1008.10 L3217.50 1008.72 L3202.28 1009.34 L3187.06 1009.96 L3171.84 1010.57 L3156.61 1011.32 L3141.39 1012.06 L3126.17 1012.68 L3110.95 1013.42 L3095.73 1014.16 L3080.51 1014.91 L3065.41 1015.77 L3050.19 1016.51 L3034.97 1017.38 L3019.75 1018.25 L3004.53 1019.11 L2989.30 1019.98 L2974.08 1020.85 L2958.86 1021.71 L2943.64 1022.70 L2928.42 1023.69 L2913.20 1024.68 L2897.98 1025.67 L2882.76 1026.79 L2867.53 1027.78 L2852.31 1028.89 L2837.09 1030.00 L2821.87 1031.24 L2806.65 1032.35 L2791.43 1033.59 L2776.21 1034.95 L2760.99 1036.19 L2745.76 1037.55 L2730.54 1038.91 L2715.32 1040.28 L2700.22 1041.76 L2685.00 1043.25 L2669.78 1044.73 L2654.56 1046.34 L2639.34 1047.95 L2624.12 1049.56 L2608.90 1051.29 L2593.68 1053.02 L2578.45 1054.75 L2563.23 1056.61 L2548.01 1058.59 L2532.79 1060.45 L2517.57 1062.55 L2502.35 1064.53 L2487.13 1066.63 L2471.91 1068.86 L2456.68 1071.09 L2441.46 1073.44 L2426.24 1075.79 L2411.02 1078.27 L2395.80 1080.74 L2380.58 1083.34 L2365.36 1086.06 L2350.14 1088.79 L2335.04 1091.63 L2319.82 1094.48 L2304.60 1097.45 L2289.38 1100.54 L2274.15 1103.76 L2258.93 1106.98 L2243.71 1110.32 L2228.49 1113.78 L2213.27 1117.37 L2198.05 1120.96 L2182.83 1124.80 L2167.61 1128.64 L2152.38 1132.60 L2137.16 1136.68 L2121.94 1140.89 L2106.72 1145.34 L2091.50 1149.80 L2076.28 1154.38 L2061.06 1159.08 L2045.84 1164.03 L2030.61 1168.98 L2015.39 1174.18 L2000.17 1179.50 L1984.95 1184.94 L1969.85 1190.64 L1954.63 1196.45 L1939.41 1202.39 L1924.19 1208.58 L1908.97 1214.89 L1893.75 1221.45 L1878.53 1228.13 L1863.30 1235.06 L1848.08 1242.12 L1832.86 1249.42 L1817.64 1256.97 L1802.42 1264.76 L1787.20 1272.68 L1771.98 1280.85 L1756.76 1289.39 L1741.53 1298.05 L1726.31 1306.96 L1711.09 1316.25 L1695.87 1325.65 L1680.65 1335.43 L1665.43 1345.45 L1650.21 1355.72 L1634.98 1366.37 L1619.76 1377.26 L1604.67 1388.52 L1589.44 1400.03 L1574.22 1411.91 L1559.00 1424.04 L1543.78 1436.53 L1528.56 1449.41 L1513.34 1462.65 L1498.12 1476.26 L1482.90 1490.24 L1467.67 1504.60 L1452.45 1519.33 L1437.23 1534.42 L1422.01 1549.89 L1406.79 1565.86 L1391.57 1582.19 L1376.35 1598.90 L1361.13 1615.98 L1345.90 1633.55 L1330.68 1651.62 L1315.46 1669.93 L1300.24 1688.75 L1285.02 1708.05 L1269.80 1727.73 L1254.70 1747.78 L1239.48 1768.32 L1224.26 1789.11 L1209.04 1810.40 L1193.82 1832.05 L1178.60 1854.08 L1163.37 1876.36 L1148.15 1899.00 L1132.93 1921.77 L1117.71 1944.79 L1102.49 1967.93 L1087.27 1991.20 L1072.05 2014.59 L1056.83 2037.85 L1041.60 2061.24 L1026.38 2084.39 L1011.16 2107.40 L995.94 2130.18 L980.72 2152.70 L965.50 2174.73 L950.28 2196.38 L935.05 2217.42 L919.83 2237.84 L904.61 2257.52 L889.51 2276.45 L874.29 2294.52 L859.07 2311.60 L843.85 2327.69 L828.63 2342.66 L813.41 2356.40 L798.19 2368.90 L782.97 2380.16 L767.75 2390.06 L752.52 2398.72 L737.30 2405.90 L722.08 2411.84 L706.86 2416.54 L691.64 2420.13 L676.42 2422.61 L661.20 2424.21 L645.98 2425.20 L630.75 2425.70 L615.53 2425.82 L600.31 2425.82 L600.31 2425.82 Z" stroke-linejoin="round"/>
	</defs>
	<defs>
		<clipPath id="clipPath_ZtrmrosE">
			<use xlink:href="#path_okRRJNvM"/>
		</clipPath>
	</defs>
	<use xlink:href="#path_okRRJNvM" style="stroke:none;fill:#FF3333;fill-opacity:0.25"/>
	<use xlink:href="#path_okRRJNvM" style="fill:none;stroke:#FF0000;stroke-opacity:0.25;stroke-width:17.28" clip-path="url(#clipPath_ZtrmrosE)"/>
	<path d=" M585.09 2425.95 L600.31 2425.95 L615.53 2425.95 L630.75 2425.70 L645.98 2425.33 L661.20 2424.46 L676.42 2422.98 L691.64 2420.50 L706.86 2416.91 L721.96 2412.21 L737.18 2406.15 L752.40 2398.60 L767.62 2389.56 L782.84 2379.04 L798.06 2367.04 L813.28 2353.67 L828.51 2338.70 L843.73 2322.49 L858.95 2305.04 L874.17 2286.23 L889.39 2266.43 L904.61 2245.64 L919.83 2223.73 L935.05 2201.21 L950.28 2177.82 L965.50 2153.81 L980.72 2129.31 L995.94 2104.31 L1011.16 2078.94 L1026.38 2053.20 L1041.60 2027.34 L1056.83 2001.35 L1072.05 1975.24 L1087.14 1949.12 L1102.37 1923.14 L1117.59 1897.27 L1132.81 1871.53 L1148.03 1846.04 L1163.25 1820.79 L1178.47 1795.92 L1193.69 1771.41 L1208.91 1747.16 L1224.13 1723.40 L1239.36 1700.01 L1254.58 1677.11 L1269.80 1654.71 L1285.02 1632.81 L1300.24 1611.28 L1315.46 1590.24 L1330.68 1569.82 L1345.90 1549.65 L1361.13 1530.09 L1376.35 1511.03 L1391.57 1492.35 L1406.79 1474.16 L1422.01 1456.46 L1437.23 1439.13 L1452.33 1422.30 L1467.55 1405.84 L1482.77 1389.88 L1497.99 1374.41 L1513.21 1359.19 L1528.44 1344.46 L1543.66 1330.11 L1558.88 1316.12 L1574.10 1302.63 L1589.32 1289.39 L1604.54 1276.52 L1619.76 1264.15 L1634.98 1251.89 L1650.21 1240.14 L1665.43 1228.63 L1680.65 1217.49 L1695.87 1206.72 L1711.09 1196.20 L1726.31 1185.93 L1741.53 1176.03 L1756.76 1166.26 L1771.98 1156.85 L1787.20 1147.82 L1802.30 1138.91 L1817.52 1130.24 L1832.74 1121.95 L1847.96 1113.78 L1863.18 1105.86 L1878.40 1098.19 L1893.62 1090.77 L1908.84 1083.47 L1924.07 1076.53 L1939.29 1069.60 L1954.51 1063.05 L1969.73 1056.49 L1984.95 1050.30 L2000.17 1044.24 L2015.39 1038.29 L2030.61 1032.48 L2045.84 1026.91 L2061.06 1021.46 L2076.28 1016.27 L2091.50 1011.19 L2106.72 1006.12 L2121.94 1001.29 L2137.16 996.59 L2152.38 992.13 L2167.48 987.68 L2182.70 983.35 L2197.92 979.14 L2213.14 975.06 L2228.37 971.10 L2243.59 967.38 L2258.81 963.55 L2274.03 959.96 L2289.25 956.49 L2304.47 953.03 L2319.69 949.69 L2334.91 946.47 L2350.14 943.38 L2365.36 940.28 L2380.58 937.31 L2395.80 934.47 L2411.02 931.62 L2426.24 928.90 L2441.46 926.30 L2456.68 923.70 L2471.91 921.22 L2487.13 918.75 L2502.35 916.40 L2517.57 914.17 L2532.67 911.94 L2547.89 909.71 L2563.11 907.61 L2578.33 905.51 L2593.55 903.53 L2608.77 901.67 L2623.99 899.69 L2639.22 897.96 L2654.44 896.10 L2669.66 894.37 L2684.88 892.64 L2700.10 891.03 L2715.32 889.42 L2730.54 887.81 L2745.76 886.33 L2760.99 884.84 L2776.21 883.48 L2791.43 881.99 L2806.65 880.63 L2821.87 879.39 L2837.09 878.03 L2852.31 876.80 L2867.53 875.56 L2882.76 874.32 L2897.85 873.21 L2913.07 872.09 L2928.30 870.98 L2943.52 869.87 L2958.74 868.88 L2973.96 867.76 L2989.18 866.77 L3004.40 865.78 L3019.62 864.79 L3034.84 863.93 L3050.07 863.06 L3065.29 862.07 L3080.51 861.20 L3095.73 860.46 L3110.95 859.59 L3126.17 858.73 L3141.39 857.99 L3156.61 857.24 L3171.84 856.38 L3187.06 855.63 L3202.28 855.02 L3217.50 854.27 L3232.72 853.53 L3247.94 852.91 L3263.04 852.17 L3278.26 851.55 L3293.48 850.93 L3308.70 850.31 L3323.93 849.69 L3339.15 849.08 L3354.37 848.46 L3369.59 847.84 L3384.81 847.22 L3400.03 846.72 L3415.25 846.11 L3430.47 845.61 L3445.70 845.12 L3460.92 844.50 L3476.14 844.00 L3491.36 843.51 L3506.58 843.01 L3521.80 842.52 L3537.02 841.90 L3552.24 841.40 L3567.47 841.03 L3582.69 840.54 L3597.91 840.04 L3613.01 839.55 L3628.23 839.05 L3643.45 838.56 L3658.67 838.18 L3673.89 837.69 L3689.11 837.19 L3704.33 836.82 L3719.55 836.33 L3734.78 835.96 L3750.00 835.46 L3765.22 835.09 L3780.44 834.60 L3795.66 834.22" stroke-linejoin="round" style="fill:none;stroke:#0000FF;stroke-width:8.64"/>
	<path d=" M585.09 2425.95 L600.31 2425.95 L615.53 2425.95 L630.75 2425.82 L645.98 2425.45 L661.20 2424.71 L676.42 2423.47 L691.64 2421.49 L706.86 2418.52 L721.96 2414.69 L737.18 2409.61 L752.40 2403.42 L767.62 2396.00 L782.84 2387.34 L798.06 2377.44 L813.28 2366.42 L828.51 2354.17 L843.73 2340.80 L858.95 2326.33 L874.17 2310.86 L889.39 2294.52 L904.61 2277.32 L919.83 2259.37 L935.05 2240.81 L950.28 2221.51 L965.50 2201.71 L980.72 2181.53 L995.94 2160.87 L1011.16 2139.95 L1026.38 2118.79 L1041.60 2097.50 L1056.83 2076.09 L1072.05 2054.56 L1087.14 2033.03 L1102.37 2011.62 L1117.59 1990.33 L1132.81 1969.05 L1148.03 1948.13 L1163.25 1927.22 L1178.47 1906.68 L1193.69 1886.50 L1208.91 1866.58 L1224.13 1846.90 L1239.36 1827.72 L1254.58 1808.79 L1269.80 1790.35 L1285.02 1772.16 L1300.24 1754.46 L1315.46 1737.13 L1330.68 1720.18 L1345.90 1703.60 L1361.13 1687.51 L1376.35 1671.67 L1391.57 1656.32 L1406.79 1641.35 L1422.01 1626.62 L1437.23 1612.39 L1452.33 1598.53 L1467.55 1584.92 L1482.77 1571.80 L1497.99 1558.93 L1513.21 1546.43 L1528.44 1534.30 L1543.66 1522.42 L1558.88 1510.91 L1574.10 1499.77 L1589.32 1488.88 L1604.54 1478.24 L1619.76 1467.97 L1634.98 1457.94 L1650.21 1448.17 L1665.43 1438.64 L1680.65 1429.48 L1695.87 1420.57 L1711.09 1411.91 L1726.31 1403.37 L1741.53 1395.20 L1756.76 1387.16 L1771.98 1379.48 L1787.20 1371.94 L1802.30 1364.63 L1817.52 1357.46 L1832.74 1350.53 L1847.96 1343.84 L1863.18 1337.28 L1878.40 1330.97 L1893.62 1324.79 L1908.84 1318.84 L1924.07 1313.03 L1939.29 1307.34 L1954.51 1301.89 L1969.73 1296.57 L1984.95 1291.37 L2000.17 1286.42 L2015.39 1281.47 L2030.61 1276.77 L2045.84 1272.07 L2061.06 1267.61 L2076.28 1263.28 L2091.50 1259.07 L2106.72 1254.99 L2121.94 1251.03 L2137.16 1247.07 L2152.38 1243.36 L2167.48 1239.64 L2182.70 1236.05 L2197.92 1232.71 L2213.14 1229.25 L2228.37 1226.03 L2243.59 1222.94 L2258.81 1219.84 L2274.03 1216.87 L2289.25 1213.90 L2304.47 1211.06 L2319.69 1208.33 L2334.91 1205.61 L2350.14 1203.14 L2365.36 1200.54 L2380.58 1198.06 L2395.80 1195.71 L2411.02 1193.36 L2426.24 1191.13 L2441.46 1189.03 L2456.68 1186.92 L2471.91 1184.82 L2487.13 1182.84 L2502.35 1180.86 L2517.57 1179.00 L2532.67 1177.15 L2547.89 1175.29 L2563.11 1173.56 L2578.33 1171.83 L2593.55 1170.22 L2608.77 1168.61 L2623.99 1167.00 L2639.22 1165.51 L2654.44 1164.03 L2669.66 1162.67 L2684.88 1161.18 L2700.10 1159.82 L2715.32 1158.58 L2730.54 1157.22 L2745.76 1155.98 L2760.99 1154.75 L2776.21 1153.63 L2791.43 1152.40 L2806.65 1151.28 L2821.87 1150.17 L2837.09 1149.18 L2852.31 1148.06 L2867.53 1147.07 L2882.76 1146.08 L2897.85 1145.09 L2913.07 1144.23 L2928.30 1143.24 L2943.52 1142.37 L2958.74 1141.51 L2973.96 1140.64 L2989.18 1139.77 L3004.40 1139.03 L3019.62 1138.29 L3034.84 1137.42 L3050.07 1136.68 L3065.29 1135.94 L3080.51 1135.32 L3095.73 1134.58 L3110.95 1133.83 L3126.17 1133.21 L3141.39 1132.60 L3156.61 1131.85 L3171.84 1131.23 L3187.06 1130.62 L3202.28 1130.12 L3217.50 1129.50 L3232.72 1128.88 L3247.94 1128.39 L3263.04 1127.77 L3278.26 1127.27 L3293.48 1126.66 L3308.70 1126.16 L3323.93 1125.67 L3339.15 1125.17 L3354.37 1124.68 L3369.59 1124.18 L3384.81 1123.69 L3400.03 1123.19 L3415.25 1122.82 L3430.47 1122.32 L3445.70 1121.83 L3460.92 1121.46 L3476.14 1120.96 L3491.36 1120.59 L3506.58 1120.10 L3521.80 1119.72 L3537.02 1119.35 L3552.24 1118.86 L3567.47 1118.49 L3582.69 1118.12 L3597.91 1117.74 L3613.01 1117.37 L3628.23 1116.88 L3643.45 1116.51 L3658.67 1116.14 L3673.89 1115.76 L3689.11 1115.39 L3704.33 1115.02 L3719.55 1114.65 L3734.78 1114.28 L3750.00 1113.91 L3765.22 1113.54 L3780.44 1113.29 L3795.66 1112.92" stroke-linejoin="round" style="fill:none;stroke:#FF0000;stroke-width:8.64"/>
	<line x1="521.73" y1="2489.19" x2="521.73" y2="100.86" style="stroke:#000000;stroke-width:5.76"/>
	<line x1="521.73" y1="2425.82" x2="481.76" y2="2425.82" style="stroke:#000000;stroke-width:5.76"/>
	<text x="461.83" y="2460.85" style="font-family:'Helvetica';font-size:99.99px;fill:#000000" text-anchor="end">0.00</text>
	<line x1="521.73" y1="2199.72" x2="481.76" y2="2199.72" style="stroke:#000000;stroke-width:5.76"/>
	<text x="461.83" y="2234.75" style="font-family:'Helvetica';font-size:99.99px;fill:#000000" text-anchor="end">0.10</text>
	<line x1="521.73" y1="1973.50" x2="481.76" y2="1973.50" style="stroke:#000000;stroke-width:5.76"/>
	<text x="461.83" y="2008.53" style="font-family:'Helvetica';font-size:99.99px;fill:#000000" text-anchor="end">0.20</text>
	<line x1="521.73" y1="1747.28" x2="481.76" y2="1747.28" style="stroke:#000000;stroke-width:5.76"/>
	<text x="461.83" y="1782.31" style="font-family:'Helvetica';font-size:99.99px;fill:#000000" text-anchor="end">0.30</text>
	<line x1="521.73" y1="1521.18" x2="481.76" y2="1521.18" style="stroke:#000000;stroke-width:5.76"/>
	<text x="461.83" y="1556.21" style="font-family:'Helvetica';font-size:99.99px;fill:#000000" text-anchor="end">0.40</text>
	<line x1="521.73" y1="1294.96" x2="481.76" y2="1294.96" style="stroke:#000000;stroke-width:5.76"/>
	<text x="461.83" y="1329.99" style="font-family:'Helvetica';font-size:99.99px;fill:#000000" text-anchor="end">0.50</text>
	<line x1="521.73" y1="1068.86" x2="481.76" y2="1068.86" style="stroke:#000000;stroke-width:5.76"/>
	<text x="461.83" y="1103.89" style="font-family:'Helvetica';font-size:99.99px;fill:#000000" text-anchor="end">0.60</text>
	<line x1="521.73" y1="842.64" x2="481.76" y2="842.64" style="stroke:#000000;stroke-width:5.76"/>
	<text x="461.83" y="877.67" style="font-family:'Helvetica';font-size:99.99px;fill:#000000" text-anchor="end">0.70</text>
	<line x1="521.73" y1="616.54" x2="481.76" y2="616.54" style="stroke:#000000;stroke-width:5.76"/>
	<text x="461.83" y="651.57" style="font-family:'Helvetica';font-size:99.99px;fill:#000000" text-anchor="end">0.80</text>
	<line x1="521.73" y1="390.32" x2="481.76" y2="390.32" style="stroke:#000000;stroke-width:5.76"/>
	<text x="461.83" y="425.35" style="font-family:'Helvetica';font-size:99.99px;fill:#000000" text-anchor="end">0.90</text>
	<line x1="521.73" y1="164.22" x2="481.76" y2="164.22" style="stroke:#000000;stroke-width:5.76"/>
	<text x="461.83" y="199.25" style="font-family:'Helvetica';font-size:99.99px;fill:#000000" text-anchor="end">1.00</text>
	<text x="190.71" y="1294.96" style="font-family:'Helvetica';font-size:99.99px;fill:#000000" transform="rotate(-90 190.71,1294.96)" text-anchor="middle">Cumulative incidence (%)</text>
	<line x1="521.73" y1="2489.19" x2="3859.02" y2="2489.19" style="stroke:#000000;stroke-width:5.76"/>
	<line x1="585.09" y1="2489.19" x2="585.09" y2="2529.16" style="stroke:#000000;stroke-width:5.76"/>
	<text x="585.09" y="2619.14" style="font-family:'Helvetica';font-size:99.99px;fill:#000000" text-anchor="middle">0</text>
	<line x1="1345.90" y1="2489.19" x2="1345.90" y2="2529.16" style="stroke:#000000;stroke-width:5.76"/>
	<text x="1345.90" y="2619.14" style="font-family:'Helvetica';font-size:99.99px;fill:#000000" text-anchor="middle">50</text>
	<line x1="2106.72" y1="2489.19" x2="2106.72" y2="2529.16" style="stroke:#000000;stroke-width:5.76"/>
	<text x="2106.72" y="2619.14" style="font-family:'Helvetica';font-size:99.99px;fill:#000000" text-anchor="middle">100</text>
	<line x1="2867.53" y1="2489.19" x2="2867.53" y2="2529.16" style="stroke:#000000;stroke-width:5.76"/>
	<text x="2867.53" y="2619.14" style="font-family:'Helvetica';font-size:99.99px;fill:#000000" text-anchor="middle">150</text>
	<line x1="3628.35" y1="2489.19" x2="3628.35" y2="2529.16" style="stroke:#000000;stroke-width:5.76"/>
	<text x="3628.35" y="2619.14" style="font-family:'Helvetica';font-size:99.99px;fill:#000000" text-anchor="middle">200</text>
	<text x="2190.38" y="2729.16" style="font-family:'Helvetica';font-size:99.99px;fill:#000000" text-anchor="middle">Days from 1 March 2020</text>
	<rect x="2717.80" y="2128.20" width="1106.70" height="326.46" style="fill:#FFFFFF"/>
	<rect x="2720.68" y="2131.08" width="1100.94" height="320.70" style="fill:none;stroke:#000000;stroke-width:5.76"/>
	<rect x="2761.11" y="2171.51" width="374.34" height="99.99" style="fill:#3333FF;fill-opacity:0.25"/>
	<rect x="2765.43" y="2175.83" width="365.70" height="91.35" style="fill:none;stroke:#0000FF;stroke-opacity:0.25;stroke-width:8.64"/>
	<rect x="2761.11" y="2311.47" width="374.34" height="99.99" style="fill:#FF3333;fill-opacity:0.25"/>
	<rect x="2765.43" y="2315.79" width="365.70" height="91.35" style="fill:none;stroke:#FF0000;stroke-opacity:0.25;stroke-width:8.64"/>
	<text x="3195.47" y="2256.53" style="font-family:'Helvetica';font-size:99.99px;fill:#000000">DOAC use</text>
	<text x="3195.47" y="2396.50" style="font-family:'Helvetica';font-size:99.99px;fill:#000000">Warfarin use</text>
</svg>
