<?xml version="1.0" encoding="UTF-8" standalone="no"?>
<!-- This is a Stata 16.1 generated SVG file (http://www.stata.com) -->

<svg version="1.1" width="5.50in" height="4.00in" viewBox="0 0 3960 2880" xmlns="http://www.w3.org/2000/svg" xmlns:xlink="http://www.w3.org/1999/xlink">
	<desc>Stata Graph - Graph</desc>
	<rect x="0" y="0" width="3960" height="2880" style="fill:#EAF2F3;stroke:none"/>
	<rect x="0.00" y="0.00" width="3959.88" height="2880.00" style="fill:#EAF2F3"/>
	<rect x="2.88" y="2.88" width="3954.12" height="2874.24" style="fill:none;stroke:#EAF2F3;stroke-width:5.76"/>
	<rect x="521.73" y="100.86" width="3337.29" height="2388.33" style="fill:#FFFFFF"/>
	<rect x="524.61" y="103.74" width="3331.53" height="2382.57" style="fill:none;stroke:#FFFFFF;stroke-width:5.76"/>
	<line x1="521.73" y1="2425.82" x2="3859.02" y2="2425.82" style="stroke:#EAF2F3;stroke-width:8.64"/>
	<line x1="521.73" y1="1973.50" x2="3859.02" y2="1973.50" style="stroke:#EAF2F3;stroke-width:8.64"/>
	<line x1="521.73" y1="1521.18" x2="3859.02" y2="1521.18" style="stroke:#EAF2F3;stroke-width:8.64"/>
	<line x1="521.73" y1="1068.86" x2="3859.02" y2="1068.86" style="stroke:#EAF2F3;stroke-width:8.64"/>
	<line x1="521.73" y1="616.54" x2="3859.02" y2="616.54" style="stroke:#EAF2F3;stroke-width:8.64"/>
	<defs>
		<path id="path_ORNDiqlg" d="M600.31 2418.03 L600.31 2418.03 L615.53 2408.50 L630.75 2398.47 L645.98 2388.08 L661.20 2377.68 L676.42 2367.16 L691.64 2356.52 L706.86 2346.00 L722.08 2335.48 L737.30 2324.84 L752.52 2314.44 L767.75 2303.93 L782.97 2293.53 L798.19 2283.14 L813.41 2272.74 L828.63 2262.47 L843.85 2252.20 L859.07 2242.05 L874.29 2231.90 L889.51 2221.88 L904.61 2211.73 L919.83 2201.83 L935.05 2191.80 L950.28 2181.90 L965.50 2172.00 L980.72 2162.23 L995.94 2152.45 L1011.16 2142.67 L1026.38 2133.02 L1041.60 2123.37 L1056.83 2113.72 L1072.05 2104.19 L1087.27 2094.66 L1102.49 2085.13 L1117.71 2075.72 L1132.93 2066.32 L1148.15 2056.91 L1163.37 2047.63 L1178.60 2038.35 L1193.82 2029.07 L1209.04 2019.79 L1224.26 2010.63 L1239.48 2001.47 L1254.70 1992.44 L1269.80 1983.28 L1285.02 1974.25 L1300.24 1965.21 L1315.46 1956.30 L1330.68 1947.39 L1345.90 1938.48 L1361.13 1929.57 L1376.35 1920.66 L1391.57 1911.87 L1406.79 1903.09 L1422.01 1894.42 L1437.23 1885.64 L1452.45 1876.97 L1467.67 1868.31 L1482.90 1859.77 L1498.12 1851.11 L1513.34 1842.57 L1528.56 1834.03 L1543.78 1825.49 L1559.00 1817.08 L1574.22 1808.66 L1589.44 1800.25 L1604.67 1791.83 L1619.76 1783.42 L1634.98 1775.13 L1650.21 1766.71 L1665.43 1758.42 L1680.65 1750.13 L1695.87 1741.84 L1711.09 1733.67 L1726.31 1725.38 L1741.53 1717.21 L1756.76 1709.04 L1771.98 1700.87 L1787.20 1692.71 L1802.42 1684.54 L1817.64 1676.49 L1832.86 1668.33 L1848.08 1660.28 L1863.30 1652.24 L1878.53 1644.19 L1893.75 1636.15 L1908.97 1628.11 L1924.19 1620.06 L1939.41 1612.02 L1954.63 1604.10 L1969.85 1596.05 L1984.95 1588.13 L2000.17 1580.21 L2015.39 1572.17 L2030.61 1564.25 L2045.84 1556.33 L2061.06 1548.41 L2076.28 1540.49 L2091.50 1532.57 L2106.72 1524.77 L2121.94 1516.85 L2137.16 1508.93 L2152.38 1501.13 L2167.61 1493.21 L2182.83 1485.42 L2198.05 1477.50 L2213.27 1469.70 L2228.49 1461.78 L2243.71 1453.98 L2258.93 1446.19 L2274.15 1438.27 L2289.38 1430.47 L2304.60 1422.67 L2319.82 1414.88 L2335.04 1407.08 L2350.14 1399.28 L2365.36 1391.49 L2380.58 1383.57 L2395.80 1375.77 L2411.02 1367.98 L2426.24 1360.18 L2441.46 1352.38 L2456.68 1344.59 L2471.91 1336.79 L2487.13 1328.99 L2502.35 1321.20 L2517.57 1313.40 L2532.79 1305.73 L2548.01 1297.93 L2563.23 1290.13 L2578.45 1282.34 L2593.68 1274.54 L2608.90 1266.74 L2624.12 1258.95 L2639.34 1251.15 L2654.56 1243.36 L2669.78 1235.56 L2685.00 1227.76 L2700.22 1219.97 L2715.32 1212.17 L2730.54 1204.37 L2745.76 1196.58 L2760.99 1188.78 L2776.21 1180.98 L2791.43 1173.19 L2806.65 1165.39 L2821.87 1157.72 L2837.09 1149.92 L2852.31 1142.12 L2867.53 1134.33 L2882.76 1126.53 L2897.98 1118.73 L2913.20 1110.94 L2928.42 1103.14 L2943.64 1095.47 L2958.86 1087.67 L2974.08 1079.88 L2989.30 1072.08 L3004.53 1064.41 L3019.75 1056.61 L3034.97 1048.81 L3050.19 1041.14 L3065.41 1033.34 L3080.51 1025.67 L3095.73 1017.88 L3110.95 1010.20 L3126.17 1002.41 L3141.39 994.73 L3156.61 986.94 L3171.84 979.26 L3187.06 971.47 L3202.28 963.80 L3217.50 956.12 L3232.72 948.45 L3247.94 940.65 L3263.16 932.98 L3278.39 925.31 L3293.61 917.63 L3308.83 909.96 L3324.05 902.29 L3339.27 894.62 L3354.49 886.94 L3369.71 879.27 L3384.93 871.72 L3400.16 864.05 L3415.38 856.38 L3430.47 848.70 L3445.70 841.16 L3460.92 833.48 L3476.14 825.93 L3491.36 818.26 L3506.58 810.71 L3521.80 803.04 L3537.02 795.49 L3552.24 787.94 L3567.47 780.39 L3582.69 772.72 L3597.91 765.17 L3613.13 757.62 L3628.35 750.07 L3643.57 742.52 L3658.79 734.97 L3674.01 727.43 L3689.24 720.00 L3704.46 712.45 L3719.68 704.90 L3734.90 697.48 L3750.12 689.93 L3765.34 682.38 L3780.56 674.95 L3795.66 667.53 L3795.66 604.17 L3780.56 611.96 L3765.34 619.64 L3750.12 627.43 L3734.90 635.10 L3719.68 642.90 L3704.46 650.70 L3689.24 658.49 L3674.01 666.17 L3658.79 673.96 L3643.57 681.76 L3628.35 689.56 L3613.13 697.35 L3597.91 705.15 L3582.69 712.95 L3567.47 720.74 L3552.24 728.54 L3537.02 736.34 L3521.80 744.13 L3506.58 751.93 L3491.36 759.72 L3476.14 767.52 L3460.92 775.32 L3445.70 783.11 L3430.47 791.03 L3415.38 798.83 L3400.16 806.63 L3384.93 814.42 L3369.71 822.34 L3354.49 830.14 L3339.27 837.94 L3324.05 845.86 L3308.83 853.65 L3293.61 861.57 L3278.39 869.37 L3263.16 877.29 L3247.94 885.09 L3232.72 893.01 L3217.50 900.80 L3202.28 908.72 L3187.06 916.52 L3171.84 924.44 L3156.61 932.36 L3141.39 940.16 L3126.17 948.08 L3110.95 956.00 L3095.73 963.92 L3080.51 971.72 L3065.41 979.64 L3050.19 987.56 L3034.97 995.48 L3019.75 1003.40 L3004.53 1011.19 L2989.30 1019.11 L2974.08 1027.03 L2958.86 1034.95 L2943.64 1042.87 L2928.42 1050.79 L2913.20 1058.71 L2897.98 1066.63 L2882.76 1074.55 L2867.53 1082.48 L2852.31 1090.40 L2837.09 1098.32 L2821.87 1106.36 L2806.65 1114.28 L2791.43 1122.20 L2776.21 1130.12 L2760.99 1138.04 L2745.76 1145.96 L2730.54 1154.00 L2715.32 1161.93 L2700.22 1169.85 L2685.00 1177.89 L2669.78 1185.81 L2654.56 1193.73 L2639.34 1201.77 L2624.12 1209.69 L2608.90 1217.61 L2593.68 1225.66 L2578.45 1233.58 L2563.23 1241.62 L2548.01 1249.54 L2532.79 1257.46 L2517.57 1265.51 L2502.35 1273.55 L2487.13 1281.47 L2471.91 1289.52 L2456.68 1297.44 L2441.46 1305.48 L2426.24 1313.52 L2411.02 1321.44 L2395.80 1329.49 L2380.58 1337.53 L2365.36 1345.58 L2350.14 1353.62 L2335.04 1361.66 L2319.82 1369.58 L2304.60 1377.63 L2289.38 1385.67 L2274.15 1393.84 L2258.93 1401.88 L2243.71 1409.93 L2228.49 1417.97 L2213.27 1426.02 L2198.05 1434.18 L2182.83 1442.23 L2167.61 1450.40 L2152.38 1458.44 L2137.16 1466.61 L2121.94 1474.65 L2106.72 1482.82 L2091.50 1490.99 L2076.28 1499.03 L2061.06 1507.20 L2045.84 1515.37 L2030.61 1523.53 L2015.39 1531.83 L2000.17 1539.99 L1984.95 1548.16 L1969.85 1556.33 L1954.63 1564.62 L1939.41 1572.79 L1924.19 1581.08 L1908.97 1589.37 L1893.75 1597.54 L1878.53 1605.83 L1863.30 1614.12 L1848.08 1622.54 L1832.86 1630.83 L1817.64 1639.12 L1802.42 1647.54 L1787.20 1655.83 L1771.98 1664.24 L1756.76 1672.66 L1741.53 1681.07 L1726.31 1689.49 L1711.09 1697.90 L1695.87 1706.44 L1680.65 1714.86 L1665.43 1723.40 L1650.21 1731.94 L1634.98 1740.47 L1619.76 1749.01 L1604.67 1757.68 L1589.44 1766.22 L1574.22 1774.88 L1559.00 1783.54 L1543.78 1792.33 L1528.56 1800.99 L1513.34 1809.78 L1498.12 1818.56 L1482.90 1827.35 L1467.67 1836.26 L1452.45 1845.17 L1437.23 1854.08 L1422.01 1862.99 L1406.79 1872.02 L1391.57 1881.06 L1376.35 1890.09 L1361.13 1899.25 L1345.90 1908.41 L1330.68 1917.57 L1315.46 1926.85 L1300.24 1936.13 L1285.02 1945.41 L1269.80 1954.82 L1254.70 1964.10 L1239.48 1973.63 L1224.26 1983.03 L1209.04 1992.56 L1193.82 2002.21 L1178.60 2011.87 L1163.37 2021.52 L1148.15 2031.17 L1132.93 2040.95 L1117.71 2050.73 L1102.49 2060.63 L1087.27 2070.53 L1072.05 2080.43 L1056.83 2090.45 L1041.60 2100.60 L1026.38 2110.62 L1011.16 2120.77 L995.94 2131.04 L980.72 2141.31 L965.50 2151.58 L950.28 2161.98 L935.05 2172.38 L919.83 2182.89 L904.61 2193.41 L889.51 2204.06 L874.29 2214.70 L859.07 2225.34 L843.85 2236.11 L828.63 2247.00 L813.41 2257.77 L798.19 2268.78 L782.97 2279.67 L767.75 2290.68 L752.52 2301.82 L737.30 2312.96 L722.08 2324.10 L706.86 2335.36 L691.64 2346.62 L676.42 2358.01 L661.20 2369.27 L645.98 2380.78 L630.75 2392.16 L615.53 2403.55 L600.31 2414.93 L600.31 2418.03 Z" stroke-linejoin="round"/>
	</defs>
	<defs>
		<clipPath id="clipPath_zbFtbFuq">
			<use xlink:href="#path_ORNDiqlg"/>
		</clipPath>
	</defs>
	<use xlink:href="#path_ORNDiqlg" style="stroke:none;fill:#3333FF;fill-opacity:0.25"/>
	<use xlink:href="#path_ORNDiqlg" style="fill:none;stroke:#0000FF;stroke-opacity:0.25;stroke-width:17.28" clip-path="url(#clipPath_zbFtbFuq)"/>
	<defs>
		<path id="path_FUFvcwlu" d="M600.31 2419.02 L600.31 2419.02 L615.53 2410.73 L630.75 2401.94 L645.98 2392.90 L661.20 2383.87 L676.42 2374.71 L691.64 2365.56 L706.86 2356.40 L722.08 2347.24 L737.30 2338.08 L752.52 2328.92 L767.75 2319.89 L782.97 2310.86 L798.19 2301.82 L813.41 2292.91 L828.63 2284.00 L843.85 2275.09 L859.07 2266.18 L874.29 2257.39 L889.51 2248.73 L904.61 2239.94 L919.83 2231.28 L935.05 2222.74 L950.28 2214.08 L965.50 2205.54 L980.72 2197.00 L995.94 2188.59 L1011.16 2180.17 L1026.38 2171.76 L1041.60 2163.34 L1056.83 2155.05 L1072.05 2146.76 L1087.27 2138.47 L1102.49 2130.30 L1117.71 2122.13 L1132.93 2113.96 L1148.15 2105.80 L1163.37 2097.75 L1178.60 2089.71 L1193.82 2081.66 L1209.04 2073.74 L1224.26 2065.82 L1239.48 2057.90 L1254.70 2049.98 L1269.80 2042.06 L1285.02 2034.27 L1300.24 2026.47 L1315.46 2018.67 L1330.68 2011.00 L1345.90 2003.20 L1361.13 1995.53 L1376.35 1987.98 L1391.57 1980.31 L1406.79 1972.76 L1422.01 1965.09 L1437.23 1957.54 L1452.45 1950.11 L1467.67 1942.56 L1482.90 1935.14 L1498.12 1927.71 L1513.34 1920.29 L1528.56 1912.99 L1543.78 1905.56 L1559.00 1898.26 L1574.22 1890.96 L1589.44 1883.66 L1604.67 1876.36 L1619.76 1869.18 L1634.98 1861.88 L1650.21 1854.70 L1665.43 1847.52 L1680.65 1840.34 L1695.87 1833.17 L1711.09 1825.99 L1726.31 1818.93 L1741.53 1811.76 L1756.76 1804.70 L1771.98 1797.65 L1787.20 1790.59 L1802.42 1783.54 L1817.64 1776.49 L1832.86 1769.43 L1848.08 1762.50 L1863.30 1755.45 L1878.53 1748.52 L1893.75 1741.59 L1908.97 1734.53 L1924.19 1727.60 L1939.41 1720.67 L1954.63 1713.74 L1969.85 1706.81 L1984.95 1699.88 L2000.17 1692.95 L2015.39 1686.15 L2030.61 1679.22 L2045.84 1672.41 L2061.06 1665.48 L2076.28 1658.67 L2091.50 1651.74 L2106.72 1644.94 L2121.94 1638.01 L2137.16 1631.20 L2152.38 1624.39 L2167.61 1617.59 L2182.83 1610.78 L2198.05 1603.97 L2213.27 1597.17 L2228.49 1590.36 L2243.71 1583.55 L2258.93 1576.75 L2274.15 1569.94 L2289.38 1563.14 L2304.60 1556.33 L2319.82 1549.52 L2335.04 1542.72 L2350.14 1535.91 L2365.36 1529.23 L2380.58 1522.42 L2395.80 1515.61 L2411.02 1508.81 L2426.24 1502.12 L2441.46 1495.32 L2456.68 1488.51 L2471.91 1481.83 L2487.13 1475.02 L2502.35 1468.22 L2517.57 1461.53 L2532.79 1454.73 L2548.01 1447.92 L2563.23 1441.24 L2578.45 1434.43 L2593.68 1427.62 L2608.90 1420.94 L2624.12 1414.14 L2639.34 1407.33 L2654.56 1400.65 L2669.78 1393.84 L2685.00 1387.03 L2700.22 1380.35 L2715.32 1373.54 L2730.54 1366.74 L2745.76 1360.06 L2760.99 1353.25 L2776.21 1346.44 L2791.43 1339.76 L2806.65 1332.95 L2821.87 1326.15 L2837.09 1319.46 L2852.31 1312.66 L2867.53 1305.85 L2882.76 1299.17 L2897.98 1292.36 L2913.20 1285.68 L2928.42 1278.87 L2943.64 1272.19 L2958.86 1265.38 L2974.08 1258.70 L2989.30 1251.89 L3004.53 1245.21 L3019.75 1238.40 L3034.97 1231.72 L3050.19 1224.92 L3065.41 1218.23 L3080.51 1211.43 L3095.73 1204.74 L3110.95 1198.06 L3126.17 1191.25 L3141.39 1184.57 L3156.61 1177.89 L3171.84 1171.21 L3187.06 1164.40 L3202.28 1157.72 L3217.50 1151.03 L3232.72 1144.35 L3247.94 1137.67 L3263.16 1130.99 L3278.39 1124.18 L3293.61 1117.50 L3308.83 1110.81 L3324.05 1104.13 L3339.27 1097.45 L3354.49 1090.89 L3369.71 1084.21 L3384.93 1077.52 L3400.16 1070.84 L3415.38 1064.16 L3430.47 1057.48 L3445.70 1050.92 L3460.92 1044.24 L3476.14 1037.55 L3491.36 1030.99 L3506.58 1024.31 L3521.80 1017.75 L3537.02 1011.07 L3552.24 1004.51 L3567.47 997.83 L3582.69 991.27 L3597.91 984.59 L3613.13 978.03 L3628.35 971.47 L3643.57 964.79 L3658.79 958.23 L3674.01 951.67 L3689.24 945.11 L3704.46 938.55 L3719.68 931.99 L3734.90 925.43 L3750.12 918.87 L3765.34 912.31 L3780.56 905.75 L3795.66 899.20 L3795.66 790.29 L3780.56 797.22 L3765.34 804.28 L3750.12 811.21 L3734.90 818.26 L3719.68 825.19 L3704.46 832.24 L3689.24 839.30 L3674.01 846.23 L3658.79 853.28 L3643.57 860.34 L3628.35 867.27 L3613.13 874.32 L3597.91 881.38 L3582.69 888.43 L3567.47 895.48 L3552.24 902.54 L3537.02 909.59 L3521.80 916.64 L3506.58 923.70 L3491.36 930.75 L3476.14 937.81 L3460.92 944.86 L3445.70 951.91 L3430.47 958.97 L3415.38 966.02 L3400.16 973.08 L3384.93 980.25 L3369.71 987.31 L3354.49 994.36 L3339.27 1001.42 L3324.05 1008.59 L3308.83 1015.65 L3293.61 1022.70 L3278.39 1029.88 L3263.16 1036.93 L3247.94 1044.11 L3232.72 1051.17 L3217.50 1058.22 L3202.28 1065.40 L3187.06 1072.45 L3171.84 1079.63 L3156.61 1086.81 L3141.39 1093.86 L3126.17 1101.04 L3110.95 1108.09 L3095.73 1115.27 L3080.51 1122.45 L3065.41 1129.50 L3050.19 1136.68 L3034.97 1143.86 L3019.75 1150.91 L3004.53 1158.09 L2989.30 1165.27 L2974.08 1172.44 L2958.86 1179.50 L2943.64 1186.68 L2928.42 1193.85 L2913.20 1201.03 L2897.98 1208.21 L2882.76 1215.39 L2867.53 1222.44 L2852.31 1229.62 L2837.09 1236.80 L2821.87 1243.97 L2806.65 1251.15 L2791.43 1258.33 L2776.21 1265.51 L2760.99 1272.68 L2745.76 1279.86 L2730.54 1287.04 L2715.32 1294.22 L2700.22 1301.40 L2685.00 1308.57 L2669.78 1315.75 L2654.56 1322.93 L2639.34 1330.11 L2624.12 1337.28 L2608.90 1344.46 L2593.68 1351.64 L2578.45 1358.94 L2563.23 1366.12 L2548.01 1373.30 L2532.79 1380.47 L2517.57 1387.65 L2502.35 1394.83 L2487.13 1402.01 L2471.91 1409.31 L2456.68 1416.49 L2441.46 1423.66 L2426.24 1430.84 L2411.02 1438.14 L2395.80 1445.32 L2380.58 1452.50 L2365.36 1459.80 L2350.14 1466.98 L2335.04 1474.16 L2319.82 1481.46 L2304.60 1488.64 L2289.38 1495.94 L2274.15 1503.11 L2258.93 1510.42 L2243.71 1517.72 L2228.49 1524.90 L2213.27 1532.20 L2198.05 1539.50 L2182.83 1546.80 L2167.61 1553.98 L2152.38 1561.28 L2137.16 1568.58 L2121.94 1575.88 L2106.72 1583.18 L2091.50 1590.48 L2076.28 1597.91 L2061.06 1605.21 L2045.84 1612.51 L2030.61 1619.81 L2015.39 1627.24 L2000.17 1634.54 L1984.95 1641.97 L1969.85 1649.27 L1954.63 1656.69 L1939.41 1664.12 L1924.19 1671.54 L1908.97 1678.97 L1893.75 1686.39 L1878.53 1693.82 L1863.30 1701.24 L1848.08 1708.67 L1832.86 1716.22 L1817.64 1723.64 L1802.42 1731.19 L1787.20 1738.74 L1771.98 1746.17 L1756.76 1753.72 L1741.53 1761.27 L1726.31 1768.94 L1711.09 1776.49 L1695.87 1784.04 L1680.65 1791.71 L1665.43 1799.38 L1650.21 1807.05 L1634.98 1814.73 L1619.76 1822.40 L1604.67 1830.07 L1589.44 1837.87 L1574.22 1845.54 L1559.00 1853.34 L1543.78 1861.13 L1528.56 1869.05 L1513.34 1876.85 L1498.12 1884.77 L1482.90 1892.69 L1467.67 1900.61 L1452.45 1908.53 L1437.23 1916.58 L1422.01 1924.62 L1406.79 1932.66 L1391.57 1940.83 L1376.35 1948.88 L1361.13 1957.04 L1345.90 1965.34 L1330.68 1973.50 L1315.46 1981.79 L1300.24 1990.09 L1285.02 1998.38 L1269.80 2006.79 L1254.70 2015.21 L1239.48 2023.62 L1224.26 2032.16 L1209.04 2040.58 L1193.82 2049.24 L1178.60 2057.78 L1163.37 2066.44 L1148.15 2075.10 L1132.93 2083.77 L1117.71 2092.55 L1102.49 2101.34 L1087.27 2110.25 L1072.05 2119.16 L1056.83 2128.07 L1041.60 2136.98 L1026.38 2146.02 L1011.16 2155.05 L995.94 2164.21 L980.72 2173.37 L965.50 2182.52 L950.28 2191.80 L935.05 2201.09 L919.83 2210.37 L904.61 2219.77 L889.51 2229.18 L874.29 2238.71 L859.07 2248.24 L843.85 2257.77 L828.63 2267.42 L813.41 2277.07 L798.19 2286.72 L782.97 2296.50 L767.75 2306.28 L752.52 2316.18 L737.30 2326.08 L722.08 2335.98 L706.86 2345.88 L691.64 2355.90 L676.42 2365.93 L661.20 2375.95 L645.98 2386.10 L630.75 2396.12 L615.53 2406.27 L600.31 2416.17 L600.31 2419.02 Z" stroke-linejoin="round"/>
	</defs>
	<defs>
		<clipPath id="clipPath_sCYIqURG">
			<use xlink:href="#path_FUFvcwlu"/>
		</clipPath>
	</defs>
	<use xlink:href="#path_FUFvcwlu" style="stroke:none;fill:#FF3333;fill-opacity:0.25"/>
	<use xlink:href="#path_FUFvcwlu" style="fill:none;stroke:#FF0000;stroke-opacity:0.25;stroke-width:17.28" clip-path="url(#clipPath_sCYIqURG)"/>
	<path d=" M585.09 2425.95 L600.31 2416.67 L615.53 2406.27 L630.75 2395.50 L645.98 2384.61 L661.20 2373.72 L676.42 2362.83 L691.64 2351.82 L706.86 2340.93 L721.96 2330.04 L737.18 2319.15 L752.40 2308.38 L767.62 2297.61 L782.84 2286.85 L798.06 2276.20 L813.28 2265.56 L828.51 2254.92 L843.73 2244.40 L858.95 2234.00 L874.17 2223.49 L889.39 2213.21 L904.61 2202.82 L919.83 2192.55 L935.05 2182.40 L950.28 2172.25 L965.50 2162.10 L980.72 2152.08 L995.94 2142.06 L1011.16 2132.03 L1026.38 2122.13 L1041.60 2112.23 L1056.83 2102.45 L1072.05 2092.55 L1087.14 2082.90 L1102.37 2073.12 L1117.59 2063.47 L1132.81 2053.94 L1148.03 2044.29 L1163.25 2034.88 L1178.47 2025.36 L1193.69 2015.95 L1208.91 2006.55 L1224.13 1997.14 L1239.36 1987.86 L1254.58 1978.58 L1269.80 1969.30 L1285.02 1960.14 L1300.24 1950.98 L1315.46 1941.82 L1330.68 1932.79 L1345.90 1923.75 L1361.13 1914.72 L1376.35 1905.69 L1391.57 1896.78 L1406.79 1887.87 L1422.01 1878.95 L1437.23 1870.17 L1452.33 1861.38 L1467.55 1852.60 L1482.77 1843.81 L1497.99 1835.15 L1513.21 1826.48 L1528.44 1817.82 L1543.66 1809.16 L1558.88 1800.62 L1574.10 1792.08 L1589.32 1783.54 L1604.54 1775.00 L1619.76 1766.46 L1634.98 1758.05 L1650.21 1749.63 L1665.43 1741.22 L1680.65 1732.80 L1695.87 1724.39 L1711.09 1716.09 L1726.31 1707.68 L1741.53 1699.39 L1756.76 1691.10 L1771.98 1682.81 L1787.20 1674.51 L1802.30 1666.35 L1817.52 1658.05 L1832.74 1649.89 L1847.96 1641.72 L1863.18 1633.43 L1878.40 1625.26 L1893.62 1617.09 L1908.84 1609.05 L1924.07 1600.88 L1939.29 1592.71 L1954.51 1584.67 L1969.73 1576.50 L1984.95 1568.46 L2000.17 1560.41 L2015.39 1552.24 L2030.61 1544.20 L2045.84 1536.16 L2061.06 1528.11 L2076.28 1520.07 L2091.50 1512.02 L2106.72 1504.10 L2121.94 1496.06 L2137.16 1488.02 L2152.38 1480.10 L2167.48 1472.05 L2182.70 1464.13 L2197.92 1456.09 L2213.14 1448.17 L2228.37 1440.25 L2243.59 1432.20 L2258.81 1424.28 L2274.03 1416.36 L2289.25 1408.44 L2304.47 1400.52 L2319.69 1392.60 L2334.91 1384.68 L2350.14 1376.76 L2365.36 1368.84 L2380.58 1360.92 L2395.80 1353.00 L2411.02 1345.08 L2426.24 1337.16 L2441.46 1329.24 L2456.68 1321.32 L2471.91 1313.52 L2487.13 1305.60 L2502.35 1297.68 L2517.57 1289.76 L2532.67 1281.97 L2547.89 1274.05 L2563.11 1266.13 L2578.33 1258.21 L2593.55 1250.41 L2608.77 1242.49 L2623.99 1234.57 L2639.22 1226.77 L2654.44 1218.85 L2669.66 1210.93 L2684.88 1203.14 L2700.10 1195.21 L2715.32 1187.42 L2730.54 1179.50 L2745.76 1171.58 L2760.99 1163.78 L2776.21 1155.86 L2791.43 1148.06 L2806.65 1140.14 L2821.87 1132.35 L2837.09 1124.43 L2852.31 1116.63 L2867.53 1108.71 L2882.76 1100.91 L2897.85 1092.99 L2913.07 1085.20 L2928.30 1077.28 L2943.52 1069.48 L2958.74 1061.68 L2973.96 1053.76 L2989.18 1045.97 L3004.40 1038.17 L3019.62 1030.25 L3034.84 1022.45 L3050.07 1014.66 L3065.29 1006.86 L3080.51 998.94 L3095.73 991.14 L3110.95 983.35 L3126.17 975.55 L3141.39 967.76 L3156.61 959.96 L3171.84 952.16 L3187.06 944.37 L3202.28 936.57 L3217.50 928.77 L3232.72 920.98 L3247.94 913.18 L3263.04 905.51 L3278.26 897.71 L3293.48 889.91 L3308.70 882.12 L3323.93 874.44 L3339.15 866.65 L3354.37 858.85 L3369.59 851.18 L3384.81 843.38 L3400.03 835.71 L3415.25 827.91 L3430.47 820.24 L3445.70 812.44 L3460.92 804.77 L3476.14 796.97 L3491.36 789.30 L3506.58 781.63 L3521.80 773.96 L3537.02 766.16 L3552.24 758.49 L3567.47 750.81 L3582.69 743.14 L3597.91 735.47 L3613.01 727.80 L3628.23 720.12 L3643.45 712.45 L3658.67 704.78 L3673.89 697.23 L3689.11 689.56 L3704.33 681.88 L3719.55 674.21 L3734.78 666.66 L3750.00 658.99 L3765.22 651.44 L3780.44 643.77 L3795.66 636.22" stroke-linejoin="round" style="fill:none;stroke:#0000FF;stroke-width:8.64"/>
	<path d=" M585.09 2425.95 L600.31 2417.78 L615.53 2408.62 L630.75 2399.22 L645.98 2389.69 L661.20 2380.16 L676.42 2370.51 L691.64 2360.98 L706.86 2351.32 L721.96 2341.79 L737.18 2332.27 L752.40 2322.74 L767.62 2313.33 L782.84 2303.93 L798.06 2294.52 L813.28 2285.24 L828.51 2275.96 L843.73 2266.68 L858.95 2257.52 L874.17 2248.36 L889.39 2239.20 L904.61 2230.17 L919.83 2221.13 L935.05 2212.22 L950.28 2203.31 L965.50 2194.40 L980.72 2185.49 L995.94 2176.71 L1011.16 2167.92 L1026.38 2159.26 L1041.60 2150.59 L1056.83 2141.93 L1072.05 2133.27 L1087.14 2124.73 L1102.37 2116.19 L1117.59 2107.78 L1132.81 2099.36 L1148.03 2090.95 L1163.25 2082.53 L1178.47 2074.24 L1193.69 2065.82 L1208.91 2057.66 L1224.13 2049.36 L1239.36 2041.20 L1254.58 2033.03 L1269.80 2024.86 L1285.02 2016.82 L1300.24 2008.77 L1315.46 2000.73 L1330.68 1992.68 L1345.90 1984.76 L1361.13 1976.84 L1376.35 1968.92 L1391.57 1961.00 L1406.79 1953.21 L1422.01 1945.41 L1437.23 1937.61 L1452.33 1929.82 L1467.55 1922.15 L1482.77 1914.47 L1497.99 1906.80 L1513.21 1899.13 L1528.44 1891.45 L1543.66 1883.91 L1558.88 1876.36 L1574.10 1868.81 L1589.32 1861.26 L1604.54 1853.71 L1619.76 1846.28 L1634.98 1838.86 L1650.21 1831.43 L1665.43 1824.01 L1680.65 1816.58 L1695.87 1809.16 L1711.09 1801.86 L1726.31 1794.43 L1741.53 1787.13 L1756.76 1779.83 L1771.98 1772.53 L1787.20 1765.23 L1802.30 1757.92 L1817.52 1750.62 L1832.74 1743.44 L1847.96 1736.14 L1863.18 1728.97 L1878.40 1721.79 L1893.62 1714.49 L1908.84 1707.31 L1924.07 1700.13 L1939.29 1692.95 L1954.51 1685.90 L1969.73 1678.72 L1984.95 1671.54 L2000.17 1664.37 L2015.39 1657.31 L2030.61 1650.13 L2045.84 1643.08 L2061.06 1636.03 L2076.28 1628.85 L2091.50 1621.79 L2106.72 1614.74 L2121.94 1607.69 L2137.16 1600.63 L2152.38 1593.45 L2167.48 1586.40 L2182.70 1579.47 L2197.92 1572.42 L2213.14 1565.36 L2228.37 1558.31 L2243.59 1551.25 L2258.81 1544.20 L2274.03 1537.27 L2289.25 1530.22 L2304.47 1523.16 L2319.69 1516.23 L2334.91 1509.18 L2350.14 1502.12 L2365.36 1495.19 L2380.58 1488.14 L2395.80 1481.21 L2411.02 1474.16 L2426.24 1467.23 L2441.46 1460.17 L2456.68 1453.24 L2471.91 1446.19 L2487.13 1439.26 L2502.35 1432.33 L2517.57 1425.27 L2532.67 1418.34 L2547.89 1411.41 L2563.11 1404.36 L2578.33 1397.43 L2593.55 1390.37 L2608.77 1383.44 L2623.99 1376.51 L2639.22 1369.46 L2654.44 1362.53 L2669.66 1355.60 L2684.88 1348.55 L2700.10 1341.62 L2715.32 1334.69 L2730.54 1327.63 L2745.76 1320.70 L2760.99 1313.77 L2776.21 1306.84 L2791.43 1299.79 L2806.65 1292.86 L2821.87 1285.93 L2837.09 1278.87 L2852.31 1271.94 L2867.53 1265.01 L2882.76 1258.08 L2897.85 1251.15 L2913.07 1244.10 L2928.30 1237.17 L2943.52 1230.24 L2958.74 1223.31 L2973.96 1216.38 L2989.18 1209.45 L3004.40 1202.52 L3019.62 1195.46 L3034.84 1188.53 L3050.07 1181.60 L3065.29 1174.67 L3080.51 1167.74 L3095.73 1160.81 L3110.95 1153.88 L3126.17 1146.95 L3141.39 1140.14 L3156.61 1133.21 L3171.84 1126.28 L3187.06 1119.35 L3202.28 1112.42 L3217.50 1105.49 L3232.72 1098.56 L3247.94 1091.76 L3263.04 1084.83 L3278.26 1077.90 L3293.48 1071.09 L3308.70 1064.16 L3323.93 1057.23 L3339.15 1050.42 L3354.37 1043.49 L3369.59 1036.69 L3384.81 1029.76 L3400.03 1022.95 L3415.25 1016.02 L3430.47 1009.21 L3445.70 1002.28 L3460.92 995.48 L3476.14 988.67 L3491.36 981.74 L3506.58 974.93 L3521.80 968.13 L3537.02 961.20 L3552.24 954.39 L3567.47 947.58 L3582.69 940.78 L3597.91 933.97 L3613.01 927.16 L3628.23 920.36 L3643.45 913.55 L3658.67 906.74 L3673.89 899.94 L3689.11 893.13 L3704.33 886.33 L3719.55 879.52 L3734.78 872.84 L3750.00 866.03 L3765.22 859.22 L3780.44 852.54 L3795.66 845.73" stroke-linejoin="round" style="fill:none;stroke:#FF0000;stroke-width:8.64"/>
	<line x1="521.73" y1="2489.19" x2="521.73" y2="100.86" style="stroke:#000000;stroke-width:5.76"/>
	<line x1="521.73" y1="2425.82" x2="481.76" y2="2425.82" style="stroke:#000000;stroke-width:5.76"/>
	<text x="461.83" y="2460.85" style="font-family:'Helvetica';font-size:99.99px;fill:#000000" text-anchor="end">0.00</text>
	<line x1="521.73" y1="1973.50" x2="481.76" y2="1973.50" style="stroke:#000000;stroke-width:5.76"/>
	<text x="461.83" y="2008.53" style="font-family:'Helvetica';font-size:99.99px;fill:#000000" text-anchor="end">1.00</text>
	<line x1="521.73" y1="1521.18" x2="481.76" y2="1521.18" style="stroke:#000000;stroke-width:5.76"/>
	<text x="461.83" y="1556.21" style="font-family:'Helvetica';font-size:99.99px;fill:#000000" text-anchor="end">2.00</text>
	<line x1="521.73" y1="1068.86" x2="481.76" y2="1068.86" style="stroke:#000000;stroke-width:5.76"/>
	<text x="461.83" y="1103.89" style="font-family:'Helvetica';font-size:99.99px;fill:#000000" text-anchor="end">3.00</text>
	<line x1="521.73" y1="616.54" x2="481.76" y2="616.54" style="stroke:#000000;stroke-width:5.76"/>
	<text x="461.83" y="651.57" style="font-family:'Helvetica';font-size:99.99px;fill:#000000" text-anchor="end">4.00</text>
	<line x1="521.73" y1="164.22" x2="481.76" y2="164.22" style="stroke:#000000;stroke-width:5.76"/>
	<text x="461.83" y="199.25" style="font-family:'Helvetica';font-size:99.99px;fill:#000000" text-anchor="end">5.00</text>
	<text x="190.71" y="1294.96" style="font-family:'Helvetica';font-size:99.99px;fill:#000000" transform="rotate(-90 190.71,1294.96)" text-anchor="middle">Cumulative incidence (%)</text>
	<line x1="521.73" y1="2489.19" x2="3859.02" y2="2489.19" style="stroke:#000000;stroke-width:5.76"/>
	<line x1="585.09" y1="2489.19" x2="585.09" y2="2529.16" style="stroke:#000000;stroke-width:5.76"/>
	<text x="585.09" y="2619.14" style="font-family:'Helvetica';font-size:99.99px;fill:#000000" text-anchor="middle">0</text>
	<line x1="1345.90" y1="2489.19" x2="1345.90" y2="2529.16" style="stroke:#000000;stroke-width:5.76"/>
	<text x="1345.90" y="2619.14" style="font-family:'Helvetica';font-size:99.99px;fill:#000000" text-anchor="middle">50</text>
	<line x1="2106.72" y1="2489.19" x2="2106.72" y2="2529.16" style="stroke:#000000;stroke-width:5.76"/>
	<text x="2106.72" y="2619.14" style="font-family:'Helvetica';font-size:99.99px;fill:#000000" text-anchor="middle">100</text>
	<line x1="2867.53" y1="2489.19" x2="2867.53" y2="2529.16" style="stroke:#000000;stroke-width:5.76"/>
	<text x="2867.53" y="2619.14" style="font-family:'Helvetica';font-size:99.99px;fill:#000000" text-anchor="middle">150</text>
	<line x1="3628.35" y1="2489.19" x2="3628.35" y2="2529.16" style="stroke:#000000;stroke-width:5.76"/>
	<text x="3628.35" y="2619.14" style="font-family:'Helvetica';font-size:99.99px;fill:#000000" text-anchor="middle">200</text>
	<text x="2190.38" y="2729.16" style="font-family:'Helvetica';font-size:99.99px;fill:#000000" text-anchor="middle">Days from 1 March 2020</text>
	<rect x="2717.80" y="2128.20" width="1106.70" height="326.46" style="fill:#FFFFFF"/>
	<rect x="2720.68" y="2131.08" width="1100.94" height="320.70" style="fill:none;stroke:#000000;stroke-width:5.76"/>
	<rect x="2761.11" y="2171.51" width="374.34" height="99.99" style="fill:#3333FF;fill-opacity:0.25"/>
	<rect x="2765.43" y="2175.83" width="365.70" height="91.35" style="fill:none;stroke:#0000FF;stroke-opacity:0.25;stroke-width:8.64"/>
	<rect x="2761.11" y="2311.47" width="374.34" height="99.99" style="fill:#FF3333;fill-opacity:0.25"/>
	<rect x="2765.43" y="2315.79" width="365.70" height="91.35" style="fill:none;stroke:#FF0000;stroke-opacity:0.25;stroke-width:8.64"/>
	<text x="3195.47" y="2256.53" style="font-family:'Helvetica';font-size:99.99px;fill:#000000">DOAC use</text>
	<text x="3195.47" y="2396.50" style="font-family:'Helvetica';font-size:99.99px;fill:#000000">Warfarin use</text>
</svg>
