<?xml version="1.0" encoding="UTF-8" standalone="no"?>
<!-- This is a Stata 16.1 generated SVG file (http://www.stata.com) -->

<svg version="1.1" width="5.50in" height="4.00in" viewBox="0 0 3960 2880" xmlns="http://www.w3.org/2000/svg" xmlns:xlink="http://www.w3.org/1999/xlink">
	<desc>Stata Graph - Graph</desc>
	<rect x="0" y="0" width="3960" height="2880" style="fill:#EAF2F3;stroke:none"/>
	<rect x="0.00" y="0.00" width="3959.88" height="2880.00" style="fill:#EAF2F3"/>
	<rect x="2.88" y="2.88" width="3954.12" height="2874.24" style="fill:none;stroke:#EAF2F3;stroke-width:5.76"/>
	<rect x="521.73" y="100.86" width="3337.29" height="2388.33" style="fill:#FFFFFF"/>
	<rect x="524.61" y="103.74" width="3331.53" height="2382.57" style="fill:none;stroke:#FFFFFF;stroke-width:5.76"/>
	<line x1="521.73" y1="2425.82" x2="3859.02" y2="2425.82" style="stroke:#EAF2F3;stroke-width:8.64"/>
	<line x1="521.73" y1="2199.72" x2="3859.02" y2="2199.72" style="stroke:#EAF2F3;stroke-width:8.64"/>
	<line x1="521.73" y1="1973.50" x2="3859.02" y2="1973.50" style="stroke:#EAF2F3;stroke-width:8.64"/>
	<line x1="521.73" y1="1747.28" x2="3859.02" y2="1747.28" style="stroke:#EAF2F3;stroke-width:8.64"/>
	<line x1="521.73" y1="1521.18" x2="3859.02" y2="1521.18" style="stroke:#EAF2F3;stroke-width:8.64"/>
	<line x1="521.73" y1="1294.96" x2="3859.02" y2="1294.96" style="stroke:#EAF2F3;stroke-width:8.64"/>
	<line x1="521.73" y1="1068.86" x2="3859.02" y2="1068.86" style="stroke:#EAF2F3;stroke-width:8.64"/>
	<line x1="521.73" y1="842.64" x2="3859.02" y2="842.64" style="stroke:#EAF2F3;stroke-width:8.64"/>
	<line x1="521.73" y1="616.54" x2="3859.02" y2="616.54" style="stroke:#EAF2F3;stroke-width:8.64"/>
	<line x1="521.73" y1="390.32" x2="3859.02" y2="390.32" style="stroke:#EAF2F3;stroke-width:8.64"/>
	<defs>
		<path id="path_iZfwblHf" d="M600.31 2425.82 L600.31 2425.82 L615.53 2425.82 L630.75 2425.82 L645.98 2425.82 L661.20 2425.82 L676.42 2425.82 L691.64 2425.70 L706.86 2425.58 L722.08 2425.20 L737.30 2424.71 L752.52 2423.97 L767.75 2422.85 L782.97 2421.37 L798.19 2419.39 L813.41 2416.79 L828.63 2413.57 L843.85 2409.61 L859.07 2404.91 L874.29 2399.34 L889.51 2392.90 L904.61 2385.60 L919.83 2377.31 L935.05 2368.03 L950.28 2357.76 L965.50 2346.62 L980.72 2334.37 L995.94 2321.25 L1011.16 2307.14 L1026.38 2292.05 L1041.60 2276.20 L1056.83 2259.50 L1072.05 2241.93 L1087.27 2223.73 L1102.49 2204.80 L1117.71 2185.25 L1132.93 2165.07 L1148.15 2144.41 L1163.37 2123.25 L1178.60 2101.71 L1193.82 2079.81 L1209.04 2057.66 L1224.26 2035.26 L1239.48 2012.61 L1254.70 1989.96 L1269.80 1967.19 L1285.02 1944.42 L1300.24 1921.65 L1315.46 1899.00 L1330.68 1876.36 L1345.90 1854.08 L1361.13 1831.80 L1376.35 1809.90 L1391.57 1788.24 L1406.79 1766.83 L1422.01 1745.80 L1437.23 1725.01 L1452.45 1704.59 L1467.67 1684.54 L1482.90 1664.86 L1498.12 1645.43 L1513.34 1626.50 L1528.56 1607.93 L1543.78 1589.62 L1559.00 1571.80 L1574.22 1554.35 L1589.44 1537.27 L1604.67 1520.69 L1619.76 1504.35 L1634.98 1488.51 L1650.21 1472.92 L1665.43 1457.82 L1680.65 1442.97 L1695.87 1428.61 L1711.09 1414.51 L1726.31 1400.89 L1741.53 1387.53 L1756.76 1374.66 L1771.98 1362.04 L1787.20 1349.66 L1802.42 1337.78 L1817.64 1326.15 L1832.86 1314.88 L1848.08 1303.87 L1863.30 1293.10 L1878.53 1282.83 L1893.75 1272.68 L1908.97 1262.91 L1924.19 1253.38 L1939.41 1244.22 L1954.63 1235.19 L1969.85 1226.52 L1984.95 1218.11 L2000.17 1209.94 L2015.39 1201.90 L2030.61 1194.22 L2045.84 1186.80 L2061.06 1179.50 L2076.28 1172.44 L2091.50 1165.64 L2106.72 1159.08 L2121.94 1152.64 L2137.16 1146.46 L2152.38 1140.52 L2167.61 1134.70 L2182.83 1129.01 L2198.05 1123.56 L2213.27 1118.36 L2228.49 1113.29 L2243.71 1108.34 L2258.93 1103.51 L2274.15 1098.93 L2289.38 1094.36 L2304.60 1090.02 L2319.82 1085.94 L2335.04 1081.86 L2350.14 1077.90 L2365.36 1074.18 L2380.58 1070.47 L2395.80 1066.88 L2411.02 1063.54 L2426.24 1060.20 L2441.46 1056.98 L2456.68 1054.01 L2471.91 1051.04 L2487.13 1048.07 L2502.35 1045.35 L2517.57 1042.63 L2532.79 1040.15 L2548.01 1037.55 L2563.23 1035.20 L2578.45 1032.85 L2593.68 1030.62 L2608.90 1028.52 L2624.12 1026.41 L2639.34 1024.43 L2654.56 1022.45 L2669.78 1020.72 L2685.00 1018.87 L2700.22 1017.13 L2715.32 1015.52 L2730.54 1013.92 L2745.76 1012.43 L2760.99 1010.95 L2776.21 1009.46 L2791.43 1008.10 L2806.65 1006.86 L2821.87 1005.50 L2837.09 1004.39 L2852.31 1003.15 L2867.53 1002.04 L2882.76 1001.05 L2897.98 999.93 L2913.20 998.94 L2928.42 998.07 L2943.64 997.08 L2958.86 996.22 L2974.08 995.48 L2989.30 994.61 L3004.53 993.87 L3019.75 993.12 L3034.97 992.38 L3050.19 991.76 L3065.41 991.14 L3080.51 990.53 L3095.73 989.91 L3110.95 989.29 L3126.17 988.79 L3141.39 988.30 L3156.61 987.80 L3171.84 987.31 L3187.06 986.81 L3202.28 986.44 L3217.50 986.07 L3232.72 985.58 L3247.94 985.20 L3263.16 984.96 L3278.39 984.59 L3293.61 984.21 L3308.83 983.97 L3324.05 983.60 L3339.27 983.35 L3354.49 983.10 L3369.71 982.85 L3384.93 982.61 L3400.16 982.36 L3415.38 982.11 L3430.47 981.86 L3445.70 981.74 L3460.92 981.49 L3476.14 981.37 L3491.36 981.12 L3506.58 981.00 L3521.80 980.75 L3537.02 980.63 L3552.24 980.50 L3567.47 980.38 L3582.69 980.25 L3597.91 980.01 L3613.13 979.88 L3628.35 979.76 L3643.57 979.64 L3658.79 979.51 L3674.01 979.39 L3689.24 979.26 L3704.46 979.14 L3719.68 979.02 L3734.90 978.89 L3750.12 978.77 L3765.34 978.65 L3780.56 978.65 L3795.66 978.52 L3795.66 841.16 L3780.56 841.28 L3765.34 841.40 L3750.12 841.53 L3734.90 841.65 L3719.68 841.77 L3704.46 841.90 L3689.24 842.02 L3674.01 842.15 L3658.79 842.27 L3643.57 842.39 L3628.35 842.64 L3613.13 842.76 L3597.91 842.89 L3582.69 843.01 L3567.47 843.14 L3552.24 843.38 L3537.02 843.51 L3521.80 843.63 L3506.58 843.88 L3491.36 844.00 L3476.14 844.25 L3460.92 844.50 L3445.70 844.62 L3430.47 844.87 L3415.38 845.12 L3400.16 845.36 L3384.93 845.61 L3369.71 845.86 L3354.49 846.11 L3339.27 846.48 L3324.05 846.72 L3308.83 847.10 L3293.61 847.47 L3278.39 847.71 L3263.16 848.09 L3247.94 848.58 L3232.72 848.95 L3217.50 849.32 L3202.28 849.82 L3187.06 850.31 L3171.84 850.68 L3156.61 851.30 L3141.39 851.80 L3126.17 852.29 L3110.95 852.91 L3095.73 853.53 L3080.51 854.15 L3065.41 854.89 L3050.19 855.51 L3034.97 856.25 L3019.75 857.00 L3004.53 857.86 L2989.30 858.60 L2974.08 859.47 L2958.86 860.46 L2943.64 861.33 L2928.42 862.32 L2913.20 863.43 L2897.98 864.42 L2882.76 865.53 L2867.53 866.77 L2852.31 868.01 L2837.09 869.25 L2821.87 870.48 L2806.65 871.85 L2791.43 873.33 L2776.21 874.82 L2760.99 876.30 L2745.76 877.91 L2730.54 879.64 L2715.32 881.38 L2700.22 883.11 L2685.00 884.96 L2669.78 886.94 L2654.56 888.92 L2639.34 891.03 L2624.12 893.26 L2608.90 895.48 L2593.68 897.83 L2578.45 900.31 L2563.23 902.78 L2548.01 905.38 L2532.79 908.11 L2517.57 910.95 L2502.35 913.80 L2487.13 916.89 L2471.91 919.99 L2456.68 923.20 L2441.46 926.55 L2426.24 930.01 L2411.02 933.60 L2395.80 937.31 L2380.58 941.15 L2365.36 945.11 L2350.14 949.19 L2335.04 953.52 L2319.82 957.85 L2304.60 962.43 L2289.38 967.14 L2274.15 972.09 L2258.93 977.04 L2243.71 982.23 L2228.49 987.68 L2213.27 993.12 L2198.05 998.94 L2182.83 1004.88 L2167.61 1010.95 L2152.38 1017.26 L2137.16 1023.82 L2121.94 1030.50 L2106.72 1037.43 L2091.50 1044.61 L2076.28 1051.91 L2061.06 1059.58 L2045.84 1067.38 L2030.61 1075.54 L2015.39 1083.84 L2000.17 1092.50 L1984.95 1101.41 L1969.85 1110.44 L1954.63 1119.85 L1939.41 1129.63 L1924.19 1139.53 L1908.97 1149.80 L1893.75 1160.44 L1878.53 1171.33 L1863.30 1182.47 L1848.08 1194.10 L1832.86 1205.86 L1817.64 1218.11 L1802.42 1230.61 L1787.20 1243.48 L1771.98 1256.72 L1756.76 1270.33 L1741.53 1284.32 L1726.31 1298.55 L1711.09 1313.28 L1695.87 1328.37 L1680.65 1343.84 L1665.43 1359.68 L1650.21 1375.90 L1634.98 1392.60 L1619.76 1409.56 L1604.67 1427.01 L1589.44 1444.95 L1574.22 1463.14 L1559.00 1481.83 L1543.78 1500.89 L1528.56 1520.32 L1513.34 1540.24 L1498.12 1560.54 L1482.90 1581.20 L1467.67 1602.24 L1452.45 1623.65 L1437.23 1645.43 L1422.01 1667.46 L1406.79 1689.98 L1391.57 1712.75 L1376.35 1735.90 L1361.13 1759.28 L1345.90 1783.05 L1330.68 1806.93 L1315.46 1831.06 L1300.24 1855.32 L1285.02 1879.70 L1269.80 1904.08 L1254.70 1928.58 L1239.48 1952.96 L1224.26 1977.34 L1209.04 2001.60 L1193.82 2025.60 L1178.60 2049.36 L1163.37 2072.75 L1148.15 2095.90 L1132.93 2118.54 L1117.71 2140.82 L1102.49 2162.48 L1087.27 2183.51 L1072.05 2203.93 L1056.83 2223.73 L1041.60 2242.67 L1026.38 2260.74 L1011.16 2278.06 L995.94 2294.40 L980.72 2309.74 L965.50 2324.22 L950.28 2337.59 L935.05 2349.96 L919.83 2361.22 L904.61 2371.50 L889.51 2380.78 L874.29 2388.94 L859.07 2396.12 L843.85 2402.31 L828.63 2407.63 L813.41 2412.09 L798.19 2415.68 L782.97 2418.65 L767.75 2420.87 L752.52 2422.61 L737.30 2423.84 L722.08 2424.71 L706.86 2425.20 L691.64 2425.58 L676.42 2425.70 L661.20 2425.82 L645.98 2425.82 L630.75 2425.82 L615.53 2425.82 L600.31 2425.82 L600.31 2425.82 Z" stroke-linejoin="round"/>
	</defs>
	<defs>
		<clipPath id="clipPath_aZmqFCER">
			<use xlink:href="#path_iZfwblHf"/>
		</clipPath>
	</defs>
	<use xlink:href="#path_iZfwblHf" style="stroke:none;fill:#3333FF;fill-opacity:0.25"/>
	<use xlink:href="#path_iZfwblHf" style="fill:none;stroke:#0000FF;stroke-opacity:0.25;stroke-width:17.28" clip-path="url(#clipPath_aZmqFCER)"/>
	<defs>
		<path id="path_krFwEiWn" d="M600.31 2425.82 L600.31 2425.82 L615.53 2425.82 L630.75 2425.82 L645.98 2425.82 L661.20 2425.82 L676.42 2425.82 L691.64 2425.70 L706.86 2425.58 L722.08 2425.33 L737.30 2424.96 L752.52 2424.34 L767.75 2423.47 L782.97 2422.36 L798.19 2420.75 L813.41 2418.77 L828.63 2416.29 L843.85 2413.32 L859.07 2409.61 L874.29 2405.40 L889.51 2400.45 L904.61 2394.76 L919.83 2388.45 L935.05 2381.27 L950.28 2373.48 L965.50 2364.94 L980.72 2355.53 L995.94 2345.51 L1011.16 2334.74 L1026.38 2323.36 L1041.60 2311.35 L1056.83 2298.60 L1072.05 2285.36 L1087.27 2271.50 L1102.49 2257.15 L1117.71 2242.42 L1132.93 2227.20 L1148.15 2211.61 L1163.37 2195.64 L1178.60 2179.43 L1193.82 2162.97 L1209.04 2146.26 L1224.26 2129.43 L1239.48 2112.48 L1254.70 2095.40 L1269.80 2078.32 L1285.02 2061.24 L1300.24 2044.17 L1315.46 2027.21 L1330.68 2010.26 L1345.90 1993.55 L1361.13 1976.84 L1376.35 1960.51 L1391.57 1944.30 L1406.79 1928.21 L1422.01 1912.49 L1437.23 1896.90 L1452.45 1881.55 L1467.67 1866.58 L1482.90 1851.73 L1498.12 1837.25 L1513.34 1823.02 L1528.56 1809.16 L1543.78 1795.42 L1559.00 1782.06 L1574.22 1769.06 L1589.44 1756.19 L1604.67 1743.69 L1619.76 1731.44 L1634.98 1719.56 L1650.21 1707.93 L1665.43 1696.54 L1680.65 1685.40 L1695.87 1674.64 L1711.09 1664.12 L1726.31 1653.85 L1741.53 1643.82 L1756.76 1634.05 L1771.98 1624.52 L1787.20 1615.36 L1802.42 1606.33 L1817.64 1597.54 L1832.86 1589.12 L1848.08 1580.83 L1863.30 1572.79 L1878.53 1564.99 L1893.75 1557.44 L1908.97 1550.02 L1924.19 1542.84 L1939.41 1535.91 L1954.63 1529.23 L1969.85 1522.67 L1984.95 1516.23 L2000.17 1510.04 L2015.39 1504.10 L2030.61 1498.29 L2045.84 1492.72 L2061.06 1487.15 L2076.28 1481.95 L2091.50 1476.75 L2106.72 1471.80 L2121.94 1466.98 L2137.16 1462.28 L2152.38 1457.82 L2167.61 1453.37 L2182.83 1449.16 L2198.05 1445.07 L2213.27 1441.11 L2228.49 1437.15 L2243.71 1433.44 L2258.93 1429.85 L2274.15 1426.39 L2289.38 1423.05 L2304.60 1419.70 L2319.82 1416.61 L2335.04 1413.52 L2350.14 1410.55 L2365.36 1407.70 L2380.58 1404.98 L2395.80 1402.26 L2411.02 1399.66 L2426.24 1397.18 L2441.46 1394.83 L2456.68 1392.48 L2471.91 1390.25 L2487.13 1388.02 L2502.35 1385.92 L2517.57 1383.94 L2532.79 1381.96 L2548.01 1380.10 L2563.23 1378.37 L2578.45 1376.51 L2593.68 1374.91 L2608.90 1373.30 L2624.12 1371.69 L2639.34 1370.20 L2654.56 1368.72 L2669.78 1367.36 L2685.00 1366.00 L2700.22 1364.63 L2715.32 1363.40 L2730.54 1362.28 L2745.76 1361.05 L2760.99 1359.93 L2776.21 1358.94 L2791.43 1357.83 L2806.65 1356.84 L2821.87 1355.97 L2837.09 1354.98 L2852.31 1354.11 L2867.53 1353.25 L2882.76 1352.51 L2897.98 1351.76 L2913.20 1350.90 L2928.42 1350.28 L2943.64 1349.54 L2958.86 1348.92 L2974.08 1348.30 L2989.30 1347.68 L3004.53 1347.06 L3019.75 1346.57 L3034.97 1345.95 L3050.19 1345.45 L3065.41 1344.96 L3080.51 1344.59 L3095.73 1344.09 L3110.95 1343.72 L3126.17 1343.22 L3141.39 1342.85 L3156.61 1342.48 L3171.84 1342.11 L3187.06 1341.86 L3202.28 1341.49 L3217.50 1341.24 L3232.72 1340.87 L3247.94 1340.63 L3263.16 1340.38 L3278.39 1340.13 L3293.61 1339.88 L3308.83 1339.64 L3324.05 1339.39 L3339.27 1339.14 L3354.49 1339.02 L3369.71 1338.77 L3384.93 1338.65 L3400.16 1338.40 L3415.38 1338.27 L3430.47 1338.03 L3445.70 1337.90 L3460.92 1337.78 L3476.14 1337.66 L3491.36 1337.53 L3506.58 1337.41 L3521.80 1337.28 L3537.02 1337.16 L3552.24 1337.04 L3567.47 1336.91 L3582.69 1336.79 L3597.91 1336.67 L3613.13 1336.54 L3628.35 1336.42 L3643.57 1336.42 L3658.79 1336.29 L3674.01 1336.17 L3689.24 1336.05 L3704.46 1336.05 L3719.68 1335.92 L3734.90 1335.80 L3750.12 1335.80 L3765.34 1335.68 L3780.56 1335.55 L3795.66 1335.43 L3795.66 1107.97 L3780.56 1108.09 L3765.34 1108.09 L3750.12 1108.22 L3734.90 1108.34 L3719.68 1108.46 L3704.46 1108.59 L3689.24 1108.71 L3674.01 1108.83 L3658.79 1108.96 L3643.57 1108.96 L3628.35 1109.08 L3613.13 1109.21 L3597.91 1109.33 L3582.69 1109.45 L3567.47 1109.58 L3552.24 1109.82 L3537.02 1109.95 L3521.80 1110.07 L3506.58 1110.20 L3491.36 1110.32 L3476.14 1110.57 L3460.92 1110.69 L3445.70 1110.94 L3430.47 1111.06 L3415.38 1111.31 L3400.16 1111.43 L3384.93 1111.68 L3369.71 1111.93 L3354.49 1112.18 L3339.27 1112.42 L3324.05 1112.67 L3308.83 1112.92 L3293.61 1113.17 L3278.39 1113.41 L3263.16 1113.78 L3247.94 1114.16 L3232.72 1114.40 L3217.50 1114.77 L3202.28 1115.15 L3187.06 1115.52 L3171.84 1116.01 L3156.61 1116.38 L3141.39 1116.88 L3126.17 1117.25 L3110.95 1117.74 L3095.73 1118.24 L3080.51 1118.86 L3065.41 1119.35 L3050.19 1119.97 L3034.97 1120.59 L3019.75 1121.21 L3004.53 1121.83 L2989.30 1122.57 L2974.08 1123.31 L2958.86 1124.06 L2943.64 1124.80 L2928.42 1125.67 L2913.20 1126.53 L2897.98 1127.40 L2882.76 1128.39 L2867.53 1129.38 L2852.31 1130.37 L2837.09 1131.36 L2821.87 1132.47 L2806.65 1133.59 L2791.43 1134.82 L2776.21 1136.06 L2760.99 1137.30 L2745.76 1138.66 L2730.54 1140.02 L2715.32 1141.51 L2700.22 1142.99 L2685.00 1144.60 L2669.78 1146.21 L2654.56 1147.94 L2639.34 1149.67 L2624.12 1151.41 L2608.90 1153.39 L2593.68 1155.24 L2578.45 1157.35 L2563.23 1159.45 L2548.01 1161.55 L2532.79 1163.91 L2517.57 1166.26 L2502.35 1168.61 L2487.13 1171.08 L2471.91 1173.81 L2456.68 1176.40 L2441.46 1179.25 L2426.24 1182.10 L2411.02 1185.19 L2395.80 1188.28 L2380.58 1191.50 L2365.36 1194.72 L2350.14 1198.18 L2335.04 1201.77 L2319.82 1205.49 L2304.60 1209.20 L2289.38 1213.16 L2274.15 1217.24 L2258.93 1221.45 L2243.71 1225.78 L2228.49 1230.24 L2213.27 1234.82 L2198.05 1239.64 L2182.83 1244.59 L2167.61 1249.67 L2152.38 1254.99 L2137.16 1260.43 L2121.94 1266.00 L2106.72 1271.82 L2091.50 1277.76 L2076.28 1283.95 L2061.06 1290.26 L2045.84 1296.82 L2030.61 1303.62 L2015.39 1310.55 L2000.17 1317.73 L1984.95 1325.16 L1969.85 1332.83 L1954.63 1340.75 L1939.41 1348.79 L1924.19 1357.08 L1908.97 1365.75 L1893.75 1374.53 L1878.53 1383.69 L1863.30 1392.97 L1848.08 1402.63 L1832.86 1412.53 L1817.64 1422.80 L1802.42 1433.19 L1787.20 1443.96 L1771.98 1455.10 L1756.76 1466.36 L1741.53 1478.12 L1726.31 1490.00 L1711.09 1502.37 L1695.87 1514.99 L1680.65 1527.87 L1665.43 1541.11 L1650.21 1554.72 L1634.98 1568.70 L1619.76 1582.94 L1604.67 1597.54 L1589.44 1612.51 L1574.22 1627.73 L1559.00 1643.33 L1543.78 1659.29 L1528.56 1675.63 L1513.34 1692.21 L1498.12 1709.16 L1482.90 1726.49 L1467.67 1744.06 L1452.45 1762.01 L1437.23 1780.20 L1422.01 1798.76 L1406.79 1817.57 L1391.57 1836.63 L1376.35 1855.94 L1361.13 1875.49 L1345.90 1895.29 L1330.68 1915.21 L1315.46 1935.39 L1300.24 1955.68 L1285.02 1975.98 L1269.80 1996.40 L1254.70 2016.69 L1239.48 2037.11 L1224.26 2057.28 L1209.04 2077.46 L1193.82 2097.38 L1178.60 2117.18 L1163.37 2136.61 L1148.15 2155.79 L1132.93 2174.48 L1117.71 2192.92 L1102.49 2210.74 L1087.27 2228.19 L1072.05 2245.02 L1056.83 2261.23 L1041.60 2276.82 L1026.38 2291.67 L1011.16 2305.78 L995.94 2319.15 L980.72 2331.77 L965.50 2343.53 L950.28 2354.42 L935.05 2364.44 L919.83 2373.72 L904.61 2382.01 L889.51 2389.56 L874.29 2396.12 L859.07 2401.94 L843.85 2407.01 L828.63 2411.22 L813.41 2414.81 L798.19 2417.78 L782.97 2420.01 L767.75 2421.86 L752.52 2423.22 L737.30 2424.21 L722.08 2424.96 L706.86 2425.33 L691.64 2425.58 L676.42 2425.70 L661.20 2425.82 L645.98 2425.82 L630.75 2425.82 L615.53 2425.82 L600.31 2425.82 L600.31 2425.82 Z" stroke-linejoin="round"/>
	</defs>
	<defs>
		<clipPath id="clipPath_hQspBFzJ">
			<use xlink:href="#path_krFwEiWn"/>
		</clipPath>
	</defs>
	<use xlink:href="#path_krFwEiWn" style="stroke:none;fill:#FF3333;fill-opacity:0.25"/>
	<use xlink:href="#path_krFwEiWn" style="fill:none;stroke:#FF0000;stroke-opacity:0.25;stroke-width:17.28" clip-path="url(#clipPath_hQspBFzJ)"/>
	<path d=" M585.09 2425.95 L600.31 2425.95 L615.53 2425.95 L630.75 2425.95 L645.98 2425.95 L661.20 2425.82 L676.42 2425.82 L691.64 2425.70 L706.86 2425.45 L721.96 2425.08 L737.18 2424.34 L752.40 2423.47 L767.62 2422.11 L782.84 2420.25 L798.06 2417.78 L813.28 2414.69 L828.51 2410.97 L843.73 2406.39 L858.95 2400.95 L874.17 2394.64 L889.39 2387.34 L904.61 2379.17 L919.83 2369.89 L935.05 2359.61 L950.28 2348.35 L965.50 2336.10 L980.72 2322.86 L995.94 2308.63 L1011.16 2293.41 L1026.38 2277.32 L1041.60 2260.36 L1056.83 2242.54 L1072.05 2223.98 L1087.14 2204.55 L1102.37 2184.63 L1117.59 2163.96 L1132.81 2142.80 L1148.03 2121.14 L1163.25 2098.99 L1178.47 2076.59 L1193.69 2053.70 L1208.91 2030.68 L1224.13 2007.29 L1239.36 1983.90 L1254.58 1960.26 L1269.80 1936.75 L1285.02 1913.11 L1300.24 1889.60 L1315.46 1866.08 L1330.68 1842.82 L1345.90 1819.68 L1361.13 1796.66 L1376.35 1774.01 L1391.57 1751.61 L1406.79 1729.58 L1422.01 1707.80 L1437.23 1686.39 L1452.33 1665.23 L1467.55 1644.57 L1482.77 1624.15 L1497.99 1604.10 L1513.21 1584.54 L1528.44 1565.24 L1543.66 1546.43 L1558.88 1527.99 L1574.10 1509.92 L1589.32 1492.35 L1604.54 1475.02 L1619.76 1458.19 L1634.98 1441.73 L1650.21 1425.64 L1665.43 1409.93 L1680.65 1394.71 L1695.87 1379.73 L1711.09 1365.25 L1726.31 1351.02 L1741.53 1337.16 L1756.76 1323.80 L1771.98 1310.68 L1787.20 1297.93 L1802.30 1285.56 L1817.52 1273.43 L1832.74 1261.67 L1847.96 1250.29 L1863.18 1239.15 L1878.40 1228.38 L1893.62 1217.99 L1908.84 1207.71 L1924.07 1197.81 L1939.29 1188.28 L1954.51 1179.00 L1969.73 1169.85 L1984.95 1161.18 L2000.17 1152.64 L2015.39 1144.35 L2030.61 1136.31 L2045.84 1128.51 L2061.06 1120.96 L2076.28 1113.66 L2091.50 1106.61 L2106.72 1099.68 L2121.94 1092.99 L2137.16 1086.56 L2152.38 1080.37 L2167.48 1074.31 L2182.70 1068.49 L2197.92 1062.80 L2213.14 1057.23 L2228.37 1051.91 L2243.59 1046.83 L2258.81 1041.76 L2274.03 1036.93 L2289.25 1032.35 L2304.47 1027.78 L2319.69 1023.44 L2334.91 1019.24 L2350.14 1015.15 L2365.36 1011.19 L2380.58 1007.36 L2395.80 1003.64 L2411.02 1000.06 L2426.24 996.71 L2441.46 993.37 L2456.68 990.15 L2471.91 987.06 L2487.13 984.09 L2502.35 981.12 L2517.57 978.40 L2532.67 975.68 L2547.89 973.08 L2563.11 970.60 L2578.33 968.13 L2593.55 965.78 L2608.77 963.55 L2623.99 961.44 L2639.22 959.34 L2654.44 957.36 L2669.66 955.38 L2684.88 953.52 L2700.10 951.79 L2715.32 950.06 L2730.54 948.33 L2745.76 946.72 L2760.99 945.23 L2776.21 943.75 L2791.43 942.26 L2806.65 940.90 L2821.87 939.66 L2837.09 938.43 L2852.31 937.19 L2867.53 935.95 L2882.76 934.84 L2897.85 933.85 L2913.07 932.73 L2928.30 931.74 L2943.52 930.88 L2958.74 929.89 L2973.96 929.02 L2989.18 928.28 L3004.40 927.41 L3019.62 926.67 L3034.84 925.93 L3050.07 925.31 L3065.29 924.57 L3080.51 923.95 L3095.73 923.33 L3110.95 922.71 L3126.17 922.21 L3141.39 921.60 L3156.61 921.10 L3171.84 920.61 L3187.06 920.11 L3202.28 919.74 L3217.50 919.24 L3232.72 918.87 L3247.94 918.50 L3263.04 918.13 L3278.26 917.76 L3293.48 917.39 L3308.70 917.14 L3323.93 916.77 L3339.15 916.52 L3354.37 916.27 L3369.59 916.03 L3384.81 915.65 L3400.03 915.53 L3415.25 915.28 L3430.47 915.04 L3445.70 914.79 L3460.92 914.54 L3476.14 914.42 L3491.36 914.17 L3506.58 914.05 L3521.80 913.80 L3537.02 913.67 L3552.24 913.55 L3567.47 913.43 L3582.69 913.18 L3597.91 913.06 L3613.01 912.93 L3628.23 912.81 L3643.45 912.68 L3658.67 912.56 L3673.89 912.44 L3689.11 912.31 L3704.33 912.19 L3719.55 912.07 L3734.78 911.94 L3750.00 911.82 L3765.22 911.69 L3780.44 911.57 L3795.66 911.45" stroke-linejoin="round" style="fill:none;stroke:#0000FF;stroke-width:8.64"/>
	<path d=" M585.09 2425.95 L600.31 2425.95 L615.53 2425.95 L630.75 2425.95 L645.98 2425.95 L661.20 2425.95 L676.42 2425.82 L691.64 2425.70 L706.86 2425.58 L721.96 2425.20 L737.18 2424.71 L752.40 2423.97 L767.62 2422.85 L782.84 2421.37 L798.06 2419.51 L813.28 2417.04 L828.51 2414.07 L843.73 2410.48 L858.95 2406.27 L874.17 2401.20 L889.39 2395.50 L904.61 2389.07 L919.83 2381.77 L935.05 2373.60 L950.28 2364.81 L965.50 2355.04 L980.72 2344.64 L995.94 2333.38 L1011.16 2321.38 L1026.38 2308.63 L1041.60 2295.26 L1056.83 2281.16 L1072.05 2266.55 L1087.14 2251.21 L1102.37 2235.49 L1117.59 2219.15 L1132.81 2202.45 L1148.03 2185.37 L1163.25 2167.92 L1178.47 2150.10 L1193.69 2132.03 L1208.91 2113.84 L1224.13 2095.40 L1239.36 2076.84 L1254.58 2058.27 L1269.80 2039.59 L1285.02 2020.90 L1300.24 2002.34 L1315.46 1983.77 L1330.68 1965.34 L1345.90 1947.02 L1361.13 1928.83 L1376.35 1910.88 L1391.57 1893.19 L1406.79 1875.74 L1422.01 1858.54 L1437.23 1841.46 L1452.33 1824.87 L1467.55 1808.42 L1482.77 1792.33 L1497.99 1776.49 L1513.21 1760.89 L1528.44 1745.67 L1543.66 1730.82 L1558.88 1716.22 L1574.10 1701.86 L1589.32 1687.88 L1604.54 1674.27 L1619.76 1660.90 L1634.98 1647.78 L1650.21 1635.04 L1665.43 1622.66 L1680.65 1610.53 L1695.87 1598.65 L1711.09 1587.14 L1726.31 1575.88 L1741.53 1564.99 L1756.76 1554.35 L1771.98 1543.95 L1787.20 1533.81 L1802.30 1524.03 L1817.52 1514.38 L1832.74 1505.09 L1847.96 1496.06 L1863.18 1487.27 L1878.40 1478.73 L1893.62 1470.44 L1908.84 1462.28 L1924.07 1454.48 L1939.29 1446.93 L1954.51 1439.50 L1969.73 1432.33 L1984.95 1425.40 L2000.17 1418.59 L2015.39 1412.03 L2030.61 1405.60 L2045.84 1399.53 L2061.06 1393.47 L2076.28 1387.65 L2091.50 1382.08 L2106.72 1376.64 L2121.94 1371.32 L2137.16 1366.24 L2152.38 1361.29 L2167.48 1356.47 L2182.70 1351.76 L2197.92 1347.31 L2213.14 1342.98 L2228.37 1338.65 L2243.59 1334.56 L2258.81 1330.60 L2274.03 1326.77 L2289.25 1323.18 L2304.47 1319.59 L2319.69 1316.12 L2334.91 1312.78 L2350.14 1309.44 L2365.36 1306.35 L2380.58 1303.38 L2395.80 1300.41 L2411.02 1297.56 L2426.24 1294.84 L2441.46 1292.24 L2456.68 1289.64 L2471.91 1287.16 L2487.13 1284.81 L2502.35 1282.46 L2517.57 1280.36 L2532.67 1278.13 L2547.89 1276.15 L2563.11 1274.17 L2578.33 1272.19 L2593.55 1270.33 L2608.77 1268.60 L2623.99 1266.87 L2639.22 1265.26 L2654.44 1263.65 L2669.66 1262.04 L2684.88 1260.56 L2700.10 1259.20 L2715.32 1257.83 L2730.54 1256.47 L2745.76 1255.24 L2760.99 1254.00 L2776.21 1252.76 L2791.43 1251.65 L2806.65 1250.66 L2821.87 1249.54 L2837.09 1248.55 L2852.31 1247.56 L2867.53 1246.70 L2882.76 1245.83 L2897.85 1244.96 L2913.07 1244.10 L2928.30 1243.36 L2943.52 1242.61 L2958.74 1241.87 L2973.96 1241.13 L2989.18 1240.51 L3004.40 1239.89 L3019.62 1239.27 L3034.84 1238.65 L3050.07 1238.16 L3065.29 1237.66 L3080.51 1237.04 L3095.73 1236.55 L3110.95 1236.18 L3126.17 1235.68 L3141.39 1235.31 L3156.61 1234.82 L3171.84 1234.44 L3187.06 1234.07 L3202.28 1233.70 L3217.50 1233.45 L3232.72 1233.08 L3247.94 1232.84 L3263.04 1232.46 L3278.26 1232.22 L3293.48 1231.97 L3308.70 1231.72 L3323.93 1231.47 L3339.15 1231.23 L3354.37 1230.98 L3369.59 1230.73 L3384.81 1230.61 L3400.03 1230.36 L3415.25 1230.24 L3430.47 1229.99 L3445.70 1229.87 L3460.92 1229.62 L3476.14 1229.49 L3491.36 1229.37 L3506.58 1229.25 L3521.80 1229.12 L3537.02 1229.00 L3552.24 1228.88 L3567.47 1228.75 L3582.69 1228.63 L3597.91 1228.50 L3613.01 1228.38 L3628.23 1228.26 L3643.45 1228.13 L3658.67 1228.01 L3673.89 1227.89 L3689.11 1227.89 L3704.33 1227.76 L3719.55 1227.64 L3734.78 1227.51 L3750.00 1227.39 L3765.22 1227.39 L3780.44 1227.27 L3795.66 1227.14" stroke-linejoin="round" style="fill:none;stroke:#FF0000;stroke-width:8.64"/>
	<line x1="521.73" y1="2489.19" x2="521.73" y2="100.86" style="stroke:#000000;stroke-width:5.76"/>
	<line x1="521.73" y1="2425.82" x2="481.76" y2="2425.82" style="stroke:#000000;stroke-width:5.76"/>
	<text x="461.83" y="2460.85" style="font-family:'Helvetica';font-size:99.99px;fill:#000000" text-anchor="end">0.00</text>
	<line x1="521.73" y1="2199.72" x2="481.76" y2="2199.72" style="stroke:#000000;stroke-width:5.76"/>
	<text x="461.83" y="2234.75" style="font-family:'Helvetica';font-size:99.99px;fill:#000000" text-anchor="end">0.10</text>
	<line x1="521.73" y1="1973.50" x2="481.76" y2="1973.50" style="stroke:#000000;stroke-width:5.76"/>
	<text x="461.83" y="2008.53" style="font-family:'Helvetica';font-size:99.99px;fill:#000000" text-anchor="end">0.20</text>
	<line x1="521.73" y1="1747.28" x2="481.76" y2="1747.28" style="stroke:#000000;stroke-width:5.76"/>
	<text x="461.83" y="1782.31" style="font-family:'Helvetica';font-size:99.99px;fill:#000000" text-anchor="end">0.30</text>
	<line x1="521.73" y1="1521.18" x2="481.76" y2="1521.18" style="stroke:#000000;stroke-width:5.76"/>
	<text x="461.83" y="1556.21" style="font-family:'Helvetica';font-size:99.99px;fill:#000000" text-anchor="end">0.40</text>
	<line x1="521.73" y1="1294.96" x2="481.76" y2="1294.96" style="stroke:#000000;stroke-width:5.76"/>
	<text x="461.83" y="1329.99" style="font-family:'Helvetica';font-size:99.99px;fill:#000000" text-anchor="end">0.50</text>
	<line x1="521.73" y1="1068.86" x2="481.76" y2="1068.86" style="stroke:#000000;stroke-width:5.76"/>
	<text x="461.83" y="1103.89" style="font-family:'Helvetica';font-size:99.99px;fill:#000000" text-anchor="end">0.60</text>
	<line x1="521.73" y1="842.64" x2="481.76" y2="842.64" style="stroke:#000000;stroke-width:5.76"/>
	<text x="461.83" y="877.67" style="font-family:'Helvetica';font-size:99.99px;fill:#000000" text-anchor="end">0.70</text>
	<line x1="521.73" y1="616.54" x2="481.76" y2="616.54" style="stroke:#000000;stroke-width:5.76"/>
	<text x="461.83" y="651.57" style="font-family:'Helvetica';font-size:99.99px;fill:#000000" text-anchor="end">0.80</text>
	<line x1="521.73" y1="390.32" x2="481.76" y2="390.32" style="stroke:#000000;stroke-width:5.76"/>
	<text x="461.83" y="425.35" style="font-family:'Helvetica';font-size:99.99px;fill:#000000" text-anchor="end">0.90</text>
	<line x1="521.73" y1="164.22" x2="481.76" y2="164.22" style="stroke:#000000;stroke-width:5.76"/>
	<text x="461.83" y="199.25" style="font-family:'Helvetica';font-size:99.99px;fill:#000000" text-anchor="end">1.00</text>
	<text x="190.71" y="1294.96" style="font-family:'Helvetica';font-size:99.99px;fill:#000000" transform="rotate(-90 190.71,1294.96)" text-anchor="middle">Cumulative incidence (%)</text>
	<line x1="521.73" y1="2489.19" x2="3859.02" y2="2489.19" style="stroke:#000000;stroke-width:5.76"/>
	<line x1="585.09" y1="2489.19" x2="585.09" y2="2529.16" style="stroke:#000000;stroke-width:5.76"/>
	<text x="585.09" y="2619.14" style="font-family:'Helvetica';font-size:99.99px;fill:#000000" text-anchor="middle">0</text>
	<line x1="1345.90" y1="2489.19" x2="1345.90" y2="2529.16" style="stroke:#000000;stroke-width:5.76"/>
	<text x="1345.90" y="2619.14" style="font-family:'Helvetica';font-size:99.99px;fill:#000000" text-anchor="middle">50</text>
	<line x1="2106.72" y1="2489.19" x2="2106.72" y2="2529.16" style="stroke:#000000;stroke-width:5.76"/>
	<text x="2106.72" y="2619.14" style="font-family:'Helvetica';font-size:99.99px;fill:#000000" text-anchor="middle">100</text>
	<line x1="2867.53" y1="2489.19" x2="2867.53" y2="2529.16" style="stroke:#000000;stroke-width:5.76"/>
	<text x="2867.53" y="2619.14" style="font-family:'Helvetica';font-size:99.99px;fill:#000000" text-anchor="middle">150</text>
	<line x1="3628.35" y1="2489.19" x2="3628.35" y2="2529.16" style="stroke:#000000;stroke-width:5.76"/>
	<text x="3628.35" y="2619.14" style="font-family:'Helvetica';font-size:99.99px;fill:#000000" text-anchor="middle">200</text>
	<text x="2190.38" y="2729.16" style="font-family:'Helvetica';font-size:99.99px;fill:#000000" text-anchor="middle">Days from 1 March 2020</text>
	<rect x="2717.80" y="2128.20" width="1106.70" height="326.46" style="fill:#FFFFFF"/>
	<rect x="2720.68" y="2131.08" width="1100.94" height="320.70" style="fill:none;stroke:#000000;stroke-width:5.76"/>
	<rect x="2761.11" y="2171.51" width="374.34" height="99.99" style="fill:#3333FF;fill-opacity:0.25"/>
	<rect x="2765.43" y="2175.83" width="365.70" height="91.35" style="fill:none;stroke:#0000FF;stroke-opacity:0.25;stroke-width:8.64"/>
	<rect x="2761.11" y="2311.47" width="374.34" height="99.99" style="fill:#FF3333;fill-opacity:0.25"/>
	<rect x="2765.43" y="2315.79" width="365.70" height="91.35" style="fill:none;stroke:#FF0000;stroke-opacity:0.25;stroke-width:8.64"/>
	<text x="3195.47" y="2256.53" style="font-family:'Helvetica';font-size:99.99px;fill:#000000">DOAC use</text>
	<text x="3195.47" y="2396.50" style="font-family:'Helvetica';font-size:99.99px;fill:#000000">Warfarin use</text>
</svg>
