<?xml version="1.0" encoding="UTF-8" standalone="no"?>
<!-- This is a Stata 16.1 generated SVG file (http://www.stata.com) -->

<svg version="1.1" width="5.50in" height="4.00in" viewBox="0 0 3960 2880" xmlns="http://www.w3.org/2000/svg" xmlns:xlink="http://www.w3.org/1999/xlink">
	<desc>Stata Graph - Graph</desc>
	<rect x="0" y="0" width="3960" height="2880" style="fill:#EAF2F3;stroke:none"/>
	<rect x="0.00" y="0.00" width="3959.88" height="2880.00" style="fill:#EAF2F3"/>
	<rect x="2.88" y="2.88" width="3954.12" height="2874.24" style="fill:none;stroke:#EAF2F3;stroke-width:5.76"/>
	<rect x="556.38" y="100.86" width="3302.64" height="2388.33" style="fill:#FFFFFF"/>
	<rect x="559.26" y="103.74" width="3296.88" height="2382.57" style="fill:none;stroke:#FFFFFF;stroke-width:5.76"/>
	<line x1="556.38" y1="2425.82" x2="3859.02" y2="2425.82" style="stroke:#EAF2F3;stroke-width:8.64"/>
	<line x1="556.38" y1="1860.39" x2="3859.02" y2="1860.39" style="stroke:#EAF2F3;stroke-width:8.64"/>
	<line x1="556.38" y1="1294.96" x2="3859.02" y2="1294.96" style="stroke:#EAF2F3;stroke-width:8.64"/>
	<line x1="556.38" y1="729.53" x2="3859.02" y2="729.53" style="stroke:#EAF2F3;stroke-width:8.64"/>
	<line x1="556.38" y1="164.22" x2="3859.02" y2="164.22" style="stroke:#EAF2F3;stroke-width:8.64"/>
	<defs>
		<path id="path_qnnVpyVA" d="M619.74 164.22 L619.74 164.22 L634.84 164.22 L649.93 164.22 L664.91 164.35 L680.01 164.96 L694.98 166.08 L710.08 168.31 L725.17 171.52 L740.15 176.23 L755.25 182.66 L770.34 190.83 L785.32 200.73 L800.41 212.73 L815.51 226.59 L830.49 242.43 L845.58 260.25 L860.56 279.93 L875.65 301.22 L890.75 324.36 L905.73 348.99 L920.82 375.10 L935.92 402.57 L950.89 431.16 L965.99 460.86 L980.97 491.55 L996.06 522.98 L1011.16 555.28 L1026.13 588.08 L1041.23 621.24 L1056.33 654.91 L1071.30 688.81 L1086.40 722.97 L1101.50 757.13 L1116.47 791.16 L1131.57 825.31 L1146.54 859.10 L1161.64 892.76 L1176.74 926.17 L1191.71 959.09 L1206.81 991.76 L1221.91 1023.82 L1236.88 1055.50 L1251.98 1086.56 L1266.95 1117.00 L1282.05 1146.95 L1297.15 1176.16 L1312.12 1204.87 L1327.22 1232.96 L1342.32 1260.31 L1357.29 1287.16 L1372.39 1313.40 L1387.48 1338.89 L1402.46 1363.89 L1417.56 1388.15 L1432.53 1411.91 L1447.63 1435.05 L1462.72 1457.57 L1477.70 1479.48 L1492.80 1500.89 L1507.89 1521.68 L1522.87 1541.97 L1537.96 1561.77 L1552.94 1580.96 L1568.04 1599.64 L1583.13 1617.83 L1598.11 1635.53 L1613.20 1652.61 L1628.30 1669.44 L1643.28 1685.65 L1658.37 1701.49 L1673.47 1716.84 L1688.44 1731.69 L1703.54 1746.29 L1718.52 1760.40 L1733.61 1774.01 L1748.71 1787.38 L1763.68 1800.37 L1778.78 1812.87 L1793.88 1825.12 L1808.85 1837.00 L1823.95 1848.51 L1838.92 1859.77 L1854.02 1870.66 L1869.12 1881.18 L1884.09 1891.45 L1899.19 1901.48 L1914.29 1911.13 L1929.26 1920.54 L1944.36 1929.69 L1959.46 1938.60 L1974.43 1947.27 L1989.53 1955.68 L2004.50 1963.85 L2019.60 1971.65 L2034.70 1979.44 L2049.67 1986.87 L2064.77 1994.17 L2079.87 2001.22 L2094.84 2008.03 L2109.94 2014.71 L2124.91 2021.15 L2140.01 2027.34 L2155.11 2033.52 L2170.08 2039.46 L2185.18 2045.16 L2200.28 2050.73 L2215.25 2056.17 L2230.35 2061.49 L2245.32 2066.57 L2260.42 2071.52 L2275.51 2076.47 L2290.49 2081.17 L2305.59 2085.62 L2320.68 2090.08 L2335.66 2094.41 L2350.76 2098.62 L2365.85 2102.70 L2380.83 2106.66 L2395.92 2110.50 L2410.90 2114.21 L2425.99 2117.92 L2441.09 2121.39 L2456.07 2124.85 L2471.16 2128.20 L2486.26 2131.41 L2501.24 2134.63 L2516.33 2137.60 L2531.31 2140.69 L2546.40 2143.54 L2561.50 2146.39 L2576.47 2149.11 L2591.57 2151.71 L2606.67 2154.31 L2621.64 2156.91 L2636.74 2159.38 L2651.84 2161.73 L2666.81 2164.08 L2681.91 2166.31 L2696.88 2168.54 L2711.98 2170.64 L2727.08 2172.75 L2742.05 2174.73 L2757.15 2176.71 L2772.25 2178.56 L2787.22 2180.42 L2802.32 2182.28 L2817.29 2184.01 L2832.39 2185.74 L2847.49 2187.47 L2862.46 2189.08 L2877.56 2190.69 L2892.66 2192.30 L2907.63 2193.78 L2922.73 2195.27 L2937.82 2196.63 L2952.80 2198.12 L2967.90 2199.48 L2982.87 2200.84 L2997.97 2202.08 L3013.07 2203.31 L3028.04 2204.55 L3043.14 2205.79 L3058.23 2207.03 L3073.21 2208.14 L3088.30 2209.25 L3103.28 2210.37 L3118.38 2211.48 L3133.47 2212.47 L3148.45 2213.46 L3163.55 2214.58 L3178.64 2215.57 L3193.62 2216.43 L3208.71 2217.42 L3223.81 2218.29 L3238.78 2219.28 L3253.88 2220.14 L3268.86 2221.01 L3283.95 2221.88 L3299.05 2222.74 L3314.03 2223.49 L3329.12 2224.35 L3344.22 2225.09 L3359.19 2225.84 L3374.29 2226.70 L3389.26 2227.45 L3404.36 2228.19 L3419.46 2228.81 L3434.43 2229.55 L3449.53 2230.29 L3464.63 2231.03 L3479.60 2231.65 L3494.70 2232.27 L3509.80 2233.01 L3524.77 2233.63 L3539.87 2234.25 L3554.84 2234.99 L3569.94 2235.61 L3585.04 2236.23 L3600.01 2236.85 L3615.11 2237.47 L3630.21 2238.09 L3645.18 2238.58 L3660.28 2239.20 L3675.25 2239.82 L3690.35 2240.44 L3705.45 2241.06 L3720.42 2241.55 L3735.52 2242.17 L3750.61 2242.67 L3765.59 2243.29 L3780.69 2243.91 L3795.66 2244.40 L3795.66 871.10 L3780.69 870.86 L3765.59 870.73 L3750.61 870.48 L3735.52 870.24 L3720.42 870.11 L3705.45 869.87 L3690.35 869.74 L3675.25 869.49 L3660.28 869.25 L3645.18 869.12 L3630.21 868.88 L3615.11 868.63 L3600.01 868.50 L3585.04 868.26 L3569.94 868.01 L3554.84 867.89 L3539.87 867.64 L3524.77 867.39 L3509.80 867.14 L3494.70 866.90 L3479.60 866.77 L3464.63 866.52 L3449.53 866.28 L3434.43 866.03 L3419.46 865.78 L3404.36 865.53 L3389.26 865.29 L3374.29 865.04 L3359.19 864.79 L3344.22 864.54 L3329.12 864.17 L3314.03 863.93 L3299.05 863.68 L3283.95 863.43 L3268.86 863.06 L3253.88 862.81 L3238.78 862.56 L3223.81 862.19 L3208.71 861.95 L3193.62 861.57 L3178.64 861.20 L3163.55 860.96 L3148.45 860.58 L3133.47 860.21 L3118.38 859.84 L3103.28 859.47 L3088.30 859.10 L3073.21 858.73 L3058.23 858.36 L3043.14 857.99 L3028.04 857.49 L3013.07 857.12 L2997.97 856.62 L2982.87 856.25 L2967.90 855.76 L2952.80 855.26 L2937.82 854.89 L2922.73 854.40 L2907.63 853.90 L2892.66 853.28 L2877.56 852.79 L2862.46 852.29 L2847.49 851.67 L2832.39 851.18 L2817.29 850.56 L2802.32 849.94 L2787.22 849.32 L2772.25 848.70 L2757.15 848.09 L2742.05 847.34 L2727.08 846.72 L2711.98 845.98 L2696.88 845.24 L2681.91 844.50 L2666.81 843.75 L2651.84 842.89 L2636.74 842.15 L2621.64 841.28 L2606.67 840.41 L2591.57 839.55 L2576.47 838.68 L2561.50 837.69 L2546.40 836.82 L2531.31 835.83 L2516.33 834.72 L2501.24 833.73 L2486.26 832.62 L2471.16 831.50 L2456.07 830.39 L2441.09 829.27 L2425.99 828.04 L2410.90 826.80 L2395.92 825.56 L2380.83 824.20 L2365.85 822.84 L2350.76 821.48 L2335.66 820.12 L2320.68 818.63 L2305.59 817.15 L2290.49 815.54 L2275.51 813.93 L2260.42 812.32 L2245.32 810.59 L2230.35 808.86 L2215.25 807.12 L2200.28 805.27 L2185.18 803.29 L2170.08 801.43 L2155.11 799.33 L2140.01 797.35 L2124.91 795.12 L2109.94 793.01 L2094.84 790.66 L2079.87 788.31 L2064.77 785.96 L2049.67 783.49 L2034.70 781.01 L2019.60 778.41 L2004.50 775.69 L1989.53 772.84 L1974.43 770.00 L1959.46 767.15 L1944.36 764.06 L1929.26 760.96 L1914.29 757.74 L1899.19 754.53 L1884.09 751.06 L1869.12 747.60 L1854.02 744.01 L1838.92 740.30 L1823.95 736.46 L1808.85 732.50 L1793.88 728.54 L1778.78 724.33 L1763.68 720.12 L1748.71 715.67 L1733.61 711.21 L1718.52 706.51 L1703.54 701.68 L1688.44 696.73 L1673.47 691.66 L1658.37 686.46 L1643.28 681.02 L1628.30 675.57 L1613.20 669.88 L1598.11 664.06 L1583.13 658.00 L1568.04 651.81 L1552.94 645.50 L1537.96 638.94 L1522.87 632.26 L1507.89 625.33 L1492.80 618.15 L1477.70 610.97 L1462.72 603.42 L1447.63 595.75 L1432.53 587.95 L1417.56 579.79 L1402.46 571.50 L1387.48 563.08 L1372.39 554.29 L1357.29 545.38 L1342.32 536.23 L1327.22 526.94 L1312.12 517.29 L1297.15 507.51 L1282.05 497.61 L1266.95 487.34 L1251.98 476.95 L1236.88 466.43 L1221.91 455.54 L1206.81 444.65 L1191.71 433.51 L1176.74 422.25 L1161.64 410.86 L1146.54 399.35 L1131.57 387.84 L1116.47 376.21 L1101.50 364.58 L1086.40 352.82 L1071.30 341.19 L1056.33 329.68 L1041.23 318.17 L1026.13 306.79 L1011.16 295.65 L996.06 284.63 L980.97 273.99 L965.99 263.47 L950.89 253.32 L935.92 243.67 L920.82 234.39 L905.73 225.48 L890.75 217.19 L875.65 209.39 L860.56 202.09 L845.58 195.53 L830.49 189.59 L815.51 184.27 L800.41 179.69 L785.32 175.73 L770.34 172.51 L755.25 169.79 L740.15 167.81 L725.17 166.33 L710.08 165.34 L694.98 164.72 L680.01 164.35 L664.91 164.22 L649.93 164.22 L634.84 164.22 L619.74 164.22 L619.74 164.22 Z" stroke-linejoin="round"/>
	</defs>
	<defs>
		<clipPath id="clipPath_keEYCeXQ">
			<use xlink:href="#path_qnnVpyVA"/>
		</clipPath>
	</defs>
	<use xlink:href="#path_qnnVpyVA" style="stroke:none;fill:#FF3333;fill-opacity:0.25"/>
	<use xlink:href="#path_qnnVpyVA" style="fill:none;stroke:#FF0000;stroke-opacity:0.25;stroke-width:17.28" clip-path="url(#clipPath_keEYCeXQ)"/>
	<path d=" M619.74 164.22 L634.71 164.22 L649.81 164.22 L664.91 164.35 L679.88 164.72 L694.98 165.46 L710.08 166.82 L725.05 169.05 L740.15 172.14 L755.25 176.35 L770.22 181.67 L785.32 188.35 L800.29 196.27 L815.39 205.56 L830.49 216.07 L845.46 227.95 L860.56 241.07 L875.65 255.43 L890.63 270.77 L905.73 287.36 L920.70 304.81 L935.80 323.12 L950.89 342.30 L965.87 362.23 L980.97 382.77 L996.06 403.93 L1011.04 425.47 L1026.13 447.49 L1041.23 469.77 L1056.21 492.42 L1071.30 515.06 L1086.28 537.96 L1101.38 560.85 L1116.47 583.75 L1131.45 606.64 L1146.54 629.29 L1161.64 651.94 L1176.62 674.21 L1191.71 696.36 L1206.69 718.27 L1221.78 739.80 L1236.88 760.96 L1251.86 781.88 L1266.95 802.30 L1282.05 822.34 L1297.02 841.90 L1312.12 861.20 L1327.22 880.01 L1342.19 898.33 L1357.29 916.40 L1372.26 933.85 L1387.36 951.05 L1402.46 967.76 L1417.43 984.09 L1432.53 999.93 L1447.63 1015.52 L1462.60 1030.62 L1477.70 1045.35 L1492.67 1059.58 L1507.77 1073.56 L1522.87 1087.18 L1537.84 1100.42 L1552.94 1113.29 L1568.04 1125.79 L1583.01 1137.92 L1598.11 1149.80 L1613.08 1161.31 L1628.18 1172.57 L1643.28 1183.46 L1658.25 1193.98 L1673.35 1204.25 L1688.44 1214.27 L1703.42 1224.05 L1718.52 1233.45 L1733.61 1242.61 L1748.59 1251.65 L1763.68 1260.31 L1778.66 1268.72 L1793.76 1276.89 L1808.85 1284.81 L1823.83 1292.61 L1838.92 1300.03 L1854.02 1307.34 L1869.00 1314.51 L1884.09 1321.32 L1899.07 1328.00 L1914.16 1334.56 L1929.26 1340.87 L1944.24 1346.94 L1959.33 1352.88 L1974.43 1358.69 L1989.40 1364.39 L2004.50 1369.83 L2019.60 1375.15 L2034.57 1380.23 L2049.67 1385.30 L2064.64 1390.13 L2079.74 1394.83 L2094.84 1399.41 L2109.81 1403.86 L2124.91 1408.20 L2140.01 1412.40 L2154.98 1416.49 L2170.08 1420.45 L2185.05 1424.28 L2200.15 1428.00 L2215.25 1431.71 L2230.22 1435.17 L2245.32 1438.64 L2260.42 1441.98 L2275.39 1445.20 L2290.49 1448.42 L2305.59 1451.51 L2320.56 1454.48 L2335.66 1457.33 L2350.63 1460.17 L2365.73 1462.89 L2380.83 1465.49 L2395.80 1468.09 L2410.90 1470.57 L2425.99 1473.04 L2440.97 1475.39 L2456.07 1477.74 L2471.04 1479.97 L2486.14 1482.08 L2501.24 1484.18 L2516.21 1486.28 L2531.31 1488.26 L2546.40 1490.24 L2561.38 1492.10 L2576.47 1493.96 L2591.57 1495.69 L2606.55 1497.42 L2621.64 1499.15 L2636.62 1500.76 L2651.72 1502.37 L2666.81 1503.98 L2681.79 1505.47 L2696.88 1506.95 L2711.98 1508.31 L2726.95 1509.80 L2742.05 1511.16 L2757.03 1512.40 L2772.12 1513.76 L2787.22 1514.99 L2802.20 1516.23 L2817.29 1517.35 L2832.39 1518.58 L2847.36 1519.70 L2862.46 1520.69 L2877.56 1521.80 L2892.53 1522.79 L2907.63 1523.91 L2922.60 1524.90 L2937.70 1525.76 L2952.80 1526.75 L2967.77 1527.62 L2982.87 1528.61 L2997.97 1529.47 L3012.94 1530.34 L3028.04 1531.08 L3043.01 1531.95 L3058.11 1532.69 L3073.21 1533.43 L3088.18 1534.30 L3103.28 1535.04 L3118.38 1535.66 L3133.35 1536.40 L3148.45 1537.15 L3163.42 1537.77 L3178.52 1538.38 L3193.62 1539.13 L3208.59 1539.75 L3223.69 1540.36 L3238.78 1540.98 L3253.76 1541.48 L3268.86 1542.10 L3283.95 1542.72 L3298.93 1543.21 L3314.03 1543.83 L3329.00 1544.32 L3344.10 1544.82 L3359.19 1545.44 L3374.17 1545.93 L3389.26 1546.43 L3404.36 1546.92 L3419.34 1547.42 L3434.43 1547.91 L3449.41 1548.28 L3464.51 1548.78 L3479.60 1549.27 L3494.58 1549.65 L3509.67 1550.14 L3524.77 1550.64 L3539.74 1551.01 L3554.84 1551.50 L3569.94 1551.87 L3584.91 1552.24 L3600.01 1552.74 L3614.99 1553.11 L3630.08 1553.48 L3645.18 1553.98 L3660.15 1554.35 L3675.25 1554.72 L3690.35 1555.09 L3705.32 1555.46 L3720.42 1555.83 L3735.39 1556.33 L3750.49 1556.70 L3765.59 1557.07 L3780.56 1557.44 L3795.66 1557.81" stroke-linejoin="round" style="fill:none;stroke:#FF0000;stroke-width:8.64"/>
	<line x1="556.38" y1="2489.19" x2="556.38" y2="100.86" style="stroke:#000000;stroke-width:5.76"/>
	<line x1="556.38" y1="2425.82" x2="516.41" y2="2425.82" style="stroke:#000000;stroke-width:5.76"/>
	<text x="496.49" y="2460.85" style="font-family:'Helvetica';font-size:99.99px;fill:#000000" text-anchor="end">-0.20</text>
	<line x1="556.38" y1="1860.39" x2="516.41" y2="1860.39" style="stroke:#000000;stroke-width:5.76"/>
	<text x="496.49" y="1895.42" style="font-family:'Helvetica';font-size:99.99px;fill:#000000" text-anchor="end">-0.15</text>
	<line x1="556.38" y1="1294.96" x2="516.41" y2="1294.96" style="stroke:#000000;stroke-width:5.76"/>
	<text x="496.49" y="1329.99" style="font-family:'Helvetica';font-size:99.99px;fill:#000000" text-anchor="end">-0.10</text>
	<line x1="556.38" y1="729.53" x2="516.41" y2="729.53" style="stroke:#000000;stroke-width:5.76"/>
	<text x="496.49" y="764.56" style="font-family:'Helvetica';font-size:99.99px;fill:#000000" text-anchor="end">-0.05</text>
	<line x1="556.38" y1="164.22" x2="516.41" y2="164.22" style="stroke:#000000;stroke-width:5.76"/>
	<text x="496.49" y="199.25" style="font-family:'Helvetica';font-size:99.99px;fill:#000000" text-anchor="end">0.00</text>
	<text x="190.71" y="1294.96" style="font-family:'Helvetica';font-size:99.99px;fill:#000000" transform="rotate(-90 190.71,1294.96)" text-anchor="middle">Difference in curves (%)</text>
	<line x1="556.38" y1="2489.19" x2="3859.02" y2="2489.19" style="stroke:#000000;stroke-width:5.76"/>
	<line x1="619.74" y1="2489.19" x2="619.74" y2="2529.16" style="stroke:#000000;stroke-width:5.76"/>
	<text x="619.74" y="2619.14" style="font-family:'Helvetica';font-size:99.99px;fill:#000000" text-anchor="middle">0</text>
	<line x1="1372.39" y1="2489.19" x2="1372.39" y2="2529.16" style="stroke:#000000;stroke-width:5.76"/>
	<text x="1372.39" y="2619.14" style="font-family:'Helvetica';font-size:99.99px;fill:#000000" text-anchor="middle">50</text>
	<line x1="2124.91" y1="2489.19" x2="2124.91" y2="2529.16" style="stroke:#000000;stroke-width:5.76"/>
	<text x="2124.91" y="2619.14" style="font-family:'Helvetica';font-size:99.99px;fill:#000000" text-anchor="middle">100</text>
	<line x1="2877.56" y1="2489.19" x2="2877.56" y2="2529.16" style="stroke:#000000;stroke-width:5.76"/>
	<text x="2877.56" y="2619.14" style="font-family:'Helvetica';font-size:99.99px;fill:#000000" text-anchor="middle">150</text>
	<line x1="3630.21" y1="2489.19" x2="3630.21" y2="2529.16" style="stroke:#000000;stroke-width:5.76"/>
	<text x="3630.21" y="2619.14" style="font-family:'Helvetica';font-size:99.99px;fill:#000000" text-anchor="middle">200</text>
	<text x="2207.70" y="2729.16" style="font-family:'Helvetica';font-size:99.99px;fill:#000000" text-anchor="middle">Days from 1 March 2020</text>
</svg>
