<?xml version="1.0" encoding="UTF-8" standalone="no"?>
<!-- This is a Stata 16.1 generated SVG file (http://www.stata.com) -->

<svg version="1.1" width="5.50in" height="4.00in" viewBox="0 0 3960 2880" xmlns="http://www.w3.org/2000/svg" xmlns:xlink="http://www.w3.org/1999/xlink">
	<desc>Stata Graph - Graph</desc>
	<rect x="0" y="0" width="3960" height="2880" style="fill:#EAF2F3;stroke:none"/>
	<rect x="0.00" y="0.00" width="3959.88" height="2880.00" style="fill:#EAF2F3"/>
	<rect x="2.88" y="2.88" width="3954.12" height="2874.24" style="fill:none;stroke:#EAF2F3;stroke-width:5.76"/>
	<rect x="556.38" y="100.86" width="3302.64" height="2388.33" style="fill:#FFFFFF"/>
	<rect x="559.26" y="103.74" width="3296.88" height="2382.57" style="fill:none;stroke:#FFFFFF;stroke-width:5.76"/>
	<line x1="556.38" y1="2412.71" x2="3859.02" y2="2412.71" style="stroke:#EAF2F3;stroke-width:8.64"/>
	<line x1="556.38" y1="1663.25" x2="3859.02" y2="1663.25" style="stroke:#EAF2F3;stroke-width:8.64"/>
	<line x1="556.38" y1="913.67" x2="3859.02" y2="913.67" style="stroke:#EAF2F3;stroke-width:8.64"/>
	<line x1="556.38" y1="164.22" x2="3859.02" y2="164.22" style="stroke:#EAF2F3;stroke-width:8.64"/>
	<defs>
		<path id="path_LELvUzeW" d="M619.74 164.22 L619.74 164.22 L634.84 176.84 L649.93 190.83 L664.91 205.06 L680.01 219.54 L694.98 234.02 L710.08 248.50 L725.17 262.98 L740.15 277.46 L755.25 291.94 L770.34 306.29 L785.32 320.52 L800.41 334.75 L815.51 348.99 L830.49 362.97 L845.58 377.08 L860.56 390.94 L875.65 404.80 L890.75 418.66 L905.73 432.27 L920.82 445.89 L935.92 459.50 L950.89 472.99 L965.99 486.35 L980.97 499.72 L996.06 512.96 L1011.16 526.08 L1026.13 539.20 L1041.23 552.31 L1056.33 565.31 L1071.30 578.18 L1086.40 590.92 L1101.50 603.80 L1116.47 616.42 L1131.57 629.04 L1146.54 641.66 L1161.64 654.16 L1176.74 666.54 L1191.71 678.91 L1206.81 691.29 L1221.91 703.54 L1236.88 715.67 L1251.98 727.80 L1266.95 739.92 L1282.05 751.93 L1297.15 763.93 L1312.12 775.81 L1327.22 787.69 L1342.32 799.45 L1357.29 811.21 L1372.39 822.84 L1387.48 834.47 L1402.46 846.11 L1417.56 857.61 L1432.53 869.12 L1447.63 880.51 L1462.72 891.89 L1477.70 903.16 L1492.80 914.42 L1507.89 925.68 L1522.87 936.82 L1537.96 947.95 L1552.94 959.09 L1568.04 970.11 L1583.13 981.12 L1598.11 992.13 L1613.20 1003.03 L1628.30 1013.92 L1643.28 1024.81 L1658.37 1035.57 L1673.47 1046.34 L1688.44 1057.11 L1703.54 1067.87 L1718.52 1078.51 L1733.61 1089.28 L1748.71 1099.80 L1763.68 1110.44 L1778.78 1120.96 L1793.88 1131.61 L1808.85 1142.12 L1823.95 1152.52 L1838.92 1163.04 L1854.02 1173.43 L1869.12 1183.95 L1884.09 1194.35 L1899.19 1204.62 L1914.29 1215.02 L1929.26 1225.41 L1944.36 1235.68 L1959.46 1245.95 L1974.43 1256.23 L1989.53 1266.50 L2004.50 1276.77 L2019.60 1286.92 L2034.70 1297.19 L2049.67 1307.34 L2064.77 1317.48 L2079.87 1327.63 L2094.84 1337.78 L2109.94 1347.93 L2124.91 1357.95 L2140.01 1368.10 L2155.11 1378.12 L2170.08 1388.15 L2185.18 1398.29 L2200.28 1408.32 L2215.25 1418.34 L2230.35 1428.37 L2245.32 1438.27 L2260.42 1448.29 L2275.51 1458.32 L2290.49 1468.22 L2305.59 1478.24 L2320.68 1488.14 L2335.66 1498.04 L2350.76 1507.94 L2365.85 1517.84 L2380.83 1527.74 L2395.92 1537.64 L2410.90 1547.54 L2425.99 1557.44 L2441.09 1567.34 L2456.07 1577.24 L2471.16 1587.02 L2486.26 1596.92 L2501.24 1606.70 L2516.33 1616.60 L2531.31 1626.37 L2546.40 1636.15 L2561.50 1646.05 L2576.47 1655.83 L2591.57 1665.60 L2606.67 1675.38 L2621.64 1685.16 L2636.74 1694.93 L2651.84 1704.71 L2666.81 1714.49 L2681.91 1724.26 L2696.88 1734.04 L2711.98 1743.82 L2727.08 1753.59 L2742.05 1763.25 L2757.15 1773.02 L2772.25 1782.80 L2787.22 1792.45 L2802.32 1802.23 L2817.29 1811.88 L2832.39 1821.66 L2847.49 1831.31 L2862.46 1840.96 L2877.56 1850.74 L2892.66 1860.39 L2907.63 1870.04 L2922.73 1879.70 L2937.82 1889.35 L2952.80 1899.00 L2967.90 1908.66 L2982.87 1918.31 L2997.97 1927.96 L3013.07 1937.49 L3028.04 1947.14 L3043.14 1956.80 L3058.23 1966.33 L3073.21 1975.98 L3088.30 1985.51 L3103.28 1995.16 L3118.38 2004.69 L3133.47 2014.22 L3148.45 2023.75 L3163.55 2033.28 L3178.64 2042.81 L3193.62 2052.33 L3208.71 2061.86 L3223.81 2071.39 L3238.78 2080.92 L3253.88 2090.33 L3268.86 2099.86 L3283.95 2109.38 L3299.05 2118.79 L3314.03 2128.32 L3329.12 2137.72 L3344.22 2147.13 L3359.19 2156.53 L3374.29 2165.94 L3389.26 2175.35 L3404.36 2184.75 L3419.46 2194.16 L3434.43 2203.56 L3449.53 2212.97 L3464.63 2222.37 L3479.60 2231.65 L3494.70 2241.06 L3509.80 2250.34 L3524.77 2259.62 L3539.87 2269.03 L3554.84 2278.31 L3569.94 2287.59 L3585.04 2296.87 L3600.01 2306.15 L3615.11 2315.43 L3630.21 2324.72 L3645.18 2333.87 L3660.28 2343.16 L3675.25 2352.44 L3690.35 2361.60 L3705.45 2370.88 L3720.42 2380.03 L3735.52 2389.19 L3750.61 2398.35 L3765.59 2407.51 L3780.69 2416.67 L3795.66 2425.82 L3795.66 1374.78 L3780.69 1369.83 L3765.59 1365.01 L3750.61 1360.06 L3735.52 1355.23 L3720.42 1350.28 L3705.45 1345.33 L3690.35 1340.50 L3675.25 1335.55 L3660.28 1330.60 L3645.18 1325.65 L3630.21 1320.70 L3615.11 1315.75 L3600.01 1310.80 L3585.04 1305.85 L3569.94 1300.90 L3554.84 1295.95 L3539.87 1291.00 L3524.77 1286.05 L3509.80 1281.10 L3494.70 1276.03 L3479.60 1271.08 L3464.63 1266.13 L3449.53 1261.05 L3434.43 1256.10 L3419.46 1251.03 L3404.36 1246.08 L3389.26 1241.00 L3374.29 1235.93 L3359.19 1230.98 L3344.22 1225.91 L3329.12 1220.83 L3314.03 1215.76 L3299.05 1210.81 L3283.95 1205.73 L3268.86 1200.66 L3253.88 1195.59 L3238.78 1190.51 L3223.81 1185.44 L3208.71 1180.36 L3193.62 1175.29 L3178.64 1170.09 L3163.55 1165.02 L3148.45 1159.94 L3133.47 1154.87 L3118.38 1149.67 L3103.28 1144.60 L3088.30 1139.53 L3073.21 1134.33 L3058.23 1129.25 L3043.14 1124.06 L3028.04 1118.98 L3013.07 1113.78 L2997.97 1108.71 L2982.87 1103.51 L2967.90 1098.32 L2952.80 1093.24 L2937.82 1088.04 L2922.73 1082.85 L2907.63 1077.77 L2892.66 1072.57 L2877.56 1067.38 L2862.46 1062.18 L2847.49 1056.98 L2832.39 1051.78 L2817.29 1046.59 L2802.32 1041.39 L2787.22 1036.19 L2772.25 1030.99 L2757.15 1025.80 L2742.05 1020.60 L2727.08 1015.40 L2711.98 1010.20 L2696.88 1004.88 L2681.91 999.68 L2666.81 994.49 L2651.84 989.29 L2636.74 983.97 L2621.64 978.77 L2606.67 973.57 L2591.57 968.37 L2576.47 963.05 L2561.50 957.85 L2546.40 952.53 L2531.31 947.34 L2516.33 942.01 L2501.24 936.82 L2486.26 931.50 L2471.16 926.30 L2456.07 920.98 L2441.09 915.65 L2425.99 910.46 L2410.90 905.14 L2395.92 899.81 L2380.83 894.62 L2365.85 889.30 L2350.76 883.97 L2335.66 878.65 L2320.68 873.33 L2305.59 868.01 L2290.49 862.69 L2275.51 857.37 L2260.42 852.05 L2245.32 846.60 L2230.35 841.28 L2215.25 835.96 L2200.28 830.64 L2185.18 825.19 L2170.08 819.87 L2155.11 814.42 L2140.01 809.10 L2124.91 803.66 L2109.94 798.21 L2094.84 792.77 L2079.87 787.45 L2064.77 782.00 L2049.67 776.56 L2034.70 771.11 L2019.60 765.67 L2004.50 760.10 L1989.53 754.65 L1974.43 749.21 L1959.46 743.64 L1944.36 738.19 L1929.26 732.62 L1914.29 727.05 L1899.19 721.49 L1884.09 716.04 L1869.12 710.47 L1854.02 704.78 L1838.92 699.21 L1823.95 693.64 L1808.85 687.95 L1793.88 682.38 L1778.78 676.69 L1763.68 670.99 L1748.71 665.42 L1733.61 659.73 L1718.52 653.92 L1703.54 648.22 L1688.44 642.53 L1673.47 636.71 L1658.37 630.90 L1643.28 625.08 L1628.30 619.26 L1613.20 613.45 L1598.11 607.63 L1583.13 601.69 L1568.04 595.87 L1552.94 589.93 L1537.96 583.99 L1522.87 577.93 L1507.89 571.99 L1492.80 565.93 L1477.70 559.86 L1462.72 553.80 L1447.63 547.73 L1432.53 541.55 L1417.56 535.48 L1402.46 529.30 L1387.48 523.11 L1372.39 516.80 L1357.29 510.61 L1342.32 504.30 L1327.22 497.99 L1312.12 491.55 L1297.15 485.24 L1282.05 478.80 L1266.95 472.37 L1251.98 465.81 L1236.88 459.37 L1221.91 452.82 L1206.81 446.26 L1191.71 439.57 L1176.74 433.01 L1161.64 426.33 L1146.54 419.65 L1131.57 412.84 L1116.47 406.04 L1101.50 399.23 L1086.40 392.42 L1071.30 385.49 L1056.33 378.56 L1041.23 371.63 L1026.13 364.70 L1011.16 357.65 L996.06 350.59 L980.97 343.42 L965.99 336.36 L950.89 329.19 L935.92 321.88 L920.82 314.58 L905.73 307.28 L890.75 299.98 L875.65 292.55 L860.56 285.13 L845.58 277.70 L830.49 270.15 L815.51 262.61 L800.41 255.06 L785.32 247.38 L770.34 239.71 L755.25 232.04 L740.15 224.24 L725.17 216.45 L710.08 208.65 L694.98 200.85 L680.01 193.06 L664.91 185.38 L649.93 177.71 L634.84 170.41 L619.74 164.22 L619.74 164.22 Z" stroke-linejoin="round"/>
	</defs>
	<defs>
		<clipPath id="clipPath_AJpBQmuv">
			<use xlink:href="#path_LELvUzeW"/>
		</clipPath>
	</defs>
	<use xlink:href="#path_LELvUzeW" style="stroke:none;fill:#FF3333;fill-opacity:0.25"/>
	<use xlink:href="#path_LELvUzeW" style="fill:none;stroke:#FF0000;stroke-opacity:0.25;stroke-width:17.28" clip-path="url(#clipPath_AJpBQmuv)"/>
	<path d=" M619.74 164.22 L634.71 173.75 L649.81 184.27 L664.91 195.28 L679.88 206.42 L694.98 217.56 L710.08 228.70 L725.05 239.83 L740.15 250.97 L755.25 261.99 L770.22 273.00 L785.32 284.02 L800.29 294.91 L815.39 305.80 L830.49 316.69 L845.46 327.45 L860.56 338.10 L875.65 348.74 L890.63 359.38 L905.73 369.90 L920.70 380.30 L935.80 390.81 L950.89 401.09 L965.87 411.36 L980.97 421.63 L996.06 431.78 L1011.04 441.93 L1026.13 452.07 L1041.23 461.97 L1056.21 472.00 L1071.30 481.90 L1086.28 491.80 L1101.38 501.57 L1116.47 511.35 L1131.45 521.00 L1146.54 530.66 L1161.64 540.31 L1176.62 549.84 L1191.71 559.37 L1206.69 568.77 L1221.78 578.18 L1236.88 587.58 L1251.86 596.86 L1266.95 606.15 L1282.05 615.43 L1297.02 624.59 L1312.12 633.74 L1327.22 642.90 L1342.19 651.94 L1357.29 660.97 L1372.26 669.88 L1387.36 678.79 L1402.46 687.70 L1417.43 696.61 L1432.53 705.40 L1447.63 714.18 L1462.60 722.97 L1477.70 731.63 L1492.67 740.30 L1507.77 748.96 L1522.87 757.50 L1537.84 766.04 L1552.94 774.58 L1568.04 782.99 L1583.01 791.53 L1598.11 799.94 L1613.08 808.36 L1628.18 816.65 L1643.28 825.07 L1658.25 833.36 L1673.35 841.65 L1688.44 849.94 L1703.42 858.11 L1718.52 866.28 L1733.61 874.57 L1748.59 882.61 L1763.68 890.78 L1778.66 898.95 L1793.76 906.99 L1808.85 915.16 L1823.83 923.20 L1838.92 931.25 L1854.02 939.17 L1869.00 947.21 L1884.09 955.26 L1899.07 963.18 L1914.16 971.10 L1929.26 979.02 L1944.24 986.94 L1959.33 994.86 L1974.43 1002.78 L1989.40 1010.57 L2004.50 1018.49 L2019.60 1026.29 L2034.57 1034.21 L2049.67 1042.01 L2064.64 1049.80 L2079.74 1057.60 L2094.84 1065.40 L2109.81 1073.07 L2124.91 1080.87 L2140.01 1088.66 L2154.98 1096.34 L2170.08 1104.13 L2185.05 1111.80 L2200.15 1119.48 L2215.25 1127.15 L2230.22 1134.82 L2245.32 1142.50 L2260.42 1150.17 L2275.39 1157.84 L2290.49 1165.51 L2305.59 1173.19 L2320.56 1180.74 L2335.66 1188.41 L2350.63 1196.08 L2365.73 1203.63 L2380.83 1211.18 L2395.80 1218.85 L2410.90 1226.40 L2425.99 1233.95 L2440.97 1241.62 L2456.07 1249.17 L2471.04 1256.72 L2486.14 1264.27 L2501.24 1271.82 L2516.21 1279.37 L2531.31 1286.92 L2546.40 1294.47 L2561.38 1302.01 L2576.47 1309.56 L2591.57 1316.99 L2606.55 1324.54 L2621.64 1332.09 L2636.62 1339.51 L2651.72 1347.06 L2666.81 1354.61 L2681.79 1362.04 L2696.88 1369.58 L2711.98 1377.01 L2726.95 1384.56 L2742.05 1391.98 L2757.03 1399.53 L2772.12 1406.96 L2787.22 1414.38 L2802.20 1421.81 L2817.29 1429.36 L2832.39 1436.78 L2847.36 1444.21 L2862.46 1451.63 L2877.56 1459.06 L2892.53 1466.48 L2907.63 1473.91 L2922.60 1481.33 L2937.70 1488.76 L2952.80 1496.18 L2967.77 1503.61 L2982.87 1510.91 L2997.97 1518.34 L3012.94 1525.76 L3028.04 1533.06 L3043.01 1540.49 L3058.11 1547.91 L3073.21 1555.21 L3088.18 1562.52 L3103.28 1569.94 L3118.38 1577.24 L3133.35 1584.54 L3148.45 1591.97 L3163.42 1599.27 L3178.52 1606.57 L3193.62 1613.87 L3208.59 1621.18 L3223.69 1628.48 L3238.78 1635.78 L3253.76 1643.08 L3268.86 1650.26 L3283.95 1657.56 L3298.93 1664.86 L3314.03 1672.04 L3329.00 1679.34 L3344.10 1686.64 L3359.19 1693.82 L3374.17 1701.00 L3389.26 1708.30 L3404.36 1715.48 L3419.34 1722.65 L3434.43 1729.83 L3449.41 1737.01 L3464.51 1744.31 L3479.60 1751.36 L3494.58 1758.54 L3509.67 1765.72 L3524.77 1772.90 L3539.74 1780.08 L3554.84 1787.25 L3569.94 1794.31 L3584.91 1801.49 L3600.01 1808.54 L3614.99 1815.72 L3630.08 1822.77 L3645.18 1829.82 L3660.15 1837.00 L3675.25 1844.06 L3690.35 1851.11 L3705.32 1858.16 L3720.42 1865.22 L3735.39 1872.27 L3750.49 1879.33 L3765.59 1886.38 L3780.56 1893.31 L3795.66 1900.36" stroke-linejoin="round" style="fill:none;stroke:#FF0000;stroke-width:8.64"/>
	<line x1="556.38" y1="2489.19" x2="556.38" y2="100.86" style="stroke:#000000;stroke-width:5.76"/>
	<line x1="556.38" y1="2412.71" x2="516.41" y2="2412.71" style="stroke:#000000;stroke-width:5.76"/>
	<text x="496.49" y="2447.73" style="font-family:'Helvetica';font-size:99.99px;fill:#000000" text-anchor="end">-0.60</text>
	<line x1="556.38" y1="1663.25" x2="516.41" y2="1663.25" style="stroke:#000000;stroke-width:5.76"/>
	<text x="496.49" y="1698.28" style="font-family:'Helvetica';font-size:99.99px;fill:#000000" text-anchor="end">-0.40</text>
	<line x1="556.38" y1="913.67" x2="516.41" y2="913.67" style="stroke:#000000;stroke-width:5.76"/>
	<text x="496.49" y="948.70" style="font-family:'Helvetica';font-size:99.99px;fill:#000000" text-anchor="end">-0.20</text>
	<line x1="556.38" y1="164.22" x2="516.41" y2="164.22" style="stroke:#000000;stroke-width:5.76"/>
	<text x="496.49" y="199.25" style="font-family:'Helvetica';font-size:99.99px;fill:#000000" text-anchor="end">0.00</text>
	<text x="190.71" y="1294.96" style="font-family:'Helvetica';font-size:99.99px;fill:#000000" transform="rotate(-90 190.71,1294.96)" text-anchor="middle">Difference in curves (%)</text>
	<line x1="556.38" y1="2489.19" x2="3859.02" y2="2489.19" style="stroke:#000000;stroke-width:5.76"/>
	<line x1="619.74" y1="2489.19" x2="619.74" y2="2529.16" style="stroke:#000000;stroke-width:5.76"/>
	<text x="619.74" y="2619.14" style="font-family:'Helvetica';font-size:99.99px;fill:#000000" text-anchor="middle">0</text>
	<line x1="1372.39" y1="2489.19" x2="1372.39" y2="2529.16" style="stroke:#000000;stroke-width:5.76"/>
	<text x="1372.39" y="2619.14" style="font-family:'Helvetica';font-size:99.99px;fill:#000000" text-anchor="middle">50</text>
	<line x1="2124.91" y1="2489.19" x2="2124.91" y2="2529.16" style="stroke:#000000;stroke-width:5.76"/>
	<text x="2124.91" y="2619.14" style="font-family:'Helvetica';font-size:99.99px;fill:#000000" text-anchor="middle">100</text>
	<line x1="2877.56" y1="2489.19" x2="2877.56" y2="2529.16" style="stroke:#000000;stroke-width:5.76"/>
	<text x="2877.56" y="2619.14" style="font-family:'Helvetica';font-size:99.99px;fill:#000000" text-anchor="middle">150</text>
	<line x1="3630.21" y1="2489.19" x2="3630.21" y2="2529.16" style="stroke:#000000;stroke-width:5.76"/>
	<text x="3630.21" y="2619.14" style="font-family:'Helvetica';font-size:99.99px;fill:#000000" text-anchor="middle">200</text>
	<text x="2207.70" y="2729.16" style="font-family:'Helvetica';font-size:99.99px;fill:#000000" text-anchor="middle">Days from 1 March 2020</text>
</svg>
