<?xml version="1.0" encoding="UTF-8" standalone="no"?>
<!-- This is a Stata 16.1 generated SVG file (http://www.stata.com) -->

<svg version="1.1" width="5.50in" height="4.00in" viewBox="0 0 3960 2880" xmlns="http://www.w3.org/2000/svg" xmlns:xlink="http://www.w3.org/1999/xlink">
	<desc>Stata Graph - Graph</desc>
	<rect x="0" y="0" width="3960" height="2880" style="fill:#EAF2F3;stroke:none"/>
	<rect x="0.00" y="0.00" width="3959.88" height="2880.00" style="fill:#EAF2F3"/>
	<rect x="2.88" y="2.88" width="3954.12" height="2874.24" style="fill:none;stroke:#EAF2F3;stroke-width:5.76"/>
	<rect x="578.53" y="100.86" width="3280.49" height="2388.33" style="fill:#FFFFFF"/>
	<rect x="581.41" y="103.74" width="3274.73" height="2382.57" style="fill:none;stroke:#FFFFFF;stroke-width:5.76"/>
	<line x1="578.53" y1="2425.82" x2="3859.02" y2="2425.82" style="stroke:#EAF2F3;stroke-width:8.64"/>
	<line x1="578.53" y1="2199.72" x2="3859.02" y2="2199.72" style="stroke:#EAF2F3;stroke-width:8.64"/>
	<line x1="578.53" y1="1973.50" x2="3859.02" y2="1973.50" style="stroke:#EAF2F3;stroke-width:8.64"/>
	<line x1="578.53" y1="1747.28" x2="3859.02" y2="1747.28" style="stroke:#EAF2F3;stroke-width:8.64"/>
	<line x1="578.53" y1="1521.18" x2="3859.02" y2="1521.18" style="stroke:#EAF2F3;stroke-width:8.64"/>
	<line x1="578.53" y1="1294.96" x2="3859.02" y2="1294.96" style="stroke:#EAF2F3;stroke-width:8.64"/>
	<line x1="578.53" y1="1068.86" x2="3859.02" y2="1068.86" style="stroke:#EAF2F3;stroke-width:8.64"/>
	<line x1="578.53" y1="842.64" x2="3859.02" y2="842.64" style="stroke:#EAF2F3;stroke-width:8.64"/>
	<line x1="578.53" y1="616.54" x2="3859.02" y2="616.54" style="stroke:#EAF2F3;stroke-width:8.64"/>
	<line x1="578.53" y1="390.32" x2="3859.02" y2="390.32" style="stroke:#EAF2F3;stroke-width:8.64"/>
	<defs>
		<path id="path_PKyISQCo" d="M656.74 2425.82 L656.74 2425.82 L671.72 2425.82 L686.69 2425.82 L701.66 2425.82 L716.51 2425.70 L731.49 2425.58 L746.46 2425.33 L761.43 2425.08 L776.41 2424.83 L791.26 2424.34 L806.23 2423.84 L821.21 2423.10 L836.18 2422.36 L851.15 2421.49 L866.00 2420.50 L880.98 2419.39 L895.95 2418.15 L910.92 2416.79 L925.77 2415.30 L940.75 2413.70 L955.72 2411.96 L970.70 2410.11 L985.67 2408.13 L1000.52 2405.90 L1015.49 2403.67 L1030.47 2401.32 L1045.44 2398.84 L1060.41 2396.12 L1075.26 2393.40 L1090.24 2390.55 L1105.21 2387.58 L1120.18 2384.49 L1135.04 2381.27 L1150.01 2377.93 L1164.98 2374.47 L1179.96 2371.00 L1194.93 2367.41 L1209.78 2363.70 L1224.75 2359.86 L1239.73 2355.90 L1254.70 2351.94 L1269.67 2347.86 L1284.53 2343.65 L1299.50 2339.44 L1314.47 2335.11 L1329.45 2330.66 L1344.30 2326.20 L1359.27 2321.75 L1374.24 2317.04 L1389.22 2312.46 L1404.19 2307.64 L1419.04 2302.81 L1434.02 2297.99 L1448.99 2293.04 L1463.96 2288.09 L1478.94 2283.14 L1493.79 2278.06 L1508.76 2272.86 L1523.73 2267.67 L1538.71 2262.47 L1553.68 2257.27 L1568.53 2251.95 L1583.51 2246.63 L1598.48 2241.18 L1613.45 2235.86 L1628.30 2230.42 L1643.28 2224.85 L1658.25 2219.40 L1673.22 2213.83 L1688.20 2208.26 L1703.05 2202.70 L1718.02 2197.13 L1732.99 2191.43 L1747.97 2185.86 L1762.94 2180.17 L1777.79 2174.48 L1792.77 2168.79 L1807.74 2162.97 L1822.71 2157.28 L1837.56 2151.58 L1852.54 2145.77 L1867.51 2139.95 L1882.48 2134.26 L1897.46 2128.44 L1912.31 2122.63 L1927.28 2116.81 L1942.26 2110.99 L1957.23 2105.18 L1972.20 2099.36 L1987.05 2093.54 L2002.03 2087.73 L2017.00 2081.91 L2031.97 2076.09 L2046.83 2070.28 L2061.80 2064.46 L2076.77 2058.52 L2091.75 2052.71 L2106.72 2046.89 L2121.57 2041.07 L2136.54 2035.26 L2151.52 2029.44 L2166.49 2023.62 L2181.47 2017.81 L2196.32 2011.99 L2211.29 2006.17 L2226.26 2000.36 L2241.24 1994.54 L2256.09 1988.72 L2271.06 1982.91 L2286.03 1977.22 L2301.01 1971.40 L2315.98 1965.58 L2330.83 1959.77 L2345.80 1953.95 L2360.78 1948.13 L2375.75 1942.32 L2390.73 1936.62 L2405.58 1930.81 L2420.55 1924.99 L2435.52 1919.17 L2450.50 1913.36 L2465.35 1907.54 L2480.32 1901.85 L2495.30 1896.03 L2510.27 1890.22 L2525.24 1884.40 L2540.09 1878.71 L2555.07 1872.89 L2570.04 1867.07 L2585.01 1861.26 L2599.99 1855.44 L2614.84 1849.63 L2629.81 1843.93 L2644.78 1838.12 L2659.76 1832.30 L2674.73 1826.48 L2689.58 1820.67 L2704.56 1814.85 L2719.53 1809.03 L2734.50 1803.22 L2749.35 1797.40 L2764.33 1791.58 L2779.30 1785.77 L2794.28 1779.95 L2809.25 1774.14 L2824.10 1768.32 L2839.07 1762.38 L2854.05 1756.56 L2869.02 1750.75 L2883.99 1744.93 L2898.84 1738.99 L2913.82 1733.17 L2928.79 1727.23 L2943.76 1721.42 L2958.61 1715.48 L2973.59 1709.66 L2988.56 1703.72 L3003.54 1697.78 L3018.51 1691.96 L3033.36 1686.02 L3048.33 1680.08 L3063.31 1674.14 L3078.28 1668.20 L3093.26 1662.26 L3108.11 1656.32 L3123.08 1650.38 L3138.05 1644.44 L3153.03 1638.50 L3167.88 1632.44 L3182.85 1626.50 L3197.82 1620.56 L3212.80 1614.49 L3227.77 1608.55 L3242.62 1602.61 L3257.59 1596.55 L3272.57 1590.61 L3287.54 1584.54 L3302.52 1578.48 L3317.37 1572.54 L3332.34 1566.48 L3347.31 1560.41 L3362.29 1554.47 L3377.14 1548.41 L3392.11 1542.34 L3407.09 1536.28 L3422.06 1530.22 L3437.03 1524.15 L3451.88 1518.09 L3466.86 1512.02 L3481.83 1505.96 L3496.80 1499.90 L3511.78 1493.83 L3526.63 1487.65 L3541.60 1481.58 L3556.57 1475.52 L3571.55 1469.45 L3586.40 1463.27 L3601.37 1457.20 L3616.35 1451.14 L3631.32 1444.95 L3646.29 1438.89 L3661.14 1432.70 L3676.12 1426.63 L3691.09 1420.45 L3706.07 1414.26 L3721.04 1408.20 L3735.89 1402.01 L3750.86 1395.82 L3765.84 1389.76 L3780.81 1383.57 L3795.78 1377.38 L3795.78 1351.02 L3780.81 1357.33 L3765.84 1363.64 L3750.86 1369.96 L3735.89 1376.27 L3721.04 1382.58 L3706.07 1388.77 L3691.09 1395.08 L3676.12 1401.39 L3661.14 1407.58 L3646.29 1413.89 L3631.32 1420.08 L3616.35 1426.39 L3601.37 1432.57 L3586.40 1438.76 L3571.55 1445.07 L3556.57 1451.26 L3541.60 1457.45 L3526.63 1463.64 L3511.78 1469.82 L3496.80 1476.01 L3481.83 1482.20 L3466.86 1488.39 L3451.88 1494.45 L3437.03 1500.64 L3422.06 1506.83 L3407.09 1512.89 L3392.11 1519.08 L3377.14 1525.27 L3362.29 1531.33 L3347.31 1537.39 L3332.34 1543.58 L3317.37 1549.65 L3302.52 1555.71 L3287.54 1561.90 L3272.57 1567.96 L3257.59 1574.03 L3242.62 1580.09 L3227.77 1586.15 L3212.80 1592.22 L3197.82 1598.28 L3182.85 1604.35 L3167.88 1610.41 L3153.03 1616.47 L3138.05 1622.54 L3123.08 1628.48 L3108.11 1634.54 L3093.26 1640.61 L3078.28 1646.55 L3063.31 1652.61 L3048.33 1658.67 L3033.36 1664.61 L3018.51 1670.68 L3003.54 1676.62 L2988.56 1682.56 L2973.59 1688.62 L2958.61 1694.56 L2943.76 1700.50 L2928.79 1706.57 L2913.82 1712.51 L2898.84 1718.45 L2883.99 1724.39 L2869.02 1730.45 L2854.05 1736.39 L2839.07 1742.33 L2824.10 1748.27 L2809.25 1754.21 L2794.28 1760.15 L2779.30 1766.09 L2764.33 1772.03 L2749.35 1777.97 L2734.50 1783.91 L2719.53 1789.85 L2704.56 1795.67 L2689.58 1801.61 L2674.73 1807.55 L2659.76 1813.49 L2644.78 1819.43 L2629.81 1825.37 L2614.84 1831.19 L2599.99 1837.13 L2585.01 1843.07 L2570.04 1849.01 L2555.07 1854.95 L2540.09 1860.76 L2525.24 1866.70 L2510.27 1872.64 L2495.30 1878.58 L2480.32 1884.40 L2465.35 1890.34 L2450.50 1896.28 L2435.52 1902.10 L2420.55 1908.04 L2405.58 1913.98 L2390.73 1919.92 L2375.75 1925.73 L2360.78 1931.67 L2345.80 1937.61 L2330.83 1943.43 L2315.98 1949.37 L2301.01 1955.31 L2286.03 1961.25 L2271.06 1967.07 L2256.09 1973.01 L2241.24 1978.95 L2226.26 1984.89 L2211.29 1990.83 L2196.32 1996.64 L2181.47 2002.59 L2166.49 2008.53 L2151.52 2014.47 L2136.54 2020.41 L2121.57 2026.35 L2106.72 2032.29 L2091.75 2038.23 L2076.77 2044.17 L2061.80 2049.98 L2046.83 2055.92 L2031.97 2061.86 L2017.00 2067.80 L2002.03 2073.74 L1987.05 2079.81 L1972.20 2085.75 L1957.23 2091.69 L1942.26 2097.63 L1927.28 2103.57 L1912.31 2109.51 L1897.46 2115.45 L1882.48 2121.39 L1867.51 2127.33 L1852.54 2133.15 L1837.56 2139.09 L1822.71 2145.03 L1807.74 2150.97 L1792.77 2156.78 L1777.79 2162.72 L1762.94 2168.54 L1747.97 2174.36 L1732.99 2180.17 L1718.02 2185.99 L1703.05 2191.80 L1688.20 2197.50 L1673.22 2203.31 L1658.25 2209.01 L1643.28 2214.70 L1628.30 2220.27 L1613.45 2225.96 L1598.48 2231.53 L1583.51 2237.10 L1568.53 2242.67 L1553.68 2248.11 L1538.71 2253.56 L1523.73 2258.88 L1508.76 2264.32 L1493.79 2269.65 L1478.94 2274.84 L1463.96 2280.04 L1448.99 2285.24 L1434.02 2290.31 L1419.04 2295.39 L1404.19 2300.34 L1389.22 2305.29 L1374.24 2310.11 L1359.27 2314.82 L1344.30 2319.64 L1329.45 2324.22 L1314.47 2328.80 L1299.50 2333.26 L1284.53 2337.71 L1269.67 2342.04 L1254.70 2346.25 L1239.73 2350.46 L1224.75 2354.54 L1209.78 2358.50 L1194.93 2362.34 L1179.96 2366.17 L1164.98 2369.76 L1150.01 2373.35 L1135.04 2376.82 L1120.18 2380.16 L1105.21 2383.50 L1090.24 2386.59 L1075.26 2389.69 L1060.41 2392.53 L1045.44 2395.38 L1030.47 2398.10 L1015.49 2400.58 L1000.52 2403.05 L985.67 2405.40 L970.70 2407.51 L955.72 2409.61 L940.75 2411.47 L925.77 2413.32 L910.92 2414.93 L895.95 2416.54 L880.98 2417.90 L866.00 2419.26 L851.15 2420.38 L836.18 2421.37 L821.21 2422.36 L806.23 2423.10 L791.26 2423.72 L776.41 2424.34 L761.43 2424.83 L746.46 2425.08 L731.49 2425.45 L716.51 2425.58 L701.66 2425.70 L686.69 2425.82 L671.72 2425.82 L656.74 2425.82 L656.74 2425.82 Z" stroke-linejoin="round"/>
	</defs>
	<defs>
		<clipPath id="clipPath_ahzSmITw">
			<use xlink:href="#path_PKyISQCo"/>
		</clipPath>
	</defs>
	<use xlink:href="#path_PKyISQCo" style="stroke:none;fill:#3333FF;fill-opacity:0.25"/>
	<use xlink:href="#path_PKyISQCo" style="fill:none;stroke:#0000FF;stroke-opacity:0.25;stroke-width:17.28" clip-path="url(#clipPath_ahzSmITw)"/>
	<defs>
		<path id="path_jgPXtWxx" d="M656.74 2425.82 L656.74 2425.82 L671.72 2425.82 L686.69 2425.82 L701.66 2425.70 L716.51 2425.70 L731.49 2425.45 L746.46 2425.20 L761.43 2424.83 L776.41 2424.34 L791.26 2423.72 L806.23 2422.98 L821.21 2421.99 L836.18 2421.00 L851.15 2419.76 L866.00 2418.27 L880.98 2416.79 L895.95 2415.06 L910.92 2413.08 L925.77 2410.97 L940.75 2408.75 L955.72 2406.27 L970.70 2403.55 L985.67 2400.70 L1000.52 2397.73 L1015.49 2394.51 L1030.47 2391.17 L1045.44 2387.71 L1060.41 2383.99 L1075.26 2380.03 L1090.24 2376.07 L1105.21 2371.87 L1120.18 2367.54 L1135.04 2363.08 L1150.01 2358.38 L1164.98 2353.55 L1179.96 2348.60 L1194.93 2343.53 L1209.78 2338.33 L1224.75 2333.01 L1239.73 2327.56 L1254.70 2321.99 L1269.67 2316.30 L1284.53 2310.48 L1299.50 2304.54 L1314.47 2298.48 L1329.45 2292.42 L1344.30 2286.11 L1359.27 2279.79 L1374.24 2273.36 L1389.22 2266.80 L1404.19 2260.24 L1419.04 2253.56 L1434.02 2246.75 L1448.99 2239.94 L1463.96 2233.01 L1478.94 2225.96 L1493.79 2218.91 L1508.76 2211.85 L1523.73 2204.55 L1538.71 2197.37 L1553.68 2190.07 L1568.53 2182.65 L1583.51 2175.22 L1598.48 2167.80 L1613.45 2160.25 L1628.30 2152.70 L1643.28 2145.15 L1658.25 2137.48 L1673.22 2129.80 L1688.20 2122.01 L1703.05 2114.33 L1718.02 2106.54 L1732.99 2098.74 L1747.97 2090.82 L1762.94 2083.03 L1777.79 2075.10 L1792.77 2067.18 L1807.74 2059.26 L1822.71 2051.34 L1837.56 2043.42 L1852.54 2035.38 L1867.51 2027.46 L1882.48 2019.42 L1897.46 2011.37 L1912.31 2003.45 L1927.28 1995.41 L1942.26 1987.36 L1957.23 1979.32 L1972.20 1971.28 L1987.05 1963.23 L2002.03 1955.19 L2017.00 1947.14 L2031.97 1939.10 L2046.83 1931.06 L2061.80 1923.14 L2076.77 1915.09 L2091.75 1907.05 L2106.72 1899.00 L2121.57 1890.96 L2136.54 1882.92 L2151.52 1874.99 L2166.49 1866.95 L2181.47 1858.91 L2196.32 1850.99 L2211.29 1842.94 L2226.26 1834.90 L2241.24 1826.98 L2256.09 1818.93 L2271.06 1811.01 L2286.03 1802.97 L2301.01 1795.05 L2315.98 1787.01 L2330.83 1779.09 L2345.80 1771.17 L2360.78 1763.12 L2375.75 1755.20 L2390.73 1747.28 L2405.58 1739.24 L2420.55 1731.32 L2435.52 1723.40 L2450.50 1715.48 L2465.35 1707.43 L2480.32 1699.51 L2495.30 1691.59 L2510.27 1683.67 L2525.24 1675.75 L2540.09 1667.71 L2555.07 1659.79 L2570.04 1651.87 L2585.01 1643.95 L2599.99 1636.03 L2614.84 1627.98 L2629.81 1620.06 L2644.78 1612.14 L2659.76 1604.22 L2674.73 1596.18 L2689.58 1588.26 L2704.56 1580.34 L2719.53 1572.42 L2734.50 1564.37 L2749.35 1556.45 L2764.33 1548.53 L2779.30 1540.49 L2794.28 1532.57 L2809.25 1524.52 L2824.10 1516.60 L2839.07 1508.56 L2854.05 1500.64 L2869.02 1492.60 L2883.99 1484.55 L2898.84 1476.63 L2913.82 1468.59 L2928.79 1460.54 L2943.76 1452.50 L2958.61 1444.46 L2973.59 1436.41 L2988.56 1428.37 L3003.54 1420.32 L3018.51 1412.28 L3033.36 1404.24 L3048.33 1396.19 L3063.31 1388.15 L3078.28 1379.98 L3093.26 1371.94 L3108.11 1363.77 L3123.08 1355.72 L3138.05 1347.56 L3153.03 1339.51 L3167.88 1331.34 L3182.85 1323.30 L3197.82 1315.13 L3212.80 1306.96 L3227.77 1298.80 L3242.62 1290.63 L3257.59 1282.59 L3272.57 1274.42 L3287.54 1266.25 L3302.52 1258.08 L3317.37 1249.79 L3332.34 1241.62 L3347.31 1233.45 L3362.29 1225.29 L3377.14 1217.00 L3392.11 1208.83 L3407.09 1200.66 L3422.06 1192.37 L3437.03 1184.20 L3451.88 1175.91 L3466.86 1167.74 L3481.83 1159.45 L3496.80 1151.16 L3511.78 1142.99 L3526.63 1134.70 L3541.60 1126.41 L3556.57 1118.12 L3571.55 1109.82 L3586.40 1101.53 L3601.37 1093.24 L3616.35 1084.95 L3631.32 1076.66 L3646.29 1068.37 L3661.14 1060.08 L3676.12 1051.66 L3691.09 1043.37 L3706.07 1035.08 L3721.04 1026.66 L3735.89 1018.37 L3750.86 1009.96 L3765.84 1001.66 L3780.81 993.25 L3795.78 984.96 L3795.78 878.65 L3780.81 887.69 L3765.84 896.60 L3750.86 905.51 L3735.89 914.42 L3721.04 923.33 L3706.07 932.36 L3691.09 941.27 L3676.12 950.18 L3661.14 958.97 L3646.29 967.88 L3631.32 976.79 L3616.35 985.70 L3601.37 994.49 L3586.40 1003.40 L3571.55 1012.31 L3556.57 1021.09 L3541.60 1030.00 L3526.63 1038.79 L3511.78 1047.58 L3496.80 1056.49 L3481.83 1065.27 L3466.86 1074.06 L3451.88 1082.85 L3437.03 1091.63 L3422.06 1100.42 L3407.09 1109.21 L3392.11 1117.99 L3377.14 1126.78 L3362.29 1135.44 L3347.31 1144.23 L3332.34 1153.01 L3317.37 1161.68 L3302.52 1170.46 L3287.54 1179.13 L3272.57 1187.91 L3257.59 1196.58 L3242.62 1205.24 L3227.77 1214.03 L3212.80 1222.69 L3197.82 1231.35 L3182.85 1240.01 L3167.88 1248.68 L3153.03 1257.34 L3138.05 1266.00 L3123.08 1274.66 L3108.11 1283.33 L3093.26 1291.99 L3078.28 1300.65 L3063.31 1309.19 L3048.33 1317.85 L3033.36 1326.52 L3018.51 1335.06 L3003.54 1343.72 L2988.56 1352.26 L2973.59 1360.92 L2958.61 1369.46 L2943.76 1378.00 L2928.79 1386.66 L2913.82 1395.20 L2898.84 1403.74 L2883.99 1412.28 L2869.02 1420.82 L2854.05 1429.48 L2839.07 1438.02 L2824.10 1446.56 L2809.25 1455.10 L2794.28 1463.64 L2779.30 1472.18 L2764.33 1480.72 L2749.35 1489.13 L2734.50 1497.67 L2719.53 1506.21 L2704.56 1514.75 L2689.58 1523.29 L2674.73 1531.83 L2659.76 1540.24 L2644.78 1548.78 L2629.81 1557.32 L2614.84 1565.86 L2599.99 1574.40 L2585.01 1582.81 L2570.04 1591.35 L2555.07 1599.89 L2540.09 1608.43 L2525.24 1616.84 L2510.27 1625.38 L2495.30 1633.92 L2480.32 1642.46 L2465.35 1650.88 L2450.50 1659.42 L2435.52 1667.95 L2420.55 1676.49 L2405.58 1685.03 L2390.73 1693.57 L2375.75 1701.99 L2360.78 1710.53 L2345.80 1719.06 L2330.83 1727.60 L2315.98 1736.14 L2301.01 1744.68 L2286.03 1753.22 L2271.06 1761.76 L2256.09 1770.30 L2241.24 1778.84 L2226.26 1787.38 L2211.29 1795.92 L2196.32 1804.58 L2181.47 1813.12 L2166.49 1821.66 L2151.52 1830.20 L2136.54 1838.73 L2121.57 1847.40 L2106.72 1855.94 L2091.75 1864.48 L2076.77 1873.14 L2061.80 1881.68 L2046.83 1890.34 L2031.97 1898.88 L2017.00 1907.54 L2002.03 1916.08 L1987.05 1924.74 L1972.20 1933.28 L1957.23 1941.95 L1942.26 1950.48 L1927.28 1959.15 L1912.31 1967.81 L1897.46 1976.35 L1882.48 1985.01 L1867.51 1993.55 L1852.54 2002.09 L1837.56 2010.63 L1822.71 2019.29 L1807.74 2027.83 L1792.77 2036.25 L1777.79 2044.79 L1762.94 2053.32 L1747.97 2061.74 L1732.99 2070.15 L1718.02 2078.57 L1703.05 2086.99 L1688.20 2095.28 L1673.22 2103.57 L1658.25 2111.86 L1643.28 2120.15 L1628.30 2128.32 L1613.45 2136.49 L1598.48 2144.53 L1583.51 2152.57 L1568.53 2160.62 L1553.68 2168.54 L1538.71 2176.46 L1523.73 2184.26 L1508.76 2192.05 L1493.79 2199.72 L1478.94 2207.27 L1463.96 2214.82 L1448.99 2222.37 L1434.02 2229.80 L1419.04 2237.10 L1404.19 2244.28 L1389.22 2251.45 L1374.24 2258.38 L1359.27 2265.31 L1344.30 2272.24 L1329.45 2278.93 L1314.47 2285.61 L1299.50 2292.05 L1284.53 2298.48 L1269.67 2304.79 L1254.70 2310.86 L1239.73 2316.92 L1224.75 2322.86 L1209.78 2328.55 L1194.93 2334.25 L1179.96 2339.69 L1164.98 2345.01 L1150.01 2350.21 L1135.04 2355.16 L1120.18 2360.11 L1105.21 2364.81 L1090.24 2369.39 L1075.26 2373.72 L1060.41 2377.93 L1045.44 2382.01 L1030.47 2385.85 L1015.49 2389.56 L1000.52 2393.03 L985.67 2396.37 L970.70 2399.59 L955.72 2402.43 L940.75 2405.28 L925.77 2407.88 L910.92 2410.23 L895.95 2412.46 L880.98 2414.44 L866.00 2416.29 L851.15 2418.03 L836.18 2419.51 L821.21 2420.75 L806.23 2421.86 L791.26 2422.85 L776.41 2423.72 L761.43 2424.34 L746.46 2424.83 L731.49 2425.20 L716.51 2425.45 L701.66 2425.70 L686.69 2425.82 L671.72 2425.82 L656.74 2425.82 L656.74 2425.82 Z" stroke-linejoin="round"/>
	</defs>
	<defs>
		<clipPath id="clipPath_BhAtTRsk">
			<use xlink:href="#path_jgPXtWxx"/>
		</clipPath>
	</defs>
	<use xlink:href="#path_jgPXtWxx" style="stroke:none;fill:#FF3333;fill-opacity:0.25"/>
	<use xlink:href="#path_jgPXtWxx" style="fill:none;stroke:#FF0000;stroke-opacity:0.25;stroke-width:17.28" clip-path="url(#clipPath_BhAtTRsk)"/>
	<path d=" M641.77 2425.95 L656.74 2425.95 L671.72 2425.95 L686.57 2425.82 L701.54 2425.82 L716.51 2425.70 L731.49 2425.58 L746.46 2425.33 L761.31 2425.08 L776.28 2424.59 L791.26 2424.09 L806.23 2423.47 L821.08 2422.85 L836.05 2421.99 L851.03 2421.00 L866.00 2420.01 L880.98 2418.77 L895.83 2417.41 L910.80 2416.05 L925.77 2414.44 L940.75 2412.71 L955.72 2410.85 L970.57 2408.87 L985.54 2406.89 L1000.52 2404.66 L1015.49 2402.31 L1030.34 2399.83 L1045.32 2397.24 L1060.29 2394.51 L1075.26 2391.67 L1090.24 2388.70 L1105.09 2385.60 L1120.06 2382.51 L1135.04 2379.17 L1150.01 2375.83 L1164.98 2372.24 L1179.83 2368.65 L1194.81 2364.94 L1209.78 2361.22 L1224.75 2357.26 L1239.60 2353.30 L1254.58 2349.22 L1269.55 2345.01 L1284.53 2340.80 L1299.50 2336.47 L1314.35 2332.02 L1329.32 2327.56 L1344.30 2322.98 L1359.27 2318.40 L1374.24 2313.70 L1389.09 2309.00 L1404.07 2304.17 L1419.04 2299.22 L1434.02 2294.27 L1448.87 2289.32 L1463.84 2284.25 L1478.81 2279.05 L1493.79 2273.98 L1508.76 2268.66 L1523.61 2263.46 L1538.58 2258.14 L1553.56 2252.82 L1568.53 2247.37 L1583.51 2241.93 L1598.36 2236.48 L1613.33 2231.03 L1628.30 2225.47 L1643.28 2219.90 L1658.25 2214.33 L1673.10 2208.64 L1688.07 2203.07 L1703.05 2197.37 L1718.02 2191.68 L1732.87 2185.99 L1747.85 2180.17 L1762.82 2174.48 L1777.79 2168.66 L1792.77 2162.85 L1807.62 2157.15 L1822.59 2151.34 L1837.56 2145.40 L1852.54 2139.58 L1867.51 2133.76 L1882.36 2127.95 L1897.34 2122.01 L1912.31 2116.19 L1927.28 2110.25 L1942.13 2104.43 L1957.11 2098.49 L1972.08 2092.68 L1987.05 2086.74 L2002.03 2080.92 L2016.88 2074.98 L2031.85 2069.16 L2046.83 2063.22 L2061.80 2057.41 L2076.77 2051.47 L2091.62 2045.65 L2106.60 2039.71 L2121.57 2033.89 L2136.54 2027.95 L2151.39 2022.14 L2166.37 2016.20 L2181.34 2010.38 L2196.32 2004.44 L2211.29 1998.62 L2226.14 1992.81 L2241.11 1986.87 L2256.09 1981.05 L2271.06 1975.24 L2286.03 1969.30 L2300.88 1963.48 L2315.86 1957.66 L2330.83 1951.72 L2345.80 1945.91 L2360.66 1940.09 L2375.63 1934.15 L2390.60 1928.33 L2405.58 1922.52 L2420.55 1916.70 L2435.40 1910.76 L2450.37 1904.94 L2465.35 1899.13 L2480.32 1893.31 L2495.30 1887.37 L2510.14 1881.55 L2525.12 1875.74 L2540.09 1869.80 L2555.07 1863.98 L2569.92 1858.16 L2584.89 1852.35 L2599.86 1846.41 L2614.84 1840.59 L2629.81 1834.77 L2644.66 1828.83 L2659.64 1823.02 L2674.61 1817.20 L2689.58 1811.26 L2704.56 1805.45 L2719.41 1799.50 L2734.38 1793.69 L2749.35 1787.87 L2764.33 1781.93 L2779.30 1776.12 L2794.15 1770.18 L2809.12 1764.24 L2824.10 1758.42 L2839.07 1752.48 L2853.92 1746.66 L2868.90 1740.72 L2883.87 1734.78 L2898.84 1728.84 L2913.82 1723.03 L2928.67 1717.08 L2943.64 1711.14 L2958.61 1705.20 L2973.59 1699.26 L2988.56 1693.32 L3003.41 1687.38 L3018.39 1681.44 L3033.36 1675.50 L3048.33 1669.44 L3063.18 1663.50 L3078.16 1657.56 L3093.13 1651.62 L3108.11 1645.56 L3123.08 1639.61 L3137.93 1633.55 L3152.90 1627.61 L3167.88 1621.55 L3182.85 1615.61 L3197.82 1609.54 L3212.67 1603.48 L3227.65 1597.54 L3242.62 1591.47 L3257.59 1585.41 L3272.45 1579.35 L3287.42 1573.28 L3302.39 1567.34 L3317.37 1561.28 L3332.34 1555.21 L3347.19 1549.15 L3362.16 1542.96 L3377.14 1536.90 L3392.11 1530.84 L3407.09 1524.77 L3421.93 1518.71 L3436.91 1512.52 L3451.88 1506.46 L3466.86 1500.27 L3481.71 1494.20 L3496.68 1488.02 L3511.65 1481.95 L3526.63 1475.76 L3541.60 1469.70 L3556.45 1463.51 L3571.43 1457.33 L3586.40 1451.14 L3601.37 1445.07 L3616.35 1438.89 L3631.20 1432.70 L3646.17 1426.51 L3661.14 1420.32 L3676.12 1414.14 L3690.97 1407.95 L3705.94 1401.76 L3720.91 1395.45 L3735.89 1389.26 L3750.86 1383.07 L3765.71 1376.76 L3780.69 1370.57 L3795.66 1364.39" stroke-linejoin="round" style="fill:none;stroke:#0000FF;stroke-width:8.64"/>
	<path d=" M641.77 2425.95 L656.74 2425.95 L671.72 2425.95 L686.57 2425.82 L701.54 2425.82 L716.51 2425.70 L731.49 2425.45 L746.46 2425.08 L761.31 2424.71 L776.28 2424.09 L791.26 2423.35 L806.23 2422.48 L821.08 2421.49 L836.05 2420.38 L851.03 2419.02 L866.00 2417.41 L880.98 2415.80 L895.83 2413.82 L910.80 2411.84 L925.77 2409.61 L940.75 2407.14 L955.72 2404.54 L970.57 2401.69 L985.54 2398.72 L1000.52 2395.50 L1015.49 2392.16 L1030.34 2388.70 L1045.32 2384.98 L1060.29 2381.15 L1075.26 2377.06 L1090.24 2372.86 L1105.09 2368.53 L1120.06 2363.95 L1135.04 2359.24 L1150.01 2354.42 L1164.98 2349.47 L1179.83 2344.39 L1194.81 2339.07 L1209.78 2333.63 L1224.75 2328.18 L1239.60 2322.49 L1254.58 2316.67 L1269.55 2310.73 L1284.53 2304.67 L1299.50 2298.48 L1314.35 2292.29 L1329.32 2285.86 L1344.30 2279.42 L1359.27 2272.86 L1374.24 2266.18 L1389.09 2259.37 L1404.07 2252.44 L1419.04 2245.51 L1434.02 2238.46 L1448.87 2231.41 L1463.84 2224.23 L1478.81 2216.93 L1493.79 2209.63 L1508.76 2202.20 L1523.61 2194.77 L1538.58 2187.23 L1553.56 2179.55 L1568.53 2171.88 L1583.51 2164.21 L1598.36 2156.53 L1613.33 2148.74 L1628.30 2140.82 L1643.28 2132.90 L1658.25 2124.98 L1673.10 2117.06 L1688.07 2109.01 L1703.05 2100.97 L1718.02 2092.93 L1732.87 2084.76 L1747.85 2076.71 L1762.82 2068.55 L1777.79 2060.38 L1792.77 2052.09 L1807.62 2043.92 L1822.59 2035.63 L1837.56 2027.46 L1852.54 2019.17 L1867.51 2010.88 L1882.36 2002.59 L1897.34 1994.29 L1912.31 1986.00 L1927.28 1977.71 L1942.13 1969.42 L1957.11 1961.00 L1972.08 1952.71 L1987.05 1944.42 L2002.03 1936.13 L2016.88 1927.84 L2031.85 1919.42 L2046.83 1911.13 L2061.80 1902.84 L2076.77 1894.55 L2091.62 1886.26 L2106.60 1877.96 L2121.57 1869.67 L2136.54 1861.38 L2151.39 1853.09 L2166.37 1844.80 L2181.34 1836.51 L2196.32 1828.22 L2211.29 1819.92 L2226.14 1811.76 L2241.11 1803.47 L2256.09 1795.17 L2271.06 1786.88 L2286.03 1778.71 L2300.88 1770.42 L2315.86 1762.13 L2330.83 1753.96 L2345.80 1745.67 L2360.66 1737.38 L2375.63 1729.21 L2390.60 1720.92 L2405.58 1712.75 L2420.55 1704.46 L2435.40 1696.29 L2450.37 1688.00 L2465.35 1679.83 L2480.32 1671.54 L2495.30 1663.38 L2510.14 1655.08 L2525.12 1646.92 L2540.09 1638.62 L2555.07 1630.46 L2569.92 1622.29 L2584.89 1614.00 L2599.86 1605.83 L2614.84 1597.54 L2629.81 1589.37 L2644.66 1581.08 L2659.64 1572.91 L2674.61 1564.62 L2689.58 1556.45 L2704.56 1548.16 L2719.41 1539.99 L2734.38 1531.70 L2749.35 1523.53 L2764.33 1515.24 L2779.30 1507.07 L2794.15 1498.78 L2809.12 1490.49 L2824.10 1482.20 L2839.07 1474.03 L2853.92 1465.74 L2868.90 1457.45 L2883.87 1449.16 L2898.84 1440.87 L2913.82 1432.57 L2928.67 1424.28 L2943.64 1415.99 L2958.61 1407.70 L2973.59 1399.41 L2988.56 1391.12 L3003.41 1382.83 L3018.39 1374.41 L3033.36 1366.12 L3048.33 1357.83 L3063.18 1349.41 L3078.16 1341.12 L3093.13 1332.71 L3108.11 1324.41 L3123.08 1316.00 L3137.93 1307.58 L3152.90 1299.29 L3167.88 1290.88 L3182.85 1282.46 L3197.82 1274.05 L3212.67 1265.63 L3227.65 1257.22 L3242.62 1248.80 L3257.59 1240.39 L3272.45 1231.97 L3287.42 1223.55 L3302.39 1215.14 L3317.37 1206.60 L3332.34 1198.18 L3347.19 1189.77 L3362.16 1181.23 L3377.14 1172.82 L3392.11 1164.28 L3407.09 1155.74 L3421.93 1147.32 L3436.91 1138.78 L3451.88 1130.24 L3466.86 1121.83 L3481.71 1113.29 L3496.68 1104.75 L3511.65 1096.21 L3526.63 1087.67 L3541.60 1079.13 L3556.45 1070.59 L3571.43 1061.93 L3586.40 1053.39 L3601.37 1044.85 L3616.35 1036.31 L3631.20 1027.65 L3646.17 1019.11 L3661.14 1010.45 L3676.12 1001.91 L3690.97 993.25 L3705.94 984.71 L3720.91 976.05 L3735.89 967.38 L3750.86 958.72 L3765.71 950.06 L3780.69 941.52 L3795.66 932.86" stroke-linejoin="round" style="fill:none;stroke:#FF0000;stroke-width:8.64"/>
	<line x1="578.53" y1="2489.19" x2="578.53" y2="100.86" style="stroke:#000000;stroke-width:5.76"/>
	<line x1="578.53" y1="2425.82" x2="538.44" y2="2425.82" style="stroke:#000000;stroke-width:5.76"/>
	<text x="518.51" y="2460.85" style="font-family:'Helvetica';font-size:99.99px;fill:#000000" text-anchor="end">0.00</text>
	<line x1="578.53" y1="2199.72" x2="538.44" y2="2199.72" style="stroke:#000000;stroke-width:5.76"/>
	<text x="518.51" y="2234.75" style="font-family:'Helvetica';font-size:99.99px;fill:#000000" text-anchor="end">1.00</text>
	<line x1="578.53" y1="1973.50" x2="538.44" y2="1973.50" style="stroke:#000000;stroke-width:5.76"/>
	<text x="518.51" y="2008.53" style="font-family:'Helvetica';font-size:99.99px;fill:#000000" text-anchor="end">2.00</text>
	<line x1="578.53" y1="1747.28" x2="538.44" y2="1747.28" style="stroke:#000000;stroke-width:5.76"/>
	<text x="518.51" y="1782.31" style="font-family:'Helvetica';font-size:99.99px;fill:#000000" text-anchor="end">3.00</text>
	<line x1="578.53" y1="1521.18" x2="538.44" y2="1521.18" style="stroke:#000000;stroke-width:5.76"/>
	<text x="518.51" y="1556.21" style="font-family:'Helvetica';font-size:99.99px;fill:#000000" text-anchor="end">4.00</text>
	<line x1="578.53" y1="1294.96" x2="538.44" y2="1294.96" style="stroke:#000000;stroke-width:5.76"/>
	<text x="518.51" y="1329.99" style="font-family:'Helvetica';font-size:99.99px;fill:#000000" text-anchor="end">5.00</text>
	<line x1="578.53" y1="1068.86" x2="538.44" y2="1068.86" style="stroke:#000000;stroke-width:5.76"/>
	<text x="518.51" y="1103.89" style="font-family:'Helvetica';font-size:99.99px;fill:#000000" text-anchor="end">6.00</text>
	<line x1="578.53" y1="842.64" x2="538.44" y2="842.64" style="stroke:#000000;stroke-width:5.76"/>
	<text x="518.51" y="877.67" style="font-family:'Helvetica';font-size:99.99px;fill:#000000" text-anchor="end">7.00</text>
	<line x1="578.53" y1="616.54" x2="538.44" y2="616.54" style="stroke:#000000;stroke-width:5.76"/>
	<text x="518.51" y="651.57" style="font-family:'Helvetica';font-size:99.99px;fill:#000000" text-anchor="end">8.00</text>
	<line x1="578.53" y1="390.32" x2="538.44" y2="390.32" style="stroke:#000000;stroke-width:5.76"/>
	<text x="518.51" y="425.35" style="font-family:'Helvetica';font-size:99.99px;fill:#000000" text-anchor="end">9.00</text>
	<line x1="578.53" y1="164.22" x2="538.44" y2="164.22" style="stroke:#000000;stroke-width:5.76"/>
	<text x="518.51" y="199.25" style="font-family:'Helvetica';font-size:99.99px;fill:#000000" text-anchor="end">10.00</text>
	<text x="190.71" y="1294.96" style="font-family:'Helvetica';font-size:99.99px;fill:#000000" transform="rotate(-90 190.71,1294.96)" text-anchor="middle">Cumulative incidence (%)</text>
	<line x1="578.53" y1="2489.19" x2="3859.02" y2="2489.19" style="stroke:#000000;stroke-width:5.76"/>
	<line x1="641.89" y1="2489.19" x2="641.89" y2="2529.16" style="stroke:#000000;stroke-width:5.76"/>
	<text x="641.89" y="2619.14" style="font-family:'Helvetica';font-size:99.99px;fill:#000000" text-anchor="middle">0</text>
	<line x1="1389.22" y1="2489.19" x2="1389.22" y2="2529.16" style="stroke:#000000;stroke-width:5.76"/>
	<text x="1389.22" y="2619.14" style="font-family:'Helvetica';font-size:99.99px;fill:#000000" text-anchor="middle">50</text>
	<line x1="2136.54" y1="2489.19" x2="2136.54" y2="2529.16" style="stroke:#000000;stroke-width:5.76"/>
	<text x="2136.54" y="2619.14" style="font-family:'Helvetica';font-size:99.99px;fill:#000000" text-anchor="middle">100</text>
	<line x1="2883.99" y1="2489.19" x2="2883.99" y2="2529.16" style="stroke:#000000;stroke-width:5.76"/>
	<text x="2883.99" y="2619.14" style="font-family:'Helvetica';font-size:99.99px;fill:#000000" text-anchor="middle">150</text>
	<line x1="3631.32" y1="2489.19" x2="3631.32" y2="2529.16" style="stroke:#000000;stroke-width:5.76"/>
	<text x="3631.32" y="2619.14" style="font-family:'Helvetica';font-size:99.99px;fill:#000000" text-anchor="middle">200</text>
	<text x="2218.84" y="2729.16" style="font-family:'Helvetica';font-size:99.99px;fill:#000000" text-anchor="middle">Days from 1 March 2020</text>
	<rect x="1933.59" y="2128.20" width="1890.90" height="326.46" style="fill:#FFFFFF"/>
	<rect x="1936.47" y="2131.08" width="1885.14" height="320.70" style="fill:none;stroke:#000000;stroke-width:5.76"/>
	<rect x="1976.78" y="2171.51" width="374.34" height="99.99" style="fill:#3333FF;fill-opacity:0.25"/>
	<rect x="1981.10" y="2175.83" width="365.70" height="91.35" style="fill:none;stroke:#0000FF;stroke-opacity:0.25;stroke-width:8.64"/>
	<rect x="1976.78" y="2311.47" width="374.34" height="99.99" style="fill:#FF3333;fill-opacity:0.25"/>
	<rect x="1981.10" y="2315.79" width="365.70" height="91.35" style="fill:none;stroke:#FF0000;stroke-opacity:0.25;stroke-width:8.64"/>
	<text x="2411.14" y="2256.53" style="font-family:'Helvetica';font-size:99.99px;fill:#000000">Non-current anticoagulant use</text>
	<text x="2411.14" y="2396.50" style="font-family:'Helvetica';font-size:99.99px;fill:#000000">Current anticoagulant use</text>
</svg>
