<?xml version="1.0" encoding="UTF-8" standalone="no"?>
<!-- This is a Stata 16.1 generated SVG file (http://www.stata.com) -->

<svg version="1.1" width="5.50in" height="4.00in" viewBox="0 0 3960 2880" xmlns="http://www.w3.org/2000/svg" xmlns:xlink="http://www.w3.org/1999/xlink">
	<desc>Stata Graph - Graph</desc>
	<rect x="0" y="0" width="3960" height="2880" style="fill:#EAF2F3;stroke:none"/>
	<rect x="0.00" y="0.00" width="3959.88" height="2880.00" style="fill:#EAF2F3"/>
	<rect x="2.88" y="2.88" width="3954.12" height="2874.24" style="fill:none;stroke:#EAF2F3;stroke-width:5.76"/>
	<rect x="521.73" y="100.86" width="3337.29" height="2388.33" style="fill:#FFFFFF"/>
	<rect x="524.61" y="103.74" width="3331.53" height="2382.57" style="fill:none;stroke:#FFFFFF;stroke-width:5.76"/>
	<line x1="521.73" y1="2425.82" x2="3859.02" y2="2425.82" style="stroke:#EAF2F3;stroke-width:8.64"/>
	<line x1="521.73" y1="2199.72" x2="3859.02" y2="2199.72" style="stroke:#EAF2F3;stroke-width:8.64"/>
	<line x1="521.73" y1="1973.50" x2="3859.02" y2="1973.50" style="stroke:#EAF2F3;stroke-width:8.64"/>
	<line x1="521.73" y1="1747.28" x2="3859.02" y2="1747.28" style="stroke:#EAF2F3;stroke-width:8.64"/>
	<line x1="521.73" y1="1521.18" x2="3859.02" y2="1521.18" style="stroke:#EAF2F3;stroke-width:8.64"/>
	<line x1="521.73" y1="1294.96" x2="3859.02" y2="1294.96" style="stroke:#EAF2F3;stroke-width:8.64"/>
	<line x1="521.73" y1="1068.86" x2="3859.02" y2="1068.86" style="stroke:#EAF2F3;stroke-width:8.64"/>
	<line x1="521.73" y1="842.64" x2="3859.02" y2="842.64" style="stroke:#EAF2F3;stroke-width:8.64"/>
	<line x1="521.73" y1="616.54" x2="3859.02" y2="616.54" style="stroke:#EAF2F3;stroke-width:8.64"/>
	<line x1="521.73" y1="390.32" x2="3859.02" y2="390.32" style="stroke:#EAF2F3;stroke-width:8.64"/>
	<defs>
		<path id="path_jmLHnkSP" d="M600.31 2425.82 L600.31 2425.82 L615.53 2425.82 L630.75 2425.82 L645.98 2425.82 L661.20 2425.82 L676.42 2425.82 L691.64 2425.70 L706.86 2425.58 L722.08 2425.20 L737.30 2424.59 L752.52 2423.72 L767.75 2422.36 L782.97 2420.50 L798.19 2417.90 L813.41 2414.56 L828.63 2410.48 L843.85 2405.28 L859.07 2399.22 L874.29 2391.91 L889.51 2383.62 L904.61 2374.22 L919.83 2363.70 L935.05 2352.07 L950.28 2339.32 L965.50 2325.71 L980.72 2311.10 L995.94 2295.63 L1011.16 2279.30 L1026.38 2262.34 L1041.60 2244.65 L1056.83 2226.46 L1072.05 2207.77 L1087.27 2188.59 L1102.49 2169.16 L1117.71 2149.36 L1132.93 2129.43 L1148.15 2109.38 L1163.37 2089.34 L1178.60 2069.29 L1193.82 2049.36 L1209.04 2029.56 L1224.26 2010.13 L1239.48 1990.83 L1254.70 1971.89 L1269.80 1953.33 L1285.02 1935.26 L1300.24 1917.57 L1315.46 1900.49 L1330.68 1883.78 L1345.90 1867.69 L1361.13 1852.22 L1376.35 1837.25 L1391.57 1822.89 L1406.79 1809.03 L1422.01 1795.79 L1437.23 1783.17 L1452.45 1771.04 L1467.67 1759.53 L1482.90 1748.39 L1498.12 1737.75 L1513.34 1727.60 L1528.56 1717.95 L1543.78 1708.67 L1559.00 1699.76 L1574.22 1691.22 L1589.44 1683.05 L1604.67 1675.13 L1619.76 1667.58 L1634.98 1660.41 L1650.21 1653.48 L1665.43 1646.67 L1680.65 1640.23 L1695.87 1634.05 L1711.09 1627.98 L1726.31 1622.17 L1741.53 1616.60 L1756.76 1611.15 L1771.98 1605.83 L1787.20 1600.63 L1802.42 1595.56 L1817.64 1590.73 L1832.86 1585.91 L1848.08 1581.20 L1863.30 1576.50 L1878.53 1571.92 L1893.75 1567.47 L1908.97 1563.01 L1924.19 1558.68 L1939.41 1554.35 L1954.63 1550.14 L1969.85 1545.93 L1984.95 1541.73 L2000.17 1537.64 L2015.39 1533.56 L2030.61 1529.47 L2045.84 1525.51 L2061.06 1521.55 L2076.28 1517.59 L2091.50 1513.76 L2106.72 1509.92 L2121.94 1506.21 L2137.16 1502.50 L2152.38 1498.78 L2167.61 1495.07 L2182.83 1491.48 L2198.05 1487.89 L2213.27 1484.30 L2228.49 1480.72 L2243.71 1477.25 L2258.93 1473.78 L2274.15 1470.32 L2289.38 1466.98 L2304.60 1463.51 L2319.82 1460.17 L2335.04 1456.83 L2350.14 1453.61 L2365.36 1450.27 L2380.58 1447.05 L2395.80 1443.84 L2411.02 1440.74 L2426.24 1437.52 L2441.46 1434.43 L2456.68 1431.34 L2471.91 1428.24 L2487.13 1425.15 L2502.35 1422.06 L2517.57 1419.09 L2532.79 1416.12 L2548.01 1413.15 L2563.23 1410.18 L2578.45 1407.21 L2593.68 1404.36 L2608.90 1401.51 L2624.12 1398.54 L2639.34 1395.70 L2654.56 1392.97 L2669.78 1390.13 L2685.00 1387.28 L2700.22 1384.56 L2715.32 1381.84 L2730.54 1379.11 L2745.76 1376.39 L2760.99 1373.67 L2776.21 1370.95 L2791.43 1368.35 L2806.65 1365.62 L2821.87 1363.03 L2837.09 1360.43 L2852.31 1357.83 L2867.53 1355.23 L2882.76 1352.63 L2897.98 1350.15 L2913.20 1347.56 L2928.42 1345.08 L2943.64 1342.48 L2958.86 1340.01 L2974.08 1337.53 L2989.30 1335.06 L3004.53 1332.58 L3019.75 1330.23 L3034.97 1327.76 L3050.19 1325.40 L3065.41 1322.93 L3080.51 1320.58 L3095.73 1318.23 L3110.95 1315.87 L3126.17 1313.52 L3141.39 1311.17 L3156.61 1308.82 L3171.84 1306.47 L3187.06 1304.24 L3202.28 1301.89 L3217.50 1299.66 L3232.72 1297.31 L3247.94 1295.08 L3263.16 1292.86 L3278.39 1290.63 L3293.61 1288.40 L3308.83 1286.17 L3324.05 1283.95 L3339.27 1281.72 L3354.49 1279.49 L3369.71 1277.39 L3384.93 1275.16 L3400.16 1273.06 L3415.38 1270.95 L3430.47 1268.72 L3445.70 1266.62 L3460.92 1264.52 L3476.14 1262.41 L3491.36 1260.31 L3506.58 1258.21 L3521.80 1256.10 L3537.02 1254.00 L3552.24 1252.02 L3567.47 1249.91 L3582.69 1247.81 L3597.91 1245.83 L3613.13 1243.73 L3628.35 1241.75 L3643.57 1239.77 L3658.79 1237.66 L3674.01 1235.68 L3689.24 1233.70 L3704.46 1231.72 L3719.68 1229.74 L3734.90 1227.76 L3750.12 1225.78 L3765.34 1223.80 L3780.56 1221.82 L3795.66 1219.97 L3795.66 1127.15 L3780.56 1129.25 L3765.34 1131.36 L3750.12 1133.46 L3734.90 1135.57 L3719.68 1137.67 L3704.46 1139.77 L3689.24 1142.00 L3674.01 1144.10 L3658.79 1146.21 L3643.57 1148.44 L3628.35 1150.54 L3613.13 1152.77 L3597.91 1154.87 L3582.69 1157.10 L3567.47 1159.33 L3552.24 1161.55 L3537.02 1163.66 L3521.80 1165.89 L3506.58 1168.11 L3491.36 1170.34 L3476.14 1172.57 L3460.92 1174.80 L3445.70 1177.15 L3430.47 1179.37 L3415.38 1181.60 L3400.16 1183.95 L3384.93 1186.18 L3369.71 1188.53 L3354.49 1190.76 L3339.27 1193.11 L3324.05 1195.46 L3308.83 1197.81 L3293.61 1200.04 L3278.39 1202.39 L3263.16 1204.74 L3247.94 1207.22 L3232.72 1209.57 L3217.50 1211.92 L3202.28 1214.40 L3187.06 1216.75 L3171.84 1219.22 L3156.61 1221.57 L3141.39 1224.05 L3126.17 1226.52 L3110.95 1229.00 L3095.73 1231.47 L3080.51 1233.95 L3065.41 1236.42 L3050.19 1238.90 L3034.97 1241.50 L3019.75 1243.97 L3004.53 1246.57 L2989.30 1249.17 L2974.08 1251.65 L2958.86 1254.25 L2943.64 1256.84 L2928.42 1259.44 L2913.20 1262.17 L2897.98 1264.76 L2882.76 1267.49 L2867.53 1270.09 L2852.31 1272.81 L2837.09 1275.53 L2821.87 1278.25 L2806.65 1280.98 L2791.43 1283.70 L2776.21 1286.55 L2760.99 1289.27 L2745.76 1292.11 L2730.54 1294.96 L2715.32 1297.81 L2700.22 1300.65 L2685.00 1303.50 L2669.78 1306.47 L2654.56 1309.32 L2639.34 1312.29 L2624.12 1315.26 L2608.90 1318.23 L2593.68 1321.20 L2578.45 1324.29 L2563.23 1327.26 L2548.01 1330.35 L2532.79 1333.45 L2517.57 1336.54 L2502.35 1339.76 L2487.13 1342.85 L2471.91 1346.07 L2456.68 1349.29 L2441.46 1352.51 L2426.24 1355.72 L2411.02 1359.06 L2395.80 1362.41 L2380.58 1365.75 L2365.36 1369.09 L2350.14 1372.55 L2335.04 1375.90 L2319.82 1379.36 L2304.60 1382.95 L2289.38 1386.41 L2274.15 1390.00 L2258.93 1393.59 L2243.71 1397.18 L2228.49 1400.89 L2213.27 1404.61 L2198.05 1408.32 L2182.83 1412.03 L2167.61 1415.87 L2152.38 1419.70 L2137.16 1423.54 L2121.94 1427.50 L2106.72 1431.46 L2091.50 1435.42 L2076.28 1439.50 L2061.06 1443.59 L2045.84 1447.67 L2030.61 1451.88 L2015.39 1456.09 L2000.17 1460.42 L1984.95 1464.75 L1969.85 1469.08 L1954.63 1473.54 L1939.41 1477.99 L1924.19 1482.45 L1908.97 1487.03 L1893.75 1491.61 L1878.53 1496.31 L1863.30 1501.13 L1848.08 1505.96 L1832.86 1510.79 L1817.64 1515.86 L1802.42 1520.94 L1787.20 1526.13 L1771.98 1531.58 L1756.76 1537.02 L1741.53 1542.72 L1726.31 1548.53 L1711.09 1554.60 L1695.87 1560.91 L1680.65 1567.34 L1665.43 1574.03 L1650.21 1581.08 L1634.98 1588.38 L1619.76 1595.93 L1604.67 1603.85 L1589.44 1612.02 L1574.22 1620.68 L1559.00 1629.71 L1543.78 1639.12 L1528.56 1648.90 L1513.34 1659.29 L1498.12 1670.06 L1482.90 1681.44 L1467.67 1693.20 L1452.45 1705.58 L1437.23 1718.57 L1422.01 1732.18 L1406.79 1746.29 L1391.57 1761.02 L1376.35 1776.49 L1361.13 1792.45 L1345.90 1809.03 L1330.68 1826.11 L1315.46 1843.81 L1300.24 1862.00 L1285.02 1880.69 L1269.80 1899.87 L1254.70 1919.42 L1239.48 1939.35 L1224.26 1959.77 L1209.04 1980.43 L1193.82 2001.47 L1178.60 2022.63 L1163.37 2044.04 L1148.15 2065.58 L1132.93 2087.23 L1117.71 2108.77 L1102.49 2130.30 L1087.27 2151.71 L1072.05 2172.75 L1056.83 2193.41 L1041.60 2213.59 L1026.38 2233.14 L1011.16 2252.07 L995.94 2270.14 L980.72 2287.34 L965.50 2303.68 L950.28 2319.02 L935.05 2333.26 L919.83 2346.37 L904.61 2358.38 L889.51 2369.27 L874.29 2379.04 L859.07 2387.71 L843.85 2395.26 L828.63 2401.82 L813.41 2407.38 L798.19 2411.96 L782.97 2415.80 L767.75 2418.77 L752.52 2421.00 L737.30 2422.73 L722.08 2423.97 L706.86 2424.83 L691.64 2425.33 L676.42 2425.58 L661.20 2425.70 L645.98 2425.82 L630.75 2425.82 L615.53 2425.82 L600.31 2425.82 L600.31 2425.82 Z" stroke-linejoin="round"/>
	</defs>
	<defs>
		<clipPath id="clipPath_KRXKsGcU">
			<use xlink:href="#path_jmLHnkSP"/>
		</clipPath>
	</defs>
	<use xlink:href="#path_jmLHnkSP" style="stroke:none;fill:#3333FF;fill-opacity:0.25"/>
	<use xlink:href="#path_jmLHnkSP" style="fill:none;stroke:#0000FF;stroke-opacity:0.25;stroke-width:17.28" clip-path="url(#clipPath_KRXKsGcU)"/>
	<defs>
		<path id="path_qHNZcUcT" d="M600.31 2425.82 L600.31 2425.82 L615.53 2425.82 L630.75 2425.82 L645.98 2425.82 L661.20 2425.82 L676.42 2425.82 L691.64 2425.70 L706.86 2425.45 L722.08 2424.96 L737.30 2424.34 L752.52 2423.22 L767.75 2421.49 L782.97 2419.14 L798.19 2416.05 L813.41 2412.09 L828.63 2407.01 L843.85 2400.70 L859.07 2393.40 L874.29 2384.61 L889.51 2374.71 L904.61 2363.45 L919.83 2350.95 L935.05 2337.22 L950.28 2322.12 L965.50 2306.03 L980.72 2288.83 L995.94 2270.64 L1011.16 2251.45 L1026.38 2231.53 L1041.60 2210.74 L1056.83 2189.33 L1072.05 2167.43 L1087.27 2145.03 L1102.49 2122.26 L1117.71 2099.24 L1132.93 2075.97 L1148.15 2052.71 L1163.37 2029.32 L1178.60 2006.05 L1193.82 1983.03 L1209.04 1960.14 L1224.26 1937.49 L1239.48 1915.21 L1254.70 1893.43 L1269.80 1872.02 L1285.02 1851.11 L1300.24 1830.69 L1315.46 1810.89 L1330.68 1791.71 L1345.90 1773.02 L1361.13 1755.08 L1376.35 1737.75 L1391.57 1721.05 L1406.79 1705.08 L1422.01 1689.86 L1437.23 1675.13 L1452.45 1661.15 L1467.67 1647.66 L1482.90 1634.91 L1498.12 1622.66 L1513.34 1610.90 L1528.56 1599.64 L1543.78 1588.88 L1559.00 1578.60 L1574.22 1568.83 L1589.44 1559.42 L1604.67 1550.39 L1619.76 1541.73 L1634.98 1533.31 L1650.21 1525.39 L1665.43 1517.72 L1680.65 1510.29 L1695.87 1503.11 L1711.09 1496.18 L1726.31 1489.50 L1741.53 1483.07 L1756.76 1476.88 L1771.98 1470.69 L1787.20 1464.87 L1802.42 1459.06 L1817.64 1453.37 L1832.86 1447.92 L1848.08 1442.48 L1863.30 1437.15 L1878.53 1431.96 L1893.75 1426.76 L1908.97 1421.68 L1924.19 1416.73 L1939.41 1411.78 L1954.63 1406.83 L1969.85 1402.01 L1984.95 1397.18 L2000.17 1392.48 L2015.39 1387.78 L2030.61 1383.07 L2045.84 1378.49 L2061.06 1374.04 L2076.28 1369.58 L2091.50 1365.13 L2106.72 1360.67 L2121.94 1356.34 L2137.16 1352.01 L2152.38 1347.80 L2167.61 1343.60 L2182.83 1339.39 L2198.05 1335.30 L2213.27 1331.22 L2228.49 1327.14 L2243.71 1323.18 L2258.93 1319.09 L2274.15 1315.13 L2289.38 1311.30 L2304.60 1307.46 L2319.82 1303.62 L2335.04 1299.79 L2350.14 1295.95 L2365.36 1292.24 L2380.58 1288.53 L2395.80 1284.81 L2411.02 1281.22 L2426.24 1277.63 L2441.46 1273.92 L2456.68 1270.46 L2471.91 1266.87 L2487.13 1263.40 L2502.35 1259.94 L2517.57 1256.47 L2532.79 1253.01 L2548.01 1249.54 L2563.23 1246.20 L2578.45 1242.86 L2593.68 1239.52 L2608.90 1236.18 L2624.12 1232.96 L2639.34 1229.74 L2654.56 1226.40 L2669.78 1223.18 L2685.00 1220.09 L2700.22 1216.87 L2715.32 1213.65 L2730.54 1210.56 L2745.76 1207.47 L2760.99 1204.37 L2776.21 1201.28 L2791.43 1198.18 L2806.65 1195.21 L2821.87 1192.24 L2837.09 1189.15 L2852.31 1186.18 L2867.53 1183.21 L2882.76 1180.36 L2897.98 1177.39 L2913.20 1174.42 L2928.42 1171.58 L2943.64 1168.73 L2958.86 1165.89 L2974.08 1163.04 L2989.30 1160.19 L3004.53 1157.35 L3019.75 1154.50 L3034.97 1151.78 L3050.19 1148.93 L3065.41 1146.21 L3080.51 1143.49 L3095.73 1140.76 L3110.95 1138.04 L3126.17 1135.32 L3141.39 1132.72 L3156.61 1130.00 L3171.84 1127.27 L3187.06 1124.68 L3202.28 1122.08 L3217.50 1119.48 L3232.72 1116.75 L3247.94 1114.16 L3263.16 1111.68 L3278.39 1109.08 L3293.61 1106.48 L3308.83 1103.88 L3324.05 1101.41 L3339.27 1098.81 L3354.49 1096.34 L3369.71 1093.86 L3384.93 1091.39 L3400.16 1088.91 L3415.38 1086.44 L3430.47 1083.96 L3445.70 1081.49 L3460.92 1079.01 L3476.14 1076.53 L3491.36 1074.18 L3506.58 1071.71 L3521.80 1069.36 L3537.02 1066.88 L3552.24 1064.53 L3567.47 1062.18 L3582.69 1059.83 L3597.91 1057.35 L3613.13 1055.00 L3628.35 1052.65 L3643.57 1050.42 L3658.79 1048.07 L3674.01 1045.72 L3689.24 1043.37 L3704.46 1041.14 L3719.68 1038.79 L3734.90 1036.56 L3750.12 1034.21 L3765.34 1031.98 L3780.56 1029.76 L3795.66 1027.40 L3795.66 657.50 L3780.56 660.47 L3765.34 663.32 L3750.12 666.17 L3734.90 669.01 L3719.68 671.86 L3704.46 674.83 L3689.24 677.68 L3674.01 680.65 L3658.79 683.62 L3643.57 686.46 L3628.35 689.43 L3613.13 692.40 L3597.91 695.37 L3582.69 698.34 L3567.47 701.31 L3552.24 704.28 L3537.02 707.38 L3521.80 710.35 L3506.58 713.32 L3491.36 716.41 L3476.14 719.50 L3460.92 722.48 L3445.70 725.57 L3430.47 728.66 L3415.38 731.76 L3400.16 734.85 L3384.93 738.07 L3369.71 741.16 L3354.49 744.26 L3339.27 747.47 L3324.05 750.69 L3308.83 753.78 L3293.61 757.00 L3278.39 760.22 L3263.16 763.44 L3247.94 766.78 L3232.72 770.00 L3217.50 773.21 L3202.28 776.56 L3187.06 779.90 L3171.84 783.11 L3156.61 786.46 L3141.39 789.80 L3126.17 793.26 L3110.95 796.60 L3095.73 799.94 L3080.51 803.41 L3065.41 806.88 L3050.19 810.34 L3034.97 813.81 L3019.75 817.27 L3004.53 820.74 L2989.30 824.20 L2974.08 827.79 L2958.86 831.38 L2943.64 834.97 L2928.42 838.56 L2913.20 842.15 L2897.98 845.73 L2882.76 849.45 L2867.53 853.16 L2852.31 856.87 L2837.09 860.58 L2821.87 864.30 L2806.65 868.01 L2791.43 871.85 L2776.21 875.68 L2760.99 879.52 L2745.76 883.36 L2730.54 887.19 L2715.32 891.15 L2700.22 895.11 L2685.00 899.07 L2669.78 903.03 L2654.56 907.12 L2639.34 911.08 L2624.12 915.16 L2608.90 919.24 L2593.68 923.45 L2578.45 927.54 L2563.23 931.74 L2548.01 935.95 L2532.79 940.16 L2517.57 944.49 L2502.35 948.82 L2487.13 953.15 L2471.91 957.61 L2456.68 961.94 L2441.46 966.39 L2426.24 970.85 L2411.02 975.43 L2395.80 980.01 L2380.58 984.59 L2365.36 989.29 L2350.14 993.87 L2335.04 998.57 L2319.82 1003.40 L2304.60 1008.22 L2289.38 1013.05 L2274.15 1017.88 L2258.93 1022.83 L2243.71 1027.78 L2228.49 1032.85 L2213.27 1037.92 L2198.05 1043.00 L2182.83 1048.20 L2167.61 1053.39 L2152.38 1058.71 L2137.16 1064.04 L2121.94 1069.48 L2106.72 1074.80 L2091.50 1080.37 L2076.28 1085.94 L2061.06 1091.51 L2045.84 1097.20 L2030.61 1102.89 L2015.39 1108.71 L2000.17 1114.53 L1984.95 1120.47 L1969.85 1126.53 L1954.63 1132.60 L1939.41 1138.66 L1924.19 1144.85 L1908.97 1151.16 L1893.75 1157.47 L1878.53 1163.91 L1863.30 1170.46 L1848.08 1177.15 L1832.86 1183.83 L1817.64 1190.76 L1802.42 1197.81 L1787.20 1204.99 L1771.98 1212.29 L1756.76 1219.97 L1741.53 1227.76 L1726.31 1235.81 L1711.09 1244.10 L1695.87 1252.76 L1680.65 1261.67 L1665.43 1270.83 L1650.21 1280.48 L1634.98 1290.51 L1619.76 1300.90 L1604.67 1311.67 L1589.44 1323.05 L1574.22 1334.81 L1559.00 1347.18 L1543.78 1360.06 L1528.56 1373.54 L1513.34 1387.65 L1498.12 1402.38 L1482.90 1417.85 L1467.67 1433.94 L1452.45 1450.89 L1437.23 1468.59 L1422.01 1487.03 L1406.79 1506.33 L1391.57 1526.50 L1376.35 1547.42 L1361.13 1569.32 L1345.90 1591.85 L1330.68 1615.24 L1315.46 1639.49 L1300.24 1664.37 L1285.02 1689.86 L1269.80 1716.09 L1254.70 1742.83 L1239.48 1770.18 L1224.26 1798.02 L1209.04 1826.36 L1193.82 1854.95 L1178.60 1883.91 L1163.37 1913.11 L1148.15 1942.44 L1132.93 1971.77 L1117.71 2001.10 L1102.49 2030.31 L1087.27 2059.14 L1072.05 2087.73 L1056.83 2115.57 L1041.60 2142.80 L1026.38 2169.28 L1011.16 2194.65 L995.94 2219.03 L980.72 2242.30 L965.50 2264.20 L950.28 2284.74 L935.05 2303.80 L919.83 2321.38 L904.61 2337.34 L889.51 2351.82 L874.29 2364.81 L859.07 2376.20 L843.85 2386.22 L828.63 2394.76 L813.41 2402.06 L798.19 2408.00 L782.97 2412.83 L767.75 2416.79 L752.52 2419.64 L737.30 2421.86 L722.08 2423.47 L706.86 2424.46 L691.64 2425.20 L676.42 2425.58 L661.20 2425.70 L645.98 2425.82 L630.75 2425.82 L615.53 2425.82 L600.31 2425.82 L600.31 2425.82 Z" stroke-linejoin="round"/>
	</defs>
	<defs>
		<clipPath id="clipPath_meklHuUs">
			<use xlink:href="#path_qHNZcUcT"/>
		</clipPath>
	</defs>
	<use xlink:href="#path_qHNZcUcT" style="stroke:none;fill:#FF3333;fill-opacity:0.25"/>
	<use xlink:href="#path_qHNZcUcT" style="fill:none;stroke:#FF0000;stroke-opacity:0.25;stroke-width:17.28" clip-path="url(#clipPath_meklHuUs)"/>
	<path d=" M585.09 2425.95 L600.31 2425.95 L615.53 2425.95 L630.75 2425.95 L645.98 2425.95 L661.20 2425.82 L676.42 2425.82 L691.64 2425.58 L706.86 2425.33 L721.96 2424.83 L737.18 2423.97 L752.40 2422.73 L767.62 2420.87 L782.84 2418.52 L798.06 2415.43 L813.28 2411.47 L828.51 2406.64 L843.73 2400.83 L858.95 2394.02 L874.17 2386.10 L889.39 2377.06 L904.61 2366.92 L919.83 2355.65 L935.05 2343.28 L950.28 2329.79 L965.50 2315.31 L980.72 2299.84 L995.94 2283.51 L1011.16 2266.30 L1026.38 2248.36 L1041.60 2229.80 L1056.83 2210.62 L1072.05 2190.94 L1087.14 2170.89 L1102.37 2150.47 L1117.59 2129.80 L1132.81 2109.14 L1148.03 2088.22 L1163.25 2067.43 L1178.47 2046.77 L1193.69 2026.22 L1208.91 2005.80 L1224.13 1985.75 L1239.36 1965.83 L1254.58 1946.40 L1269.80 1927.34 L1285.02 1908.78 L1300.24 1890.59 L1315.46 1872.89 L1330.68 1855.81 L1345.90 1839.23 L1361.13 1823.14 L1376.35 1807.67 L1391.57 1792.82 L1406.79 1778.47 L1422.01 1764.85 L1437.23 1751.74 L1452.33 1739.24 L1467.55 1727.23 L1482.77 1715.72 L1497.99 1704.83 L1513.21 1694.31 L1528.44 1684.29 L1543.66 1674.76 L1558.88 1665.60 L1574.10 1656.82 L1589.32 1648.40 L1604.54 1640.36 L1619.76 1632.68 L1634.98 1625.26 L1650.21 1618.08 L1665.43 1611.28 L1680.65 1604.72 L1695.87 1598.28 L1711.09 1592.22 L1726.31 1586.28 L1741.53 1580.46 L1756.76 1574.89 L1771.98 1569.57 L1787.20 1564.25 L1802.30 1559.17 L1817.52 1554.10 L1832.74 1549.15 L1847.96 1544.45 L1863.18 1539.62 L1878.40 1535.04 L1893.62 1530.46 L1908.84 1525.89 L1924.07 1521.43 L1939.29 1516.97 L1954.51 1512.64 L1969.73 1508.31 L1984.95 1504.10 L2000.17 1499.90 L2015.39 1495.69 L2030.61 1491.61 L2045.84 1487.52 L2061.06 1483.44 L2076.28 1479.48 L2091.50 1475.52 L2106.72 1471.56 L2121.94 1467.72 L2137.16 1463.88 L2152.38 1460.05 L2167.48 1456.34 L2182.70 1452.62 L2197.92 1448.91 L2213.14 1445.32 L2228.37 1441.61 L2243.59 1438.14 L2258.81 1434.55 L2274.03 1430.97 L2289.25 1427.50 L2304.47 1424.04 L2319.69 1420.69 L2334.91 1417.23 L2350.14 1413.89 L2365.36 1410.55 L2380.58 1407.33 L2395.80 1403.99 L2411.02 1400.77 L2426.24 1397.55 L2441.46 1394.33 L2456.68 1391.12 L2471.91 1388.02 L2487.13 1384.93 L2502.35 1381.84 L2517.57 1378.74 L2532.67 1375.65 L2547.89 1372.68 L2563.11 1369.58 L2578.33 1366.61 L2593.55 1363.64 L2608.77 1360.67 L2623.99 1357.83 L2639.22 1354.86 L2654.44 1352.01 L2669.66 1349.16 L2684.88 1346.32 L2700.10 1343.47 L2715.32 1340.63 L2730.54 1337.90 L2745.76 1335.06 L2760.99 1332.33 L2776.21 1329.61 L2791.43 1326.89 L2806.65 1324.17 L2821.87 1321.57 L2837.09 1318.84 L2852.31 1316.25 L2867.53 1313.52 L2882.76 1310.92 L2897.85 1308.33 L2913.07 1305.73 L2928.30 1303.13 L2943.52 1300.53 L2958.74 1298.05 L2973.96 1295.46 L2989.18 1292.98 L3004.40 1290.51 L3019.62 1288.03 L3034.84 1285.43 L3050.07 1283.08 L3065.29 1280.61 L3080.51 1278.13 L3095.73 1275.65 L3110.95 1273.30 L3126.17 1270.83 L3141.39 1268.48 L3156.61 1266.13 L3171.84 1263.65 L3187.06 1261.30 L3202.28 1258.95 L3217.50 1256.60 L3232.72 1254.37 L3247.94 1252.02 L3263.04 1249.67 L3278.26 1247.44 L3293.48 1245.09 L3308.70 1242.86 L3323.93 1240.51 L3339.15 1238.28 L3354.37 1236.05 L3369.59 1233.83 L3384.81 1231.60 L3400.03 1229.37 L3415.25 1227.14 L3430.47 1224.92 L3445.70 1222.81 L3460.92 1220.58 L3476.14 1218.36 L3491.36 1216.25 L3506.58 1214.03 L3521.80 1211.92 L3537.02 1209.82 L3552.24 1207.59 L3567.47 1205.49 L3582.69 1203.38 L3597.91 1201.28 L3613.01 1199.17 L3628.23 1197.07 L3643.45 1194.97 L3658.67 1192.86 L3673.89 1190.76 L3689.11 1188.78 L3704.33 1186.68 L3719.55 1184.57 L3734.78 1182.59 L3750.00 1180.49 L3765.22 1178.51 L3780.44 1176.40 L3795.66 1174.42" stroke-linejoin="round" style="fill:none;stroke:#0000FF;stroke-width:8.64"/>
	<path d=" M585.09 2425.95 L600.31 2425.95 L615.53 2425.95 L630.75 2425.95 L645.98 2425.95 L661.20 2425.82 L676.42 2425.82 L691.64 2425.58 L706.86 2425.20 L721.96 2424.46 L737.18 2423.47 L752.40 2421.86 L767.62 2419.64 L782.84 2416.67 L798.06 2412.71 L813.28 2407.76 L828.51 2401.69 L843.73 2394.39 L858.95 2385.73 L874.17 2375.83 L889.39 2364.44 L904.61 2351.57 L919.83 2337.46 L935.05 2321.87 L950.28 2304.92 L965.50 2286.72 L980.72 2267.29 L995.94 2246.75 L1011.16 2225.09 L1026.38 2202.57 L1041.60 2179.18 L1056.83 2155.05 L1072.05 2130.30 L1087.14 2105.05 L1102.37 2079.44 L1117.59 2053.45 L1132.81 2027.34 L1148.03 2001.22 L1163.25 1974.99 L1178.47 1949.00 L1193.69 1923.14 L1208.91 1897.52 L1224.13 1872.27 L1239.36 1847.27 L1254.58 1822.89 L1269.80 1798.89 L1285.02 1775.50 L1300.24 1752.73 L1315.46 1730.45 L1330.68 1708.92 L1345.90 1688.13 L1361.13 1667.95 L1376.35 1648.53 L1391.57 1629.71 L1406.79 1611.77 L1422.01 1594.57 L1437.23 1578.23 L1452.33 1562.39 L1467.55 1547.42 L1482.77 1532.94 L1497.99 1519.20 L1513.21 1506.08 L1528.44 1493.46 L1543.66 1481.46 L1558.88 1469.95 L1574.10 1458.93 L1589.32 1448.42 L1604.54 1438.27 L1619.76 1428.61 L1634.98 1419.33 L1650.21 1410.30 L1665.43 1401.76 L1680.65 1393.47 L1695.87 1385.55 L1711.09 1377.75 L1726.31 1370.33 L1741.53 1363.15 L1756.76 1356.09 L1771.98 1349.29 L1787.20 1342.73 L1802.30 1336.29 L1817.52 1329.98 L1832.74 1323.80 L1847.96 1317.73 L1863.18 1311.79 L1878.40 1305.97 L1893.62 1300.28 L1908.84 1294.59 L1924.07 1288.90 L1939.29 1283.45 L1954.51 1277.88 L1969.73 1272.44 L1984.95 1267.12 L2000.17 1261.79 L2015.39 1256.60 L2030.61 1251.40 L2045.84 1246.33 L2061.06 1241.25 L2076.28 1236.18 L2091.50 1231.23 L2106.72 1226.28 L2121.94 1221.45 L2137.16 1216.62 L2152.38 1211.92 L2167.48 1207.22 L2182.70 1202.52 L2197.92 1197.94 L2213.14 1193.36 L2228.37 1188.78 L2243.59 1184.32 L2258.81 1179.87 L2274.03 1175.41 L2289.25 1171.08 L2304.47 1166.75 L2319.69 1162.42 L2334.91 1158.21 L2350.14 1153.88 L2365.36 1149.80 L2380.58 1145.59 L2395.80 1141.51 L2411.02 1137.42 L2426.24 1133.34 L2441.46 1129.38 L2456.68 1125.42 L2471.91 1121.46 L2487.13 1117.50 L2502.35 1113.66 L2517.57 1109.70 L2532.67 1105.86 L2547.89 1102.15 L2563.11 1098.32 L2578.33 1094.60 L2593.55 1090.89 L2608.77 1087.18 L2623.99 1083.47 L2639.22 1079.88 L2654.44 1076.29 L2669.66 1072.57 L2684.88 1069.11 L2700.10 1065.52 L2715.32 1061.93 L2730.54 1058.47 L2745.76 1055.00 L2760.99 1051.54 L2776.21 1048.07 L2791.43 1044.73 L2806.65 1041.27 L2821.87 1037.92 L2837.09 1034.58 L2852.31 1031.24 L2867.53 1027.90 L2882.76 1024.68 L2897.85 1021.34 L2913.07 1018.12 L2928.30 1014.91 L2943.52 1011.69 L2958.74 1008.47 L2973.96 1005.25 L2989.18 1002.16 L3004.40 998.94 L3019.62 995.85 L3034.84 992.75 L3050.07 989.66 L3065.29 986.57 L3080.51 983.47 L3095.73 980.50 L3110.95 977.41 L3126.17 974.44 L3141.39 971.34 L3156.61 968.37 L3171.84 965.40 L3187.06 962.43 L3202.28 959.46 L3217.50 956.62 L3232.72 953.65 L3247.94 950.68 L3263.04 947.83 L3278.26 944.98 L3293.48 942.01 L3308.70 939.17 L3323.93 936.32 L3339.15 933.48 L3354.37 930.75 L3369.59 927.91 L3384.81 925.06 L3400.03 922.34 L3415.25 919.49 L3430.47 916.77 L3445.70 914.05 L3460.92 911.32 L3476.14 908.60 L3491.36 905.88 L3506.58 903.16 L3521.80 900.43 L3537.02 897.71 L3552.24 894.99 L3567.47 892.39 L3582.69 889.67 L3597.91 887.07 L3613.01 884.47 L3628.23 881.75 L3643.45 879.15 L3658.67 876.55 L3673.89 873.95 L3689.11 871.35 L3704.33 868.75 L3719.55 866.15 L3734.78 863.55 L3750.00 861.08 L3765.22 858.48 L3780.44 855.88 L3795.66 853.41" stroke-linejoin="round" style="fill:none;stroke:#FF0000;stroke-width:8.64"/>
	<line x1="521.73" y1="2489.19" x2="521.73" y2="100.86" style="stroke:#000000;stroke-width:5.76"/>
	<line x1="521.73" y1="2425.82" x2="481.76" y2="2425.82" style="stroke:#000000;stroke-width:5.76"/>
	<text x="461.83" y="2460.85" style="font-family:'Helvetica';font-size:99.99px;fill:#000000" text-anchor="end">0.00</text>
	<line x1="521.73" y1="2199.72" x2="481.76" y2="2199.72" style="stroke:#000000;stroke-width:5.76"/>
	<text x="461.83" y="2234.75" style="font-family:'Helvetica';font-size:99.99px;fill:#000000" text-anchor="end">0.10</text>
	<line x1="521.73" y1="1973.50" x2="481.76" y2="1973.50" style="stroke:#000000;stroke-width:5.76"/>
	<text x="461.83" y="2008.53" style="font-family:'Helvetica';font-size:99.99px;fill:#000000" text-anchor="end">0.20</text>
	<line x1="521.73" y1="1747.28" x2="481.76" y2="1747.28" style="stroke:#000000;stroke-width:5.76"/>
	<text x="461.83" y="1782.31" style="font-family:'Helvetica';font-size:99.99px;fill:#000000" text-anchor="end">0.30</text>
	<line x1="521.73" y1="1521.18" x2="481.76" y2="1521.18" style="stroke:#000000;stroke-width:5.76"/>
	<text x="461.83" y="1556.21" style="font-family:'Helvetica';font-size:99.99px;fill:#000000" text-anchor="end">0.40</text>
	<line x1="521.73" y1="1294.96" x2="481.76" y2="1294.96" style="stroke:#000000;stroke-width:5.76"/>
	<text x="461.83" y="1329.99" style="font-family:'Helvetica';font-size:99.99px;fill:#000000" text-anchor="end">0.50</text>
	<line x1="521.73" y1="1068.86" x2="481.76" y2="1068.86" style="stroke:#000000;stroke-width:5.76"/>
	<text x="461.83" y="1103.89" style="font-family:'Helvetica';font-size:99.99px;fill:#000000" text-anchor="end">0.60</text>
	<line x1="521.73" y1="842.64" x2="481.76" y2="842.64" style="stroke:#000000;stroke-width:5.76"/>
	<text x="461.83" y="877.67" style="font-family:'Helvetica';font-size:99.99px;fill:#000000" text-anchor="end">0.70</text>
	<line x1="521.73" y1="616.54" x2="481.76" y2="616.54" style="stroke:#000000;stroke-width:5.76"/>
	<text x="461.83" y="651.57" style="font-family:'Helvetica';font-size:99.99px;fill:#000000" text-anchor="end">0.80</text>
	<line x1="521.73" y1="390.32" x2="481.76" y2="390.32" style="stroke:#000000;stroke-width:5.76"/>
	<text x="461.83" y="425.35" style="font-family:'Helvetica';font-size:99.99px;fill:#000000" text-anchor="end">0.90</text>
	<line x1="521.73" y1="164.22" x2="481.76" y2="164.22" style="stroke:#000000;stroke-width:5.76"/>
	<text x="461.83" y="199.25" style="font-family:'Helvetica';font-size:99.99px;fill:#000000" text-anchor="end">1.00</text>
	<text x="190.71" y="1294.96" style="font-family:'Helvetica';font-size:99.99px;fill:#000000" transform="rotate(-90 190.71,1294.96)" text-anchor="middle">Cumulative incidence (%)</text>
	<line x1="521.73" y1="2489.19" x2="3859.02" y2="2489.19" style="stroke:#000000;stroke-width:5.76"/>
	<line x1="585.09" y1="2489.19" x2="585.09" y2="2529.16" style="stroke:#000000;stroke-width:5.76"/>
	<text x="585.09" y="2619.14" style="font-family:'Helvetica';font-size:99.99px;fill:#000000" text-anchor="middle">0</text>
	<line x1="1345.90" y1="2489.19" x2="1345.90" y2="2529.16" style="stroke:#000000;stroke-width:5.76"/>
	<text x="1345.90" y="2619.14" style="font-family:'Helvetica';font-size:99.99px;fill:#000000" text-anchor="middle">50</text>
	<line x1="2106.72" y1="2489.19" x2="2106.72" y2="2529.16" style="stroke:#000000;stroke-width:5.76"/>
	<text x="2106.72" y="2619.14" style="font-family:'Helvetica';font-size:99.99px;fill:#000000" text-anchor="middle">100</text>
	<line x1="2867.53" y1="2489.19" x2="2867.53" y2="2529.16" style="stroke:#000000;stroke-width:5.76"/>
	<text x="2867.53" y="2619.14" style="font-family:'Helvetica';font-size:99.99px;fill:#000000" text-anchor="middle">150</text>
	<line x1="3628.35" y1="2489.19" x2="3628.35" y2="2529.16" style="stroke:#000000;stroke-width:5.76"/>
	<text x="3628.35" y="2619.14" style="font-family:'Helvetica';font-size:99.99px;fill:#000000" text-anchor="middle">200</text>
	<text x="2190.38" y="2729.16" style="font-family:'Helvetica';font-size:99.99px;fill:#000000" text-anchor="middle">Days from 1 March 2020</text>
	<rect x="1933.59" y="2128.20" width="1890.90" height="326.46" style="fill:#FFFFFF"/>
	<rect x="1936.47" y="2131.08" width="1885.14" height="320.70" style="fill:none;stroke:#000000;stroke-width:5.76"/>
	<rect x="1976.78" y="2171.51" width="374.34" height="99.99" style="fill:#3333FF;fill-opacity:0.25"/>
	<rect x="1981.10" y="2175.83" width="365.70" height="91.35" style="fill:none;stroke:#0000FF;stroke-opacity:0.25;stroke-width:8.64"/>
	<rect x="1976.78" y="2311.47" width="374.34" height="99.99" style="fill:#FF3333;fill-opacity:0.25"/>
	<rect x="1981.10" y="2315.79" width="365.70" height="91.35" style="fill:none;stroke:#FF0000;stroke-opacity:0.25;stroke-width:8.64"/>
	<text x="2411.14" y="2256.53" style="font-family:'Helvetica';font-size:99.99px;fill:#000000">Non-current anticoagulant use</text>
	<text x="2411.14" y="2396.50" style="font-family:'Helvetica';font-size:99.99px;fill:#000000">Current anticoagulant use</text>
</svg>
