<?xml version="1.0" encoding="UTF-8" standalone="no"?>
<!-- This is a Stata 16.1 generated SVG file (http://www.stata.com) -->

<svg version="1.1" width="5.50in" height="4.00in" viewBox="0 0 3960 2880" xmlns="http://www.w3.org/2000/svg" xmlns:xlink="http://www.w3.org/1999/xlink">
	<desc>Stata Graph - Graph</desc>
	<rect x="0" y="0" width="3960" height="2880" style="fill:#EAF2F3;stroke:none"/>
	<rect x="0.00" y="0.00" width="3959.88" height="2880.00" style="fill:#EAF2F3"/>
	<rect x="2.88" y="2.88" width="3954.12" height="2874.24" style="fill:none;stroke:#EAF2F3;stroke-width:5.76"/>
	<rect x="521.73" y="100.86" width="3337.29" height="2388.33" style="fill:#FFFFFF"/>
	<rect x="524.61" y="103.74" width="3331.53" height="2382.57" style="fill:none;stroke:#FFFFFF;stroke-width:5.76"/>
	<line x1="521.73" y1="2425.82" x2="3859.02" y2="2425.82" style="stroke:#EAF2F3;stroke-width:8.64"/>
	<line x1="521.73" y1="1973.50" x2="3859.02" y2="1973.50" style="stroke:#EAF2F3;stroke-width:8.64"/>
	<line x1="521.73" y1="1521.18" x2="3859.02" y2="1521.18" style="stroke:#EAF2F3;stroke-width:8.64"/>
	<line x1="521.73" y1="1068.86" x2="3859.02" y2="1068.86" style="stroke:#EAF2F3;stroke-width:8.64"/>
	<line x1="521.73" y1="616.54" x2="3859.02" y2="616.54" style="stroke:#EAF2F3;stroke-width:8.64"/>
	<defs>
		<path id="path_tREwZSDc" d="M600.31 2409.86 L600.31 2409.86 L615.53 2398.84 L630.75 2389.07 L645.98 2380.16 L661.20 2371.74 L676.42 2363.70 L691.64 2356.03 L706.86 2348.60 L722.08 2341.42 L737.30 2334.37 L752.52 2327.56 L767.75 2320.88 L782.97 2314.44 L798.19 2308.01 L813.41 2301.70 L828.63 2295.51 L843.85 2289.45 L859.07 2283.38 L874.29 2277.44 L889.51 2271.63 L904.61 2265.93 L919.83 2260.12 L935.05 2254.55 L950.28 2248.98 L965.50 2243.41 L980.72 2237.96 L995.94 2232.64 L1011.16 2227.20 L1026.38 2222.00 L1041.60 2216.68 L1056.83 2211.48 L1072.05 2206.28 L1087.27 2201.21 L1102.49 2196.14 L1117.71 2191.06 L1132.93 2186.11 L1148.15 2181.16 L1163.37 2176.21 L1178.60 2171.26 L1193.82 2166.44 L1209.04 2161.61 L1224.26 2156.78 L1239.48 2151.96 L1254.70 2147.25 L1269.80 2142.55 L1285.02 2137.85 L1300.24 2133.15 L1315.46 2128.57 L1330.68 2123.99 L1345.90 2119.41 L1361.13 2114.83 L1376.35 2110.25 L1391.57 2105.80 L1406.79 2101.34 L1422.01 2096.76 L1437.23 2092.43 L1452.45 2087.98 L1467.67 2083.52 L1482.90 2079.19 L1498.12 2074.86 L1513.34 2070.53 L1528.56 2066.19 L1543.78 2061.86 L1559.00 2057.53 L1574.22 2053.32 L1589.44 2049.12 L1604.67 2044.91 L1619.76 2040.70 L1634.98 2036.49 L1650.21 2032.29 L1665.43 2028.08 L1680.65 2023.99 L1695.87 2019.91 L1711.09 2015.70 L1726.31 2011.62 L1741.53 2007.54 L1756.76 2003.58 L1771.98 1999.49 L1787.20 1995.41 L1802.42 1991.45 L1817.64 1987.36 L1832.86 1983.40 L1848.08 1979.44 L1863.30 1975.48 L1878.53 1971.52 L1893.75 1967.56 L1908.97 1963.73 L1924.19 1959.77 L1939.41 1955.93 L1954.63 1951.97 L1969.85 1948.13 L1984.95 1944.30 L2000.17 1940.46 L2015.39 1936.62 L2030.61 1932.79 L2045.84 1928.95 L2061.06 1925.12 L2076.28 1921.40 L2091.50 1917.57 L2106.72 1913.85 L2121.94 1910.02 L2137.16 1906.30 L2152.38 1902.59 L2167.61 1898.88 L2182.83 1895.17 L2198.05 1891.45 L2213.27 1887.74 L2228.49 1884.15 L2243.71 1880.44 L2258.93 1876.73 L2274.15 1873.14 L2289.38 1869.43 L2304.60 1865.84 L2319.82 1862.25 L2335.04 1858.66 L2350.14 1855.07 L2365.36 1851.48 L2380.58 1847.89 L2395.80 1844.30 L2411.02 1840.72 L2426.24 1837.13 L2441.46 1833.66 L2456.68 1830.07 L2471.91 1826.48 L2487.13 1823.02 L2502.35 1819.55 L2517.57 1815.96 L2532.79 1812.50 L2548.01 1809.03 L2563.23 1805.57 L2578.45 1802.10 L2593.68 1798.64 L2608.90 1795.17 L2624.12 1791.71 L2639.34 1788.24 L2654.56 1784.90 L2669.78 1781.44 L2685.00 1777.97 L2700.22 1774.63 L2715.32 1771.17 L2730.54 1767.82 L2745.76 1764.48 L2760.99 1761.02 L2776.21 1757.68 L2791.43 1754.33 L2806.65 1750.99 L2821.87 1747.65 L2837.09 1744.31 L2852.31 1740.97 L2867.53 1737.63 L2882.76 1734.29 L2897.98 1730.95 L2913.20 1727.73 L2928.42 1724.39 L2943.64 1721.17 L2958.86 1717.83 L2974.08 1714.49 L2989.30 1711.27 L3004.53 1708.05 L3019.75 1704.71 L3034.97 1701.49 L3050.19 1698.27 L3065.41 1695.06 L3080.51 1691.84 L3095.73 1688.50 L3110.95 1685.28 L3126.17 1682.06 L3141.39 1678.97 L3156.61 1675.75 L3171.84 1672.53 L3187.06 1669.32 L3202.28 1666.10 L3217.50 1663.00 L3232.72 1659.79 L3247.94 1656.57 L3263.16 1653.48 L3278.39 1650.26 L3293.61 1647.16 L3308.83 1643.95 L3324.05 1640.85 L3339.27 1637.76 L3354.49 1634.66 L3369.71 1631.45 L3384.93 1628.35 L3400.16 1625.26 L3415.38 1622.17 L3430.47 1619.07 L3445.70 1615.98 L3460.92 1612.88 L3476.14 1609.79 L3491.36 1606.70 L3506.58 1603.60 L3521.80 1600.51 L3537.02 1597.54 L3552.24 1594.44 L3567.47 1591.35 L3582.69 1588.38 L3597.91 1585.29 L3613.13 1582.32 L3628.35 1579.22 L3643.57 1576.25 L3658.79 1573.16 L3674.01 1570.19 L3689.24 1567.10 L3704.46 1564.13 L3719.68 1561.16 L3734.90 1558.18 L3750.12 1555.09 L3765.34 1552.12 L3780.56 1549.15 L3795.66 1546.18 L3795.66 1430.35 L3780.56 1433.69 L3765.34 1437.03 L3750.12 1440.50 L3734.90 1443.84 L3719.68 1447.18 L3704.46 1450.64 L3689.24 1453.98 L3674.01 1457.45 L3658.79 1460.79 L3643.57 1464.26 L3628.35 1467.72 L3613.13 1471.06 L3597.91 1474.53 L3582.69 1477.99 L3567.47 1481.46 L3552.24 1484.80 L3537.02 1488.26 L3521.80 1491.73 L3506.58 1495.19 L3491.36 1498.66 L3476.14 1502.12 L3460.92 1505.59 L3445.70 1509.05 L3430.47 1512.52 L3415.38 1515.98 L3400.16 1519.45 L3384.93 1523.04 L3369.71 1526.50 L3354.49 1529.97 L3339.27 1533.43 L3324.05 1537.02 L3308.83 1540.49 L3293.61 1544.08 L3278.39 1547.54 L3263.16 1551.13 L3247.94 1554.60 L3232.72 1558.18 L3217.50 1561.77 L3202.28 1565.24 L3187.06 1568.83 L3171.84 1572.42 L3156.61 1576.01 L3141.39 1579.47 L3126.17 1583.06 L3110.95 1586.65 L3095.73 1590.24 L3080.51 1593.83 L3065.41 1597.54 L3050.19 1601.13 L3034.97 1604.72 L3019.75 1608.31 L3004.53 1611.89 L2989.30 1615.61 L2974.08 1619.20 L2958.86 1622.91 L2943.64 1626.50 L2928.42 1630.21 L2913.20 1633.80 L2897.98 1637.51 L2882.76 1641.10 L2867.53 1644.81 L2852.31 1648.53 L2837.09 1652.24 L2821.87 1655.95 L2806.65 1659.66 L2791.43 1663.38 L2776.21 1667.09 L2760.99 1670.80 L2745.76 1674.51 L2730.54 1678.23 L2715.32 1681.94 L2700.22 1685.78 L2685.00 1689.49 L2669.78 1693.32 L2654.56 1697.04 L2639.34 1700.87 L2624.12 1704.59 L2608.90 1708.42 L2593.68 1712.26 L2578.45 1715.97 L2563.23 1719.81 L2548.01 1723.64 L2532.79 1727.48 L2517.57 1731.32 L2502.35 1735.15 L2487.13 1739.11 L2471.91 1742.95 L2456.68 1746.79 L2441.46 1750.75 L2426.24 1754.58 L2411.02 1758.54 L2395.80 1762.38 L2380.58 1766.34 L2365.36 1770.30 L2350.14 1774.14 L2335.04 1778.10 L2319.82 1782.06 L2304.60 1786.02 L2289.38 1789.98 L2274.15 1794.06 L2258.93 1798.02 L2243.71 1801.98 L2228.49 1806.06 L2213.27 1810.02 L2198.05 1814.11 L2182.83 1818.19 L2167.61 1822.15 L2152.38 1826.24 L2137.16 1830.32 L2121.94 1834.40 L2106.72 1838.49 L2091.50 1842.70 L2076.28 1846.78 L2061.06 1850.86 L2045.84 1855.07 L2030.61 1859.15 L2015.39 1863.36 L2000.17 1867.57 L1984.95 1871.78 L1969.85 1875.98 L1954.63 1880.19 L1939.41 1884.40 L1924.19 1888.61 L1908.97 1892.94 L1893.75 1897.15 L1878.53 1901.48 L1863.30 1905.81 L1848.08 1910.14 L1832.86 1914.47 L1817.64 1918.80 L1802.42 1923.14 L1787.20 1927.47 L1771.98 1931.92 L1756.76 1936.25 L1741.53 1940.71 L1726.31 1945.16 L1711.09 1949.62 L1695.87 1954.07 L1680.65 1958.65 L1665.43 1963.11 L1650.21 1967.69 L1634.98 1972.14 L1619.76 1976.72 L1604.67 1981.30 L1589.44 1986.00 L1574.22 1990.58 L1559.00 1995.28 L1543.78 1999.86 L1528.56 2004.57 L1513.34 2009.27 L1498.12 2014.09 L1482.90 2018.80 L1467.67 2023.62 L1452.45 2028.33 L1437.23 2033.15 L1422.01 2038.10 L1406.79 2042.93 L1391.57 2047.88 L1376.35 2052.83 L1361.13 2057.78 L1345.90 2062.73 L1330.68 2067.80 L1315.46 2072.88 L1300.24 2077.95 L1285.02 2083.03 L1269.80 2088.22 L1254.70 2093.42 L1239.48 2098.62 L1224.26 2103.82 L1209.04 2109.14 L1193.82 2114.46 L1178.60 2119.90 L1163.37 2125.23 L1148.15 2130.67 L1132.93 2136.24 L1117.71 2141.81 L1102.49 2147.38 L1087.27 2153.07 L1072.05 2158.76 L1056.83 2164.46 L1041.60 2170.27 L1026.38 2176.21 L1011.16 2182.15 L995.94 2188.09 L980.72 2194.16 L965.50 2200.34 L950.28 2206.53 L935.05 2212.84 L919.83 2219.28 L904.61 2225.71 L889.51 2232.27 L874.29 2238.95 L859.07 2245.76 L843.85 2252.57 L828.63 2259.62 L813.41 2266.80 L798.19 2274.10 L782.97 2281.65 L767.75 2289.32 L752.52 2297.12 L737.30 2305.29 L722.08 2313.58 L706.86 2322.24 L691.64 2331.28 L676.42 2340.68 L661.20 2350.70 L645.98 2361.22 L630.75 2372.73 L615.53 2385.60 L600.31 2400.70 L600.31 2409.86 Z" stroke-linejoin="round"/>
	</defs>
	<defs>
		<clipPath id="clipPath_HnRRwYjD">
			<use xlink:href="#path_tREwZSDc"/>
		</clipPath>
	</defs>
	<use xlink:href="#path_tREwZSDc" style="stroke:none;fill:#3333FF;fill-opacity:0.25"/>
	<use xlink:href="#path_tREwZSDc" style="fill:none;stroke:#0000FF;stroke-opacity:0.25;stroke-width:17.28" clip-path="url(#clipPath_HnRRwYjD)"/>
	<defs>
		<path id="path_lJivZfXS" d="M600.31 2405.90 L600.31 2405.90 L615.53 2392.41 L630.75 2380.65 L645.98 2369.89 L661.20 2359.74 L676.42 2350.21 L691.64 2341.05 L706.86 2332.27 L722.08 2323.73 L737.30 2315.43 L752.52 2307.39 L767.75 2299.59 L782.97 2291.92 L798.19 2284.37 L813.41 2276.95 L828.63 2269.77 L843.85 2262.59 L859.07 2255.66 L874.29 2248.73 L889.51 2241.93 L904.61 2235.24 L919.83 2228.56 L935.05 2222.00 L950.28 2215.57 L965.50 2209.25 L980.72 2202.94 L995.94 2196.63 L1011.16 2190.44 L1026.38 2184.38 L1041.60 2178.19 L1056.83 2172.25 L1072.05 2166.31 L1087.27 2160.37 L1102.49 2154.55 L1117.71 2148.74 L1132.93 2142.92 L1148.15 2137.23 L1163.37 2131.54 L1178.60 2125.97 L1193.82 2120.28 L1209.04 2114.83 L1224.26 2109.26 L1239.48 2103.82 L1254.70 2098.37 L1269.80 2092.93 L1285.02 2087.60 L1300.24 2082.16 L1315.46 2076.96 L1330.68 2071.64 L1345.90 2066.32 L1361.13 2061.12 L1376.35 2055.92 L1391.57 2050.85 L1406.79 2045.65 L1422.01 2040.58 L1437.23 2035.50 L1452.45 2030.43 L1467.67 2025.36 L1482.90 2020.41 L1498.12 2015.46 L1513.34 2010.51 L1528.56 2005.56 L1543.78 2000.61 L1559.00 1995.78 L1574.22 1990.83 L1589.44 1986.00 L1604.67 1981.18 L1619.76 1976.35 L1634.98 1971.65 L1650.21 1966.82 L1665.43 1962.12 L1680.65 1957.41 L1695.87 1952.71 L1711.09 1948.01 L1726.31 1943.31 L1741.53 1938.60 L1756.76 1934.03 L1771.98 1929.45 L1787.20 1924.74 L1802.42 1920.17 L1817.64 1915.59 L1832.86 1911.13 L1848.08 1906.55 L1863.30 1902.10 L1878.53 1897.52 L1893.75 1893.06 L1908.97 1888.61 L1924.19 1884.15 L1939.41 1879.70 L1954.63 1875.24 L1969.85 1870.79 L1984.95 1866.46 L2000.17 1862.00 L2015.39 1857.67 L2030.61 1853.34 L2045.84 1849.01 L2061.06 1844.68 L2076.28 1840.34 L2091.50 1836.01 L2106.72 1831.68 L2121.94 1827.47 L2137.16 1823.14 L2152.38 1818.93 L2167.61 1814.60 L2182.83 1810.40 L2198.05 1806.19 L2213.27 1801.98 L2228.49 1797.77 L2243.71 1793.56 L2258.93 1789.36 L2274.15 1785.27 L2289.38 1781.07 L2304.60 1776.98 L2319.82 1772.77 L2335.04 1768.69 L2350.14 1764.61 L2365.36 1760.52 L2380.58 1756.44 L2395.80 1752.35 L2411.02 1748.27 L2426.24 1744.19 L2441.46 1740.10 L2456.68 1736.02 L2471.91 1732.06 L2487.13 1727.98 L2502.35 1724.02 L2517.57 1720.06 L2532.79 1715.97 L2548.01 1712.01 L2563.23 1708.05 L2578.45 1704.09 L2593.68 1700.13 L2608.90 1696.17 L2624.12 1692.21 L2639.34 1688.25 L2654.56 1684.41 L2669.78 1680.45 L2685.00 1676.49 L2700.22 1672.66 L2715.32 1668.70 L2730.54 1664.86 L2745.76 1661.02 L2760.99 1657.19 L2776.21 1653.23 L2791.43 1649.39 L2806.65 1645.56 L2821.87 1641.72 L2837.09 1637.88 L2852.31 1634.05 L2867.53 1630.33 L2882.76 1626.50 L2897.98 1622.66 L2913.20 1618.95 L2928.42 1615.11 L2943.64 1611.40 L2958.86 1607.56 L2974.08 1603.85 L2989.30 1600.01 L3004.53 1596.30 L3019.75 1592.59 L3034.97 1588.88 L3050.19 1585.16 L3065.41 1581.45 L3080.51 1577.74 L3095.73 1574.03 L3110.95 1570.31 L3126.17 1566.60 L3141.39 1562.89 L3156.61 1559.17 L3171.84 1555.59 L3187.06 1551.87 L3202.28 1548.28 L3217.50 1544.57 L3232.72 1540.98 L3247.94 1537.27 L3263.16 1533.68 L3278.39 1529.97 L3293.61 1526.38 L3308.83 1522.79 L3324.05 1519.20 L3339.27 1515.61 L3354.49 1512.02 L3369.71 1508.44 L3384.93 1504.85 L3400.16 1501.26 L3415.38 1497.67 L3430.47 1494.08 L3445.70 1490.49 L3460.92 1486.90 L3476.14 1483.44 L3491.36 1479.85 L3506.58 1476.26 L3521.80 1472.79 L3537.02 1469.21 L3552.24 1465.74 L3567.47 1462.15 L3582.69 1458.69 L3597.91 1455.22 L3613.13 1451.63 L3628.35 1448.17 L3643.57 1444.70 L3658.79 1441.24 L3674.01 1437.77 L3689.24 1434.18 L3704.46 1430.72 L3719.68 1427.25 L3734.90 1423.79 L3750.12 1420.45 L3765.34 1416.98 L3780.56 1413.52 L3795.66 1410.05 L3795.66 854.40 L3780.56 859.72 L3765.34 865.04 L3750.12 870.36 L3734.90 875.68 L3719.68 881.00 L3704.46 886.45 L3689.24 891.77 L3674.01 897.09 L3658.79 902.41 L3643.57 907.86 L3628.35 913.18 L3613.13 918.62 L3597.91 924.07 L3582.69 929.39 L3567.47 934.84 L3552.24 940.28 L3537.02 945.73 L3521.80 951.05 L3506.58 956.49 L3491.36 962.06 L3476.14 967.51 L3460.92 972.95 L3445.70 978.40 L3430.47 983.84 L3415.38 989.41 L3400.16 994.86 L3384.93 1000.43 L3369.71 1005.87 L3354.49 1011.44 L3339.27 1017.01 L3324.05 1022.58 L3308.83 1028.02 L3293.61 1033.59 L3278.39 1039.16 L3263.16 1044.73 L3247.94 1050.42 L3232.72 1055.99 L3217.50 1061.56 L3202.28 1067.25 L3187.06 1072.82 L3171.84 1078.39 L3156.61 1084.08 L3141.39 1089.78 L3126.17 1095.47 L3110.95 1101.04 L3095.73 1106.73 L3080.51 1112.42 L3065.41 1118.12 L3050.19 1123.93 L3034.97 1129.63 L3019.75 1135.32 L3004.53 1141.01 L2989.30 1146.83 L2974.08 1152.64 L2958.86 1158.34 L2943.64 1164.15 L2928.42 1169.97 L2913.20 1175.79 L2897.98 1181.60 L2882.76 1187.42 L2867.53 1193.23 L2852.31 1199.05 L2837.09 1204.99 L2821.87 1210.81 L2806.65 1216.62 L2791.43 1222.56 L2776.21 1228.50 L2760.99 1234.44 L2745.76 1240.39 L2730.54 1246.33 L2715.32 1252.27 L2700.22 1258.21 L2685.00 1264.15 L2669.78 1270.21 L2654.56 1276.15 L2639.34 1282.21 L2624.12 1288.15 L2608.90 1294.22 L2593.68 1300.28 L2578.45 1306.35 L2563.23 1312.41 L2548.01 1318.47 L2532.79 1324.66 L2517.57 1330.73 L2502.35 1336.91 L2487.13 1342.98 L2471.91 1349.16 L2456.68 1355.35 L2441.46 1361.54 L2426.24 1367.73 L2411.02 1374.04 L2395.80 1380.23 L2380.58 1386.41 L2365.36 1392.73 L2350.14 1399.04 L2335.04 1405.35 L2319.82 1411.66 L2304.60 1417.97 L2289.38 1424.28 L2274.15 1430.59 L2258.93 1437.03 L2243.71 1443.34 L2228.49 1449.78 L2213.27 1456.21 L2198.05 1462.65 L2182.83 1469.08 L2167.61 1475.64 L2152.38 1482.08 L2137.16 1488.64 L2121.94 1495.07 L2106.72 1501.63 L2091.50 1508.19 L2076.28 1514.87 L2061.06 1521.43 L2045.84 1528.11 L2030.61 1534.67 L2015.39 1541.35 L2000.17 1548.04 L1984.95 1554.72 L1969.85 1561.53 L1954.63 1568.21 L1939.41 1575.02 L1924.19 1581.82 L1908.97 1588.63 L1893.75 1595.43 L1878.53 1602.24 L1863.30 1609.17 L1848.08 1616.10 L1832.86 1623.03 L1817.64 1629.96 L1802.42 1636.89 L1787.20 1643.95 L1771.98 1650.88 L1756.76 1657.93 L1741.53 1665.11 L1726.31 1672.16 L1711.09 1679.34 L1695.87 1686.39 L1680.65 1693.57 L1665.43 1700.87 L1650.21 1708.05 L1634.98 1715.35 L1619.76 1722.65 L1604.67 1729.96 L1589.44 1737.38 L1574.22 1744.81 L1559.00 1752.23 L1543.78 1759.66 L1528.56 1767.21 L1513.34 1774.63 L1498.12 1782.30 L1482.90 1789.85 L1467.67 1797.52 L1452.45 1805.20 L1437.23 1812.87 L1422.01 1820.67 L1406.79 1828.46 L1391.57 1836.26 L1376.35 1844.18 L1361.13 1852.10 L1345.90 1860.02 L1330.68 1868.06 L1315.46 1876.11 L1300.24 1884.28 L1285.02 1892.44 L1269.80 1900.61 L1254.70 1908.90 L1239.48 1917.19 L1224.26 1925.49 L1209.04 1934.03 L1193.82 1942.44 L1178.60 1950.98 L1163.37 1959.64 L1148.15 1968.31 L1132.93 1977.09 L1117.71 1985.88 L1102.49 1994.79 L1087.27 2003.70 L1072.05 2012.73 L1056.83 2021.89 L1041.60 2031.17 L1026.38 2040.45 L1011.16 2049.86 L995.94 2059.26 L980.72 2068.92 L965.50 2078.57 L950.28 2088.47 L935.05 2098.37 L919.83 2108.39 L904.61 2118.67 L889.51 2128.94 L874.29 2139.46 L859.07 2150.10 L843.85 2160.99 L828.63 2172.00 L813.41 2183.14 L798.19 2194.65 L782.97 2206.28 L767.75 2218.29 L752.52 2230.54 L737.30 2243.04 L722.08 2256.03 L706.86 2269.40 L691.64 2283.38 L676.42 2297.86 L661.20 2313.08 L645.98 2329.30 L630.75 2346.74 L615.53 2366.17 L600.31 2388.82 L600.31 2405.90 Z" stroke-linejoin="round"/>
	</defs>
	<defs>
		<clipPath id="clipPath_zSkAMyrH">
			<use xlink:href="#path_lJivZfXS"/>
		</clipPath>
	</defs>
	<use xlink:href="#path_lJivZfXS" style="stroke:none;fill:#FF3333;fill-opacity:0.25"/>
	<use xlink:href="#path_lJivZfXS" style="fill:none;stroke:#FF0000;stroke-opacity:0.25;stroke-width:17.28" clip-path="url(#clipPath_zSkAMyrH)"/>
	<path d=" M585.09 2425.95 L600.31 2405.90 L615.53 2392.90 L630.75 2381.77 L645.98 2371.62 L661.20 2362.09 L676.42 2353.18 L691.64 2344.64 L706.86 2336.47 L721.96 2328.55 L737.18 2320.88 L752.40 2313.45 L767.62 2306.15 L782.84 2299.10 L798.06 2292.17 L813.28 2285.36 L828.51 2278.68 L843.73 2272.12 L858.95 2265.69 L874.17 2259.37 L889.39 2253.19 L904.61 2247.00 L919.83 2240.94 L935.05 2234.87 L950.28 2228.93 L965.50 2223.11 L980.72 2217.30 L995.94 2211.61 L1011.16 2205.91 L1026.38 2200.34 L1041.60 2194.77 L1056.83 2189.21 L1072.05 2183.76 L1087.14 2178.32 L1102.37 2172.99 L1117.59 2167.67 L1132.81 2162.35 L1148.03 2157.15 L1163.25 2151.96 L1178.47 2146.76 L1193.69 2141.68 L1208.91 2136.61 L1224.13 2131.54 L1239.36 2126.59 L1254.58 2121.51 L1269.80 2116.56 L1285.02 2111.74 L1300.24 2106.79 L1315.46 2101.96 L1330.68 2097.13 L1345.90 2092.31 L1361.13 2087.60 L1376.35 2082.78 L1391.57 2078.07 L1406.79 2073.37 L1422.01 2068.67 L1437.23 2064.09 L1452.33 2059.39 L1467.55 2054.81 L1482.77 2050.23 L1497.99 2045.65 L1513.21 2041.20 L1528.44 2036.62 L1543.66 2032.16 L1558.88 2027.71 L1574.10 2023.25 L1589.32 2018.80 L1604.54 2014.34 L1619.76 2010.01 L1634.98 2005.56 L1650.21 2001.22 L1665.43 1996.89 L1680.65 1992.56 L1695.87 1988.23 L1711.09 1984.02 L1726.31 1979.69 L1741.53 1975.48 L1756.76 1971.28 L1771.98 1966.94 L1787.20 1962.74 L1802.30 1958.53 L1817.52 1954.44 L1832.74 1950.24 L1847.96 1946.03 L1863.18 1941.95 L1878.40 1937.86 L1893.62 1933.65 L1908.84 1929.57 L1924.07 1925.49 L1939.29 1921.53 L1954.51 1917.44 L1969.73 1913.36 L1984.95 1909.40 L2000.17 1905.31 L2015.39 1901.35 L2030.61 1897.27 L2045.84 1893.31 L2061.06 1889.35 L2076.28 1885.39 L2091.50 1881.43 L2106.72 1877.47 L2121.94 1873.63 L2137.16 1869.67 L2152.38 1865.84 L2167.48 1861.88 L2182.70 1858.04 L2197.92 1854.20 L2213.14 1850.24 L2228.37 1846.41 L2243.59 1842.57 L2258.81 1838.73 L2274.03 1834.90 L2289.25 1831.19 L2304.47 1827.35 L2319.69 1823.51 L2334.91 1819.80 L2350.14 1815.96 L2365.36 1812.25 L2380.58 1808.54 L2395.80 1804.70 L2411.02 1800.99 L2426.24 1797.28 L2441.46 1793.56 L2456.68 1789.85 L2471.91 1786.14 L2487.13 1782.43 L2502.35 1778.84 L2517.57 1775.13 L2532.67 1771.41 L2547.89 1767.82 L2563.11 1764.11 L2578.33 1760.52 L2593.55 1756.93 L2608.77 1753.22 L2623.99 1749.63 L2639.22 1746.04 L2654.44 1742.45 L2669.66 1738.87 L2684.88 1735.28 L2700.10 1731.69 L2715.32 1728.10 L2730.54 1724.51 L2745.76 1720.92 L2760.99 1717.46 L2776.21 1713.87 L2791.43 1710.28 L2806.65 1706.81 L2821.87 1703.35 L2837.09 1699.76 L2852.31 1696.29 L2867.53 1692.71 L2882.76 1689.24 L2897.85 1685.78 L2913.07 1682.31 L2928.30 1678.84 L2943.52 1675.38 L2958.74 1671.91 L2973.96 1668.45 L2989.18 1664.98 L3004.40 1661.52 L3019.62 1658.05 L3034.84 1654.71 L3050.07 1651.25 L3065.29 1647.78 L3080.51 1644.44 L3095.73 1640.98 L3110.95 1637.63 L3126.17 1634.17 L3141.39 1630.83 L3156.61 1627.49 L3171.84 1624.02 L3187.06 1620.68 L3202.28 1617.34 L3217.50 1614.00 L3232.72 1610.66 L3247.94 1607.32 L3263.04 1603.97 L3278.26 1600.63 L3293.48 1597.29 L3308.70 1593.95 L3323.93 1590.61 L3339.15 1587.27 L3354.37 1583.93 L3369.59 1580.71 L3384.81 1577.37 L3400.03 1574.03 L3415.25 1570.81 L3430.47 1567.47 L3445.70 1564.25 L3460.92 1560.91 L3476.14 1557.69 L3491.36 1554.47 L3506.58 1551.13 L3521.80 1547.91 L3537.02 1544.70 L3552.24 1541.35 L3567.47 1538.14 L3582.69 1534.92 L3597.91 1531.70 L3613.01 1528.48 L3628.23 1525.27 L3643.45 1522.05 L3658.67 1518.83 L3673.89 1515.61 L3689.11 1512.40 L3704.33 1509.18 L3719.55 1505.96 L3734.78 1502.87 L3750.00 1499.65 L3765.22 1496.43 L3780.44 1493.34 L3795.66 1490.12" stroke-linejoin="round" style="fill:none;stroke:#0000FF;stroke-width:8.64"/>
	<path d=" M585.09 2425.95 L600.31 2398.72 L615.53 2381.27 L630.75 2366.17 L645.98 2352.44 L661.20 2339.57 L676.42 2327.56 L691.64 2315.93 L706.86 2304.92 L721.96 2294.27 L737.18 2283.88 L752.40 2273.85 L767.62 2263.95 L782.84 2254.42 L798.06 2245.02 L813.28 2235.86 L828.51 2226.83 L843.73 2217.92 L858.95 2209.25 L874.17 2200.72 L889.39 2192.18 L904.61 2183.88 L919.83 2175.72 L935.05 2167.55 L950.28 2159.50 L965.50 2151.58 L980.72 2143.79 L995.94 2136.12 L1011.16 2128.44 L1026.38 2120.77 L1041.60 2113.34 L1056.83 2105.80 L1072.05 2098.49 L1087.14 2091.19 L1102.37 2083.89 L1117.59 2076.71 L1132.81 2069.54 L1148.03 2062.48 L1163.25 2055.55 L1178.47 2048.50 L1193.69 2041.57 L1208.91 2034.76 L1224.13 2027.95 L1239.36 2021.15 L1254.58 2014.47 L1269.80 2007.78 L1285.02 2001.10 L1300.24 1994.54 L1315.46 1987.98 L1330.68 1981.42 L1345.90 1974.86 L1361.13 1968.43 L1376.35 1962.12 L1391.57 1955.68 L1406.79 1949.37 L1422.01 1943.06 L1437.23 1936.75 L1452.33 1930.56 L1467.55 1924.25 L1482.77 1918.06 L1497.99 1912.00 L1513.21 1905.81 L1528.44 1899.75 L1543.66 1893.68 L1558.88 1887.62 L1574.10 1881.55 L1589.32 1875.61 L1604.54 1869.67 L1619.76 1863.73 L1634.98 1857.79 L1650.21 1851.98 L1665.43 1846.04 L1680.65 1840.22 L1695.87 1834.40 L1711.09 1828.59 L1726.31 1822.89 L1741.53 1817.08 L1756.76 1811.39 L1771.98 1805.69 L1787.20 1800.00 L1802.30 1794.31 L1817.52 1788.61 L1832.74 1783.05 L1847.96 1777.48 L1863.18 1771.91 L1878.40 1766.34 L1893.62 1760.77 L1908.84 1755.20 L1924.07 1749.76 L1939.29 1744.19 L1954.51 1738.74 L1969.73 1733.30 L1984.95 1727.85 L2000.17 1722.41 L2015.39 1716.96 L2030.61 1711.64 L2045.84 1706.19 L2061.06 1700.87 L2076.28 1695.55 L2091.50 1690.23 L2106.72 1684.91 L2121.94 1679.59 L2137.16 1674.27 L2152.38 1669.07 L2167.48 1663.75 L2182.70 1658.55 L2197.92 1653.35 L2213.14 1648.15 L2228.37 1642.96 L2243.59 1637.76 L2258.81 1632.56 L2274.03 1627.49 L2289.25 1622.29 L2304.47 1617.22 L2319.69 1612.02 L2334.91 1606.94 L2350.14 1601.87 L2365.36 1596.80 L2380.58 1591.72 L2395.80 1586.65 L2411.02 1581.70 L2426.24 1576.62 L2441.46 1571.67 L2456.68 1566.60 L2471.91 1561.65 L2487.13 1556.70 L2502.35 1551.63 L2517.57 1546.68 L2532.67 1541.73 L2547.89 1536.90 L2563.11 1531.95 L2578.33 1527.00 L2593.55 1522.05 L2608.77 1517.22 L2623.99 1512.40 L2639.22 1507.45 L2654.44 1502.62 L2669.66 1497.79 L2684.88 1492.97 L2700.10 1488.14 L2715.32 1483.31 L2730.54 1478.49 L2745.76 1473.66 L2760.99 1468.83 L2776.21 1464.13 L2791.43 1459.31 L2806.65 1454.60 L2821.87 1449.78 L2837.09 1445.07 L2852.31 1440.37 L2867.53 1435.67 L2882.76 1430.97 L2897.85 1426.26 L2913.07 1421.56 L2928.30 1416.86 L2943.52 1412.16 L2958.74 1407.45 L2973.96 1402.87 L2989.18 1398.17 L3004.40 1393.59 L3019.62 1388.89 L3034.84 1384.31 L3050.07 1379.73 L3065.29 1375.03 L3080.51 1370.45 L3095.73 1365.87 L3110.95 1361.29 L3126.17 1356.71 L3141.39 1352.13 L3156.61 1347.56 L3171.84 1342.98 L3187.06 1338.52 L3202.28 1333.94 L3217.50 1329.36 L3232.72 1324.91 L3247.94 1320.33 L3263.04 1315.87 L3278.26 1311.42 L3293.48 1306.84 L3308.70 1302.39 L3323.93 1297.93 L3339.15 1293.48 L3354.37 1289.02 L3369.59 1284.57 L3384.81 1280.11 L3400.03 1275.65 L3415.25 1271.20 L3430.47 1266.74 L3445.70 1262.41 L3460.92 1257.96 L3476.14 1253.50 L3491.36 1249.17 L3506.58 1244.72 L3521.80 1240.39 L3537.02 1235.93 L3552.24 1231.60 L3567.47 1227.27 L3582.69 1222.94 L3597.91 1218.48 L3613.01 1214.15 L3628.23 1209.82 L3643.45 1205.49 L3658.67 1201.16 L3673.89 1196.82 L3689.11 1192.49 L3704.33 1188.16 L3719.55 1183.95 L3734.78 1179.62 L3750.00 1175.29 L3765.22 1171.08 L3780.44 1166.75 L3795.66 1162.54" stroke-linejoin="round" style="fill:none;stroke:#FF0000;stroke-width:8.64"/>
	<line x1="521.73" y1="2489.19" x2="521.73" y2="100.86" style="stroke:#000000;stroke-width:5.76"/>
	<line x1="521.73" y1="2425.82" x2="481.76" y2="2425.82" style="stroke:#000000;stroke-width:5.76"/>
	<text x="461.83" y="2460.85" style="font-family:'Helvetica';font-size:99.99px;fill:#000000" text-anchor="end">0.00</text>
	<line x1="521.73" y1="1973.50" x2="481.76" y2="1973.50" style="stroke:#000000;stroke-width:5.76"/>
	<text x="461.83" y="2008.53" style="font-family:'Helvetica';font-size:99.99px;fill:#000000" text-anchor="end">0.10</text>
	<line x1="521.73" y1="1521.18" x2="481.76" y2="1521.18" style="stroke:#000000;stroke-width:5.76"/>
	<text x="461.83" y="1556.21" style="font-family:'Helvetica';font-size:99.99px;fill:#000000" text-anchor="end">0.20</text>
	<line x1="521.73" y1="1068.86" x2="481.76" y2="1068.86" style="stroke:#000000;stroke-width:5.76"/>
	<text x="461.83" y="1103.89" style="font-family:'Helvetica';font-size:99.99px;fill:#000000" text-anchor="end">0.30</text>
	<line x1="521.73" y1="616.54" x2="481.76" y2="616.54" style="stroke:#000000;stroke-width:5.76"/>
	<text x="461.83" y="651.57" style="font-family:'Helvetica';font-size:99.99px;fill:#000000" text-anchor="end">0.40</text>
	<line x1="521.73" y1="164.22" x2="481.76" y2="164.22" style="stroke:#000000;stroke-width:5.76"/>
	<text x="461.83" y="199.25" style="font-family:'Helvetica';font-size:99.99px;fill:#000000" text-anchor="end">0.50</text>
	<text x="190.71" y="1294.96" style="font-family:'Helvetica';font-size:99.99px;fill:#000000" transform="rotate(-90 190.71,1294.96)" text-anchor="middle">Cumulative incidence (%)</text>
	<line x1="521.73" y1="2489.19" x2="3859.02" y2="2489.19" style="stroke:#000000;stroke-width:5.76"/>
	<line x1="585.09" y1="2489.19" x2="585.09" y2="2529.16" style="stroke:#000000;stroke-width:5.76"/>
	<text x="585.09" y="2619.14" style="font-family:'Helvetica';font-size:99.99px;fill:#000000" text-anchor="middle">0</text>
	<line x1="1345.90" y1="2489.19" x2="1345.90" y2="2529.16" style="stroke:#000000;stroke-width:5.76"/>
	<text x="1345.90" y="2619.14" style="font-family:'Helvetica';font-size:99.99px;fill:#000000" text-anchor="middle">50</text>
	<line x1="2106.72" y1="2489.19" x2="2106.72" y2="2529.16" style="stroke:#000000;stroke-width:5.76"/>
	<text x="2106.72" y="2619.14" style="font-family:'Helvetica';font-size:99.99px;fill:#000000" text-anchor="middle">100</text>
	<line x1="2867.53" y1="2489.19" x2="2867.53" y2="2529.16" style="stroke:#000000;stroke-width:5.76"/>
	<text x="2867.53" y="2619.14" style="font-family:'Helvetica';font-size:99.99px;fill:#000000" text-anchor="middle">150</text>
	<line x1="3628.35" y1="2489.19" x2="3628.35" y2="2529.16" style="stroke:#000000;stroke-width:5.76"/>
	<text x="3628.35" y="2619.14" style="font-family:'Helvetica';font-size:99.99px;fill:#000000" text-anchor="middle">200</text>
	<text x="2190.38" y="2729.16" style="font-family:'Helvetica';font-size:99.99px;fill:#000000" text-anchor="middle">Days from 1 March 2020</text>
	<rect x="1933.59" y="2128.20" width="1890.90" height="326.46" style="fill:#FFFFFF"/>
	<rect x="1936.47" y="2131.08" width="1885.14" height="320.70" style="fill:none;stroke:#000000;stroke-width:5.76"/>
	<rect x="1976.78" y="2171.51" width="374.34" height="99.99" style="fill:#3333FF;fill-opacity:0.25"/>
	<rect x="1981.10" y="2175.83" width="365.70" height="91.35" style="fill:none;stroke:#0000FF;stroke-opacity:0.25;stroke-width:8.64"/>
	<rect x="1976.78" y="2311.47" width="374.34" height="99.99" style="fill:#FF3333;fill-opacity:0.25"/>
	<rect x="1981.10" y="2315.79" width="365.70" height="91.35" style="fill:none;stroke:#FF0000;stroke-opacity:0.25;stroke-width:8.64"/>
	<text x="2411.14" y="2256.53" style="font-family:'Helvetica';font-size:99.99px;fill:#000000">Non-current anticoagulant use</text>
	<text x="2411.14" y="2396.50" style="font-family:'Helvetica';font-size:99.99px;fill:#000000">Current anticoagulant use</text>
</svg>
