<?xml version="1.0" encoding="UTF-8" standalone="no"?>
<!-- This is a Stata 16.1 generated SVG file (http://www.stata.com) -->

<svg version="1.1" width="5.50in" height="4.00in" viewBox="0 0 3960 2880" xmlns="http://www.w3.org/2000/svg" xmlns:xlink="http://www.w3.org/1999/xlink">
	<desc>Stata Graph - Graph</desc>
	<rect x="0" y="0" width="3960" height="2880" style="fill:#EAF2F3;stroke:none"/>
	<rect x="0.00" y="0.00" width="3959.88" height="2880.00" style="fill:#EAF2F3"/>
	<rect x="2.88" y="2.88" width="3954.12" height="2874.24" style="fill:none;stroke:#EAF2F3;stroke-width:5.76"/>
	<rect x="521.73" y="100.86" width="3337.29" height="2388.33" style="fill:#FFFFFF"/>
	<rect x="524.61" y="103.74" width="3331.53" height="2382.57" style="fill:none;stroke:#FFFFFF;stroke-width:5.76"/>
	<line x1="521.73" y1="2425.82" x2="3859.02" y2="2425.82" style="stroke:#EAF2F3;stroke-width:8.64"/>
	<line x1="521.73" y1="1973.50" x2="3859.02" y2="1973.50" style="stroke:#EAF2F3;stroke-width:8.64"/>
	<line x1="521.73" y1="1521.18" x2="3859.02" y2="1521.18" style="stroke:#EAF2F3;stroke-width:8.64"/>
	<line x1="521.73" y1="1068.86" x2="3859.02" y2="1068.86" style="stroke:#EAF2F3;stroke-width:8.64"/>
	<line x1="521.73" y1="616.54" x2="3859.02" y2="616.54" style="stroke:#EAF2F3;stroke-width:8.64"/>
	<defs>
		<path id="path_cAlwjlaj" d="M600.31 2425.82 L600.31 2425.82 L615.53 2425.82 L630.75 2425.70 L645.98 2425.45 L661.20 2424.96 L676.42 2423.84 L691.64 2422.11 L706.86 2419.76 L722.08 2416.42 L737.30 2411.96 L752.52 2406.64 L767.75 2400.21 L782.97 2392.53 L798.19 2383.87 L813.41 2373.97 L828.63 2363.08 L843.85 2351.20 L859.07 2338.33 L874.29 2324.59 L889.51 2309.99 L904.61 2294.64 L919.83 2278.56 L935.05 2261.85 L950.28 2244.65 L965.50 2226.95 L980.72 2208.88 L995.94 2190.44 L1011.16 2171.76 L1026.38 2152.95 L1041.60 2133.89 L1056.83 2114.83 L1072.05 2095.77 L1087.27 2076.59 L1102.49 2057.66 L1117.71 2038.72 L1132.93 2020.03 L1148.15 2001.47 L1163.37 1983.16 L1178.60 1965.09 L1193.82 1947.39 L1209.04 1929.94 L1224.26 1912.74 L1239.48 1895.91 L1254.70 1879.45 L1269.80 1863.36 L1285.02 1847.52 L1300.24 1832.18 L1315.46 1817.08 L1330.68 1802.35 L1345.90 1787.87 L1361.13 1773.89 L1376.35 1760.15 L1391.57 1746.79 L1406.79 1733.79 L1422.01 1721.05 L1437.23 1708.67 L1452.45 1696.54 L1467.67 1684.79 L1482.90 1673.40 L1498.12 1662.26 L1513.34 1651.37 L1528.56 1640.85 L1543.78 1630.58 L1559.00 1620.56 L1574.22 1610.78 L1589.44 1601.38 L1604.67 1592.22 L1619.76 1583.18 L1634.98 1574.52 L1650.21 1565.98 L1665.43 1557.81 L1680.65 1549.77 L1695.87 1541.97 L1711.09 1534.30 L1726.31 1527.00 L1741.53 1519.82 L1756.76 1512.77 L1771.98 1506.08 L1787.20 1499.40 L1802.42 1492.97 L1817.64 1486.78 L1832.86 1480.72 L1848.08 1474.77 L1863.30 1469.08 L1878.53 1463.51 L1893.75 1458.07 L1908.97 1452.75 L1924.19 1447.67 L1939.41 1442.60 L1954.63 1437.77 L1969.85 1433.07 L1984.95 1428.49 L2000.17 1424.04 L2015.39 1419.58 L2030.61 1415.37 L2045.84 1411.29 L2061.06 1407.33 L2076.28 1403.37 L2091.50 1399.53 L2106.72 1395.94 L2121.94 1392.35 L2137.16 1388.77 L2152.38 1385.42 L2167.61 1382.08 L2182.83 1378.87 L2198.05 1375.77 L2213.27 1372.68 L2228.49 1369.71 L2243.71 1366.86 L2258.93 1364.02 L2274.15 1361.29 L2289.38 1358.57 L2304.60 1355.97 L2319.82 1353.50 L2335.04 1351.02 L2350.14 1348.67 L2365.36 1346.32 L2380.58 1343.97 L2395.80 1341.74 L2411.02 1339.64 L2426.24 1337.53 L2441.46 1335.43 L2456.68 1333.45 L2471.91 1331.47 L2487.13 1329.61 L2502.35 1327.76 L2517.57 1326.02 L2532.79 1324.17 L2548.01 1322.43 L2563.23 1320.83 L2578.45 1319.22 L2593.68 1317.61 L2608.90 1316.00 L2624.12 1314.51 L2639.34 1313.03 L2654.56 1311.67 L2669.78 1310.18 L2685.00 1308.82 L2700.22 1307.46 L2715.32 1306.22 L2730.54 1304.86 L2745.76 1303.62 L2760.99 1302.39 L2776.21 1301.27 L2791.43 1300.03 L2806.65 1298.92 L2821.87 1297.81 L2837.09 1296.69 L2852.31 1295.70 L2867.53 1294.59 L2882.76 1293.60 L2897.98 1292.61 L2913.20 1291.62 L2928.42 1290.75 L2943.64 1289.76 L2958.86 1288.90 L2974.08 1288.03 L2989.30 1287.16 L3004.53 1286.30 L3019.75 1285.43 L3034.97 1284.57 L3050.19 1283.82 L3065.41 1282.96 L3080.51 1282.21 L3095.73 1281.47 L3110.95 1280.73 L3126.17 1279.99 L3141.39 1279.24 L3156.61 1278.62 L3171.84 1277.88 L3187.06 1277.26 L3202.28 1276.52 L3217.50 1275.90 L3232.72 1275.28 L3247.94 1274.66 L3263.16 1274.05 L3278.39 1273.43 L3293.61 1272.81 L3308.83 1272.19 L3324.05 1271.57 L3339.27 1271.08 L3354.49 1270.46 L3369.71 1269.84 L3384.93 1269.34 L3400.16 1268.85 L3415.38 1268.23 L3430.47 1267.73 L3445.70 1267.24 L3460.92 1266.62 L3476.14 1266.13 L3491.36 1265.63 L3506.58 1265.14 L3521.80 1264.64 L3537.02 1264.15 L3552.24 1263.65 L3567.47 1263.16 L3582.69 1262.78 L3597.91 1262.29 L3613.13 1261.79 L3628.35 1261.30 L3643.57 1260.93 L3658.79 1260.43 L3674.01 1259.94 L3689.24 1259.57 L3704.46 1259.07 L3719.68 1258.58 L3734.90 1258.21 L3750.12 1257.71 L3765.34 1257.34 L3780.56 1256.84 L3795.66 1256.47 L3795.66 1125.29 L3780.56 1125.79 L3765.34 1126.28 L3750.12 1126.78 L3734.90 1127.27 L3719.68 1127.77 L3704.46 1128.14 L3689.24 1128.64 L3674.01 1129.13 L3658.79 1129.75 L3643.57 1130.24 L3628.35 1130.74 L3613.13 1131.23 L3597.91 1131.73 L3582.69 1132.22 L3567.47 1132.72 L3552.24 1133.34 L3537.02 1133.83 L3521.80 1134.33 L3506.58 1134.95 L3491.36 1135.44 L3476.14 1136.06 L3460.92 1136.56 L3445.70 1137.17 L3430.47 1137.79 L3415.38 1138.29 L3400.16 1138.91 L3384.93 1139.53 L3369.71 1140.14 L3354.49 1140.76 L3339.27 1141.38 L3324.05 1142.00 L3308.83 1142.62 L3293.61 1143.24 L3278.39 1143.98 L3263.16 1144.60 L3247.94 1145.22 L3232.72 1145.96 L3217.50 1146.70 L3202.28 1147.32 L3187.06 1148.06 L3171.84 1148.81 L3156.61 1149.55 L3141.39 1150.42 L3126.17 1151.16 L3110.95 1151.90 L3095.73 1152.77 L3080.51 1153.51 L3065.41 1154.38 L3050.19 1155.24 L3034.97 1156.11 L3019.75 1156.97 L3004.53 1157.96 L2989.30 1158.83 L2974.08 1159.82 L2958.86 1160.81 L2943.64 1161.80 L2928.42 1162.79 L2913.20 1163.78 L2897.98 1164.90 L2882.76 1165.89 L2867.53 1167.00 L2852.31 1168.11 L2837.09 1169.35 L2821.87 1170.46 L2806.65 1171.70 L2791.43 1172.94 L2776.21 1174.18 L2760.99 1175.41 L2745.76 1176.78 L2730.54 1178.14 L2715.32 1179.50 L2700.22 1180.98 L2685.00 1182.34 L2669.78 1183.95 L2654.56 1185.44 L2639.34 1186.92 L2624.12 1188.53 L2608.90 1190.26 L2593.68 1191.87 L2578.45 1193.61 L2563.23 1195.46 L2548.01 1197.19 L2532.79 1199.05 L2517.57 1201.03 L2502.35 1203.01 L2487.13 1204.99 L2471.91 1207.10 L2456.68 1209.20 L2441.46 1211.30 L2426.24 1213.53 L2411.02 1215.88 L2395.80 1218.23 L2380.58 1220.58 L2365.36 1223.06 L2350.14 1225.66 L2335.04 1228.26 L2319.82 1230.98 L2304.60 1233.70 L2289.38 1236.55 L2274.15 1239.52 L2258.93 1242.49 L2243.71 1245.58 L2228.49 1248.68 L2213.27 1251.89 L2198.05 1255.24 L2182.83 1258.70 L2167.61 1262.17 L2152.38 1265.75 L2137.16 1269.47 L2121.94 1273.30 L2106.72 1277.26 L2091.50 1281.22 L2076.28 1285.43 L2061.06 1289.64 L2045.84 1294.09 L2030.61 1298.55 L2015.39 1303.13 L2000.17 1307.95 L1984.95 1312.78 L1969.85 1317.85 L1954.63 1323.05 L1939.41 1328.37 L1924.19 1333.82 L1908.97 1339.39 L1893.75 1345.20 L1878.53 1351.14 L1863.30 1357.21 L1848.08 1363.52 L1832.86 1369.96 L1817.64 1376.51 L1802.42 1383.44 L1787.20 1390.37 L1771.98 1397.68 L1756.76 1405.10 L1741.53 1412.65 L1726.31 1420.45 L1711.09 1428.61 L1695.87 1436.91 L1680.65 1445.32 L1665.43 1454.11 L1650.21 1463.14 L1634.98 1472.42 L1619.76 1481.95 L1604.67 1491.61 L1589.44 1501.75 L1574.22 1512.02 L1559.00 1522.67 L1543.78 1533.56 L1528.56 1544.70 L1513.34 1556.20 L1498.12 1567.96 L1482.90 1580.09 L1467.67 1592.59 L1452.45 1605.34 L1437.23 1618.45 L1422.01 1631.82 L1406.79 1645.68 L1391.57 1659.79 L1376.35 1674.27 L1361.13 1689.12 L1345.90 1704.34 L1330.68 1719.93 L1315.46 1735.90 L1300.24 1752.23 L1285.02 1768.94 L1269.80 1786.02 L1254.70 1803.34 L1239.48 1821.16 L1224.26 1839.35 L1209.04 1857.92 L1193.82 1876.73 L1178.60 1895.91 L1163.37 1915.46 L1148.15 1935.26 L1132.93 1955.31 L1117.71 1975.73 L1102.49 1996.15 L1087.27 2016.82 L1072.05 2037.61 L1056.83 2058.52 L1041.60 2079.44 L1026.38 2100.23 L1011.16 2121.02 L995.94 2141.68 L980.72 2162.23 L965.50 2182.40 L950.28 2202.32 L935.05 2221.75 L919.83 2240.81 L904.61 2259.25 L889.51 2277.07 L874.29 2294.15 L859.07 2310.48 L843.85 2325.95 L828.63 2340.56 L813.41 2354.05 L798.19 2366.42 L782.97 2377.68 L767.75 2387.71 L752.52 2396.49 L737.30 2404.04 L722.08 2410.23 L706.86 2415.30 L691.64 2419.14 L676.42 2421.99 L661.20 2423.84 L645.98 2425.08 L630.75 2425.58 L615.53 2425.82 L600.31 2425.82 L600.31 2425.82 Z" stroke-linejoin="round"/>
	</defs>
	<defs>
		<clipPath id="clipPath_TtUmAvrJ">
			<use xlink:href="#path_cAlwjlaj"/>
		</clipPath>
	</defs>
	<use xlink:href="#path_cAlwjlaj" style="stroke:none;fill:#3333FF;fill-opacity:0.25"/>
	<use xlink:href="#path_cAlwjlaj" style="fill:none;stroke:#0000FF;stroke-opacity:0.25;stroke-width:17.28" clip-path="url(#clipPath_TtUmAvrJ)"/>
	<defs>
		<path id="path_rPsZcWuM" d="M600.31 2425.82 L600.31 2425.82 L615.53 2425.82 L630.75 2425.70 L645.98 2425.45 L661.20 2424.71 L676.42 2423.47 L691.64 2421.37 L706.86 2418.52 L722.08 2414.44 L737.30 2409.36 L752.52 2402.93 L767.75 2395.38 L782.97 2386.47 L798.19 2376.32 L813.41 2364.94 L828.63 2352.31 L843.85 2338.58 L859.07 2323.85 L874.29 2308.01 L889.51 2291.43 L904.61 2273.85 L919.83 2255.66 L935.05 2236.85 L950.28 2217.30 L965.50 2197.37 L980.72 2177.08 L995.94 2156.41 L1011.16 2135.50 L1026.38 2114.33 L1041.60 2093.17 L1056.83 2071.89 L1072.05 2050.60 L1087.27 2029.32 L1102.49 2008.15 L1117.71 1987.24 L1132.93 1966.33 L1148.15 1945.78 L1163.37 1925.49 L1178.60 1905.44 L1193.82 1885.76 L1209.04 1866.46 L1224.26 1847.40 L1239.48 1828.83 L1254.70 1810.52 L1269.80 1792.70 L1285.02 1775.25 L1300.24 1758.05 L1315.46 1741.34 L1330.68 1725.01 L1345.90 1709.04 L1361.13 1693.57 L1376.35 1678.35 L1391.57 1663.50 L1406.79 1649.14 L1422.01 1635.04 L1437.23 1621.30 L1452.45 1607.93 L1467.67 1594.82 L1482.90 1582.19 L1498.12 1569.82 L1513.34 1557.81 L1528.56 1546.06 L1543.78 1534.67 L1559.00 1523.53 L1574.22 1512.77 L1589.44 1502.25 L1604.67 1492.10 L1619.76 1482.08 L1634.98 1472.42 L1650.21 1463.02 L1665.43 1453.86 L1680.65 1444.95 L1695.87 1436.29 L1711.09 1427.87 L1726.31 1419.70 L1741.53 1411.66 L1756.76 1403.99 L1771.98 1396.44 L1787.20 1389.14 L1802.42 1381.96 L1817.64 1375.03 L1832.86 1368.35 L1848.08 1361.79 L1863.30 1355.35 L1878.53 1349.16 L1893.75 1343.10 L1908.97 1337.28 L1924.19 1331.59 L1939.41 1326.02 L1954.63 1320.58 L1969.85 1315.38 L1984.95 1310.31 L2000.17 1305.36 L2015.39 1300.53 L2030.61 1295.83 L2045.84 1291.25 L2061.06 1286.79 L2076.28 1282.46 L2091.50 1278.25 L2106.72 1274.17 L2121.94 1270.09 L2137.16 1266.25 L2152.38 1262.54 L2167.61 1258.82 L2182.83 1255.24 L2198.05 1251.77 L2213.27 1248.43 L2228.49 1245.09 L2243.71 1241.87 L2258.93 1238.78 L2274.15 1235.68 L2289.38 1232.71 L2304.60 1229.87 L2319.82 1227.02 L2335.04 1224.30 L2350.14 1221.70 L2365.36 1219.10 L2380.58 1216.50 L2395.80 1214.15 L2411.02 1211.67 L2426.24 1209.32 L2441.46 1207.10 L2456.68 1204.87 L2471.91 1202.76 L2487.13 1200.66 L2502.35 1198.56 L2517.57 1196.58 L2532.79 1194.60 L2548.01 1192.74 L2563.23 1190.88 L2578.45 1189.03 L2593.68 1187.29 L2608.90 1185.56 L2624.12 1183.83 L2639.34 1182.22 L2654.56 1180.61 L2669.78 1179.13 L2685.00 1177.52 L2700.22 1176.03 L2715.32 1174.67 L2730.54 1173.19 L2745.76 1171.83 L2760.99 1170.46 L2776.21 1169.10 L2791.43 1167.87 L2806.65 1166.63 L2821.87 1165.39 L2837.09 1164.15 L2852.31 1163.04 L2867.53 1161.80 L2882.76 1160.69 L2897.98 1159.70 L2913.20 1158.58 L2928.42 1157.47 L2943.64 1156.48 L2958.86 1155.49 L2974.08 1154.50 L2989.30 1153.51 L3004.53 1152.52 L3019.75 1151.65 L3034.97 1150.79 L3050.19 1149.80 L3065.41 1148.93 L3080.51 1148.06 L3095.73 1147.32 L3110.95 1146.46 L3126.17 1145.59 L3141.39 1144.85 L3156.61 1144.10 L3171.84 1143.36 L3187.06 1142.50 L3202.28 1141.75 L3217.50 1141.13 L3232.72 1140.39 L3247.94 1139.65 L3263.16 1139.03 L3278.39 1138.29 L3293.61 1137.67 L3308.83 1136.93 L3324.05 1136.31 L3339.27 1135.69 L3354.49 1135.07 L3369.71 1134.45 L3384.93 1133.83 L3400.16 1133.21 L3415.38 1132.60 L3430.47 1131.98 L3445.70 1131.48 L3460.92 1130.86 L3476.14 1130.24 L3491.36 1129.75 L3506.58 1129.13 L3521.80 1128.64 L3537.02 1128.02 L3552.24 1127.52 L3567.47 1127.03 L3582.69 1126.41 L3597.91 1125.91 L3613.13 1125.42 L3628.35 1124.92 L3643.57 1124.43 L3658.79 1123.93 L3674.01 1123.44 L3689.24 1122.82 L3704.46 1122.32 L3719.68 1121.83 L3734.90 1121.46 L3750.12 1120.96 L3765.34 1120.47 L3780.56 1119.97 L3795.66 1119.48 L3795.66 586.35 L3780.56 586.96 L3765.34 587.71 L3750.12 588.33 L3734.90 589.07 L3719.68 589.69 L3704.46 590.43 L3689.24 591.17 L3674.01 591.79 L3658.79 592.53 L3643.57 593.28 L3628.35 594.02 L3613.13 594.64 L3597.91 595.38 L3582.69 596.12 L3567.47 596.86 L3552.24 597.61 L3537.02 598.35 L3521.80 599.22 L3506.58 599.96 L3491.36 600.70 L3476.14 601.44 L3460.92 602.31 L3445.70 603.05 L3430.47 603.92 L3415.38 604.79 L3400.16 605.53 L3384.93 606.39 L3369.71 607.26 L3354.49 608.13 L3339.27 608.99 L3324.05 609.98 L3308.83 610.85 L3293.61 611.72 L3278.39 612.71 L3263.16 613.70 L3247.94 614.69 L3232.72 615.55 L3217.50 616.67 L3202.28 617.66 L3187.06 618.65 L3171.84 619.76 L3156.61 620.75 L3141.39 621.86 L3126.17 622.98 L3110.95 624.09 L3095.73 625.20 L3080.51 626.44 L3065.41 627.68 L3050.19 628.79 L3034.97 630.03 L3019.75 631.39 L3004.53 632.63 L2989.30 633.99 L2974.08 635.35 L2958.86 636.71 L2943.64 638.07 L2928.42 639.56 L2913.20 641.05 L2897.98 642.53 L2882.76 644.02 L2867.53 645.62 L2852.31 647.23 L2837.09 648.84 L2821.87 650.57 L2806.65 652.31 L2791.43 654.04 L2776.21 655.77 L2760.99 657.63 L2745.76 659.48 L2730.54 661.46 L2715.32 663.44 L2700.22 665.42 L2685.00 667.53 L2669.78 669.63 L2654.56 671.86 L2639.34 674.09 L2624.12 676.31 L2608.90 678.67 L2593.68 681.02 L2578.45 683.49 L2563.23 686.09 L2548.01 688.69 L2532.79 691.29 L2517.57 694.01 L2502.35 696.86 L2487.13 699.70 L2471.91 702.67 L2456.68 705.64 L2441.46 708.74 L2426.24 711.96 L2411.02 715.17 L2395.80 718.51 L2380.58 721.98 L2365.36 725.45 L2350.14 729.16 L2335.04 732.87 L2319.82 736.58 L2304.60 740.54 L2289.38 744.63 L2274.15 748.71 L2258.93 752.92 L2243.71 757.37 L2228.49 761.83 L2213.27 766.41 L2198.05 771.11 L2182.83 776.06 L2167.61 781.01 L2152.38 786.21 L2137.16 791.41 L2121.94 796.85 L2106.72 802.42 L2091.50 808.11 L2076.28 814.05 L2061.06 820.12 L2045.84 826.30 L2030.61 832.74 L2015.39 839.30 L2000.17 846.11 L1984.95 853.04 L1969.85 860.09 L1954.63 867.51 L1939.41 875.06 L1924.19 882.74 L1908.97 890.78 L1893.75 898.95 L1878.53 907.36 L1863.30 916.03 L1848.08 925.06 L1832.86 934.22 L1817.64 943.62 L1802.42 953.28 L1787.20 963.30 L1771.98 973.57 L1756.76 984.09 L1741.53 994.86 L1726.31 1006.00 L1711.09 1017.50 L1695.87 1029.26 L1680.65 1041.39 L1665.43 1053.89 L1650.21 1066.63 L1634.98 1079.88 L1619.76 1093.37 L1604.67 1107.23 L1589.44 1121.58 L1574.22 1136.18 L1559.00 1151.28 L1543.78 1166.88 L1528.56 1182.72 L1513.34 1199.17 L1498.12 1215.88 L1482.90 1233.21 L1467.67 1250.90 L1452.45 1269.10 L1437.23 1287.78 L1422.01 1306.96 L1406.79 1326.52 L1391.57 1346.69 L1376.35 1367.36 L1361.13 1388.52 L1345.90 1410.30 L1330.68 1432.45 L1315.46 1455.22 L1300.24 1478.61 L1285.02 1502.37 L1269.80 1526.75 L1254.70 1551.63 L1239.48 1577.00 L1224.26 1602.98 L1209.04 1629.34 L1193.82 1656.32 L1178.60 1683.67 L1163.37 1711.52 L1148.15 1739.86 L1132.93 1768.44 L1117.71 1797.40 L1102.49 1826.61 L1087.27 1855.94 L1072.05 1885.51 L1056.83 1915.21 L1041.60 1944.79 L1026.38 1974.37 L1011.16 2003.82 L995.94 2033.03 L980.72 2061.99 L965.50 2090.45 L950.28 2118.42 L935.05 2145.77 L919.83 2172.38 L904.61 2198.12 L889.51 2222.99 L874.29 2246.75 L859.07 2269.40 L843.85 2290.68 L828.63 2310.61 L813.41 2329.17 L798.19 2346.00 L782.97 2361.35 L767.75 2374.96 L752.52 2386.72 L737.30 2396.86 L722.08 2405.28 L706.86 2411.96 L691.64 2417.16 L676.42 2420.87 L661.20 2423.35 L645.98 2424.83 L630.75 2425.58 L615.53 2425.82 L600.31 2425.82 L600.31 2425.82 Z" stroke-linejoin="round"/>
	</defs>
	<defs>
		<clipPath id="clipPath_QGgTFgKH">
			<use xlink:href="#path_rPsZcWuM"/>
		</clipPath>
	</defs>
	<use xlink:href="#path_rPsZcWuM" style="stroke:none;fill:#FF3333;fill-opacity:0.25"/>
	<use xlink:href="#path_rPsZcWuM" style="fill:none;stroke:#FF0000;stroke-opacity:0.25;stroke-width:17.28" clip-path="url(#clipPath_QGgTFgKH)"/>
	<path d=" M585.09 2425.95 L600.31 2425.95 L615.53 2425.82 L630.75 2425.70 L645.98 2425.33 L661.20 2424.59 L676.42 2423.10 L691.64 2421.00 L706.86 2417.90 L721.96 2413.70 L737.18 2408.50 L752.40 2402.19 L767.62 2394.64 L782.84 2385.85 L798.06 2375.95 L813.28 2364.94 L828.51 2352.81 L843.73 2339.57 L858.95 2325.46 L874.17 2310.48 L889.39 2294.64 L904.61 2278.06 L919.83 2260.86 L935.05 2243.04 L950.28 2224.60 L965.50 2205.91 L980.72 2186.73 L995.94 2167.30 L1011.16 2147.62 L1026.38 2127.82 L1041.60 2107.90 L1056.83 2087.85 L1072.05 2067.93 L1087.14 2048.00 L1102.37 2028.20 L1117.59 2008.53 L1132.81 1988.97 L1148.03 1969.67 L1163.25 1950.61 L1178.47 1931.80 L1193.69 1913.36 L1208.91 1895.17 L1224.13 1877.35 L1239.36 1859.90 L1254.58 1842.70 L1269.80 1825.99 L1285.02 1809.53 L1300.24 1793.44 L1315.46 1777.85 L1330.68 1762.50 L1345.90 1747.53 L1361.13 1732.80 L1376.35 1718.57 L1391.57 1704.71 L1406.79 1691.10 L1422.01 1677.85 L1437.23 1664.98 L1452.33 1652.36 L1467.55 1640.11 L1482.77 1628.23 L1497.99 1616.60 L1513.21 1605.21 L1528.44 1594.20 L1543.66 1583.55 L1558.88 1573.04 L1574.10 1562.89 L1589.32 1552.99 L1604.54 1543.46 L1619.76 1534.05 L1634.98 1524.90 L1650.21 1516.11 L1665.43 1507.45 L1680.65 1499.03 L1695.87 1490.99 L1711.09 1482.94 L1726.31 1475.27 L1741.53 1467.84 L1756.76 1460.54 L1771.98 1453.37 L1787.20 1446.44 L1802.30 1439.75 L1817.52 1433.32 L1832.74 1426.88 L1847.96 1420.69 L1863.18 1414.75 L1878.40 1408.94 L1893.62 1403.25 L1908.84 1397.68 L1924.07 1392.35 L1939.29 1387.16 L1954.51 1382.08 L1969.73 1377.13 L1984.95 1372.31 L2000.17 1367.60 L2015.39 1363.03 L2030.61 1358.69 L2045.84 1354.36 L2061.06 1350.15 L2076.28 1346.07 L2091.50 1342.11 L2106.72 1338.27 L2121.94 1334.44 L2137.16 1330.85 L2152.38 1327.26 L2167.48 1323.80 L2182.70 1320.45 L2197.92 1317.24 L2213.14 1314.02 L2228.37 1310.92 L2243.59 1307.83 L2258.81 1304.98 L2274.03 1302.14 L2289.25 1299.29 L2304.47 1296.57 L2319.69 1293.97 L2334.91 1291.37 L2350.14 1288.90 L2365.36 1286.42 L2380.58 1284.07 L2395.80 1281.72 L2411.02 1279.49 L2426.24 1277.26 L2441.46 1275.16 L2456.68 1273.06 L2471.91 1271.08 L2487.13 1269.10 L2502.35 1267.12 L2517.57 1265.26 L2532.67 1263.40 L2547.89 1261.67 L2563.11 1259.81 L2578.33 1258.21 L2593.55 1256.47 L2608.77 1254.86 L2623.99 1253.26 L2639.22 1251.77 L2654.44 1250.29 L2669.66 1248.80 L2684.88 1247.32 L2700.10 1245.95 L2715.32 1244.59 L2730.54 1243.23 L2745.76 1241.99 L2760.99 1240.76 L2776.21 1239.52 L2791.43 1238.28 L2806.65 1237.04 L2821.87 1235.93 L2837.09 1234.82 L2852.31 1233.70 L2867.53 1232.59 L2882.76 1231.60 L2897.85 1230.48 L2913.07 1229.49 L2928.30 1228.50 L2943.52 1227.51 L2958.74 1226.65 L2973.96 1225.66 L2989.18 1224.79 L3004.40 1223.93 L3019.62 1222.94 L3034.84 1222.19 L3050.07 1221.33 L3065.29 1220.46 L3080.51 1219.72 L3095.73 1218.85 L3110.95 1218.11 L3126.17 1217.37 L3141.39 1216.62 L3156.61 1215.88 L3171.84 1215.14 L3187.06 1214.40 L3202.28 1213.78 L3217.50 1213.04 L3232.72 1212.42 L3247.94 1211.67 L3263.04 1211.06 L3278.26 1210.44 L3293.48 1209.82 L3308.70 1209.20 L3323.93 1208.58 L3339.15 1207.96 L3354.37 1207.34 L3369.59 1206.72 L3384.81 1206.23 L3400.03 1205.61 L3415.25 1205.12 L3430.47 1204.50 L3445.70 1204.00 L3460.92 1203.38 L3476.14 1202.89 L3491.36 1202.39 L3506.58 1201.77 L3521.80 1201.28 L3537.02 1200.78 L3552.24 1200.29 L3567.47 1199.79 L3582.69 1199.30 L3597.91 1198.80 L3613.01 1198.31 L3628.23 1197.81 L3643.45 1197.32 L3658.67 1196.82 L3673.89 1196.33 L3689.11 1195.96 L3704.33 1195.46 L3719.55 1194.97 L3734.78 1194.47 L3750.00 1194.10 L3765.22 1193.61 L3780.44 1193.11 L3795.66 1192.62" stroke-linejoin="round" style="fill:none;stroke:#0000FF;stroke-width:8.64"/>
	<path d=" M585.09 2425.95 L600.31 2425.95 L615.53 2425.82 L630.75 2425.70 L645.98 2425.20 L661.20 2424.21 L676.42 2422.48 L691.64 2419.64 L706.86 2415.80 L721.96 2410.60 L737.18 2404.04 L752.40 2396.00 L767.62 2386.47 L782.84 2375.46 L798.06 2363.08 L813.28 2349.10 L828.51 2333.87 L843.73 2317.29 L858.95 2299.59 L874.17 2280.66 L889.39 2260.74 L904.61 2239.94 L919.83 2218.16 L935.05 2195.76 L950.28 2172.75 L965.50 2149.11 L980.72 2124.98 L995.94 2100.60 L1011.16 2075.85 L1026.38 2050.97 L1041.60 2025.85 L1056.83 2000.73 L1072.05 1975.61 L1087.14 1950.48 L1102.37 1925.61 L1117.59 1900.86 L1132.81 1876.36 L1148.03 1851.98 L1163.25 1828.09 L1178.47 1804.46 L1193.69 1781.19 L1208.91 1758.42 L1224.13 1736.02 L1239.36 1713.99 L1254.58 1692.46 L1269.80 1671.42 L1285.02 1650.75 L1300.24 1630.58 L1315.46 1610.78 L1330.68 1591.60 L1345.90 1572.79 L1361.13 1554.35 L1376.35 1536.40 L1391.57 1518.95 L1406.79 1501.88 L1422.01 1485.17 L1437.23 1468.96 L1452.33 1453.24 L1467.55 1437.77 L1482.77 1422.80 L1497.99 1408.20 L1513.21 1393.96 L1528.44 1380.10 L1543.66 1366.61 L1558.88 1353.50 L1574.10 1340.75 L1589.32 1328.37 L1604.54 1316.25 L1619.76 1304.49 L1634.98 1293.10 L1650.21 1281.97 L1665.43 1271.08 L1680.65 1260.56 L1695.87 1250.29 L1711.09 1240.39 L1726.31 1230.73 L1741.53 1221.33 L1756.76 1212.05 L1771.98 1203.14 L1787.20 1194.47 L1802.30 1186.06 L1817.52 1177.89 L1832.74 1169.97 L1847.96 1162.17 L1863.18 1154.62 L1878.40 1147.32 L1893.62 1140.14 L1908.84 1133.21 L1924.07 1126.53 L1939.29 1119.97 L1954.51 1113.54 L1969.73 1107.35 L1984.95 1101.29 L2000.17 1095.47 L2015.39 1089.65 L2030.61 1084.08 L2045.84 1078.76 L2061.06 1073.44 L2076.28 1068.37 L2091.50 1063.42 L2106.72 1058.59 L2121.94 1053.76 L2137.16 1049.19 L2152.38 1044.73 L2167.48 1040.40 L2182.70 1036.19 L2197.92 1032.11 L2213.14 1028.15 L2228.37 1024.19 L2243.59 1020.35 L2258.81 1016.76 L2274.03 1013.17 L2289.25 1009.58 L2304.47 1006.24 L2319.69 1002.90 L2334.91 999.68 L2350.14 996.47 L2365.36 993.50 L2380.58 990.40 L2395.80 987.56 L2411.02 984.71 L2426.24 981.99 L2441.46 979.26 L2456.68 976.67 L2471.91 974.07 L2487.13 971.59 L2502.35 969.24 L2517.57 966.77 L2532.67 964.54 L2547.89 962.31 L2563.11 960.08 L2578.33 957.98 L2593.55 955.87 L2608.77 953.77 L2623.99 951.79 L2639.22 949.93 L2654.44 948.08 L2669.66 946.22 L2684.88 944.37 L2700.10 942.63 L2715.32 940.90 L2730.54 939.29 L2745.76 937.68 L2760.99 936.07 L2776.21 934.47 L2791.43 932.98 L2806.65 931.50 L2821.87 930.01 L2837.09 928.65 L2852.31 927.16 L2867.53 925.80 L2882.76 924.57 L2897.85 923.20 L2913.07 921.97 L2928.30 920.73 L2943.52 919.49 L2958.74 918.25 L2973.96 917.14 L2989.18 916.03 L3004.40 914.91 L3019.62 913.80 L3034.84 912.68 L3050.07 911.69 L3065.29 910.58 L3080.51 909.59 L3095.73 908.60 L3110.95 907.61 L3126.17 906.74 L3141.39 905.75 L3156.61 904.76 L3171.84 903.90 L3187.06 903.03 L3202.28 902.17 L3217.50 901.30 L3232.72 900.43 L3247.94 899.57 L3263.04 898.82 L3278.26 897.96 L3293.48 897.22 L3308.70 896.47 L3323.93 895.61 L3339.15 894.86 L3354.37 894.12 L3369.59 893.38 L3384.81 892.64 L3400.03 892.02 L3415.25 891.28 L3430.47 890.53 L3445.70 889.91 L3460.92 889.17 L3476.14 888.55 L3491.36 887.81 L3506.58 887.19 L3521.80 886.57 L3537.02 885.95 L3552.24 885.21 L3567.47 884.59 L3582.69 883.97 L3597.91 883.36 L3613.01 882.74 L3628.23 882.12 L3643.45 881.50 L3658.67 881.00 L3673.89 880.39 L3689.11 879.77 L3704.33 879.15 L3719.55 878.53 L3734.78 878.03 L3750.00 877.41 L3765.22 876.80 L3780.44 876.30 L3795.66 875.68" stroke-linejoin="round" style="fill:none;stroke:#FF0000;stroke-width:8.64"/>
	<line x1="521.73" y1="2489.19" x2="521.73" y2="100.86" style="stroke:#000000;stroke-width:5.76"/>
	<line x1="521.73" y1="2425.82" x2="481.76" y2="2425.82" style="stroke:#000000;stroke-width:5.76"/>
	<text x="461.83" y="2460.85" style="font-family:'Helvetica';font-size:99.99px;fill:#000000" text-anchor="end">0.00</text>
	<line x1="521.73" y1="1973.50" x2="481.76" y2="1973.50" style="stroke:#000000;stroke-width:5.76"/>
	<text x="461.83" y="2008.53" style="font-family:'Helvetica';font-size:99.99px;fill:#000000" text-anchor="end">0.10</text>
	<line x1="521.73" y1="1521.18" x2="481.76" y2="1521.18" style="stroke:#000000;stroke-width:5.76"/>
	<text x="461.83" y="1556.21" style="font-family:'Helvetica';font-size:99.99px;fill:#000000" text-anchor="end">0.20</text>
	<line x1="521.73" y1="1068.86" x2="481.76" y2="1068.86" style="stroke:#000000;stroke-width:5.76"/>
	<text x="461.83" y="1103.89" style="font-family:'Helvetica';font-size:99.99px;fill:#000000" text-anchor="end">0.30</text>
	<line x1="521.73" y1="616.54" x2="481.76" y2="616.54" style="stroke:#000000;stroke-width:5.76"/>
	<text x="461.83" y="651.57" style="font-family:'Helvetica';font-size:99.99px;fill:#000000" text-anchor="end">0.40</text>
	<line x1="521.73" y1="164.22" x2="481.76" y2="164.22" style="stroke:#000000;stroke-width:5.76"/>
	<text x="461.83" y="199.25" style="font-family:'Helvetica';font-size:99.99px;fill:#000000" text-anchor="end">0.50</text>
	<text x="190.71" y="1294.96" style="font-family:'Helvetica';font-size:99.99px;fill:#000000" transform="rotate(-90 190.71,1294.96)" text-anchor="middle">Cumulative incidence (%)</text>
	<line x1="521.73" y1="2489.19" x2="3859.02" y2="2489.19" style="stroke:#000000;stroke-width:5.76"/>
	<line x1="585.09" y1="2489.19" x2="585.09" y2="2529.16" style="stroke:#000000;stroke-width:5.76"/>
	<text x="585.09" y="2619.14" style="font-family:'Helvetica';font-size:99.99px;fill:#000000" text-anchor="middle">0</text>
	<line x1="1345.90" y1="2489.19" x2="1345.90" y2="2529.16" style="stroke:#000000;stroke-width:5.76"/>
	<text x="1345.90" y="2619.14" style="font-family:'Helvetica';font-size:99.99px;fill:#000000" text-anchor="middle">50</text>
	<line x1="2106.72" y1="2489.19" x2="2106.72" y2="2529.16" style="stroke:#000000;stroke-width:5.76"/>
	<text x="2106.72" y="2619.14" style="font-family:'Helvetica';font-size:99.99px;fill:#000000" text-anchor="middle">100</text>
	<line x1="2867.53" y1="2489.19" x2="2867.53" y2="2529.16" style="stroke:#000000;stroke-width:5.76"/>
	<text x="2867.53" y="2619.14" style="font-family:'Helvetica';font-size:99.99px;fill:#000000" text-anchor="middle">150</text>
	<line x1="3628.35" y1="2489.19" x2="3628.35" y2="2529.16" style="stroke:#000000;stroke-width:5.76"/>
	<text x="3628.35" y="2619.14" style="font-family:'Helvetica';font-size:99.99px;fill:#000000" text-anchor="middle">200</text>
	<text x="2190.38" y="2729.16" style="font-family:'Helvetica';font-size:99.99px;fill:#000000" text-anchor="middle">Days from 1 March 2020</text>
	<rect x="1933.59" y="2128.20" width="1890.90" height="326.46" style="fill:#FFFFFF"/>
	<rect x="1936.47" y="2131.08" width="1885.14" height="320.70" style="fill:none;stroke:#000000;stroke-width:5.76"/>
	<rect x="1976.78" y="2171.51" width="374.34" height="99.99" style="fill:#3333FF;fill-opacity:0.25"/>
	<rect x="1981.10" y="2175.83" width="365.70" height="91.35" style="fill:none;stroke:#0000FF;stroke-opacity:0.25;stroke-width:8.64"/>
	<rect x="1976.78" y="2311.47" width="374.34" height="99.99" style="fill:#FF3333;fill-opacity:0.25"/>
	<rect x="1981.10" y="2315.79" width="365.70" height="91.35" style="fill:none;stroke:#FF0000;stroke-opacity:0.25;stroke-width:8.64"/>
	<text x="2411.14" y="2256.53" style="font-family:'Helvetica';font-size:99.99px;fill:#000000">Non-current anticoagulant use</text>
	<text x="2411.14" y="2396.50" style="font-family:'Helvetica';font-size:99.99px;fill:#000000">Current anticoagulant use</text>
</svg>
