<?xml version="1.0" encoding="UTF-8" standalone="no"?>
<!-- This is a Stata 16.1 generated SVG file (http://www.stata.com) -->

<svg version="1.1" width="5.50in" height="4.00in" viewBox="0 0 3960 2880" xmlns="http://www.w3.org/2000/svg" xmlns:xlink="http://www.w3.org/1999/xlink">
	<desc>Stata Graph - Graph</desc>
	<rect x="0" y="0" width="3960" height="2880" style="fill:#EAF2F3;stroke:none"/>
	<rect x="0.00" y="0.00" width="3959.88" height="2880.00" style="fill:#EAF2F3"/>
	<rect x="2.88" y="2.88" width="3954.12" height="2874.24" style="fill:none;stroke:#EAF2F3;stroke-width:5.76"/>
	<rect x="578.53" y="100.86" width="3280.49" height="2388.33" style="fill:#FFFFFF"/>
	<rect x="581.41" y="103.74" width="3274.73" height="2382.57" style="fill:none;stroke:#FFFFFF;stroke-width:5.76"/>
	<line x1="578.53" y1="2425.82" x2="3859.02" y2="2425.82" style="stroke:#EAF2F3;stroke-width:8.64"/>
	<line x1="578.53" y1="2312.71" x2="3859.02" y2="2312.71" style="stroke:#EAF2F3;stroke-width:8.64"/>
	<line x1="578.53" y1="2199.72" x2="3859.02" y2="2199.72" style="stroke:#EAF2F3;stroke-width:8.64"/>
	<line x1="578.53" y1="2086.61" x2="3859.02" y2="2086.61" style="stroke:#EAF2F3;stroke-width:8.64"/>
	<line x1="578.53" y1="1973.50" x2="3859.02" y2="1973.50" style="stroke:#EAF2F3;stroke-width:8.64"/>
	<line x1="578.53" y1="1860.39" x2="3859.02" y2="1860.39" style="stroke:#EAF2F3;stroke-width:8.64"/>
	<line x1="578.53" y1="1747.28" x2="3859.02" y2="1747.28" style="stroke:#EAF2F3;stroke-width:8.64"/>
	<line x1="578.53" y1="1634.29" x2="3859.02" y2="1634.29" style="stroke:#EAF2F3;stroke-width:8.64"/>
	<line x1="578.53" y1="1521.18" x2="3859.02" y2="1521.18" style="stroke:#EAF2F3;stroke-width:8.64"/>
	<line x1="578.53" y1="1408.07" x2="3859.02" y2="1408.07" style="stroke:#EAF2F3;stroke-width:8.64"/>
	<line x1="578.53" y1="1294.96" x2="3859.02" y2="1294.96" style="stroke:#EAF2F3;stroke-width:8.64"/>
	<line x1="578.53" y1="1181.97" x2="3859.02" y2="1181.97" style="stroke:#EAF2F3;stroke-width:8.64"/>
	<line x1="578.53" y1="1068.86" x2="3859.02" y2="1068.86" style="stroke:#EAF2F3;stroke-width:8.64"/>
	<line x1="578.53" y1="955.75" x2="3859.02" y2="955.75" style="stroke:#EAF2F3;stroke-width:8.64"/>
	<line x1="578.53" y1="842.64" x2="3859.02" y2="842.64" style="stroke:#EAF2F3;stroke-width:8.64"/>
	<line x1="578.53" y1="729.53" x2="3859.02" y2="729.53" style="stroke:#EAF2F3;stroke-width:8.64"/>
	<line x1="578.53" y1="616.54" x2="3859.02" y2="616.54" style="stroke:#EAF2F3;stroke-width:8.64"/>
	<line x1="578.53" y1="503.43" x2="3859.02" y2="503.43" style="stroke:#EAF2F3;stroke-width:8.64"/>
	<line x1="578.53" y1="390.32" x2="3859.02" y2="390.32" style="stroke:#EAF2F3;stroke-width:8.64"/>
	<line x1="578.53" y1="277.21" x2="3859.02" y2="277.21" style="stroke:#EAF2F3;stroke-width:8.64"/>
	<defs>
		<path id="path_mCXVIzia" d="M656.74 2425.82 L656.74 2425.82 L671.72 2425.82 L686.69 2425.82 L701.66 2425.82 L716.51 2425.70 L731.49 2425.58 L746.46 2425.45 L761.43 2425.20 L776.41 2424.96 L791.26 2424.59 L806.23 2424.09 L821.21 2423.60 L836.18 2423.10 L851.15 2422.48 L866.00 2421.74 L880.98 2420.87 L895.95 2420.01 L910.92 2418.89 L925.77 2417.90 L940.75 2416.67 L955.72 2415.30 L970.70 2413.94 L985.67 2412.46 L1000.52 2410.85 L1015.49 2409.12 L1030.47 2407.38 L1045.44 2405.53 L1060.41 2403.42 L1075.26 2401.32 L1090.24 2399.22 L1105.21 2396.86 L1120.18 2394.39 L1135.04 2391.91 L1150.01 2389.32 L1164.98 2386.59 L1179.96 2383.75 L1194.93 2380.78 L1209.78 2377.81 L1224.75 2374.71 L1239.73 2371.50 L1254.70 2368.15 L1269.67 2364.69 L1284.53 2361.22 L1299.50 2357.63 L1314.47 2353.92 L1329.45 2350.09 L1344.30 2346.13 L1359.27 2342.17 L1374.24 2338.08 L1389.22 2333.87 L1404.19 2329.67 L1419.04 2325.21 L1434.02 2320.76 L1448.99 2316.30 L1463.96 2311.60 L1478.94 2306.90 L1493.79 2302.07 L1508.76 2297.24 L1523.73 2292.29 L1538.71 2287.22 L1553.68 2282.02 L1568.53 2276.82 L1583.51 2271.50 L1598.48 2266.06 L1613.45 2260.61 L1628.30 2255.17 L1643.28 2249.47 L1658.25 2243.78 L1673.22 2237.96 L1688.20 2232.15 L1703.05 2226.21 L1718.02 2220.27 L1732.99 2214.20 L1747.97 2208.02 L1762.94 2201.83 L1777.79 2195.52 L1792.77 2189.21 L1807.74 2182.77 L1822.71 2176.21 L1837.56 2169.65 L1852.54 2163.09 L1867.51 2156.41 L1882.48 2149.60 L1897.46 2142.80 L1912.31 2135.87 L1927.28 2128.94 L1942.26 2122.01 L1957.23 2114.95 L1972.20 2107.78 L1987.05 2100.60 L2002.03 2093.30 L2017.00 2086.00 L2031.97 2078.69 L2046.83 2071.27 L2061.80 2063.84 L2076.77 2056.29 L2091.75 2048.75 L2106.72 2041.07 L2121.57 2033.40 L2136.54 2025.73 L2151.52 2017.93 L2166.49 2010.13 L2181.47 2002.21 L2196.32 1994.29 L2211.29 1986.37 L2226.26 1978.33 L2241.24 1970.29 L2256.09 1962.12 L2271.06 1954.07 L2286.03 1945.78 L2301.01 1937.61 L2315.98 1929.32 L2330.83 1921.03 L2345.80 1912.74 L2360.78 1904.32 L2375.75 1895.91 L2390.73 1887.49 L2405.58 1879.08 L2420.55 1870.54 L2435.52 1862.00 L2450.50 1853.46 L2465.35 1844.92 L2480.32 1836.26 L2495.30 1827.60 L2510.27 1818.93 L2525.24 1810.27 L2540.09 1801.61 L2555.07 1792.82 L2570.04 1784.04 L2585.01 1775.37 L2599.99 1766.59 L2614.84 1757.68 L2629.81 1748.89 L2644.78 1740.10 L2659.76 1731.19 L2674.73 1722.28 L2689.58 1713.50 L2704.56 1704.59 L2719.53 1695.68 L2734.50 1686.77 L2749.35 1677.85 L2764.33 1668.82 L2779.30 1659.91 L2794.28 1651.00 L2809.25 1641.97 L2824.10 1633.06 L2839.07 1624.02 L2854.05 1615.11 L2869.02 1606.08 L2883.99 1597.04 L2898.84 1588.13 L2913.82 1579.10 L2928.79 1570.07 L2943.76 1561.16 L2958.61 1552.12 L2973.59 1543.09 L2988.56 1534.18 L3003.54 1525.14 L3018.51 1516.11 L3033.36 1507.20 L3048.33 1498.16 L3063.31 1489.13 L3078.28 1480.22 L3093.26 1471.19 L3108.11 1462.28 L3123.08 1453.24 L3138.05 1444.33 L3153.03 1435.42 L3167.88 1426.39 L3182.85 1417.48 L3197.82 1408.44 L3212.80 1399.53 L3227.77 1390.62 L3242.62 1381.59 L3257.59 1372.68 L3272.57 1363.77 L3287.54 1354.73 L3302.52 1345.82 L3317.37 1336.91 L3332.34 1328.00 L3347.31 1318.97 L3362.29 1310.06 L3377.14 1301.15 L3392.11 1292.11 L3407.09 1283.20 L3422.06 1274.17 L3437.03 1265.26 L3451.88 1256.35 L3466.86 1247.32 L3481.83 1238.40 L3496.80 1229.37 L3511.78 1220.46 L3526.63 1211.43 L3541.60 1202.52 L3556.57 1193.48 L3571.55 1184.45 L3586.40 1175.54 L3601.37 1166.50 L3616.35 1157.47 L3631.32 1148.44 L3646.29 1139.40 L3661.14 1130.37 L3676.12 1121.33 L3691.09 1112.30 L3706.07 1103.27 L3721.04 1094.23 L3735.89 1085.20 L3750.86 1076.04 L3765.84 1067.01 L3780.81 1057.85 L3795.78 1048.81 L3795.78 1028.39 L3780.81 1037.68 L3765.84 1046.96 L3750.86 1056.12 L3735.89 1065.27 L3721.04 1074.55 L3706.07 1083.71 L3691.09 1092.87 L3676.12 1102.03 L3661.14 1111.19 L3646.29 1120.22 L3631.32 1129.38 L3616.35 1138.54 L3601.37 1147.57 L3586.40 1156.73 L3571.55 1165.76 L3556.57 1174.80 L3541.60 1183.95 L3526.63 1192.99 L3511.78 1202.02 L3496.80 1211.06 L3481.83 1220.09 L3466.86 1229.12 L3451.88 1238.16 L3437.03 1247.19 L3422.06 1256.23 L3407.09 1265.26 L3392.11 1274.29 L3377.14 1283.20 L3362.29 1292.24 L3347.31 1301.27 L3332.34 1310.31 L3317.37 1319.34 L3302.52 1328.25 L3287.54 1337.28 L3272.57 1346.32 L3257.59 1355.35 L3242.62 1364.39 L3227.77 1373.30 L3212.80 1382.33 L3197.82 1391.36 L3182.85 1400.40 L3167.88 1409.43 L3153.03 1418.47 L3138.05 1427.50 L3123.08 1436.53 L3108.11 1445.57 L3093.26 1454.60 L3078.28 1463.64 L3063.31 1472.67 L3048.33 1481.71 L3033.36 1490.86 L3018.51 1499.90 L3003.54 1509.05 L2988.56 1518.09 L2973.59 1527.12 L2958.61 1536.28 L2943.76 1545.31 L2928.79 1554.47 L2913.82 1563.51 L2898.84 1572.66 L2883.99 1581.70 L2869.02 1590.86 L2854.05 1599.89 L2839.07 1609.05 L2824.10 1618.08 L2809.25 1627.24 L2794.28 1636.27 L2779.30 1645.31 L2764.33 1654.34 L2749.35 1663.38 L2734.50 1672.41 L2719.53 1681.44 L2704.56 1690.48 L2689.58 1699.51 L2674.73 1708.55 L2659.76 1717.46 L2644.78 1726.49 L2629.81 1735.40 L2614.84 1744.31 L2599.99 1753.22 L2585.01 1762.13 L2570.04 1771.04 L2555.07 1779.83 L2540.09 1788.74 L2525.24 1797.52 L2510.27 1806.31 L2495.30 1815.10 L2480.32 1823.76 L2465.35 1832.55 L2450.50 1841.21 L2435.52 1849.87 L2420.55 1858.41 L2405.58 1867.07 L2390.73 1875.61 L2375.75 1884.15 L2360.78 1892.57 L2345.80 1901.11 L2330.83 1909.52 L2315.98 1917.81 L2301.01 1926.23 L2286.03 1934.52 L2271.06 1942.81 L2256.09 1950.98 L2241.24 1959.27 L2226.26 1967.32 L2211.29 1975.48 L2196.32 1983.53 L2181.47 1991.57 L2166.49 1999.49 L2151.52 2007.41 L2136.54 2015.33 L2121.57 2023.13 L2106.72 2030.92 L2091.75 2038.60 L2076.77 2046.27 L2061.80 2053.94 L2046.83 2061.49 L2031.97 2069.04 L2017.00 2076.47 L2002.03 2083.89 L1987.05 2091.19 L1972.20 2098.49 L1957.23 2105.80 L1942.26 2112.97 L1927.28 2120.15 L1912.31 2127.21 L1897.46 2134.14 L1882.48 2141.07 L1867.51 2148.00 L1852.54 2154.80 L1837.56 2161.49 L1822.71 2168.29 L1807.74 2174.85 L1792.77 2181.41 L1777.79 2187.84 L1762.94 2194.28 L1747.97 2200.59 L1732.99 2206.90 L1718.02 2213.09 L1703.05 2219.28 L1688.20 2225.34 L1673.22 2231.28 L1658.25 2237.22 L1643.28 2243.04 L1628.30 2248.73 L1613.45 2254.42 L1598.48 2259.99 L1583.51 2265.56 L1568.53 2271.01 L1553.68 2276.33 L1538.71 2281.65 L1523.73 2286.85 L1508.76 2291.92 L1493.79 2296.87 L1478.94 2301.82 L1463.96 2306.65 L1448.99 2311.35 L1434.02 2316.05 L1419.04 2320.63 L1404.19 2325.09 L1389.22 2329.54 L1374.24 2333.75 L1359.27 2337.96 L1344.30 2342.04 L1329.45 2346.13 L1314.47 2349.96 L1299.50 2353.80 L1284.53 2357.51 L1269.67 2361.10 L1254.70 2364.69 L1239.73 2368.15 L1224.75 2371.37 L1209.78 2374.71 L1194.93 2377.81 L1179.96 2380.78 L1164.98 2383.75 L1150.01 2386.59 L1135.04 2389.32 L1120.18 2391.91 L1105.21 2394.39 L1090.24 2396.74 L1075.26 2399.09 L1060.41 2401.32 L1045.44 2403.42 L1030.47 2405.40 L1015.49 2407.38 L1000.52 2409.12 L985.67 2410.85 L970.70 2412.46 L955.72 2413.94 L940.75 2415.30 L925.77 2416.67 L910.92 2417.78 L895.95 2418.89 L880.98 2420.01 L866.00 2420.87 L851.15 2421.74 L836.18 2422.48 L821.21 2423.10 L806.23 2423.72 L791.26 2424.21 L776.41 2424.59 L761.43 2424.96 L746.46 2425.20 L731.49 2425.45 L716.51 2425.58 L701.66 2425.70 L686.69 2425.82 L671.72 2425.82 L656.74 2425.82 L656.74 2425.82 Z" stroke-linejoin="round"/>
	</defs>
	<defs>
		<clipPath id="clipPath_fdLbkjtx">
			<use xlink:href="#path_mCXVIzia"/>
		</clipPath>
	</defs>
	<use xlink:href="#path_mCXVIzia" style="stroke:none;fill:#3333FF;fill-opacity:0.25"/>
	<use xlink:href="#path_mCXVIzia" style="fill:none;stroke:#0000FF;stroke-opacity:0.25;stroke-width:17.28" clip-path="url(#clipPath_fdLbkjtx)"/>
	<defs>
		<path id="path_PyfdJEMA" d="M656.74 2425.82 L656.74 2425.82 L671.72 2425.82 L686.69 2425.82 L701.66 2425.70 L716.51 2425.70 L731.49 2425.45 L746.46 2425.20 L761.43 2424.96 L776.41 2424.59 L791.26 2424.09 L806.23 2423.60 L821.21 2422.98 L836.18 2422.11 L851.15 2421.24 L866.00 2420.25 L880.98 2419.26 L895.95 2418.03 L910.92 2416.67 L925.77 2415.18 L940.75 2413.57 L955.72 2411.84 L970.70 2409.98 L985.67 2408.00 L1000.52 2405.90 L1015.49 2403.67 L1030.47 2401.32 L1045.44 2398.72 L1060.41 2396.12 L1075.26 2393.40 L1090.24 2390.43 L1105.21 2387.34 L1120.18 2384.12 L1135.04 2380.78 L1150.01 2377.31 L1164.98 2373.72 L1179.96 2370.01 L1194.93 2366.17 L1209.78 2362.21 L1224.75 2358.01 L1239.73 2353.80 L1254.70 2349.47 L1269.67 2344.89 L1284.53 2340.31 L1299.50 2335.48 L1314.47 2330.66 L1329.45 2325.58 L1344.30 2320.51 L1359.27 2315.19 L1374.24 2309.87 L1389.22 2304.30 L1404.19 2298.73 L1419.04 2292.91 L1434.02 2287.10 L1448.99 2281.16 L1463.96 2274.97 L1478.94 2268.78 L1493.79 2262.47 L1508.76 2256.03 L1523.73 2249.60 L1538.71 2242.92 L1553.68 2236.11 L1568.53 2229.30 L1583.51 2222.37 L1598.48 2215.32 L1613.45 2208.14 L1628.30 2200.84 L1643.28 2193.41 L1658.25 2185.99 L1673.22 2178.44 L1688.20 2170.77 L1703.05 2162.97 L1718.02 2155.17 L1732.99 2147.25 L1747.97 2139.21 L1762.94 2131.04 L1777.79 2122.87 L1792.77 2114.46 L1807.74 2106.17 L1822.71 2097.63 L1837.56 2089.09 L1852.54 2080.43 L1867.51 2071.64 L1882.48 2062.85 L1897.46 2053.94 L1912.31 2045.03 L1927.28 2036.00 L1942.26 2026.84 L1957.23 2017.68 L1972.20 2008.40 L1987.05 1999.00 L2002.03 1989.59 L2017.00 1980.06 L2031.97 1970.53 L2046.83 1960.88 L2061.80 1951.23 L2076.77 1941.45 L2091.75 1931.67 L2106.72 1921.77 L2121.57 1911.75 L2136.54 1901.73 L2151.52 1891.70 L2166.49 1881.55 L2181.47 1871.28 L2196.32 1861.01 L2211.29 1850.74 L2226.26 1840.34 L2241.24 1829.95 L2256.09 1819.43 L2271.06 1808.91 L2286.03 1798.39 L2301.01 1787.75 L2315.98 1777.11 L2330.83 1766.34 L2345.80 1755.57 L2360.78 1744.81 L2375.75 1733.92 L2390.73 1723.03 L2405.58 1712.13 L2420.55 1701.24 L2435.52 1690.23 L2450.50 1679.22 L2465.35 1668.20 L2480.32 1657.06 L2495.30 1645.93 L2510.27 1634.79 L2525.24 1623.65 L2540.09 1612.39 L2555.07 1601.25 L2570.04 1589.99 L2585.01 1578.73 L2599.99 1567.34 L2614.84 1556.08 L2629.81 1544.82 L2644.78 1533.43 L2659.76 1522.05 L2674.73 1510.66 L2689.58 1499.28 L2704.56 1487.89 L2719.53 1476.51 L2734.50 1465.00 L2749.35 1453.61 L2764.33 1442.10 L2779.30 1430.72 L2794.28 1419.21 L2809.25 1407.82 L2824.10 1396.31 L2839.07 1384.81 L2854.05 1373.42 L2869.02 1361.91 L2883.99 1350.40 L2898.84 1338.89 L2913.82 1327.51 L2928.79 1316.00 L2943.76 1304.49 L2958.61 1293.10 L2973.59 1281.60 L2988.56 1270.09 L3003.54 1258.70 L3018.51 1247.19 L3033.36 1235.81 L3048.33 1224.42 L3063.31 1212.91 L3078.28 1201.53 L3093.26 1190.14 L3108.11 1178.76 L3123.08 1167.37 L3138.05 1155.98 L3153.03 1144.60 L3167.88 1133.34 L3182.85 1121.95 L3197.82 1110.57 L3212.80 1099.31 L3227.77 1087.92 L3242.62 1076.66 L3257.59 1065.27 L3272.57 1054.01 L3287.54 1042.63 L3302.52 1031.36 L3317.37 1020.10 L3332.34 1008.72 L3347.31 997.46 L3362.29 986.19 L3377.14 974.93 L3392.11 963.55 L3407.09 952.29 L3422.06 941.02 L3437.03 929.76 L3451.88 918.38 L3466.86 907.12 L3481.83 895.85 L3496.80 884.59 L3511.78 873.21 L3526.63 861.95 L3541.60 850.68 L3556.57 839.30 L3571.55 828.04 L3586.40 816.78 L3601.37 805.39 L3616.35 794.13 L3631.32 782.74 L3646.29 771.48 L3661.14 760.10 L3676.12 748.71 L3691.09 737.45 L3706.07 726.06 L3721.04 714.68 L3735.89 703.29 L3750.86 691.91 L3765.84 680.52 L3780.81 669.14 L3795.78 657.75 L3795.78 582.01 L3780.81 593.89 L3765.84 605.65 L3750.86 617.53 L3735.89 629.29 L3721.04 641.17 L3706.07 652.93 L3691.09 664.68 L3676.12 676.56 L3661.14 688.32 L3646.29 700.08 L3631.32 711.83 L3616.35 723.59 L3601.37 735.35 L3586.40 746.98 L3571.55 758.73 L3556.57 770.49 L3541.60 782.25 L3526.63 793.88 L3511.78 805.64 L3496.80 817.39 L3481.83 829.03 L3466.86 840.78 L3451.88 852.54 L3437.03 864.17 L3422.06 875.93 L3407.09 887.56 L3392.11 899.32 L3377.14 911.08 L3362.29 922.71 L3347.31 934.47 L3332.34 946.10 L3317.37 957.85 L3302.52 969.61 L3287.54 981.37 L3272.57 993.00 L3257.59 1004.76 L3242.62 1016.51 L3227.77 1028.27 L3212.80 1040.03 L3197.82 1051.78 L3182.85 1063.54 L3167.88 1075.30 L3153.03 1087.18 L3138.05 1098.93 L3123.08 1110.69 L3108.11 1122.57 L3093.26 1134.33 L3078.28 1146.21 L3063.31 1158.09 L3048.33 1169.97 L3033.36 1181.85 L3018.51 1193.73 L3003.54 1205.61 L2988.56 1217.49 L2973.59 1229.37 L2958.61 1241.25 L2943.76 1253.26 L2928.79 1265.14 L2913.82 1277.14 L2898.84 1289.02 L2883.99 1301.02 L2869.02 1312.90 L2854.05 1324.91 L2839.07 1336.79 L2824.10 1348.79 L2809.25 1360.67 L2794.28 1372.55 L2779.30 1384.56 L2764.33 1396.44 L2749.35 1408.44 L2734.50 1420.32 L2719.53 1432.20 L2704.56 1444.08 L2689.58 1455.96 L2674.73 1467.84 L2659.76 1479.60 L2644.78 1491.48 L2629.81 1503.36 L2614.84 1515.12 L2599.99 1526.88 L2585.01 1538.63 L2570.04 1550.39 L2555.07 1562.15 L2540.09 1573.78 L2525.24 1585.41 L2510.27 1597.04 L2495.30 1608.68 L2480.32 1620.31 L2465.35 1631.82 L2450.50 1643.33 L2435.52 1654.84 L2420.55 1666.22 L2405.58 1677.61 L2390.73 1688.99 L2375.75 1700.38 L2360.78 1711.64 L2345.80 1722.90 L2330.83 1734.04 L2315.98 1745.30 L2301.01 1756.31 L2286.03 1767.45 L2271.06 1778.47 L2256.09 1789.36 L2241.24 1800.37 L2226.26 1811.14 L2211.29 1822.03 L2196.32 1832.67 L2181.47 1843.44 L2166.49 1854.08 L2151.52 1864.60 L2136.54 1875.12 L2121.57 1885.51 L2106.72 1895.91 L2091.75 1906.30 L2076.77 1916.58 L2061.80 1926.72 L2046.83 1936.87 L2031.97 1946.90 L2017.00 1956.92 L2002.03 1966.82 L1987.05 1976.60 L1972.20 1986.37 L1957.23 1996.03 L1942.26 2005.68 L1927.28 2015.21 L1912.31 2024.61 L1897.46 2034.02 L1882.48 2043.30 L1867.51 2052.58 L1852.54 2061.62 L1837.56 2070.77 L1822.71 2079.68 L1807.74 2088.59 L1792.77 2097.38 L1777.79 2106.04 L1762.94 2114.58 L1747.97 2123.12 L1732.99 2131.54 L1718.02 2139.95 L1703.05 2148.12 L1688.20 2156.29 L1673.22 2164.33 L1658.25 2172.25 L1643.28 2180.05 L1628.30 2187.72 L1613.45 2195.39 L1598.48 2202.94 L1583.51 2210.37 L1568.53 2217.67 L1553.68 2224.85 L1538.71 2231.90 L1523.73 2238.83 L1508.76 2245.76 L1493.79 2252.44 L1478.94 2259.13 L1463.96 2265.56 L1448.99 2272.00 L1434.02 2278.18 L1419.04 2284.37 L1404.19 2290.44 L1389.22 2296.25 L1374.24 2302.07 L1359.27 2307.76 L1344.30 2313.21 L1329.45 2318.65 L1314.47 2323.85 L1299.50 2329.05 L1284.53 2334.00 L1269.67 2338.95 L1254.70 2343.65 L1239.73 2348.23 L1224.75 2352.68 L1209.78 2357.14 L1194.93 2361.22 L1179.96 2365.31 L1164.98 2369.27 L1150.01 2373.10 L1135.04 2376.69 L1120.18 2380.28 L1105.21 2383.62 L1090.24 2386.84 L1075.26 2389.93 L1060.41 2392.90 L1045.44 2395.75 L1030.47 2398.47 L1015.49 2401.07 L1000.52 2403.42 L985.67 2405.65 L970.70 2407.88 L955.72 2409.86 L940.75 2411.72 L925.77 2413.45 L910.92 2415.06 L895.95 2416.54 L880.98 2417.90 L866.00 2419.14 L851.15 2420.25 L836.18 2421.37 L821.21 2422.23 L806.23 2422.98 L791.26 2423.60 L776.41 2424.21 L761.43 2424.71 L746.46 2425.08 L731.49 2425.33 L716.51 2425.58 L701.66 2425.70 L686.69 2425.82 L671.72 2425.82 L656.74 2425.82 L656.74 2425.82 Z" stroke-linejoin="round"/>
	</defs>
	<defs>
		<clipPath id="clipPath_zTbKAYnM">
			<use xlink:href="#path_PyfdJEMA"/>
		</clipPath>
	</defs>
	<use xlink:href="#path_PyfdJEMA" style="stroke:none;fill:#FF3333;fill-opacity:0.25"/>
	<use xlink:href="#path_PyfdJEMA" style="fill:none;stroke:#FF0000;stroke-opacity:0.25;stroke-width:17.28" clip-path="url(#clipPath_zTbKAYnM)"/>
	<path d=" M641.77 2425.95 L656.74 2425.95 L671.72 2425.95 L686.57 2425.82 L701.54 2425.82 L716.51 2425.70 L731.49 2425.58 L746.46 2425.33 L761.31 2425.08 L776.28 2424.83 L791.26 2424.46 L806.23 2423.97 L821.08 2423.47 L836.05 2422.85 L851.03 2422.11 L866.00 2421.37 L880.98 2420.50 L895.83 2419.51 L910.80 2418.52 L925.77 2417.28 L940.75 2416.05 L955.72 2414.69 L970.57 2413.32 L985.54 2411.72 L1000.52 2410.11 L1015.49 2408.37 L1030.34 2406.52 L1045.32 2404.54 L1060.29 2402.43 L1075.26 2400.33 L1090.24 2398.10 L1105.09 2395.75 L1120.06 2393.28 L1135.04 2390.68 L1150.01 2387.95 L1164.98 2385.23 L1179.83 2382.39 L1194.81 2379.42 L1209.78 2376.32 L1224.75 2373.10 L1239.60 2369.89 L1254.58 2366.55 L1269.55 2363.08 L1284.53 2359.49 L1299.50 2355.78 L1314.35 2352.07 L1329.32 2348.11 L1344.30 2344.27 L1359.27 2340.19 L1374.24 2335.98 L1389.09 2331.77 L1404.07 2327.44 L1419.04 2322.98 L1434.02 2318.53 L1448.87 2313.95 L1463.84 2309.25 L1478.81 2304.42 L1493.79 2299.59 L1508.76 2294.64 L1523.61 2289.57 L1538.58 2284.50 L1553.56 2279.30 L1568.53 2273.98 L1583.51 2268.66 L1598.36 2263.21 L1613.33 2257.64 L1628.30 2252.07 L1643.28 2246.38 L1658.25 2240.56 L1673.10 2234.75 L1688.07 2228.81 L1703.05 2222.87 L1718.02 2216.80 L1732.87 2210.62 L1747.85 2204.43 L1762.82 2198.12 L1777.79 2191.80 L1792.77 2185.37 L1807.62 2178.93 L1822.59 2172.38 L1837.56 2165.69 L1852.54 2159.01 L1867.51 2152.33 L1882.36 2145.40 L1897.34 2138.59 L1912.31 2131.66 L1927.28 2124.61 L1942.13 2117.55 L1957.11 2110.50 L1972.08 2103.20 L1987.05 2096.02 L2002.03 2088.72 L2016.88 2081.42 L2031.85 2073.99 L2046.83 2066.44 L2061.80 2059.02 L2076.77 2051.34 L2091.62 2043.80 L2106.60 2036.12 L2121.57 2028.33 L2136.54 2020.65 L2151.39 2012.73 L2166.37 2004.94 L2181.34 1997.02 L2196.32 1988.97 L2211.29 1981.05 L2226.14 1972.88 L2241.11 1964.84 L2256.09 1956.67 L2271.06 1948.50 L2286.03 1940.34 L2300.88 1932.05 L2315.86 1923.75 L2330.83 1915.34 L2345.80 1907.05 L2360.66 1898.63 L2375.63 1890.09 L2390.60 1881.68 L2405.58 1873.14 L2420.55 1864.60 L2435.40 1856.06 L2450.37 1847.40 L2465.35 1838.73 L2480.32 1830.07 L2495.30 1821.41 L2510.14 1812.75 L2525.12 1803.96 L2540.09 1795.17 L2555.07 1786.39 L2569.92 1777.60 L2584.89 1768.81 L2599.86 1760.03 L2614.84 1751.12 L2629.81 1742.21 L2644.66 1733.30 L2659.64 1724.39 L2674.61 1715.48 L2689.58 1706.57 L2704.56 1697.66 L2719.41 1688.62 L2734.38 1679.71 L2749.35 1670.68 L2764.33 1661.77 L2779.30 1652.73 L2794.15 1643.70 L2809.12 1634.66 L2824.10 1625.63 L2839.07 1616.60 L2853.92 1607.56 L2868.90 1598.53 L2883.87 1589.49 L2898.84 1580.46 L2913.82 1571.43 L2928.67 1562.39 L2943.64 1553.36 L2958.61 1544.32 L2973.59 1535.29 L2988.56 1526.26 L3003.41 1517.10 L3018.39 1508.06 L3033.36 1499.03 L3048.33 1490.12 L3063.18 1481.09 L3078.16 1472.05 L3093.13 1463.02 L3108.11 1453.98 L3123.08 1444.95 L3137.93 1436.04 L3152.90 1427.01 L3167.88 1417.97 L3182.85 1409.06 L3197.82 1400.03 L3212.67 1390.99 L3227.65 1382.08 L3242.62 1373.05 L3257.59 1364.14 L3272.45 1355.10 L3287.42 1346.19 L3302.39 1337.16 L3317.37 1328.25 L3332.34 1319.22 L3347.19 1310.18 L3362.16 1301.27 L3377.14 1292.24 L3392.11 1283.33 L3407.09 1274.29 L3421.93 1265.26 L3436.91 1256.35 L3451.88 1247.32 L3466.86 1238.28 L3481.71 1229.37 L3496.68 1220.34 L3511.65 1211.30 L3526.63 1202.27 L3541.60 1193.23 L3556.45 1184.20 L3571.43 1175.17 L3586.40 1166.13 L3601.37 1157.10 L3616.35 1148.06 L3631.20 1139.03 L3646.17 1130.00 L3661.14 1120.84 L3676.12 1111.80 L3690.97 1102.65 L3705.94 1093.61 L3720.91 1084.46 L3735.89 1075.30 L3750.86 1066.14 L3765.71 1056.98 L3780.69 1047.82 L3795.66 1038.67" stroke-linejoin="round" style="fill:none;stroke:#0000FF;stroke-width:8.64"/>
	<path d=" M641.77 2425.95 L656.74 2425.95 L671.72 2425.95 L686.57 2425.82 L701.54 2425.82 L716.51 2425.70 L731.49 2425.45 L746.46 2425.20 L761.31 2424.83 L776.28 2424.46 L791.26 2423.97 L806.23 2423.35 L821.08 2422.61 L836.05 2421.86 L851.03 2420.87 L866.00 2419.88 L880.98 2418.65 L895.83 2417.41 L910.80 2415.92 L925.77 2414.44 L940.75 2412.83 L955.72 2410.97 L970.57 2408.99 L985.54 2407.01 L1000.52 2404.79 L1015.49 2402.43 L1030.34 2399.96 L1045.32 2397.36 L1060.29 2394.64 L1075.26 2391.79 L1090.24 2388.70 L1105.09 2385.60 L1120.06 2382.26 L1135.04 2378.92 L1150.01 2375.33 L1164.98 2371.62 L1179.83 2367.78 L1194.81 2363.82 L1209.78 2359.74 L1224.75 2355.53 L1239.60 2351.20 L1254.58 2346.62 L1269.55 2342.04 L1284.53 2337.22 L1299.50 2332.39 L1314.35 2327.32 L1329.32 2322.24 L1344.30 2316.92 L1359.27 2311.60 L1374.24 2306.03 L1389.09 2300.46 L1404.07 2294.64 L1419.04 2288.83 L1434.02 2282.76 L1448.87 2276.70 L1463.84 2270.39 L1478.81 2264.08 L1493.79 2257.64 L1508.76 2251.08 L1523.61 2244.28 L1538.58 2237.59 L1553.56 2230.66 L1568.53 2223.61 L1583.51 2216.43 L1598.36 2209.25 L1613.33 2201.95 L1628.30 2194.40 L1643.28 2186.85 L1658.25 2179.31 L1673.10 2171.51 L1688.07 2163.71 L1703.05 2155.67 L1718.02 2147.75 L1732.87 2139.58 L1747.85 2131.29 L1762.82 2123.00 L1777.79 2114.58 L1792.77 2106.04 L1807.62 2097.50 L1822.59 2088.84 L1837.56 2080.06 L1852.54 2071.27 L1867.51 2062.36 L1882.36 2053.32 L1897.34 2044.17 L1912.31 2035.01 L1927.28 2025.73 L1942.13 2016.45 L1957.11 2007.04 L1972.08 1997.51 L1987.05 1987.98 L2002.03 1978.33 L2016.88 1968.68 L2031.85 1958.90 L2046.83 1949.12 L2061.80 1939.22 L2076.77 1929.20 L2091.62 1919.17 L2106.60 1909.03 L2121.57 1898.88 L2136.54 1888.61 L2151.39 1878.34 L2166.37 1868.06 L2181.34 1857.55 L2196.32 1847.15 L2211.29 1836.63 L2226.14 1825.99 L2241.11 1815.35 L2256.09 1804.70 L2271.06 1793.94 L2286.03 1783.17 L2300.88 1772.28 L2315.86 1761.39 L2330.83 1750.50 L2345.80 1739.48 L2360.66 1728.47 L2375.63 1717.46 L2390.60 1706.32 L2405.58 1695.18 L2420.55 1684.04 L2435.40 1672.78 L2450.37 1661.52 L2465.35 1650.26 L2480.32 1638.87 L2495.30 1627.61 L2510.14 1616.23 L2525.12 1604.84 L2540.09 1593.33 L2555.07 1581.95 L2569.92 1570.44 L2584.89 1558.93 L2599.86 1547.42 L2614.84 1535.91 L2629.81 1524.28 L2644.66 1512.77 L2659.64 1501.13 L2674.61 1489.50 L2689.58 1477.87 L2704.56 1466.24 L2719.41 1454.60 L2734.38 1442.97 L2749.35 1431.34 L2764.33 1419.58 L2779.30 1407.95 L2794.15 1396.31 L2809.12 1384.56 L2824.10 1372.80 L2839.07 1361.17 L2853.92 1349.41 L2868.90 1337.78 L2883.87 1326.02 L2898.84 1314.27 L2913.82 1302.63 L2928.67 1290.88 L2943.64 1279.24 L2958.61 1267.49 L2973.59 1255.85 L2988.56 1244.10 L3003.41 1232.46 L3018.39 1220.83 L3033.36 1209.20 L3048.33 1197.57 L3063.18 1185.93 L3078.16 1174.30 L3093.13 1162.67 L3108.11 1151.03 L3123.08 1139.40 L3137.93 1127.89 L3152.90 1116.26 L3167.88 1104.75 L3182.85 1093.12 L3197.82 1081.61 L3212.67 1070.10 L3227.65 1058.47 L3242.62 1046.96 L3257.59 1035.45 L3272.45 1023.94 L3287.42 1012.43 L3302.39 1000.92 L3317.37 989.41 L3332.34 977.90 L3347.19 966.39 L3362.16 954.88 L3377.14 943.38 L3392.11 931.87 L3407.09 920.36 L3421.93 908.85 L3436.91 897.34 L3451.88 885.83 L3466.86 874.32 L3481.71 862.81 L3496.68 851.43 L3511.65 839.92 L3526.63 828.41 L3541.60 816.90 L3556.45 805.39 L3571.43 793.88 L3586.40 782.37 L3601.37 770.74 L3616.35 759.23 L3631.20 747.72 L3646.17 736.21 L3661.14 724.58 L3676.12 713.07 L3690.97 701.56 L3705.94 689.93 L3720.91 678.29 L3735.89 666.79 L3750.86 655.15 L3765.71 643.52 L3780.69 631.89 L3795.66 620.25" stroke-linejoin="round" style="fill:none;stroke:#FF0000;stroke-width:8.64"/>
	<line x1="578.53" y1="2489.19" x2="578.53" y2="100.86" style="stroke:#000000;stroke-width:5.76"/>
	<line x1="578.53" y1="2425.82" x2="538.44" y2="2425.82" style="stroke:#000000;stroke-width:5.76"/>
	<text x="518.51" y="2460.85" style="font-family:'Helvetica';font-size:99.99px;fill:#000000" text-anchor="end">0.00</text>
	<line x1="578.53" y1="2312.71" x2="538.44" y2="2312.71" style="stroke:#000000;stroke-width:5.76"/>
	<text x="518.51" y="2347.74" style="font-family:'Helvetica';font-size:99.99px;fill:#000000" text-anchor="end">1.00</text>
	<line x1="578.53" y1="2199.72" x2="538.44" y2="2199.72" style="stroke:#000000;stroke-width:5.76"/>
	<text x="518.51" y="2234.75" style="font-family:'Helvetica';font-size:99.99px;fill:#000000" text-anchor="end">2.00</text>
	<line x1="578.53" y1="2086.61" x2="538.44" y2="2086.61" style="stroke:#000000;stroke-width:5.76"/>
	<text x="518.51" y="2121.64" style="font-family:'Helvetica';font-size:99.99px;fill:#000000" text-anchor="end">3.00</text>
	<line x1="578.53" y1="1973.50" x2="538.44" y2="1973.50" style="stroke:#000000;stroke-width:5.76"/>
	<text x="518.51" y="2008.53" style="font-family:'Helvetica';font-size:99.99px;fill:#000000" text-anchor="end">4.00</text>
	<line x1="578.53" y1="1860.39" x2="538.44" y2="1860.39" style="stroke:#000000;stroke-width:5.76"/>
	<text x="518.51" y="1895.42" style="font-family:'Helvetica';font-size:99.99px;fill:#000000" text-anchor="end">5.00</text>
	<line x1="578.53" y1="1747.28" x2="538.44" y2="1747.28" style="stroke:#000000;stroke-width:5.76"/>
	<text x="518.51" y="1782.31" style="font-family:'Helvetica';font-size:99.99px;fill:#000000" text-anchor="end">6.00</text>
	<line x1="578.53" y1="1634.29" x2="538.44" y2="1634.29" style="stroke:#000000;stroke-width:5.76"/>
	<text x="518.51" y="1669.32" style="font-family:'Helvetica';font-size:99.99px;fill:#000000" text-anchor="end">7.00</text>
	<line x1="578.53" y1="1521.18" x2="538.44" y2="1521.18" style="stroke:#000000;stroke-width:5.76"/>
	<text x="518.51" y="1556.21" style="font-family:'Helvetica';font-size:99.99px;fill:#000000" text-anchor="end">8.00</text>
	<line x1="578.53" y1="1408.07" x2="538.44" y2="1408.07" style="stroke:#000000;stroke-width:5.76"/>
	<text x="518.51" y="1443.10" style="font-family:'Helvetica';font-size:99.99px;fill:#000000" text-anchor="end">9.00</text>
	<line x1="578.53" y1="1294.96" x2="538.44" y2="1294.96" style="stroke:#000000;stroke-width:5.76"/>
	<text x="518.51" y="1329.99" style="font-family:'Helvetica';font-size:99.99px;fill:#000000" text-anchor="end">10.00</text>
	<line x1="578.53" y1="1181.97" x2="538.44" y2="1181.97" style="stroke:#000000;stroke-width:5.76"/>
	<text x="518.51" y="1217.00" style="font-family:'Helvetica';font-size:99.99px;fill:#000000" text-anchor="end">11.00</text>
	<line x1="578.53" y1="1068.86" x2="538.44" y2="1068.86" style="stroke:#000000;stroke-width:5.76"/>
	<text x="518.51" y="1103.89" style="font-family:'Helvetica';font-size:99.99px;fill:#000000" text-anchor="end">12.00</text>
	<line x1="578.53" y1="955.75" x2="538.44" y2="955.75" style="stroke:#000000;stroke-width:5.76"/>
	<text x="518.51" y="990.78" style="font-family:'Helvetica';font-size:99.99px;fill:#000000" text-anchor="end">13.00</text>
	<line x1="578.53" y1="842.64" x2="538.44" y2="842.64" style="stroke:#000000;stroke-width:5.76"/>
	<text x="518.51" y="877.67" style="font-family:'Helvetica';font-size:99.99px;fill:#000000" text-anchor="end">14.00</text>
	<line x1="578.53" y1="729.53" x2="538.44" y2="729.53" style="stroke:#000000;stroke-width:5.76"/>
	<text x="518.51" y="764.56" style="font-family:'Helvetica';font-size:99.99px;fill:#000000" text-anchor="end">15.00</text>
	<line x1="578.53" y1="616.54" x2="538.44" y2="616.54" style="stroke:#000000;stroke-width:5.76"/>
	<text x="518.51" y="651.57" style="font-family:'Helvetica';font-size:99.99px;fill:#000000" text-anchor="end">16.00</text>
	<line x1="578.53" y1="503.43" x2="538.44" y2="503.43" style="stroke:#000000;stroke-width:5.76"/>
	<text x="518.51" y="538.46" style="font-family:'Helvetica';font-size:99.99px;fill:#000000" text-anchor="end">17.00</text>
	<line x1="578.53" y1="390.32" x2="538.44" y2="390.32" style="stroke:#000000;stroke-width:5.76"/>
	<text x="518.51" y="425.35" style="font-family:'Helvetica';font-size:99.99px;fill:#000000" text-anchor="end">18.00</text>
	<line x1="578.53" y1="277.21" x2="538.44" y2="277.21" style="stroke:#000000;stroke-width:5.76"/>
	<text x="518.51" y="312.24" style="font-family:'Helvetica';font-size:99.99px;fill:#000000" text-anchor="end">19.00</text>
	<line x1="578.53" y1="164.22" x2="538.44" y2="164.22" style="stroke:#000000;stroke-width:5.76"/>
	<text x="518.51" y="199.25" style="font-family:'Helvetica';font-size:99.99px;fill:#000000" text-anchor="end">20.00</text>
	<text x="190.71" y="1294.96" style="font-family:'Helvetica';font-size:99.99px;fill:#000000" transform="rotate(-90 190.71,1294.96)" text-anchor="middle">Cumulative incidence (%)</text>
	<line x1="578.53" y1="2489.19" x2="3859.02" y2="2489.19" style="stroke:#000000;stroke-width:5.76"/>
	<line x1="641.89" y1="2489.19" x2="641.89" y2="2529.16" style="stroke:#000000;stroke-width:5.76"/>
	<text x="641.89" y="2619.14" style="font-family:'Helvetica';font-size:99.99px;fill:#000000" text-anchor="middle">0</text>
	<line x1="1389.22" y1="2489.19" x2="1389.22" y2="2529.16" style="stroke:#000000;stroke-width:5.76"/>
	<text x="1389.22" y="2619.14" style="font-family:'Helvetica';font-size:99.99px;fill:#000000" text-anchor="middle">50</text>
	<line x1="2136.54" y1="2489.19" x2="2136.54" y2="2529.16" style="stroke:#000000;stroke-width:5.76"/>
	<text x="2136.54" y="2619.14" style="font-family:'Helvetica';font-size:99.99px;fill:#000000" text-anchor="middle">100</text>
	<line x1="2883.99" y1="2489.19" x2="2883.99" y2="2529.16" style="stroke:#000000;stroke-width:5.76"/>
	<text x="2883.99" y="2619.14" style="font-family:'Helvetica';font-size:99.99px;fill:#000000" text-anchor="middle">150</text>
	<line x1="3631.32" y1="2489.19" x2="3631.32" y2="2529.16" style="stroke:#000000;stroke-width:5.76"/>
	<text x="3631.32" y="2619.14" style="font-family:'Helvetica';font-size:99.99px;fill:#000000" text-anchor="middle">200</text>
	<text x="2218.84" y="2729.16" style="font-family:'Helvetica';font-size:99.99px;fill:#000000" text-anchor="middle">Days from 1 March 2020</text>
	<rect x="1933.59" y="2128.20" width="1890.90" height="326.46" style="fill:#FFFFFF"/>
	<rect x="1936.47" y="2131.08" width="1885.14" height="320.70" style="fill:none;stroke:#000000;stroke-width:5.76"/>
	<rect x="1976.78" y="2171.51" width="374.34" height="99.99" style="fill:#3333FF;fill-opacity:0.25"/>
	<rect x="1981.10" y="2175.83" width="365.70" height="91.35" style="fill:none;stroke:#0000FF;stroke-opacity:0.25;stroke-width:8.64"/>
	<rect x="1976.78" y="2311.47" width="374.34" height="99.99" style="fill:#FF3333;fill-opacity:0.25"/>
	<rect x="1981.10" y="2315.79" width="365.70" height="91.35" style="fill:none;stroke:#FF0000;stroke-opacity:0.25;stroke-width:8.64"/>
	<text x="2411.14" y="2256.53" style="font-family:'Helvetica';font-size:99.99px;fill:#000000">Non-current anticoagulant use</text>
	<text x="2411.14" y="2396.50" style="font-family:'Helvetica';font-size:99.99px;fill:#000000">Current anticoagulant use</text>
</svg>
