<?xml version="1.0" encoding="UTF-8" standalone="no"?>
<!-- This is a Stata 16.1 generated SVG file (http://www.stata.com) -->

<svg version="1.1" width="5.50in" height="4.00in" viewBox="0 0 3960 2880" xmlns="http://www.w3.org/2000/svg" xmlns:xlink="http://www.w3.org/1999/xlink">
	<desc>Stata Graph - Graph</desc>
	<rect x="0" y="0" width="3960" height="2880" style="fill:#EAF2F3;stroke:none"/>
	<rect x="0.00" y="0.00" width="3959.88" height="2880.00" style="fill:#EAF2F3"/>
	<rect x="2.88" y="2.88" width="3954.12" height="2874.24" style="fill:none;stroke:#EAF2F3;stroke-width:5.76"/>
	<rect x="521.73" y="100.86" width="3337.29" height="2388.33" style="fill:#FFFFFF"/>
	<rect x="524.61" y="103.74" width="3331.53" height="2382.57" style="fill:none;stroke:#FFFFFF;stroke-width:5.76"/>
	<line x1="521.73" y1="2425.82" x2="3859.02" y2="2425.82" style="stroke:#EAF2F3;stroke-width:8.64"/>
	<line x1="521.73" y1="1671.91" x2="3859.02" y2="1671.91" style="stroke:#EAF2F3;stroke-width:8.64"/>
	<line x1="521.73" y1="918.01" x2="3859.02" y2="918.01" style="stroke:#EAF2F3;stroke-width:8.64"/>
	<line x1="521.73" y1="164.22" x2="3859.02" y2="164.22" style="stroke:#EAF2F3;stroke-width:8.64"/>
	<defs>
		<path id="path_ixeUJGdC" d="M585.09 2425.82 L585.09 2425.82 L600.31 2425.82 L615.53 2425.82 L630.75 2425.82 L645.98 2425.82 L661.20 2425.82 L676.42 2425.70 L691.64 2425.58 L706.86 2425.20 L722.08 2424.96 L737.30 2424.46 L752.52 2423.84 L767.75 2423.10 L782.97 2422.23 L798.19 2421.24 L813.41 2420.01 L828.63 2418.77 L843.85 2417.41 L859.07 2415.92 L874.29 2414.31 L889.51 2412.71 L904.61 2410.97 L919.83 2409.12 L935.05 2407.26 L950.28 2405.28 L965.50 2403.18 L980.72 2401.20 L995.94 2399.09 L1011.16 2396.99 L1026.38 2394.88 L1041.60 2392.66 L1056.83 2390.55 L1072.05 2388.45 L1087.27 2386.22 L1102.49 2384.12 L1117.71 2382.01 L1132.93 2379.91 L1148.15 2377.81 L1163.37 2375.83 L1178.60 2373.72 L1193.82 2371.74 L1209.04 2369.76 L1224.26 2367.91 L1239.48 2366.05 L1254.70 2364.19 L1269.80 2362.34 L1285.02 2360.61 L1300.24 2358.87 L1315.46 2357.14 L1330.68 2355.53 L1345.90 2353.92 L1361.13 2352.31 L1376.35 2350.83 L1391.57 2349.34 L1406.79 2347.86 L1422.01 2346.50 L1437.23 2345.01 L1452.45 2343.77 L1467.67 2342.41 L1482.90 2341.18 L1498.12 2339.94 L1513.34 2338.70 L1528.56 2337.46 L1543.78 2336.35 L1559.00 2335.24 L1574.22 2334.12 L1589.44 2333.01 L1604.67 2332.02 L1619.76 2331.03 L1634.98 2330.04 L1650.21 2329.17 L1665.43 2328.18 L1680.65 2327.32 L1695.87 2326.45 L1711.09 2325.58 L1726.31 2324.72 L1741.53 2323.97 L1756.76 2323.11 L1771.98 2322.37 L1787.20 2321.62 L1802.42 2320.88 L1817.64 2320.26 L1832.86 2319.52 L1848.08 2318.90 L1863.30 2318.28 L1878.53 2317.66 L1893.75 2317.04 L1908.97 2316.42 L1924.19 2315.81 L1939.41 2315.31 L1954.63 2314.69 L1969.85 2314.20 L1984.95 2313.70 L2000.17 2313.21 L2015.39 2312.71 L2030.61 2312.22 L2045.84 2311.72 L2061.06 2311.35 L2076.28 2310.86 L2091.50 2310.48 L2106.72 2310.11 L2121.94 2309.62 L2137.16 2309.25 L2152.38 2308.88 L2167.61 2308.50 L2182.83 2308.13 L2198.05 2307.76 L2213.27 2307.51 L2228.49 2307.14 L2243.71 2306.77 L2258.93 2306.52 L2274.15 2306.15 L2289.38 2305.91 L2304.60 2305.53 L2319.82 2305.29 L2335.04 2305.04 L2350.14 2304.79 L2365.36 2304.54 L2380.58 2304.30 L2395.80 2304.05 L2411.02 2303.80 L2426.24 2303.55 L2441.46 2303.31 L2456.68 2303.06 L2471.91 2302.81 L2487.13 2302.69 L2502.35 2302.44 L2517.57 2302.19 L2532.79 2302.07 L2548.01 2301.82 L2563.23 2301.70 L2578.45 2301.45 L2593.68 2301.33 L2608.90 2301.08 L2624.12 2300.96 L2639.34 2300.83 L2654.56 2300.58 L2669.78 2300.46 L2685.00 2300.34 L2700.22 2300.21 L2715.32 2299.97 L2730.54 2299.84 L2745.76 2299.72 L2760.99 2299.59 L2776.21 2299.47 L2791.43 2299.35 L2806.65 2299.22 L2821.87 2299.10 L2837.09 2298.98 L2852.31 2298.85 L2867.53 2298.73 L2882.76 2298.60 L2897.98 2298.48 L2913.20 2298.36 L2928.42 2298.23 L2943.64 2298.23 L2958.86 2298.11 L2974.08 2297.99 L2989.30 2297.86 L3004.53 2297.74 L3019.75 2297.74 L3034.97 2297.61 L3050.19 2297.49 L3065.41 2297.49 L3080.51 2297.37 L3095.73 2297.24 L3110.95 2297.12 L3126.17 2297.12 L3141.39 2297.00 L3156.61 2297.00 L3171.84 2296.87 L3187.06 2296.75 L3202.28 2296.75 L3217.50 2296.62 L3232.72 2296.50 L3247.94 2296.50 L3263.16 2296.38 L3278.39 2296.38 L3293.61 2296.25 L3308.83 2296.25 L3324.05 2296.13 L3339.27 2296.13 L3354.49 2296.01 L3369.71 2296.01 L3384.93 2295.88 L3400.16 2295.88 L3415.38 2295.76 L3430.47 2295.76 L3445.70 2295.63 L3460.92 2295.63 L3476.14 2295.51 L3491.36 2295.51 L3506.58 2295.39 L3521.80 2295.39 L3537.02 2295.26 L3552.24 2295.26 L3567.47 2295.26 L3582.69 2295.14 L3597.91 2295.14 L3613.13 2295.02 L3628.35 2295.02 L3643.57 2294.89 L3658.79 2294.89 L3674.01 2294.89 L3689.24 2294.77 L3704.46 2294.77 L3719.68 2294.64 L3734.90 2294.64 L3750.12 2294.64 L3765.34 2294.52 L3780.56 2294.52 L3795.66 2294.40 L3795.66 444.03 L3780.56 444.77 L3765.34 445.51 L3750.12 446.26 L3734.90 447.00 L3719.68 447.74 L3704.46 448.48 L3689.24 449.23 L3674.01 449.97 L3658.79 450.71 L3643.57 451.45 L3628.35 452.32 L3613.13 453.06 L3597.91 453.81 L3582.69 454.67 L3567.47 455.41 L3552.24 456.28 L3537.02 457.02 L3521.80 457.89 L3506.58 458.76 L3491.36 459.50 L3476.14 460.36 L3460.92 461.23 L3445.70 462.10 L3430.47 462.96 L3415.38 463.83 L3400.16 464.82 L3384.93 465.69 L3369.71 466.68 L3354.49 467.54 L3339.27 468.53 L3324.05 469.52 L3308.83 470.39 L3293.61 471.38 L3278.39 472.49 L3263.16 473.48 L3247.94 474.47 L3232.72 475.59 L3217.50 476.70 L3202.28 477.69 L3187.06 478.80 L3171.84 480.04 L3156.61 481.16 L3141.39 482.27 L3126.17 483.51 L3110.95 484.74 L3095.73 485.98 L3080.51 487.22 L3065.41 488.46 L3050.19 489.82 L3034.97 491.18 L3019.75 492.54 L3004.53 493.90 L2989.30 495.39 L2974.08 496.75 L2958.86 498.23 L2943.64 499.84 L2928.42 501.33 L2913.20 502.94 L2897.98 504.54 L2882.76 506.15 L2867.53 507.89 L2852.31 509.62 L2837.09 511.35 L2821.87 513.21 L2806.65 515.06 L2791.43 516.92 L2776.21 518.90 L2760.99 520.88 L2745.76 522.86 L2730.54 524.96 L2715.32 527.07 L2700.22 529.30 L2685.00 531.52 L2669.78 533.75 L2654.56 536.10 L2639.34 538.58 L2624.12 541.05 L2608.90 543.53 L2593.68 546.13 L2578.45 548.72 L2563.23 551.45 L2548.01 554.29 L2532.79 557.14 L2517.57 560.11 L2502.35 563.08 L2487.13 566.17 L2471.91 569.39 L2456.68 572.61 L2441.46 575.95 L2426.24 579.29 L2411.02 582.88 L2395.80 586.47 L2380.58 590.18 L2365.36 594.02 L2350.14 597.85 L2335.04 601.94 L2319.82 606.02 L2304.60 610.23 L2289.38 614.56 L2274.15 619.02 L2258.93 623.60 L2243.71 628.30 L2228.49 633.12 L2213.27 638.07 L2198.05 643.15 L2182.83 648.47 L2167.61 653.79 L2152.38 659.36 L2137.16 665.05 L2121.94 670.87 L2106.72 676.93 L2091.50 683.00 L2076.28 689.43 L2061.06 695.87 L2045.84 702.67 L2030.61 709.48 L2015.39 716.53 L2000.17 723.84 L1984.95 731.39 L1969.85 739.06 L1954.63 746.98 L1939.41 755.15 L1924.19 763.44 L1908.97 772.10 L1893.75 780.89 L1878.53 790.04 L1863.30 799.33 L1848.08 808.98 L1832.86 818.88 L1817.64 829.03 L1802.42 839.42 L1787.20 850.19 L1771.98 861.20 L1756.76 872.59 L1741.53 884.35 L1726.31 896.35 L1711.09 908.72 L1695.87 921.35 L1680.65 934.47 L1665.43 947.83 L1650.21 961.69 L1634.98 975.92 L1619.76 990.53 L1604.67 1005.50 L1589.44 1020.85 L1574.22 1036.69 L1559.00 1053.02 L1543.78 1069.73 L1528.56 1086.93 L1513.34 1104.63 L1498.12 1122.82 L1482.90 1141.38 L1467.67 1160.56 L1452.45 1180.24 L1437.23 1200.41 L1422.01 1221.08 L1406.79 1242.37 L1391.57 1264.15 L1376.35 1286.42 L1361.13 1309.32 L1345.90 1332.83 L1330.68 1356.84 L1315.46 1381.46 L1300.24 1406.71 L1285.02 1432.45 L1269.80 1458.81 L1254.70 1485.79 L1239.48 1513.39 L1224.26 1541.35 L1209.04 1570.07 L1193.82 1599.27 L1178.60 1628.97 L1163.37 1659.17 L1148.15 1689.74 L1132.93 1720.80 L1117.71 1752.23 L1102.49 1783.91 L1087.27 1815.84 L1072.05 1847.89 L1056.83 1880.07 L1041.60 1912.12 L1026.38 1944.30 L1011.16 1976.23 L995.94 2007.91 L980.72 2039.22 L965.50 2070.03 L950.28 2100.23 L935.05 2129.80 L919.83 2158.51 L904.61 2186.36 L889.51 2213.09 L874.29 2238.71 L859.07 2262.96 L843.85 2285.73 L828.63 2307.02 L813.41 2326.57 L798.19 2344.52 L782.97 2360.48 L767.75 2374.71 L752.52 2386.96 L737.30 2397.36 L722.08 2405.90 L706.86 2412.58 L691.64 2417.66 L676.42 2421.24 L661.20 2423.60 L645.98 2424.96 L630.75 2425.58 L615.53 2425.82 L600.31 2425.82 L585.09 2425.82 L585.09 2425.82 Z" stroke-linejoin="round"/>
	</defs>
	<defs>
		<clipPath id="clipPath_ZzqzwjKp">
			<use xlink:href="#path_ixeUJGdC"/>
		</clipPath>
	</defs>
	<use xlink:href="#path_ixeUJGdC" style="stroke:none;fill:#FF3333;fill-opacity:0.25"/>
	<use xlink:href="#path_ixeUJGdC" style="fill:none;stroke:#FF0000;stroke-opacity:0.25;stroke-width:17.28" clip-path="url(#clipPath_ZzqzwjKp)"/>
	<path d=" M585.09 2425.95 L600.31 2425.95 L615.53 2425.95 L630.75 2425.82 L645.98 2425.45 L661.20 2424.71 L676.42 2423.47 L691.64 2421.62 L706.86 2419.02 L721.96 2415.43 L737.18 2410.97 L752.40 2405.40 L767.62 2398.97 L782.84 2391.42 L798.06 2382.88 L813.28 2373.35 L828.51 2362.96 L843.73 2351.69 L858.95 2339.44 L874.17 2326.57 L889.39 2312.96 L904.61 2298.73 L919.83 2283.88 L935.05 2268.53 L950.28 2252.82 L965.50 2236.73 L980.72 2220.27 L995.94 2203.56 L1011.16 2186.61 L1026.38 2169.65 L1041.60 2152.45 L1056.83 2135.37 L1072.05 2118.17 L1087.14 2101.09 L1102.37 2084.02 L1117.59 2067.18 L1132.81 2050.48 L1148.03 2033.89 L1163.25 2017.56 L1178.47 2001.35 L1193.69 1985.51 L1208.91 1970.04 L1224.13 1954.69 L1239.36 1939.72 L1254.58 1924.99 L1269.80 1910.64 L1285.02 1896.65 L1300.24 1882.79 L1315.46 1869.43 L1330.68 1856.31 L1345.90 1843.44 L1361.13 1830.94 L1376.35 1818.69 L1391.57 1806.81 L1406.79 1795.17 L1422.01 1783.79 L1437.23 1772.77 L1452.33 1762.01 L1467.55 1751.49 L1482.77 1741.34 L1497.99 1731.44 L1513.21 1721.66 L1528.44 1712.26 L1543.66 1703.10 L1558.88 1694.19 L1574.10 1685.53 L1589.32 1676.99 L1604.54 1668.82 L1619.76 1660.78 L1634.98 1652.98 L1650.21 1645.43 L1665.43 1638.13 L1680.65 1630.95 L1695.87 1623.90 L1711.09 1617.22 L1726.31 1610.53 L1741.53 1604.22 L1756.76 1597.91 L1771.98 1591.85 L1787.20 1586.03 L1802.30 1580.21 L1817.52 1574.64 L1832.74 1569.20 L1847.96 1564.00 L1863.18 1558.80 L1878.40 1553.85 L1893.62 1549.03 L1908.84 1544.32 L1924.07 1539.75 L1939.29 1535.29 L1954.51 1530.96 L1969.73 1526.75 L1984.95 1522.54 L2000.17 1518.58 L2015.39 1514.75 L2030.61 1510.91 L2045.84 1507.32 L2061.06 1503.73 L2076.28 1500.27 L2091.50 1496.80 L2106.72 1493.59 L2121.94 1490.37 L2137.16 1487.27 L2152.38 1484.18 L2167.48 1481.21 L2182.70 1478.36 L2197.92 1475.52 L2213.14 1472.79 L2228.37 1470.20 L2243.59 1467.60 L2258.81 1465.12 L2274.03 1462.65 L2289.25 1460.30 L2304.47 1457.94 L2319.69 1455.72 L2334.91 1453.49 L2350.14 1451.39 L2365.36 1449.28 L2380.58 1447.30 L2395.80 1445.32 L2411.02 1443.34 L2426.24 1441.49 L2441.46 1439.63 L2456.68 1437.90 L2471.91 1436.16 L2487.13 1434.43 L2502.35 1432.82 L2517.57 1431.21 L2532.67 1429.60 L2547.89 1428.12 L2563.11 1426.63 L2578.33 1425.15 L2593.55 1423.79 L2608.77 1422.43 L2623.99 1421.07 L2639.22 1419.70 L2654.44 1418.47 L2669.66 1417.23 L2684.88 1415.99 L2700.10 1414.75 L2715.32 1413.64 L2730.54 1412.53 L2745.76 1411.41 L2760.99 1410.30 L2776.21 1409.19 L2791.43 1408.20 L2806.65 1407.21 L2821.87 1406.22 L2837.09 1405.23 L2852.31 1404.24 L2867.53 1403.37 L2882.76 1402.50 L2897.85 1401.64 L2913.07 1400.77 L2928.30 1399.90 L2943.52 1399.04 L2958.74 1398.29 L2973.96 1397.43 L2989.18 1396.69 L3004.40 1395.94 L3019.62 1395.20 L3034.84 1394.46 L3050.07 1393.72 L3065.29 1392.97 L3080.51 1392.35 L3095.73 1391.61 L3110.95 1390.99 L3126.17 1390.37 L3141.39 1389.76 L3156.61 1389.14 L3171.84 1388.52 L3187.06 1387.90 L3202.28 1387.28 L3217.50 1386.66 L3232.72 1386.17 L3247.94 1385.55 L3263.04 1385.05 L3278.26 1384.43 L3293.48 1383.94 L3308.70 1383.44 L3323.93 1382.83 L3339.15 1382.33 L3354.37 1381.84 L3369.59 1381.34 L3384.81 1380.85 L3400.03 1380.35 L3415.25 1379.86 L3430.47 1379.36 L3445.70 1378.99 L3460.92 1378.49 L3476.14 1378.00 L3491.36 1377.63 L3506.58 1377.13 L3521.80 1376.64 L3537.02 1376.27 L3552.24 1375.77 L3567.47 1375.40 L3582.69 1374.91 L3597.91 1374.53 L3613.01 1374.16 L3628.23 1373.67 L3643.45 1373.30 L3658.67 1372.93 L3673.89 1372.43 L3689.11 1372.06 L3704.33 1371.69 L3719.55 1371.32 L3734.78 1370.82 L3750.00 1370.45 L3765.22 1370.08 L3780.44 1369.71 L3795.66 1369.34" stroke-linejoin="round" style="fill:none;stroke:#FF0000;stroke-width:8.64"/>
	<line x1="521.73" y1="2489.19" x2="521.73" y2="100.86" style="stroke:#000000;stroke-width:5.76"/>
	<line x1="521.73" y1="2425.82" x2="481.76" y2="2425.82" style="stroke:#000000;stroke-width:5.76"/>
	<text x="461.83" y="2460.85" style="font-family:'Helvetica';font-size:99.99px;fill:#000000" text-anchor="end">0.00</text>
	<line x1="521.73" y1="1671.91" x2="481.76" y2="1671.91" style="stroke:#000000;stroke-width:5.76"/>
	<text x="461.83" y="1706.94" style="font-family:'Helvetica';font-size:99.99px;fill:#000000" text-anchor="end">0.05</text>
	<line x1="521.73" y1="918.01" x2="481.76" y2="918.01" style="stroke:#000000;stroke-width:5.76"/>
	<text x="461.83" y="953.03" style="font-family:'Helvetica';font-size:99.99px;fill:#000000" text-anchor="end">0.10</text>
	<line x1="521.73" y1="164.22" x2="481.76" y2="164.22" style="stroke:#000000;stroke-width:5.76"/>
	<text x="461.83" y="199.25" style="font-family:'Helvetica';font-size:99.99px;fill:#000000" text-anchor="end">0.15</text>
	<text x="190.71" y="1294.96" style="font-family:'Helvetica';font-size:99.99px;fill:#000000" transform="rotate(-90 190.71,1294.96)" text-anchor="middle">Difference in curves (%)</text>
	<line x1="521.73" y1="2489.19" x2="3859.02" y2="2489.19" style="stroke:#000000;stroke-width:5.76"/>
	<line x1="585.09" y1="2489.19" x2="585.09" y2="2529.16" style="stroke:#000000;stroke-width:5.76"/>
	<text x="585.09" y="2619.14" style="font-family:'Helvetica';font-size:99.99px;fill:#000000" text-anchor="middle">0</text>
	<line x1="1345.90" y1="2489.19" x2="1345.90" y2="2529.16" style="stroke:#000000;stroke-width:5.76"/>
	<text x="1345.90" y="2619.14" style="font-family:'Helvetica';font-size:99.99px;fill:#000000" text-anchor="middle">50</text>
	<line x1="2106.72" y1="2489.19" x2="2106.72" y2="2529.16" style="stroke:#000000;stroke-width:5.76"/>
	<text x="2106.72" y="2619.14" style="font-family:'Helvetica';font-size:99.99px;fill:#000000" text-anchor="middle">100</text>
	<line x1="2867.53" y1="2489.19" x2="2867.53" y2="2529.16" style="stroke:#000000;stroke-width:5.76"/>
	<text x="2867.53" y="2619.14" style="font-family:'Helvetica';font-size:99.99px;fill:#000000" text-anchor="middle">150</text>
	<line x1="3628.35" y1="2489.19" x2="3628.35" y2="2529.16" style="stroke:#000000;stroke-width:5.76"/>
	<text x="3628.35" y="2619.14" style="font-family:'Helvetica';font-size:99.99px;fill:#000000" text-anchor="middle">200</text>
	<text x="2190.38" y="2729.16" style="font-family:'Helvetica';font-size:99.99px;fill:#000000" text-anchor="middle">Days from 1 March 2020</text>
</svg>
