<?xml version="1.0" encoding="UTF-8" standalone="no"?>
<!-- This is a Stata 16.1 generated SVG file (http://www.stata.com) -->

<svg version="1.1" width="5.50in" height="4.00in" viewBox="0 0 3960 2880" xmlns="http://www.w3.org/2000/svg" xmlns:xlink="http://www.w3.org/1999/xlink">
	<desc>Stata Graph - Graph</desc>
	<rect x="0" y="0" width="3960" height="2880" style="fill:#EAF2F3;stroke:none"/>
	<rect x="0.00" y="0.00" width="3959.88" height="2880.00" style="fill:#EAF2F3"/>
	<rect x="2.88" y="2.88" width="3954.12" height="2874.24" style="fill:none;stroke:#EAF2F3;stroke-width:5.76"/>
	<rect x="521.73" y="100.86" width="3337.29" height="2388.33" style="fill:#FFFFFF"/>
	<rect x="524.61" y="103.74" width="3331.53" height="2382.57" style="fill:none;stroke:#FFFFFF;stroke-width:5.76"/>
	<line x1="521.73" y1="2289.08" x2="3859.02" y2="2289.08" style="stroke:#EAF2F3;stroke-width:8.64"/>
	<line x1="521.73" y1="1345.20" x2="3859.02" y2="1345.20" style="stroke:#EAF2F3;stroke-width:8.64"/>
	<line x1="521.73" y1="401.33" x2="3859.02" y2="401.33" style="stroke:#EAF2F3;stroke-width:8.64"/>
	<defs>
		<path id="path_FaRvjtBy" d="M585.09 2289.08 L585.09 2289.08 L600.31 2289.08 L615.53 2289.08 L630.75 2289.20 L645.98 2289.20 L661.20 2289.32 L676.42 2289.57 L691.64 2289.82 L706.86 2290.19 L722.08 2290.81 L737.30 2291.43 L752.52 2292.17 L767.75 2293.16 L782.97 2294.15 L798.19 2295.39 L813.41 2296.62 L828.63 2298.11 L843.85 2299.59 L859.07 2301.20 L874.29 2302.94 L889.51 2304.79 L904.61 2306.65 L919.83 2308.63 L935.05 2310.73 L950.28 2312.84 L965.50 2314.94 L980.72 2317.17 L995.94 2319.27 L1011.16 2321.50 L1026.38 2323.73 L1041.60 2326.08 L1056.83 2328.31 L1072.05 2330.53 L1087.27 2332.76 L1102.49 2334.99 L1117.71 2337.22 L1132.93 2339.32 L1148.15 2341.55 L1163.37 2343.65 L1178.60 2345.75 L1193.82 2347.86 L1209.04 2349.84 L1224.26 2351.82 L1239.48 2353.80 L1254.70 2355.65 L1269.80 2357.51 L1285.02 2359.37 L1300.24 2361.10 L1315.46 2362.83 L1330.68 2364.57 L1345.90 2366.17 L1361.13 2367.78 L1376.35 2369.39 L1391.57 2370.88 L1406.79 2372.36 L1422.01 2373.85 L1437.23 2375.33 L1452.45 2376.69 L1467.67 2378.05 L1482.90 2379.29 L1498.12 2380.65 L1513.34 2381.89 L1528.56 2383.00 L1543.78 2384.24 L1559.00 2385.36 L1574.22 2386.47 L1589.44 2387.58 L1604.67 2388.57 L1619.76 2389.69 L1634.98 2390.68 L1650.21 2391.67 L1665.43 2392.53 L1680.65 2393.52 L1695.87 2394.39 L1711.09 2395.26 L1726.31 2396.00 L1741.53 2396.86 L1756.76 2397.61 L1771.98 2398.47 L1787.20 2399.22 L1802.42 2399.96 L1817.64 2400.58 L1832.86 2401.32 L1848.08 2401.94 L1863.30 2402.68 L1878.53 2403.30 L1893.75 2403.92 L1908.97 2404.41 L1924.19 2405.03 L1939.41 2405.65 L1954.63 2406.15 L1969.85 2406.64 L1984.95 2407.26 L2000.17 2407.76 L2015.39 2408.25 L2030.61 2408.62 L2045.84 2409.12 L2061.06 2409.61 L2076.28 2409.98 L2091.50 2410.48 L2106.72 2410.85 L2121.94 2411.22 L2137.16 2411.59 L2152.38 2411.96 L2167.61 2412.33 L2182.83 2412.71 L2198.05 2413.08 L2213.27 2413.45 L2228.49 2413.82 L2243.71 2414.07 L2258.93 2414.44 L2274.15 2414.69 L2289.38 2415.06 L2304.60 2415.30 L2319.82 2415.55 L2335.04 2415.80 L2350.14 2416.05 L2365.36 2416.42 L2380.58 2416.67 L2395.80 2416.79 L2411.02 2417.04 L2426.24 2417.28 L2441.46 2417.53 L2456.68 2417.78 L2471.91 2418.03 L2487.13 2418.15 L2502.35 2418.40 L2517.57 2418.52 L2532.79 2418.77 L2548.01 2419.02 L2563.23 2419.14 L2578.45 2419.26 L2593.68 2419.51 L2608.90 2419.64 L2624.12 2419.76 L2639.34 2420.01 L2654.56 2420.13 L2669.78 2420.25 L2685.00 2420.38 L2700.22 2420.63 L2715.32 2420.75 L2730.54 2420.87 L2745.76 2421.00 L2760.99 2421.12 L2776.21 2421.24 L2791.43 2421.37 L2806.65 2421.49 L2821.87 2421.62 L2837.09 2421.74 L2852.31 2421.86 L2867.53 2421.99 L2882.76 2421.99 L2897.98 2422.11 L2913.20 2422.23 L2928.42 2422.36 L2943.64 2422.48 L2958.86 2422.48 L2974.08 2422.61 L2989.30 2422.73 L3004.53 2422.85 L3019.75 2422.85 L3034.97 2422.98 L3050.19 2423.10 L3065.41 2423.10 L3080.51 2423.22 L3095.73 2423.35 L3110.95 2423.35 L3126.17 2423.47 L3141.39 2423.60 L3156.61 2423.60 L3171.84 2423.72 L3187.06 2423.72 L3202.28 2423.84 L3217.50 2423.84 L3232.72 2423.97 L3247.94 2423.97 L3263.16 2424.09 L3278.39 2424.09 L3293.61 2424.21 L3308.83 2424.21 L3324.05 2424.34 L3339.27 2424.34 L3354.49 2424.46 L3369.71 2424.46 L3384.93 2424.59 L3400.16 2424.59 L3415.38 2424.71 L3430.47 2424.71 L3445.70 2424.71 L3460.92 2424.83 L3476.14 2424.83 L3491.36 2424.96 L3506.58 2424.96 L3521.80 2425.08 L3537.02 2425.08 L3552.24 2425.08 L3567.47 2425.20 L3582.69 2425.20 L3597.91 2425.20 L3613.13 2425.33 L3628.35 2425.33 L3643.57 2425.45 L3658.79 2425.45 L3674.01 2425.45 L3689.24 2425.58 L3704.46 2425.58 L3719.68 2425.58 L3734.90 2425.70 L3750.12 2425.70 L3765.34 2425.70 L3780.56 2425.82 L3795.66 2425.82 L3795.66 164.22 L3780.56 164.84 L3765.34 165.46 L3750.12 166.20 L3734.90 166.94 L3719.68 167.56 L3704.46 168.31 L3689.24 168.92 L3674.01 169.67 L3658.79 170.41 L3643.57 171.15 L3628.35 171.77 L3613.13 172.51 L3597.91 173.26 L3582.69 174.00 L3567.47 174.74 L3552.24 175.48 L3537.02 176.23 L3521.80 177.09 L3506.58 177.83 L3491.36 178.58 L3476.14 179.44 L3460.92 180.19 L3445.70 181.05 L3430.47 181.92 L3415.38 182.66 L3400.16 183.53 L3384.93 184.39 L3369.71 185.26 L3354.49 186.13 L3339.27 187.12 L3324.05 187.98 L3308.83 188.97 L3293.61 189.84 L3278.39 190.83 L3263.16 191.82 L3247.94 192.81 L3232.72 193.80 L3217.50 194.91 L3202.28 195.90 L3187.06 197.02 L3171.84 198.13 L3156.61 199.24 L3141.39 200.36 L3126.17 201.47 L3110.95 202.71 L3095.73 203.82 L3080.51 205.06 L3065.41 206.30 L3050.19 207.66 L3034.97 208.90 L3019.75 210.26 L3004.53 211.62 L2989.30 212.98 L2974.08 214.47 L2958.86 215.95 L2943.64 217.44 L2928.42 218.92 L2913.20 220.53 L2897.98 222.14 L2882.76 223.75 L2867.53 225.36 L2852.31 227.09 L2837.09 228.82 L2821.87 230.68 L2806.65 232.53 L2791.43 234.39 L2776.21 236.37 L2760.99 238.35 L2745.76 240.33 L2730.54 242.43 L2715.32 244.54 L2700.22 246.77 L2685.00 248.99 L2669.78 251.34 L2654.56 253.70 L2639.34 256.17 L2624.12 258.65 L2608.90 261.12 L2593.68 263.84 L2578.45 266.44 L2563.23 269.29 L2548.01 272.13 L2532.79 274.98 L2517.57 277.95 L2502.35 281.05 L2487.13 284.26 L2471.91 287.48 L2456.68 290.82 L2441.46 294.16 L2426.24 297.75 L2411.02 301.34 L2395.80 305.05 L2380.58 308.89 L2365.36 312.73 L2350.14 316.81 L2335.04 320.89 L2319.82 325.23 L2304.60 329.56 L2289.38 334.01 L2274.15 338.59 L2258.93 343.42 L2243.71 348.24 L2228.49 353.32 L2213.27 358.39 L2198.05 363.71 L2182.83 369.16 L2167.61 374.85 L2152.38 380.54 L2137.16 386.48 L2121.94 392.55 L2106.72 398.86 L2091.50 405.29 L2076.28 411.98 L2061.06 418.78 L2045.84 425.84 L2030.61 433.01 L2015.39 440.44 L2000.17 448.11 L1984.95 455.91 L1969.85 463.95 L1954.63 472.37 L1939.41 480.91 L1924.19 489.69 L1908.97 498.73 L1893.75 508.01 L1878.53 517.66 L1863.30 527.56 L1848.08 537.71 L1832.86 548.11 L1817.64 558.87 L1802.42 569.89 L1787.20 581.27 L1771.98 593.03 L1756.76 605.03 L1741.53 617.41 L1726.31 630.15 L1711.09 643.27 L1695.87 656.76 L1680.65 670.62 L1665.43 684.98 L1650.21 699.58 L1634.98 714.80 L1619.76 730.27 L1604.67 746.24 L1589.44 762.70 L1574.22 779.65 L1559.00 796.97 L1543.78 814.80 L1528.56 833.23 L1513.34 852.05 L1498.12 871.47 L1482.90 891.40 L1467.67 911.94 L1452.45 932.98 L1437.23 954.64 L1422.01 976.79 L1406.79 999.56 L1391.57 1022.95 L1376.35 1046.96 L1361.13 1071.58 L1345.90 1096.83 L1330.68 1122.70 L1315.46 1149.18 L1300.24 1176.28 L1285.02 1204.13 L1269.80 1232.46 L1254.70 1261.55 L1239.48 1291.25 L1224.26 1321.57 L1209.04 1352.63 L1193.82 1384.19 L1178.60 1416.24 L1163.37 1449.03 L1148.15 1482.20 L1132.93 1515.98 L1117.71 1550.02 L1102.49 1584.54 L1087.27 1619.32 L1072.05 1654.22 L1056.83 1689.36 L1041.60 1724.51 L1026.38 1759.66 L1011.16 1794.55 L995.94 1829.33 L980.72 1863.61 L965.50 1897.52 L950.28 1930.68 L935.05 1963.23 L919.83 1994.79 L904.61 2025.48 L889.51 2054.93 L874.29 2083.03 L859.07 2109.76 L843.85 2134.88 L828.63 2158.39 L813.41 2180.05 L798.19 2199.72 L782.97 2217.42 L767.75 2233.01 L752.52 2246.50 L737.30 2258.01 L722.08 2267.29 L706.86 2274.72 L691.64 2280.17 L676.42 2284.13 L661.20 2286.72 L645.98 2288.09 L630.75 2288.83 L615.53 2289.08 L600.31 2289.08 L585.09 2289.08 L585.09 2289.08 Z" stroke-linejoin="round"/>
	</defs>
	<defs>
		<clipPath id="clipPath_mMAyTbNC">
			<use xlink:href="#path_FaRvjtBy"/>
		</clipPath>
	</defs>
	<use xlink:href="#path_FaRvjtBy" style="stroke:none;fill:#FF3333;fill-opacity:0.25"/>
	<use xlink:href="#path_FaRvjtBy" style="fill:none;stroke:#FF0000;stroke-opacity:0.25;stroke-width:17.28" clip-path="url(#clipPath_mMAyTbNC)"/>
	<path d=" M585.09 2289.20 L600.31 2289.20 L615.53 2289.20 L630.75 2289.08 L645.98 2288.70 L661.20 2288.09 L676.42 2286.85 L691.64 2285.12 L706.86 2282.52 L721.96 2279.05 L737.18 2274.72 L752.40 2269.40 L767.62 2263.09 L782.84 2255.79 L798.06 2247.62 L813.28 2238.34 L828.51 2228.31 L843.73 2217.30 L858.95 2205.54 L874.17 2193.04 L889.39 2179.92 L904.61 2166.06 L919.83 2151.83 L935.05 2136.98 L950.28 2121.76 L965.50 2106.29 L980.72 2090.45 L995.94 2074.36 L1011.16 2058.15 L1026.38 2041.82 L1041.60 2025.36 L1056.83 2008.90 L1072.05 1992.44 L1087.14 1976.10 L1102.37 1959.77 L1117.59 1943.68 L1132.81 1927.71 L1148.03 1912.00 L1163.25 1896.40 L1178.47 1881.06 L1193.69 1866.08 L1208.91 1851.23 L1224.13 1836.75 L1239.36 1822.65 L1254.58 1808.66 L1269.80 1795.05 L1285.02 1781.81 L1300.24 1768.81 L1315.46 1756.07 L1330.68 1743.69 L1345.90 1731.56 L1361.13 1719.81 L1376.35 1708.17 L1391.57 1697.04 L1406.79 1686.02 L1422.01 1675.38 L1437.23 1664.98 L1452.33 1654.84 L1467.55 1645.06 L1482.77 1635.41 L1497.99 1626.13 L1513.21 1617.09 L1528.44 1608.18 L1543.66 1599.64 L1558.88 1591.23 L1574.10 1583.06 L1589.32 1575.26 L1604.54 1567.47 L1619.76 1560.04 L1634.98 1552.74 L1650.21 1545.69 L1665.43 1538.76 L1680.65 1532.07 L1695.87 1525.64 L1711.09 1519.33 L1726.31 1513.14 L1741.53 1507.20 L1756.76 1501.38 L1771.98 1495.81 L1787.20 1490.24 L1802.30 1484.92 L1817.52 1479.85 L1832.74 1474.77 L1847.96 1469.95 L1863.18 1465.12 L1878.40 1460.54 L1893.62 1456.09 L1908.84 1451.63 L1924.07 1447.43 L1939.29 1443.34 L1954.51 1439.26 L1969.73 1435.42 L1984.95 1431.58 L2000.17 1428.00 L2015.39 1424.41 L2030.61 1420.94 L2045.84 1417.48 L2061.06 1414.26 L2076.28 1411.04 L2091.50 1407.95 L2106.72 1404.98 L2121.94 1402.01 L2137.16 1399.16 L2152.38 1396.31 L2167.48 1393.72 L2182.70 1390.99 L2197.92 1388.52 L2213.14 1386.04 L2228.37 1383.57 L2243.59 1381.22 L2258.81 1378.99 L2274.03 1376.76 L2289.25 1374.53 L2304.47 1372.43 L2319.69 1370.45 L2334.91 1368.47 L2350.14 1366.49 L2365.36 1364.63 L2380.58 1362.78 L2395.80 1361.05 L2411.02 1359.31 L2426.24 1357.58 L2441.46 1355.97 L2456.68 1354.36 L2471.91 1352.75 L2487.13 1351.27 L2502.35 1349.78 L2517.57 1348.30 L2532.67 1346.94 L2547.89 1345.58 L2563.11 1344.21 L2578.33 1342.98 L2593.55 1341.74 L2608.77 1340.50 L2623.99 1339.26 L2639.22 1338.15 L2654.44 1336.91 L2669.66 1335.92 L2684.88 1334.81 L2700.10 1333.70 L2715.32 1332.71 L2730.54 1331.72 L2745.76 1330.73 L2760.99 1329.74 L2776.21 1328.87 L2791.43 1328.00 L2806.65 1327.01 L2821.87 1326.15 L2837.09 1325.40 L2852.31 1324.54 L2867.53 1323.67 L2882.76 1322.93 L2897.85 1322.19 L2913.07 1321.44 L2928.30 1320.70 L2943.52 1319.96 L2958.74 1319.34 L2973.96 1318.60 L2989.18 1317.98 L3004.40 1317.24 L3019.62 1316.62 L3034.84 1316.00 L3050.07 1315.38 L3065.29 1314.76 L3080.51 1314.27 L3095.73 1313.65 L3110.95 1313.03 L3126.17 1312.53 L3141.39 1312.04 L3156.61 1311.42 L3171.84 1310.92 L3187.06 1310.43 L3202.28 1309.93 L3217.50 1309.44 L3232.72 1308.94 L3247.94 1308.45 L3263.04 1307.95 L3278.26 1307.58 L3293.48 1307.09 L3308.70 1306.72 L3323.93 1306.22 L3339.15 1305.85 L3354.37 1305.36 L3369.59 1304.98 L3384.81 1304.49 L3400.03 1304.12 L3415.25 1303.75 L3430.47 1303.38 L3445.70 1303.00 L3460.92 1302.63 L3476.14 1302.26 L3491.36 1301.89 L3506.58 1301.52 L3521.80 1301.15 L3537.02 1300.78 L3552.24 1300.41 L3567.47 1300.03 L3582.69 1299.66 L3597.91 1299.29 L3613.01 1299.04 L3628.23 1298.67 L3643.45 1298.30 L3658.67 1297.93 L3673.89 1297.68 L3689.11 1297.31 L3704.33 1296.94 L3719.55 1296.69 L3734.78 1296.32 L3750.00 1296.07 L3765.22 1295.70 L3780.44 1295.33 L3795.66 1295.08" stroke-linejoin="round" style="fill:none;stroke:#FF0000;stroke-width:8.64"/>
	<line x1="521.73" y1="2489.19" x2="521.73" y2="100.86" style="stroke:#000000;stroke-width:5.76"/>
	<line x1="521.73" y1="2289.08" x2="481.76" y2="2289.08" style="stroke:#000000;stroke-width:5.76"/>
	<text x="461.83" y="2324.10" style="font-family:'Helvetica';font-size:99.99px;fill:#000000" text-anchor="end">0.00</text>
	<line x1="521.73" y1="1345.20" x2="481.76" y2="1345.20" style="stroke:#000000;stroke-width:5.76"/>
	<text x="461.83" y="1380.23" style="font-family:'Helvetica';font-size:99.99px;fill:#000000" text-anchor="end">0.05</text>
	<line x1="521.73" y1="401.33" x2="481.76" y2="401.33" style="stroke:#000000;stroke-width:5.76"/>
	<text x="461.83" y="436.36" style="font-family:'Helvetica';font-size:99.99px;fill:#000000" text-anchor="end">0.10</text>
	<text x="190.71" y="1294.96" style="font-family:'Helvetica';font-size:99.99px;fill:#000000" transform="rotate(-90 190.71,1294.96)" text-anchor="middle">Difference in curves (%)</text>
	<line x1="521.73" y1="2489.19" x2="3859.02" y2="2489.19" style="stroke:#000000;stroke-width:5.76"/>
	<line x1="585.09" y1="2489.19" x2="585.09" y2="2529.16" style="stroke:#000000;stroke-width:5.76"/>
	<text x="585.09" y="2619.14" style="font-family:'Helvetica';font-size:99.99px;fill:#000000" text-anchor="middle">0</text>
	<line x1="1345.90" y1="2489.19" x2="1345.90" y2="2529.16" style="stroke:#000000;stroke-width:5.76"/>
	<text x="1345.90" y="2619.14" style="font-family:'Helvetica';font-size:99.99px;fill:#000000" text-anchor="middle">50</text>
	<line x1="2106.72" y1="2489.19" x2="2106.72" y2="2529.16" style="stroke:#000000;stroke-width:5.76"/>
	<text x="2106.72" y="2619.14" style="font-family:'Helvetica';font-size:99.99px;fill:#000000" text-anchor="middle">100</text>
	<line x1="2867.53" y1="2489.19" x2="2867.53" y2="2529.16" style="stroke:#000000;stroke-width:5.76"/>
	<text x="2867.53" y="2619.14" style="font-family:'Helvetica';font-size:99.99px;fill:#000000" text-anchor="middle">150</text>
	<line x1="3628.35" y1="2489.19" x2="3628.35" y2="2529.16" style="stroke:#000000;stroke-width:5.76"/>
	<text x="3628.35" y="2619.14" style="font-family:'Helvetica';font-size:99.99px;fill:#000000" text-anchor="middle">200</text>
	<text x="2190.38" y="2729.16" style="font-family:'Helvetica';font-size:99.99px;fill:#000000" text-anchor="middle">Days from 1 March 2020</text>
</svg>
