<?xml version="1.0" encoding="UTF-8" standalone="no"?>
<!-- This is a Stata 16.1 generated SVG file (http://www.stata.com) -->

<svg version="1.1" width="5.50in" height="4.00in" viewBox="0 0 3960 2880" xmlns="http://www.w3.org/2000/svg" xmlns:xlink="http://www.w3.org/1999/xlink">
	<desc>Stata Graph - Graph</desc>
	<rect x="0" y="0" width="3960" height="2880" style="fill:#EAF2F3;stroke:none"/>
	<rect x="0.00" y="0.00" width="3959.88" height="2880.00" style="fill:#EAF2F3"/>
	<rect x="2.88" y="2.88" width="3954.12" height="2874.24" style="fill:none;stroke:#EAF2F3;stroke-width:5.76"/>
	<rect x="521.73" y="100.86" width="3337.29" height="2388.33" style="fill:#FFFFFF"/>
	<rect x="524.61" y="103.74" width="3331.53" height="2382.57" style="fill:none;stroke:#FFFFFF;stroke-width:5.76"/>
	<line x1="521.73" y1="2425.82" x2="3859.02" y2="2425.82" style="stroke:#EAF2F3;stroke-width:8.64"/>
	<line x1="521.73" y1="1900.49" x2="3859.02" y2="1900.49" style="stroke:#EAF2F3;stroke-width:8.64"/>
	<line x1="521.73" y1="1375.15" x2="3859.02" y2="1375.15" style="stroke:#EAF2F3;stroke-width:8.64"/>
	<line x1="521.73" y1="849.69" x2="3859.02" y2="849.69" style="stroke:#EAF2F3;stroke-width:8.64"/>
	<line x1="521.73" y1="324.36" x2="3859.02" y2="324.36" style="stroke:#EAF2F3;stroke-width:8.64"/>
	<defs>
		<path id="path_BsuViXjL" d="M585.09 2425.82 L585.09 2425.82 L600.31 2425.82 L615.53 2425.82 L630.75 2425.82 L645.98 2425.70 L661.20 2425.58 L676.42 2425.33 L691.64 2424.96 L706.86 2424.46 L722.08 2423.84 L737.30 2423.10 L752.52 2422.11 L767.75 2420.87 L782.97 2419.51 L798.19 2417.90 L813.41 2416.17 L828.63 2414.07 L843.85 2411.84 L859.07 2409.36 L874.29 2406.77 L889.51 2403.80 L904.61 2400.70 L919.83 2397.24 L935.05 2393.65 L950.28 2389.93 L965.50 2385.85 L980.72 2381.64 L995.94 2377.19 L1011.16 2372.49 L1026.38 2367.66 L1041.60 2362.59 L1056.83 2357.26 L1072.05 2351.82 L1087.27 2346.25 L1102.49 2340.31 L1117.71 2334.37 L1132.93 2328.18 L1148.15 2321.87 L1163.37 2315.31 L1178.60 2308.63 L1193.82 2301.82 L1209.04 2294.89 L1224.26 2287.71 L1239.48 2280.41 L1254.70 2272.99 L1269.80 2265.56 L1285.02 2257.89 L1300.24 2250.09 L1315.46 2242.17 L1330.68 2234.13 L1345.90 2225.96 L1361.13 2217.79 L1376.35 2209.50 L1391.57 2200.96 L1406.79 2192.55 L1422.01 2183.88 L1437.23 2175.22 L1452.45 2166.44 L1467.67 2157.52 L1482.90 2148.61 L1498.12 2139.58 L1513.34 2130.42 L1528.56 2121.39 L1543.78 2112.11 L1559.00 2102.83 L1574.22 2093.54 L1589.44 2084.14 L1604.67 2074.73 L1619.76 2065.33 L1634.98 2055.80 L1650.21 2046.27 L1665.43 2036.62 L1680.65 2026.96 L1695.87 2017.31 L1711.09 2007.66 L1726.31 1998.01 L1741.53 1988.23 L1756.76 1978.45 L1771.98 1968.68 L1787.20 1958.90 L1802.42 1949.12 L1817.64 1939.22 L1832.86 1929.45 L1848.08 1919.55 L1863.30 1909.77 L1878.53 1899.87 L1893.75 1889.97 L1908.97 1880.19 L1924.19 1870.29 L1939.41 1860.39 L1954.63 1850.62 L1969.85 1840.72 L1984.95 1830.81 L2000.17 1821.04 L2015.39 1811.14 L2030.61 1801.36 L2045.84 1791.58 L2061.06 1781.68 L2076.28 1771.91 L2091.50 1762.13 L2106.72 1752.35 L2121.94 1742.58 L2137.16 1732.80 L2152.38 1723.03 L2167.61 1713.25 L2182.83 1703.47 L2198.05 1693.70 L2213.27 1684.04 L2228.49 1674.27 L2243.71 1664.49 L2258.93 1654.84 L2274.15 1645.06 L2289.38 1635.41 L2304.60 1625.75 L2319.82 1615.98 L2335.04 1606.33 L2350.14 1596.67 L2365.36 1587.02 L2380.58 1577.37 L2395.80 1567.71 L2411.02 1558.06 L2426.24 1548.41 L2441.46 1538.76 L2456.68 1529.10 L2471.91 1519.45 L2487.13 1509.92 L2502.35 1500.27 L2517.57 1490.62 L2532.79 1480.96 L2548.01 1471.43 L2563.23 1461.78 L2578.45 1452.25 L2593.68 1442.60 L2608.90 1432.95 L2624.12 1423.42 L2639.34 1413.76 L2654.56 1404.24 L2669.78 1394.58 L2685.00 1385.05 L2700.22 1375.40 L2715.32 1365.87 L2730.54 1356.22 L2745.76 1346.69 L2760.99 1337.04 L2776.21 1327.51 L2791.43 1317.98 L2806.65 1308.33 L2821.87 1298.67 L2837.09 1289.14 L2852.31 1279.49 L2867.53 1269.96 L2882.76 1260.31 L2897.98 1250.78 L2913.20 1241.13 L2928.42 1231.47 L2943.64 1221.95 L2958.86 1212.29 L2974.08 1202.64 L2989.30 1192.99 L3004.53 1183.46 L3019.75 1173.81 L3034.97 1164.15 L3050.19 1154.50 L3065.41 1144.85 L3080.51 1135.19 L3095.73 1125.54 L3110.95 1115.89 L3126.17 1106.24 L3141.39 1096.58 L3156.61 1086.93 L3171.84 1077.28 L3187.06 1067.50 L3202.28 1057.85 L3217.50 1048.20 L3232.72 1038.54 L3247.94 1028.89 L3263.16 1019.11 L3278.39 1009.46 L3293.61 999.81 L3308.83 990.03 L3324.05 980.38 L3339.27 970.60 L3354.49 960.95 L3369.71 951.17 L3384.93 941.52 L3400.16 931.74 L3415.38 922.09 L3430.47 912.31 L3445.70 902.54 L3460.92 892.88 L3476.14 883.11 L3491.36 873.33 L3506.58 863.68 L3521.80 853.90 L3537.02 844.13 L3552.24 834.35 L3567.47 824.57 L3582.69 814.80 L3597.91 805.02 L3613.13 795.24 L3628.35 785.47 L3643.57 775.69 L3658.79 765.91 L3674.01 756.14 L3689.24 746.36 L3704.46 736.58 L3719.68 726.81 L3734.90 717.03 L3750.12 707.25 L3765.34 697.35 L3780.56 687.58 L3795.66 677.80 L3795.66 164.22 L3780.56 176.84 L3765.34 189.47 L3750.12 202.09 L3734.90 214.71 L3719.68 227.34 L3704.46 240.08 L3689.24 252.71 L3674.01 265.33 L3658.79 277.83 L3643.57 290.45 L3628.35 303.07 L3613.13 315.70 L3597.91 328.32 L3582.69 340.94 L3567.47 353.44 L3552.24 366.06 L3537.02 378.69 L3521.80 391.19 L3506.58 403.81 L3491.36 416.43 L3476.14 428.93 L3460.92 441.55 L3445.70 454.05 L3430.47 466.55 L3415.38 479.17 L3400.16 491.67 L3384.93 504.17 L3369.71 516.80 L3354.49 529.30 L3339.27 541.79 L3324.05 554.29 L3308.83 566.79 L3293.61 579.29 L3278.39 591.91 L3263.16 604.41 L3247.94 616.91 L3232.72 629.29 L3217.50 641.79 L3202.28 654.29 L3187.06 666.79 L3171.84 679.28 L3156.61 691.78 L3141.39 704.28 L3126.17 716.66 L3110.95 729.16 L3095.73 741.66 L3080.51 754.03 L3065.41 766.53 L3050.19 778.91 L3034.97 791.41 L3019.75 803.78 L3004.53 816.28 L2989.30 828.66 L2974.08 841.16 L2958.86 853.53 L2943.64 865.91 L2928.42 878.40 L2913.20 890.78 L2897.98 903.16 L2882.76 915.53 L2867.53 928.03 L2852.31 940.41 L2837.09 952.78 L2821.87 965.16 L2806.65 977.53 L2791.43 989.91 L2776.21 1002.28 L2760.99 1014.66 L2745.76 1027.03 L2730.54 1039.53 L2715.32 1051.91 L2700.22 1064.28 L2685.00 1076.66 L2669.78 1089.03 L2654.56 1101.41 L2639.34 1113.78 L2624.12 1126.16 L2608.90 1138.66 L2593.68 1151.03 L2578.45 1163.41 L2563.23 1175.79 L2548.01 1188.28 L2532.79 1200.66 L2517.57 1213.16 L2502.35 1225.53 L2487.13 1237.91 L2471.91 1250.41 L2456.68 1262.91 L2441.46 1275.28 L2426.24 1287.78 L2411.02 1300.28 L2395.80 1312.66 L2380.58 1325.16 L2365.36 1337.66 L2350.14 1350.15 L2335.04 1362.65 L2319.82 1375.15 L2304.60 1387.78 L2289.38 1400.28 L2274.15 1412.77 L2258.93 1425.40 L2243.71 1437.90 L2228.49 1450.52 L2213.27 1463.02 L2198.05 1475.64 L2182.83 1488.26 L2167.61 1500.89 L2152.38 1513.51 L2137.16 1526.13 L2121.94 1538.76 L2106.72 1551.38 L2091.50 1564.13 L2076.28 1576.75 L2061.06 1589.37 L2045.84 1602.12 L2030.61 1614.86 L2015.39 1627.49 L2000.17 1640.23 L1984.95 1652.98 L1969.85 1665.73 L1954.63 1678.47 L1939.41 1691.22 L1924.19 1703.97 L1908.97 1716.71 L1893.75 1729.46 L1878.53 1742.33 L1863.30 1755.08 L1848.08 1767.82 L1832.86 1780.57 L1817.64 1793.32 L1802.42 1805.94 L1787.20 1818.69 L1771.98 1831.43 L1756.76 1844.06 L1741.53 1856.68 L1726.31 1869.30 L1711.09 1881.93 L1695.87 1894.42 L1680.65 1906.92 L1665.43 1919.42 L1650.21 1931.80 L1634.98 1944.17 L1619.76 1956.55 L1604.67 1968.80 L1589.44 1981.05 L1574.22 1993.18 L1559.00 2005.31 L1543.78 2017.31 L1528.56 2029.19 L1513.34 2041.07 L1498.12 2052.83 L1482.90 2064.59 L1467.67 2076.09 L1452.45 2087.60 L1437.23 2098.99 L1422.01 2110.37 L1406.79 2121.51 L1391.57 2132.53 L1376.35 2143.54 L1361.13 2154.31 L1345.90 2164.95 L1330.68 2175.59 L1315.46 2185.99 L1300.24 2196.26 L1285.02 2206.28 L1269.80 2216.18 L1254.70 2225.96 L1239.48 2235.61 L1224.26 2245.02 L1209.04 2254.30 L1193.82 2263.33 L1178.60 2272.12 L1163.37 2280.78 L1148.15 2289.20 L1132.93 2297.49 L1117.71 2305.53 L1102.49 2313.33 L1087.27 2320.88 L1072.05 2328.18 L1056.83 2335.24 L1041.60 2342.04 L1026.38 2348.60 L1011.16 2354.91 L995.94 2360.98 L980.72 2366.79 L965.50 2372.36 L950.28 2377.56 L935.05 2382.51 L919.83 2387.21 L904.61 2391.67 L889.51 2395.75 L874.29 2399.59 L859.07 2403.18 L843.85 2406.39 L828.63 2409.36 L813.41 2412.09 L798.19 2414.56 L782.97 2416.67 L767.75 2418.52 L752.52 2420.25 L737.30 2421.62 L722.08 2422.73 L706.86 2423.72 L691.64 2424.46 L676.42 2424.96 L661.20 2425.33 L645.98 2425.58 L630.75 2425.70 L615.53 2425.82 L600.31 2425.82 L585.09 2425.82 L585.09 2425.82 Z" stroke-linejoin="round"/>
	</defs>
	<defs>
		<clipPath id="clipPath_GIDuTxsE">
			<use xlink:href="#path_BsuViXjL"/>
		</clipPath>
	</defs>
	<use xlink:href="#path_BsuViXjL" style="stroke:none;fill:#FF3333;fill-opacity:0.25"/>
	<use xlink:href="#path_BsuViXjL" style="fill:none;stroke:#FF0000;stroke-opacity:0.25;stroke-width:17.28" clip-path="url(#clipPath_GIDuTxsE)"/>
	<path d=" M585.09 2425.95 L600.31 2425.95 L615.53 2425.95 L630.75 2425.82 L645.98 2425.70 L661.20 2425.58 L676.42 2425.20 L691.64 2424.71 L706.86 2424.21 L721.96 2423.35 L737.18 2422.36 L752.40 2421.24 L767.62 2419.76 L782.84 2418.15 L798.06 2416.29 L813.28 2414.19 L828.51 2411.84 L843.73 2409.24 L858.95 2406.39 L874.17 2403.18 L889.39 2399.83 L904.61 2396.25 L919.83 2392.29 L935.05 2388.20 L950.28 2383.75 L965.50 2379.17 L980.72 2374.22 L995.94 2369.14 L1011.16 2363.82 L1026.38 2358.25 L1041.60 2352.31 L1056.83 2346.37 L1072.05 2340.06 L1087.14 2333.63 L1102.37 2326.94 L1117.59 2320.01 L1132.81 2312.84 L1148.03 2305.66 L1163.25 2298.11 L1178.47 2290.44 L1193.69 2282.64 L1208.91 2274.60 L1224.13 2266.43 L1239.36 2258.14 L1254.58 2249.60 L1269.80 2240.94 L1285.02 2232.15 L1300.24 2223.24 L1315.46 2214.08 L1330.68 2204.92 L1345.90 2195.52 L1361.13 2186.11 L1376.35 2176.58 L1391.57 2166.81 L1406.79 2157.03 L1422.01 2147.13 L1437.23 2137.11 L1452.33 2127.08 L1467.55 2116.93 L1482.77 2106.66 L1497.99 2096.27 L1513.21 2085.87 L1528.44 2075.35 L1543.66 2064.71 L1558.88 2054.07 L1574.10 2043.42 L1589.32 2032.66 L1604.54 2021.89 L1619.76 2011.00 L1634.98 2000.11 L1650.21 1989.10 L1665.43 1978.08 L1680.65 1967.07 L1695.87 1955.93 L1711.09 1944.79 L1726.31 1933.65 L1741.53 1922.52 L1756.76 1911.38 L1771.98 1900.12 L1787.20 1888.86 L1802.30 1877.59 L1817.52 1866.33 L1832.74 1855.07 L1847.96 1843.69 L1863.18 1832.42 L1878.40 1821.16 L1893.62 1809.78 L1908.84 1798.51 L1924.07 1787.25 L1939.29 1775.87 L1954.51 1764.61 L1969.73 1753.22 L1984.95 1741.96 L2000.17 1730.70 L2015.39 1719.44 L2030.61 1708.17 L2045.84 1696.91 L2061.06 1685.65 L2076.28 1674.39 L2091.50 1663.13 L2106.72 1651.99 L2121.94 1640.73 L2137.16 1629.47 L2152.38 1618.33 L2167.48 1607.07 L2182.70 1595.93 L2197.92 1584.79 L2213.14 1573.53 L2228.37 1562.39 L2243.59 1551.25 L2258.81 1540.12 L2274.03 1528.98 L2289.25 1517.84 L2304.47 1506.83 L2319.69 1495.69 L2334.91 1484.55 L2350.14 1473.54 L2365.36 1462.40 L2380.58 1451.39 L2395.80 1440.25 L2411.02 1429.23 L2426.24 1418.10 L2441.46 1407.08 L2456.68 1396.07 L2471.91 1385.05 L2487.13 1374.04 L2502.35 1362.90 L2517.57 1351.89 L2532.67 1340.87 L2547.89 1329.86 L2563.11 1318.84 L2578.33 1307.83 L2593.55 1296.82 L2608.77 1285.93 L2623.99 1274.91 L2639.22 1263.90 L2654.44 1252.88 L2669.66 1241.87 L2684.88 1230.86 L2700.10 1219.97 L2715.32 1208.95 L2730.54 1197.94 L2745.76 1186.92 L2760.99 1175.91 L2776.21 1165.02 L2791.43 1154.00 L2806.65 1142.99 L2821.87 1131.98 L2837.09 1120.96 L2852.31 1110.07 L2867.53 1099.06 L2882.76 1088.04 L2897.85 1077.03 L2913.07 1066.02 L2928.30 1055.00 L2943.52 1043.99 L2958.74 1032.97 L2973.96 1021.96 L2989.18 1010.95 L3004.40 999.93 L3019.62 988.92 L3034.84 977.78 L3050.07 966.77 L3065.29 955.75 L3080.51 944.74 L3095.73 933.60 L3110.95 922.59 L3126.17 911.57 L3141.39 900.43 L3156.61 889.42 L3171.84 878.28 L3187.06 867.27 L3202.28 856.13 L3217.50 845.12 L3232.72 833.98 L3247.94 822.96 L3263.04 811.83 L3278.26 800.69 L3293.48 789.67 L3308.70 778.54 L3323.93 767.40 L3339.15 756.26 L3354.37 745.12 L3369.59 733.98 L3384.81 722.97 L3400.03 711.83 L3415.25 700.69 L3430.47 689.56 L3445.70 678.42 L3460.92 667.28 L3476.14 656.14 L3491.36 644.88 L3506.58 633.74 L3521.80 622.61 L3537.02 611.47 L3552.24 600.33 L3567.47 589.07 L3582.69 577.93 L3597.91 566.79 L3613.01 555.53 L3628.23 544.39 L3643.45 533.13 L3658.67 521.99 L3673.89 510.73 L3689.11 499.59 L3704.33 488.33 L3719.55 477.19 L3734.78 465.93 L3750.00 454.67 L3765.22 443.53 L3780.44 432.27 L3795.66 421.01" stroke-linejoin="round" style="fill:none;stroke:#FF0000;stroke-width:8.64"/>
	<line x1="521.73" y1="2489.19" x2="521.73" y2="100.86" style="stroke:#000000;stroke-width:5.76"/>
	<line x1="521.73" y1="2425.82" x2="481.76" y2="2425.82" style="stroke:#000000;stroke-width:5.76"/>
	<text x="461.83" y="2460.85" style="font-family:'Helvetica';font-size:99.99px;fill:#000000" text-anchor="end">0.00</text>
	<line x1="521.73" y1="1900.49" x2="481.76" y2="1900.49" style="stroke:#000000;stroke-width:5.76"/>
	<text x="461.83" y="1935.52" style="font-family:'Helvetica';font-size:99.99px;fill:#000000" text-anchor="end">0.50</text>
	<line x1="521.73" y1="1375.15" x2="481.76" y2="1375.15" style="stroke:#000000;stroke-width:5.76"/>
	<text x="461.83" y="1410.18" style="font-family:'Helvetica';font-size:99.99px;fill:#000000" text-anchor="end">1.00</text>
	<line x1="521.73" y1="849.69" x2="481.76" y2="849.69" style="stroke:#000000;stroke-width:5.76"/>
	<text x="461.83" y="884.72" style="font-family:'Helvetica';font-size:99.99px;fill:#000000" text-anchor="end">1.50</text>
	<line x1="521.73" y1="324.36" x2="481.76" y2="324.36" style="stroke:#000000;stroke-width:5.76"/>
	<text x="461.83" y="359.39" style="font-family:'Helvetica';font-size:99.99px;fill:#000000" text-anchor="end">2.00</text>
	<text x="190.71" y="1294.96" style="font-family:'Helvetica';font-size:99.99px;fill:#000000" transform="rotate(-90 190.71,1294.96)" text-anchor="middle">Difference in curves (%)</text>
	<line x1="521.73" y1="2489.19" x2="3859.02" y2="2489.19" style="stroke:#000000;stroke-width:5.76"/>
	<line x1="585.09" y1="2489.19" x2="585.09" y2="2529.16" style="stroke:#000000;stroke-width:5.76"/>
	<text x="585.09" y="2619.14" style="font-family:'Helvetica';font-size:99.99px;fill:#000000" text-anchor="middle">0</text>
	<line x1="1345.90" y1="2489.19" x2="1345.90" y2="2529.16" style="stroke:#000000;stroke-width:5.76"/>
	<text x="1345.90" y="2619.14" style="font-family:'Helvetica';font-size:99.99px;fill:#000000" text-anchor="middle">50</text>
	<line x1="2106.72" y1="2489.19" x2="2106.72" y2="2529.16" style="stroke:#000000;stroke-width:5.76"/>
	<text x="2106.72" y="2619.14" style="font-family:'Helvetica';font-size:99.99px;fill:#000000" text-anchor="middle">100</text>
	<line x1="2867.53" y1="2489.19" x2="2867.53" y2="2529.16" style="stroke:#000000;stroke-width:5.76"/>
	<text x="2867.53" y="2619.14" style="font-family:'Helvetica';font-size:99.99px;fill:#000000" text-anchor="middle">150</text>
	<line x1="3628.35" y1="2489.19" x2="3628.35" y2="2529.16" style="stroke:#000000;stroke-width:5.76"/>
	<text x="3628.35" y="2619.14" style="font-family:'Helvetica';font-size:99.99px;fill:#000000" text-anchor="middle">200</text>
	<text x="2190.38" y="2729.16" style="font-family:'Helvetica';font-size:99.99px;fill:#000000" text-anchor="middle">Days from 1 March 2020</text>
</svg>
