<?xml version="1.0" encoding="UTF-8" standalone="no"?>
<!-- This is a Stata 16.1 generated SVG file (http://www.stata.com) -->

<svg version="1.1" width="5.50in" height="4.00in" viewBox="0 0 3960 2880" xmlns="http://www.w3.org/2000/svg" xmlns:xlink="http://www.w3.org/1999/xlink">
	<desc>Stata Graph - Graph</desc>
	<rect x="0" y="0" width="3960" height="2880" style="fill:#EAF2F3;stroke:none"/>
	<rect x="0.00" y="0.00" width="3959.88" height="2880.00" style="fill:#EAF2F3"/>
	<rect x="2.88" y="2.88" width="3954.12" height="2874.24" style="fill:none;stroke:#EAF2F3;stroke-width:5.76"/>
	<rect x="521.73" y="100.86" width="3337.29" height="2388.33" style="fill:#FFFFFF"/>
	<rect x="524.61" y="103.74" width="3331.53" height="2382.57" style="fill:none;stroke:#FFFFFF;stroke-width:5.76"/>
	<line x1="521.73" y1="2425.82" x2="3859.02" y2="2425.82" style="stroke:#EAF2F3;stroke-width:8.64"/>
	<line x1="521.73" y1="1973.50" x2="3859.02" y2="1973.50" style="stroke:#EAF2F3;stroke-width:8.64"/>
	<line x1="521.73" y1="1521.18" x2="3859.02" y2="1521.18" style="stroke:#EAF2F3;stroke-width:8.64"/>
	<line x1="521.73" y1="1068.86" x2="3859.02" y2="1068.86" style="stroke:#EAF2F3;stroke-width:8.64"/>
	<line x1="521.73" y1="616.54" x2="3859.02" y2="616.54" style="stroke:#EAF2F3;stroke-width:8.64"/>
	<line x1="521.73" y1="164.22" x2="3859.02" y2="164.22" style="stroke:#EAF2F3;stroke-width:8.64"/>
	<defs>
		<path id="path_GiZvsukE" d="M585.09 2425.82 L585.09 2425.82 L600.31 2425.82 L615.53 2425.82 L630.75 2425.82 L645.98 2425.82 L661.20 2425.82 L676.42 2425.82 L691.64 2425.82 L706.86 2425.70 L722.08 2425.58 L737.30 2425.33 L752.52 2424.96 L767.75 2424.21 L782.97 2423.35 L798.19 2422.11 L813.41 2420.63 L828.63 2418.65 L843.85 2416.29 L859.07 2413.45 L874.29 2410.23 L889.51 2406.52 L904.61 2402.31 L919.83 2397.61 L935.05 2392.53 L950.28 2386.96 L965.50 2380.90 L980.72 2374.59 L995.94 2367.78 L1011.16 2360.73 L1026.38 2353.30 L1041.60 2345.63 L1056.83 2337.71 L1072.05 2329.67 L1087.27 2321.38 L1102.49 2312.96 L1117.71 2304.42 L1132.93 2295.88 L1148.15 2287.34 L1163.37 2278.68 L1178.60 2270.14 L1193.82 2261.73 L1209.04 2253.31 L1224.26 2244.90 L1239.48 2236.73 L1254.70 2228.68 L1269.80 2220.89 L1285.02 2213.21 L1300.24 2205.67 L1315.46 2198.36 L1330.68 2191.31 L1345.90 2184.50 L1361.13 2177.94 L1376.35 2171.51 L1391.57 2165.45 L1406.79 2159.50 L1422.01 2153.94 L1437.23 2148.49 L1452.45 2143.29 L1467.67 2138.47 L1482.90 2133.76 L1498.12 2129.19 L1513.34 2124.85 L1528.56 2120.77 L1543.78 2116.81 L1559.00 2113.10 L1574.22 2109.51 L1589.44 2106.04 L1604.67 2102.70 L1619.76 2099.48 L1634.98 2096.51 L1650.21 2093.54 L1665.43 2090.70 L1680.65 2087.98 L1695.87 2085.38 L1711.09 2082.90 L1726.31 2080.43 L1741.53 2078.07 L1756.76 2075.72 L1771.98 2073.50 L1787.20 2071.39 L1802.42 2069.29 L1817.64 2067.18 L1832.86 2065.20 L1848.08 2063.22 L1863.30 2061.24 L1878.53 2059.39 L1893.75 2057.41 L1908.97 2055.55 L1924.19 2053.70 L1939.41 2051.96 L1954.63 2050.11 L1969.85 2048.37 L1984.95 2046.64 L2000.17 2044.91 L2015.39 2043.18 L2030.61 2041.44 L2045.84 2039.83 L2061.06 2038.10 L2076.28 2036.49 L2091.50 2034.88 L2106.72 2033.28 L2121.94 2031.67 L2137.16 2030.06 L2152.38 2028.57 L2167.61 2026.96 L2182.83 2025.48 L2198.05 2023.99 L2213.27 2022.39 L2228.49 2020.90 L2243.71 2019.54 L2258.93 2018.05 L2274.15 2016.57 L2289.38 2015.21 L2304.60 2013.72 L2319.82 2012.36 L2335.04 2010.88 L2350.14 2009.52 L2365.36 2008.15 L2380.58 2006.79 L2395.80 2005.43 L2411.02 2004.19 L2426.24 2002.83 L2441.46 2001.47 L2456.68 2000.23 L2471.91 1998.87 L2487.13 1997.63 L2502.35 1996.40 L2517.57 1995.04 L2532.79 1993.80 L2548.01 1992.56 L2563.23 1991.32 L2578.45 1990.09 L2593.68 1988.85 L2608.90 1987.73 L2624.12 1986.50 L2639.34 1985.26 L2654.56 1984.15 L2669.78 1982.91 L2685.00 1981.79 L2700.22 1980.56 L2715.32 1979.44 L2730.54 1978.33 L2745.76 1977.22 L2760.99 1976.10 L2776.21 1974.86 L2791.43 1973.75 L2806.65 1972.76 L2821.87 1971.65 L2837.09 1970.53 L2852.31 1969.42 L2867.53 1968.31 L2882.76 1967.19 L2897.98 1966.20 L2913.20 1965.09 L2928.42 1964.10 L2943.64 1962.98 L2958.86 1961.99 L2974.08 1960.88 L2989.30 1959.89 L3004.53 1958.90 L3019.75 1957.79 L3034.97 1956.80 L3050.19 1955.81 L3065.41 1954.82 L3080.51 1953.83 L3095.73 1952.84 L3110.95 1951.85 L3126.17 1950.86 L3141.39 1949.87 L3156.61 1948.88 L3171.84 1947.89 L3187.06 1946.90 L3202.28 1945.91 L3217.50 1945.04 L3232.72 1944.05 L3247.94 1943.06 L3263.16 1942.19 L3278.39 1941.20 L3293.61 1940.21 L3308.83 1939.35 L3324.05 1938.36 L3339.27 1937.49 L3354.49 1936.50 L3369.71 1935.63 L3384.93 1934.77 L3400.16 1933.78 L3415.38 1932.91 L3430.47 1932.05 L3445.70 1931.06 L3460.92 1930.19 L3476.14 1929.32 L3491.36 1928.46 L3506.58 1927.59 L3521.80 1926.60 L3537.02 1925.73 L3552.24 1924.87 L3567.47 1924.00 L3582.69 1923.14 L3597.91 1922.27 L3613.13 1921.40 L3628.35 1920.54 L3643.57 1919.67 L3658.79 1918.93 L3674.01 1918.06 L3689.24 1917.19 L3704.46 1916.33 L3719.68 1915.46 L3734.90 1914.60 L3750.12 1913.85 L3765.34 1912.99 L3780.56 1912.12 L3795.66 1911.38 L3795.66 372.00 L3780.56 375.35 L3765.34 378.69 L3750.12 381.90 L3734.90 385.25 L3719.68 388.59 L3704.46 391.93 L3689.24 395.27 L3674.01 398.73 L3658.79 402.08 L3643.57 405.42 L3628.35 408.88 L3613.13 412.22 L3597.91 415.69 L3582.69 419.15 L3567.47 422.62 L3552.24 426.08 L3537.02 429.55 L3521.80 433.01 L3506.58 436.60 L3491.36 440.07 L3476.14 443.66 L3460.92 447.12 L3445.70 450.71 L3430.47 454.30 L3415.38 457.89 L3400.16 461.48 L3384.93 465.07 L3369.71 468.78 L3354.49 472.37 L3339.27 476.08 L3324.05 479.67 L3308.83 483.38 L3293.61 487.10 L3278.39 490.81 L3263.16 494.64 L3247.94 498.36 L3232.72 502.19 L3217.50 505.91 L3202.28 509.74 L3187.06 513.58 L3171.84 517.41 L3156.61 521.25 L3141.39 525.21 L3126.17 529.05 L3110.95 533.01 L3095.73 536.97 L3080.51 540.93 L3065.41 544.89 L3050.19 548.85 L3034.97 552.93 L3019.75 557.02 L3004.53 560.98 L2989.30 565.06 L2974.08 569.27 L2958.86 573.35 L2943.64 577.56 L2928.42 581.64 L2913.20 585.85 L2897.98 590.06 L2882.76 594.39 L2867.53 598.60 L2852.31 602.93 L2837.09 607.26 L2821.87 611.59 L2806.65 616.05 L2791.43 620.38 L2776.21 624.83 L2760.99 629.29 L2745.76 633.74 L2730.54 638.32 L2715.32 642.90 L2700.22 647.48 L2685.00 652.06 L2669.78 656.64 L2654.56 661.34 L2639.34 666.04 L2624.12 670.75 L2608.90 675.57 L2593.68 680.40 L2578.45 685.23 L2563.23 690.05 L2548.01 695.00 L2532.79 699.95 L2517.57 704.90 L2502.35 709.85 L2487.13 714.93 L2471.91 720.00 L2456.68 725.20 L2441.46 730.40 L2426.24 735.59 L2411.02 740.91 L2395.80 746.11 L2380.58 751.56 L2365.36 756.88 L2350.14 762.32 L2335.04 767.77 L2319.82 773.34 L2304.60 778.91 L2289.38 784.60 L2274.15 790.29 L2258.93 795.98 L2243.71 801.80 L2228.49 807.62 L2213.27 813.56 L2198.05 819.50 L2182.83 825.56 L2167.61 831.63 L2152.38 837.69 L2137.16 843.88 L2121.94 850.19 L2106.72 856.50 L2091.50 862.81 L2076.28 869.37 L2061.06 875.81 L2045.84 882.49 L2030.61 889.17 L2015.39 895.85 L2000.17 902.66 L1984.95 909.59 L1969.85 916.52 L1954.63 923.58 L1939.41 930.75 L1924.19 937.93 L1908.97 945.23 L1893.75 952.66 L1878.53 960.21 L1863.30 967.76 L1848.08 975.43 L1832.86 983.35 L1817.64 991.39 L1802.42 999.56 L1787.20 1007.98 L1771.98 1016.51 L1756.76 1025.42 L1741.53 1034.46 L1726.31 1043.86 L1711.09 1053.64 L1695.87 1063.66 L1680.65 1074.06 L1665.43 1084.83 L1650.21 1095.96 L1634.98 1107.72 L1619.76 1119.72 L1604.67 1132.47 L1589.44 1145.59 L1574.22 1159.33 L1559.00 1173.68 L1543.78 1188.66 L1528.56 1204.37 L1513.34 1220.83 L1498.12 1237.91 L1482.90 1255.85 L1467.67 1274.66 L1452.45 1294.34 L1437.23 1314.88 L1422.01 1336.29 L1406.79 1358.82 L1391.57 1382.21 L1376.35 1406.59 L1361.13 1431.96 L1345.90 1458.32 L1330.68 1485.54 L1315.46 1513.76 L1300.24 1542.72 L1285.02 1572.54 L1269.80 1603.11 L1254.70 1634.42 L1239.48 1666.47 L1224.26 1699.02 L1209.04 1732.06 L1193.82 1765.60 L1178.60 1799.38 L1163.37 1833.54 L1148.15 1867.69 L1132.93 1901.97 L1117.71 1936.13 L1102.49 1970.16 L1087.27 2003.82 L1072.05 2036.86 L1056.83 2069.41 L1041.60 2100.97 L1026.38 2131.78 L1011.16 2161.36 L995.94 2189.70 L980.72 2216.68 L965.50 2242.17 L950.28 2266.06 L935.05 2288.33 L919.83 2308.75 L904.61 2327.44 L889.51 2344.15 L874.29 2359.12 L859.07 2372.24 L843.85 2383.62 L828.63 2393.28 L813.41 2401.32 L798.19 2407.88 L782.97 2413.08 L767.75 2417.04 L752.52 2420.13 L737.30 2422.23 L722.08 2423.72 L706.86 2424.71 L691.64 2425.33 L676.42 2425.58 L661.20 2425.70 L645.98 2425.82 L630.75 2425.82 L615.53 2425.82 L600.31 2425.82 L585.09 2425.82 L585.09 2425.82 Z" stroke-linejoin="round"/>
	</defs>
	<defs>
		<clipPath id="clipPath_NJQfSvBK">
			<use xlink:href="#path_GiZvsukE"/>
		</clipPath>
	</defs>
	<use xlink:href="#path_GiZvsukE" style="stroke:none;fill:#FF3333;fill-opacity:0.25"/>
	<use xlink:href="#path_GiZvsukE" style="fill:none;stroke:#FF0000;stroke-opacity:0.25;stroke-width:17.28" clip-path="url(#clipPath_NJQfSvBK)"/>
	<path d=" M585.09 2425.95 L600.31 2425.95 L615.53 2425.95 L630.75 2425.95 L645.98 2425.95 L661.20 2425.82 L676.42 2425.82 L691.64 2425.58 L706.86 2425.33 L721.96 2424.71 L737.18 2423.84 L752.40 2422.61 L767.62 2420.75 L782.84 2418.27 L798.06 2415.06 L813.28 2410.97 L828.51 2406.02 L843.73 2399.96 L858.95 2392.90 L874.17 2384.74 L889.39 2375.46 L904.61 2364.94 L919.83 2353.30 L935.05 2340.43 L950.28 2326.57 L965.50 2311.60 L980.72 2295.76 L995.94 2278.80 L1011.16 2261.11 L1026.38 2242.54 L1041.60 2223.36 L1056.83 2203.69 L1072.05 2183.39 L1087.14 2162.60 L1102.37 2141.56 L1117.59 2120.40 L1132.81 2098.99 L1148.03 2077.58 L1163.25 2056.17 L1178.47 2034.88 L1193.69 2013.72 L1208.91 1992.68 L1224.13 1972.02 L1239.36 1951.72 L1254.58 1931.67 L1269.80 1912.12 L1285.02 1892.94 L1300.24 1874.25 L1315.46 1856.18 L1330.68 1838.49 L1345.90 1821.53 L1361.13 1805.07 L1376.35 1789.11 L1391.57 1773.89 L1406.79 1759.16 L1422.01 1745.18 L1437.23 1731.69 L1452.33 1718.94 L1467.55 1706.57 L1482.77 1694.81 L1497.99 1683.67 L1513.21 1672.90 L1528.44 1662.63 L1543.66 1652.86 L1558.88 1643.45 L1574.10 1634.42 L1589.32 1625.88 L1604.54 1617.59 L1619.76 1609.67 L1634.98 1602.12 L1650.21 1594.82 L1665.43 1587.89 L1680.65 1581.08 L1695.87 1574.52 L1711.09 1568.33 L1726.31 1562.27 L1741.53 1556.33 L1756.76 1550.64 L1771.98 1545.07 L1787.20 1539.75 L1802.30 1534.42 L1817.52 1529.35 L1832.74 1524.28 L1847.96 1519.45 L1863.18 1514.50 L1878.40 1509.80 L1893.62 1505.09 L1908.84 1500.52 L1924.07 1495.94 L1939.29 1491.36 L1954.51 1486.90 L1969.73 1482.45 L1984.95 1478.12 L2000.17 1473.78 L2015.39 1469.58 L2030.61 1465.37 L2045.84 1461.16 L2061.06 1457.08 L2076.28 1452.99 L2091.50 1448.91 L2106.72 1444.95 L2121.94 1440.99 L2137.16 1437.03 L2152.38 1433.19 L2167.48 1429.36 L2182.70 1425.52 L2197.92 1421.81 L2213.14 1418.10 L2228.37 1414.38 L2243.59 1410.67 L2258.81 1407.08 L2274.03 1403.49 L2289.25 1399.90 L2304.47 1396.44 L2319.69 1392.85 L2334.91 1389.38 L2350.14 1386.04 L2365.36 1382.58 L2380.58 1379.24 L2395.80 1375.90 L2411.02 1372.55 L2426.24 1369.21 L2441.46 1366.00 L2456.68 1362.78 L2471.91 1359.56 L2487.13 1356.34 L2502.35 1353.25 L2517.57 1350.03 L2532.67 1346.94 L2547.89 1343.84 L2563.11 1340.75 L2578.33 1337.66 L2593.55 1334.69 L2608.77 1331.72 L2623.99 1328.75 L2639.22 1325.78 L2654.44 1322.81 L2669.66 1319.83 L2684.88 1316.99 L2700.10 1314.14 L2715.32 1311.17 L2730.54 1308.33 L2745.76 1305.60 L2760.99 1302.76 L2776.21 1299.91 L2791.43 1297.19 L2806.65 1294.47 L2821.87 1291.62 L2837.09 1288.90 L2852.31 1286.30 L2867.53 1283.58 L2882.76 1280.85 L2897.85 1278.25 L2913.07 1275.53 L2928.30 1272.93 L2943.52 1270.33 L2958.74 1267.73 L2973.96 1265.14 L2989.18 1262.54 L3004.40 1260.06 L3019.62 1257.46 L3034.84 1254.86 L3050.07 1252.39 L3065.29 1249.91 L3080.51 1247.44 L3095.73 1244.96 L3110.95 1242.49 L3126.17 1240.01 L3141.39 1237.54 L3156.61 1235.19 L3171.84 1232.71 L3187.06 1230.36 L3202.28 1227.89 L3217.50 1225.53 L3232.72 1223.18 L3247.94 1220.83 L3263.04 1218.48 L3278.26 1216.13 L3293.48 1213.78 L3308.70 1211.43 L3323.93 1209.08 L3339.15 1206.85 L3354.37 1204.50 L3369.59 1202.27 L3384.81 1199.92 L3400.03 1197.69 L3415.25 1195.46 L3430.47 1193.23 L3445.70 1191.01 L3460.92 1188.78 L3476.14 1186.55 L3491.36 1184.32 L3506.58 1182.10 L3521.80 1179.87 L3537.02 1177.77 L3552.24 1175.54 L3567.47 1173.43 L3582.69 1171.21 L3597.91 1169.10 L3613.01 1166.88 L3628.23 1164.77 L3643.45 1162.67 L3658.67 1160.56 L3673.89 1158.46 L3689.11 1156.36 L3704.33 1154.25 L3719.55 1152.15 L3734.78 1150.04 L3750.00 1147.94 L3765.22 1145.84 L3780.44 1143.86 L3795.66 1141.75" stroke-linejoin="round" style="fill:none;stroke:#FF0000;stroke-width:8.64"/>
	<line x1="521.73" y1="2489.19" x2="521.73" y2="100.86" style="stroke:#000000;stroke-width:5.76"/>
	<line x1="521.73" y1="2425.82" x2="481.76" y2="2425.82" style="stroke:#000000;stroke-width:5.76"/>
	<text x="461.83" y="2460.85" style="font-family:'Helvetica';font-size:99.99px;fill:#000000" text-anchor="end">0.00</text>
	<line x1="521.73" y1="1973.50" x2="481.76" y2="1973.50" style="stroke:#000000;stroke-width:5.76"/>
	<text x="461.83" y="2008.53" style="font-family:'Helvetica';font-size:99.99px;fill:#000000" text-anchor="end">0.05</text>
	<line x1="521.73" y1="1521.18" x2="481.76" y2="1521.18" style="stroke:#000000;stroke-width:5.76"/>
	<text x="461.83" y="1556.21" style="font-family:'Helvetica';font-size:99.99px;fill:#000000" text-anchor="end">0.10</text>
	<line x1="521.73" y1="1068.86" x2="481.76" y2="1068.86" style="stroke:#000000;stroke-width:5.76"/>
	<text x="461.83" y="1103.89" style="font-family:'Helvetica';font-size:99.99px;fill:#000000" text-anchor="end">0.15</text>
	<line x1="521.73" y1="616.54" x2="481.76" y2="616.54" style="stroke:#000000;stroke-width:5.76"/>
	<text x="461.83" y="651.57" style="font-family:'Helvetica';font-size:99.99px;fill:#000000" text-anchor="end">0.20</text>
	<line x1="521.73" y1="164.22" x2="481.76" y2="164.22" style="stroke:#000000;stroke-width:5.76"/>
	<text x="461.83" y="199.25" style="font-family:'Helvetica';font-size:99.99px;fill:#000000" text-anchor="end">0.25</text>
	<text x="190.71" y="1294.96" style="font-family:'Helvetica';font-size:99.99px;fill:#000000" transform="rotate(-90 190.71,1294.96)" text-anchor="middle">Difference in curves (%)</text>
	<line x1="521.73" y1="2489.19" x2="3859.02" y2="2489.19" style="stroke:#000000;stroke-width:5.76"/>
	<line x1="585.09" y1="2489.19" x2="585.09" y2="2529.16" style="stroke:#000000;stroke-width:5.76"/>
	<text x="585.09" y="2619.14" style="font-family:'Helvetica';font-size:99.99px;fill:#000000" text-anchor="middle">0</text>
	<line x1="1345.90" y1="2489.19" x2="1345.90" y2="2529.16" style="stroke:#000000;stroke-width:5.76"/>
	<text x="1345.90" y="2619.14" style="font-family:'Helvetica';font-size:99.99px;fill:#000000" text-anchor="middle">50</text>
	<line x1="2106.72" y1="2489.19" x2="2106.72" y2="2529.16" style="stroke:#000000;stroke-width:5.76"/>
	<text x="2106.72" y="2619.14" style="font-family:'Helvetica';font-size:99.99px;fill:#000000" text-anchor="middle">100</text>
	<line x1="2867.53" y1="2489.19" x2="2867.53" y2="2529.16" style="stroke:#000000;stroke-width:5.76"/>
	<text x="2867.53" y="2619.14" style="font-family:'Helvetica';font-size:99.99px;fill:#000000" text-anchor="middle">150</text>
	<line x1="3628.35" y1="2489.19" x2="3628.35" y2="2529.16" style="stroke:#000000;stroke-width:5.76"/>
	<text x="3628.35" y="2619.14" style="font-family:'Helvetica';font-size:99.99px;fill:#000000" text-anchor="middle">200</text>
	<text x="2190.38" y="2729.16" style="font-family:'Helvetica';font-size:99.99px;fill:#000000" text-anchor="middle">Days from 1 March 2020</text>
</svg>
