<?xml version="1.0" encoding="UTF-8" standalone="no"?>
<!-- This is a Stata 16.1 generated SVG file (http://www.stata.com) -->

<svg version="1.1" width="5.50in" height="4.00in" viewBox="0 0 3960 2880" xmlns="http://www.w3.org/2000/svg" xmlns:xlink="http://www.w3.org/1999/xlink">
	<desc>Stata Graph - Graph</desc>
	<rect x="0" y="0" width="3960" height="2880" style="fill:#EAF2F3;stroke:none"/>
	<rect x="0.00" y="0.00" width="3959.88" height="2880.00" style="fill:#EAF2F3"/>
	<rect x="2.88" y="2.88" width="3954.12" height="2874.24" style="fill:none;stroke:#EAF2F3;stroke-width:5.76"/>
	<rect x="521.73" y="100.86" width="3337.29" height="2388.33" style="fill:#FFFFFF"/>
	<rect x="524.61" y="103.74" width="3331.53" height="2382.57" style="fill:none;stroke:#FFFFFF;stroke-width:5.76"/>
	<line x1="521.73" y1="2425.82" x2="3859.02" y2="2425.82" style="stroke:#EAF2F3;stroke-width:8.64"/>
	<line x1="521.73" y1="1671.91" x2="3859.02" y2="1671.91" style="stroke:#EAF2F3;stroke-width:8.64"/>
	<line x1="521.73" y1="918.01" x2="3859.02" y2="918.01" style="stroke:#EAF2F3;stroke-width:8.64"/>
	<line x1="521.73" y1="164.22" x2="3859.02" y2="164.22" style="stroke:#EAF2F3;stroke-width:8.64"/>
	<defs>
		<path id="path_ecHkpvFk" d="M585.09 2425.82 L585.09 2425.82 L600.31 2424.71 L615.53 2423.72 L630.75 2422.85 L645.98 2422.11 L661.20 2421.37 L676.42 2420.63 L691.64 2419.88 L706.86 2419.26 L722.08 2418.52 L737.30 2417.90 L752.52 2417.28 L767.75 2416.67 L782.97 2416.05 L798.19 2415.43 L813.41 2414.93 L828.63 2414.31 L843.85 2413.70 L859.07 2413.20 L874.29 2412.71 L889.51 2412.09 L904.61 2411.59 L919.83 2411.10 L935.05 2410.48 L950.28 2409.98 L965.50 2409.49 L980.72 2408.99 L995.94 2408.50 L1011.16 2408.00 L1026.38 2407.51 L1041.60 2407.01 L1056.83 2406.52 L1072.05 2406.02 L1087.27 2405.53 L1102.49 2405.16 L1117.71 2404.66 L1132.93 2404.17 L1148.15 2403.67 L1163.37 2403.30 L1178.60 2402.81 L1193.82 2402.31 L1209.04 2401.94 L1224.26 2401.44 L1239.48 2401.07 L1254.70 2400.58 L1269.80 2400.08 L1285.02 2399.71 L1300.24 2399.22 L1315.46 2398.84 L1330.68 2398.47 L1345.90 2397.98 L1361.13 2397.61 L1376.35 2397.11 L1391.57 2396.74 L1406.79 2396.37 L1422.01 2395.87 L1437.23 2395.50 L1452.45 2395.13 L1467.67 2394.64 L1482.90 2394.27 L1498.12 2393.89 L1513.34 2393.52 L1528.56 2393.03 L1543.78 2392.66 L1559.00 2392.29 L1574.22 2391.91 L1589.44 2391.54 L1604.67 2391.05 L1619.76 2390.68 L1634.98 2390.31 L1650.21 2389.93 L1665.43 2389.56 L1680.65 2389.19 L1695.87 2388.82 L1711.09 2388.45 L1726.31 2388.08 L1741.53 2387.71 L1756.76 2387.21 L1771.98 2386.84 L1787.20 2386.47 L1802.42 2386.10 L1817.64 2385.73 L1832.86 2385.36 L1848.08 2384.98 L1863.30 2384.74 L1878.53 2384.37 L1893.75 2383.99 L1908.97 2383.62 L1924.19 2383.25 L1939.41 2382.88 L1954.63 2382.51 L1969.85 2382.14 L1984.95 2381.77 L2000.17 2381.40 L2015.39 2381.02 L2030.61 2380.78 L2045.84 2380.41 L2061.06 2380.03 L2076.28 2379.66 L2091.50 2379.29 L2106.72 2378.92 L2121.94 2378.67 L2137.16 2378.30 L2152.38 2377.93 L2167.61 2377.56 L2182.83 2377.19 L2198.05 2376.94 L2213.27 2376.57 L2228.49 2376.20 L2243.71 2375.83 L2258.93 2375.58 L2274.15 2375.21 L2289.38 2374.84 L2304.60 2374.47 L2319.82 2374.22 L2335.04 2373.85 L2350.14 2373.48 L2365.36 2373.23 L2380.58 2372.86 L2395.80 2372.49 L2411.02 2372.11 L2426.24 2371.87 L2441.46 2371.50 L2456.68 2371.12 L2471.91 2370.88 L2487.13 2370.51 L2502.35 2370.26 L2517.57 2369.89 L2532.79 2369.52 L2548.01 2369.27 L2563.23 2368.90 L2578.45 2368.53 L2593.68 2368.28 L2608.90 2367.91 L2624.12 2367.66 L2639.34 2367.29 L2654.56 2366.92 L2669.78 2366.67 L2685.00 2366.30 L2700.22 2366.05 L2715.32 2365.68 L2730.54 2365.43 L2745.76 2365.06 L2760.99 2364.81 L2776.21 2364.44 L2791.43 2364.07 L2806.65 2363.82 L2821.87 2363.45 L2837.09 2363.20 L2852.31 2362.83 L2867.53 2362.59 L2882.76 2362.21 L2897.98 2361.97 L2913.20 2361.60 L2928.42 2361.35 L2943.64 2360.98 L2958.86 2360.73 L2974.08 2360.36 L2989.30 2360.11 L3004.53 2359.86 L3019.75 2359.49 L3034.97 2359.24 L3050.19 2358.87 L3065.41 2358.62 L3080.51 2358.25 L3095.73 2358.01 L3110.95 2357.63 L3126.17 2357.39 L3141.39 2357.14 L3156.61 2356.77 L3171.84 2356.52 L3187.06 2356.15 L3202.28 2355.90 L3217.50 2355.53 L3232.72 2355.28 L3247.94 2355.04 L3263.16 2354.66 L3278.39 2354.42 L3293.61 2354.05 L3308.83 2353.80 L3324.05 2353.55 L3339.27 2353.18 L3354.49 2352.93 L3369.71 2352.68 L3384.93 2352.31 L3400.16 2352.07 L3415.38 2351.82 L3430.47 2351.45 L3445.70 2351.20 L3460.92 2350.83 L3476.14 2350.58 L3491.36 2350.33 L3506.58 2349.96 L3521.80 2349.71 L3537.02 2349.47 L3552.24 2349.22 L3567.47 2348.85 L3582.69 2348.60 L3597.91 2348.35 L3613.13 2347.98 L3628.35 2347.73 L3643.57 2347.49 L3658.79 2347.12 L3674.01 2346.87 L3689.24 2346.62 L3704.46 2346.25 L3719.68 2346.00 L3734.90 2345.75 L3750.12 2345.51 L3765.34 2345.14 L3780.56 2344.89 L3795.66 2344.64 L3795.66 465.44 L3780.56 472.12 L3765.34 478.68 L3750.12 485.36 L3734.90 492.05 L3719.68 498.73 L3704.46 505.29 L3689.24 512.09 L3674.01 518.78 L3658.79 525.46 L3643.57 532.14 L3628.35 538.82 L3613.13 545.63 L3597.91 552.31 L3582.69 559.12 L3567.47 565.80 L3552.24 572.61 L3537.02 579.42 L3521.80 586.22 L3506.58 593.03 L3491.36 599.83 L3476.14 606.64 L3460.92 613.45 L3445.70 620.38 L3430.47 627.18 L3415.38 634.11 L3400.16 640.92 L3384.93 647.85 L3369.71 654.78 L3354.49 661.59 L3339.27 668.52 L3324.05 675.45 L3308.83 682.50 L3293.61 689.43 L3278.39 696.36 L3263.16 703.42 L3247.94 710.35 L3232.72 717.40 L3217.50 724.33 L3202.28 731.39 L3187.06 738.44 L3171.84 745.49 L3156.61 752.55 L3141.39 759.60 L3126.17 766.78 L3110.95 773.83 L3095.73 780.89 L3080.51 788.06 L3065.41 795.24 L3050.19 802.30 L3034.97 809.47 L3019.75 816.65 L3004.53 823.83 L2989.30 831.13 L2974.08 838.31 L2958.86 845.49 L2943.64 852.79 L2928.42 860.09 L2913.20 867.27 L2897.98 874.57 L2882.76 881.87 L2867.53 889.17 L2852.31 896.60 L2837.09 903.90 L2821.87 911.20 L2806.65 918.62 L2791.43 926.05 L2776.21 933.35 L2760.99 940.78 L2745.76 948.20 L2730.54 955.75 L2715.32 963.18 L2700.22 970.60 L2685.00 978.15 L2669.78 985.70 L2654.56 993.12 L2639.34 1000.67 L2624.12 1008.22 L2608.90 1015.90 L2593.68 1023.44 L2578.45 1030.99 L2563.23 1038.67 L2548.01 1046.34 L2532.79 1054.01 L2517.57 1061.68 L2502.35 1069.36 L2487.13 1077.03 L2471.91 1084.83 L2456.68 1092.50 L2441.46 1100.30 L2426.24 1108.09 L2411.02 1115.89 L2395.80 1123.69 L2380.58 1131.61 L2365.36 1139.40 L2350.14 1147.32 L2335.04 1155.24 L2319.82 1163.16 L2304.60 1171.08 L2289.38 1179.00 L2274.15 1187.05 L2258.93 1194.97 L2243.71 1203.01 L2228.49 1211.06 L2213.27 1219.10 L2198.05 1227.27 L2182.83 1235.31 L2167.61 1243.48 L2152.38 1251.65 L2137.16 1259.81 L2121.94 1267.98 L2106.72 1276.27 L2091.50 1284.44 L2076.28 1292.73 L2061.06 1301.02 L2045.84 1309.32 L2030.61 1317.73 L2015.39 1326.02 L2000.17 1334.44 L1984.95 1342.85 L1969.85 1351.39 L1954.63 1359.81 L1939.41 1368.35 L1924.19 1376.89 L1908.97 1385.42 L1893.75 1393.96 L1878.53 1402.63 L1863.30 1411.29 L1848.08 1419.95 L1832.86 1428.61 L1817.64 1437.40 L1802.42 1446.19 L1787.20 1454.97 L1771.98 1463.76 L1756.76 1472.67 L1741.53 1481.58 L1726.31 1490.49 L1711.09 1499.40 L1695.87 1508.44 L1680.65 1517.47 L1665.43 1526.50 L1650.21 1535.66 L1634.98 1544.82 L1619.76 1553.98 L1604.67 1563.14 L1589.44 1572.42 L1574.22 1581.70 L1559.00 1591.10 L1543.78 1600.39 L1528.56 1609.91 L1513.34 1619.32 L1498.12 1628.85 L1482.90 1638.38 L1467.67 1648.03 L1452.45 1657.68 L1437.23 1667.34 L1422.01 1677.11 L1406.79 1686.89 L1391.57 1696.79 L1376.35 1706.69 L1361.13 1716.59 L1345.90 1726.61 L1330.68 1736.76 L1315.46 1746.79 L1300.24 1757.06 L1285.02 1767.33 L1269.80 1777.60 L1254.70 1788.00 L1239.48 1798.39 L1224.26 1808.91 L1209.04 1819.55 L1193.82 1830.20 L1178.60 1840.96 L1163.37 1851.73 L1148.15 1862.62 L1132.93 1873.63 L1117.71 1884.65 L1102.49 1895.91 L1087.27 1907.17 L1072.05 1918.43 L1056.83 1929.94 L1041.60 1941.45 L1026.38 1953.08 L1011.16 1964.84 L995.94 1976.84 L980.72 1988.85 L965.50 2000.98 L950.28 2013.23 L935.05 2025.73 L919.83 2038.23 L904.61 2050.97 L889.51 2063.97 L874.29 2077.08 L859.07 2090.33 L843.85 2103.82 L828.63 2117.68 L813.41 2131.54 L798.19 2145.89 L782.97 2160.37 L767.75 2175.22 L752.52 2190.44 L737.30 2206.04 L722.08 2222.12 L706.86 2238.58 L691.64 2255.79 L676.42 2273.61 L661.20 2292.29 L645.98 2312.09 L630.75 2333.38 L615.53 2356.77 L600.31 2383.87 L585.09 2425.82 L585.09 2425.82 Z" stroke-linejoin="round"/>
	</defs>
	<defs>
		<clipPath id="clipPath_JwsqHPdc">
			<use xlink:href="#path_ecHkpvFk"/>
		</clipPath>
	</defs>
	<use xlink:href="#path_ecHkpvFk" style="stroke:none;fill:#FF3333;fill-opacity:0.25"/>
	<use xlink:href="#path_ecHkpvFk" style="fill:none;stroke:#FF0000;stroke-opacity:0.25;stroke-width:17.28" clip-path="url(#clipPath_JwsqHPdc)"/>
	<path d=" M585.09 2425.95 L600.31 2404.29 L615.53 2390.31 L630.75 2378.18 L645.98 2367.16 L661.20 2356.89 L676.42 2347.12 L691.64 2337.96 L706.86 2329.05 L721.96 2320.39 L737.18 2312.09 L752.40 2303.93 L767.62 2296.01 L782.84 2288.33 L798.06 2280.66 L813.28 2273.36 L828.51 2266.06 L843.73 2258.88 L858.95 2251.83 L874.17 2244.90 L889.39 2238.09 L904.61 2231.41 L919.83 2224.72 L935.05 2218.16 L950.28 2211.73 L965.50 2205.29 L980.72 2198.98 L995.94 2192.67 L1011.16 2186.48 L1026.38 2180.42 L1041.60 2174.36 L1056.83 2168.29 L1072.05 2162.35 L1087.14 2156.41 L1102.37 2150.59 L1117.59 2144.78 L1132.81 2138.96 L1148.03 2133.27 L1163.25 2127.58 L1178.47 2121.88 L1193.69 2116.31 L1208.91 2110.75 L1224.13 2105.30 L1239.36 2099.73 L1254.58 2094.29 L1269.80 2088.97 L1285.02 2083.52 L1300.24 2078.20 L1315.46 2072.88 L1330.68 2067.68 L1345.90 2062.36 L1361.13 2057.16 L1376.35 2051.96 L1391.57 2046.77 L1406.79 2041.69 L1422.01 2036.62 L1437.23 2031.54 L1452.33 2026.47 L1467.55 2021.40 L1482.77 2016.45 L1497.99 2011.37 L1513.21 2006.42 L1528.44 2001.47 L1543.66 1996.64 L1558.88 1991.69 L1574.10 1986.87 L1589.32 1982.04 L1604.54 1977.22 L1619.76 1972.39 L1634.98 1967.56 L1650.21 1962.86 L1665.43 1958.03 L1680.65 1953.33 L1695.87 1948.63 L1711.09 1943.93 L1726.31 1939.35 L1741.53 1934.64 L1756.76 1930.07 L1771.98 1925.36 L1787.20 1920.78 L1802.30 1916.20 L1817.52 1911.63 L1832.74 1907.05 L1847.96 1902.59 L1863.18 1898.01 L1878.40 1893.56 L1893.62 1888.98 L1908.84 1884.52 L1924.07 1880.07 L1939.29 1875.61 L1954.51 1871.16 L1969.73 1866.83 L1984.95 1862.37 L2000.17 1858.04 L2015.39 1853.59 L2030.61 1849.25 L2045.84 1844.92 L2061.06 1840.59 L2076.28 1836.26 L2091.50 1831.93 L2106.72 1827.60 L2121.94 1823.39 L2137.16 1819.06 L2152.38 1814.85 L2167.48 1810.52 L2182.70 1806.31 L2197.92 1802.10 L2213.14 1797.90 L2228.37 1793.69 L2243.59 1789.48 L2258.81 1785.27 L2274.03 1781.19 L2289.25 1776.98 L2304.47 1772.90 L2319.69 1768.69 L2334.91 1764.61 L2350.14 1760.40 L2365.36 1756.31 L2380.58 1752.23 L2395.80 1748.15 L2411.02 1744.06 L2426.24 1739.98 L2441.46 1736.02 L2456.68 1731.94 L2471.91 1727.85 L2487.13 1723.89 L2502.35 1719.81 L2517.57 1715.85 L2532.67 1711.76 L2547.89 1707.80 L2563.11 1703.84 L2578.33 1699.88 L2593.55 1695.92 L2608.77 1691.96 L2623.99 1688.00 L2639.22 1684.04 L2654.44 1680.08 L2669.66 1676.25 L2684.88 1672.29 L2700.10 1668.45 L2715.32 1664.49 L2730.54 1660.65 L2745.76 1656.69 L2760.99 1652.86 L2776.21 1649.02 L2791.43 1645.18 L2806.65 1641.22 L2821.87 1637.39 L2837.09 1633.55 L2852.31 1629.71 L2867.53 1626.00 L2882.76 1622.17 L2897.85 1618.33 L2913.07 1614.49 L2928.30 1610.78 L2943.52 1606.94 L2958.74 1603.23 L2973.96 1599.39 L2989.18 1595.68 L3004.40 1591.85 L3019.62 1588.13 L3034.84 1584.42 L3050.07 1580.71 L3065.29 1577.00 L3080.51 1573.28 L3095.73 1569.57 L3110.95 1565.86 L3126.17 1562.15 L3141.39 1558.43 L3156.61 1554.72 L3171.84 1551.01 L3187.06 1547.42 L3202.28 1543.71 L3217.50 1539.99 L3232.72 1536.40 L3247.94 1532.69 L3263.04 1529.10 L3278.26 1525.39 L3293.48 1521.80 L3308.70 1518.21 L3323.93 1514.62 L3339.15 1510.91 L3354.37 1507.32 L3369.59 1503.73 L3384.81 1500.14 L3400.03 1496.56 L3415.25 1492.97 L3430.47 1489.38 L3445.70 1485.79 L3460.92 1482.20 L3476.14 1478.73 L3491.36 1475.15 L3506.58 1471.56 L3521.80 1468.09 L3537.02 1464.50 L3552.24 1460.91 L3567.47 1457.45 L3582.69 1453.86 L3597.91 1450.40 L3613.01 1446.81 L3628.23 1443.34 L3643.45 1439.88 L3658.67 1436.41 L3673.89 1432.82 L3689.11 1429.36 L3704.33 1425.89 L3719.55 1422.43 L3734.78 1418.96 L3750.00 1415.50 L3765.22 1412.03 L3780.44 1408.57 L3795.66 1405.10" stroke-linejoin="round" style="fill:none;stroke:#FF0000;stroke-width:8.64"/>
	<line x1="521.73" y1="2489.19" x2="521.73" y2="100.86" style="stroke:#000000;stroke-width:5.76"/>
	<line x1="521.73" y1="2425.82" x2="481.76" y2="2425.82" style="stroke:#000000;stroke-width:5.76"/>
	<text x="461.83" y="2460.85" style="font-family:'Helvetica';font-size:99.99px;fill:#000000" text-anchor="end">0.00</text>
	<line x1="521.73" y1="1671.91" x2="481.76" y2="1671.91" style="stroke:#000000;stroke-width:5.76"/>
	<text x="461.83" y="1706.94" style="font-family:'Helvetica';font-size:99.99px;fill:#000000" text-anchor="end">0.05</text>
	<line x1="521.73" y1="918.01" x2="481.76" y2="918.01" style="stroke:#000000;stroke-width:5.76"/>
	<text x="461.83" y="953.03" style="font-family:'Helvetica';font-size:99.99px;fill:#000000" text-anchor="end">0.10</text>
	<line x1="521.73" y1="164.22" x2="481.76" y2="164.22" style="stroke:#000000;stroke-width:5.76"/>
	<text x="461.83" y="199.25" style="font-family:'Helvetica';font-size:99.99px;fill:#000000" text-anchor="end">0.15</text>
	<text x="190.71" y="1294.96" style="font-family:'Helvetica';font-size:99.99px;fill:#000000" transform="rotate(-90 190.71,1294.96)" text-anchor="middle">Difference in curves (%)</text>
	<line x1="521.73" y1="2489.19" x2="3859.02" y2="2489.19" style="stroke:#000000;stroke-width:5.76"/>
	<line x1="585.09" y1="2489.19" x2="585.09" y2="2529.16" style="stroke:#000000;stroke-width:5.76"/>
	<text x="585.09" y="2619.14" style="font-family:'Helvetica';font-size:99.99px;fill:#000000" text-anchor="middle">0</text>
	<line x1="1345.90" y1="2489.19" x2="1345.90" y2="2529.16" style="stroke:#000000;stroke-width:5.76"/>
	<text x="1345.90" y="2619.14" style="font-family:'Helvetica';font-size:99.99px;fill:#000000" text-anchor="middle">50</text>
	<line x1="2106.72" y1="2489.19" x2="2106.72" y2="2529.16" style="stroke:#000000;stroke-width:5.76"/>
	<text x="2106.72" y="2619.14" style="font-family:'Helvetica';font-size:99.99px;fill:#000000" text-anchor="middle">100</text>
	<line x1="2867.53" y1="2489.19" x2="2867.53" y2="2529.16" style="stroke:#000000;stroke-width:5.76"/>
	<text x="2867.53" y="2619.14" style="font-family:'Helvetica';font-size:99.99px;fill:#000000" text-anchor="middle">150</text>
	<line x1="3628.35" y1="2489.19" x2="3628.35" y2="2529.16" style="stroke:#000000;stroke-width:5.76"/>
	<text x="3628.35" y="2619.14" style="font-family:'Helvetica';font-size:99.99px;fill:#000000" text-anchor="middle">200</text>
	<text x="2190.38" y="2729.16" style="font-family:'Helvetica';font-size:99.99px;fill:#000000" text-anchor="middle">Days from 1 March 2020</text>
</svg>
