<?xml version="1.0" encoding="UTF-8" standalone="no"?>
<!-- This is a Stata 16.1 generated SVG file (http://www.stata.com) -->

<svg version="1.1" width="5.50in" height="4.00in" viewBox="0 0 3960 2880" xmlns="http://www.w3.org/2000/svg" xmlns:xlink="http://www.w3.org/1999/xlink">
	<desc>Stata Graph - Graph</desc>
	<rect x="0" y="0" width="3960" height="2880" style="fill:#EAF2F3;stroke:none"/>
	<rect x="0.00" y="0.00" width="3959.88" height="2880.00" style="fill:#EAF2F3"/>
	<rect x="2.88" y="2.88" width="3954.12" height="2874.24" style="fill:none;stroke:#EAF2F3;stroke-width:5.76"/>
	<rect x="521.73" y="100.86" width="3337.29" height="2388.33" style="fill:#FFFFFF"/>
	<rect x="524.61" y="103.74" width="3331.53" height="2382.57" style="fill:none;stroke:#FFFFFF;stroke-width:5.76"/>
	<line x1="521.73" y1="2425.82" x2="3859.02" y2="2425.82" style="stroke:#EAF2F3;stroke-width:8.64"/>
	<line x1="521.73" y1="1867.45" x2="3859.02" y2="1867.45" style="stroke:#EAF2F3;stroke-width:8.64"/>
	<line x1="521.73" y1="1308.94" x2="3859.02" y2="1308.94" style="stroke:#EAF2F3;stroke-width:8.64"/>
	<line x1="521.73" y1="750.44" x2="3859.02" y2="750.44" style="stroke:#EAF2F3;stroke-width:8.64"/>
	<line x1="521.73" y1="191.94" x2="3859.02" y2="191.94" style="stroke:#EAF2F3;stroke-width:8.64"/>
	<defs>
		<path id="path_cMjKmTnT" d="M585.09 2425.82 L585.09 2425.82 L600.31 2425.82 L615.53 2425.82 L630.75 2425.82 L645.98 2425.70 L661.20 2425.58 L676.42 2425.45 L691.64 2425.20 L706.86 2424.83 L722.08 2424.34 L737.30 2423.84 L752.52 2423.10 L767.75 2422.36 L782.97 2421.49 L798.19 2420.50 L813.41 2419.26 L828.63 2418.03 L843.85 2416.54 L859.07 2415.06 L874.29 2413.32 L889.51 2411.47 L904.61 2409.49 L919.83 2407.26 L935.05 2405.03 L950.28 2402.56 L965.50 2399.96 L980.72 2397.24 L995.94 2394.27 L1011.16 2391.30 L1026.38 2388.08 L1041.60 2384.61 L1056.83 2381.15 L1072.05 2377.44 L1087.27 2373.60 L1102.49 2369.64 L1117.71 2365.56 L1132.93 2361.35 L1148.15 2356.89 L1163.37 2352.31 L1178.60 2347.61 L1193.82 2342.66 L1209.04 2337.71 L1224.26 2332.51 L1239.48 2327.32 L1254.70 2321.87 L1269.80 2316.30 L1285.02 2310.48 L1300.24 2304.67 L1315.46 2298.73 L1330.68 2292.54 L1345.90 2286.35 L1361.13 2279.92 L1376.35 2273.36 L1391.57 2266.80 L1406.79 2259.99 L1422.01 2253.06 L1437.23 2246.01 L1452.45 2238.95 L1467.67 2231.65 L1482.90 2224.23 L1498.12 2216.68 L1513.34 2209.13 L1528.56 2201.33 L1543.78 2193.54 L1559.00 2185.49 L1574.22 2177.45 L1589.44 2169.28 L1604.67 2160.99 L1619.76 2152.57 L1634.98 2144.04 L1650.21 2135.50 L1665.43 2126.71 L1680.65 2117.92 L1695.87 2109.01 L1711.09 2100.10 L1726.31 2090.95 L1741.53 2081.79 L1756.76 2072.51 L1771.98 2063.10 L1787.20 2053.70 L1802.42 2044.04 L1817.64 2034.51 L1832.86 2024.74 L1848.08 2014.96 L1863.30 2005.06 L1878.53 1995.16 L1893.75 1985.01 L1908.97 1974.99 L1924.19 1964.72 L1939.41 1954.57 L1954.63 1944.17 L1969.85 1933.78 L1984.95 1923.26 L2000.17 1912.74 L2015.39 1902.10 L2030.61 1891.45 L2045.84 1880.69 L2061.06 1869.92 L2076.28 1859.03 L2091.50 1848.14 L2106.72 1837.25 L2121.94 1826.11 L2137.16 1815.10 L2152.38 1803.96 L2167.61 1792.70 L2182.83 1781.56 L2198.05 1770.18 L2213.27 1758.91 L2228.49 1747.53 L2243.71 1736.02 L2258.93 1724.63 L2274.15 1713.12 L2289.38 1701.49 L2304.60 1689.98 L2319.82 1678.35 L2335.04 1666.59 L2350.14 1654.96 L2365.36 1643.20 L2380.58 1631.45 L2395.80 1619.69 L2411.02 1607.93 L2426.24 1596.05 L2441.46 1584.30 L2456.68 1572.42 L2471.91 1560.54 L2487.13 1548.53 L2502.35 1536.65 L2517.57 1524.65 L2532.79 1512.77 L2548.01 1500.76 L2563.23 1488.76 L2578.45 1476.88 L2593.68 1464.87 L2608.90 1452.87 L2624.12 1440.87 L2639.34 1428.86 L2654.56 1416.73 L2669.78 1404.73 L2685.00 1392.73 L2700.22 1380.72 L2715.32 1368.72 L2730.54 1356.71 L2745.76 1344.71 L2760.99 1332.71 L2776.21 1320.70 L2791.43 1308.70 L2806.65 1296.82 L2821.87 1284.81 L2837.09 1272.81 L2852.31 1260.93 L2867.53 1248.92 L2882.76 1237.04 L2897.98 1225.16 L2913.20 1213.28 L2928.42 1201.40 L2943.64 1189.52 L2958.86 1177.77 L2974.08 1165.89 L2989.30 1154.13 L3004.53 1142.37 L3019.75 1130.62 L3034.97 1118.86 L3050.19 1107.23 L3065.41 1095.47 L3080.51 1083.84 L3095.73 1072.20 L3110.95 1060.57 L3126.17 1049.06 L3141.39 1037.43 L3156.61 1025.92 L3171.84 1014.41 L3187.06 1002.90 L3202.28 991.39 L3217.50 980.01 L3232.72 968.50 L3247.94 957.11 L3263.16 945.73 L3278.39 934.34 L3293.61 922.96 L3308.83 911.69 L3324.05 900.31 L3339.27 889.05 L3354.49 877.66 L3369.71 866.40 L3384.93 855.14 L3400.16 843.88 L3415.38 832.62 L3430.47 821.48 L3445.70 810.22 L3460.92 798.95 L3476.14 787.82 L3491.36 776.68 L3506.58 765.54 L3521.80 754.28 L3537.02 743.14 L3552.24 732.00 L3567.47 720.99 L3582.69 709.85 L3597.91 698.71 L3613.13 687.58 L3628.35 676.56 L3643.57 665.42 L3658.79 654.41 L3674.01 643.27 L3689.24 632.26 L3704.46 621.24 L3719.68 610.23 L3734.90 599.09 L3750.12 588.08 L3765.34 577.06 L3780.56 566.05 L3795.66 555.04 L3795.66 164.22 L3780.56 177.46 L3765.34 190.70 L3750.12 203.95 L3734.90 217.19 L3719.68 230.55 L3704.46 243.80 L3689.24 257.16 L3674.01 270.40 L3658.79 283.77 L3643.57 297.01 L3628.35 310.37 L3613.13 323.74 L3597.91 337.11 L3582.69 350.47 L3567.47 363.84 L3552.24 377.20 L3537.02 390.69 L3521.80 404.06 L3506.58 417.42 L3491.36 430.91 L3476.14 444.40 L3460.92 457.89 L3445.70 471.38 L3430.47 484.87 L3415.38 498.36 L3400.16 511.85 L3384.93 525.46 L3369.71 539.07 L3354.49 552.56 L3339.27 566.17 L3324.05 579.91 L3308.83 593.52 L3293.61 607.14 L3278.39 620.87 L3263.16 634.61 L3247.94 648.35 L3232.72 662.08 L3217.50 675.82 L3202.28 689.68 L3187.06 703.54 L3171.84 717.40 L3156.61 731.26 L3141.39 745.12 L3126.17 759.11 L3110.95 773.09 L3095.73 787.07 L3080.51 801.06 L3065.41 815.17 L3050.19 829.27 L3034.97 843.38 L3019.75 857.49 L3004.53 871.60 L2989.30 885.83 L2974.08 900.06 L2958.86 914.29 L2943.64 928.65 L2928.42 942.88 L2913.20 957.24 L2897.98 971.59 L2882.76 985.95 L2867.53 1000.30 L2852.31 1014.78 L2837.09 1029.14 L2821.87 1043.62 L2806.65 1057.97 L2791.43 1072.45 L2776.21 1086.93 L2760.99 1101.41 L2745.76 1115.89 L2730.54 1130.49 L2715.32 1144.97 L2700.22 1159.45 L2685.00 1173.93 L2669.78 1188.53 L2654.56 1203.01 L2639.34 1217.49 L2624.12 1232.09 L2608.90 1246.57 L2593.68 1261.05 L2578.45 1275.53 L2563.23 1290.01 L2548.01 1304.49 L2532.79 1318.97 L2517.57 1333.45 L2502.35 1347.80 L2487.13 1362.28 L2471.91 1376.64 L2456.68 1390.99 L2441.46 1405.35 L2426.24 1419.70 L2411.02 1434.06 L2395.80 1448.29 L2380.58 1462.52 L2365.36 1476.75 L2350.14 1490.86 L2335.04 1505.09 L2319.82 1519.08 L2304.60 1533.19 L2289.38 1547.17 L2274.15 1561.16 L2258.93 1575.14 L2243.71 1589.00 L2228.49 1602.74 L2213.27 1616.60 L2198.05 1630.33 L2182.83 1643.95 L2167.61 1657.56 L2152.38 1671.05 L2137.16 1684.54 L2121.94 1698.03 L2106.72 1711.39 L2091.50 1724.63 L2076.28 1737.88 L2061.06 1750.99 L2045.84 1763.99 L2030.61 1776.98 L2015.39 1789.98 L2000.17 1802.85 L1984.95 1815.59 L1969.85 1828.22 L1954.63 1840.84 L1939.41 1853.34 L1924.19 1865.84 L1908.97 1878.09 L1893.75 1890.34 L1878.53 1902.59 L1863.30 1914.60 L1848.08 1926.60 L1832.86 1938.48 L1817.64 1950.24 L1802.42 1961.87 L1787.20 1973.50 L1771.98 1984.89 L1756.76 1996.27 L1741.53 2007.54 L1726.31 2018.67 L1711.09 2029.69 L1695.87 2040.58 L1680.65 2051.47 L1665.43 2062.11 L1650.21 2072.63 L1634.98 2083.15 L1619.76 2093.42 L1604.67 2103.57 L1589.44 2113.72 L1574.22 2123.62 L1559.00 2133.39 L1543.78 2143.05 L1528.56 2152.57 L1513.34 2161.98 L1498.12 2171.26 L1482.90 2180.30 L1467.67 2189.33 L1452.45 2198.12 L1437.23 2206.78 L1422.01 2215.32 L1406.79 2223.73 L1391.57 2231.90 L1376.35 2239.94 L1361.13 2247.87 L1345.90 2255.66 L1330.68 2263.21 L1315.46 2270.64 L1300.24 2277.94 L1285.02 2284.99 L1269.80 2291.92 L1254.70 2298.73 L1239.48 2305.29 L1224.26 2311.72 L1209.04 2318.03 L1193.82 2324.10 L1178.60 2330.04 L1163.37 2335.73 L1148.15 2341.30 L1132.93 2346.62 L1117.71 2351.82 L1102.49 2356.77 L1087.27 2361.60 L1072.05 2366.30 L1056.83 2370.75 L1041.60 2374.96 L1026.38 2379.04 L1011.16 2383.00 L995.94 2386.72 L980.72 2390.18 L965.50 2393.52 L950.28 2396.74 L935.05 2399.71 L919.83 2402.56 L904.61 2405.16 L889.51 2407.63 L874.29 2409.98 L859.07 2412.09 L843.85 2413.94 L828.63 2415.68 L813.41 2417.28 L798.19 2418.77 L782.97 2420.01 L767.75 2421.24 L752.52 2422.23 L737.30 2422.98 L722.08 2423.72 L706.86 2424.34 L691.64 2424.83 L676.42 2425.20 L661.20 2425.45 L645.98 2425.70 L630.75 2425.82 L615.53 2425.82 L600.31 2425.82 L585.09 2425.82 L585.09 2425.82 Z" stroke-linejoin="round"/>
	</defs>
	<defs>
		<clipPath id="clipPath_WYUIhQHW">
			<use xlink:href="#path_cMjKmTnT"/>
		</clipPath>
	</defs>
	<use xlink:href="#path_cMjKmTnT" style="stroke:none;fill:#FF3333;fill-opacity:0.25"/>
	<use xlink:href="#path_cMjKmTnT" style="fill:none;stroke:#FF0000;stroke-opacity:0.25;stroke-width:17.28" clip-path="url(#clipPath_WYUIhQHW)"/>
	<path d=" M585.09 2425.95 L600.31 2425.95 L615.53 2425.95 L630.75 2425.82 L645.98 2425.70 L661.20 2425.58 L676.42 2425.33 L691.64 2425.08 L706.86 2424.59 L721.96 2424.09 L737.18 2423.47 L752.40 2422.73 L767.62 2421.86 L782.84 2420.87 L798.06 2419.64 L813.28 2418.40 L828.51 2416.91 L843.73 2415.30 L858.95 2413.57 L874.17 2411.72 L889.39 2409.61 L904.61 2407.38 L919.83 2405.03 L935.05 2402.43 L950.28 2399.71 L965.50 2396.86 L980.72 2393.77 L995.94 2390.55 L1011.16 2387.21 L1026.38 2383.62 L1041.60 2379.91 L1056.83 2375.95 L1072.05 2371.87 L1087.14 2367.66 L1102.37 2363.33 L1117.59 2358.75 L1132.81 2354.05 L1148.03 2349.10 L1163.25 2344.02 L1178.47 2338.82 L1193.69 2333.50 L1208.91 2327.93 L1224.13 2322.24 L1239.36 2316.42 L1254.58 2310.36 L1269.80 2304.17 L1285.02 2297.86 L1300.24 2291.43 L1315.46 2284.74 L1330.68 2277.94 L1345.90 2271.01 L1361.13 2263.95 L1376.35 2256.78 L1391.57 2249.47 L1406.79 2241.93 L1422.01 2234.25 L1437.23 2226.46 L1452.33 2218.54 L1467.55 2210.49 L1482.77 2202.32 L1497.99 2194.03 L1513.21 2185.62 L1528.44 2177.08 L1543.66 2168.29 L1558.88 2159.50 L1574.10 2150.59 L1589.32 2141.56 L1604.54 2132.40 L1619.76 2123.12 L1634.98 2113.59 L1650.21 2104.19 L1665.43 2094.53 L1680.65 2084.76 L1695.87 2074.86 L1711.09 2064.96 L1726.31 2054.93 L1741.53 2044.66 L1756.76 2034.39 L1771.98 2024.12 L1787.20 2013.60 L1802.30 2003.08 L1817.52 1992.44 L1832.74 1981.67 L1847.96 1970.78 L1863.18 1959.89 L1878.40 1948.88 L1893.62 1937.74 L1908.84 1926.60 L1924.07 1915.34 L1939.29 1903.95 L1954.51 1892.57 L1969.73 1881.06 L1984.95 1869.55 L2000.17 1857.79 L2015.39 1846.16 L2030.61 1834.28 L2045.84 1822.40 L2061.06 1810.52 L2076.28 1798.51 L2091.50 1786.51 L2106.72 1774.38 L2121.94 1762.13 L2137.16 1749.88 L2152.38 1737.63 L2167.48 1725.25 L2182.70 1712.75 L2197.92 1700.25 L2213.14 1687.76 L2228.37 1675.26 L2243.59 1662.63 L2258.81 1649.89 L2274.03 1637.14 L2289.25 1624.39 L2304.47 1611.65 L2319.69 1598.78 L2334.91 1585.91 L2350.14 1573.04 L2365.36 1560.04 L2380.58 1547.05 L2395.80 1534.05 L2411.02 1521.06 L2426.24 1507.94 L2441.46 1494.82 L2456.68 1481.71 L2471.91 1468.59 L2487.13 1455.47 L2502.35 1442.35 L2517.57 1429.11 L2532.67 1415.87 L2547.89 1402.75 L2563.11 1389.51 L2578.33 1376.27 L2593.55 1363.03 L2608.77 1349.78 L2623.99 1336.54 L2639.22 1323.18 L2654.44 1309.93 L2669.66 1296.69 L2684.88 1283.45 L2700.10 1270.21 L2715.32 1256.97 L2730.54 1243.60 L2745.76 1230.36 L2760.99 1217.12 L2776.21 1203.88 L2791.43 1190.64 L2806.65 1177.52 L2821.87 1164.28 L2837.09 1151.03 L2852.31 1137.92 L2867.53 1124.68 L2882.76 1111.56 L2897.85 1098.44 L2913.07 1085.32 L2928.30 1072.20 L2943.52 1059.09 L2958.74 1046.09 L2973.96 1033.10 L2989.18 1019.98 L3004.40 1007.11 L3019.62 994.11 L3034.84 981.12 L3050.07 968.25 L3065.29 955.38 L3080.51 942.51 L3095.73 929.76 L3110.95 916.89 L3126.17 904.15 L3141.39 891.40 L3156.61 878.65 L3171.84 865.91 L3187.06 853.28 L3202.28 840.66 L3217.50 828.04 L3232.72 815.41 L3247.94 802.79 L3263.04 790.17 L3278.26 777.67 L3293.48 765.17 L3308.70 752.67 L3323.93 740.17 L3339.15 727.67 L3354.37 715.17 L3369.59 702.80 L3384.81 690.30 L3400.03 677.92 L3415.25 665.55 L3430.47 653.17 L3445.70 640.80 L3460.92 628.55 L3476.14 616.17 L3491.36 603.80 L3506.58 591.54 L3521.80 579.29 L3537.02 566.92 L3552.24 554.66 L3567.47 542.41 L3582.69 530.16 L3597.91 517.91 L3613.01 505.78 L3628.23 493.53 L3643.45 481.28 L3658.67 469.15 L3673.89 456.90 L3689.11 444.77 L3704.33 432.52 L3719.55 420.39 L3734.78 408.26 L3750.00 396.14 L3765.22 383.88 L3780.44 371.76 L3795.66 359.63" stroke-linejoin="round" style="fill:none;stroke:#FF0000;stroke-width:8.64"/>
	<line x1="521.73" y1="2489.19" x2="521.73" y2="100.86" style="stroke:#000000;stroke-width:5.76"/>
	<line x1="521.73" y1="2425.82" x2="481.76" y2="2425.82" style="stroke:#000000;stroke-width:5.76"/>
	<text x="461.83" y="2460.85" style="font-family:'Helvetica';font-size:99.99px;fill:#000000" text-anchor="end">0.00</text>
	<line x1="521.73" y1="1867.45" x2="481.76" y2="1867.45" style="stroke:#000000;stroke-width:5.76"/>
	<text x="461.83" y="1902.47" style="font-family:'Helvetica';font-size:99.99px;fill:#000000" text-anchor="end">1.00</text>
	<line x1="521.73" y1="1308.94" x2="481.76" y2="1308.94" style="stroke:#000000;stroke-width:5.76"/>
	<text x="461.83" y="1343.97" style="font-family:'Helvetica';font-size:99.99px;fill:#000000" text-anchor="end">2.00</text>
	<line x1="521.73" y1="750.44" x2="481.76" y2="750.44" style="stroke:#000000;stroke-width:5.76"/>
	<text x="461.83" y="785.47" style="font-family:'Helvetica';font-size:99.99px;fill:#000000" text-anchor="end">3.00</text>
	<line x1="521.73" y1="191.94" x2="481.76" y2="191.94" style="stroke:#000000;stroke-width:5.76"/>
	<text x="461.83" y="226.97" style="font-family:'Helvetica';font-size:99.99px;fill:#000000" text-anchor="end">4.00</text>
	<text x="190.71" y="1294.96" style="font-family:'Helvetica';font-size:99.99px;fill:#000000" transform="rotate(-90 190.71,1294.96)" text-anchor="middle">Difference in curves (%)</text>
	<line x1="521.73" y1="2489.19" x2="3859.02" y2="2489.19" style="stroke:#000000;stroke-width:5.76"/>
	<line x1="585.09" y1="2489.19" x2="585.09" y2="2529.16" style="stroke:#000000;stroke-width:5.76"/>
	<text x="585.09" y="2619.14" style="font-family:'Helvetica';font-size:99.99px;fill:#000000" text-anchor="middle">0</text>
	<line x1="1345.90" y1="2489.19" x2="1345.90" y2="2529.16" style="stroke:#000000;stroke-width:5.76"/>
	<text x="1345.90" y="2619.14" style="font-family:'Helvetica';font-size:99.99px;fill:#000000" text-anchor="middle">50</text>
	<line x1="2106.72" y1="2489.19" x2="2106.72" y2="2529.16" style="stroke:#000000;stroke-width:5.76"/>
	<text x="2106.72" y="2619.14" style="font-family:'Helvetica';font-size:99.99px;fill:#000000" text-anchor="middle">100</text>
	<line x1="2867.53" y1="2489.19" x2="2867.53" y2="2529.16" style="stroke:#000000;stroke-width:5.76"/>
	<text x="2867.53" y="2619.14" style="font-family:'Helvetica';font-size:99.99px;fill:#000000" text-anchor="middle">150</text>
	<line x1="3628.35" y1="2489.19" x2="3628.35" y2="2529.16" style="stroke:#000000;stroke-width:5.76"/>
	<text x="3628.35" y="2619.14" style="font-family:'Helvetica';font-size:99.99px;fill:#000000" text-anchor="middle">200</text>
	<text x="2190.38" y="2729.16" style="font-family:'Helvetica';font-size:99.99px;fill:#000000" text-anchor="middle">Days from 1 March 2020</text>
</svg>
