<?xml version="1.0" encoding="UTF-8" standalone="no"?>
<!-- This is a Stata 16.1 generated SVG file (http://www.stata.com) -->

<svg version="1.1" width="5.50in" height="4.00in" viewBox="0 0 3960 2880" xmlns="http://www.w3.org/2000/svg" xmlns:xlink="http://www.w3.org/1999/xlink">
	<desc>Stata Graph - Graph</desc>
	<rect x="0" y="0" width="3960" height="2880" style="fill:#EAF2F3;stroke:none"/>
	<rect x="0.00" y="0.00" width="3959.88" height="2880.00" style="fill:#EAF2F3"/>
	<rect x="2.88" y="2.88" width="3954.12" height="2874.24" style="fill:none;stroke:#EAF2F3;stroke-width:5.76"/>
	<rect x="521.73" y="100.86" width="3337.29" height="2388.33" style="fill:#FFFFFF"/>
	<rect x="524.61" y="103.74" width="3331.53" height="2382.57" style="fill:none;stroke:#FFFFFF;stroke-width:5.76"/>
	<line x1="521.73" y1="2425.82" x2="3859.02" y2="2425.82" style="stroke:#EAF2F3;stroke-width:8.64"/>
	<line x1="521.73" y1="1671.91" x2="3859.02" y2="1671.91" style="stroke:#EAF2F3;stroke-width:8.64"/>
	<line x1="521.73" y1="918.01" x2="3859.02" y2="918.01" style="stroke:#EAF2F3;stroke-width:8.64"/>
	<line x1="521.73" y1="164.22" x2="3859.02" y2="164.22" style="stroke:#EAF2F3;stroke-width:8.64"/>
	<defs>
		<path id="path_pxdoRHTy" d="M585.09 2425.82 L585.09 2425.82 L600.31 2423.72 L615.53 2422.11 L630.75 2420.63 L645.98 2419.26 L661.20 2418.03 L676.42 2416.79 L691.64 2415.68 L706.86 2414.56 L722.08 2413.45 L737.30 2412.46 L752.52 2411.47 L767.75 2410.48 L782.97 2409.49 L798.19 2408.50 L813.41 2407.63 L828.63 2406.64 L843.85 2405.78 L859.07 2404.91 L874.29 2403.92 L889.51 2403.05 L904.61 2402.19 L919.83 2401.44 L935.05 2400.58 L950.28 2399.71 L965.50 2398.97 L980.72 2398.10 L995.94 2397.36 L1011.16 2396.49 L1026.38 2395.75 L1041.60 2395.01 L1056.83 2394.14 L1072.05 2393.40 L1087.27 2392.66 L1102.49 2391.91 L1117.71 2391.17 L1132.93 2390.43 L1148.15 2389.69 L1163.37 2388.94 L1178.60 2388.20 L1193.82 2387.58 L1209.04 2386.84 L1224.26 2386.10 L1239.48 2385.36 L1254.70 2384.74 L1269.80 2383.99 L1285.02 2383.38 L1300.24 2382.63 L1315.46 2382.01 L1330.68 2381.27 L1345.90 2380.65 L1361.13 2379.91 L1376.35 2379.29 L1391.57 2378.55 L1406.79 2377.93 L1422.01 2377.31 L1437.23 2376.69 L1452.45 2375.95 L1467.67 2375.33 L1482.90 2374.71 L1498.12 2374.09 L1513.34 2373.48 L1528.56 2372.86 L1543.78 2372.11 L1559.00 2371.50 L1574.22 2370.88 L1589.44 2370.26 L1604.67 2369.64 L1619.76 2369.02 L1634.98 2368.40 L1650.21 2367.78 L1665.43 2367.16 L1680.65 2366.55 L1695.87 2366.05 L1711.09 2365.43 L1726.31 2364.81 L1741.53 2364.19 L1756.76 2363.58 L1771.98 2362.96 L1787.20 2362.46 L1802.42 2361.84 L1817.64 2361.22 L1832.86 2360.61 L1848.08 2360.11 L1863.30 2359.49 L1878.53 2358.87 L1893.75 2358.38 L1908.97 2357.76 L1924.19 2357.14 L1939.41 2356.64 L1954.63 2356.03 L1969.85 2355.53 L1984.95 2354.91 L2000.17 2354.29 L2015.39 2353.80 L2030.61 2353.18 L2045.84 2352.68 L2061.06 2352.07 L2076.28 2351.57 L2091.50 2350.95 L2106.72 2350.46 L2121.94 2349.96 L2137.16 2349.34 L2152.38 2348.85 L2167.61 2348.23 L2182.83 2347.73 L2198.05 2347.12 L2213.27 2346.62 L2228.49 2346.13 L2243.71 2345.51 L2258.93 2345.01 L2274.15 2344.52 L2289.38 2343.90 L2304.60 2343.40 L2319.82 2342.91 L2335.04 2342.41 L2350.14 2341.79 L2365.36 2341.30 L2380.58 2340.80 L2395.80 2340.19 L2411.02 2339.69 L2426.24 2339.20 L2441.46 2338.70 L2456.68 2338.21 L2471.91 2337.59 L2487.13 2337.09 L2502.35 2336.60 L2517.57 2336.10 L2532.79 2335.61 L2548.01 2335.11 L2563.23 2334.62 L2578.45 2334.00 L2593.68 2333.50 L2608.90 2333.01 L2624.12 2332.51 L2639.34 2332.02 L2654.56 2331.52 L2669.78 2331.03 L2685.00 2330.53 L2700.22 2330.04 L2715.32 2329.54 L2730.54 2329.05 L2745.76 2328.55 L2760.99 2328.06 L2776.21 2327.56 L2791.43 2327.07 L2806.65 2326.57 L2821.87 2326.08 L2837.09 2325.58 L2852.31 2325.09 L2867.53 2324.59 L2882.76 2324.10 L2897.98 2323.60 L2913.20 2323.11 L2928.42 2322.61 L2943.64 2322.12 L2958.86 2321.62 L2974.08 2321.13 L2989.30 2320.63 L3004.53 2320.14 L3019.75 2319.77 L3034.97 2319.27 L3050.19 2318.78 L3065.41 2318.28 L3080.51 2317.79 L3095.73 2317.29 L3110.95 2316.80 L3126.17 2316.42 L3141.39 2315.93 L3156.61 2315.43 L3171.84 2314.94 L3187.06 2314.44 L3202.28 2313.95 L3217.50 2313.58 L3232.72 2313.08 L3247.94 2312.59 L3263.16 2312.09 L3278.39 2311.72 L3293.61 2311.23 L3308.83 2310.73 L3324.05 2310.24 L3339.27 2309.87 L3354.49 2309.37 L3369.71 2308.88 L3384.93 2308.38 L3400.16 2308.01 L3415.38 2307.51 L3430.47 2307.02 L3445.70 2306.65 L3460.92 2306.15 L3476.14 2305.66 L3491.36 2305.16 L3506.58 2304.79 L3521.80 2304.30 L3537.02 2303.80 L3552.24 2303.43 L3567.47 2302.94 L3582.69 2302.44 L3597.91 2302.07 L3613.13 2301.57 L3628.35 2301.20 L3643.57 2300.71 L3658.79 2300.21 L3674.01 2299.84 L3689.24 2299.35 L3704.46 2298.85 L3719.68 2298.48 L3734.90 2297.99 L3750.12 2297.61 L3765.34 2297.12 L3780.56 2296.75 L3795.66 2296.25 L3795.66 371.39 L3780.56 378.19 L3765.34 385.12 L3750.12 392.05 L3734.90 398.98 L3719.68 405.91 L3704.46 412.84 L3689.24 419.90 L3674.01 426.83 L3658.79 433.76 L3643.57 440.81 L3628.35 447.87 L3613.13 454.80 L3597.91 461.85 L3582.69 468.90 L3567.47 475.96 L3552.24 483.01 L3537.02 490.07 L3521.80 497.12 L3506.58 504.17 L3491.36 511.35 L3476.14 518.40 L3460.92 525.58 L3445.70 532.64 L3430.47 539.81 L3415.38 546.99 L3400.16 554.17 L3384.93 561.35 L3369.71 568.53 L3354.49 575.70 L3339.27 583.00 L3324.05 590.18 L3308.83 597.48 L3293.61 604.66 L3278.39 611.96 L3263.16 619.26 L3247.94 626.44 L3232.72 633.74 L3217.50 641.17 L3202.28 648.47 L3187.06 655.77 L3171.84 663.07 L3156.61 670.50 L3141.39 677.92 L3126.17 685.23 L3110.95 692.65 L3095.73 700.08 L3080.51 707.50 L3065.41 714.93 L3050.19 722.48 L3034.97 729.90 L3019.75 737.33 L3004.53 744.87 L2989.30 752.42 L2974.08 759.97 L2958.86 767.40 L2943.64 774.95 L2928.42 782.62 L2913.20 790.17 L2897.98 797.72 L2882.76 805.39 L2867.53 813.06 L2852.31 820.61 L2837.09 828.28 L2821.87 835.96 L2806.65 843.63 L2791.43 851.43 L2776.21 859.10 L2760.99 866.90 L2745.76 874.57 L2730.54 882.37 L2715.32 890.16 L2700.22 897.96 L2685.00 905.75 L2669.78 913.55 L2654.56 921.47 L2639.34 929.39 L2624.12 937.19 L2608.90 945.11 L2593.68 953.03 L2578.45 960.95 L2563.23 968.99 L2548.01 976.91 L2532.79 984.96 L2517.57 992.88 L2502.35 1000.92 L2487.13 1008.97 L2471.91 1017.13 L2456.68 1025.18 L2441.46 1033.34 L2426.24 1041.39 L2411.02 1049.56 L2395.80 1057.72 L2380.58 1065.89 L2365.36 1074.18 L2350.14 1082.35 L2335.04 1090.64 L2319.82 1098.93 L2304.60 1107.23 L2289.38 1115.52 L2274.15 1123.81 L2258.93 1132.22 L2243.71 1140.52 L2228.49 1148.93 L2213.27 1157.35 L2198.05 1165.89 L2182.83 1174.30 L2167.61 1182.84 L2152.38 1191.38 L2137.16 1199.92 L2121.94 1208.46 L2106.72 1217.00 L2091.50 1225.66 L2076.28 1234.32 L2061.06 1242.98 L2045.84 1251.65 L2030.61 1260.43 L2015.39 1269.10 L2000.17 1277.88 L1984.95 1286.67 L1969.85 1295.58 L1954.63 1304.37 L1939.41 1313.28 L1924.19 1322.19 L1908.97 1331.22 L1893.75 1340.13 L1878.53 1349.16 L1863.30 1358.20 L1848.08 1367.23 L1832.86 1376.39 L1817.64 1385.55 L1802.42 1394.71 L1787.20 1403.86 L1771.98 1413.15 L1756.76 1422.43 L1741.53 1431.71 L1726.31 1440.99 L1711.09 1450.40 L1695.87 1459.80 L1680.65 1469.33 L1665.43 1478.73 L1650.21 1488.26 L1634.98 1497.92 L1619.76 1507.45 L1604.67 1517.10 L1589.44 1526.88 L1574.22 1536.53 L1559.00 1546.30 L1543.78 1556.20 L1528.56 1566.11 L1513.34 1576.01 L1498.12 1585.91 L1482.90 1595.93 L1467.67 1605.95 L1452.45 1616.10 L1437.23 1626.25 L1422.01 1636.52 L1406.79 1646.79 L1391.57 1657.06 L1376.35 1667.46 L1361.13 1677.85 L1345.90 1688.37 L1330.68 1699.02 L1315.46 1709.54 L1300.24 1720.30 L1285.02 1731.07 L1269.80 1741.84 L1254.70 1752.73 L1239.48 1763.74 L1224.26 1774.75 L1209.04 1785.77 L1193.82 1797.03 L1178.60 1808.29 L1163.37 1819.68 L1148.15 1831.06 L1132.93 1842.57 L1117.71 1854.20 L1102.49 1865.96 L1087.27 1877.72 L1072.05 1889.72 L1056.83 1901.73 L1041.60 1913.85 L1026.38 1926.11 L1011.16 1938.48 L995.94 1950.98 L980.72 1963.60 L965.50 1976.35 L950.28 1989.34 L935.05 2002.34 L919.83 2015.58 L904.61 2029.07 L889.51 2042.68 L874.29 2056.42 L859.07 2070.40 L843.85 2084.63 L828.63 2099.11 L813.41 2113.84 L798.19 2128.94 L782.97 2144.16 L767.75 2159.88 L752.52 2175.96 L737.30 2192.42 L722.08 2209.25 L706.86 2226.83 L691.64 2244.90 L676.42 2263.83 L661.20 2283.63 L645.98 2304.54 L630.75 2327.07 L615.53 2351.94 L600.31 2380.78 L585.09 2425.82 L585.09 2425.82 Z" stroke-linejoin="round"/>
	</defs>
	<defs>
		<clipPath id="clipPath_UKRSIawT">
			<use xlink:href="#path_pxdoRHTy"/>
		</clipPath>
	</defs>
	<use xlink:href="#path_pxdoRHTy" style="stroke:none;fill:#FF3333;fill-opacity:0.25"/>
	<use xlink:href="#path_pxdoRHTy" style="fill:none;stroke:#FF0000;stroke-opacity:0.25;stroke-width:17.28" clip-path="url(#clipPath_UKRSIawT)"/>
	<path d=" M585.09 2425.95 L600.31 2402.31 L615.53 2387.09 L630.75 2373.97 L645.98 2361.97 L661.20 2350.83 L676.42 2340.43 L691.64 2330.41 L706.86 2320.76 L721.96 2311.47 L737.18 2302.44 L752.40 2293.78 L767.62 2285.24 L782.84 2276.95 L798.06 2268.78 L813.28 2260.74 L828.51 2252.94 L843.73 2245.27 L858.95 2237.72 L874.17 2230.29 L889.39 2222.87 L904.61 2215.69 L919.83 2208.51 L935.05 2201.58 L950.28 2194.53 L965.50 2187.72 L980.72 2180.91 L995.94 2174.23 L1011.16 2167.55 L1026.38 2160.99 L1041.60 2154.43 L1056.83 2148.00 L1072.05 2141.56 L1087.14 2135.25 L1102.37 2128.94 L1117.59 2122.75 L1132.81 2116.56 L1148.03 2110.50 L1163.25 2104.31 L1178.47 2098.37 L1193.69 2092.31 L1208.91 2086.37 L1224.13 2080.43 L1239.36 2074.61 L1254.58 2068.79 L1269.80 2062.98 L1285.02 2057.28 L1300.24 2051.47 L1315.46 2045.78 L1330.68 2040.21 L1345.90 2034.51 L1361.13 2028.94 L1376.35 2023.38 L1391.57 2017.93 L1406.79 2012.36 L1422.01 2006.92 L1437.23 2001.47 L1452.33 1996.15 L1467.55 1990.70 L1482.77 1985.38 L1497.99 1980.06 L1513.21 1974.74 L1528.44 1969.54 L1543.66 1964.22 L1558.88 1959.02 L1574.10 1953.83 L1589.32 1948.63 L1604.54 1943.43 L1619.76 1938.36 L1634.98 1933.28 L1650.21 1928.09 L1665.43 1923.01 L1680.65 1918.06 L1695.87 1912.99 L1711.09 1907.91 L1726.31 1902.96 L1741.53 1898.01 L1756.76 1893.06 L1771.98 1888.11 L1787.20 1883.16 L1802.30 1878.34 L1817.52 1873.39 L1832.74 1868.56 L1847.96 1863.73 L1863.18 1858.91 L1878.40 1854.08 L1893.62 1849.25 L1908.84 1844.55 L1924.07 1839.72 L1939.29 1835.02 L1954.51 1830.32 L1969.73 1825.62 L1984.95 1820.91 L2000.17 1816.21 L2015.39 1811.51 L2030.61 1806.93 L2045.84 1802.23 L2061.06 1797.65 L2076.28 1792.95 L2091.50 1788.37 L2106.72 1783.79 L2121.94 1779.21 L2137.16 1774.63 L2152.38 1770.18 L2167.48 1765.60 L2182.70 1761.02 L2197.92 1756.56 L2213.14 1752.11 L2228.37 1747.53 L2243.59 1743.07 L2258.81 1738.62 L2274.03 1734.16 L2289.25 1729.83 L2304.47 1725.38 L2319.69 1720.92 L2334.91 1716.59 L2350.14 1712.13 L2365.36 1707.80 L2380.58 1703.35 L2395.80 1699.02 L2411.02 1694.69 L2426.24 1690.35 L2441.46 1686.02 L2456.68 1681.69 L2471.91 1677.48 L2487.13 1673.15 L2502.35 1668.82 L2517.57 1664.61 L2532.67 1660.28 L2547.89 1656.07 L2563.11 1651.87 L2578.33 1647.54 L2593.55 1643.33 L2608.77 1639.12 L2623.99 1634.91 L2639.22 1630.70 L2654.44 1626.50 L2669.66 1622.41 L2684.88 1618.21 L2700.10 1614.00 L2715.32 1609.91 L2730.54 1605.71 L2745.76 1601.62 L2760.99 1597.54 L2776.21 1593.33 L2791.43 1589.25 L2806.65 1585.16 L2821.87 1581.08 L2837.09 1577.00 L2852.31 1572.91 L2867.53 1568.83 L2882.76 1564.74 L2897.85 1560.78 L2913.07 1556.70 L2928.30 1552.62 L2943.52 1548.66 L2958.74 1544.57 L2973.96 1540.61 L2989.18 1536.65 L3004.40 1532.57 L3019.62 1528.61 L3034.84 1524.65 L3050.07 1520.69 L3065.29 1516.73 L3080.51 1512.77 L3095.73 1508.81 L3110.95 1504.85 L3126.17 1500.89 L3141.39 1496.93 L3156.61 1492.97 L3171.84 1489.13 L3187.06 1485.17 L3202.28 1481.33 L3217.50 1477.37 L3232.72 1473.54 L3247.94 1469.58 L3263.04 1465.74 L3278.26 1461.90 L3293.48 1457.94 L3308.70 1454.11 L3323.93 1450.27 L3339.15 1446.44 L3354.37 1442.60 L3369.59 1438.76 L3384.81 1434.93 L3400.03 1431.09 L3415.25 1427.25 L3430.47 1423.54 L3445.70 1419.70 L3460.92 1415.87 L3476.14 1412.16 L3491.36 1408.32 L3506.58 1404.61 L3521.80 1400.77 L3537.02 1397.06 L3552.24 1393.22 L3567.47 1389.51 L3582.69 1385.80 L3597.91 1381.96 L3613.01 1378.25 L3628.23 1374.53 L3643.45 1370.82 L3658.67 1367.11 L3673.89 1363.40 L3689.11 1359.68 L3704.33 1355.97 L3719.55 1352.26 L3734.78 1348.55 L3750.00 1344.83 L3765.22 1341.24 L3780.44 1337.53 L3795.66 1333.82" stroke-linejoin="round" style="fill:none;stroke:#FF0000;stroke-width:8.64"/>
	<line x1="521.73" y1="2489.19" x2="521.73" y2="100.86" style="stroke:#000000;stroke-width:5.76"/>
	<line x1="521.73" y1="2425.82" x2="481.76" y2="2425.82" style="stroke:#000000;stroke-width:5.76"/>
	<text x="461.83" y="2460.85" style="font-family:'Helvetica';font-size:99.99px;fill:#000000" text-anchor="end">0.00</text>
	<line x1="521.73" y1="1671.91" x2="481.76" y2="1671.91" style="stroke:#000000;stroke-width:5.76"/>
	<text x="461.83" y="1706.94" style="font-family:'Helvetica';font-size:99.99px;fill:#000000" text-anchor="end">0.05</text>
	<line x1="521.73" y1="918.01" x2="481.76" y2="918.01" style="stroke:#000000;stroke-width:5.76"/>
	<text x="461.83" y="953.03" style="font-family:'Helvetica';font-size:99.99px;fill:#000000" text-anchor="end">0.10</text>
	<line x1="521.73" y1="164.22" x2="481.76" y2="164.22" style="stroke:#000000;stroke-width:5.76"/>
	<text x="461.83" y="199.25" style="font-family:'Helvetica';font-size:99.99px;fill:#000000" text-anchor="end">0.15</text>
	<text x="190.71" y="1294.96" style="font-family:'Helvetica';font-size:99.99px;fill:#000000" transform="rotate(-90 190.71,1294.96)" text-anchor="middle">Difference in curves (%)</text>
	<line x1="521.73" y1="2489.19" x2="3859.02" y2="2489.19" style="stroke:#000000;stroke-width:5.76"/>
	<line x1="585.09" y1="2489.19" x2="585.09" y2="2529.16" style="stroke:#000000;stroke-width:5.76"/>
	<text x="585.09" y="2619.14" style="font-family:'Helvetica';font-size:99.99px;fill:#000000" text-anchor="middle">0</text>
	<line x1="1345.90" y1="2489.19" x2="1345.90" y2="2529.16" style="stroke:#000000;stroke-width:5.76"/>
	<text x="1345.90" y="2619.14" style="font-family:'Helvetica';font-size:99.99px;fill:#000000" text-anchor="middle">50</text>
	<line x1="2106.72" y1="2489.19" x2="2106.72" y2="2529.16" style="stroke:#000000;stroke-width:5.76"/>
	<text x="2106.72" y="2619.14" style="font-family:'Helvetica';font-size:99.99px;fill:#000000" text-anchor="middle">100</text>
	<line x1="2867.53" y1="2489.19" x2="2867.53" y2="2529.16" style="stroke:#000000;stroke-width:5.76"/>
	<text x="2867.53" y="2619.14" style="font-family:'Helvetica';font-size:99.99px;fill:#000000" text-anchor="middle">150</text>
	<line x1="3628.35" y1="2489.19" x2="3628.35" y2="2529.16" style="stroke:#000000;stroke-width:5.76"/>
	<text x="3628.35" y="2619.14" style="font-family:'Helvetica';font-size:99.99px;fill:#000000" text-anchor="middle">200</text>
	<text x="2190.38" y="2729.16" style="font-family:'Helvetica';font-size:99.99px;fill:#000000" text-anchor="middle">Days from 1 March 2020</text>
</svg>
