<?xml version="1.0" encoding="UTF-8" standalone="no"?>
<!-- This is a Stata 16.1 generated SVG file (http://www.stata.com) -->

<svg version="1.1" width="5.50in" height="4.00in" viewBox="0 0 3960 2880" xmlns="http://www.w3.org/2000/svg" xmlns:xlink="http://www.w3.org/1999/xlink">
	<desc>Stata Graph - Graph</desc>
	<rect x="0" y="0" width="3960" height="2880" style="fill:#EAF2F3;stroke:none"/>
	<rect x="0.00" y="0.00" width="3959.88" height="2880.00" style="fill:#EAF2F3"/>
	<rect x="2.88" y="2.88" width="3954.12" height="2874.24" style="fill:none;stroke:#EAF2F3;stroke-width:5.76"/>
	<rect x="521.73" y="100.86" width="3337.29" height="2388.33" style="fill:#FFFFFF"/>
	<rect x="524.61" y="103.74" width="3331.53" height="2382.57" style="fill:none;stroke:#FFFFFF;stroke-width:5.76"/>
	<line x1="521.73" y1="2425.82" x2="3859.02" y2="2425.82" style="stroke:#EAF2F3;stroke-width:8.64"/>
	<line x1="521.73" y1="1973.50" x2="3859.02" y2="1973.50" style="stroke:#EAF2F3;stroke-width:8.64"/>
	<line x1="521.73" y1="1521.18" x2="3859.02" y2="1521.18" style="stroke:#EAF2F3;stroke-width:8.64"/>
	<line x1="521.73" y1="1068.86" x2="3859.02" y2="1068.86" style="stroke:#EAF2F3;stroke-width:8.64"/>
	<line x1="521.73" y1="616.54" x2="3859.02" y2="616.54" style="stroke:#EAF2F3;stroke-width:8.64"/>
	<line x1="521.73" y1="164.22" x2="3859.02" y2="164.22" style="stroke:#EAF2F3;stroke-width:8.64"/>
	<defs>
		<path id="path_worqIkIU" d="M585.09 2425.82 L585.09 2425.82 L600.31 2425.82 L615.53 2425.82 L630.75 2425.82 L645.98 2425.82 L661.20 2425.82 L676.42 2425.82 L691.64 2425.82 L706.86 2425.82 L722.08 2425.70 L737.30 2425.45 L752.52 2425.08 L767.75 2424.46 L782.97 2423.72 L798.19 2422.61 L813.41 2421.12 L828.63 2419.39 L843.85 2417.16 L859.07 2414.44 L874.29 2411.34 L889.51 2407.76 L904.61 2403.67 L919.83 2399.22 L935.05 2394.27 L950.28 2388.82 L965.50 2383.00 L980.72 2376.82 L995.94 2370.26 L1011.16 2363.45 L1026.38 2356.27 L1041.60 2348.85 L1056.83 2341.18 L1072.05 2333.26 L1087.27 2325.34 L1102.49 2317.29 L1117.71 2309.12 L1132.93 2300.96 L1148.15 2292.66 L1163.37 2284.62 L1178.60 2276.45 L1193.82 2268.41 L1209.04 2260.49 L1224.26 2252.69 L1239.48 2245.02 L1254.70 2237.47 L1269.80 2230.17 L1285.02 2222.99 L1300.24 2216.06 L1315.46 2209.38 L1330.68 2202.82 L1345.90 2196.51 L1361.13 2190.44 L1376.35 2184.63 L1391.57 2178.93 L1406.79 2173.61 L1422.01 2168.42 L1437.23 2163.47 L1452.45 2158.76 L1467.67 2154.31 L1482.90 2149.98 L1498.12 2145.89 L1513.34 2141.93 L1528.56 2138.10 L1543.78 2134.51 L1559.00 2131.04 L1574.22 2127.70 L1589.44 2124.61 L1604.67 2121.51 L1619.76 2118.54 L1634.98 2115.82 L1650.21 2113.10 L1665.43 2110.50 L1680.65 2108.02 L1695.87 2105.55 L1711.09 2103.32 L1726.31 2100.97 L1741.53 2098.87 L1756.76 2096.76 L1771.98 2094.66 L1787.20 2092.68 L1802.42 2090.82 L1817.64 2088.84 L1832.86 2086.99 L1848.08 2085.25 L1863.30 2083.40 L1878.53 2081.66 L1893.75 2079.93 L1908.97 2078.20 L1924.19 2076.59 L1939.41 2074.86 L1954.63 2073.25 L1969.85 2071.64 L1984.95 2070.03 L2000.17 2068.42 L2015.39 2066.81 L2030.61 2065.33 L2045.84 2063.72 L2061.06 2062.23 L2076.28 2060.75 L2091.50 2059.26 L2106.72 2057.78 L2121.94 2056.29 L2137.16 2054.81 L2152.38 2053.45 L2167.61 2051.96 L2182.83 2050.60 L2198.05 2049.24 L2213.27 2047.76 L2228.49 2046.39 L2243.71 2045.03 L2258.93 2043.67 L2274.15 2042.43 L2289.38 2041.07 L2304.60 2039.71 L2319.82 2038.47 L2335.04 2037.11 L2350.14 2035.87 L2365.36 2034.64 L2380.58 2033.40 L2395.80 2032.04 L2411.02 2030.80 L2426.24 2029.56 L2441.46 2028.45 L2456.68 2027.21 L2471.91 2025.97 L2487.13 2024.74 L2502.35 2023.62 L2517.57 2022.39 L2532.79 2021.27 L2548.01 2020.03 L2563.23 2018.92 L2578.45 2017.81 L2593.68 2016.69 L2608.90 2015.58 L2624.12 2014.47 L2639.34 2013.35 L2654.56 2012.24 L2669.78 2011.12 L2685.00 2010.01 L2700.22 2008.90 L2715.32 2007.78 L2730.54 2006.79 L2745.76 2005.68 L2760.99 2004.69 L2776.21 2003.58 L2791.43 2002.59 L2806.65 2001.47 L2821.87 2000.48 L2837.09 1999.49 L2852.31 1998.38 L2867.53 1997.39 L2882.76 1996.40 L2897.98 1995.41 L2913.20 1994.42 L2928.42 1993.43 L2943.64 1992.44 L2958.86 1991.45 L2974.08 1990.46 L2989.30 1989.47 L3004.53 1988.48 L3019.75 1987.49 L3034.97 1986.62 L3050.19 1985.63 L3065.41 1984.64 L3080.51 1983.77 L3095.73 1982.78 L3110.95 1981.92 L3126.17 1980.93 L3141.39 1980.06 L3156.61 1979.07 L3171.84 1978.21 L3187.06 1977.22 L3202.28 1976.35 L3217.50 1975.48 L3232.72 1974.62 L3247.94 1973.63 L3263.16 1972.76 L3278.39 1971.89 L3293.61 1971.03 L3308.83 1970.16 L3324.05 1969.30 L3339.27 1968.31 L3354.49 1967.44 L3369.71 1966.57 L3384.93 1965.83 L3400.16 1964.96 L3415.38 1964.10 L3430.47 1963.23 L3445.70 1962.37 L3460.92 1961.50 L3476.14 1960.63 L3491.36 1959.89 L3506.58 1959.02 L3521.80 1958.16 L3537.02 1957.29 L3552.24 1956.55 L3567.47 1955.68 L3582.69 1954.82 L3597.91 1954.07 L3613.13 1953.21 L3628.35 1952.46 L3643.57 1951.60 L3658.79 1950.86 L3674.01 1949.99 L3689.24 1949.25 L3704.46 1948.38 L3719.68 1947.64 L3734.90 1946.77 L3750.12 1946.03 L3765.34 1945.29 L3780.56 1944.42 L3795.66 1943.68 L3795.66 407.15 L3780.56 410.37 L3765.34 413.71 L3750.12 416.93 L3734.90 420.27 L3719.68 423.61 L3704.46 426.83 L3689.24 430.17 L3674.01 433.51 L3658.79 436.85 L3643.57 440.19 L3628.35 443.66 L3613.13 447.00 L3597.91 450.46 L3582.69 453.81 L3567.47 457.27 L3552.24 460.61 L3537.02 464.08 L3521.80 467.54 L3506.58 471.01 L3491.36 474.47 L3476.14 478.06 L3460.92 481.53 L3445.70 485.12 L3430.47 488.58 L3415.38 492.17 L3400.16 495.76 L3384.93 499.35 L3369.71 502.94 L3354.49 506.52 L3339.27 510.11 L3324.05 513.70 L3308.83 517.41 L3293.61 521.13 L3278.39 524.72 L3263.16 528.43 L3247.94 532.14 L3232.72 535.98 L3217.50 539.69 L3202.28 543.40 L3187.06 547.24 L3171.84 551.08 L3156.61 554.79 L3141.39 558.62 L3126.17 562.59 L3110.95 566.42 L3095.73 570.26 L3080.51 574.22 L3065.41 578.18 L3050.19 582.14 L3034.97 586.10 L3019.75 590.06 L3004.53 594.02 L2989.30 598.10 L2974.08 602.19 L2958.86 606.15 L2943.64 610.35 L2928.42 614.44 L2913.20 618.52 L2897.98 622.73 L2882.76 626.94 L2867.53 631.14 L2852.31 635.35 L2837.09 639.56 L2821.87 643.89 L2806.65 648.22 L2791.43 652.55 L2776.21 656.89 L2760.99 661.22 L2745.76 665.67 L2730.54 670.13 L2715.32 674.58 L2700.22 679.04 L2685.00 683.49 L2669.78 688.07 L2654.56 692.65 L2639.34 697.23 L2624.12 701.93 L2608.90 706.63 L2593.68 711.34 L2578.45 716.04 L2563.23 720.74 L2548.01 725.57 L2532.79 730.40 L2517.57 735.35 L2502.35 740.17 L2487.13 745.12 L2471.91 750.07 L2456.68 755.15 L2441.46 760.22 L2426.24 765.29 L2411.02 770.37 L2395.80 775.57 L2380.58 780.76 L2365.36 785.96 L2350.14 791.28 L2335.04 796.60 L2319.82 802.05 L2304.60 807.49 L2289.38 812.94 L2274.15 818.38 L2258.93 823.95 L2243.71 829.65 L2228.49 835.34 L2213.27 841.03 L2198.05 846.72 L2182.83 852.54 L2167.61 858.48 L2152.38 864.42 L2137.16 870.36 L2121.94 876.42 L2106.72 882.49 L2091.50 888.68 L2076.28 894.99 L2061.06 901.18 L2045.84 907.61 L2030.61 914.05 L2015.39 920.48 L2000.17 927.04 L1984.95 933.72 L1969.85 940.41 L1954.63 947.09 L1939.41 954.02 L1924.19 960.95 L1908.97 967.88 L1893.75 975.06 L1878.53 982.23 L1863.30 989.54 L1848.08 996.96 L1832.86 1004.51 L1817.64 1012.18 L1802.42 1020.10 L1787.20 1028.15 L1771.98 1036.44 L1756.76 1044.98 L1741.53 1053.76 L1726.31 1062.80 L1711.09 1072.20 L1695.87 1081.86 L1680.65 1091.88 L1665.43 1102.28 L1650.21 1113.17 L1634.98 1124.30 L1619.76 1136.06 L1604.67 1148.19 L1589.44 1160.94 L1574.22 1174.18 L1559.00 1187.91 L1543.78 1202.39 L1528.56 1217.49 L1513.34 1233.21 L1498.12 1249.79 L1482.90 1266.99 L1467.67 1285.06 L1452.45 1303.87 L1437.23 1323.55 L1422.01 1344.21 L1406.79 1365.75 L1391.57 1388.27 L1376.35 1411.78 L1361.13 1436.16 L1345.90 1461.53 L1330.68 1487.89 L1315.46 1515.24 L1300.24 1543.33 L1285.02 1572.42 L1269.80 1602.24 L1254.70 1632.81 L1239.48 1664.12 L1224.26 1696.17 L1209.04 1728.72 L1193.82 1761.88 L1178.60 1795.42 L1163.37 1829.33 L1148.15 1863.36 L1132.93 1897.64 L1117.71 1931.92 L1102.49 1966.08 L1087.27 1999.99 L1072.05 2033.40 L1056.83 2066.32 L1041.60 2098.49 L1026.38 2129.80 L1011.16 2159.88 L995.94 2188.83 L980.72 2216.31 L965.50 2242.30 L950.28 2266.68 L935.05 2289.20 L919.83 2309.99 L904.61 2328.92 L889.51 2345.88 L874.29 2360.85 L859.07 2373.97 L843.85 2385.23 L828.63 2394.76 L813.41 2402.68 L798.19 2408.99 L782.97 2414.07 L767.75 2417.90 L752.52 2420.75 L737.30 2422.73 L722.08 2424.09 L706.86 2424.96 L691.64 2425.45 L676.42 2425.70 L661.20 2425.82 L645.98 2425.82 L630.75 2425.82 L615.53 2425.82 L600.31 2425.82 L585.09 2425.82 L585.09 2425.82 Z" stroke-linejoin="round"/>
	</defs>
	<defs>
		<clipPath id="clipPath_SlyFwbuL">
			<use xlink:href="#path_worqIkIU"/>
		</clipPath>
	</defs>
	<use xlink:href="#path_worqIkIU" style="stroke:none;fill:#FF3333;fill-opacity:0.25"/>
	<use xlink:href="#path_worqIkIU" style="fill:none;stroke:#FF0000;stroke-opacity:0.25;stroke-width:17.28" clip-path="url(#clipPath_SlyFwbuL)"/>
	<path d=" M585.09 2425.95 L600.31 2425.95 L615.53 2425.95 L630.75 2425.95 L645.98 2425.95 L661.20 2425.82 L676.42 2425.82 L691.64 2425.70 L706.86 2425.45 L721.96 2424.96 L737.18 2424.09 L752.40 2422.98 L767.62 2421.24 L782.84 2418.89 L798.06 2415.92 L813.28 2411.96 L828.51 2407.14 L843.73 2401.32 L858.95 2394.27 L874.17 2386.22 L889.39 2376.82 L904.61 2366.42 L919.83 2354.66 L935.05 2341.79 L950.28 2327.81 L965.50 2312.71 L980.72 2296.62 L995.94 2279.67 L1011.16 2261.73 L1026.38 2243.04 L1041.60 2223.73 L1056.83 2203.81 L1072.05 2183.39 L1087.14 2162.72 L1102.37 2141.68 L1117.59 2120.52 L1132.81 2099.36 L1148.03 2078.07 L1163.25 2057.04 L1178.47 2036.00 L1193.69 2015.21 L1208.91 1994.66 L1224.13 1974.49 L1239.36 1954.69 L1254.58 1935.26 L1269.80 1916.20 L1285.02 1897.77 L1300.24 1879.82 L1315.46 1862.37 L1330.68 1845.42 L1345.90 1829.08 L1361.13 1813.37 L1376.35 1798.27 L1391.57 1783.66 L1406.79 1769.68 L1422.01 1756.44 L1437.23 1743.57 L1452.33 1731.44 L1467.55 1719.68 L1482.77 1708.55 L1497.99 1697.90 L1513.21 1687.63 L1528.44 1677.85 L1543.66 1668.45 L1558.88 1659.54 L1574.10 1651.00 L1589.32 1642.83 L1604.54 1634.91 L1619.76 1627.36 L1634.98 1620.19 L1650.21 1613.13 L1665.43 1606.45 L1680.65 1600.01 L1695.87 1593.83 L1711.09 1587.76 L1726.31 1581.95 L1741.53 1576.38 L1756.76 1570.93 L1771.98 1565.61 L1787.20 1560.54 L1802.30 1555.46 L1817.52 1550.64 L1832.74 1545.81 L1847.96 1541.11 L1863.18 1536.53 L1878.40 1531.95 L1893.62 1527.49 L1908.84 1523.16 L1924.07 1518.83 L1939.29 1514.50 L1954.51 1510.29 L1969.73 1506.08 L1984.95 1501.88 L2000.17 1497.79 L2015.39 1493.71 L2030.61 1489.75 L2045.84 1485.79 L2061.06 1481.83 L2076.28 1477.87 L2091.50 1474.03 L2106.72 1470.20 L2121.94 1466.48 L2137.16 1462.65 L2152.38 1458.93 L2167.48 1455.35 L2182.70 1451.63 L2197.92 1448.04 L2213.14 1444.46 L2228.37 1440.87 L2243.59 1437.40 L2258.81 1433.94 L2274.03 1430.47 L2289.25 1427.01 L2304.47 1423.66 L2319.69 1420.32 L2334.91 1416.98 L2350.14 1413.64 L2365.36 1410.42 L2380.58 1407.08 L2395.80 1403.86 L2411.02 1400.65 L2426.24 1397.55 L2441.46 1394.33 L2456.68 1391.24 L2471.91 1388.15 L2487.13 1385.05 L2502.35 1381.96 L2517.57 1378.87 L2532.67 1375.90 L2547.89 1372.93 L2563.11 1369.96 L2578.33 1366.99 L2593.55 1364.02 L2608.77 1361.17 L2623.99 1358.20 L2639.22 1355.35 L2654.44 1352.51 L2669.66 1349.66 L2684.88 1346.81 L2700.10 1344.09 L2715.32 1341.24 L2730.54 1338.52 L2745.76 1335.68 L2760.99 1332.95 L2776.21 1330.23 L2791.43 1327.63 L2806.65 1324.91 L2821.87 1322.19 L2837.09 1319.59 L2852.31 1316.99 L2867.53 1314.27 L2882.76 1311.67 L2897.85 1309.07 L2913.07 1306.47 L2928.30 1303.99 L2943.52 1301.40 L2958.74 1298.92 L2973.96 1296.32 L2989.18 1293.85 L3004.40 1291.37 L3019.62 1288.90 L3034.84 1286.42 L3050.07 1283.95 L3065.29 1281.47 L3080.51 1279.00 L3095.73 1276.64 L3110.95 1274.17 L3126.17 1271.82 L3141.39 1269.47 L3156.61 1266.99 L3171.84 1264.64 L3187.06 1262.29 L3202.28 1259.94 L3217.50 1257.59 L3232.72 1255.36 L3247.94 1253.01 L3263.04 1250.66 L3278.26 1248.43 L3293.48 1246.08 L3308.70 1243.85 L3323.93 1241.62 L3339.15 1239.27 L3354.37 1237.04 L3369.59 1234.82 L3384.81 1232.59 L3400.03 1230.36 L3415.25 1228.13 L3430.47 1225.91 L3445.70 1223.80 L3460.92 1221.57 L3476.14 1219.47 L3491.36 1217.24 L3506.58 1215.14 L3521.80 1212.91 L3537.02 1210.81 L3552.24 1208.70 L3567.47 1206.48 L3582.69 1204.37 L3597.91 1202.27 L3613.01 1200.17 L3628.23 1198.06 L3643.45 1195.96 L3658.67 1193.85 L3673.89 1191.87 L3689.11 1189.77 L3704.33 1187.67 L3719.55 1185.69 L3734.78 1183.58 L3750.00 1181.60 L3765.22 1179.50 L3780.44 1177.52 L3795.66 1175.41" stroke-linejoin="round" style="fill:none;stroke:#FF0000;stroke-width:8.64"/>
	<line x1="521.73" y1="2489.19" x2="521.73" y2="100.86" style="stroke:#000000;stroke-width:5.76"/>
	<line x1="521.73" y1="2425.82" x2="481.76" y2="2425.82" style="stroke:#000000;stroke-width:5.76"/>
	<text x="461.83" y="2460.85" style="font-family:'Helvetica';font-size:99.99px;fill:#000000" text-anchor="end">0.00</text>
	<line x1="521.73" y1="1973.50" x2="481.76" y2="1973.50" style="stroke:#000000;stroke-width:5.76"/>
	<text x="461.83" y="2008.53" style="font-family:'Helvetica';font-size:99.99px;fill:#000000" text-anchor="end">0.05</text>
	<line x1="521.73" y1="1521.18" x2="481.76" y2="1521.18" style="stroke:#000000;stroke-width:5.76"/>
	<text x="461.83" y="1556.21" style="font-family:'Helvetica';font-size:99.99px;fill:#000000" text-anchor="end">0.10</text>
	<line x1="521.73" y1="1068.86" x2="481.76" y2="1068.86" style="stroke:#000000;stroke-width:5.76"/>
	<text x="461.83" y="1103.89" style="font-family:'Helvetica';font-size:99.99px;fill:#000000" text-anchor="end">0.15</text>
	<line x1="521.73" y1="616.54" x2="481.76" y2="616.54" style="stroke:#000000;stroke-width:5.76"/>
	<text x="461.83" y="651.57" style="font-family:'Helvetica';font-size:99.99px;fill:#000000" text-anchor="end">0.20</text>
	<line x1="521.73" y1="164.22" x2="481.76" y2="164.22" style="stroke:#000000;stroke-width:5.76"/>
	<text x="461.83" y="199.25" style="font-family:'Helvetica';font-size:99.99px;fill:#000000" text-anchor="end">0.25</text>
	<text x="190.71" y="1294.96" style="font-family:'Helvetica';font-size:99.99px;fill:#000000" transform="rotate(-90 190.71,1294.96)" text-anchor="middle">Difference in curves (%)</text>
	<line x1="521.73" y1="2489.19" x2="3859.02" y2="2489.19" style="stroke:#000000;stroke-width:5.76"/>
	<line x1="585.09" y1="2489.19" x2="585.09" y2="2529.16" style="stroke:#000000;stroke-width:5.76"/>
	<text x="585.09" y="2619.14" style="font-family:'Helvetica';font-size:99.99px;fill:#000000" text-anchor="middle">0</text>
	<line x1="1345.90" y1="2489.19" x2="1345.90" y2="2529.16" style="stroke:#000000;stroke-width:5.76"/>
	<text x="1345.90" y="2619.14" style="font-family:'Helvetica';font-size:99.99px;fill:#000000" text-anchor="middle">50</text>
	<line x1="2106.72" y1="2489.19" x2="2106.72" y2="2529.16" style="stroke:#000000;stroke-width:5.76"/>
	<text x="2106.72" y="2619.14" style="font-family:'Helvetica';font-size:99.99px;fill:#000000" text-anchor="middle">100</text>
	<line x1="2867.53" y1="2489.19" x2="2867.53" y2="2529.16" style="stroke:#000000;stroke-width:5.76"/>
	<text x="2867.53" y="2619.14" style="font-family:'Helvetica';font-size:99.99px;fill:#000000" text-anchor="middle">150</text>
	<line x1="3628.35" y1="2489.19" x2="3628.35" y2="2529.16" style="stroke:#000000;stroke-width:5.76"/>
	<text x="3628.35" y="2619.14" style="font-family:'Helvetica';font-size:99.99px;fill:#000000" text-anchor="middle">200</text>
	<text x="2190.38" y="2729.16" style="font-family:'Helvetica';font-size:99.99px;fill:#000000" text-anchor="middle">Days from 1 March 2020</text>
</svg>
